<svg version="1.1" xmlns="http://www.w3.org/2000/svg" style="display: block;" viewBox="0 0 2048 1830" width="600" height="536" preserveAspectRatio="none">
<path transform="translate(0,0)" fill="rgb(0,0,0)" d="M 180.489 1830 C 190.089 1706.21 220.367 1600.03 247.282 1480 L 262.114 1412.16 C 265.074 1398.66 274.175 1358.55 273.561 1345.83 C 271.144 1295.73 266.765 1240.9 252.725 1192.65 C 248.97 1179.74 240.599 1160.71 235.698 1148.25 C 228.559 1129.74 221.77 1111.09 215.332 1092.32 C 174.195 971.065 141.054 830.801 148.576 701.367 C 149.536 684.839 159.33 636.297 163.346 617.357 C 175.338 560.795 190.869 494.467 221.489 444.958 C 228.42 433.751 239.335 427.755 242.225 423.326 C 253.742 405.681 255.261 372.643 272.877 358.295 C 284.19 348.838 302.776 343.956 312.601 332.931 C 322.076 321.839 328.792 308.136 336.97 296.071 C 380.753 231.476 444.91 184.203 516.951 155.779 C 565.472 136.634 607.912 117.024 660.188 112.242 C 666.036 111.706 678.666 105.023 685.067 103.891 C 730.555 89.6994 777.421 89.1775 824.562 90.2142 C 833.163 90.4033 843.95 87.5997 852.964 87.0659 C 932.914 82.4268 1011.89 114.326 1079.79 153.58 C 1170.75 206.172 1250.69 287.766 1297.76 381.918 C 1316.74 419.891 1332.51 468.176 1346.81 508.614 C 1369 571.01 1389.3 634.059 1407.69 697.677 C 1425.23 758.954 1442.88 824.35 1445.96 887.987 C 1467.79 914.092 1507.47 960.106 1534.77 977.683 C 1508.5 972.847 1485.23 974.25 1457.96 966.645 C 1474.59 1007.18 1498.5 1063.3 1524.67 1098.46 C 1543.9 1124.29 1592.67 1160.08 1622.49 1171.9 C 1639.26 1178.55 1648.91 1179.81 1664.51 1184.59 C 1636.52 1185.7 1615.19 1187.54 1588.65 1176.12 C 1599.37 1188.09 1610.56 1200.38 1620.91 1212.6 C 1628.75 1221.86 1635.93 1231.87 1643.93 1241.2 C 1603.22 1246.91 1579.08 1238.78 1544.85 1214.43 C 1578.1 1268.27 1607.87 1324.19 1633.98 1381.83 C 1647.15 1410.85 1658.5 1440.33 1671.74 1469.26 C 1698.91 1528.63 1737.08 1602.46 1748.55 1666.49 C 1758.73 1671.75 1769.36 1676.75 1778.18 1684.2 C 1802.37 1704.64 1881.13 1800.7 1897.75 1830 L 180.489 1830 z"/>
<path transform="translate(0,0)" fill="rgb(254,254,254)" d="M 723.727 438.727 C 725.586 449.547 702.64 480.382 694.55 488.25 C 713.864 477.438 725.389 476.1 744.233 462.367 C 737.756 475.3 730.341 488.756 720.859 499.696 C 725.017 497.71 745.188 487.361 747.951 487.84 L 749.208 491.644 L 750.569 492.263 C 763.641 486.756 782.19 481.497 796.132 477.192 C 781.716 485.102 774.947 487.821 769.256 503.562 C 784.934 500.204 815.234 489.572 830.495 483.516 C 813.045 474.954 810.528 475.405 790.357 475.701 C 798.993 471.188 807.258 466.557 817.364 466.394 C 843.281 465.977 871.111 477.645 890.219 494.667 C 904.524 507.411 917.968 530.912 927.312 548.075 C 936.4 564.767 954.777 595.101 960.6 611.918 C 972.802 647.161 978.55 693.759 984.406 730.859 C 986.279 742.729 989.145 762.527 989.824 774.097 C 990.584 787.061 988.835 802.505 989.57 816.573 C 993.344 800.397 997.129 770.843 998.679 753.771 C 999.4 745.819 997.249 720.998 996.613 711.568 C 995.187 689.575 993.608 667.593 991.878 645.623 C 1001.05 666.205 1009.23 687.215 1016.38 708.581 C 1020.87 722.283 1024.3 736.481 1028.58 750.17 C 1041.08 790.112 1059.99 837.655 1085.97 870.676 C 1076.27 877.697 1065.53 883.997 1055.63 890.891 C 1041.9 900.441 1029.27 911.095 1016.02 921.236 C 1002.34 931.709 994.944 945.775 987.323 960.781 C 992.953 954.574 998.548 947.347 1004.3 940.839 C 1000.84 949.728 980.713 990.716 974.65 996.861 C 974.021 1049.55 975.876 1105.25 982.179 1157.63 C 984.033 1174.64 989.712 1191.5 992.215 1208.26 C 996.285 1235.51 1000.75 1263.09 1003.87 1290.45 C 1006.23 1311.13 992.824 1319.33 980.318 1333.06 C 982.497 1342.72 982.582 1347.09 982.799 1357.04 C 989.518 1350.66 996.088 1339.22 1001.42 1335.43 C 1019.14 1322.8 1036.55 1314.43 1052.63 1299.03 C 1046.7 1286 1041.84 1265.2 1034.93 1249.97 C 1009.78 1194.54 985.864 1146.94 984.918 1084.75 C 984.777 1075.46 982.393 1060.08 983.463 1051.02 C 986.09 1028.8 1011.74 1011.09 1026.1 996.164 C 1032.79 989.213 1039.99 981.329 1047.07 974.82 C 1049.47 972.612 1053.7 971.965 1057.06 972.408 C 1063.76 978.87 1049.77 995.673 1044.6 1000.68 L 1043.67 1001.57 L 1044.03 1002.99 C 1045.46 1003.59 1049.42 1005.31 1050.63 1005.11 C 1056.64 1004.1 1069.75 990.026 1074.32 985.608 C 1065.98 1002.67 1035.25 1030.41 1033.78 1038.44 L 1034.96 1039.74 C 1046.74 1041.54 1043.69 1031.9 1053.98 1031.8 C 1067.01 1038.02 1068.12 1031.04 1074.33 1019.96 C 1082.89 1036.19 1086.44 1038.71 1102.82 1046.89 C 1121.71 1044.24 1135.49 1037.74 1155.05 1039.73 C 1161.71 1044.46 1167.96 1051.26 1175.06 1056.57 C 1173.16 1048.87 1171.71 1044.24 1167.7 1037.49 L 1177.53 1027.83 C 1187.87 1034.14 1198.57 1044.56 1208.4 1052.16 C 1218.29 1059.82 1227.79 1066.05 1238.24 1072.95 C 1238.1 1103.36 1238.19 1133.78 1238.51 1164.19 C 1238.69 1187.65 1239.44 1209.24 1236.53 1232.7 C 1225.28 1323.58 1173 1386.49 1123.14 1459.72 C 1092.88 1501.54 1051.22 1585.17 1003.61 1608.94 C 984.273 1618.59 910.621 1591.16 889.793 1581.83 C 872.186 1575.49 852.071 1564.57 834.465 1559.05 C 776.464 1540.88 727.055 1509.63 680.361 1471.14 C 670.321 1462.86 657.904 1454.96 647.193 1446.4 C 624.677 1428.17 604.166 1407.59 586.008 1385.01 C 559.984 1353.29 537.724 1318.66 519.675 1281.81 C 517.577 1277.61 506.649 1253.92 504.025 1252.7 C 502.003 1254.67 501.384 1255.18 499.091 1256.82 C 491.918 1256.81 482.165 1253.39 475.308 1251.08 C 471.76 1244.57 468.56 1238.26 459.87 1241.62 C 454.587 1248.66 459.558 1251.97 464.473 1257.33 C 471.48 1290.91 474.829 1328.27 478.354 1362.52 C 475.711 1367.72 471.435 1374.26 468.291 1379.37 L 449.321 1357.17 C 450.673 1329.13 452.051 1301.1 452.235 1273.03 C 452.362 1253.59 445.083 1254.11 428.389 1254.58 C 416.68 1242.57 404.063 1233.97 392.169 1220.28 C 349.114 1170.3 317.314 1105.35 303.515 1040.9 C 298.346 1016.76 288.58 975.606 309.697 957.564 C 319.762 948.965 337.202 953.387 349.82 954.528 C 378.767 975.885 422.818 1029.5 438.313 1062.03 C 453.786 1094.52 466.478 1129.11 484.481 1161.54 C 477.36 1137.73 472.379 1108.44 466.819 1083.94 L 435.896 951.59 C 434.781 957.967 436.151 966.294 430.261 968.355 L 428.591 967.204 C 425.241 958.58 437.245 885.083 439.074 870.922 C 428.102 896.296 424.393 926.781 410.59 950.631 C 413.313 921.499 429.641 876.177 436.874 847.553 C 434.457 842.313 432.001 837.091 429.507 831.888 C 435.377 815.85 444.049 801.495 452.346 786.574 C 446.576 790.717 442.108 795.422 435.083 795.434 C 426.437 789.41 458.756 745.839 464.381 738.785 C 462.737 725.711 459.731 697.356 456.574 685.449 C 459.171 680.819 461.967 676.324 464.874 671.883 C 480.878 647.432 495.559 622.114 511.791 597.813 C 499.551 603.318 487.006 607.956 474.457 612.702 C 495.947 596.015 504.918 582.561 520.923 561.339 C 527.691 552.652 540.379 546.232 547.625 538.941 C 575.311 511.083 596.05 497.024 634.235 520.677 C 642.936 515.235 652.745 508.423 658.457 499.846 C 663.286 502.421 667.409 505.566 672.464 504.29 C 675.311 501.159 677.216 491.723 678.599 487.143 C 694.841 480.788 695.877 471.624 705.278 458.28 C 710.987 450.176 716.165 445.072 723.727 438.727 z"/>
<path transform="translate(0,0)" fill="rgb(0,0,0)" d="M 676.342 972.874 C 695.71 970.6 735.721 970.102 754.548 973.466 C 763.05 974.986 796.099 988.546 805.174 992.913 C 797.08 996.437 792.987 998.519 785.799 1003.78 C 793.315 1008.82 804.189 1015.64 810.147 1022.02 C 794.602 1019.23 780.319 1016.75 764.502 1016.25 C 802.137 1037.02 811.709 1029.84 851.574 1038.7 C 832.788 1042.58 817.542 1044.01 798.232 1042.02 C 802.772 1044.95 807.391 1047.76 811.62 1051.1 C 799.884 1049.17 792.678 1046.75 781.365 1043.46 C 787.387 1047.81 793.059 1051.86 798.785 1056.63 C 787.319 1062.11 785.166 1063.1 772.889 1065.9 L 776.774 1054.1 C 769.446 1048.09 763.621 1042.88 756.711 1036.47 C 737.219 1036.28 730.904 1034.78 711.742 1032.21 C 712.665 1041.31 712.596 1055.31 708.722 1063.69 L 706.89 1065.09 C 703.797 1063.98 700.566 1058.79 698.586 1059.66 C 695.572 1060.98 690.567 1063.8 688.782 1058.44 C 684.256 1044.84 678.256 1044.34 663.847 1044.19 C 656.466 1048.91 658.958 1066.83 647.085 1067.82 C 641.512 1065.76 634.654 1057.57 632.19 1052.22 C 624 1052.25 612.703 1051.96 604.77 1052.62 C 604.468 1077.38 622.411 1098.78 648.339 1098.98 C 663.827 1099.11 669.849 1093.63 680.073 1083.26 C 682.54 1080.75 684.986 1078.22 687.411 1075.67 C 693.371 1077.52 700.291 1079.88 706.331 1081.01 C 701.433 1085.03 691.592 1094.3 686.56 1095.86 C 677.125 1098.79 670.09 1097.93 660.22 1102.48 C 688.437 1102.02 701.449 1098.34 728.028 1094.56 C 707.387 1103.05 691.335 1107.42 668.748 1109.93 C 669.435 1113.37 669.744 1113.42 671.738 1116.2 L 671.19 1117.57 C 667.494 1120.38 652.152 1118.1 645.401 1118.02 C 644.451 1122.77 643.549 1132.13 640.907 1135.52 C 637.62 1133.48 636.187 1120.47 627.632 1113.14 C 611.458 1113.79 610.712 1112.6 596.768 1103.73 L 595.943 1105 C 593.451 1108.83 590.943 1113.56 586.422 1114.52 L 584.561 1112.88 C 582.874 1108.11 583.614 1102.43 583.818 1097.21 C 573.195 1087.46 566.962 1078.52 558.272 1067.21 C 557.399 1066.07 552.339 1064.63 550.275 1063.03 L 550.086 1059.13 C 546.624 1054.74 530.265 1059.81 525.584 1050.56 L 526.264 1049.21 C 530.237 1048.57 533.952 1049.43 537.983 1050.02 C 542.629 1046.85 545.415 1044.81 549.722 1041.18 C 549.751 1039.69 549.668 1039.77 549.351 1038.3 L 545.813 1038.26 C 538.065 1022.53 522.538 1030.66 514.112 1027.23 L 513.443 1025.38 C 518.912 1023.13 532.624 1022.55 539.684 1020.98 C 550.011 1018.68 561.223 1014.2 571.307 1012.35 C 599.654 1006.95 627.38 1006.63 656.06 1006.06 C 677.195 1005.65 698.661 1000.79 720.075 1002.41 C 722.625 1002.6 724.342 1002.26 726.003 1000.47 C 722.496 989.403 696.983 989.207 687.482 988.316 L 687.663 984.704 C 695.283 984.687 703.414 984.823 710.984 984.627 C 699.661 980.078 688.096 976.154 676.342 972.874 z"/>
<path transform="translate(0,0)" fill="rgb(222,223,226)" d="M 627.231 1111.41 C 638.83 1110.29 656.748 1110.3 668.748 1109.93 C 669.435 1113.37 669.744 1113.42 671.738 1116.2 C 659.712 1112.95 643.081 1115.12 627.231 1111.41 z"/>
<path transform="translate(0,0)" fill="rgb(222,223,226)" d="M 545.813 1038.26 C 548.823 1036.49 553.589 1033.12 556.819 1033.69 C 555.287 1037.5 552.527 1038.44 549.722 1041.18 C 549.751 1039.69 549.668 1039.77 549.351 1038.3 L 545.813 1038.26 z"/>
<path transform="translate(0,0)" fill="rgb(254,254,254)" d="M 576.096 1035.47 C 576.183 1035.54 576.272 1035.61 576.356 1035.69 C 577.759 1036.96 595.839 1074.01 595.857 1076.13 C 595.88 1078.83 595.377 1079.75 593.535 1081.62 L 589.988 1081.49 C 581.035 1068.24 574.219 1065.27 567.922 1049.77 C 570.693 1045.12 573.41 1040.18 576.096 1035.47 z"/>
<path transform="translate(0,0)" fill="rgb(0,0,0)" d="M 337.672 964.82 C 362.1 969.581 375.956 1006.21 386.486 1025.41 C 392.783 1038.19 401.955 1052.55 405.39 1066.35 C 411.778 1092.01 414.821 1114.94 423.533 1140.23 C 441.414 1150.17 455.571 1147.02 457.911 1171.86 C 459.317 1186.79 461.05 1200.83 460.691 1216.04 C 456.264 1222.78 451.76 1227.41 443.391 1228.97 C 441.566 1229.51 435.342 1228.43 434.142 1227.02 C 423.629 1214.64 411.773 1202.86 401.616 1190.25 C 395.874 1183.12 397.187 1180.77 389.366 1175.15 C 375.329 1164.68 369.379 1160.1 360.179 1145.2 C 360.417 1139.94 359.924 1137.98 363.299 1134.4 C 376.376 1132.28 385.969 1160.86 400.236 1157.22 C 414.153 1146.11 392.403 1124.83 387.27 1112.07 C 388.377 1107.55 389.256 1103.96 391.163 1099.8 C 395.461 1090.45 405.569 1082.7 402.672 1071.81 C 394.008 1039.26 364.315 1005.95 337.879 987.35 C 326.268 991.782 318.538 998.113 309.724 1006.59 C 318.075 991.201 322.307 971.815 337.672 964.82 z"/>
<path transform="translate(0,0)" fill="rgb(0,0,0)" d="M 1025.22 1381.13 L 1026.25 1382.06 C 1025.94 1386.89 1018.01 1392.37 1014.38 1395.42 C 1024.83 1395.34 1046.77 1395.27 1056.98 1397.64 L 1057.62 1399.11 C 1055.15 1403.44 1049.28 1405.41 1045.79 1410.2 C 1039.34 1419.06 1036.48 1431.29 1028.75 1439.19 C 1002.86 1465.64 980.318 1461.65 949.014 1463.96 C 954.221 1457.64 958.38 1450.34 961.295 1445.52 C 962.28 1443.89 979.41 1440.22 983.368 1436.44 C 982.636 1435.08 982.303 1434.28 980.423 1434.09 C 960.941 1432.12 944.803 1428.35 926.561 1437.11 C 920.536 1440.55 907.214 1448.45 902.282 1452.6 L 902.905 1455.3 L 902.083 1456.45 C 897.35 1456.14 854.926 1445.28 852.433 1443.16 C 854.812 1437.81 864.802 1435.08 870.1 1434.42 C 900.945 1430.71 922.887 1414.85 949.553 1402.86 C 951.873 1401.81 989.957 1401.54 998.093 1400.25 C 991.25 1397.49 979.682 1394.47 972.252 1392.24 C 995.797 1387.35 1000.94 1395.02 1025.22 1381.13 z"/>
<path transform="translate(0,0)" fill="rgb(222,223,226)" d="M 1013.74 1428.45 L 1015.46 1429.69 L 1015.47 1432.55 C 1013.28 1436.88 1012.63 1437.16 1008.86 1440.45 C 1007.3 1439.87 1007.97 1440.4 1007.12 1438.57 C 1009.24 1434.43 1011.02 1432.14 1013.74 1428.45 z"/>
<path transform="translate(0,0)" fill="rgb(0,0,0)" d="M 544.569 930.333 C 556.832 929.556 582.089 933.616 595.905 934.761 C 637.267 938.089 678.65 941.143 720.053 943.92 C 749.335 945.746 805.917 937.358 832.873 945.344 C 842.451 948.182 881.114 980.519 889.559 989.109 C 881.354 984.429 871.681 977.961 863.559 972.798 C 837.065 958.383 784.991 963.675 754.161 961.447 C 688.443 956.929 623.416 942.599 557.691 937.694 C 546.623 936.868 520.548 941.381 508.917 943.318 C 520.54 938.304 532.444 933.968 544.569 930.333 z"/>
<path transform="translate(0,0)" fill="rgb(0,0,0)" d="M 1012.58 1466.25 C 1031.29 1465.09 1027.33 1475.32 1025.23 1489.14 C 1016.32 1497.57 1001.81 1507.15 991.477 1515.07 C 986.533 1509.86 981.562 1504.06 976.766 1498.67 C 969.733 1491.87 957.319 1496.85 946.959 1497.07 C 966.097 1485.98 991.916 1472.33 1012.58 1466.25 z"/>
<path transform="translate(0,0)" fill="rgb(0,0,0)" d="M 943.949 1312.06 C 948.508 1312.64 956.976 1312.96 956.924 1319.11 C 950.58 1324.19 949.294 1318.79 941.879 1325.26 C 939.363 1327.47 937.386 1327.37 934.239 1326.71 C 931.962 1324.34 932.557 1325.72 932.461 1322.38 C 935.064 1316.51 938.229 1315.23 943.949 1312.06 z"/>
<path transform="translate(0,0)" fill="rgb(0,0,0)" d="M 633.057 984.819 C 630.713 985.146 626.466 984.814 623.917 984.697 L 624.162 983.807 C 633.864 981.825 651.629 980.915 661.348 982.946 C 666.526 983.323 683.453 983.72 687.663 984.704 L 687.482 988.316 C 669.228 987.165 651.388 985.579 633.057 984.819 z"/>
<path transform="translate(0,0)" fill="rgb(136,134,137)" d="M 633.057 984.819 C 630.713 985.146 626.466 984.814 623.917 984.697 L 624.162 983.807 C 633.864 981.825 651.629 980.915 661.348 982.946 C 655.547 982.956 637.299 982.586 632.687 983.777 L 633.057 984.819 z"/>
<path transform="translate(0,0)" fill="rgb(0,0,0)" d="M 562.151 1080.48 C 565.173 1082.4 565.683 1082.76 566.533 1085.52 C 565.079 1088.59 561.003 1090.29 557.875 1092.08 L 556.28 1093.16 L 555.594 1092.21 C 557.271 1087.56 559.481 1084.6 562.151 1080.48 z"/>
<path transform="translate(0,0)" fill="rgb(254,254,254)" d="M 578.571 1405.55 C 589.469 1408.86 607.031 1431.98 617.277 1439.96 C 681.972 1490.35 750.127 1536.91 813.459 1589.01 C 823.699 1597.43 833.557 1611.81 844.688 1618.62 C 858.527 1627.08 879.767 1637.26 894.013 1644.5 C 923.595 1659.74 953.347 1674.66 983.262 1689.24 L 974.331 1694.79 C 956.519 1704.64 958.012 1703.61 937.489 1700.02 C 844.122 1683.69 744.872 1685.7 660.949 1635.81 C 626.495 1615.33 632.145 1604.12 624.768 1567.49 C 620.764 1548.43 616.316 1529.47 611.426 1510.62 C 605.838 1490.06 599.654 1469.67 592.884 1449.47 C 588.336 1436.01 581.803 1419.03 578.571 1405.55 z"/>
<path transform="translate(0,0)" fill="rgb(254,254,254)" d="M 269.316 615.937 L 270.487 616.608 C 270.177 635.531 268.64 655.019 268.619 673.71 L 239.766 711.944 C 240.826 716.908 241.607 728.187 242.281 733.894 C 243.677 745.72 248.622 763.399 247.231 774.594 C 257.593 763.928 269.306 748.602 278.848 736.768 C 278.861 715.729 279.056 690.468 276.829 669.77 C 297.671 647.273 304.725 641.542 328.505 622.878 C 326.604 646.317 321.946 670.777 320.747 693.587 C 308.702 707.977 301.57 714.495 291.255 730.916 C 295.154 751.078 294.993 772.055 294.963 792.532 C 304.422 785.312 333.654 757.841 341.394 748.506 C 341.982 733.865 340.458 713.742 340.138 698.362 C 342.859 695.451 345.864 691.882 348.447 688.773 C 363.211 671.006 379.424 656.067 396.446 640.523 C 393.963 652.784 388.289 714.26 389.549 725.861 C 379.432 735.029 367.288 744.766 356.677 753.581 C 356.688 770.27 357.08 785.187 358.735 801.756 L 363.336 843.331 C 341.582 859.995 310.29 886.561 284.489 896.962 C 282.037 889.538 271.292 847.336 270.353 839.331 C 259.08 844.305 252.337 847.648 240.37 851.188 C 282.096 799.715 280.313 814.18 279.737 744.778 C 274.939 754.599 259.345 777.577 252.448 786.441 C 252.571 796.332 253.148 805.336 253.808 815.179 C 247.492 823.464 223.168 850.307 215.486 856.902 C 213.405 835.972 206.363 816.057 205.625 794.733 C 211.68 797.51 224.241 806.213 229.395 810.52 L 237.998 797.632 C 236.679 777.904 235.004 758.201 232.974 738.533 C 229.515 742.159 220.576 753.03 215.421 750.58 C 214.822 743.807 225.863 725.197 228.108 717.552 C 231.933 704.521 230.187 689.403 230.071 675.527 C 232.867 682.605 235.398 692.19 237.036 699.639 C 253.5 677.103 254.619 677.253 253.562 649.741 C 248.023 651.857 239.356 654.093 233.438 655.8 C 238.131 650.065 242.022 643.179 247.148 637.205 C 254.031 629.183 261.539 623.046 269.316 615.937 z"/>
<path transform="translate(0,0)" fill="rgb(0,0,0)" d="M 340.648 768.67 C 344.728 773.245 341.831 821.312 338.03 828.004 C 328.983 843.933 312.204 862.297 299.882 876.169 L 299.474 876.289 L 298.371 875.476 C 302.291 808.171 289.436 819.376 340.648 768.67 z"/>
<path transform="translate(0,0)" fill="rgb(0,0,0)" d="M 307.681 660.947 L 309.448 661.495 C 313.131 679.583 301.896 703.473 291.907 717.992 L 290.505 716.25 C 288.059 701.681 289.411 685.655 291.378 671.084 C 296.784 667.223 301.942 664.294 307.681 660.947 z"/>
<path transform="translate(0,0)" fill="rgb(0,0,0)" d="M 371.475 683.693 C 373.992 686.379 373.292 703.993 373.33 708.827 C 366.667 715.215 360.54 724.765 353.405 730.675 C 352.892 722.272 351.813 713.183 350.978 704.751 C 359.25 696.578 363.911 692.957 371.475 683.693 z"/>
<path transform="translate(0,0)" fill="rgb(254,254,254)" d="M 1142.86 985.239 C 1145.95 986.773 1145.3 989.17 1149.1 992.651 C 1152.12 992.781 1153.15 992.811 1156.2 993.37 L 1157.04 995.004 C 1155.79 1002.6 1139.61 1020.18 1133.58 1030.1 C 1116.56 1034 1112.74 1033.71 1097.44 1024.99 C 1093.04 1022.05 1089.85 1018.8 1086 1015.19 C 1088.2 1008.61 1090.1 1002.37 1095.62 997.917 C 1101.94 997.389 1103.03 1004.36 1104.76 1009.42 C 1116.96 1020.28 1125.07 998.713 1126.53 989.238 C 1133.44 988.043 1136.29 987.512 1142.86 985.239 z"/>
<path transform="translate(0,0)" fill="rgb(254,254,254)" d="M 1058.33 501.563 C 1062.55 500.059 1067.17 500.145 1071.33 501.806 C 1078.46 504.652 1083.07 511.622 1082.9 519.293 C 1082.73 526.964 1077.82 533.725 1070.57 536.254 C 1061.01 539.594 1050.54 534.565 1047.17 525.008 C 1043.79 515.45 1048.79 504.966 1058.33 501.563 z"/>
<path transform="translate(0,0)" fill="rgb(254,254,254)" d="M 1084.94 555.769 C 1091.21 553.396 1098.27 554.63 1103.37 558.988 C 1108.46 563.346 1110.77 570.135 1109.4 576.696 C 1108.03 583.258 1103.18 588.547 1096.77 590.495 C 1089.89 592.582 1082.43 590.465 1077.68 585.078 C 1072.92 579.691 1071.75 572.025 1074.67 565.463 C 1076.67 560.992 1080.36 557.502 1084.94 555.769 z"/>
<path transform="translate(0,0)" fill="rgb(254,254,254)" d="M 1145.35 554.586 C 1153.24 554.425 1160.35 559.335 1163 566.774 C 1165.65 574.212 1163.23 582.509 1157.01 587.37 C 1154.09 589.65 1150.55 590.992 1146.86 591.221 C 1140.38 591.621 1134.18 588.57 1130.54 583.197 C 1126.9 577.825 1126.38 570.931 1129.15 565.068 C 1132.13 558.787 1138.4 554.728 1145.35 554.586 z"/>
<path transform="translate(0,0)" fill="rgb(254,254,254)" d="M 1199 337.978 C 1209.14 337.525 1217.72 345.401 1218.14 355.546 C 1218.55 365.691 1210.65 374.241 1200.5 374.618 C 1192.51 374.914 1185.25 369.998 1182.56 362.47 C 1179.86 354.941 1182.36 346.535 1188.73 341.697 C 1191.69 339.442 1195.28 338.145 1199 337.978 z"/>
<path transform="translate(0,0)" fill="rgb(254,254,254)" d="M 1112.92 501.437 C 1117.11 500.065 1121.65 500.249 1125.72 501.956 C 1129.85 503.691 1133.21 506.883 1135.15 510.926 C 1137.12 515.035 1137.49 519.731 1136.18 524.098 C 1134.38 530.15 1129.58 534.845 1123.49 536.524 C 1113.9 539.169 1103.95 533.674 1101.07 524.145 C 1098.2 514.616 1103.46 504.535 1112.92 501.437 z"/>
<path transform="translate(0,0)" fill="rgb(254,254,254)" d="M 923.625 230.439 C 929.471 228.541 935.88 229.702 940.687 233.531 C 945.495 237.36 948.061 243.346 947.52 249.469 C 947.254 252.465 946.255 255.35 944.611 257.868 C 942.253 261.477 938.698 264.139 934.572 265.385 C 928.809 267.124 922.559 265.921 917.855 262.165 C 912.59 257.961 910.058 251.206 911.264 244.578 C 912.47 237.95 917.218 232.519 923.625 230.439 z"/>
<path transform="translate(0,0)" fill="rgb(254,254,254)" d="M 898.181 284.278 C 907.849 281.965 917.594 287.797 920.124 297.409 C 922.654 307.022 917.043 316.896 907.49 319.642 C 901.116 321.474 894.249 319.712 889.545 315.037 C 884.841 310.362 883.037 303.506 884.829 297.121 C 886.622 290.736 891.731 285.821 898.181 284.278 z"/>
<path transform="translate(0,0)" fill="rgb(254,254,254)" d="M 871.805 338.398 C 878.841 336.953 886.071 339.762 890.287 345.578 C 893.792 350.414 894.715 356.658 892.757 362.302 C 890.799 367.945 886.208 372.276 880.46 373.902 C 874.021 375.724 867.1 373.882 862.418 369.101 C 857.736 364.32 856.04 357.363 857.997 350.963 C 859.953 344.563 865.249 339.744 871.805 338.398 z"/>
<path transform="translate(0,0)" fill="rgb(254,254,254)" d="M 952.227 284.42 C 961.857 282.13 971.555 287.944 974.074 297.517 C 976.592 307.09 971.011 316.923 961.5 319.669 C 957.581 320.8 953.396 320.584 949.614 319.056 C 945.652 317.455 942.379 314.513 940.365 310.743 C 938.223 306.733 937.657 302.068 938.778 297.662 C 940.449 291.09 945.63 285.989 952.227 284.42 z"/>
<path transform="translate(0,0)" fill="rgb(254,254,254)" d="M 844.238 284.282 C 853.826 282.08 863.429 287.892 865.925 297.408 C 868.421 306.924 862.906 316.701 853.471 319.488 C 848.72 320.891 843.601 320.298 839.297 317.844 C 834.993 315.39 831.874 311.288 830.661 306.484 C 829.49 301.844 830.192 296.93 832.616 292.804 C 835.153 288.486 839.357 285.403 844.238 284.282 z"/>
<path transform="translate(0,0)" fill="rgb(254,254,254)" d="M 1168.42 284.047 C 1175.34 284.021 1185.11 289.354 1188.58 295.397 C 1190.78 299.155 1191.23 303.685 1189.81 307.8 C 1187.59 314.247 1182.84 317.053 1177.22 320.03 C 1167.21 320.15 1166.27 319.495 1157.97 313.739 C 1151.93 299.313 1152.96 290.019 1168.42 284.047 z"/>
<path transform="translate(0,0)" fill="rgb(254,254,254)" d="M 793.041 287.439 C 808.492 285.8 808.639 288.539 813.351 302.547 C 809.546 312.517 807.892 316.153 797.43 320.071 C 781.439 320.132 769.029 306.342 779.707 291.233 C 782.587 287.158 788.249 287.594 793.041 287.439 z"/>
<path transform="translate(0,0)" fill="rgb(254,254,254)" d="M 1108.98 285.766 C 1120.34 287.807 1141.52 289.56 1136.34 306.411 C 1134.64 311.92 1133.2 314.679 1128.36 317.818 C 1110.76 323.567 1104.38 316.974 1098.93 300.902 C 1102.09 293.933 1104.08 291.368 1108.98 285.766 z"/>
<path transform="translate(0,0)" fill="rgb(254,254,254)" d="M 1086.6 446.504 C 1088.31 446.427 1092.45 445.833 1093.8 446.794 C 1101.36 452.163 1111.38 466.814 1106.22 476.126 C 1104.92 478.473 1099.76 482.095 1096.97 482.576 C 1095.23 482.673 1093.49 482.731 1091.75 482.752 C 1083.4 482.816 1080.46 479.135 1074.9 473.602 L 1072.77 463.391 C 1076.11 453.661 1077.54 450.993 1086.6 446.504 z"/>
<path transform="translate(0,0)" fill="rgb(254,254,254)" d="M 870.008 230.07 C 871.665 229.879 873.33 229.766 874.997 229.731 C 882.97 229.644 887.163 234.137 892.384 239.256 C 893.237 247.491 893.728 246.944 892.665 255.657 C 884.798 264.653 882.85 265.031 871.539 266.055 C 864.7 263.697 862.551 260.829 857.708 255.654 L 870.826 243.995 C 866.161 242.516 860.767 242.433 860.538 236.997 C 863.015 233.49 866.196 232.22 870.008 230.07 z"/>
<path transform="translate(0,0)" fill="rgb(254,254,254)" d="M 924.89 338.192 C 939.214 335.453 944.703 344.956 948.295 356.656 C 943.56 359.85 935.41 362.924 932.854 367.668 C 932.098 369.072 933.298 370.897 934.017 372.812 C 932.262 375.296 927.599 375.129 925.002 374.211 C 916.858 371.33 913.835 366.18 910.113 358.954 L 912.978 346.751 C 917.143 342.134 919.05 340.256 924.89 338.192 z"/>
<path transform="translate(0,0)" fill="rgb(254,254,254)" d="M 818.978 337.926 C 823.478 337.381 828.624 339.696 832.891 341.278 C 834.975 343.758 837.218 347.076 839.136 349.751 C 839.201 356.437 840.301 361.557 836.17 366.347 C 832.154 368.195 828.316 367.271 823.754 366.832 C 819.658 366.637 810.701 366.772 807.633 365.004 C 797.526 359.18 804.948 348.048 809.351 341.612 C 812.32 340.343 815.913 339.089 818.978 337.926 z"/>
<path transform="translate(0,0)" fill="rgb(254,254,254)" d="M 835.562 179.404 C 851.161 181.589 881.065 188.637 859.261 208.522 C 837.55 219.477 822.497 200.459 835.562 179.404 z"/>
<path transform="translate(0,0)" fill="rgb(254,254,254)" d="M 1142.97 445.878 C 1154.79 448.737 1158.21 469.249 1158.19 479.519 C 1153.15 481.338 1149.01 482.195 1143.8 483.372 C 1143.19 483.196 1142.58 483.008 1141.97 482.807 C 1136.77 481.055 1130.76 477.353 1128.86 472.069 C 1123.71 457.691 1131.6 450.789 1142.97 445.878 z"/>
<path transform="translate(0,0)" fill="rgb(254,254,254)" d="M 978.049 446.118 C 993.104 445.513 998.281 451.376 1002.7 464.664 C 999.548 473.375 998.358 476.836 990.806 482.19 C 986.284 479.683 974.534 470.429 971.094 466.396 C 963.015 456.921 970.871 451.748 978.049 446.118 z"/>
<path transform="translate(0,0)" fill="rgb(254,254,254)" d="M 1222.89 391.887 C 1232.35 391.394 1241.91 394.998 1244.2 405.248 C 1246.13 413.863 1243.59 417.258 1239.25 424.215 C 1235.15 416.545 1233.68 414.987 1227.67 409.114 C 1224.24 413.387 1219.29 421.574 1216.15 426.447 C 1203.31 411.921 1206.07 400.432 1222.89 391.887 z"/>
<path transform="translate(0,0)" fill="rgb(254,254,254)" d="M 1143.32 337.782 C 1147.45 337.419 1152.98 339.745 1156.98 341.159 C 1169.33 355.961 1165.08 363.213 1152.12 374.583 C 1146.23 368.553 1135.56 358.836 1132.09 351.326 C 1128.18 342.843 1137.09 339.994 1143.32 337.782 z"/>
<path transform="translate(0,0)" fill="rgb(254,254,254)" d="M 1168.04 609.176 C 1171.09 609.003 1175.82 608.394 1178.21 610.284 C 1184.69 615.41 1185.45 632.313 1186.5 640.407 C 1180.68 643.492 1178.94 644.141 1172.61 646.041 C 1166.94 640.33 1157.81 628.485 1153.89 621.663 C 1158.82 614.38 1160.66 613.284 1168.04 609.176 z"/>
<path transform="translate(0,0)" fill="rgb(254,254,254)" d="M 947.791 393.65 C 952.162 396.407 958.581 407.107 961.465 411.618 C 966.004 412.416 971.121 413.619 975.681 414.59 C 972.054 420.19 970.323 423.129 964.808 426.91 C 948.068 432.87 941.581 424.699 937.541 409.712 C 940.137 400.902 941.392 399.78 947.791 393.65 z"/>
<path transform="translate(0,0)" fill="rgb(254,254,254)" d="M 1089.64 663.191 C 1093.22 663.324 1096.94 663.776 1100.52 664.141 C 1111.55 674.6 1114.31 686.641 1101.41 697.218 C 1098.88 698.126 1096.28 698.902 1093.71 699.712 C 1089.81 692.765 1082.31 674.813 1081.4 666.981 C 1083.08 664.594 1086.64 664.065 1089.64 663.191 z"/>
<path transform="translate(0,0)" fill="rgb(254,254,254)" d="M 1048.9 400.467 C 1065.41 401.842 1069.79 408.739 1080.89 420.374 L 1074.21 425.759 C 1058.15 435.868 1040.44 420.122 1048.9 400.467 z"/>
<path transform="translate(0,0)" fill="rgb(254,254,254)" d="M 978.958 338.059 C 979.599 337.981 980.24 337.904 980.881 337.827 C 986.196 337.309 991.486 339.04 995.467 342.6 C 1001.48 348.08 1005.47 358.888 999.081 365.571 C 995.453 366.204 996.027 365.629 991.896 363.598 C 983.035 358.811 974.219 353.942 965.448 348.992 C 970.206 343.451 972.354 341.121 978.958 338.059 z"/>
<path transform="translate(0,0)" fill="rgb(254,254,254)" d="M 740.568 289.428 L 755.083 289.29 C 758.053 297.145 760.678 308.141 753.712 314.757 C 750.357 315.43 751.713 315.51 748.051 313.189 C 742.645 309.507 737.259 305.795 731.894 302.055 C 727.916 299.224 725.869 297.936 725.104 293.453 L 726.693 291.432 C 730.75 289.308 735.811 289.629 740.568 289.428 z"/>
<path transform="translate(0,0)" fill="rgb(254,254,254)" d="M 764.842 336.926 C 775.176 339.3 781.078 342.591 785.837 352.434 C 788.928 358.829 786.495 362.677 780.198 364.134 C 772.493 363.496 764.484 363.097 756.743 362.603 C 759.372 356.067 762.252 344.423 764.842 336.926 z"/>
<path transform="translate(0,0)" fill="rgb(254,254,254)" d="M 1055.98 609.38 C 1066 608.831 1068.11 608.672 1077.08 612.967 C 1082.35 621.182 1086.67 630.313 1078.58 638.658 L 1071.39 645.298 C 1066.46 635.061 1060.98 620.499 1055.98 609.38 z"/>
<path transform="translate(0,0)" fill="rgb(254,254,254)" d="M 1005.88 283.659 C 1007.76 284.343 1008.57 284.146 1008.95 285.637 C 1010.46 291.586 1013.42 314.734 1011.68 319.441 C 1008.56 320.409 1005.88 319.59 1002.58 319.056 C 991.723 312.353 992.727 306.359 992.622 294.787 C 997.451 288.796 999.413 287.204 1005.88 283.659 z"/>
<path transform="translate(0,0)" fill="rgb(254,254,254)" d="M 1117.89 608.078 C 1118.81 609.346 1119.48 639.652 1119.7 643.88 L 1118.43 645.285 C 1114.38 645.578 1111.95 644.047 1108.17 642.405 C 1103.2 638.628 1101.61 633.644 1099.02 627.999 C 1102.74 615.778 1105.72 611.926 1117.89 608.078 z"/>
<path transform="translate(0,0)" fill="rgb(254,254,254)" d="M 1116.02 717.225 C 1119.38 717.209 1120.65 716.582 1122.94 718.103 C 1123.99 725.82 1124.65 748.65 1119.18 754.016 C 1115.7 754.081 1117.29 754.497 1114.27 752.624 C 1109.19 743.609 1106.12 733.765 1103.19 723.894 C 1108.28 720.473 1110 719.07 1116.02 717.225 z"/>
<path transform="translate(0,0)" fill="rgb(254,254,254)" d="M 806.996 185.291 C 809.782 185.153 808.535 184.772 810.795 186.66 C 814.472 195.61 813.322 208.629 800.404 207.453 C 797.769 207.213 791.067 203.287 788.461 201.867 L 773.721 194.134 C 783.299 190.173 796.682 187.481 806.996 185.291 z"/>
<path transform="translate(0,0)" fill="rgb(254,254,254)" d="M 969.203 236.46 C 973.173 237.713 993.159 256.484 996.597 260.423 C 995.004 263.122 994.635 262.634 991.35 264.393 C 990.518 264.634 989.683 264.864 988.845 265.083 C 971.1 269.58 958.611 253.141 969.203 236.46 z"/>
<path transform="translate(0,0)" fill="rgb(254,254,254)" d="M 1002.02 501.188 L 1015.72 500.926 C 1022.76 504.375 1023.54 505.841 1027.99 512.028 C 1028.1 520.033 1030.1 525.108 1023.75 530.767 C 1022.12 532.937 1022.31 533.052 1019.84 534.014 C 1016.72 530.498 1004.71 506.661 1002.02 501.188 z"/>
<path transform="translate(0,0)" fill="rgb(254,254,254)" d="M 1031.79 554.68 C 1040.1 554.562 1042.22 555.142 1049.57 558.148 C 1053.42 564.08 1054.45 566.418 1056.83 572.997 C 1055.53 577.297 1055.2 578.772 1053.09 582.648 C 1051.17 585.047 1050.19 586.857 1047.33 587.83 C 1042.36 576.675 1037.59 565.416 1031.79 554.68 z"/>
<path transform="translate(0,0)" fill="rgb(254,254,254)" d="M 1269.33 395.729 C 1272.5 399.699 1283.58 422.651 1284.87 427.782 C 1282.72 429.638 1282.44 429.059 1278.99 429.424 C 1259.94 422.572 1258.29 410.742 1269.33 395.729 z"/>
<path transform="translate(0,0)" fill="rgb(254,254,254)" d="M 1239.11 344.13 C 1245.42 346.277 1259.37 369.096 1257.75 374.645 C 1237.04 373.75 1232.34 362.626 1239.11 344.13 z"/>
<path transform="translate(0,0)" fill="rgb(254,254,254)" d="M 899.741 391.972 C 901.852 391.833 903.972 392.014 906.03 392.508 C 916.687 394.967 926.03 411.312 918.106 415.427 L 915.475 414.225 L 887.828 396.904 C 891.933 394.926 895.51 393.592 899.741 391.972 z"/>
<path transform="translate(0,0)" fill="rgb(254,254,254)" d="M 1022.09 454.9 C 1027.19 459.718 1041.09 475.704 1044.46 481.201 L 1043.67 482.633 C 1033.44 483.001 1032.71 482.737 1023.76 477.74 C 1018.49 467.855 1016.94 465.422 1022.09 454.9 z"/>
<path transform="translate(0,0)" fill="rgb(254,254,254)" d="M 1110.24 400.387 C 1113.5 401.951 1129.5 422.741 1129.1 426.081 C 1120.06 430.009 1119.35 429.523 1109.97 426.927 C 1109.95 418.162 1110.14 409.171 1110.24 400.387 z"/>
<path transform="translate(0,0)" fill="rgb(254,254,254)" d="M 884.007 194.875 C 889.05 195.582 913.12 201.906 916.005 205.975 L 913.794 208.608 C 899.761 215.984 887.101 210.819 884.007 194.875 z"/>
<path transform="translate(0,0)" fill="rgb(254,254,254)" d="M 1167.18 391.745 C 1179 391.662 1180.76 392.764 1189.06 400.913 C 1190.53 406.307 1191.05 410.176 1190.57 415.759 C 1184.65 416.859 1170.58 396.416 1167.18 391.745 z"/>
<path transform="translate(0,0)" fill="rgb(254,254,254)" d="M 1161.8 503.564 L 1163.48 505.13 C 1164.41 510.681 1168.53 530.721 1165.61 535.382 L 1163.29 535.098 C 1150.86 525.111 1152.22 514.756 1161.8 503.564 z"/>
<path transform="translate(0,0)" fill="rgb(254,254,254)" d="M 1296.11 449.552 C 1298.74 452.544 1306.42 468.33 1308.02 472.459 L 1307.42 473.583 L 1305.43 472.946 C 1298.91 468.884 1293.89 465.383 1288.13 460.344 C 1291.04 456.882 1293.5 453.242 1296.11 449.552 z"/>
<path transform="translate(0,0)" fill="rgb(254,254,254)" d="M 1041.98 446.479 C 1053.96 450.779 1058.97 460.604 1054.05 472.493 L 1053.81 473.23 L 1052.34 473.442 C 1048.02 468.54 1044.08 453.393 1041.98 446.479 z"/>
<path transform="translate(0,0)" fill="rgb(222,223,226)" d="M 1123 943.063 C 1123.91 943.398 1123.32 943.107 1124.49 944.388 C 1121.88 948.991 1105.88 953.967 1100.21 956.122 L 1098.25 953.921 C 1100.51 949.828 1117.57 945.043 1123 943.063 z"/>
<path transform="translate(0,0)" fill="rgb(222,223,226)" d="M 1084.18 956.319 C 1086.1 957.534 1090.78 961.566 1092.77 963.183 L 1081.49 970.657 C 1079.21 972.467 1080.4 972.213 1078 972.372 C 1078.14 968.795 1082.55 960.594 1084.18 956.319 z"/>
<path transform="translate(0,0)" fill="rgb(94,96,98)" d="M 1209.33 308.897 C 1213.09 310.974 1216.79 314.758 1217.61 319.089 C 1213.23 316.922 1210.55 313.564 1209.33 308.897 z"/>
</svg>