<?xml version="1.0" encoding="UTF-8" standalone="no"?>
<svg
   version="1.1"
   style="display:block"
   viewBox="0 0 739.47619 739.47618"
   width="256"
   height="256"
   preserveAspectRatio="none"
   id="svg68"
   xmlns="http://www.w3.org/2000/svg"
   xmlns:svg="http://www.w3.org/2000/svg">
  <defs
     id="defs68" />
  <path
     fill="#000000"
     d="m 517.30754,4.7366483 c 2.07602,-1.1318236 4.61719,-2.6093944 6.73626,-3.5486931 21.44919,35.2790958 46.30956,68.5689758 68.45655,103.4678548 9.88469,15.71507 18.75723,32.1713 28.52993,47.93942 2.86431,4.62158 11.09506,9.84268 15.21262,13.67517 13.20981,12.29595 22.72842,27.0392 33.2979,41.50343 3.41127,4.66738 7.98538,10.02412 10.94859,14.91827 25.15328,41.60059 41.10668,88.04402 46.80058,136.24276 1.67544,14.98843 2.20526,25.7259 0.93039,40.94288 -0.14221,5.76069 -2.98054,12.55526 -3.67823,17.95994 -0.36183,7.10781 -7.46419,10.8393 -9.35072,16.38945 -2.93307,8.60983 -4.65164,18.75162 -8.93281,26.99771 -4.37602,8.41724 -9.60908,17.98989 -14.67417,26.03487 -4.48802,7.1292 -11.39226,14.10859 -16.65546,20.74141 -4.37165,4.82697 -10.53074,12.60235 -14.99288,16.87733 -16.88369,16.19693 -35.35244,30.93888 -55.59564,42.79233 -9.58748,5.61435 -20.16996,10.38999 -29.96852,15.78613 0.91739,1.48058 1.74868,2.897 2.85556,4.245 6.7664,-0.15841 13.23995,-0.86443 19.81249,-1.04843 0.026,4.78414 0.21099,10.78369 -0.12487,15.46084 6.89128,-0.65896 17.50387,-1.43352 24.11953,-2.57607 -2.48084,3.78288 -5.96098,10.88643 -8.14898,13.83047 8.3256,1.83147 82.72715,126.15453 82.72715,126.15453 -176.14724,0.57178 -412.8252,0.0851 -588.97254,-0.16789 0,0 121.97451,-173.22854 108.60365,-180.15668 -3.94873,-2.04979 -7.462,-5.08795 -11.11869,-7.49723 -14.377,-9.4614 -25.97808,-22.16642 -38.75069,-33.54061 -3.02097,-2.69165 -10.0079,-4.93825 -11.82892,-8.3488 -12.92206,-24.17334 -23.11732,-49.43368 -31.16853,-75.61833 -2.37836,-7.73684 -3.90134,-15.57213 -5.7706,-23.43137 -6.14317,-24.25685 -10.26588,-50.00373 -9.53844,-75.06892 0.40617,-14.00808 4.19595,-30.89265 4.71366,-44.80702 L 55.712317,248.33325 C 44.758584,240.17788 33.680493,232.06316 22.779742,223.84191 16.593673,219.17626 9.7897222,210.61522 3.7473353,205.9179 c 8.0488687,-3.00103 16.9576557,-4.94937 25.0774627,-7.58325 23.64473,-7.66881 46.930449,-13.02042 71.493652,-16.7549 9.50527,-1.4451 19.35252,-3.81195 28.97235,-4.81115 15.4249,-1.35695 31.53764,-1.84778 47.01766,-3.13626 5.9429,-0.49468 14.21979,-0.67482 19.91157,-1.56748 3.88585,-3.6673 8.67056,-8.33681 12.88848,-11.66348 27.89599,-22.00212 60.35319,-35.00244 93.95736,-45.67314 5.14134,-1.63253 15.92065,-4.30021 21.19981,-5.49839 10.21162,-2.31721 25.15542,-6.91354 35.10431,-8.37533 30.373,-4.462375 60.17316,-7.041043 90.89802,-5.601508 10.74184,0.503239 25.47631,2.360849 36.24829,3.802956 1.25767,-1.453223 4.90148,-5.503106 5.35371,-7.135203 7.19711,-25.867974 14.55359,-51.869899 23.56828,-77.185437 1.06383,-2.977912 1.40841,-6.8414217 1.86925,-9.9978758 z"
     id="path1"
     style="stroke-width:0.429312" />
  <path
     fill="#fefefe"
     d="m 429.15049,615.33288 c 9.83301,1.28809 20.62221,0.43227 30.39926,1.04417 32.7639,2.06688 64.64051,-1.51054 96.37492,-9.69244 7.01198,-1.81013 14.57518,-2.67879 21.62153,-4.38629 -3.20877,5.98245 -7.95952,18.08407 -13.17107,20.88269 H 451.7798 c -6.30123,-2.24664 -17.03014,-5.4004 -22.62931,-7.84813 z"
     id="path2"
     style="stroke-width:0.429312" />
  <path
     fill="#fefefe"
     d="m 307.70974,240.7877 c 0.90665,-0.0919 1.81846,-0.1305 2.73026,-0.11552 58.25995,0.96153 96.40505,58.63537 113.80088,107.60567 13.40743,37.73857 22.97344,73.09019 20.50548,113.49473 -2.14061,35.09402 -22.61293,54.4575 -57.9998,53.03679 -14.54539,-0.81732 -39.94933,-9.94493 -51.01978,-19.3378 -21.96345,-18.63609 -41.46026,-47.45673 -56.87997,-71.98959 -14.81374,-23.57131 -23.62212,-58.02899 -28.42536,-85.1525 -2.35596,-13.305 -1.44631,-32.62019 1.4308,-45.93675 2.81167,-9.97104 10.39382,-25.83033 16.28977,-34.20093 6.92232,-9.82771 27.91625,-15.94145 39.56772,-17.4041 z"
     id="path3"
     style="stroke-width:0.429312" />
  <path
     fill="#000000"
     d="m 318.80992,284.83432 c 46.23332,-2.92229 84.59465,69.46741 91.57037,107.18716 4.66888,25.24705 7.3315,69.34029 -25.9195,75.73347 -12.58911,1.55764 -24.8216,-3.89411 -34.81832,-11.25011 -31.52556,-23.73692 -52.17234,-64.2848 -58.73977,-102.44446 -4.09171,-23.77288 -2.57647,-64.69691 27.90722,-69.22606 z"
     id="path4"
     style="stroke-width:0.429312" />
  <path
     fill="#fefefe"
     d="m 325.03277,299.75045 c 24.04505,-1.21744 43.74814,23.89826 55.11235,42.25018 9.48889,15.32394 16.60115,33.20217 20.49518,50.76628 4.31998,19.48208 6.99812,57.58865 -18.77452,62.99333 -34.68135,2.45629 -64.18389,-52.78734 -72.29882,-80.45603 -6.06134,-20.66743 -14.44376,-69.158 15.46581,-75.55376 z"
     id="path5"
     style="stroke-width:0.429312" />
  <path
     fill="#000000"
     d="m 327.84399,327.13543 c 0.62668,-0.0526 1.25508,-0.0813 1.88392,-0.086 14.50015,-0.22209 22.55738,14.17667 28.82201,24.80202 10.9365,18.54792 19.3034,38.65605 22.64655,60.00302 0.83944,5.35845 1.93171,10.30097 1.97092,15.75272 -2.08506,2.38779 -3.32981,3.28643 -5.97907,4.95533 -2.44642,0.75315 -4.75069,1.26237 -7.31641,0.8045 -8.92425,-1.57903 -15.89222,-10.89492 -20.71355,-17.87007 -11.26943,-16.30688 -29.68988,-63.23812 -25.94446,-82.16774 0.59351,-3.00018 2.17463,-4.56595 4.63009,-6.19376 z"
     id="path6"
     style="stroke-width:0.429312" />
  <path
     fill="#fefefe"
     d="m 700.01765,446.42295 0.34883,0.32952 c -0.30147,4.77562 -4.76361,15.6791 -6.61566,20.3777 -8.14036,20.68155 -21.22084,35.98406 -36.53256,51.65891 -14.40282,14.742 -28.60318,27.5454 -46.56798,38.021 -14.12712,9.42282 -29.64119,16.03428 -44.75043,23.48871 -19.91584,9.82089 -41.00755,13.68067 -62.5558,18.54193 -9.16114,2.06689 -20.66535,5.2164 -29.8351,6.1536 -20.50163,2.1011 -41.10233,1.03981 -61.59748,-0.41941 -34.84547,-1.532 -67.49304,-6.41461 -97.59297,-25.19186 -4.77308,-2.97836 -11.11396,-5.52446 -16.13985,-8.49859 -5.79905,-3.43188 -10.00706,-8.73391 -16.81393,-10.2488 l -0.51945,-0.11179 c -4.62922,-1.02269 -10.48296,-2.48193 -15.09498,-2.83282 3.38235,-2.40917 5.97434,-4.12517 9.538,-6.25621 L 249.9425,542.7651 c 2.41711,-0.32092 7.60414,-0.2097 8.80364,-2.20807 -0.30063,-1.54484 -1.7409,-2.512 -2.99685,-3.65454 3.72476,0.50493 8.72697,1.33513 12.40651,2.06263 11.45507,2.25512 22.57246,1.71599 34.19595,2.38357 9.85844,0.56909 20.47494,1.84432 30.27695,2.01971 54.64418,0.99287 110.17086,-5.4688 163.63454,-16.62484 11.95641,-2.49479 24.70102,-4.92963 36.54546,-7.79671 9.06636,-2.19953 19.02,-5.43035 28.15092,-7.91232 23.92155,-6.51299 49.38056,-14.36107 72.1391,-24.13055 24.42976,-10.48415 45.39223,-25.30741 66.91893,-40.48158 z"
     id="path7"
     style="stroke-width:0.429312" />
  <path
     fill="#000000"
     d="m 642.25561,512.69544 c 3.0838,4.54883 -7.95951,16.81309 -11.17254,19.31214 -11.06493,8.60981 -30.95066,17.95999 -44.85817,13.22292 -9.54009,19.034 -50.50464,30.72493 -68.45218,19.38914 -3.61794,-2.28509 -8.48922,-6.32462 -12.00379,-9.03348 -0.21967,-0.56909 -0.14214,-0.27812 0.11197,-1.06552 2.11478,-0.71463 28.99088,10.8351 37.24753,9.31171 13.20544,-2.43924 19.64887,-6.32048 29.68866,-15.82894 3.71699,-3.52186 7.1971,-5.93527 10.1259,-10.42855 0.32735,-0.50917 2.54974,-2.55034 2.96319,-2.48619 6.07735,0.93284 11.23292,5.28057 17.89595,4.2536 19.92448,-2.85853 27.15171,-13.10308 38.45348,-26.64683 z"
     id="path8"
     style="stroke-width:0.429312" />
  <path
     fill="#fefefe"
     d="m 605.67993,188.72825 c 2.45935,-0.27174 10.07854,1.79983 12.41729,3.0772 21.43632,12.6169 39.62074,42.37854 49.75089,64.81286 12.91699,30.86827 22.83181,64.31694 26.0492,97.69241 1.80893,18.76914 2.00703,40.96939 -5.89212,58.12656 -2.58421,1.69885 -4.16055,2.54614 -6.94725,3.91979 -0.87865,-0.13266 -3.6826,-0.55632 -4.40177,-0.79167 -14.49333,-4.74438 -26.75551,-28.40257 -33.84936,-40.52608 l -2.67896,-4.80772 c 6.17208,5.64989 10.60835,8.87128 18.65399,11.09606 9.61334,-3.76914 14.79466,-8.94959 15.32022,-19.57022 1.49884,-30.67271 -7.98538,-61.93553 -20.92811,-89.49425 -7.27896,-15.49297 -13.92475,-30.55416 -33.45728,-31.90469 -2.75646,1.04157 -4.13905,1.73737 -6.17633,3.92108 -1.8693,1.98298 -3.18716,4.41059 -3.83759,7.04789 -1.094,4.65496 0.30147,26.34341 0.53844,32.0656 -1.3826,-4.39434 -2.76083,-11.9502 -3.91082,-16.6826 -5.6079,-23.00817 -8.65296,-44.8772 -9.17414,-68.5542 2.72646,-4.63828 4.03581,-6.48947 8.5237,-9.42802 z"
     id="path9"
     style="stroke-width:0.429312" />
  <path
     fill="#fefefe"
     d="m 70.257701,212.12454 c 3.180344,-0.53877 13.943705,0.53961 17.552161,0.86483 l 31.704328,3.07805 c 17.721,1.62826 35.42476,3.43751 53.10872,5.42822 6.5377,0.75614 16.57014,1.78529 22.87095,3.15551 3.63042,0.7895 13.9717,7.77067 18.27144,10.17687 -11.07262,7.69279 -22.16847,15.65173 -33.19069,23.34195 -11.67688,8.14723 -32.99342,5.97724 -46.19415,3.50725 4.86397,-3.01685 11.09931,-6.96915 16.09507,-9.54354 -5.53026,-1.5876 -12.30571,-2.99161 -17.94969,-4.27109 4.79375,-1.68689 12.06753,-4.00838 16.53181,-6.01618 5.06425,1.21485 9.41266,2.58037 14.38947,4.15641 -9.33814,-8.12326 -25.74419,-21.00892 -38.63049,-21.3996 -3.07657,-0.26445 -5.29987,-0.64318 -8.30318,-1.19134 5.38857,4.30448 13.11503,9.55939 18.85074,13.7449 -9.61725,3.53594 -19.6062,7.89049 -29.23552,11.08878 6.28876,2.08998 13.09393,4.07299 19.46106,6.03458 -2.52394,2.92872 -5.28003,6.65764 -7.68595,9.76607 12.9001,5.98067 22.47772,9.89702 35.98294,14.39022 -2.19702,1.78358 -4.73259,4.16242 -6.88353,6.07225 -4.20456,-2.43319 -7.39525,-3.96259 -11.82764,-6.00164 1.64659,3.23297 2.42014,4.86634 3.65755,8.33852 l -7.21132,0.44376 c -2.65918,-3.91336 -8.93545,-14.60247 -11.62649,-17.40024 -18.28695,-19.01306 -42.846705,-33.56375 -66.186706,-45.67314 -5.241272,-2.71944 -11.489963,-6.09919 -16.808718,-8.19388 7.369784,-1.48574 25.428027,-3.15806 33.257835,-3.89752 z"
     id="path10"
     style="stroke-width:0.429312" />
  <path
     fill="#fefefe"
     d="m 631.1347,255.32513 1.10699,0.0134 c 1.64521,0.87766 4.3458,2.69463 5.4053,4.31217 17.66334,27.00712 30.06338,62.30868 28.99513,94.81119 -0.23248,7.1459 -2.44199,12.59636 -9.03616,15.15149 -6.64153,-2.88035 -9.89767,-5.75044 -13.13221,-11.8997 -2.257,-3.76701 -4.05294,-6.19376 -6.71477,-9.71557 1.84342,-0.42365 2.75659,-0.82632 4.46215,-1.53155 3.72985,6.41458 6.72327,13.10303 15.49683,10.25049 2.08027,-19.96436 -5.25894,-41.87874 -12.6499,-60.16991 -4.19942,-10.39469 -7.61055,-21.03074 -13.61891,-30.61408 -1.47733,-2.35444 -4.3674,-6.79372 -3.98407,-9.48622 0.94328,-0.858 2.35164,-0.90377 3.66962,-1.12158 z"
     id="path11"
     style="stroke-width:0.429312" />
  <path
     fill="#fefefe"
     d="m 364.30588,128.98969 c 2.22072,-0.59781 4.59306,0.0419 6.20433,1.67318 1.61127,1.63168 2.20996,4.00024 1.56605,6.19462 -0.64348,2.1944 -2.43005,3.87229 -4.67101,4.38794 -3.3776,0.7771 -6.75952,-1.27608 -7.60412,-4.61645 -0.84463,-3.3408 1.15859,-6.73809 4.50475,-7.63929 z"
     id="path12"
     style="stroke-width:0.429312" />
  <path
     fill="#fefefe"
     d="m 308.48029,166.00766 c 2.26293,-0.54691 4.64602,0.17928 6.21078,1.89355 1.56432,1.71426 2.06007,4.14144 1.29126,6.32556 -0.76839,2.18455 -2.67813,3.776 -4.97682,4.14829 -1.94679,0.31538 -3.9302,-0.28543 -5.36918,-1.62567 -1.43899,-1.34027 -2.16991,-3.26805 -1.97868,-5.21854 0.26187,-2.67237 2.1966,-4.88817 4.82264,-5.52319 z"
     id="path13"
     style="stroke-width:0.429312" />
  <path
     fill="#fefefe"
     d="m 289.75832,166.01663 c 3.39225,-0.84985 6.83791,1.1845 7.70836,4.5514 0.87003,3.36648 -1.16248,6.79885 -4.54697,7.67822 -2.00967,0.52207 -4.14899,0.035 -5.7297,-1.30344 -1.58069,-1.33855 -2.4029,-3.36007 -2.20261,-5.4141 0.25927,-2.65398 2.16859,-4.85992 4.77092,-5.51208 z"
     id="path14"
     style="stroke-width:0.429312" />
  <path
     fill="#fefefe"
     d="m 233.82891,166.01149 c 1.89424,-0.45744 3.8953,-0.0253 5.42775,1.17253 1.53246,1.19774 2.42618,3.0284 2.42403,4.9656 -0.002,2.86625 -1.94894,5.37045 -4.73949,6.09792 -3.41509,0.89051 -6.9051,-1.15667 -7.77039,-4.55781 -0.86486,-3.4007 1.2271,-6.84977 4.6581,-7.67824 z"
     id="path15"
     style="stroke-width:0.429312" />
  <path
     fill="#fefefe"
     d="m 252.53321,165.99823 c 2.25862,-0.52592 4.62621,0.21354 6.17503,1.92908 1.54926,1.71555 2.03337,4.13416 1.26241,6.30802 -0.77053,2.17385 -2.6734,3.75716 -4.96261,4.12946 -1.90888,0.31025 -3.85611,-0.26062 -5.28907,-1.55123 -1.43339,-1.29062 -2.19617,-3.16021 -2.07214,-5.07815 0.17919,-2.77295 2.16344,-5.10257 4.88638,-5.73718 z"
     id="path16"
     style="stroke-width:0.429312" />
  <path
     fill="#fefefe"
     d="m 271.13844,166.01835 c 2.24269,-0.54432 4.6064,0.16432 6.17161,1.85075 1.56517,1.68604 2.08504,4.08369 1.35801,6.26096 -0.72747,2.17684 -2.58726,3.78968 -4.85666,4.21162 -3.37888,0.62819 -6.64666,-1.5311 -7.37067,-4.86977 -0.72445,-3.33864 1.35844,-6.64308 4.69771,-7.45356 z"
     id="path17"
     style="stroke-width:0.429312" />
  <path
     fill="#fefefe"
     d="m 326.32618,129.18996 c 3.27897,-1.2658 6.96883,0.36203 8.22262,3.62793 1.25379,3.26593 -0.40743,6.92167 -3.70235,8.14682 -2.10616,0.78352 -4.4729,0.39967 -6.2194,-1.00818 -1.74651,-1.40788 -2.61181,-3.62923 -2.27457,-5.83861 0.34113,-2.23076 1.85636,-4.11062 3.9737,-4.92796 z"
     id="path18"
     style="stroke-width:0.429312" />
  <path
     fill="#fefefe"
     d="m 251.91428,203.23657 c 2.18368,-0.7403 4.59994,-0.24392 6.30899,1.2966 1.70904,1.54053 2.44081,3.88171 1.91104,6.11289 -0.52977,2.23119 -2.23795,4.00023 -4.45953,4.61943 -1.95196,0.54391 -4.04778,0.12797 -5.63924,-1.11943 -1.5919,-1.24741 -2.48733,-3.1752 -2.4098,-5.18772 0.10043,-2.60522 1.80508,-4.87963 4.28854,-5.72177 z"
     id="path19"
     style="stroke-width:0.429312" />
  <path
     fill="#fefefe"
     d="m 345.73165,129.02606 c 2.67642,-0.67997 5.48764,0.44163 6.94774,2.77166 1.46052,2.33004 1.23269,5.33151 -0.56251,7.41763 -0.84505,0.98166 -1.9735,1.68175 -3.23202,2.0044 -2.31118,0.59267 -4.76103,-0.15534 -6.33872,-1.93464 -1.11294,-1.25553 -1.67674,-2.89962 -1.56732,-4.56895 0.17788,-2.71903 2.09624,-5.01526 4.75283,-5.6901 z"
     id="path20"
     style="stroke-width:0.429312" />
  <path
     fill="#fefefe"
     d="m 205.38418,184.6955 c 2.37793,-0.74117 4.97209,-0.0283 6.62857,1.82123 1.65651,1.84949 2.06739,4.49234 1.05049,6.75263 -0.7826,1.7391 -2.3159,3.03228 -4.16965,3.51712 -3.32766,0.87082 -6.74662,-1.0574 -7.69976,-4.34214 -0.95358,-3.28518 0.90707,-6.72568 4.19035,-7.74884 z"
     id="path21"
     style="stroke-width:0.429312" />
  <path
     fill="#fefefe"
     d="m 279.99808,184.70448 c 2.44253,-0.77668 5.11593,-0.0134 6.77027,1.93379 1.65478,1.94747 1.9636,4.69389 0.78303,6.9559 -0.91653,1.75576 -2.61008,2.98134 -4.57324,3.30913 -3.27596,0.54646 -6.42012,-1.51441 -7.20399,-4.72128 -0.78346,-3.20729 1.06039,-6.47106 4.22393,-7.47754 z"
     id="path22"
     style="stroke-width:0.429312" />
  <path
     fill="#fefefe"
     d="m 242.5421,184.76481 c 2.16474,-0.74415 4.56506,-0.26702 6.27497,1.24697 1.70991,1.514 2.46234,3.82863 1.9666,6.05042 -0.49532,2.22178 -2.16172,4.00365 -4.35531,4.65794 -3.29619,0.9838 -6.77888,-0.8323 -7.8367,-4.08666 -1.05782,-3.25394 0.69775,-6.75093 3.95044,-7.86867 z"
     id="path23"
     style="stroke-width:0.429312" />
  <path
     fill="#fefefe"
     d="m 561.19659,110.32324 c 3.40252,-0.37573 6.49068,2.00953 6.96025,5.37984 0.46945,3.37034 -1.84343,6.50061 -5.22456,7.05989 -2.2655,0.37615 -4.56113,-0.50194 -5.9911,-2.29239 -1.42997,-1.79042 -1.77019,-4.21077 -0.8829,-6.32001 0.8829,-2.10965 2.85119,-3.5753 5.13831,-3.82733 z"
     id="path24"
     style="stroke-width:0.429312" />
  <path
     fill="#fefefe"
     d="m 167.83602,184.77466 c 2.15269,-0.75485 4.54784,-0.29827 6.26635,1.1952 1.71852,1.49302 2.49338,3.79053 2.02735,6.01103 -0.46603,2.2205 -2.10057,4.01863 -4.27692,4.70459 -3.2906,1.03772 -6.81034,-0.73902 -7.90735,-3.99166 -1.09658,-3.25223 0.63529,-6.77747 3.89057,-7.91916 z"
     id="path25"
     style="stroke-width:0.429312" />
  <path
     fill="#fefefe"
     d="m 261.28475,184.73015 c 2.16472,-0.70692 4.5448,-0.20112 6.22929,1.32358 1.6845,1.52426 2.41283,3.83162 1.90589,6.03886 -0.50695,2.20723 -2.16991,3.97283 -4.35359,4.62071 -3.31256,0.98293 -6.80517,-0.86098 -7.83972,-4.13844 -1.03413,-3.27747 0.77355,-6.77276 4.05813,-7.84471 z"
     id="path26"
     style="stroke-width:0.429312" />
  <path
     fill="#fefefe"
     d="m 186.62086,184.73658 c 2.16431,-0.71164 4.5461,-0.2101 6.23406,1.31286 1.6875,1.52256 2.41885,3.82993 1.91405,6.03844 -0.50478,2.20894 -2.16774,3.97626 -4.35185,4.62499 -3.30955,0.9838 -6.80085,-0.85541 -7.83886,-4.12946 -1.03757,-3.27362 0.76278,-6.76846 4.0426,-7.84683 z"
     id="path27"
     style="stroke-width:0.429312" />
  <path
     fill="#fefefe"
     d="m 412.0088,110.31896 c 3.41034,-0.30725 6.44683,2.14132 6.84522,5.52065 0.39841,3.37974 -1.98598,6.45907 -5.37564,6.94304 -2.27327,0.32481 -4.54438,-0.60165 -5.93255,-2.41946 -1.38775,-1.81783 -1.6733,-4.24074 -0.74601,-6.32813 0.92733,-2.08699 2.92193,-3.50986 5.20898,-3.7161 z"
     id="path28"
     style="stroke-width:0.429312" />
  <path
     fill="#fefefe"
     d="m 429.06003,110.71179 c 2.38613,-0.87211 5.06512,-0.23879 6.80084,1.60727 1.73144,1.8465 2.1837,4.54542 1.1457,6.84978 -0.77958,1.72368 -2.29567,3.00702 -4.13479,3.49443 -3.26044,0.86527 -6.62855,-0.97054 -7.64933,-4.16755 -1.01991,-3.19744 0.67189,-6.62597 3.83758,-7.78393 z"
     id="path29"
     style="stroke-width:0.429312" />
  <path
     fill="#fefefe"
     d="m 223.83178,184.79007 c 2.14792,-0.76599 4.54524,-0.32009 6.26936,1.16566 1.72412,1.48575 2.50715,3.78027 2.04758,6.00162 -0.45957,2.22136 -2.08979,4.02291 -4.264,4.71273 -3.28026,1.04072 -6.79483,-0.72191 -7.90002,-3.96172 -1.1052,-3.24024 0.606,-6.76246 3.84708,-7.91829 z"
     id="path30"
     style="stroke-width:0.429312" />
  <path
     fill="#fefefe"
     d="m 149.15111,184.79735 c 2.14923,-0.77412 4.55257,-0.33293 6.28143,1.15324 1.72928,1.48661 2.51403,3.78585 2.05188,6.01062 -0.46173,2.22478 -2.09883,4.02762 -4.27908,4.71229 -3.27507,1.02917 -6.77758,-0.73303 -7.88105,-3.96514 -1.10347,-3.2321 0.59696,-6.74749 3.82682,-7.91101 z"
     id="path31"
     style="stroke-width:0.429312" />
  <path
     fill="#fefefe"
     d="m 280.53904,147.51834 c 2.38569,-0.53575 4.8683,0.34663 6.37059,2.26372 1.50274,1.91711 1.75556,4.52445 0.64821,6.69102 -0.97341,1.90554 -2.85687,3.18717 -4.99663,3.40071 -3.31945,0.33163 -6.32535,-1.96119 -6.86072,-5.23265 -0.53536,-3.2719 1.58456,-6.39233 4.83855,-7.1228 z"
     id="path32"
     style="stroke-width:0.429312" />
  <path
     fill="#fefefe"
     d="m 298.51286,184.78578 c 2.15053,-0.75784 4.54568,-0.30338 6.26335,1.18879 1.71766,1.49217 2.49077,3.78968 2.02217,6.00848 -0.46905,2.21834 -2.10703,4.01262 -4.28381,4.6926 -3.28199,1.02445 -6.78536,-0.75143 -7.87635,-3.99339 -1.09097,-3.24153 0.63272,-6.75392 3.87464,-7.89648 z"
     id="path33"
     style="stroke-width:0.429312" />
  <path
     fill="#fefefe"
     d="m 336.50031,147.50551 c 2.23796,-0.5165 4.58144,0.21696 6.1169,1.91453 1.53591,1.698 2.02044,4.09138 1.26543,6.24726 -0.75547,2.15587 -2.63119,3.73277 -4.89585,4.11619 -1.84342,0.31239 -3.7312,-0.20455 -5.15383,-1.41086 -1.42219,-1.20673 -2.23192,-2.97792 -2.2108,-4.83596 0.0327,-2.88678 2.04758,-5.37772 4.87815,-6.03116 z"
     id="path34"
     style="stroke-width:0.429312" />
  <path
     fill="#fefefe"
     d="m 317.83868,147.51493 c 2.21813,-0.51823 4.54481,0.19555 6.08243,1.86575 1.53764,1.6706 2.04587,4.0366 1.32874,6.18519 -0.71755,2.14862 -2.54805,3.74392 -4.78557,4.17013 -3.36211,0.64061 -6.62213,-1.50714 -7.33668,-4.83298 -0.71454,-3.32623 1.37914,-6.60928 4.71108,-7.38809 z"
     id="path35"
     style="stroke-width:0.429312" />
  <path
     fill="#fefefe"
     d="m 299.32605,147.5008 c 3.39655,-0.72019 6.73711,1.43183 7.46113,4.80645 0.72445,3.3746 -1.44245,6.69357 -4.83899,7.41248 -3.3957,0.71849 -6.73496,-1.43354 -7.45899,-4.8073 -0.72401,-3.37374 1.44158,-6.69185 4.83685,-7.41163 z"
     id="path36"
     style="stroke-width:0.429312" />
  <path
     fill="#fefefe"
     d="m 215.79607,202.99094 c 7.63729,-0.63247 10.44335,8.88755 2.40164,12.28311 -10.04453,-1.10704 -10.53078,-10.21924 -2.40164,-12.28311 z"
     id="path37"
     style="stroke-width:0.429312" />
  <path
     fill="#fefefe"
     d="m 319.01622,184.20166 c 5.1728,0.91919 8.72053,5.5168 5.0664,10.58685 -1.20597,1.6736 -2.8392,1.61882 -4.72959,1.67103 -7.79491,0.11726 -9.31058,-9.66807 -0.33681,-12.25788 z"
     id="path38"
     style="stroke-width:0.429312" />
  <path
     fill="#fefefe"
     d="m 233.74966,202.90278 c 8.43324,-0.35688 11.0123,8.95687 3.95173,12.0927 -1.21288,-0.12881 -3.08644,-0.30211 -4.22481,-0.58797 -1.78484,-0.46044 -3.29748,-1.63595 -4.17699,-3.24666 -1.99459,-3.62108 1.61301,-6.64521 4.45007,-8.25807 z"
     id="path39"
     style="stroke-width:0.429312" />
  <path
     fill="#fefefe"
     d="m 312.06117,129.42318 c 7.35002,2.49351 4.7464,12.24888 -3.09376,11.98441 -3.16397,-1.16823 -7.13552,-4.20391 -4.88981,-7.94652 1.72497,-2.8748 4.95227,-3.26892 7.98357,-4.03789 z"
     id="path40"
     style="stroke-width:0.429312" />
  <path
     fill="#fefefe"
     d="m 446.52949,110.77554 c 2.89866,0.71464 6.35292,0.72791 8.56676,2.84569 3.19152,3.05025 -0.0259,6.60501 -2.38182,8.84605 -0.32303,0.0878 -0.64607,0.16903 -0.97339,0.24391 -3.85053,0.86697 -7.36939,-1.20932 -7.86471,-5.2288 -0.38764,-3.14053 0.81403,-4.44183 2.65316,-6.70685 z"
     id="path41"
     style="stroke-width:0.429312" />
  <path
     fill="#fefefe"
     d="m 264.32424,147.67582 c 6.93093,0.71208 7.54684,9.98987 -1.13018,12.47055 -3.40775,-0.98808 -7.60887,-3.50169 -5.80808,-7.71932 1.24905,-2.92399 4.16451,-3.67885 6.93826,-4.75123 z"
     id="path42"
     style="stroke-width:0.429312" />
  <path
     fill="#fefefe"
     d="m 580.31566,110.09471 1.52471,0.23109 c 2.73496,1.70315 3.72561,5.60794 4.92298,8.68599 -2.38187,2.65186 -2.82983,3.09217 -6.13759,4.26299 -0.62882,-0.19601 -1.25337,-0.4121 -1.86493,-0.64832 -6.57692,-2.57822 -6.2367,-10.08358 1.55483,-12.53175 z"
     id="path43"
     style="stroke-width:0.429312" />
  <path
     fill="#fefefe"
     d="m 393.77268,111.993 c 5.41225,-0.62092 7.76478,1.24482 5.61942,7.38382 -0.71368,2.04332 -2.90167,3.03825 -4.87688,3.74347 -4.66886,-0.70224 -9.3528,-4.73925 -5.87184,-9.59619 1.11209,-1.55165 3.28241,-1.42114 5.1293,-1.5311 z"
     id="path44"
     style="stroke-width:0.429312" />
  <path
     fill="#fefefe"
     d="m 569.53932,91.551085 c 3.35526,0.05007 6.32707,6.641368 7.89053,9.332165 -2.1104,1.94276 -2.5756,2.32277 -5.14694,3.55219 -8.16189,0.13608 -9.92345,-7.806188 -2.74359,-12.884355 z"
     id="path45"
     style="stroke-width:0.429312" />
  <path
     fill="#fefefe"
     d="m 326.9813,165.79368 c 2.79657,-0.0598 6.54286,0.46943 7.3009,3.50683 -0.70938,3.19317 -3.55979,5.2699 -5.98982,7.55884 -0.55133,0.62734 -0.78519,0.62435 -1.57554,0.96241 -3.49821,-0.25676 -4.6637,-4.04388 -4.13996,-7.03935 0.42123,-2.41048 2.49251,-3.75588 4.40442,-4.98873 z"
     id="path46"
     style="stroke-width:0.429312" />
  <path
     fill="#fefefe"
     d="m 382.71171,128.878 c 5.63708,-0.33079 6.87279,1.38091 8.7752,6.323 -2.23234,0.61022 -4.68134,1.49346 -6.89819,2.24061 l -4.8321,2.15503 c -2.50886,-5.35848 -2.1277,-7.50152 2.95509,-10.71864 z"
     id="path47"
     style="stroke-width:0.429312" />
  <path
     fill="#fefefe"
     d="m 136.49308,186.34814 c 4.59347,1.54438 2.00278,6.96146 -0.24766,9.51188 l -6.30856,-1.07666 c -2.02389,-0.40352 -1.78959,-0.041 -3.05975,-1.23455 -0.49058,-1.56535 -0.57672,-1.79044 -0.20329,-3.37375 1.69268,-2.68608 6.33741,-3.00702 9.81926,-3.82692 z"
     id="path48"
     style="stroke-width:0.429312" />
  <path
     fill="#fefefe"
     d="m 376.87691,114.20879 c 0.47982,-0.0737 0.96049,-0.14122 1.44201,-0.20156 1.74307,-0.20284 1.68922,-0.1318 2.80993,0.76599 2.20694,4.57364 -2.81122,8.59997 -7.78804,8.04752 -1.81671,-1.05267 -3.53308,-2.84183 -4.61846,-4.62113 -0.28513,-3.85904 5.3175,-3.69727 8.15456,-3.99082 z"
     id="path49"
     style="stroke-width:0.429312" />
  <path
     fill="#fefefe"
     d="m 333.6693,185.64335 c 3.31212,1.34068 8.09899,4.94808 10.82279,7.19082 l -3.31517,3.39686 c -0.72831,0.20069 -5.6754,0.03 -6.77499,0.009 -3.46762,-4.45853 -3.71828,-5.84501 -0.73263,-10.5971 z"
     id="path50"
     style="stroke-width:0.429312" />
  <path
     fill="#fefefe"
     d="m 462.40964,113.78899 c 3.64809,0.62476 10.93564,0.19512 12.29669,3.70497 -0.24552,1.77459 -0.91742,2.42547 -1.96835,3.89111 -6.44337,4.63397 -10.68582,-0.89694 -10.32834,-7.59608 z"
     id="path51"
     style="stroke-width:0.429312" />
  <path
     fill="#fefefe"
     d="m 558.94833,73.576576 c 1.79595,0.939298 6.73616,8.604265 7.34348,10.413522 -1.0294,1.146411 -2.33877,1.366367 -3.8591,1.864041 -4.1908,0.512228 -6.03847,-3.43152 -7.26608,-6.569486 1.15862,-2.882067 1.53331,-3.746471 3.7817,-5.708077 z"
     id="path52"
     style="stroke-width:0.429312" />
  <path
     fill="#fefefe"
     d="m 221.24537,168.74379 c 4.30407,1.3655 1.04189,11.33356 -6.84737,9.36938 l -3.53179,-2.42675 c 3.59252,-3.24665 5.99931,-4.81628 10.37916,-6.94263 z"
     id="path53"
     style="stroke-width:0.429312" />
  <path
     fill="#fefefe"
     d="m 355.2929,147.34461 c 1.80769,-0.089 3.89404,0.31281 5.47948,1.20889 1.77234,2.86922 -3.28976,5.19712 -5.46869,6.59216 -1.16507,0.83403 -1.53333,1.04071 -2.84137,1.63209 -1.56435,-0.26402 -0.91612,0.0847 -1.99116,-1.11901 -1.12286,-3.98312 1.39849,-6.80656 4.82174,-8.31413 z"
     id="path54"
     style="stroke-width:0.429312" />
  <path
     fill="#fefefe"
     d="m 588.89962,128.93876 c 1.7573,0 1.34384,-0.273 2.32587,0.64616 0.76666,2.77724 0.34883,6.97601 0.23684,10.00572 l -3.85908,-1.14641 c -1.5807,-0.59267 -3.57923,-1.03814 -3.96683,-2.8688 -0.73654,-3.45677 2.1879,-5.93615 5.2632,-6.63667 z"
     id="path55"
     style="stroke-width:0.429312" />
  <path
     fill="#fefefe"
     d="m 548.31844,114.80359 c 0.52546,0.0219 0.37904,0.0714 0.94755,0.44205 0.63745,3.1615 -0.7408,5.69439 -3.70839,7.14205 -1.87356,0.91361 -3.67392,0.0269 -5.4958,-0.65557 -1.11554,-0.82334 -2.51103,-2.08999 -3.5964,-3.01601 3.41119,-1.35481 8.24802,-2.7631 11.85304,-3.91252 z"
     id="path56"
     style="stroke-width:0.429312" />
  <path
     fill="#fefefe"
     d="m 360.89511,116.17508 c 0.75589,-0.13864 0.66674,-0.0496 1.48249,0.10318 1.68492,3.95873 -3.63517,7.70775 -8.5198,6.07737 -1.0492,-0.83959 -2.80821,-2.67881 -3.83587,-3.69897 3.71442,-0.70307 7.20658,-1.57861 10.87318,-2.48153 z"
     id="path57"
     style="stroke-width:0.429312" />
  <path
     fill="#fefefe"
     d="m 272.03174,202.98666 c 3.19412,-0.20325 3.62913,0.55073 6.13454,2.61248 l -7.73549,4.05586 c -1.68019,0.88066 -2.58252,1.80241 -4.06026,0.39111 -0.91311,-3.71222 2.42099,-6.21515 5.66121,-7.05945 z"
     id="path58"
     style="stroke-width:0.429312" />
  <path
     fill="#fefefe"
     d="m 296.61431,134.48208 0.58964,-0.0552 0.56638,0.47584 c -0.041,1.60472 -0.86055,2.95438 -1.56259,4.44784 -2.48735,1.63382 -3.82254,2.76396 -6.83706,1.80841 -1.23784,-0.70951 -2.66779,-1.66548 -3.89704,-2.43876 3.76138,-1.56062 7.31126,-2.85808 11.14067,-4.23815 z"
     id="path59"
     style="stroke-width:0.429312" />
  <path
     fill="#fefefe"
     d="m 195.98829,203.01319 c 4.20371,-0.6025 8.89756,1.92865 8.18387,6.40987 l -0.76795,0.10272 c -2.75048,-0.97265 -7.80871,-2.32018 -9.39716,-4.50045 0.25929,-1.2427 0.51383,-1.01761 1.98124,-2.01211 z"
     id="path60"
     style="stroke-width:0.429312" />
  <path
     fill="#fefefe"
     d="m 547.64654,56.121158 c 1.75727,1.196468 6.29259,8.654747 7.59769,10.860692 -7.86903,1.695012 -7.33927,-5.065333 -7.59769,-10.860692 z"
     id="path61"
     style="stroke-width:0.429312" />
  <path
     fill="#fefefe"
     d="m 569.44033,128.85532 c 3.39826,-0.15704 8.41172,1.3732 7.84742,5.53519 h -0.88292 c -2.7522,-1.02145 -7.80015,-1.69287 -9.16977,-3.47602 0.3876,-1.23284 0.88292,-1.2076 2.20527,-2.05917 z"
     id="path62"
     style="stroke-width:0.429312" />
  <path
     fill="#fefefe"
     d="m 554.50344,91.960179 c 4.41465,2.027928 5.79726,5.258326 3.49725,9.532421 -0.68043,0.65259 -0.7278,0.62562 -1.58933,1.04456 l -0.69767,-0.56186 c -0.9734,-2.912448 -0.99065,-6.875445 -1.21025,-10.015121 z"
     id="path63"
     style="stroke-width:0.429312" />
  <path
     fill="#fefefe"
     d="m 249.87315,154.10624 0.62409,0.0278 0.3308,0.65131 c -0.73091,3.14393 -3.7885,5.29426 -6.99985,5.29767 -0.96693,-0.32436 -1.6229,-0.43347 -2.32021,-1.16823 l 0.19639,-0.81946 c 1.38172,-1.22045 6.16729,-3.0558 8.16878,-3.9891 z"
     id="path64"
     style="stroke-width:0.429312" />
  <path
     fill="#fefefe"
     d="m 480.607,117.82045 c 2.8082,0.45403 7.87335,1.7836 10.27241,3.22484 l 0.12488,0.79722 c -5.06946,2.09597 -7.84751,0.7861 -10.39729,-4.02206 z"
     id="path65"
     style="stroke-width:0.429312" />
  <path
     fill="#fefefe"
     d="m 402.44195,128.52325 c 1.2667,0.16261 3.48183,0.31838 4.13004,1.45965 -1.30159,1.09163 -3.29749,1.39417 -5.02333,1.83922 l -5.38899,1.92609 c 2.18194,-2.66555 3.11356,-3.88983 6.28228,-5.22496 z"
     id="path66"
     style="stroke-width:0.429312" />
  <path
     fill="#fefefe"
     d="m 119.34105,190.70568 c 0.26144,0.008 0.48798,0.23108 0.77958,0.41937 0.21706,1.2504 0.32302,0.67441 -0.36482,1.77674 -1.69267,0.69837 -2.76254,0.30852 -4.59995,-9.8e-4 -1.16764,-0.34321 -0.808,0.002 -1.40022,-0.7784 1.19047,-0.8336 3.99092,-1.13699 5.58541,-1.41644 z"
     id="path67"
     style="stroke-width:0.429312" />
  <path
     fill="#fefefe"
     d="m 340.58427,120.78341 1.49801,-0.0569 0.29805,0.3924 c -1.37051,1.13014 -2.23107,1.30262 -3.89962,1.88587 -0.92472,0.0201 -1.40583,0.14334 -2.13632,-0.39883 0.88123,-0.92687 2.92536,-1.39759 4.23988,-1.82252 z"
     id="path68"
     style="stroke-width:0.429312" />
  <path
     style="fill:#000000;fill-opacity:0;stroke-width:1.23993"
     d="m 113.80941,622.6336 -0.55118,44.34446 550.06702,1.09493 -26.45613,-48.17675 -526.9179,2.18984 z"
     id="path69" />
  <rect
     style="fill:#000000;fill-opacity:0;stroke-width:1.23993"
     id="rect69"
     width="525.81555"
     height="42.15469"
     x="112.70708"
     y="625.37079" />
</svg>
