<?xml version="1.0" encoding="UTF-8" standalone="no"?>
<!-- Generator: visioncortex VTracer -->

<svg
   id="svg"
   version="1.1"
   style="display:block"
   viewBox="0 0 1024 1024"
   width="256"
   height="256"
   xml:space="preserve"
   xmlns="http://www.w3.org/2000/svg"
   xmlns:svg="http://www.w3.org/2000/svg"><defs
     id="defs146"><clipPath
       clipPathUnits="userSpaceOnUse"
       id="clipPath29"><g
         id="g35"
         style="display:inline"
         transform="matrix(0.89458913,0,0,0.87842478,37.482759,61.326622)"><path
           style="opacity:0.303;fill:#ff0000;fill-opacity:1;stroke-width:5.51812"
           d="m 259.04224,173.10846 3.72276,21.09566 11.47852,18.30358 c 0,0 -9.50614,-8.47997 -9.92737,-2.48184 -0.65106,9.27085 17.99335,19.85474 17.99335,19.85474 l -16.4422,-4.96369 c 0,0 -7.49826,7.81181 -7.44552,14.58082 0.11849,15.20645 22.33657,39.39924 22.33657,39.39924 0,0 3.51039,-11.63352 1.24092,-16.75243 -3.72162,-8.39429 -7.13529,-21.40588 -7.13529,-21.40588 l 18.30358,23.57749 c 0,0 10.50467,14.21591 17.99336,11.47852 1.41415,-0.51693 3.1023,-2.48184 3.1023,-2.48184 l 2.79207,-0.31024 -1.86138,-5.27391 17.06266,16.4422 -15.51151,-22.64681 2.48184,-0.31024 -20.16496,-54.60052 c 0,0 -6.39125,-7.5315 -16.75244,-9.61713 -10.89693,-2.19347 -23.26726,-23.88772 -23.26726,-23.88772 z"
           id="path29" /><path
           style="opacity:0.379;fill:#ff0000;fill-opacity:1;stroke-width:5.51812"
           d="m 318.91667,134.01946 -1.86138,60.80512 2.17161,31.64348 -8.37622,-12.71944 7.44553,21.40589 c 0,0 9.10009,9.30691 14.58082,12.40921 5.48074,3.1023 18.30359,6.2046 18.30359,6.2046 l -9.92737,-20.47519 30.09233,40.95038 -7.44553,-17.06265 25.43888,27.92072 c 0,0 -36.50375,-48.29251 -47.62034,-72.28365 -11.11658,-23.99113 -22.80192,-78.79847 -22.80192,-78.79847 z"
           id="path30" /><path
           style="opacity:0.476;fill:#ff0000;fill-opacity:1;stroke-width:5.51812"
           d="m 363.27959,214.98954 c 0,0 1.43029,17.97268 6.51484,24.81842 4.2212,5.68334 19.23427,18.92405 19.23427,18.92405 l -6.2046,-16.13197 c 0,0 10.27247,10.11103 19.85474,13.96036 13.7041,5.50512 48.08566,10.23759 48.08566,10.23759 l -29.16162,-22.02634 15.20128,-0.31024 -16.75244,-33.81509 c 0,0 13.02967,17.06266 21.56101,24.35307 8.53133,7.29041 29.62699,19.38939 29.62699,19.38939 l 11.78872,-6.51484 -1.55112,-6.51483 31.33324,5.58414 c 0,0 -32.30336,-20.20408 -45.91409,-34.74578 -15.44404,-16.5004 -39.08899,-58.01306 -39.08899,-58.01306 l 2.79208,16.44221 c 0,0 -1.85241,4.07373 -4.96368,7.75576 -3.68118,4.35648 -15.51152,16.13196 -15.51152,16.13196 l -3.10232,-4.34322 -4.65344,8.06598 0.62048,20.4752 c 0,0 -7.18667,-8.1099 -10.85808,-12.40921 -3.56926,-4.1797 -7.56989,-9.28595 -10.23759,-14.27059 -2.74815,-5.13497 -5.58415,-15.51151 -5.58415,-15.51151 l -4.03299,13.02967 c 0,0 -2.83378,9.29996 -3.1023,14.89105 -0.27446,5.71471 1.55115,18.61381 1.55115,18.61381 z"
           id="path31" /><path
           style="opacity:0.29;fill:#ff0000;fill-opacity:1;stroke-width:5.51812"
           d="m 453.8668,164.42202 c 0,0 4.4589,28.50499 9.30693,37.84808 4.244,8.17901 15.82175,13.02968 15.82175,13.02968 l 0.93068,-3.10231 30.40256,17.99336 c 0,0 -24.1579,-18.2771 -34.12534,-30.09233 C 467.34,189.592 453.8668,164.42202 453.8668,164.42202 Z"
           id="path32" /><path
           style="opacity:0.283;fill:#ff0000;fill-opacity:1;stroke-width:5.51812"
           d="m 486.441,150.15143 c 0,0 25.30356,25.17095 37.53787,38.15832 9.73986,10.33938 28.54116,31.64348 28.54116,31.64348 l -1.24091,-6.82507 c 0,0 16.64842,4.21847 22.02633,-0.93069 3.43913,-3.29285 0.93071,-13.33989 0.93071,-13.33989 l 11.47852,-5.58415 5.58412,14.27059 -0.93068,-13.3399 c 0,0 -5.70139,-12.21278 -9.92736,-17.37289 -4.78303,-5.8403 -10.35706,-11.4239 -17.06268,-14.89105 -2.74037,-1.41691 -8.99665,-2.17162 -8.99665,-2.17162 l -13.96039,0.62047 9.30692,9.61713 -18.6138,-3.41253 0.93068,4.65345 c 0,0 -10.06681,-7.22866 -15.82176,-9.3069 -4.23733,-1.5302 -9.10066,-0.64667 -13.33988,-2.17162 -5.97461,-2.14921 -16.4422,-9.61713 -16.4422,-9.61713 z"
           id="path33" /><path
           style="opacity:0.276;fill:#ff0000;fill-opacity:1;stroke-width:5.51812"
           d="m 568.96224,144.87752 c 0,0 16.36082,18.95501 23.57748,29.16164 5.81587,8.22547 15.82176,25.7491 15.82176,25.7491 0,0 1.87095,-19.21722 -2.79209,-30.09233 -2.82015,-6.57713 -15.82175,-22.02634 -15.82175,-22.02634 l -10.5478,3.1023 z"
           id="path34" /><path
           style="opacity:0.283;fill:#ff0000;fill-opacity:1;stroke-width:5.51812"
           d="m 531.7346,307.12792 3.41252,10.85806 -0.93068,3.41253 7.75576,14.89105 -10.2376,-9.3069 3.72276,8.68644 -3.10228,-0.31024 11.16828,15.82175 0.3104,-6.51484 4.65344,2.79207 2.79208,-1.55115 3.41252,5.89438 3.10232,-3.10231 v -5.89436 l 2.1716,-4.033 0.3104,-3.72276 -5.58416,-10.85806 -4.033,-2.79207 -3.41252,2.79207 z"
           id="path35" /></g></clipPath></defs><g
     id="g2"
     style="display:inline"><path
       d="m 439.27529,24.703527 29.62919,1.206963 26.07369,2.413981 15.40714,2.413928 23.70339,8.448859 21.333,9.655823 18.96271,9.655822 20.14784,14.483732 14.22203,13.276706 10.66648,12.069745 14.22202,16.897714 15.40711,24.1395 13.03695,20.5186 9.48128,19.31164 18.96274,39.83024 4.74063,10.86279 18.96272,41.03721 10.66647,25.34651 4.74072,20.5186 v 15.69069 l -1.18517,16.89772 -3.55555,12.06976 -8.29613,12.0698 -3.55556,2.41392 2.37037,-7.2419 v -33.7953 l -3.55546,30.17442 -3.55554,13.2767 H 705.938 l -1.18511,6.03486 -10.66656,22.93261 -4.74069,9.65583 -7.11104,37.41628 -9.48124,31.3814 -8.29631,12.06978 -15.40716,21.72555 -9.4813,12.06979 -9.48128,18.10464 -5.92584,18.10467 -2.37039,13.2767 -2.37032,-2.41398 -2.37034,-9.65575 -2.37034,-1.20697 -3.55551,20.51858 -3.55551,25.34655 c -5.38132,39.01548 -1.65718,89.4261 -1.18508,129.14648 l 7.11093,24.13957 3.55551,3.62089 v 2.41396 l 29.62917,6.03489 30.81436,12.06974 17.77754,10.86283 14.22199,14.48363 7.11107,8.44892 9.48135,8.44885 18.96266,15.69071 15.40711,9.65578 22.51822,13.27672 14.22202,8.44894 26.07372,10.86272 47.40677,21.72559 42.66597,19.31158 47.4068,21.72568 20.1478,9.6557 18.96271,13.27673 c 5.08022,9.28597 10.20282,18.5465 15.40712,27.76055 l -1.5322,20.2224 -999.542021,-0.6672 5.533262,-30.41798 11.851661,-18.10463 15.407227,-21.72548 11.851658,-18.10471 18.962696,-14.48379 55.702887,-18.10463 46.22153,-14.48364 39.11056,-13.27677 33.1847,-13.27667 17.77749,-8.44889 10.66657,-9.65587 18.96264,-14.48373 15.40716,-12.06971 8.2962,-8.44892 11.85166,-9.65569 18.96269,-10.86282 15.40719,-4.82795 -2.37032,-22.93254 -3.55551,-6.03494 -9.48136,-8.4488 -18.96269,-19.3116 -15.40713,-12.06975 -16.59237,-13.27681 -14.22198,-13.27678 -9.4814,-8.44877 -15.40717,-16.89769 -16.59234,-22.93255 -8.29619,-12.06975 -9.48136,-16.89768 -13.03682,-30.17445 -7.11102,-10.86281 -20.1478,-19.31152 -1.18521,-2.41401 h -2.37031 l -4.74067,10.86278 -5.92584,4.8279 h -4.74071 l 2.37035,-4.8279 1.18517,-2.41392 v -10.86289 l -2.37033,-10.86276 -10.66655,-19.31161 -20.14781,-33.7953 -3.5555,-6.0349 -1.18516,4.82791 v 10.86272 l 9.4813,10.86285 -2.37031,1.20698 -4.74068,-2.41395 10.66649,14.48369 -2.3703,1.20698 -15.40723,-8.44881 -10.66645,-10.8628 -5.92582,-13.27676 -5.9259,-27.76042 -1.18514,-132.76748 4.74066,-28.96747 14.22202,-51.89998 10.66652,-30.17443 1.18515,-2.41392 1.18515,-32.58841 7.11104,-20.5186 10.6665,-16.89765 10.66651,-12.06976 15.40719,-14.4838 14.222,-14.483653 27.25885,-19.311643 21.33305,-13.276717 20.14784,-9.655821 4.7407,-2.413987 28.44399,-14.483729 23.70336,-9.655821 21.333,-1.206962 54.51774,-1.206966 z"
       style="fill:#020202;stroke-width:1.19602"
       id="path1" /><path
       d="m 435.77693,387.29718 5.92585,1.20702 9.48128,4.82786 v 1.20702 l -24.88851,3.62096 -23.70328,9.65578 -14.22199,6.03492 -4.74072,3.62088 15.40716,-4.82782 15.40717,-6.03497 36.74017,-8.44879 4.74067,-2.41397 5.92585,3.62092 v 2.41395 l 5.92585,2.41397 1.18516,3.62091 -10.66644,2.41397 -26.07372,3.62095 -11.85173,6.03488 -13.0368,8.44884 -1.18518,4.82785 5.92588,-2.41392 h 5.92581 l -1.18522,7.2419 3.55551,-2.41396 v 21.72555 l -2.37029,4.82788 v 3.62098 h 7.11101 l -1.18517,-2.41397 V 450.0601 l 4.74075,-15.69077 4.74056,-7.24184 9.48139,-4.82794 3.55552,-1.20694 h 8.29618 l -7.11102,9.65578 c 0,0 -3.01284,18.63303 3.1061,25.26388 8.1223,8.80184 33.63406,6.11749 33.63406,6.11749 l 5.92589,-4.82788 c 4.5728,-7.67266 3.5555,-15.4723 3.5555,-24.13957 l -3.5555,-7.24178 -2.37035,-3.62098 5.92585,2.41395 11.85165,7.24191 1.18518,1.2069 -1.18518,12.06984 -1.18521,3.62093 3.5556,1.20702 2.3703,7.24178 v 22.93255 l -1.18517,10.86276 4.74071,-6.03485 3.55547,-8.4488 h 1.18521 v 7.24182 l -2.37042,4.82792 h 2.37042 l 1.18509,-7.24183 3.55554,-12.06983 2.37031,-12.06974 h 4.74062 l 5.9259,18.10467 2.37028,27.76046 5.92585,-21.72556 4.74072,4.82788 2.3703,12.06977 v 19.31166 l 2.37038,-1.20703 v 9.65586 l 4.74064,-12.06973 4.74063,-12.06987 2.37033,-2.41391 3.55555,4.82792 3.55551,9.65586 V 504.374 l 3.55551,2.41394 v -13.27679 l 4.74059,-13.27672 3.5556,-10.86281 2.37029,1.20702 1.18517,10.86281 1.18513,27.76037 7.11106,-12.0697 3.5555,-4.82791 h 2.37034 l 2.37031,-4.82791 15.40715,-19.31157 2.37037,-1.20706 v 8.44888 l -16.59241,33.79527 -4.74059,14.48382 -4.74067,7.24183 -7.11106,4.82782 -10.66644,3.62099 -3.55551,7.24187 -5.92585,27.76049 -4.74072,19.31157 -4.74066,12.06986 -3.55548,6.03485 -9.48135,14.48369 -8.29619,10.8628 -16.59236,18.10463 -16.59229,18.10467 -18.96271,19.31162 -9.4813,8.4488 -13.03678,12.06983 -15.40727,12.06977 -10.66653,8.44881 -27.25882,12.06979 -7.11095,2.41394 h -24.88861 l -9.48132,-2.41394 -13.03687,-10.86281 -9.48135,-8.44879 -13.03681,-10.86283 -17.77755,-15.69066 -16.59233,-14.48379 -13.03687,-10.86276 -9.48135,-8.44885 -13.03681,-16.89764 -10.6665,-13.27676 -14.22202,-25.34649 -14.22203,-32.58846 -7.11103,-20.51854 -3.55547,-16.8977 -3.55552,-8.44876 1.18516,-3.62093 4.74067,2.41391 v -3.62099 l 4.74069,-1.20689 v -2.41395 l -5.92584,-1.20703 -9.48135,-10.86272 -3.55552,-7.24189 -2.37031,-8.44881 11.85166,2.41391 -3.55548,-6.03489 -3.55551,-6.03488 5.92583,1.20697 v -2.41396 l -7.11098,-2.41395 -9.48135,-12.06975 -3.55551,-6.03489 -2.37032,-7.24187 -1.18522,-20.51865 h 3.55554 l 1.1852,-3.62092 8.29614,-3.62095 10.6665,-3.62083 2.37038,-1.20703 11.85164,-1.20702 h 13.03688 l 10.6665,6.03488 39.11055,26.55359 26.07368,16.89757 13.03681,12.06982 -5.92583,-15.69072 -8.29613,-12.06974 -2.37039,-4.82782 5.92584,2.41387 9.48135,8.44884 3.55552,4.82796 2.37031,8.44881 1.18521,-3.62102 3.55553,1.2071 1.1851,10.86272 2.37036,-1.20698 1.18516,4.82792 5.92582,-31.3814 v -14.48373 l -3.55546,-12.06976 -2.37036,-8.44884 7.11103,2.41395 h 16.59234 l -10.66651,-6.03487 v -1.20701 l 11.85167,-1.20696 -17.7775,-6.03487 -4.74067,-2.41397 v -2.41396 h 27.25882 l 2.37039,2.41396 8.29617,2.41397 h 7.11104 l 7.11097,-4.82793 h 2.37032 v -2.41392 l 15.40711,-9.65588 13.03687,-4.82786 z"
       style="fill:#ffffff;fill-opacity:1;stroke-width:1.19602"
       id="path2" /><path
       d="m 606.441,565.92987 2.37047,2.41387 v 19.31161 l -3.55558,18.10472 -2.37031,24.13944 V 730.0786 l 1.18517,14.48379 7.11102,24.13951 10.66648,16.89761 21.33299,21.72562 8.29614,7.2419 10.66666,19.31157 9.48126,14.48378 7.11103,8.44885 13.0368,10.86279 2.37034,3.62087 2.37035,27.76048 v 13.27676 l -17.77749,16.8977 -9.48132,9.65574 -16.59236,12.06982 -21.33305,14.48374 -13.03686,8.44884 -14.22199,4.82783 -22.51826,4.82796 -30.81432,4.82791 -33.18464,2.41392 h -73.48046 l -27.25888,-1.20693 -27.25879,-4.82791 -34.36989,-16.89767 -7.11098,-3.62097 -4.74067,-4.82783 -3.55552,-1.20697 v -2.41401 l 17.77754,-9.65578 11.85166,-6.03488 10.66649,-7.24192 9.48137,-8.44881 3.55551,-4.8279 8.29614,-1.20699 10.66655,2.41388 9.48131,8.44893 3.55551,3.62089 3.55558,1.20703 h 10.66644 l -22.51825,-13.27685 -8.29612,-3.62089 2.37035,-4.82788 7.11099,-6.03485 5.92584,-8.44884 5.92584,-13.27684 3.55547,4.82796 4.74068,8.44888 -1.18513,-27.76054 -1.18518,-14.48373 15.40713,-27.76037 17.77753,-33.7954 15.4072,-27.76045 20.14783,-38.6233 15.40721,-27.76041 20.14787,-38.62331 14.22203,-27.76048 7.11093,-14.4837 17.77758,-10.86278 8.29614,-7.24189 9.48136,-14.4837 z"
       style="fill:#ffffff;fill-opacity:1;stroke-width:1.19602"
       id="path3" /><path
       d="m 329.11183,489.8903 2.37031,3.62085 5.92584,25.34653 2.37036,21.72557 3.55552,56.72793 4.74067,4.82796 2.37031,1.20693 h 14.22203 l 3.55546,-2.41399 h 8.29618 l 7.11105,2.41399 -5.92588,10.86276 -5.92583,7.24191 -5.92582,3.62085 h -8.29615 l -16.59238,-9.65582 -11.85167,-10.86272 -2.37036,-4.82792 v -13.27675 l 1.18521,-1.20698 3.55546,-32.58836 1.18521,-8.44885 v -30.17433 l -3.55552,-19.31165 z"
       style="fill:#070707;stroke-width:1.19602"
       id="path4" /><path
       d="m 248.60713,491.7143 -0.0867,-21.13566 5.92583,-6.03489 h 9.48135 l 2.37032,1.20699 5.92583,4.8279 4.74066,7.24187 v 15.69064 l -5.92584,6.03493 h -9.48135 l -7.11097,-4.82787 -5.2899,-2.10549 -4.19145,-6.34339 -1.18515,-2.41397 v -13.27672 l 4.74067,-7.24187 3.55553,-2.41396 -10.66657,1.20695 -9.48135,6.03497 -7.11098,8.44881 -2.37031,3.62089 1.18511,10.86276 3.55552,4.828 v 2.41391 l -4.74063,-2.41391 -4.74073,-6.03489 -2.37031,-1.20702 -1.18515,4.82787 -1.18515,-1.20694 v -6.03488 h 2.3703 v -8.44882 l 4.74068,-7.24187 2.37036,-6.03489 -10.66655,2.41392 5.92582,-6.03486 7.11104,-4.82786 14.22201,-3.62089 h 22.51816 l 17.77757,2.41387 9.48134,10.86281 4.74067,7.24178 -1.18521,2.41403 h -2.37031 l 7.11104,9.65579 -1.18521,8.44881 -7.11098,2.41404 v -10.86285 l -9.48134,-13.2767 v 1.20688 l 2.37031,4.82799 v 14.4837 l -3.55553,8.44886 -3.55548,2.41394 h -15.40717 l -7.11097,-4.82791 -2.37037,-4.82795"
       style="fill:#0b0b0b;stroke-width:1.19602"
       id="path6" /><path
       d="m 670.44014,888.19257 h 16.59237 l -4.74068,7.24183 -8.29622,8.44893 -9.48128,6.03485 -15.40724,4.82791 -17.77749,3.62093 -15.4072,2.41388 -18.96266,1.2071 h -73.48037 l -11.85165,2.41391 -13.0369,10.86277 -7.11105,4.82796 -3.55544,1.20692 h -20.1479 l -1.18512,-4.8279 42.66604,-14.48366 4.74071,-2.41399 85.33198,-1.20699 20.14787,-2.41391 15.4072,-6.03493 20.14783,-13.27676 10.66651,-6.03489 z"
       style="fill:#0a0a0a;stroke-width:1.19602"
       id="path7" /><path
       d="m 363.48171,639.55534 h 22.51816 l 14.22204,3.62097 18.96266,2.41405 5.92585,2.41387 -1.18517,3.62092 -21.33298,6.03486 -14.22199,3.62092 -8.29625,1.20699 h -15.40716 l -13.03682,-7.24188 -2.37037,-4.8279 8.2962,-7.24183 z"
       style="fill:#10100f;stroke-width:1.19602"
       id="path8" /><path
       d="m 561.40466,771.11582 1.18522,3.62102 -8.29615,24.13953 -11.85178,49.48601 -4.74059,12.06978 -13.03682,14.4837 -8.29622,8.4488 -5.9258,6.0349 -2.3703,1.20697 3.5555,-10.86272 15.40707,-33.79534 14.22207,-31.38144 16.59233,-35.00244 z"
       style="fill:#0a0a0a;stroke-width:1.19602"
       id="path9" /><path
       d="m 191.63239,392.12512 4.74061,2.41396 7.11105,8.44886 10.6665,8.4488 4.74067,4.82792 -15.40717,4.82795 -9.48135,6.03488 -4.74067,4.82792 h -2.37038 v -9.65586 l 1.18522,-3.62092 2.37032,-20.51859 z"
       style="fill:#f7f7f7;stroke-width:1.19602"
       id="path11" /><path
       d="m 376.51851,646.79724 h 29.62921 l 10.66647,2.41396 v 2.41395 l -16.59228,4.82787 -14.22204,2.41396 h -17.77754 l -5.92583,-6.0348 1.18521,-3.62098 z"
       style="fill:#ffffff;fill-opacity:1;stroke-width:1.19602"
       id="path12" /><path
       d="m 435.77693,387.29718 5.92585,1.20702 9.48128,4.82786 v 1.20702 l -24.88851,3.62096 -23.70328,9.65578 -13.03687,4.82798 -1.18512,-2.41401 7.11097,-4.82793 h 2.37032 v -2.41392 l 15.40711,-9.65588 13.03687,-4.82786 z"
       style="fill:#f3f3f3;stroke-width:1.19602"
       id="path13" /><path
       d="m 369.40754,674.55769 24.8885,2.41388 7.11101,3.62102 3.55556,4.82786 -1.18514,6.0349 -7.11101,4.82799 -5.92593,-1.2071 -9.48129,-8.44877 -4.74073,-4.82795 -7.11097,-4.82795 z"
       style="fill:#000000;fill-opacity:1;stroke-width:1.19602"
       id="path14" /><path
       d="m 513.99806,919.57401 9.48131,1.20689 v 1.2071 l -11.85165,2.41391 -13.0369,10.86277 -7.11105,4.82796 -3.55544,1.20692 h -20.1479 l -1.18512,-4.8279 42.66604,-14.48366 z"
       style="fill:#161616;stroke-width:1.19602"
       id="path15" /><path
       d="m 444.07307,394.53908 h 10.66658 v 3.62096 l -29.62923,7.24182 -15.40723,3.62099 -16.59228,7.24181 -9.48135,2.41397 -4.7407,-1.20701 20.14786,-9.6558 24.88853,-9.65578 11.85168,-2.41397 z"
       style="fill:#171717;stroke-width:1.19602"
       id="path16" /><path
       d="m 376.51851,762.66703 2.37035,1.20689 5.92587,22.93257 v 10.86277 l -3.55549,12.06981 -7.11104,9.65583 h -3.55552 l 4.7407,-6.03489 2.3703,-10.86276 v -28.96752 z"
       style="fill:#ffffff;fill-opacity:1;stroke-width:1.19602"
       id="path18" /><path
       d="m 407.3329,915.95311 8.2962,2.41391 15.40717,9.65583 9.48136,6.0349 v 1.20693 H 428.666 l -5.92596,-3.62097 -8.29615,-8.44881 -4.7407,-2.414 v -2.41388 h -2.37029 z"
       style="fill:#121212;stroke-width:1.19602"
       id="path52" /><path
       d="m 478.44299,471.78564 1.18521,2.41398 -4.74072,1.20693 v 4.82788 h -2.37031 v -2.41392 l -13.03689,3.62094 -2.37029,6.03485 h -1.18526 v -6.03485 h -4.74067 v -2.414 l 23.70342,-6.03493 z"
       style="fill:#232424;stroke-width:1.19602"
       id="path74" /><path
       d="m 619.47791,915.95311 3.5555,1.2069 v 2.414 l -7.11101,1.20689 -23.70335,1.2071 -18.96266,-1.2071 v -1.20689 l 39.11046,-2.414 z"
       style="fill:#000000;fill-opacity:1;stroke-width:1.19602"
       id="path75" /><path
       d="m 413.25868,651.62515 1.18521,2.41396 -26.07361,7.24182 -17.7776,-1.20688 v -1.20707 l 21.33301,-2.41396 16.59238,-3.62084 z"
       style="fill:#000000;fill-opacity:1;stroke-width:1.19602"
       id="path81" /><path
       d="m 402.59227,644.38329 16.5923,1.20707 5.92585,2.41387 -1.18517,3.62092 -2.37034,1.20703 h -7.11102 l 2.3703,-1.20703 v -2.41395 l -10.66647,-1.20697 -3.55545,-1.20699 z"
       style="fill:#181818;stroke-width:1.19602"
       id="path82" /><path
       d="m 329.11183,489.8903 2.37031,3.62085 4.74074,18.10474 -1.18522,19.31158 h -1.18515 l -1.18516,-16.89761 -3.55552,-19.31165 z"
       style="fill:#000000;fill-opacity:1;stroke-width:1.19602"
       id="path90" /><path
       d="m 551.92335,501.95999 h 1.18512 v 6.03493 h 2.37039 l 1.18516,-2.4139 -1.18516,14.48368 -2.37039,-2.41394 -2.3703,2.41394 z"
       style="fill:#000000;fill-opacity:1;stroke-width:1.19602"
       id="path100" /><path
       d="m 561.40466,771.11582 1.18522,3.62102 -5.92586,18.10455 -3.55555,-1.20699 2.37039,-7.24178 z"
       style="fill:#242424;stroke-width:1.19602"
       id="path106" /><path
       d="m 247.33522,511.61589 h 14.22201 l -1.18514,2.41397 -9.48134,1.2069 z"
       style="fill:#000000;fill-opacity:1;stroke-width:1.19602"
       id="path110" /><path
       d="m 478.44299,471.78564 1.18521,2.41398 -4.74072,1.20693 v 4.82788 h -2.37031 v -2.41392 l -5.92586,-1.20697 4.74066,-2.41392 z"
       style="fill:#000000;fill-opacity:1;stroke-width:1.19602"
       id="path113" /><path
       d="m 290.00128,488.68328 4.74067,1.20702 1.18516,3.62085 -7.11097,2.41404 z"
       style="fill:#000000;fill-opacity:1;stroke-width:1.19602"
       id="path117" /><path
       d="m 619.47791,915.95311 3.5555,1.2069 v 2.414 h -13.03686 l 2.3703,-2.414 z"
       style="fill:#000000;fill-opacity:1;stroke-width:1.19602"
       id="path118" /><path
       d="m 451.18406,479.02745 10.66652,1.20698 -2.3703,1.20702 -2.37029,6.03485 h -1.18526 v -6.03485 h -4.74067 z"
       style="fill:#000000;fill-opacity:1;stroke-width:1.19602"
       id="path123" /><path
       d="m 407.3329,915.95311 8.2962,2.41391 -2.37042,1.20699 -1.18508,2.41399 -2.37041,-1.2071 v -2.41388 h -2.37029 z"
       style="fill:#3b3b3b;stroke-width:1.19602"
       id="path132" /><path
       d="m 336.22288,475.40655 h 1.1851 v 6.0349 h 2.37036 l -2.37036,6.03485 h -1.1851 z"
       style="fill:#353636;stroke-width:1.19602"
       id="path133" /><path
       d="m 554.29373,790.42743 1.18513,4.82797 -4.74069,2.41386 1.18518,-6.03486 z"
       style="fill:#111111;stroke-width:1.19602"
       id="path134" /><path
       d="m 719.03204,367.98555 2.37037,2.414 -5.92592,4.8279 2.37037,-6.03488 z"
       style="fill:#111111;stroke-width:1.19602"
       id="path140" /><path
       d="M 656.1953,386.19373 Z"
       style="fill:#151515;stroke-width:1.02688"
       id="path145" /><path
       d="M 190.15175,547.85446 Z"
       style="fill:#555555;stroke-width:1.02688"
       id="path146" /></g><g
     id="g1"
     clip-path="url(#clipPath29)"
     transform="matrix(1.1178316,0,0,1.1384014,-41.899412,-69.814312)"
     style="display:inline"><circle
       style="fill:#ffffff;fill-opacity:1;stroke:none;stroke-width:5.51812"
       id="path157"
       cx="355.54214"
       cy="210.27905"
       r="12.8" /><circle
       style="display:block;fill:#ffffff;fill-opacity:1;stroke:none;stroke-width:5.51812"
       id="path157-9"
       cx="356.28375"
       cy="241.07828"
       r="12.8" /><circle
       style="display:block;fill:#ffffff;fill-opacity:1;stroke:none;stroke-width:5.51812"
       id="path157-5"
       cx="357.07263"
       cy="273.55508"
       r="12.8" /><circle
       style="display:block;fill:#ffffff;fill-opacity:1;stroke:none;stroke-width:5.51812"
       id="path157-3"
       cx="357.34988"
       cy="303.57437"
       r="12.8" /><circle
       style="display:block;fill:#ffffff;fill-opacity:1;stroke:none;stroke-width:5.51812"
       id="path157-37"
       cx="384.4761"
       cy="227.98595"
       r="12.8" /><circle
       style="display:block;fill:#ffffff;fill-opacity:1;stroke:none;stroke-width:5.51812"
       id="path157-38"
       cx="384.27048"
       cy="258.15564"
       r="12.8" /><circle
       style="display:block;fill:#ffffff;fill-opacity:1;stroke:none;stroke-width:5.51812"
       id="path157-8"
       cx="386.23108"
       cy="288.5549"
       r="12.8" /><circle
       style="display:block;fill:#ffffff;fill-opacity:1;stroke:none;stroke-width:5.51812"
       id="path157-0"
       cx="412.76062"
       cy="243.18732"
       r="12.8" /><circle
       style="display:block;fill:#ffffff;fill-opacity:1;stroke:none;stroke-width:5.51812"
       id="path157-81"
       cx="415.0571"
       cy="273.35699"
       r="12.8" /><circle
       style="display:block;fill:#ffffff;fill-opacity:1;stroke:none;stroke-width:5.51812"
       id="path157-89"
       cx="415.49582"
       cy="306.18301"
       r="12.8" /><circle
       style="display:block;fill:#ffffff;fill-opacity:1;stroke:none;stroke-width:5.51812"
       id="path157-2"
       cx="437.97397"
       cy="224.44867"
       r="12.8" /><circle
       style="display:block;fill:#ffffff;fill-opacity:1;stroke:none;stroke-width:5.51812"
       id="path157-82"
       cx="440.03738"
       cy="258.0802"
       r="12.8" /><circle
       style="display:block;fill:#ffffff;fill-opacity:1;stroke:none;stroke-width:5.51812"
       id="path157-90"
       cx="441.50781"
       cy="288.91827"
       r="12.8" /><circle
       style="display:block;fill:#ffffff;fill-opacity:1;stroke:none;stroke-width:5.51812"
       id="path157-815"
       cx="443.65009"
       cy="320.09219"
       r="12.8" /><circle
       style="display:block;fill:#ffffff;fill-opacity:1;stroke:none;stroke-width:5.51812"
       id="path157-6"
       cx="325.19247"
       cy="197.40152"
       r="12.8" /><circle
       style="display:block;fill:#ffffff;fill-opacity:1;stroke:none;stroke-width:5.51812"
       id="path157-24"
       cx="326.90286"
       cy="228.4007"
       r="12.8" /><circle
       style="display:block;fill:#ffffff;fill-opacity:1;stroke:none;stroke-width:5.51812"
       id="path157-58"
       cx="328.11621"
       cy="259.91055"
       r="12.8" /><circle
       style="display:block;fill:#ffffff;fill-opacity:1;stroke:none;stroke-width:5.51812"
       id="path157-26"
       cx="328.37329"
       cy="291.03308"
       r="12.8" /><circle
       style="display:block;fill:#ffffff;fill-opacity:1;stroke:none;stroke-width:5.51812"
       id="path157-39"
       cx="468.06482"
       cy="303.78024"
       r="12.8" /><circle
       style="display:block;fill:#ffffff;fill-opacity:1;stroke:none;stroke-width:5.51812"
       id="path157-39-2"
       cx="523.78003"
       cy="336.10699"
       r="12.8" /><circle
       style="display:block;fill:#ffffff;fill-opacity:1;stroke:none;stroke-width:5.51812"
       id="path157-39-9"
       cx="387.23108"
       cy="320.18463"
       r="12.8" /><circle
       style="display:block;fill:#ffffff;fill-opacity:1;stroke:none;stroke-width:5.51812"
       id="path157-391-11"
       cx="389.97495"
       cy="350.51611"
       r="12.8" /><circle
       style="display:block;fill:#ffffff;fill-opacity:1;stroke:none;stroke-width:5.51812"
       id="path157-391-11-4"
       cx="359.4794"
       cy="334.83078"
       r="12.8" /><circle
       style="display:block;fill:#ffffff;fill-opacity:1;stroke:none;stroke-width:5.51812"
       id="path157-391-11-2"
       cx="416.15512"
       cy="335.53439"
       r="12.8" /><circle
       style="display:block;fill:#ffffff;fill-opacity:1;stroke:none;stroke-width:5.51812"
       id="path157-391-11-5"
       cx="328.9285"
       cy="321.85294"
       r="12.8" /><circle
       style="display:block;fill:#ffffff;fill-opacity:1;stroke:none;stroke-width:5.51812"
       id="path157-391-11-1"
       cx="302.26712"
       cy="308.70441"
       r="12.8" /><circle
       style="display:block;fill:#ffffff;fill-opacity:1;stroke:none;stroke-width:5.51812"
       id="path157-391-11-27"
       cx="304.43805"
       cy="343.73001"
       r="12.8" /><circle
       style="display:block;fill:#ffffff;fill-opacity:1;stroke:none;stroke-width:5.51812"
       id="path157-391-11-42"
       cx="333.82843"
       cy="355.99335"
       r="12.8" /><circle
       style="display:block;fill:#ffffff;fill-opacity:1;stroke:none;stroke-width:5.51812"
       id="path157-391-11-21"
       cx="270.72733"
       cy="231.78543"
       r="12.8" /><circle
       style="display:block;fill:#ffffff;fill-opacity:1;stroke:none;stroke-width:5.51812"
       id="path157-391-27"
       cx="445.48645"
       cy="351.28183"
       r="12.8" /><circle
       style="display:block;fill:#ffffff;fill-opacity:1;stroke:none;stroke-width:5.51812"
       id="path157-391-14"
       cx="525.19592"
       cy="367.07059"
       r="12.8" /><circle
       style="display:block;fill:#ffffff;fill-opacity:1;stroke:none;stroke-width:5.51812"
       id="path157-391-3"
       cx="580.23224"
       cy="303.03119"
       r="12.8" /><circle
       style="display:block;fill:#ffffff;fill-opacity:1;stroke:none;stroke-width:5.51812"
       id="path157-391-21"
       cx="578.04095"
       cy="270.33145"
       r="12.8" /><circle
       style="display:block;fill:#ffffff;fill-opacity:1;stroke:none;stroke-width:5.51812"
       id="path157-39-9-6"
       cx="470.8988"
       cy="335.61322"
       r="12.8" /><circle
       style="display:block;fill:#ffffff;fill-opacity:1;stroke:none;stroke-width:5.51812"
       id="path157-29"
       cx="522.11328"
       cy="303.66571"
       r="12.8" /><circle
       style="display:block;fill:#ffffff;fill-opacity:1;stroke:none;stroke-width:5.51812"
       id="path157-20"
       cx="495.01135"
       cy="289.50562"
       r="12.8" /><circle
       style="display:block;fill:#ffffff;fill-opacity:1;stroke:none;stroke-width:5.51812"
       id="path157-391"
       cx="521.45105"
       cy="271.15134"
       r="12.8" /><circle
       style="display:block;fill:#ffffff;fill-opacity:1;stroke:none;stroke-width:5.51812"
       id="path157-391-9"
       cx="518.76056"
       cy="240.23102"
       r="12.8" /><circle
       style="display:block;fill:#ffffff;fill-opacity:1;stroke:none;stroke-width:5.51812"
       id="path157-391-8"
       cx="546.24652"
       cy="220.61838"
       r="12.8" /><circle
       style="display:block;fill:#ffffff;fill-opacity:1;stroke:none;stroke-width:5.51812"
       id="path157-391-8-6"
       cx="519.05939"
       cy="204.26109"
       r="12.8" /><circle
       style="display:block;fill:#ffffff;fill-opacity:1;stroke:none;stroke-width:5.51812"
       id="path157-391-8-9"
       cx="571.9964"
       cy="200.04578"
       r="12.8" /><circle
       style="display:block;fill:#ffffff;fill-opacity:1;stroke:none;stroke-width:5.51812"
       id="path157-391-8-95"
       cx="411.74438"
       cy="210.85938"
       r="12.8" /><circle
       style="display:block;fill:#ffffff;fill-opacity:1;stroke:none;stroke-width:5.51812"
       id="path157-391-8-1"
       cx="271.48581"
       cy="262.2486"
       r="12.8" /><circle
       style="display:block;fill:#ffffff;fill-opacity:1;stroke:none;stroke-width:5.51812"
       id="path157-391-8-3"
       cx="301.23425"
       cy="245.69489"
       r="12.8" /><circle
       style="display:block;fill:#ffffff;fill-opacity:1;stroke:none;stroke-width:5.51812"
       id="path157-391-85"
       cx="549.42047"
       cy="255.34782"
       r="12.8" /><circle
       style="display:block;fill:#ffffff;fill-opacity:1;stroke:none;stroke-width:5.51812"
       id="path157-391-5"
       cx="576.10028"
       cy="239.70433"
       r="12.8" /><circle
       style="display:block;fill:#ffffff;fill-opacity:1;stroke:none;stroke-width:5.51812"
       id="path157-391-2"
       cx="550.06476"
       cy="288.15552"
       r="12.8" /><circle
       style="display:block;fill:#ffffff;fill-opacity:1;stroke:none;stroke-width:5.51812"
       id="path157-391-1"
       cx="552.79999"
       cy="322.73657"
       r="12.8" /><circle
       style="display:block;fill:#ffffff;fill-opacity:1;stroke:none;stroke-width:5.51812"
       id="path157-19"
       cx="297.60236"
       cy="214.76158"
       r="12.8" /><circle
       style="display:block;fill:#ffffff;fill-opacity:1;stroke:none;stroke-width:5.51812"
       id="path157-32"
       cx="274.33591"
       cy="292.81546"
       r="12.8" /><circle
       style="display:block;fill:#ffffff;fill-opacity:1;stroke:none;stroke-width:5.51812"
       id="path157-25"
       cx="301.11871"
       cy="274.84747"
       r="12.8" /><circle
       style="display:block;fill:#ffffff;fill-opacity:1;stroke:none;stroke-width:5.51812"
       id="path157-67"
       cx="495.89008"
       cy="321.28546"
       r="12.8" /><circle
       style="display:block;fill:#ffffff;fill-opacity:1;stroke:none;stroke-width:5.51812"
       id="path157-4"
       cx="467.90707"
       cy="273.30212"
       r="12.8" /><circle
       style="display:block;fill:#ffffff;fill-opacity:1;stroke:none;stroke-width:5.51812"
       id="path157-1"
       cx="466.53949"
       cy="241.79228"
       r="12.8" /><circle
       style="display:block;fill:#ffffff;fill-opacity:1;stroke:none;stroke-width:5.51812"
       id="path157-21"
       cx="491.98593"
       cy="220.86342"
       r="12.8" /><circle
       style="display:block;fill:#ffffff;fill-opacity:1;stroke:none;stroke-width:5.51812"
       id="path157-97"
       cx="493.68948"
       cy="258.00137"
       r="12.8" /></g><g
     id="g37"><path
       style="opacity:1;fill:#ffffff;fill-opacity:1;stroke-width:5.51812"
       d="m 139.51671,221.55956 -28.51757,96.52099 0.87747,125.47729 5.26478,34.22108 -1.75493,-57.47388 1.75493,-29.39502 -5.26478,-39.48586 16.23307,-75.02313 4.82605,32.90488 z"
       id="path36" /><path
       style="opacity:1;fill:#ffffff;fill-opacity:1;stroke-width:5.51812"
       d="m 146.53642,240.86375 c 0,0 -0.0606,-47.1741 8.77464,-68.88089 7.39897,-18.17801 20.61494,-32.91591 34.22107,-47.38303 15.85592,-16.85926 54.40275,-45.189374 54.40275,-45.189374 l 27.6401,-15.355616 -29.83376,25.885176 c 0,0 -6.60872,12.705094 -8.77464,20.181664 -2.78621,9.61772 -4.82605,30.71122 -4.82605,30.71122 0,0 11.06596,-37.32491 21.93659,-53.08654 5.81509,-8.431454 22.37532,-21.059128 22.37532,-21.059128 0,0 9.4615,-0.915414 14.47815,-3.071124 7.93203,-3.408475 11.27967,-9.90845 18.86547,-13.600685 10.93625,-5.323001 36.85347,-11.845757 36.85347,-11.845757 l -39.48586,7.897172 -62.29992,32.027422 c 0,0 -33.3865,20.959624 -49.13796,35.97601 -14.2996,13.63229 -31.88603,29.9235 -40.80205,48.69922 -3.45715,7.2802 -7.01971,25.88518 -7.01971,25.88518 l 0.43873,17.54927 z"
       id="path37" /></g></svg>
