<svg version="1.1" xmlns="http://www.w3.org/2000/svg" style="display: block;" viewBox="0 0 2048 1493" width="709" height="517" preserveAspectRatio="none">
<path transform="translate(0,0)" fill="rgb(0,0,0)" d="M 1214.52 47.7783 C 1219.34 45.1334 1225.24 41.6805 1230.16 39.4855 C 1279.96 121.928 1337.68 199.722 1389.1 281.276 C 1412.05 318 1432.65 356.456 1455.34 393.304 C 1461.99 404.104 1481.1 416.305 1490.66 425.261 C 1521.33 453.995 1543.43 488.448 1567.97 522.249 C 1575.89 533.156 1586.51 545.674 1593.39 557.111 C 1651.79 654.326 1688.83 762.858 1702.05 875.492 C 1705.94 910.518 1707.17 935.61 1704.21 971.17 C 1703.88 984.632 1697.29 1000.51 1695.67 1013.14 C 1694.83 1029.75 1678.34 1038.47 1673.96 1051.44 C 1667.15 1071.56 1663.16 1095.26 1653.22 1114.53 C 1643.06 1134.2 1630.91 1156.57 1619.15 1175.37 C 1608.73 1192.03 1592.7 1208.34 1580.48 1223.84 C 1570.33 1235.12 1556.03 1253.29 1545.67 1263.28 C 1506.47 1301.13 1463.59 1335.58 1416.59 1363.28 C 1394.33 1376.4 1369.76 1387.56 1347.01 1400.17 C 1349.14 1403.63 1351.07 1406.94 1353.64 1410.09 C 1369.35 1409.72 1384.38 1408.07 1399.64 1407.64 C 1399.7 1418.82 1400.13 1432.84 1399.35 1443.77 C 1415.35 1442.23 1439.99 1440.42 1455.35 1437.75 C 1449.59 1446.59 1441.51 1463.19 1436.43 1470.07 C 1455.76 1474.35 1475.6 1478.57 1494.77 1483.4 C 1490 1486.13 1482.95 1489.89 1478.66 1493 L 1323.8 1493 L 1062.38 1493 L 375.771 1493 C 360.046 1480.87 344.514 1468.5 329.179 1455.88 C 319.893 1448.35 307.19 1437.25 297.229 1431.61 C 348.652 1433.79 406.636 1441.37 456.841 1431.9 C 470.777 1429.27 484.679 1424.57 498.316 1420.68 C 520.492 1414.5 542.583 1408.02 564.583 1401.24 C 578.138 1396.93 596.44 1390.42 609.782 1387.56 C 578.897 1371.4 544.243 1359.67 513.199 1343.48 C 504.031 1338.69 495.874 1331.59 487.384 1325.96 C 454.004 1303.85 427.069 1274.16 397.414 1247.58 C 390.4 1241.29 374.178 1236.04 369.95 1228.07 C 339.948 1171.58 316.277 1112.55 297.584 1051.36 C 292.062 1033.28 288.526 1014.97 284.186 996.604 C 269.923 939.919 260.351 879.752 262.04 821.178 C 262.983 788.443 271.782 748.986 272.984 716.47 L 142.804 617.029 C 117.372 597.971 91.6513 579.008 66.3423 559.796 C 51.9797 548.893 36.1825 528.887 22.1535 517.91 C 40.8411 510.897 61.5252 506.344 80.3775 500.189 C 135.275 482.268 189.339 469.762 246.369 461.035 C 268.438 457.658 291.301 452.127 313.636 449.792 C 349.449 446.621 386.859 445.474 422.8 442.463 C 436.598 441.307 455.815 440.886 469.03 438.8 C 478.052 430.23 489.161 419.318 498.954 411.544 C 563.722 360.128 639.08 329.748 717.101 304.812 C 729.038 300.997 754.065 294.763 766.322 291.963 C 790.031 286.548 824.727 275.807 847.826 272.391 C 918.345 261.963 987.534 255.937 1058.87 259.301 C 1083.81 260.477 1118.02 264.818 1143.03 268.188 C 1145.95 264.792 1154.41 255.328 1155.46 251.514 C 1172.17 191.064 1189.25 130.301 1210.18 71.142 C 1212.65 64.183 1213.45 55.1545 1214.52 47.7783 z"/>
<path transform="translate(0,0)" fill="rgb(254,254,254)" d="M 1009.84 1474.66 C 1032.67 1477.67 1057.72 1475.67 1080.42 1477.1 C 1156.49 1481.93 1230.5 1473.57 1304.18 1454.45 C 1320.46 1450.22 1338.02 1448.19 1354.38 1444.2 C 1346.93 1458.18 1335.9 1486.46 1323.8 1493 L 1062.38 1493 C 1047.75 1487.75 1022.84 1480.38 1009.84 1474.66 z"/>
<path transform="translate(0,0)" fill="rgb(254,254,254)" d="M 727.883 599.398 C 729.988 599.183 732.105 599.093 734.222 599.128 C 869.488 601.375 958.052 736.151 998.441 850.588 C 1029.57 938.778 1051.78 1021.39 1046.05 1115.81 C 1041.08 1197.82 993.548 1243.07 911.388 1239.75 C 877.617 1237.84 818.635 1216.51 792.932 1194.56 C 741.938 1151.01 696.671 1083.66 660.87 1026.33 C 626.476 971.247 606.025 890.724 594.873 827.34 C 589.403 796.248 591.515 751.111 598.195 719.992 C 604.723 696.691 622.327 659.63 636.016 640.069 C 652.088 617.103 700.831 602.816 727.883 599.398 z"/>
<path transform="translate(0,0)" fill="rgb(0,0,0)" d="M 753.655 702.329 C 860.998 695.5 950.064 864.665 966.26 952.811 C 977.1 1011.81 983.282 1114.85 906.081 1129.79 C 876.852 1133.43 848.451 1120.69 825.241 1103.5 C 752.046 1048.03 704.109 953.275 688.861 864.101 C 679.361 808.547 682.879 712.913 753.655 702.329 z"/>
<path transform="translate(0,0)" fill="rgb(254,254,254)" d="M 768.103 737.186 C 823.93 734.341 869.676 793.033 896.061 835.919 C 918.092 871.729 934.605 913.508 943.646 954.553 C 953.676 1000.08 959.894 1089.13 900.056 1101.76 C 819.534 1107.5 751.036 978.403 732.195 913.745 C 718.122 865.448 698.66 752.132 768.103 737.186 z"/>
<path transform="translate(0,0)" fill="rgb(0,0,0)" d="M 774.63 801.181 C 776.085 801.058 777.544 800.991 779.004 800.98 C 812.67 800.461 831.377 834.109 845.922 858.939 C 871.314 902.283 890.74 949.273 898.502 999.158 C 900.451 1011.68 902.987 1023.23 903.078 1035.97 C 898.237 1041.55 895.347 1043.65 889.196 1047.55 C 883.516 1049.31 878.166 1050.5 872.209 1049.43 C 851.489 1045.74 835.311 1023.97 824.117 1007.67 C 797.952 969.563 755.184 859.891 763.88 815.655 C 765.258 808.644 768.929 804.985 774.63 801.181 z"/>
<path transform="translate(0,0)" fill="rgb(254,254,254)" d="M 1638.73 1079.94 L 1639.54 1080.71 C 1638.84 1091.87 1628.48 1117.35 1624.18 1128.33 C 1605.28 1176.66 1574.91 1212.42 1539.36 1249.05 C 1505.92 1283.5 1472.95 1313.42 1431.24 1337.9 C 1398.44 1359.92 1362.42 1375.37 1327.34 1392.79 C 1281.1 1415.74 1232.13 1424.76 1182.1 1436.12 C 1160.83 1440.95 1134.12 1448.31 1112.83 1450.5 C 1065.23 1455.41 1017.4 1452.93 969.815 1449.52 C 888.912 1445.94 813.112 1434.53 743.227 1390.65 C 732.145 1383.69 717.423 1377.74 705.754 1370.79 C 692.29 1362.77 682.52 1350.38 666.716 1346.84 L 665.51 1346.58 C 654.762 1344.19 641.171 1340.78 630.463 1339.96 C 638.316 1334.33 644.334 1330.32 652.608 1325.34 L 593.761 1305.08 C 599.373 1304.33 611.416 1304.59 614.201 1299.92 C 613.503 1296.31 610.159 1294.05 607.243 1291.38 C 615.891 1292.56 627.505 1294.5 636.048 1296.2 C 662.644 1301.47 688.456 1300.21 715.443 1301.77 C 738.332 1303.1 762.981 1306.08 785.739 1306.49 C 912.61 1308.81 1041.53 1293.71 1165.66 1267.64 C 1193.42 1261.81 1223.01 1256.12 1250.51 1249.42 C 1271.56 1244.28 1294.67 1236.73 1315.87 1230.93 C 1371.41 1215.71 1430.52 1197.37 1483.36 1174.54 C 1540.08 1150.04 1588.75 1115.4 1638.73 1079.94 z"/>
<path transform="translate(0,0)" fill="rgb(0,0,0)" d="M 1504.62 1234.81 C 1511.78 1245.44 1486.14 1274.1 1478.68 1279.94 C 1452.99 1300.06 1406.82 1321.91 1374.53 1310.84 C 1352.38 1355.32 1257.27 1382.64 1215.6 1356.15 C 1207.2 1350.81 1195.89 1341.37 1187.73 1335.04 C 1187.22 1333.71 1187.4 1334.39 1187.99 1332.55 C 1192.9 1330.88 1255.3 1357.87 1274.47 1354.31 C 1305.13 1348.61 1320.09 1339.54 1343.4 1317.32 C 1352.03 1309.09 1360.11 1303.45 1366.91 1292.95 C 1367.67 1291.76 1372.83 1286.99 1373.79 1287.14 C 1387.9 1289.32 1399.87 1299.48 1415.34 1297.08 C 1461.6 1290.4 1478.38 1266.46 1504.62 1234.81 z"/>
<path transform="translate(0,0)" fill="rgb(254,254,254)" d="M 1419.7 477.742 C 1425.41 477.107 1443.1 481.948 1448.53 484.933 C 1498.3 514.417 1540.52 583.966 1564.04 636.392 C 1594.03 708.527 1617.05 786.692 1624.52 864.686 C 1628.72 908.547 1629.18 960.426 1610.84 1000.52 C 1604.84 1004.49 1601.18 1006.47 1594.71 1009.68 C 1592.67 1009.37 1586.16 1008.38 1584.49 1007.83 C 1550.84 996.743 1522.37 941.457 1505.9 913.126 L 1499.68 901.891 C 1514.01 915.094 1524.31 922.622 1542.99 927.821 C 1565.31 919.013 1577.34 906.907 1578.56 882.088 C 1582.04 810.41 1560.02 737.353 1529.97 672.952 C 1513.07 636.747 1497.64 601.551 1452.29 598.395 C 1445.89 600.829 1442.68 602.455 1437.95 607.558 C 1433.61 612.192 1430.55 617.865 1429.04 624.028 C 1426.5 634.906 1429.74 685.589 1430.29 698.961 C 1427.08 688.692 1423.88 671.035 1421.21 659.976 C 1408.19 606.209 1401.12 555.104 1399.91 499.774 C 1406.24 488.935 1409.28 484.609 1419.7 477.742 z"/>
<path transform="translate(0,0)" fill="rgb(254,254,254)" d="M 176.575 532.416 C 183.959 531.157 208.949 533.677 217.327 534.437 L 290.937 541.63 C 332.081 545.435 373.185 549.663 414.243 554.315 C 429.422 556.082 452.715 558.487 467.344 561.689 C 475.773 563.534 499.783 579.848 509.766 585.471 C 484.058 603.448 458.296 622.047 432.705 640.018 C 405.594 659.057 356.102 653.986 325.453 648.214 C 336.746 641.164 351.223 631.928 362.822 625.912 C 349.982 622.202 334.251 618.921 321.147 615.931 C 332.277 611.989 349.165 606.564 359.53 601.872 C 371.288 604.711 381.384 607.902 392.939 611.585 C 371.258 592.602 333.167 562.49 303.248 561.577 C 296.105 560.959 290.943 560.074 283.97 558.793 C 296.481 568.852 314.42 581.132 327.737 590.913 C 305.408 599.176 282.216 609.352 259.859 616.826 C 274.46 621.71 290.26 626.344 305.043 630.928 C 299.183 637.772 292.784 646.486 287.198 653.75 C 317.149 667.726 339.386 676.878 370.742 687.378 C 365.641 691.546 359.754 697.105 354.76 701.568 C 344.998 695.882 337.59 692.308 327.299 687.543 C 331.122 695.098 332.918 698.915 335.791 707.029 L 319.048 708.066 C 312.874 698.921 298.302 673.942 292.054 667.404 C 249.596 622.973 192.574 588.97 138.384 560.672 C 126.215 554.317 111.707 546.419 99.3581 541.524 C 116.469 538.052 158.396 534.144 176.575 532.416 z"/>
<path transform="translate(0,0)" fill="rgb(254,254,254)" d="M 1478.8 633.37 L 1481.37 633.401 C 1485.19 635.452 1491.46 639.698 1493.92 643.478 C 1534.93 706.59 1563.72 789.085 1561.24 865.039 C 1560.7 881.738 1555.57 894.475 1540.26 900.446 C 1524.84 893.715 1517.28 887.008 1509.77 872.638 C 1504.53 863.835 1500.36 858.164 1494.18 849.934 C 1498.46 848.944 1500.58 848.003 1504.54 846.355 C 1513.2 861.345 1520.15 876.975 1540.52 870.309 C 1545.35 823.655 1528.31 772.444 1511.15 729.7 C 1501.4 705.409 1493.48 680.554 1479.53 658.159 C 1476.1 652.657 1469.39 642.283 1470.28 635.991 C 1472.47 633.986 1475.74 633.879 1478.8 633.37 z"/>
<path transform="translate(0,0)" fill="rgb(254,254,254)" d="M 859.286 338.141 C 864.442 336.744 869.95 338.239 873.691 342.051 C 877.432 345.864 878.822 351.399 877.327 356.527 C 875.833 361.655 871.685 365.576 866.482 366.781 C 858.64 368.597 850.788 363.799 848.827 355.993 C 846.866 348.186 851.517 340.247 859.286 338.141 z"/>
<path transform="translate(0,0)" fill="rgb(254,254,254)" d="M 729.672 424.647 C 734.926 423.369 740.459 425.066 744.092 429.072 C 747.724 433.078 748.875 438.75 747.09 443.854 C 745.306 448.959 740.872 452.678 735.535 453.548 C 731.015 454.285 726.41 452.881 723.069 449.749 C 719.728 446.617 718.031 442.112 718.475 437.554 C 719.083 431.309 723.575 426.131 729.672 424.647 z"/>
<path transform="translate(0,0)" fill="rgb(254,254,254)" d="M 686.204 424.668 C 694.08 422.682 702.08 427.436 704.101 435.304 C 706.121 443.171 701.402 451.192 693.544 453.247 C 688.878 454.467 683.911 453.329 680.241 450.201 C 676.571 447.073 674.662 442.349 675.127 437.549 C 675.729 431.347 680.162 426.192 686.204 424.668 z"/>
<path transform="translate(0,0)" fill="rgb(254,254,254)" d="M 556.349 424.656 C 560.747 423.587 565.393 424.597 568.951 427.396 C 572.509 430.195 574.584 434.473 574.579 439 C 574.573 445.698 570.054 451.55 563.575 453.25 C 555.646 455.331 547.543 450.547 545.534 442.599 C 543.526 434.652 548.383 426.592 556.349 424.656 z"/>
<path transform="translate(0,0)" fill="rgb(254,254,254)" d="M 599.776 424.625 C 605.02 423.396 610.517 425.124 614.113 429.133 C 617.71 433.142 618.834 438.794 617.044 443.874 C 615.255 448.954 610.837 452.654 605.522 453.524 C 601.09 454.249 596.569 452.915 593.242 449.899 C 589.914 446.883 588.143 442.514 588.431 438.032 C 588.847 431.552 593.454 426.108 599.776 424.625 z"/>
<path transform="translate(0,0)" fill="rgb(254,254,254)" d="M 642.973 424.672 C 648.18 423.4 653.668 425.056 657.302 428.997 C 660.936 432.937 662.143 438.54 660.455 443.628 C 658.766 448.715 654.448 452.484 649.179 453.47 C 641.334 454.938 633.747 449.892 632.066 442.09 C 630.384 434.288 635.22 426.566 642.973 424.672 z"/>
<path transform="translate(0,0)" fill="rgb(254,254,254)" d="M 771.106 338.609 C 778.719 335.651 787.286 339.455 790.197 347.087 C 793.108 354.719 789.251 363.262 781.601 366.125 C 776.711 367.956 771.216 367.059 767.161 363.769 C 763.106 360.479 761.097 355.288 761.88 350.125 C 762.672 344.912 766.19 340.519 771.106 338.609 z"/>
<path transform="translate(0,0)" fill="rgb(254,254,254)" d="M 598.339 511.646 C 603.409 509.916 609.019 511.076 612.987 514.676 C 616.955 518.276 618.654 523.747 617.424 528.961 C 616.194 534.175 612.228 538.309 607.07 539.756 C 602.538 541.027 597.672 540.055 593.977 537.14 C 590.281 534.225 588.202 529.72 588.382 525.017 C 588.615 518.929 592.573 513.614 598.339 511.646 z"/>
<path transform="translate(0,0)" fill="rgb(254,254,254)" d="M 816.161 338.226 C 822.375 336.637 828.902 339.258 832.292 344.703 C 835.683 350.148 835.154 357.162 830.986 362.037 C 829.024 364.331 826.404 365.967 823.482 366.721 C 818.116 368.106 812.428 366.358 808.765 362.2 C 806.181 359.266 804.872 355.424 805.126 351.523 C 805.539 345.169 809.993 339.803 816.161 338.226 z"/>
<path transform="translate(0,0)" fill="rgb(254,254,254)" d="M 490.307 468.318 C 495.828 466.586 501.851 468.252 505.697 472.574 C 509.543 476.896 510.497 483.072 508.136 488.354 C 506.319 492.418 502.759 495.44 498.455 496.573 C 490.729 498.608 482.791 494.102 480.578 486.426 C 478.364 478.749 482.684 470.709 490.307 468.318 z"/>
<path transform="translate(0,0)" fill="rgb(254,254,254)" d="M 663.543 468.339 C 669.214 466.524 675.421 468.308 679.262 472.858 C 683.104 477.409 683.821 483.827 681.08 489.113 C 678.952 493.216 675.02 496.08 670.462 496.846 C 662.856 498.123 655.556 493.307 653.736 485.813 C 651.917 478.318 656.198 470.691 663.543 468.339 z"/>
<path transform="translate(0,0)" fill="rgb(254,254,254)" d="M 576.579 468.48 C 581.605 466.741 587.178 467.856 591.148 471.394 C 595.118 474.932 596.865 480.341 595.714 485.533 C 594.564 490.725 590.695 494.889 585.602 496.418 C 577.949 498.717 569.863 494.473 567.407 486.868 C 564.951 479.264 569.027 471.092 576.579 468.48 z"/>
<path transform="translate(0,0)" fill="rgb(254,254,254)" d="M 1316.42 294.52 C 1324.32 293.642 1331.49 299.216 1332.58 307.092 C 1333.67 314.968 1328.3 322.283 1320.45 323.59 C 1315.19 324.469 1309.86 322.417 1306.54 318.233 C 1303.22 314.049 1302.43 308.393 1304.49 303.464 C 1306.54 298.534 1311.11 295.109 1316.42 294.52 z"/>
<path transform="translate(0,0)" fill="rgb(254,254,254)" d="M 403.129 468.503 C 408.127 466.739 413.688 467.806 417.678 471.296 C 421.668 474.785 423.467 480.154 422.385 485.343 C 421.303 490.532 417.508 494.734 412.455 496.337 C 404.815 498.762 396.643 494.61 394.096 487.009 C 391.55 479.409 395.571 471.171 403.129 468.503 z"/>
<path transform="translate(0,0)" fill="rgb(254,254,254)" d="M 620.095 468.399 C 625.121 466.747 630.647 467.929 634.558 471.492 C 638.469 475.054 640.16 480.446 638.983 485.604 C 637.806 490.762 633.945 494.888 628.875 496.402 C 621.184 498.699 613.075 494.39 610.673 486.731 C 608.272 479.072 612.469 470.904 620.095 468.399 z"/>
<path transform="translate(0,0)" fill="rgb(254,254,254)" d="M 446.743 468.414 C 451.768 466.751 457.298 467.923 461.217 471.482 C 465.135 475.04 466.833 480.432 465.661 485.593 C 464.489 490.755 460.628 494.885 455.557 496.401 C 447.873 498.7 439.767 494.402 437.357 486.751 C 434.948 479.101 439.128 470.934 446.743 468.414 z"/>
<path transform="translate(0,0)" fill="rgb(254,254,254)" d="M 970.041 294.51 C 977.959 293.792 985.009 299.514 985.934 307.411 C 986.859 315.309 981.323 322.505 973.453 323.636 C 968.175 324.395 962.902 322.23 959.679 317.982 C 956.457 313.734 955.794 308.072 957.947 303.194 C 960.1 298.317 964.731 294.992 970.041 294.51 z"/>
<path transform="translate(0,0)" fill="rgb(254,254,254)" d="M 1009.63 295.428 C 1015.17 293.39 1021.39 294.87 1025.42 299.184 C 1029.44 303.499 1030.49 309.806 1028.08 315.191 C 1026.27 319.219 1022.75 322.218 1018.48 323.357 C 1010.91 325.379 1003.09 321.089 1000.72 313.618 C 998.352 306.146 1002.28 298.134 1009.63 295.428 z"/>
<path transform="translate(0,0)" fill="rgb(254,254,254)" d="M 533.138 468.539 C 538.125 466.749 543.691 467.791 547.694 471.263 C 551.697 474.735 553.515 480.097 552.448 485.288 C 551.381 490.479 547.596 494.689 542.548 496.301 C 534.932 498.733 526.772 494.614 524.206 487.043 C 521.64 479.471 525.613 471.24 533.138 468.539 z"/>
<path transform="translate(0,0)" fill="rgb(254,254,254)" d="M 359.747 468.556 C 364.737 466.747 370.317 467.778 374.331 471.251 C 378.346 474.725 380.168 480.098 379.095 485.297 C 378.023 490.496 374.222 494.709 369.16 496.309 C 361.556 498.714 353.424 494.596 350.862 487.043 C 348.3 479.49 352.248 471.275 359.747 468.556 z"/>
<path transform="translate(0,0)" fill="rgb(254,254,254)" d="M 664.799 381.44 C 670.338 380.188 676.102 382.25 679.59 386.73 C 683.079 391.21 683.666 397.303 681.095 402.366 C 678.835 406.819 674.462 409.814 669.494 410.313 C 661.787 411.088 654.808 405.73 653.565 398.085 C 652.322 390.439 657.244 383.147 664.799 381.44 z"/>
<path transform="translate(0,0)" fill="rgb(254,254,254)" d="M 706.53 468.529 C 711.523 466.758 717.084 467.82 721.072 471.307 C 725.06 474.794 726.855 480.163 725.767 485.348 C 724.678 490.532 720.875 494.725 715.821 496.314 C 708.201 498.708 700.067 494.558 697.534 486.982 C 695.001 479.407 699.003 471.199 706.53 468.529 z"/>
<path transform="translate(0,0)" fill="rgb(254,254,254)" d="M 794.728 381.41 C 799.924 380.203 805.365 381.917 808.93 385.884 C 812.496 389.852 813.621 395.445 811.868 400.483 C 810.114 405.521 805.759 409.206 800.501 410.102 C 796.221 410.832 791.838 409.624 788.535 406.805 C 785.233 403.985 783.353 399.846 783.402 395.504 C 783.478 388.758 788.156 382.937 794.728 381.41 z"/>
<path transform="translate(0,0)" fill="rgb(254,254,254)" d="M 751.4 381.432 C 756.55 380.221 761.952 381.889 765.522 385.792 C 769.092 389.696 770.272 395.225 768.607 400.246 C 766.941 405.267 762.691 408.995 757.496 409.991 C 749.69 411.488 742.121 406.469 740.462 398.697 C 738.803 390.924 743.664 383.252 751.4 381.432 z"/>
<path transform="translate(0,0)" fill="rgb(254,254,254)" d="M 708.418 381.399 C 716.304 379.716 724.06 384.745 725.741 392.631 C 727.423 400.517 722.392 408.273 714.506 409.953 C 706.622 411.632 698.869 406.603 697.188 398.719 C 695.507 390.835 700.535 383.081 708.418 381.399 z"/>
<path transform="translate(0,0)" fill="rgb(254,254,254)" d="M 514.481 511.072 C 532.213 509.594 538.728 531.841 520.057 539.776 C 496.736 537.189 495.607 515.895 514.481 511.072 z"/>
<path transform="translate(0,0)" fill="rgb(254,254,254)" d="M 754.134 467.164 C 766.144 469.312 774.381 480.056 765.897 491.904 C 763.097 495.815 759.305 495.687 754.916 495.809 C 736.818 496.083 733.299 473.216 754.134 467.164 z"/>
<path transform="translate(0,0)" fill="rgb(254,254,254)" d="M 556.165 510.866 C 575.745 510.032 581.733 531.797 565.34 539.125 C 562.524 538.824 558.174 538.419 555.531 537.751 C 551.387 536.675 547.875 533.928 545.833 530.164 C 541.202 521.702 549.578 514.635 556.165 510.866 z"/>
<path transform="translate(0,0)" fill="rgb(254,254,254)" d="M 737.986 339.154 C 755.051 344.981 749.006 367.778 730.803 367.16 C 723.457 364.43 714.236 357.336 719.45 348.59 C 723.455 341.872 730.948 340.951 737.986 339.154 z"/>
<path transform="translate(0,0)" fill="rgb(254,254,254)" d="M 1050.19 295.577 C 1056.92 297.247 1064.94 297.278 1070.08 302.227 C 1077.49 309.355 1070.02 317.662 1064.55 322.899 C 1063.8 323.104 1063.05 323.294 1062.29 323.469 C 1053.35 325.495 1045.18 320.643 1044.03 311.25 C 1043.13 303.911 1045.92 300.87 1050.19 295.577 z"/>
<path transform="translate(0,0)" fill="rgb(254,254,254)" d="M 627.152 381.808 C 643.244 383.472 644.674 405.153 624.528 410.95 C 616.616 408.641 606.862 402.767 611.043 392.911 C 613.943 386.078 620.712 384.314 627.152 381.808 z"/>
<path transform="translate(0,0)" fill="rgb(254,254,254)" d="M 1360.81 293.986 L 1364.35 294.526 C 1370.7 298.506 1373 307.631 1375.78 314.824 C 1370.25 321.021 1369.21 322.05 1361.53 324.786 C 1360.07 324.328 1358.62 323.823 1357.2 323.271 C 1341.93 317.246 1342.72 299.707 1360.81 293.986 z"/>
<path transform="translate(0,0)" fill="rgb(254,254,254)" d="M 927.701 298.422 C 940.267 296.971 945.729 301.331 940.748 315.677 C 939.091 320.452 934.011 322.777 929.425 324.425 C 918.585 322.784 907.71 313.35 915.792 302 C 918.374 298.374 923.413 298.679 927.701 298.422 z"/>
<path transform="translate(0,0)" fill="rgb(254,254,254)" d="M 1335.79 250.652 C 1343.58 250.769 1350.48 266.172 1354.11 272.46 C 1349.21 277 1348.13 277.888 1342.16 280.761 C 1323.21 281.079 1319.12 262.519 1335.79 250.652 z"/>
<path transform="translate(0,0)" fill="rgb(254,254,254)" d="M 772.627 424.147 C 779.12 424.007 787.818 425.244 789.578 432.342 C 787.931 439.804 781.313 444.657 775.671 450.006 C 774.391 451.472 773.848 451.465 772.013 452.255 C 763.891 451.655 761.185 442.805 762.401 435.805 C 763.379 430.172 768.188 427.028 772.627 424.147 z"/>
<path transform="translate(0,0)" fill="rgb(254,254,254)" d="M 902.02 337.88 C 915.108 337.107 917.977 341.107 922.394 352.656 C 917.211 354.082 911.525 356.146 906.378 357.892 L 895.159 362.928 C 889.334 350.406 890.219 345.398 902.02 337.88 z"/>
<path transform="translate(0,0)" fill="rgb(254,254,254)" d="M 330.358 472.18 C 341.023 475.789 335.008 488.448 329.783 494.408 L 315.136 491.892 C 310.437 490.949 310.981 491.796 308.032 489.007 C 306.893 485.349 306.693 484.823 307.56 481.123 C 311.49 474.846 322.274 474.096 330.358 472.18 z"/>
<path transform="translate(0,0)" fill="rgb(254,254,254)" d="M 888.473 303.6 C 889.587 303.428 890.703 303.27 891.821 303.129 C 895.868 302.655 895.743 302.821 898.345 304.919 C 903.469 315.607 891.818 325.016 880.263 323.725 C 876.045 321.265 872.06 317.084 869.54 312.926 C 868.878 303.908 881.886 304.286 888.473 303.6 z"/>
<path transform="translate(0,0)" fill="rgb(254,254,254)" d="M 788.155 470.533 C 795.845 473.666 806.959 482.096 813.283 487.337 L 805.586 495.275 C 803.895 495.744 792.409 495.345 789.856 495.297 C 781.805 484.878 781.223 481.638 788.155 470.533 z"/>
<path transform="translate(0,0)" fill="rgb(254,254,254)" d="M 1087.06 302.619 C 1095.53 304.079 1112.45 303.075 1115.61 311.277 C 1115.04 315.424 1113.48 316.945 1111.04 320.37 C 1096.08 331.199 1086.23 318.274 1087.06 302.619 z"/>
<path transform="translate(0,0)" fill="rgb(254,254,254)" d="M 1311.2 208.648 C 1315.37 210.843 1326.84 228.755 1328.25 232.983 C 1325.86 235.662 1322.82 236.176 1319.29 237.339 C 1309.56 238.536 1305.27 229.32 1302.42 221.987 C 1305.11 215.252 1305.98 213.232 1311.2 208.648 z"/>
<path transform="translate(0,0)" fill="rgb(254,254,254)" d="M 527.133 431.041 C 537.126 434.232 529.552 457.526 511.235 452.936 L 503.035 447.265 C 511.376 439.678 516.964 436.01 527.133 431.041 z"/>
<path transform="translate(0,0)" fill="rgb(254,254,254)" d="M 838.36 381.034 C 842.557 380.826 847.401 381.765 851.082 383.859 C 855.197 390.564 843.444 396.004 838.385 399.264 C 835.68 401.213 834.825 401.696 831.788 403.078 C 828.156 402.461 829.661 403.276 827.165 400.463 C 824.558 391.155 830.412 384.557 838.36 381.034 z"/>
<path transform="translate(0,0)" fill="rgb(254,254,254)" d="M 1380.74 338.022 C 1384.82 338.022 1383.86 337.384 1386.14 339.532 C 1387.92 346.022 1386.95 355.834 1386.69 362.914 L 1377.73 360.235 C 1374.06 358.85 1369.42 357.809 1368.52 353.531 C 1366.81 345.453 1373.6 339.659 1380.74 338.022 z"/>
<path transform="translate(0,0)" fill="rgb(254,254,254)" d="M 1286.52 304.99 C 1287.74 305.041 1287.4 305.157 1288.72 306.023 C 1290.2 313.411 1287 319.33 1280.11 322.713 C 1275.76 324.848 1271.58 322.776 1267.35 321.181 C 1264.76 319.257 1261.52 316.297 1259 314.133 C 1266.92 310.967 1278.15 307.676 1286.52 304.99 z"/>
<path transform="translate(0,0)" fill="rgb(254,254,254)" d="M 851.367 308.195 C 853.122 307.871 852.915 308.079 854.809 308.436 C 858.721 317.687 846.369 326.448 835.028 322.638 C 832.592 320.676 828.508 316.378 826.122 313.994 C 834.746 312.351 842.854 310.305 851.367 308.195 z"/>
<path transform="translate(0,0)" fill="rgb(254,254,254)" d="M 645.047 511.062 C 652.463 510.587 653.473 512.349 659.29 517.167 L 641.33 526.645 C 637.429 528.703 635.334 530.857 631.903 527.559 C 629.783 518.884 637.524 513.035 645.047 511.062 z"/>
<path transform="translate(0,0)" fill="rgb(254,254,254)" d="M 702.122 350.976 L 703.491 350.847 L 704.806 351.959 C 704.711 355.709 702.808 358.863 701.178 362.353 C 695.403 366.171 692.303 368.812 685.304 366.579 C 682.43 364.921 679.11 362.687 676.256 360.88 C 684.989 357.233 693.231 354.201 702.122 350.976 z"/>
<path transform="translate(0,0)" fill="rgb(254,254,254)" d="M 468.492 511.124 C 478.252 509.716 489.15 515.631 487.493 526.103 L 485.71 526.343 C 479.324 524.07 467.58 520.921 463.892 515.826 C 464.494 512.922 465.085 513.448 468.492 511.124 z"/>
<path transform="translate(0,0)" fill="rgb(254,254,254)" d="M 1284.96 167.857 C 1289.04 170.653 1299.57 188.082 1302.6 193.237 C 1284.33 197.198 1285.56 181.4 1284.96 167.857 z"/>
<path transform="translate(0,0)" fill="rgb(254,254,254)" d="M 1335.56 337.827 C 1343.45 337.46 1355.09 341.036 1353.78 350.762 L 1351.73 350.762 C 1345.34 348.375 1333.62 346.806 1330.44 342.639 C 1331.34 339.758 1332.49 339.817 1335.56 337.827 z"/>
<path transform="translate(0,0)" fill="rgb(254,254,254)" d="M 1300.88 251.608 C 1311.13 256.347 1314.34 263.896 1309 273.884 C 1307.42 275.409 1307.31 275.346 1305.31 276.325 L 1303.69 275.012 C 1301.43 268.206 1301.39 258.945 1300.88 251.608 z"/>
<path transform="translate(0,0)" fill="rgb(254,254,254)" d="M 593.6 396.835 L 595.049 396.9 L 595.817 398.422 C 594.12 405.769 587.021 410.794 579.565 410.802 C 577.32 410.044 575.797 409.789 574.178 408.072 L 574.634 406.157 C 577.842 403.305 588.953 399.016 593.6 396.835 z"/>
<path transform="translate(0,0)" fill="rgb(254,254,254)" d="M 1129.31 312.04 C 1135.83 313.101 1147.59 316.208 1153.16 319.576 L 1153.45 321.439 C 1141.68 326.337 1135.23 323.276 1129.31 312.04 z"/>
<path transform="translate(0,0)" fill="rgb(254,254,254)" d="M 947.829 337.051 C 950.77 337.431 955.913 337.795 957.418 340.462 C 954.396 343.013 949.762 343.72 945.755 344.76 L 933.243 349.261 C 938.309 343.032 940.472 340.171 947.829 337.051 z"/>
<path transform="translate(0,0)" fill="rgb(254,254,254)" d="M 290.535 482.363 C 291.142 482.38 291.668 482.903 292.345 483.343 C 292.849 486.265 293.095 484.919 291.498 487.495 C 287.568 489.127 285.084 488.216 280.818 487.492 C 278.107 486.69 278.942 487.498 277.567 485.673 C 280.331 483.725 286.833 483.016 290.535 482.363 z"/>
<path transform="translate(0,0)" fill="rgb(254,254,254)" d="M 804.21 318.964 L 807.688 318.831 L 808.38 319.748 C 805.198 322.389 803.2 322.792 799.326 324.155 C 797.179 324.202 796.062 324.49 794.366 323.223 C 796.412 321.057 801.158 319.957 804.21 318.964 z"/>
</svg>