<?xml version="1.0" encoding="UTF-8" standalone="no"?>
<svg
   version="1.1"
   style="display:block"
   viewBox="0 0 873.81333 874.02985"
   width="256"
   height="256"
   preserveAspectRatio="none"
   id="svg71"
   xmlns="http://www.w3.org/2000/svg"
   xmlns:svg="http://www.w3.org/2000/svg">
  <defs
     id="defs71" />
  <path
     fill="#000000"
     d="m 87.187896,874.22879 c 3.8903,-52.6402 33.405234,-180.11844 44.312264,-231.15974 l 6.01052,-28.84814 c 1.19951,-5.74071 4.8876,-22.797 4.63878,-28.20603 -0.97947,-21.30442 -2.75401,-44.62021 -8.44358,-65.13794 -1.52167,-5.48982 -4.91394,-13.58209 -6.90002,-18.88056 -2.89301,-7.87115 -5.64418,-15.80184 -8.25311,-23.78355 C 101.8824,426.65061 88.452343,367.00504 91.500563,311.9648 c 0.38903,-7.02833 4.35795,-27.67023 5.98539,-35.72424 4.859637,-24.0523 11.153417,-52.25748 23.561857,-73.31059 2.80872,-4.76564 7.23191,-7.31536 8.40305,-9.19874 4.66715,-7.50332 5.28271,-21.55233 12.42141,-27.65365 4.58448,-4.02147 12.11627,-6.09748 16.09775,-10.78573 3.83965,-4.71674 6.56124,-10.54377 9.87529,-15.67427 17.74262,-27.46824 43.74159,-47.570508 72.93547,-59.657468 19.66264,-8.14118 36.86102,-16.480097 58.04534,-18.513585 2.36984,-0.227928 7.48802,-3.069792 10.08196,-3.551162 18.43355,-6.034806 37.42552,-6.256737 56.52894,-5.815893 3.48546,0.08041 7.85679,-1.111785 11.50962,-1.338777 32.39892,-1.972721 64.40314,11.592028 91.91893,28.284317 36.86061,22.364108 69.25549,57.060968 88.33013,97.097968 7.69145,16.14756 14.08208,36.68017 19.87701,53.87594 8.99227,26.53314 17.21864,53.34397 24.671,80.39675 7.10791,26.0573 14.26039,53.86616 15.50853,80.92702 8.84639,11.10084 24.9263,30.66773 35.98935,38.14214 -10.64565,-2.05645 -20.07558,-1.45984 -31.12647,-4.69378 6.73914,17.23702 16.42842,41.10137 27.03355,56.05274 7.79276,10.98389 27.55631,26.20316 39.64056,31.22947 6.79587,2.82783 10.70644,3.36363 17.02818,5.39627 -11.34266,0.47201 -19.98643,1.25445 -30.7415,-3.60177 4.34418,5.0901 8.87881,10.31627 13.07304,15.51268 3.17708,3.9377 6.0867,8.19433 9.32862,12.1618 -16.49731,2.42811 -26.2798,-1.02907 -40.15116,-11.38362 13.47422,22.89481 25.53821,46.67412 36.11903,71.18483 5.337,12.3404 9.93648,24.87641 15.30185,37.17855 11.01037,25.24637 26.47837,56.64168 31.12647,83.86967 4.12535,2.23675 8.43305,4.36294 12.00726,7.53096 9.80275,8.69186 22.87399,132.70251 29.60908,145.16198 z"
     id="path1"
     style="stroke-width:0.415118" />
  <path
     fill="#fefefe"
     d="m 324.57466,200.28032 c 0.75334,4.60107 -8.5453,17.71328 -11.82369,21.05905 7.82681,-4.59767 12.49719,-5.16664 20.13353,-11.00643 -2.62473,5.4996 -5.62959,11.2216 -9.47207,15.87371 1.68499,-0.84453 9.85908,-5.24531 10.97876,-5.04162 l 0.50938,1.6176 0.55153,0.26322 c 5.2973,-2.34178 12.81409,-4.57811 18.46395,-6.40876 -5.84194,3.36363 -8.58501,4.51986 -10.89123,11.21353 6.35335,-1.42795 18.63212,-5.94908 24.81648,-8.52432 -7.07143,-3.64089 -8.09142,-3.44911 -16.26551,-3.32324 3.49965,-1.9191 6.84895,-3.88837 10.94431,-3.95769 10.5026,-0.17732 21.78042,4.78436 29.52375,12.02276 5.79695,5.41923 11.245,15.41274 15.03156,22.7111 3.68282,7.09807 11.12991,19.99724 13.48962,27.14846 4.94474,14.98666 7.27406,34.8019 9.64714,50.57822 0.75902,5.04758 1.92043,13.46644 2.19559,18.38644 0.30798,5.51278 -0.40078,12.08016 -0.10293,18.0624 1.52938,-6.87864 3.06321,-19.44613 3.69133,-26.70579 0.29218,-3.38149 -0.57949,-13.93632 -0.83723,-17.94631 -0.57787,-9.35226 -1.21774,-18.69984 -1.91881,-28.04231 3.71686,8.75224 7.03173,17.68649 9.92919,26.77212 1.81953,5.82661 3.2095,11.86414 4.94393,17.68522 5.06549,16.98485 12.72858,37.20194 23.25671,51.24372 -3.93083,2.98559 -8.2831,5.66459 -12.29498,8.59618 -5.56394,4.06102 -10.68212,8.59151 -16.05155,12.90385 -5.54368,4.45351 -8.54083,10.43491 -11.62916,16.81603 2.2815,-2.63945 4.54881,-5.71265 6.87975,-8.4801 -1.40213,3.77994 -9.55839,21.2096 -12.01536,23.82268 -0.25489,22.40536 0.49683,46.09111 3.05105,68.36507 0.75132,7.2333 3.05267,14.40281 4.06699,21.5298 1.64933,11.58773 3.45872,23.31579 4.72307,34.9503 0.95637,8.79392 -4.47628,12.28087 -9.54421,18.11939 0.88302,4.10779 0.91746,5.96608 1.0054,10.1972 2.72281,-2.71302 5.38523,-7.57774 7.54597,-9.18939 7.18085,-5.37076 14.23608,-8.93 20.75233,-15.47866 -2.40307,-5.54085 -4.37253,-14.3858 -7.17274,-20.86217 -10.19178,-23.57094 -19.8835,-43.81226 -20.26686,-70.25781 -0.0571,-3.95046 -1.02323,-10.49061 -0.58962,-14.34327 1.06457,-9.44879 11.45897,-16.97975 17.27821,-23.32685 2.71106,-2.95583 5.62878,-6.3084 8.49788,-9.07628 0.97258,-0.93892 2.68674,-1.21405 4.04835,-1.02567 2.7151,2.74789 -2.9542,9.89316 -5.04929,12.02233 l -0.37687,0.37846 0.14588,0.60384 c 0.5795,0.25514 2.18425,0.98655 2.67459,0.9015 2.43549,-0.42949 7.74818,-6.41429 9.60013,-8.29299 -3.3797,7.25541 -15.83272,19.05151 -16.42843,22.46617 l 0.47819,0.55281 c 4.77372,0.76543 3.53774,-3.33387 7.70766,-3.37639 5.28027,2.64498 5.73009,-0.32318 8.24663,-5.03482 3.46885,6.90161 4.90745,7.97321 11.54528,11.45166 7.65498,-1.12688 13.23919,-3.89093 21.16568,-3.0447 2.6989,2.01137 5.23165,4.90299 8.10885,7.161 -0.76996,-3.27433 -1.35755,-5.24318 -2.98257,-8.11354 l 3.98351,-4.1078 c 4.19018,2.68326 8.52625,7.11423 12.50975,10.34604 4.00783,3.25732 7.85761,5.90656 12.09236,8.8407 -0.0567,12.93148 -0.0203,25.86722 0.10942,38.7987 0.0729,9.97608 0.37687,19.15697 -0.80238,29.13305 -4.55895,38.64562 -25.74489,65.39734 -45.95014,96.53751 -12.26256,17.78345 -29.14485,53.34609 -48.43832,63.45399 -7.83612,4.10355 -37.68285,-7.56073 -46.12318,-11.52819 -7.13506,-2.69601 -15.28646,-7.33961 -22.42111,-9.68692 -23.50432,-7.72658 -43.52682,-21.01526 -62.44909,-37.38267 -4.0686,-3.52097 -9.10047,-6.88035 -13.44099,-10.52038 -9.12438,-7.75209 -17.43625,-16.50348 -24.7946,-26.10536 -10.54596,-13.48854 -19.5666,-28.21453 -26.88077,-43.88455 -0.8502,-1.786 -5.27866,-11.85988 -6.34201,-12.37867 -0.81939,0.83772 -1.07024,1.05459 -1.99945,1.75198 -2.90679,-0.004 -6.85909,-1.45857 -9.63782,-2.44087 -1.43779,-2.7683 -2.73456,-5.45155 -6.25609,-4.02275 -2.14088,2.99368 -0.12644,4.40121 1.86532,6.68049 2.83951,14.27949 4.19666,30.16638 5.62513,44.73077 -1.07105,2.21124 -2.80385,4.9923 -4.07793,7.16526 l -7.6874,-9.44028 c 0.54789,-11.92367 1.10631,-23.84309 1.18087,-35.77952 0.0515,-8.26662 -2.89827,-8.0455 -9.66335,-7.84563 -4.74495,-5.10711 -9.85786,-8.76416 -14.67779,-14.58566 -17.4476,-21.25339 -30.33422,-48.87259 -35.92613,-76.27918 -2.09468,-10.26524 -6.05225,-27.76548 2.50519,-35.43762 4.07874,-3.65662 11.14613,-1.77622 16.25944,-1.29102 11.73048,9.0818 29.5817,31.88093 35.86089,45.71392 6.27028,13.81598 11.41358,28.52496 18.70912,42.31542 -2.88572,-10.12491 -4.90422,-22.58013 -7.15735,-32.99846 L 207.93407,418.3691 c -0.45184,2.71174 0.10333,6.2527 -2.28353,7.12911 l -0.67675,-0.48945 c -1.35755,-3.66725 3.50695,-34.92096 4.24813,-40.94275 -4.44629,10.78998 -5.94933,23.75336 -11.54285,33.89528 1.10347,-12.38803 7.72022,-31.66066 10.65132,-43.83267 -0.97946,-2.22824 -1.97473,-4.44884 -2.9854,-6.66135 2.37876,-6.81996 5.893,-12.92425 9.25527,-19.26923 -2.33823,1.76176 -4.14884,3.76251 -6.99565,3.76761 -3.50371,-2.56163 9.59324,-21.08967 11.87271,-24.0893 -0.66621,-5.55956 -1.88436,-17.61718 -3.1637,-22.68049 1.0524,-1.96885 2.18546,-3.8803 3.36349,-5.76878 6.48546,-10.39749 12.43478,-21.16366 19.01264,-31.49737 -4.96014,2.34094 -10.04387,4.31319 -15.12923,6.33137 8.70861,-7.09595 12.34401,-12.8171 18.82988,-21.84149 2.74266,-3.69405 7.88434,-6.42407 10.82071,-9.52448 11.21947,-11.84628 19.62374,-17.8247 35.09782,-7.76655 3.52599,-2.31414 7.50099,-5.21086 9.81572,-8.85813 1.9569,1.09499 3.62771,2.43236 5.6762,1.88976 1.15371,-1.33142 1.9257,-5.34397 2.48614,-7.29155 6.58191,-2.70239 7.00174,-6.59927 10.8114,-12.27365 2.31351,-3.44612 4.41184,-5.61654 7.47627,-8.31467 z"
     id="path2"
     style="stroke-width:0.415118" />
  <path
     fill="#000000"
     d="m 305.37237,427.41986 c 7.84868,-0.96699 24.06273,-1.17876 31.69218,0.25174 3.44535,0.64636 16.83812,6.41259 20.51568,8.2696 -3.28002,1.49854 -4.93866,2.38389 -7.85153,4.62106 3.04579,2.1432 7.45236,5.04332 9.86678,7.75634 -6.29945,-1.18641 -12.08749,-2.241 -18.49717,-2.45362 15.2512,8.83219 19.13016,5.77898 35.28504,9.54659 -7.61283,1.64992 -13.79112,2.25801 -21.6163,1.41179 1.83979,1.24595 3.71159,2.44087 5.42535,3.86116 -4.75589,-0.82071 -7.67605,-1.84978 -12.26053,-3.24882 2.44035,1.84979 4.73887,3.572 7.05928,5.60039 -4.64648,2.3303 -5.51896,2.75128 -10.49409,3.94195 l 1.57435,-5.01781 c -2.96959,-2.55568 -5.33012,-4.77117 -8.13032,-7.49694 -7.89894,-0.0808 -10.45803,-0.71865 -18.22323,-1.81151 0.37403,3.86966 0.34607,9.82299 -1.22383,13.38648 l -0.7424,0.59534 c -1.2534,-0.47202 -2.56273,-2.679 -3.36511,-2.30904 -1.22139,0.56131 -3.24962,1.76048 -3.97297,-0.51879 -1.83412,-5.78324 -4.26555,-5.99586 -10.10466,-6.05964 -2.99107,2.00712 -1.98121,9.62738 -6.79263,10.04837 -2.2584,-0.87599 -5.03753,-4.35869 -6.03604,-6.63371 -3.31892,0.0128 -7.89691,-0.11057 -11.11168,0.17009 -0.12238,10.52889 7.14884,19.62898 17.65589,19.71403 6.27636,0.0553 8.71671,-2.27502 12.85989,-6.68474 0.99972,-1.06735 1.99094,-2.1432 2.97365,-3.22756 2.41523,0.78669 5.21948,1.79026 7.66713,2.27078 -1.98486,1.70945 -5.97283,5.65141 -8.01199,6.31478 -3.82344,1.24594 -6.6743,0.88024 -10.67402,2.81507 11.43465,-0.19561 16.70763,-1.76048 27.4785,-3.36788 -8.36455,3.61027 -14.86946,5.46856 -24.02262,6.53591 0.2784,1.46281 0.40362,1.48408 1.21167,2.66624 l -0.22207,0.58257 c -1.49777,1.19492 -7.71496,0.22538 -10.45073,0.19136 -0.38498,2.01988 -0.7505,6.00011 -1.82115,7.44166 -1.33202,-0.86748 -1.91273,-6.39983 -5.37956,-9.51682 -6.55435,0.2764 -6.85665,-0.22963 -12.50732,-4.00149 l -0.33432,0.54005 c -1.00986,1.62866 -2.0262,3.64004 -3.85829,4.04827 l -0.75415,-0.69739 c -0.68364,-2.02839 -0.38376,-4.44374 -0.30109,-6.66348 -4.30487,-4.14607 -6.83073,-7.9477 -10.35226,-12.75714 -0.35378,-0.48477 -2.40429,-1.09711 -3.2407,-1.77749 l -0.0766,-1.65843 c -1.40294,-1.86679 -8.03225,0.28916 -9.92918,-3.64429 l 0.27556,-0.57407 c 1.61002,-0.27215 3.11549,0.0935 4.74901,0.34444 1.88274,-1.348 3.01174,-2.21549 4.75711,-3.7591 0.0117,-0.6336 -0.0219,-0.59959 -0.15035,-1.22469 l -1.43374,-0.017 c -3.13979,-6.689 -9.43195,-3.23181 -12.8465,-4.69038 l -0.27111,-0.78669 c 2.21626,-0.95678 7.77291,-1.20342 10.6339,-1.87105 4.18491,-0.97804 8.72846,-2.88311 12.8149,-3.6698 11.48733,-2.29628 22.72301,-2.43236 34.34529,-2.67474 8.56475,-0.17435 17.26362,-2.24101 25.94143,-1.55212 1.03336,0.0808 1.72916,-0.0638 2.40226,-0.82496 -1.42117,-4.70611 -11.76006,-4.78946 -15.61024,-5.16835 l 0.0734,-1.53596 c 3.08792,-0.007 6.38293,0.0506 9.45059,-0.0327 -4.58853,-1.93441 -9.27512,-3.60304 -14.03831,-4.99782 z"
     id="path3"
     style="stroke-width:0.415118" />
  <path
     fill="#dedfe2"
     d="m 285.47063,486.33062 c 4.70038,-0.47627 11.96147,-0.47202 16.82434,-0.62935 0.2784,1.46281 0.40362,1.48408 1.21167,2.66624 -4.87341,-1.38203 -11.61296,-0.45926 -18.03601,-2.03689 z"
     id="path4"
     style="stroke-width:0.415118" />
  <path
     fill="#dedfe2"
     d="m 252.47681,455.22447 c 1.21978,-0.75268 3.15115,-2.18573 4.46007,-1.94334 -0.62082,1.62015 -1.73928,2.01988 -2.87598,3.18503 0.0117,-0.6336 -0.0219,-0.59959 -0.15035,-1.22469 z"
     id="path5"
     style="stroke-width:0.415118" />
  <path
     fill="#fefefe"
     d="m 264.74869,454.03805 c 0.0353,0.0298 0.0713,0.0595 0.10537,0.0935 0.56855,0.54006 7.89528,16.29512 7.90258,17.19662 0.009,1.14815 -0.19452,1.53937 -0.94097,2.33456 l -1.43739,-0.0553 c -3.62811,-5.6344 -6.39022,-6.89736 -8.94202,-13.48855 1.12292,-1.97735 2.22396,-4.07803 3.31243,-6.0809 z"
     id="path6"
     style="stroke-width:0.415118" />
  <path
     fill="#000000"
     d="m 168.12979,423.99499 c 9.8992,2.02456 15.5142,17.6006 19.78138,25.76517 2.55179,5.43454 6.26865,11.54095 7.66065,17.40924 2.58867,10.9116 3.82182,20.66231 7.35227,31.41657 7.24609,4.22687 12.98307,2.88737 13.93133,13.45028 0.56977,6.3488 1.27205,12.31914 1.12657,18.78701 -1.794,2.8661 -3.6192,4.83495 -7.01065,5.49832 -0.73956,0.22963 -3.26178,-0.22963 -3.74806,-0.82921 -4.26029,-5.26445 -9.06481,-10.27375 -13.18083,-15.636 -2.32689,-3.03194 -1.79481,-4.03125 -4.96419,-6.42109 -5.68835,-4.45224 -8.09953,-6.39983 -11.82774,-12.73587 0.0965,-2.23676 -0.10333,-3.07022 1.26435,-4.59257 5.29932,-0.90151 9.18679,11.25179 14.96834,9.70392 5.63973,-4.72439 -3.17424,-13.77345 -5.25434,-19.19949 0.44861,-1.92207 0.80481,-3.44868 1.5776,-5.21766 1.74172,-3.97598 5.83789,-7.27157 4.66391,-11.90241 -3.511,-13.8415 -15.54379,-28.00617 -26.25671,-35.9156 -4.70524,1.88466 -7.83774,4.57684 -11.40952,8.18158 3.38415,-6.54398 5.09913,-14.78765 11.32564,-17.76219 z"
     id="path7"
     style="stroke-width:0.415118" />
  <path
     fill="#000000"
     d="m 446.75163,601.02578 0.4174,0.39547 c -0.12563,2.0539 -3.33918,4.3842 -4.8102,5.68118 4.23476,-0.034 13.12572,-0.0638 17.26322,0.94403 l 0.25935,0.6251 c -1.00094,1.84128 -3.3797,2.679 -4.79399,4.71589 -2.61379,3.7676 -3.77278,8.96826 -6.90528,12.32764 -10.49166,11.24754 -19.62658,9.55085 -32.31221,10.53315 2.11009,-2.68751 3.79548,-5.79174 4.97675,-7.84139 0.39917,-0.69314 7.34092,-2.25376 8.94486,-3.86116 -0.29663,-0.57833 -0.43158,-0.91852 -1.19343,-0.99931 -7.89488,-0.83772 -14.43464,-2.44087 -21.82703,1.28422 -2.44157,1.46282 -7.84017,4.8222 -9.83881,6.58693 l 0.25246,1.14815 -0.33311,0.48902 c -1.918,-0.13183 -19.10989,-4.74991 -20.12016,-5.65141 0.96407,-2.27503 5.01242,-3.43593 7.15938,-3.71658 12.49962,-1.57763 21.39139,-8.32191 32.19752,-13.42051 0.94015,-0.4465 16.37331,-0.56131 19.67034,-1.10987 -2.77306,-1.17366 -7.46087,-2.45788 -10.4718,-3.40616 9.54137,-2.07941 11.62552,1.18217 21.46474,-4.72439 z"
     id="path8"
     style="stroke-width:0.415118" />
  <path
     fill="#dedfe2"
     d="m 442.09948,621.14804 0.69701,0.52729 0.004,1.21618 c -0.88747,1.84128 -1.15088,1.96035 -2.67863,3.35938 -0.63218,-0.24664 -0.36067,-0.0213 -0.70512,-0.79944 0.85911,-1.76049 1.58044,-2.73428 2.68269,-4.30341 z"
     id="path9"
     style="stroke-width:0.415118" />
  <path
     fill="#000000"
     d="m 251.9727,409.32982 c 4.96945,-0.33041 15.2046,1.39605 20.80339,1.88295 16.76153,1.41519 33.53157,2.71387 50.30971,3.89475 11.86624,0.77649 34.79552,-2.79041 45.71916,0.60554 3.88139,1.20683 19.54918,14.95774 22.97143,18.61054 -3.32499,-1.99012 -7.24488,-4.74055 -10.53624,-6.93606 -10.73642,-6.1298 -31.83888,-3.87944 -44.33242,-4.82687 -26.63156,-1.92123 -52.98309,-8.01489 -79.61748,-10.10068 -4.48519,-0.35124 -15.05182,1.56785 -19.76516,2.39154 4.7101,-2.13214 9.53407,-3.97597 14.44761,-5.52171 z"
     id="path10"
     style="stroke-width:0.415118" />
  <path
     fill="#000000"
     d="m 441.6294,637.22203 c 7.58204,-0.49328 5.97729,3.85691 5.12628,9.7337 -3.61068,3.58475 -9.49071,7.65853 -13.67806,11.02641 -2.0035,-2.21549 -4.01795,-4.68187 -5.96148,-6.9739 -2.85005,-2.89162 -7.8807,-0.77393 -12.07898,-0.68038 7.75548,-4.71589 18.21836,-10.52038 26.59224,-13.10583 z"
     id="path11"
     style="stroke-width:0.415118" />
  <path
     fill="#000000"
     d="m 413.81738,571.6546 c 1.84749,0.24664 5.27906,0.38271 5.25799,2.99793 -2.57084,2.16021 -3.09198,-0.13608 -6.09683,2.61521 -1.01959,0.93978 -1.82075,0.89725 -3.09603,0.61659 -0.92274,-1.00781 -0.68162,-0.42098 -0.72052,-1.84128 1.05484,-2.49614 2.33742,-3.04045 4.65539,-4.38845 z"
     id="path12"
     style="stroke-width:0.415118" />
  <path
     fill="#000000"
     d="m 287.83156,432.49933 c -0.94988,0.13905 -2.67094,-0.002 -3.70389,-0.0519 l 0.0993,-0.37846 c 3.93164,-0.84282 11.13072,-1.22979 15.06925,-0.36613 2.09833,0.16031 8.95783,0.32913 10.66389,0.74756 l -0.0734,1.53596 c -7.39725,-0.48944 -14.62673,-1.16387 -22.05518,-1.48705 z"
     id="path13"
     style="stroke-width:0.415118" />
  <path
     fill="#888689"
     d="m 287.83156,432.49933 c -0.94988,0.13905 -2.67094,-0.002 -3.70389,-0.0519 l 0.0993,-0.37846 c 3.93164,-0.84282 11.13072,-1.22979 15.06925,-0.36613 -2.3508,0.004 -9.74561,-0.15309 -11.61458,0.35337 z"
     id="path14"
     style="stroke-width:0.415118" />
  <path
     fill="#000000"
     d="m 259.09762,473.17801 c 1.22464,0.81646 1.43131,0.96954 1.77576,2.1432 -0.58921,1.30548 -2.24097,2.02838 -3.50856,2.78956 l -0.64636,0.45926 -0.27799,-0.40398 c 0.67958,-1.97736 1.57516,-3.23606 2.65715,-4.98804 z"
     id="path15"
     style="stroke-width:0.415118" />
  <path
     fill="#fefefe"
     d="m 265.75166,611.41009 c 4.41631,1.40754 11.53313,11.23904 15.68521,14.63244 26.217,21.42773 53.83612,41.22681 79.50077,63.3817 4.14965,3.58051 8.14451,9.69543 12.65523,12.5913 5.60812,3.59751 14.21541,7.92643 19.98846,11.00515 11.9878,6.48063 24.0445,12.82518 36.16725,19.02515 l -3.6192,2.36007 c -7.21813,4.18859 -6.61311,3.7506 -14.92985,2.22399 -37.83602,-6.94413 -78.05608,-6.08941 -112.06502,-27.30452 -13.96213,-8.70888 -11.67253,-13.47579 -14.66198,-29.05226 -1.62258,-8.10503 -3.42509,-16.16754 -5.40671,-24.18327 -2.26448,-8.7429 -4.77049,-17.4135 -7.51396,-26.0033 -1.84303,-5.7237 -4.49046,-12.94424 -5.8002,-18.67645 z"
     id="path16"
     style="stroke-width:0.415118" />
  <path
     fill="#fefefe"
     d="m 140.42921,275.63672 0.47454,0.28534 c -0.12562,8.04678 -0.74848,16.33381 -0.75699,24.28193 l -11.69238,16.25855 c 0.42955,2.11088 0.74604,6.90714 1.01918,9.33397 0.56571,5.02886 2.56962,12.54664 2.00593,17.30718 4.1991,-4.53559 8.94567,-11.05278 12.81247,-16.08505 0.005,-8.94658 0.0843,-19.68851 -0.81818,-28.49008 8.44601,-9.56658 11.30457,-12.00362 20.94118,-19.94026 -0.77037,9.96715 -2.65797,20.36847 -3.14385,30.06815 -4.88112,6.11917 -7.77129,8.89087 -11.95134,15.8737 1.58003,8.57365 1.51479,17.49386 1.50263,26.20146 3.83316,-3.07022 15.67914,-14.75193 18.81569,-18.72152 0.23828,-6.22591 -0.3793,-14.78297 -0.50898,-21.32313 1.10266,-1.23787 2.3204,-2.75554 3.36714,-4.07761 5.98296,-7.5552 12.55311,-13.90783 19.45111,-20.51773 -1.00621,5.21384 -3.30555,31.35577 -2.79494,36.28895 -4.09981,3.89858 -9.02105,8.03913 -13.32105,11.7876 0.004,7.09679 0.16331,13.44007 0.83399,20.48583 l 1.8645,17.67927 c -8.81558,7.08616 -21.49635,18.38303 -31.95194,22.80593 -0.99365,-3.15696 -5.34795,-21.10285 -5.72847,-24.50688 -4.56827,2.11513 -7.3008,3.5367 -12.15031,5.04204 16.90904,-21.88827 16.1865,-15.7372 15.95308,-45.24956 -1.94434,4.17626 -8.26365,13.94738 -11.05859,17.71669 0.0498,4.20602 0.28367,8.03487 0.55113,12.22048 -2.5595,3.5231 -12.41655,14.93776 -15.52961,17.7422 -0.8433,-8.90023 -3.697,-17.36884 -3.99607,-26.43661 2.45373,1.18088 7.54395,4.88173 9.63256,6.71323 l 3.48627,-5.48047 c -0.53451,-8.38909 -1.21328,-16.76755 -2.03592,-25.13113 -1.40173,1.54191 -5.02416,6.16467 -7.11318,5.12284 -0.24273,-2.88014 4.23152,-10.79381 5.14128,-14.04476 1.55004,-5.54127 0.8425,-11.97002 0.79549,-17.87062 1.13305,3.00983 2.15871,7.08574 2.82249,10.25334 6.67187,-9.58317 7.12533,-9.51938 6.697,-21.21852 -2.24463,0.8998 -5.75684,1.85063 -8.15505,2.57651 1.90179,-2.43874 3.47858,-5.36693 5.55584,-7.9073 2.78926,-3.41125 5.8318,-6.02094 8.98335,-9.04396 z"
     id="path17"
     style="stroke-width:0.415118" />
  <path
     fill="#000000"
     d="m 169.33578,340.58458 c 1.65338,1.94547 0.4794,22.38538 -1.06091,25.23107 -3.66621,6.77361 -10.46573,14.58268 -15.45909,20.48158 l -0.16534,0.051 -0.44698,-0.34572 c 1.58854,-28.62064 -3.62082,-23.85584 17.13232,-45.41796 z"
     id="path18"
     style="stroke-width:0.415118" />
  <path
     fill="#000000"
     d="m 155.97624,294.77668 0.71606,0.23303 c 1.4925,7.6917 -3.06037,17.85064 -7.10831,24.02467 l -0.56815,-0.74077 c -0.99121,-6.19529 -0.44333,-13.01015 0.35378,-19.20629 2.19072,-1.64185 4.28095,-2.88737 6.60662,-4.31064 z"
     id="path19"
     style="stroke-width:0.415118" />
  <path
     fill="#000000"
     d="m 181.82811,304.44914 c 1.01999,1.14219 0.73632,8.63233 0.75172,10.68793 -2.70011,2.71642 -5.18302,6.77744 -8.0744,9.2906 -0.20789,-3.57327 -0.64514,-7.43826 -0.98352,-11.02387 3.35214,-3.47547 5.24097,-5.01525 8.3062,-8.95466 z"
     id="path20"
     style="stroke-width:0.415118" />
  <path
     fill="#fefefe"
     d="m 494.42405,432.67793 c 1.25219,0.65231 0.98878,1.67161 2.52869,3.15186 1.22383,0.0553 1.64122,0.068 2.87721,0.30575 l 0.3404,0.69484 c -0.50655,3.2301 -7.06333,10.70578 -9.50693,14.92414 -6.89718,1.65843 -8.4452,1.53511 -14.64537,-2.17296 -1.78305,-1.2502 -3.07577,-2.63222 -4.63594,-4.16733 0.89153,-2.79807 1.66148,-5.45155 3.89841,-7.34514 2.56111,-0.22452 3.00282,2.73981 3.70389,4.89151 4.94392,4.61809 8.23042,-4.55302 8.82207,-8.58215 2.80021,-0.50816 3.95514,-0.73396 6.61757,-1.70052 z"
     id="path21"
     style="stroke-width:0.415118" />
  <path
     fill="#fefefe"
     d="m 460.16912,227.00057 c 1.71011,-0.63956 3.58232,-0.60299 5.26812,0.10333 2.88936,1.21023 4.75752,4.17413 4.68862,7.43613 -0.0689,3.262 -2.05861,6.13704 -4.9966,7.21246 -3.8741,1.4203 -8.11696,-0.71822 -9.48261,-4.78222 -1.36972,-4.06443 0.65648,-8.52262 4.52247,-9.9697 z"
     id="path22"
     style="stroke-width:0.415118" />
  <path
     fill="#fefefe"
     d="m 470.95255,250.05101 c 2.54086,-1.00909 5.40185,-0.48435 7.46857,1.36884 2.06268,1.85319 2.99878,4.74013 2.4436,7.53011 -0.55518,2.79041 -2.52059,5.0395 -5.11818,5.86786 -2.78805,0.88747 -5.81114,-0.0128 -7.73603,-2.30351 -1.92894,-2.29076 -2.40307,-5.55063 -1.21977,-8.34104 0.81048,-1.90124 2.30582,-3.38532 4.16181,-4.12226 z"
     id="path23"
     style="stroke-width:0.415118" />
  <path
     fill="#fefefe"
     d="m 495.43309,249.54795 c 3.19735,-0.0685 6.0786,2.01946 7.15249,5.1828 1.07388,3.16292 0.0932,6.69112 -2.42739,8.7582 -1.1833,0.96955 -2.61785,1.54021 -4.11318,1.63759 -2.62596,0.1701 -5.13845,-1.1273 -6.61352,-3.4121 -1.47507,-2.28438 -1.6858,-5.21597 -0.56328,-7.70914 1.20761,-2.67092 3.74847,-4.39696 6.56488,-4.45735 z"
     id="path24"
     style="stroke-width:0.415118" />
  <path
     fill="#fefefe"
     d="m 517.17421,157.43803 c 4.10913,-0.19264 7.58609,3.15654 7.75629,7.47057 0.16615,4.31404 -3.03525,7.94983 -7.14843,8.11014 -3.23787,0.12587 -6.17991,-1.9646 -7.27,-5.16579 -1.09415,-3.20161 -0.0811,-6.77616 2.50033,-8.83347 1.19951,-0.95891 2.65432,-1.51044 4.16181,-1.58145 z"
     id="path25"
     style="stroke-width:0.415118" />
  <path
     fill="#fefefe"
     d="m 482.29116,226.94699 c 1.69796,-0.58343 3.53775,-0.50519 5.18707,0.22069 1.67365,0.73779 3.03525,2.09515 3.82142,3.81439 0.79832,1.7473 0.94826,3.74422 0.41739,5.60123 -0.72943,2.57354 -2.67458,4.57003 -5.14249,5.28401 -3.88625,1.12475 -7.91839,-1.21193 -9.08548,-5.26402 -1.16304,-4.05209 0.96853,-8.33892 4.80209,-9.6563 z"
     id="path26"
     style="stroke-width:0.415118" />
  <path
     fill="#fefefe"
     d="m 405.58129,111.70837 c 2.36903,-0.8071 4.96621,-0.3134 6.9142,1.31483 1.94839,1.62824 2.98824,4.17371 2.76901,6.77744 -0.1078,1.27402 -0.51263,2.50083 -1.17885,3.57158 -0.95555,1.53468 -2.39618,2.66666 -4.0682,3.19651 -2.3354,0.73949 -4.86815,0.22793 -6.77439,-1.36926 -2.13359,-1.7877 -3.15966,-4.66019 -2.67094,-7.47866 0.48872,-2.81848 2.4128,-5.12795 5.00917,-6.01244 z"
     id="path27"
     style="stroke-width:0.415118" />
  <path
     fill="#fefefe"
     d="m 395.27037,134.60275 c 3.91786,-0.98357 7.86692,1.49641 8.89217,5.5838 1.02526,4.08781 -1.24854,8.28661 -5.1198,9.45431 -2.58299,0.77904 -5.36578,0.0298 -7.27202,-1.95822 -1.90625,-1.98798 -2.63731,-4.90342 -1.91112,-7.61856 0.7266,-2.71514 2.79697,-4.80519 5.41077,-5.46133 z"
     id="path28"
     style="stroke-width:0.415118" />
  <path
     fill="#fefefe"
     d="m 384.58176,157.61663 c 2.85127,-0.61447 5.78115,0.58002 7.48964,3.0532 1.42037,2.05645 1.79441,4.71164 1.00095,7.11168 -0.79346,2.39962 -2.65392,4.24132 -4.98324,4.93276 -2.60934,0.77478 -5.414,-0.009 -7.31134,-2.04157 -1.89733,-2.03306 -2.58462,-4.99144 -1.79156,-7.71296 0.79265,-2.72152 2.9388,-4.77074 5.59555,-5.34311 z"
     id="path29"
     style="stroke-width:0.415118" />
  <path
     fill="#fefefe"
     d="m 417.17196,134.66313 c 3.90246,-0.97379 7.83247,1.49854 8.85327,5.56935 1.0204,4.0708 -1.24125,8.25216 -5.09548,9.41986 -1.58814,0.48095 -3.28407,0.3891 -4.81668,-0.26067 -1.60556,-0.6808 -2.93191,-1.93185 -3.74807,-3.535 -0.86802,-1.7052 -1.09739,-3.68894 -0.64311,-5.56254 0.67715,-2.79466 2.7767,-4.9638 5.45007,-5.631 z"
     id="path30"
     style="stroke-width:0.415118" />
  <path
     fill="#fefefe"
     d="m 373.41051,134.60445 c 3.88544,-0.93637 7.77696,1.53511 8.78844,5.58167 1.01148,4.04657 -1.22342,8.20412 -5.04686,9.38926 -1.92529,0.59661 -3.99971,0.34444 -5.74387,-0.69909 -1.74415,-1.04354 -3.00809,-2.78786 -3.49965,-4.83071 -0.47453,-1.9731 -0.19005,-4.06272 0.79225,-5.81725 1.02809,-1.83618 2.73172,-3.14719 4.70969,-3.62388 z"
     id="path31"
     style="stroke-width:0.415118" />
  <path
     fill="#fefefe"
     d="m 504.78198,134.50452 c 2.80426,-0.0111 6.76345,2.25674 8.16963,4.82645 0.89153,1.59804 1.07389,3.52437 0.49845,5.27423 -0.89964,2.7415 -2.82453,3.93472 -5.10197,5.20066 -4.05645,0.051 -4.43738,-0.22751 -7.80087,-2.67518 -2.44765,-6.13448 -2.03025,-10.08664 4.23476,-12.62616 z"
     id="path32"
     style="stroke-width:0.415118" />
  <path
     fill="#fefefe"
     d="m 352.66345,135.94693 c 6.26136,-0.69697 6.32093,0.46776 8.23042,6.42449 -1.54194,4.23962 -2.2122,5.78579 -6.45182,7.45187 -6.48019,0.0259 -11.50922,-5.83809 -7.18207,-12.26301 1.16709,-1.73284 3.46156,-1.54744 5.40347,-1.61335 z"
     id="path33"
     style="stroke-width:0.415118" />
  <path
     fill="#fefefe"
     d="m 480.69452,135.2355 c 4.60352,0.86792 13.1865,1.61336 11.08736,8.77904 -0.68891,2.34264 -1.27245,3.51587 -3.23381,4.85069 -7.13222,2.44469 -9.71765,-0.3589 -11.92621,-7.19332 1.28056,-2.96349 2.08698,-4.05422 4.07266,-6.43641 z"
     id="path34"
     style="stroke-width:0.415118" />
  <path
     fill="#fefefe"
     d="m 471.62525,203.58739 c 0.69296,-0.0327 2.37066,-0.28533 2.91773,0.12332 3.06361,2.2831 7.12412,8.51326 5.03308,12.47308 -0.52681,0.99803 -2.61785,2.53824 -3.74847,2.74278 -0.70512,0.0412 -1.41024,0.0659 -2.11535,0.0748 -3.38376,0.0272 -4.57516,-1.53809 -6.82829,-3.89093 l -0.86316,-4.34211 c 1.3535,-4.13756 1.93299,-5.27209 5.60446,-7.18099 z"
     id="path35"
     style="stroke-width:0.415118" />
  <path
     fill="#fefefe"
     d="m 383.85354,111.55146 c 0.67149,-0.0812 1.34621,-0.12928 2.02175,-0.14416 3.23097,-0.037 4.93014,1.8736 7.0459,4.05039 0.34567,3.50183 0.54464,3.26923 0.11387,6.97433 -3.18802,3.82544 -3.97743,3.98618 -8.56109,4.42162 -2.77144,-1.00271 -3.6423,-2.22229 -5.60488,-4.4229 l 5.31594,-4.95785 c -1.89044,-0.62892 -4.07631,-0.66422 -4.16911,-2.97581 1.00378,-1.49131 2.29285,-2.03136 3.83762,-2.94562 z"
     id="path36"
     style="stroke-width:0.415118" />
  <path
     fill="#fefefe"
     d="m 406.09392,157.52903 c 5.80465,-1.16473 8.02901,2.87631 9.48464,7.85159 -1.91881,1.35821 -5.22152,2.66539 -6.25731,4.68272 -0.30636,0.59703 0.17992,1.37309 0.47129,2.18742 -0.71119,1.05629 -2.60083,0.98528 -3.65324,0.59491 -3.30027,-1.22511 -4.52531,-3.41509 -6.03361,-6.48785 l 1.16101,-5.18918 c 1.68782,-1.96333 2.46062,-2.76192 4.82722,-3.63961 z"
     id="path37"
     style="stroke-width:0.415118" />
  <path
     fill="#fefefe"
     d="m 363.17416,157.41591 c 1.82358,-0.23175 3.90894,0.75267 5.6381,1.4254 0.84452,1.05459 1.75347,2.46553 2.53072,3.60304 0.0263,2.84314 0.4721,5.02036 -1.20194,7.05725 -1.62744,0.78584 -3.18275,0.39292 -5.03146,0.20624 -1.65986,-0.0829 -5.28959,-0.0255 -6.53287,-0.77734 -4.09576,-2.47658 -1.08807,-7.21033 0.6962,-9.94716 1.20316,-0.53963 2.65919,-1.07288 3.90125,-1.56743 z"
     id="path38"
     style="stroke-width:0.415118" />
  <path
     fill="#fefefe"
     d="m 369.89465,90.006352 c 6.32134,0.92915 18.43963,3.92622 9.60378,12.382078 -8.79816,4.65848 -14.89824,-3.428688 -9.60378,-12.382078 z"
     id="path39"
     style="stroke-width:0.415118" />
  <path
     fill="#fefefe"
     d="m 494.46862,203.32119 c 4.78994,1.21576 6.17586,9.93824 6.16775,14.30543 -2.04241,0.77351 -3.7201,1.13794 -5.8314,1.63844 -0.2472,-0.0748 -0.49439,-0.15478 -0.74159,-0.24026 -2.10724,-0.74501 -4.54274,-2.31924 -5.31269,-4.5662 -2.08699,-6.11407 1.11036,-9.04906 5.71793,-11.13741 z"
     id="path40"
     style="stroke-width:0.415118" />
  <path
     fill="#fefefe"
     d="m 427.63606,203.42325 c 6.10089,-0.25727 8.19881,2.2359 9.98957,7.88646 -1.27732,3.70425 -1.75955,5.176 -4.81992,7.45272 -1.8325,-1.06607 -6.59407,-5.00122 -7.98809,-6.71621 -3.27393,-4.02912 -0.0904,-6.22888 2.81844,-8.62297 z"
     id="path41"
     style="stroke-width:0.415118" />
  <path
     fill="#fefefe"
     d="m 526.85539,180.36217 c 3.83357,-0.20964 7.70766,1.32292 8.63566,5.68161 0.78211,3.66342 -0.2472,5.10711 -2.00594,8.06549 -1.66148,-3.26158 -2.25718,-3.9241 -4.69267,-6.42152 -1.38998,1.81704 -3.39591,5.29846 -4.66837,7.37065 -5.20328,-6.17701 -4.08481,-11.06257 2.73132,-14.69623 z"
     id="path42"
     style="stroke-width:0.415118" />
  <path
     fill="#fefefe"
     d="m 494.61046,157.35468 c 1.67364,-0.15436 3.91461,0.83474 5.53557,1.43603 5.00471,6.29437 3.28244,9.37819 -1.96946,14.21315 -2.38687,-2.56419 -6.71078,-6.69622 -8.11696,-9.88976 -1.58449,-3.60729 2.0262,-4.8188 4.55085,-5.75942 z"
     id="path43"
     style="stroke-width:0.415118" />
  <path
     fill="#fefefe"
     d="m 504.62798,272.76169 c 1.23599,-0.0736 3.15277,-0.33254 4.12129,0.47116 2.62596,2.17977 2.93394,9.36757 3.35944,12.80945 -2.35849,1.31185 -3.06361,1.58783 -5.62878,2.39579 -2.29771,-2.42854 -5.99755,-7.46548 -7.58609,-10.36645 1.99783,-3.09701 2.74347,-3.56307 5.73414,-5.30995 z"
     id="path44"
     style="stroke-width:0.415118" />
  <path
     fill="#fefefe"
     d="m 415.37432,181.11187 c 1.7713,1.17238 4.37253,5.72243 5.54124,7.64067 1.83939,0.33934 3.913,0.8509 5.76089,1.26381 -1.4698,2.38133 -2.17127,3.63111 -4.40617,5.23893 -6.78371,2.53442 -9.4125,-0.9402 -11.04967,-7.31324 1.052,-3.74635 1.56058,-4.22346 4.15371,-6.83017 z"
     id="path45"
     style="stroke-width:0.415118" />
  <path
     fill="#fefefe"
     d="m 472.85718,295.73092 c 1.45076,0.0566 2.95825,0.24876 4.40901,0.40397 4.4698,4.44756 5.58826,9.56785 0.36066,14.06559 -1.02525,0.38612 -2.07888,0.71611 -3.12034,1.06055 -1.58044,-2.95413 -4.61974,-10.588 -4.9885,-13.91846 0.6808,-1.01505 2.12345,-1.24 3.33917,-1.61165 z"
     id="path46"
     style="stroke-width:0.415118" />
  <path
     fill="#fefefe"
     d="m 456.34771,184.01072 c 6.69051,0.5847 8.46546,3.51756 12.96362,8.46521 l -2.707,2.2899 c -6.50815,4.29873 -13.68495,-2.39706 -10.25662,-10.75511 z"
     id="path47"
     style="stroke-width:0.415118" />
  <path
     fill="#fefefe"
     d="m 428.00443,157.47247 c 0.25975,-0.0332 0.51951,-0.0659 0.77927,-0.0987 2.15385,-0.22027 4.29757,0.51582 5.91083,2.02966 2.43671,2.33031 4.05361,6.92628 1.46454,9.76814 -1.47021,0.26918 -1.23761,0.0247 -2.91165,-0.83899 -3.59083,-2.03561 -7.16343,-4.1061 -10.71778,-6.21102 1.92813,-2.35625 2.79858,-3.34705 5.47479,-4.64913 z"
     id="path48"
     style="stroke-width:0.415118" />
  <path
     fill="#fefefe"
     d="m 331.3993,136.79273 5.88206,-0.0587 c 1.20356,3.34025 2.26731,8.01616 -0.55559,10.82954 -1.35958,0.28618 -0.81007,0.3202 -2.29406,-0.66678 -2.19073,-1.56572 -4.37335,-3.14421 -6.54746,-4.7346 -1.61204,-1.20384 -2.44157,-1.75155 -2.75158,-3.65789 l 0.64393,-0.85941 c 1.64406,-0.9032 3.69497,-0.7667 5.6227,-0.85217 z"
     id="path49"
     style="stroke-width:0.415118" />
  <path
     fill="#fefefe"
     d="m 341.23609,156.99068 c 4.18775,1.00951 6.57948,2.40897 8.50801,6.59458 1.2526,2.7194 0.26665,4.35572 -2.28515,4.97529 -3.12237,-0.2713 -6.36793,-0.44097 -9.5049,-0.65104 1.06538,-2.77936 2.23247,-7.73083 3.28204,-10.91883 z"
     id="path50"
     style="stroke-width:0.415118" />
  <path
     fill="#fefefe"
     d="m 459.21681,272.84844 c 4.0605,-0.23346 4.91556,-0.30107 8.55056,1.52533 2.13561,3.49333 3.88625,7.37617 0.60786,10.92478 l -2.91368,2.82358 c -1.99783,-4.35316 -4.21854,-10.54547 -6.24474,-15.27369 z"
     id="path51"
     style="stroke-width:0.415118" />
  <path
     fill="#fefefe"
     d="m 438.91429,134.33953 c 0.76185,0.29086 1.0901,0.20709 1.24409,0.84112 0.61191,2.52974 1.81142,12.37315 1.1063,14.37474 -1.26434,0.41163 -2.35039,0.0634 -3.68768,-0.16372 -4.39969,-2.85037 -3.99283,-5.39924 -4.03538,-10.32009 1.95691,-2.5476 2.75199,-3.22458 5.37267,-4.73205 z"
     id="path52"
     style="stroke-width:0.415118" />
  <path
     fill="#fefefe"
     d="m 484.30521,272.29478 c 0.37282,0.5392 0.64433,13.42646 0.73348,15.22437 l -0.51465,0.59746 c -1.64122,0.12459 -2.62596,-0.52645 -4.15776,-1.22469 -2.01405,-1.60612 -2.65838,-3.72551 -3.70795,-6.12598 1.50749,-5.19683 2.71511,-6.83485 7.64688,-8.47116 z"
     id="path53"
     style="stroke-width:0.415118" />
  <path
     fill="#fefefe"
     d="m 483.54741,318.70822 c 1.3616,-0.007 1.87626,-0.27343 2.80426,0.37336 0.4255,3.28156 0.69296,12.98974 -1.5237,15.27157 -1.41024,0.0276 -0.76591,0.20454 -1.98973,-0.59193 -2.05862,-3.83352 -3.30271,-8.01957 -4.49006,-12.21709 2.06267,-1.45474 2.75968,-2.05135 5.19923,-2.83591 z"
     id="path54"
     style="stroke-width:0.415118" />
  <path
     fill="#fefefe"
     d="m 358.31857,92.509732 c 1.129,-0.0587 0.62367,-0.2207 1.53951,0.58215 1.49007,3.80588 1.02404,9.342048 -4.21085,8.841968 -1.06781,-0.10206 -3.78372,-1.77154 -4.83978,-2.375378 l -5.97323,-3.28836 c 3.88138,-1.68437 9.30471,-2.82911 13.48435,-3.76038 z"
     id="path55"
     style="stroke-width:0.415118" />
  <path
     fill="#fefefe"
     d="m 424.05131,114.26873 c 1.6088,0.53282 9.70793,8.51496 11.10114,10.18997 -0.64555,1.14772 -0.79508,0.9402 -2.12629,1.6882 -0.33716,0.10248 -0.67554,0.20028 -1.01513,0.29341 -7.19098,1.91229 -12.25202,-5.07819 -7.95972,-12.17158 z"
     id="path56"
     style="stroke-width:0.415118" />
  <path
     fill="#fefefe"
     d="m 437.35007,226.8411 5.55178,-0.11141 c 2.85289,1.46664 3.16898,2.09004 4.9723,4.72099 0.0446,3.40403 0.85505,5.56211 -1.71822,7.96853 -0.66054,0.92277 -0.58355,0.97167 -1.58449,1.38075 -1.26435,-1.49514 -6.13128,-11.63153 -7.22137,-13.95886 z"
     id="path57"
     style="stroke-width:0.415118" />
  <path
     fill="#fefefe"
     d="m 449.41406,249.58793 c 3.36754,-0.0502 4.22665,0.19646 7.20516,1.47472 1.56017,2.52251 1.97757,3.51672 2.94204,6.31436 -0.52681,1.82852 -0.66054,2.45575 -1.51559,4.10397 -0.77807,1.02015 -1.1752,1.78983 -2.33419,2.20358 -2.01404,-4.74353 -3.94703,-9.53128 -6.29742,-14.09663 z"
     id="path58"
     style="stroke-width:0.415118" />
  <path
     fill="#fefefe"
     d="m 545.67473,181.99594 c 1.28461,1.68819 5.77467,11.44825 6.29743,13.63015 -0.87127,0.78924 -0.98474,0.54303 -2.38281,0.69824 -7.71982,-2.91373 -8.38847,-7.94429 -3.91462,-14.32839 z"
     id="path59"
     style="stroke-width:0.415118" />
  <path
     fill="#fefefe"
     d="m 533.42838,160.05409 c 2.55706,0.91298 8.21016,10.61649 7.55367,12.97613 -8.39252,-0.38058 -10.29714,-5.11093 -7.55367,-12.97613 z"
     id="path60"
     style="stroke-width:0.415118" />
  <path
     fill="#fefefe"
     d="m 395.90254,180.39832 c 0.85546,-0.0591 1.71457,0.0179 2.54855,0.22793 4.31865,1.04566 8.1048,7.99617 4.89368,9.74602 l -1.06619,-0.51113 -11.20366,-7.36555 c 1.66351,-0.84112 3.11305,-1.40838 4.82762,-2.09727 z"
     id="path61"
     style="stroke-width:0.415118" />
  <path
     fill="#fefefe"
     d="m 445.48323,207.15769 c 2.06672,2.0488 7.69956,8.84665 9.06522,11.18418 l -0.32014,0.60894 c -4.14561,0.15649 -4.44143,0.0442 -8.06833,-2.08069 -2.13561,-4.20347 -2.76373,-5.23808 -0.67675,-9.71243 z"
     id="path62"
     style="stroke-width:0.415118" />
  <path
     fill="#fefefe"
     d="m 481.20512,183.9767 c 1.32108,0.66507 7.80492,9.50576 7.64283,10.92606 -3.66337,1.67033 -3.95109,1.46367 -7.75224,0.35975 -0.008,-3.72721 0.0689,-7.55052 0.10941,-11.28581 z"
     id="path63"
     style="stroke-width:0.415118" />
  <path
     fill="#fefefe"
     d="m 389.5265,96.585212 c 2.04362,0.30064 11.79774,2.98985 12.96686,4.720138 l -0.89598,1.11965 c -5.68673,3.13655 -10.81707,0.9402 -12.07088,-5.839788 z"
     id="path64"
     style="stroke-width:0.415118" />
  <path
     fill="#fefefe"
     d="m 504.27948,180.30179 c 4.78993,-0.0353 5.50316,0.43332 8.86665,3.89858 0.5957,2.29374 0.80642,3.93898 0.61191,6.31308 -2.39902,0.46777 -8.10075,-8.22537 -9.47856,-10.21166 z"
     id="path65"
     style="stroke-width:0.415118" />
  <path
     fill="#fefefe"
     d="m 502.09929,227.85147 0.6808,0.66592 c 0.37687,2.36049 2.04646,10.88226 0.86316,12.8643 l -0.94015,-0.12077 c -5.03714,-4.24685 -4.48601,-8.65019 -0.60381,-13.40945 z"
     id="path66"
     style="stroke-width:0.415118" />
  <path
     fill="#fefefe"
     d="m 556.52705,204.88352 c 1.06578,1.27231 4.17802,7.98511 4.82641,9.74092 l -0.24315,0.47797 -0.80642,-0.27088 c -2.64217,-1.72731 -4.67647,-3.21607 -7.01065,-5.35885 1.17925,-1.47217 2.17614,-3.02003 3.23381,-4.58916 z"
     id="path67"
     style="stroke-width:0.415118" />
  <path
     fill="#fefefe"
     d="m 453.54345,203.57676 c 4.85477,1.82852 6.88503,6.00649 4.89125,11.06214 l -0.0973,0.3134 -0.5957,0.0901 c -1.75064,-2.08452 -3.34729,-8.52559 -4.19829,-11.46569 z"
     id="path68"
     style="stroke-width:0.415118" />
  <path
     fill="#dedfe2"
     d="m 486.37598,414.74309 c 0.36877,0.14246 0.12968,0.0187 0.60381,0.56344 -1.05768,1.95737 -7.54151,4.07336 -9.83922,4.98975 l -0.79427,-0.93595 c 0.91584,-1.7405 7.82923,-3.77526 10.02968,-4.61724 z"
     id="path69"
     style="stroke-width:0.415118" />
  <path
     fill="#dedfe2"
     d="m 470.64457,420.38005 c 0.77806,0.51666 2.67458,2.23122 3.48101,2.91883 l -4.5711,3.17823 c -0.92395,0.76968 -0.44171,0.66167 -1.41429,0.72928 0.0567,-1.52107 1.84384,-5.00845 2.50438,-6.82634 z"
     id="path70"
     style="stroke-width:0.415118" />
  <path
     fill="#5e6062"
     d="m 521.36034,145.07168 c 1.5237,0.88322 3.02309,2.49232 3.35538,4.33403 -1.77495,-0.92149 -2.86099,-2.34944 -3.35538,-4.33403 z"
     id="path71"
     style="stroke-width:0.415118" />
</svg>
