<svg version="1.1" xmlns="http://www.w3.org/2000/svg" style="display: block;" viewBox="0 0 1124 1024" width="281" height="256" preserveAspectRatio="none">
<path transform="translate(0,0)" fill="rgb(255,255,255)" d="M 53.5114 0 L 487.67 0 C 494.465 4.15281 496.53 6.56181 504.953 6.91232 C 518.25 7.4656 536.177 9.01955 549.163 7.11001 C 554.727 7.3549 560.016 7.57149 565.569 8.10783 C 576.116 11.8372 582.495 16.2796 592.177 21.6183 C 609.376 20.451 629.536 11.5152 647.504 9.1624 C 655.122 8.16484 681.943 9.01061 686.169 5.49765 C 685.625 3.32553 685.564 2.81205 685.564 0.552647 L 685.569 0 L 794.008 0 C 801.753 11.1971 829.774 26.2532 841.788 34.4131 L 908.062 79.744 C 931.947 96.0265 955.202 112.73 978.699 129.535 C 988.405 136.478 999.446 142.542 1009.3 149.362 C 1019.55 156.463 1030.03 163.897 1039.93 171.545 C 1045.72 176.021 1058.31 180.524 1062.4 185.293 C 1067.07 190.733 1065.57 204.852 1064.54 211.839 L 1029.58 440.06 C 1025.58 467.05 1023.57 500.302 1016.95 525.941 C 1014.27 536.316 965.841 567.501 955.794 574.738 L 853.942 647.942 C 840.438 657.459 811.013 676.04 798.235 688.392 C 779.684 706.325 772.221 774.225 762.408 800.121 C 759.35 808.192 759.781 823.159 756.705 831.902 C 755.138 840.69 748.198 854.144 747.254 862.059 C 744.354 886.37 735.225 909.253 730.095 932.264 L 716.022 993.559 C 714.058 1002.06 711.557 1016.42 708.43 1024 L 645.363 1024 C 644.227 1018.11 638.313 1018.73 633.357 1018.55 C 609.014 1017.67 584.849 1010.89 560.78 1008.31 C 520.845 1002.74 477.494 1002.91 437.994 995.788 C 402.031 989.304 368.058 989.146 332.458 983.462 C 327.229 982.628 322.737 971.291 320.29 966.516 C 301.518 962.658 264.473 963.131 243.787 961.832 C 163.101 956.765 80.4645 958.768 0 955.383 L 0 596.366 C 7.80636 596.452 20.7324 598.637 27.1849 595.282 C 31.3412 589.469 32.7047 556.186 33.6936 547.595 C 45.3344 446.471 41.1882 344.768 45.8797 243.363 C 46.8318 222.784 45.5317 201.3 46.1709 180.562 L 50.6265 53.5211 C 51.4447 35.2942 53.1362 18.6668 53.5114 0 z"/>
<path transform="translate(0,0)" fill="rgb(0,0,0)" d="M 651.173 92.4137 C 668.192 88.9911 724.413 95.3776 743.195 99.6576 C 753.753 102.063 778.257 110.488 789.182 114.529 C 849.147 136.714 903.457 179.033 931.054 237.733 C 935.892 248.025 945.196 272.051 946.998 283.602 C 952.134 316.511 951.228 359.585 944.371 392.276 C 942.927 399.159 939.113 401.801 937.09 407.191 C 934.324 414.563 931.684 425.737 928.921 432.814 C 925.373 441.902 914.312 466.539 908.469 474.008 C 887.513 500.799 857.286 533.595 826.416 548.52 C 815.691 553.705 803.959 556.283 793.364 560.653 C 777.768 567.085 760.877 574.623 745.914 581.452 C 689.748 607.087 698.018 626.013 680.691 673.152 C 659.87 669.507 637.257 661.216 617.203 654.937 C 596.547 648.469 575.898 643.422 555.142 637.692 C 541.672 633.974 532.392 628.785 517.52 626.468 C 520.067 612.604 522.43 600.702 525.82 587.039 C 531.097 571.266 536.033 554.671 541.563 538.965 C 550.328 514.072 555.525 511.589 568.905 492.807 C 602.01 446.333 651.149 432.901 700.873 410.986 C 722.1 401.63 741.68 382.254 749.983 359.995 C 755.08 344.629 756.616 317.833 749.166 303.599 C 734.078 274.774 686.482 250.901 655.928 267.624 C 621.466 286.485 611.109 316.749 599.799 351.65 C 592.238 348.348 581.789 341.678 573.939 337.619 L 505.865 302.709 C 488.683 293.762 468.737 286.733 452.997 275.434 C 450.545 273.674 449.738 269.989 449.401 267.009 C 448.545 259.442 451.924 252.775 453.567 245.898 C 459.6 220.656 476.999 192.739 494.172 172.499 C 520.188 141.836 564.407 112.351 602.821 99.8622 C 613.697 96.3263 639.273 93.5375 651.173 92.4137 z"/>
<path transform="translate(0,0)" fill="rgb(0,0,0)" d="M 186.363 87.8537 C 245.381 93.4062 304.501 97.8153 363.689 101.078 C 394.005 102.624 417.592 105.283 448.098 103.687 C 449.495 139.316 443.075 137.066 433.239 167.517 L 388.364 306.534 C 382.126 325.347 373.262 345.66 368.092 364.5 C 359.717 395.021 354.643 426.264 343.088 456.255 C 339.267 466.171 338.93 486.492 334.898 495.915 C 322.608 524.639 320.12 555.105 311.396 584.116 C 300.38 613.972 291.635 629.249 292.093 661.202 C 237.639 657.87 191.227 646.518 137.097 644.429 C 130.023 602.438 132.622 559.105 132.417 516.379 C 132.267 485.033 125.571 459.121 126.116 428.774 C 126.538 405.249 133.34 376.443 137.526 352.761 L 162.14 219.513 C 166.697 195.349 170.388 171.284 175.189 147.062 C 178.268 131.527 185.863 102.42 186.363 87.8537 z"/>
<path transform="translate(0,0)" fill="rgb(0,0,0)" d="M 500.86 683.658 C 507.29 692.179 541.473 699.533 553.458 703.542 C 587.919 715.067 622.735 725.624 657.861 734.872 C 662.511 736.096 678.308 746.228 683.42 749.263 C 677.877 748.818 671.811 748.045 666.236 747.447 C 664.088 785.878 651.679 821.26 639.673 857.439 C 636.238 867.789 634.849 880.324 631.695 890.277 C 627.807 902.547 623.234 915.028 619.191 927.381 C 618.347 928.088 615.46 930.857 614.615 930.555 C 568.648 914.117 521.416 902.049 475.205 886.075 C 458.482 881.992 434.239 881.738 444.186 855.5 C 461.124 810.823 472.755 719.259 500.86 683.658 z"/>
<path transform="translate(0,0)" fill="rgb(0,0,0)" d="M 114.331 678.651 C 116.803 680.999 116.818 687.521 117.203 691.257 C 131.648 692.89 148.036 692.002 162.855 693.112 C 187.165 694.932 212.27 697.425 236.428 700.347 C 257.441 702.888 302.89 701.465 320.285 713.998 L 320.37 715.338 C 316.429 716.942 313.466 716.522 309.186 716.382 C 308.059 754.412 302.521 777.461 292.627 813.631 C 288.711 827.947 286.035 859.534 284.39 874.77 C 284.062 875.216 284.121 875.186 283.604 875.595 C 273.994 883.199 157.065 867.374 136.731 865.488 C 117.71 863.724 98.5231 863.472 79.5777 861.209 C 86.7133 819.033 89.3489 777.211 96.5719 735.082 C 101.067 708.867 100.226 701.55 114.331 678.651 z"/>
<path transform="translate(0,0)" fill="rgb(254,254,254)" fill-opacity="0.0117647" d="M 561.27 0 L 685.569 0 L 685.564 0.552647 C 685.564 2.81205 685.625 3.32553 686.169 5.49765 C 681.943 9.01061 655.122 8.16484 647.504 9.1624 C 629.536 11.5152 609.376 20.451 592.177 21.6183 C 582.495 16.2796 576.116 11.8372 565.569 8.10783 C 557.483 4.97245 554.596 4.5732 546.25 4.5829 C 551.975 2.69529 556.16 4.45091 561.27 0 z"/>
<path transform="translate(0,0)" fill="rgb(254,254,254)" fill-opacity="0.603922" d="M 487.67 0 L 529.682 0 C 528.416 2.24652 527.958 3.00819 525.717 4.31258 L 525.887 5.59649 C 531.18 7.34026 542.64 6.50709 549.163 7.11001 C 536.177 9.01955 518.25 7.4656 504.953 6.91232 C 496.53 6.56181 494.465 4.15281 487.67 0 z"/>
<path transform="translate(0,0)" fill="rgb(254,254,254)" fill-opacity="0.352941" d="M 529.682 0 L 561.27 0 C 556.16 4.45091 551.975 2.69529 546.25 4.5829 C 554.596 4.5732 557.483 4.97245 565.569 8.10783 C 560.016 7.57149 554.727 7.3549 549.163 7.11001 C 542.64 6.50709 531.18 7.34026 525.887 5.59649 L 525.717 4.31258 C 527.958 3.00819 528.416 2.24652 529.682 0 z"/>
</svg>