<svg version="1.1" xmlns="http://www.w3.org/2000/svg" style="display: block;" viewBox="0 0 1024 1044" width="256" height="261" preserveAspectRatio="none">
<path transform="translate(0,0)" fill="rgb(255,255,255)" d="M 290.814 0 L 346.746 0 C 354.178 11.1375 406.671 14.8538 420.464 18.5844 C 434.625 22.4146 450.395 26.2658 464.802 29.7016 C 490.998 31.496 510.515 38.0165 535.476 43.7516 L 663.663 72.4401 C 671.844 74.2711 698.975 74.2184 703.093 80.3099 C 709.449 89.7114 698.364 105.253 692.349 113.319 C 703.356 117.401 718.759 124.862 729.239 127.755 C 819.516 152.675 909.086 180.006 998.894 206.341 C 1007.04 208.73 1015.67 212.29 1024 213.605 L 1024 280.659 C 1014.86 287.291 1002.23 313.226 995.819 324.126 L 954.209 394.241 L 810.205 634.073 C 793.456 661.873 763.082 708.399 747.69 738.534 C 745.454 742.913 756.135 762.117 751.068 771.301 C 739.307 792.62 723.136 816.942 710.606 837.266 L 638.62 953.568 C 627.287 971.669 614.175 998.152 598.5 1012.94 L 435.613 976.201 C 414.783 971.318 395.718 965.322 374.049 962.288 C 365.727 961.123 352.201 955.824 342.823 953.72 C 337.045 952.423 301.904 948.795 300.596 944.394 C 297.4 933.648 298.555 922.635 284.416 917.65 C 259.11 909.562 230.737 910.112 204.989 905.303 C 170.891 898.935 138.175 892.276 103.419 889.65 C 92.7838 888.846 79.8937 882.79 68.9501 881.872 C 49.0155 878.679 17.3471 879.465 0 871.248 L 0 839.132 L 2.46678 838.883 C 7.64111 834.612 23.5797 755.028 28.9443 742.292 C 31.2203 734.531 31.572 723.482 34.2045 716.16 C 50.7316 670.192 57.7688 621.758 72.4015 575.393 C 78.8688 554.902 105.254 575.021 112.296 556.59 C 115.671 547.757 116.943 537.695 119.955 528.633 L 148.334 443.263 C 151.336 434.275 155.773 425.406 158.768 416.395 L 200.426 288.458 C 205.51 272.366 210.836 256.177 215.845 240.172 C 240.743 160.617 262.116 78.1924 290.814 0 z"/>
<path transform="translate(0,0)" fill="rgb(0,0,0)" d="M 332.847 116.84 C 345.294 116.365 369 127.474 382.297 131.17 C 408.236 138.59 434.262 143.258 459.374 153.526 C 485.052 164.025 512.208 169.954 538.588 178.182 C 554.4 183.113 569.946 189.405 585.786 194.574 C 574.868 204.805 570.093 222.481 562.575 236.302 L 504.774 344.312 C 500.12 353.089 493.133 362.39 488.081 371.402 L 433.945 469.843 L 388.679 551.686 C 379.85 567.469 375.228 577.986 364.687 593.625 C 360.002 602.5 355.445 611.495 350.755 620.348 C 342.369 636.179 333.451 645.965 330.284 664.018 C 307.316 664.669 285.877 653.66 264.408 647.012 C 243.892 640.586 223.089 635.094 203.044 627.249 C 195.068 624.127 189.733 620.929 182.768 616.018 C 190.277 601.061 190.789 580.072 194.269 563.036 L 217.684 452.849 C 220.707 438.496 222.014 423.955 226.19 409.907 C 229.557 398.582 234.08 387.764 238.077 376.665 L 263.203 306.321 L 311.361 173.001 C 315.726 161.08 326.319 125.4 332.847 116.84 z"/>
<path transform="translate(0,0)" fill="rgb(0,0,0)" d="M 651.591 223.439 C 657.562 225.509 663.648 227.266 669.713 229.042 C 683.015 232.936 696.091 237.591 709.507 241.098 C 723.291 245.236 740.116 247.143 753.556 251.902 C 785.259 263.126 815 273.797 848.314 279.77 C 860.82 282.012 875.7 289.139 888.279 292.533 C 891.743 293.468 895.524 295.193 898.995 296.187 C 903.914 298.176 917.081 301.985 918.45 307.439 C 919.882 313.15 911.355 323.324 908.196 327.56 C 900.13 338.378 892.761 349.281 884.706 360.052 C 856.608 393.17 835.54 430.731 809.723 465.521 C 804.531 472.516 798.676 479.159 793.451 486.111 C 785.605 496.55 779.879 508.809 772.837 519.824 C 766.182 530.635 759.555 541.446 752.951 552.272 C 743.309 568.08 732.671 583.104 722.902 598.809 C 709.164 622.952 696.264 646.395 680.57 669.456 C 674.425 678.784 668.581 687.751 662.989 697.499 C 654.047 713.086 647.133 731.183 634.528 744.19 C 631.445 747.371 629.643 749.037 625.172 748.613 C 616.318 747.773 606.151 743.268 597.874 740.023 C 583.803 734.59 569.823 728.925 555.94 723.031 C 535.978 714.516 512.175 702.575 490.349 702.883 C 494.544 682.215 502.593 661.492 506.537 640.79 C 515.152 594.836 528.521 550.16 539.264 504.703 C 545.475 478.424 557.647 455.603 567.432 430.942 L 630.626 274.245 C 637.534 257.044 645.026 241.024 651.591 223.439 z"/>
<path transform="translate(0,0)" fill="rgb(0,0,0)" d="M 453.767 733.991 C 470.135 733.275 481.623 745.067 496.839 748.94 C 544.584 761.091 595.234 786.876 643.205 795.485 C 635.679 807.662 625.065 832.94 617.904 846.97 L 588.516 904.81 C 583.629 914.43 577.44 924.416 573.355 934.254 C 572.189 937.846 572.562 938.652 570.138 940.85 C 550.256 934.045 398.455 886.225 391.996 879.119 C 390.475 877.446 390.429 874.825 390.598 872.663 C 391.512 860.927 434.447 762.657 443.324 746.916 C 446.222 741.776 449.343 737.922 453.767 733.991 z"/>
<path transform="translate(0,0)" fill="rgb(0,0,0)" d="M 153.525 656.952 C 186.18 670.205 211.965 676.859 246.096 685.238 C 268.554 690.751 291.164 701.792 314.694 706.514 C 323.961 708.374 338.047 709.131 345.094 711.009 L 345.823 712.443 L 344.851 713.75 C 341.296 715.333 336.116 715.201 332.103 715.375 C 332.212 745.647 315.865 761.111 304.973 786.532 C 295.633 808.33 285.218 830.618 276.101 852.334 L 271.517 862.519 C 252.711 851.003 220.981 846.098 199.8 840.269 C 180.785 834.131 160.265 828.065 141.548 821.488 C 130.581 817.635 97.7976 810.168 90.3361 803.791 C 89.8626 801.737 89.9793 797.293 90.6845 795.348 C 105.627 754.138 120.052 711.763 138.416 671.976 C 141.548 665.189 147.677 660.785 153.525 656.952 z"/>
</svg>