<svg version="1.1" xmlns="http://www.w3.org/2000/svg" style="display: block;" viewBox="0 0 1024 1172" width="256" height="293" preserveAspectRatio="none">
<path transform="translate(0,0)" fill="rgb(254,254,254)" d="M 592.646 28.378 C 621.811 25.2324 631.308 45.047 652.63 60.8154 C 661.454 67.3411 671.96 74.8462 680.029 81.941 C 741.282 135.797 805.147 186.667 867.67 238.993 C 884.934 255.418 867.905 283.389 866.035 301.872 C 862.06 341.148 852.661 377.645 847.444 416.501 C 846.594 422.836 845.496 436.756 843.787 442.315 C 835.875 468.054 833.316 492.27 830.713 518.893 C 829.318 531.359 823.921 546.33 821.727 559.467 C 819.451 573.095 819.195 593.432 809.262 603.351 C 777.48 631.351 743.645 656.319 710.965 683.134 C 677.507 710.587 642.523 736.058 610.113 764.802 C 590.868 781.871 587.481 805.837 577.424 828.32 L 528.117 938.859 C 513.261 971.622 497.137 1003.22 484.963 1037.14 C 483.654 1040.78 482.667 1044.45 479.844 1047.2 C 466.541 1052.04 394.951 1030.99 377.115 1026.36 C 342.254 1017.3 304.325 1009.5 269.752 999.756 C 253.892 995.201 237.906 991.097 221.813 987.449 C 197.898 982.098 155.83 974.658 135.796 963.412 C 131.148 941.679 143.54 906.367 148.104 884.292 L 179.572 733.397 C 181.86 722.872 182.806 712.008 184.997 701.528 C 187.752 686.23 192.827 670.577 195.556 655.352 C 200.208 629.409 214.206 610.931 227.612 588.801 L 263.477 528.31 C 272.949 512.453 290.874 478.417 301.633 464.511 C 293.092 459.587 284.377 454.479 275.211 450.81 C 268.334 448.058 261.107 446.207 254.13 443.726 C 244.367 440.254 234.795 436.182 224.929 433.016 C 201.494 425.495 118.093 401.454 103.968 388.971 C 101.879 387.124 100.708 385 100.595 382.165 C 100.428 378 102.45 373.175 104.07 369.396 C 107.35 361.742 112.625 355.086 115.983 347.484 C 126.412 323.87 136.939 300.039 146.981 276.249 C 150.857 267.065 153.959 257.541 158.047 248.451 C 163.836 235.575 171.269 223.481 177.225 210.716 C 181.793 200.926 185.491 190.709 189.897 180.836 C 195.219 168.909 201.28 157.306 206.5 145.335 C 210.873 135.308 214.503 125.03 219.356 115.2 C 224.243 105.302 229.532 94.9766 236.912 86.6799 C 252.714 80.2599 267.206 82.4938 283.478 79.4861 C 310.209 74.5453 336.684 70.2051 363.615 66.4885 C 385.9 63.4132 408.309 57.6254 430.55 54.05 C 444.158 51.8624 458.269 51.5834 471.861 49.163 L 548.477 36.1107 C 563.424 33.5176 577.477 30.1838 592.646 28.378 z"/>
<path transform="translate(0,0)" fill="rgb(0,0,0)" d="M 475.054 129.406 C 476.014 129.422 476.973 129.447 477.932 129.482 C 503.525 130.425 545.359 138.584 570.794 144.976 C 591.232 150.111 632.013 164.583 650.551 173.577 C 679.659 189.443 697.979 203.958 721.933 227.469 C 773.913 278.485 784.707 353.225 772.688 421.915 C 770.085 436.789 745.137 497.136 735.991 508.965 C 717.526 532.847 679.899 569.584 651.989 582.02 C 634.512 589.026 611.01 598.997 594.17 604.963 C 566.491 614.769 555.756 617.808 531.846 632.992 C 505.301 649.85 501.157 704.828 495.037 710.434 C 487.11 708.161 479.329 706.592 471.277 704.772 C 443.797 698.56 414.883 688.094 387.805 681.516 C 319.053 664.811 315.489 679.566 332.753 607.257 C 338.277 586.076 355.216 550.909 369.711 535.043 C 391.694 510.981 418.366 487.461 448.174 473.88 C 461.791 467.676 478.112 463.949 492.145 458.318 C 508.426 453.037 521.872 442.151 536.122 433.593 C 554.938 422.294 558.682 406.076 566.167 387.017 C 570.632 375.648 571.09 367.364 566.338 355.755 C 558.716 337.134 546.433 316.785 525.877 310.833 C 515.024 307.555 503.532 305.266 493.456 300.791 C 476.191 304.994 459.074 310.831 444.743 321.644 C 439.896 325.232 435.598 329.506 431.983 334.332 C 427.072 340.943 414.465 366.936 409.652 376.099 C 409.027 377.289 407.726 386.235 407.442 388.258 C 383.398 384.709 345.751 362.024 321.504 352.205 C 294.99 341.467 275.673 325.663 245.033 322.315 C 244.346 317.727 243.802 313.045 243.502 308.416 C 242.188 288.178 270.286 236.989 283.971 221.543 C 317.177 184.064 350.588 157.839 399.399 144.172 C 408.856 141.524 418.694 140.052 428.294 137.987 C 443.62 134.69 459.382 130.341 475.054 129.406 z"/>
<path transform="translate(0,0)" fill="rgb(0,0,0)" d="M 290.918 729.003 C 305.442 730.351 318.372 730.296 333.459 733.025 C 349.018 735.84 361.651 743.346 376.646 747.27 C 409.132 755.772 449.887 761.545 479.535 777.611 C 482.417 779.173 485.394 783.546 485.729 787.075 C 488.667 801.82 472.361 793.832 473.383 803.525 C 475.928 820.774 467.005 835.869 464.047 851.878 C 459.35 877.303 453.172 900.679 443.981 924.837 C 441.045 932.553 436.617 956.381 432.418 961.618 C 414.591 963.729 351.523 946.244 331.929 940.331 C 315.72 935.439 297.024 932.432 280.578 927.34 C 265.864 922.784 250.273 916.601 235.162 913.657 C 246.433 892.813 254.611 857.782 263.023 834.885 C 266.791 824.629 267.531 806.733 271.55 796.567 C 280.936 772.82 287.254 754.391 290.918 729.003 z"/>
</svg>