<svg version="1.1" xmlns="http://www.w3.org/2000/svg" style="display: block;" viewBox="0 0 1024 1176" width="256" height="294" preserveAspectRatio="none">
<path transform="translate(0,0)" fill="rgb(255,255,255)" d="M 415.856 0 L 902.591 0 C 902.872 7.11824 900.475 5.93097 901.761 8.71775 C 911.082 11.4082 921.328 10.5032 930.653 12.7663 C 936.795 14.2571 943.149 16.2918 949.238 17.9671 C 971.629 24.1281 994.488 26.9055 1016.08 35.9883 C 1018.48 36.9993 1021.47 38.0026 1024 38.6374 L 1024 196.897 C 1019.28 198.372 1020.12 197.691 1016.75 201.689 C 1008.08 211.977 1002.82 224.66 996.005 235.578 C 989.121 246.597 983.016 257.416 976.421 268.383 C 968.143 282.151 958.356 295.851 949.737 309.9 L 737.499 649.09 L 679.348 741.392 C 669.548 756.656 653.881 778.581 645.855 794.05 C 645.003 795.691 644.178 797.348 643.382 799.017 C 646.489 806.407 649.394 813.88 652.096 821.427 C 646.006 850.788 624.47 870.993 609.955 896.213 C 603.191 907.965 595.649 920.736 590.061 932.979 C 581.1 952.612 567.332 968.631 555.797 986.717 C 551.555 993.338 548.744 1001.09 544.8 1007.81 C 518.572 1052.47 490.048 1095.41 465.798 1141.29 C 459.59 1153.03 451.129 1163.29 444.77 1176 L 336.022 1176 C 335.597 1173.37 334.866 1169.26 332.353 1168.38 C 320.182 1164.16 303.63 1164.58 291.611 1161.15 C 280.636 1158.01 269.234 1152.92 258.228 1149.71 L 119.705 1110.2 C 114.006 1108.56 87.6221 1103.39 84.9414 1101.95 C 71.5292 1094.75 14.4157 1084.87 7.57231 1077.25 C 5.23655 1056.82 6.12137 1060.07 8.8767 1041.12 C 19.3128 1016.12 18.1266 999.37 24.7365 974.212 C 26.082 969.091 34.9085 957.233 37.2085 949.923 C 41.2944 939.751 42.0649 926.716 45.6698 916.691 C 53.5357 894.814 59.0727 873.14 64.7345 850.665 C 67.0331 841.54 74.8485 831.387 77.6875 822.152 C 80.9436 811.559 81.0399 800.175 84.2227 789.553 C 85.9082 781.773 94.5894 768.642 95.7324 761.536 C 100.075 734.539 106.678 712.367 118.064 687.465 C 120.927 681.203 120.813 668.009 122.761 660.397 C 125.425 649.989 141.234 651.423 148.72 645.008 C 171.016 627.984 181.97 590.623 194.109 565.599 C 196.183 561.325 198.044 549.218 200.614 543.58 C 203.47 537.31 210.552 528.462 212.365 523.667 C 221.129 500.487 231.956 479.266 240.736 456.1 C 243.081 449.912 248.658 440.639 251.635 433.886 C 255.401 425.339 258.638 415.081 262.473 406.988 C 272.579 384.283 282.577 361.633 292.239 338.696 C 299.38 321.743 304.308 300.79 312.304 283.673 C 315.624 276.566 317.328 263.311 320.76 256.614 C 329.152 240.241 335.086 225.737 339.527 207.756 C 341.505 199.942 347.143 190.395 349.373 182.297 C 354.283 164.468 359.949 148.093 368.621 131.728 C 371.743 125.712 373.793 114.071 376.685 107.171 C 380.532 97.9963 383.848 88.0044 387.59 78.7186 C 390.156 71.7946 393.306 58.9006 396.024 52.8922 C 405.629 31.6603 410.953 23.4041 415.856 0 z"/>
<path transform="translate(0,0)" fill="rgb(0,0,0)" d="M 544.35 64.243 C 565.887 62.7048 573.098 71.9706 591.453 76.2187 C 619.997 82.8248 644.616 92.9646 672.047 102.142 C 716.442 116.989 761.078 131.107 805.936 144.49 C 821.239 148.98 832.88 154.449 847.429 159.287 C 855.951 162.121 873.599 163.031 883.067 163.643 C 883.27 171.861 883.397 179.561 878.942 186.813 C 866.566 206.961 853.701 226.161 840.144 245.529 C 832.919 256.224 826.712 267.877 819.289 278.426 C 802.294 302.581 785.164 326.272 766.107 348.84 C 760.057 356.004 755.04 367.989 749.001 375.773 C 735.255 393.493 722.965 411.8 711.437 431.02 C 705.792 440.373 697.764 449.388 691.951 458.804 C 685.763 468.827 679.802 478.992 673.552 488.972 C 656.723 512.729 640.982 536.576 625.559 561.276 C 621.02 568.545 617.047 580.331 612.82 586.898 C 594.964 614.104 578.603 642.052 559.68 668.571 C 555.736 674.097 551.841 681.355 548.406 687.266 C 543.3 696.055 538.343 704.091 532.499 712.4 C 519.648 731.518 510.127 757.192 495.556 776.337 C 491.686 781.422 488.752 792.724 484.41 797.957 C 469.546 799.943 445.446 788.937 430.496 788.845 C 414.861 788.749 411.064 779.435 401.621 776.968 C 377.474 771.973 355.556 761.135 332.773 753.448 C 308.359 745.209 294.461 746.887 277.663 723.381 C 299.872 681.441 301.972 625.33 316.269 580.195 C 319.553 569.828 323.924 558.806 326.503 548.341 L 346.245 468.452 C 353.357 439.062 354.108 423.965 372.86 398.871 C 378.576 389.344 382.83 375.614 388.354 366.486 C 404.03 340.58 415.345 313.601 428.554 286.708 C 456.604 228.974 485.55 171.68 515.381 114.846 C 523.224 99.6948 528.675 82.797 536.665 67.7074 C 537.958 65.2651 541.63 64.794 544.35 64.243 z"/>
<path transform="translate(0,0)" fill="rgb(0,0,0)" d="M 225.518 778.626 L 226.705 779.853 C 227.038 782.618 226.889 783.292 228.54 785.372 C 250.838 797.827 259.156 775.706 287.963 807.359 C 300.335 811.278 313.17 810.938 326.041 811.749 C 342.608 812.794 346.084 816.687 356.165 827.994 C 368.851 831.273 384.639 832.023 396.753 836.023 C 404.481 838.742 415.084 847.541 422.974 848.856 C 444.85 852.501 461.412 854.166 479.931 867.906 C 483.412 870.489 488.898 871.39 492.441 874.951 C 489.028 887.767 479.327 895.836 475.64 904.856 C 467.588 924.56 458.675 943.733 449.394 962.904 C 444.257 973.513 433.76 985.02 428.494 996.312 C 418.193 1018.4 405.305 1047.57 392.31 1068.17 C 382.315 1077.99 320.064 1051.09 305.724 1046.17 L 194.327 1008.02 C 179.928 1003.19 163.009 1000.92 148.944 995.08 C 143.563 992.847 133.081 983.687 128.39 979.742 C 145.636 961.321 156.06 924.844 164.372 902.004 C 166.858 895.172 174.683 884.31 177.913 876.617 C 182.399 865.936 186.361 854.837 190.962 844.284 C 200.909 821.607 212.457 799.665 225.518 778.626 z"/>
<path transform="translate(0,0)" fill="rgb(254,253,254)" fill-opacity="0.945098" d="M 0 1043.6 C 3.89982 1045.15 5.31681 1043.14 8.8767 1041.12 C 6.12137 1060.07 5.23655 1056.82 7.57231 1077.25 C 3.97517 1073.41 4.33544 1073.44 0 1073.04 L 0 1043.6 z"/>
</svg>