<svg id="vector" xmlns="http://www.w3.org/2000/svg" width="218" height="170" viewBox="0 0 218 170"><path fill="#000000" d="M99.21,144.84L106.92,156.2L217.91,120.69L189.27,5.3L126.27,0.17L122.65,28.67L112.78,13.51L109.09,2.71L71.34,18.62L68.67,6.05L0.09,20.15L40.77,170L99.21,144.84Z" id="path_0"/><path fill="#FD1700" d="M24.15,42.43L60.07,27.32L84.34,140.52L56.85,146.21L24.15,42.43Z" id="path_1"/><path fill="#FDFDFD" d="M108.11,134.34L129.92,128.56L105.98,48.61L139.36,97.31L141.89,34L167.26,120.75L189.27,115.07L171.01,16.86L136.41,13.51L132.05,63.83L107.72,29.39L103.92,19.02L73,31.27L108.11,134.34Z" id="path_2"/></svg>