<svg xmlns="http://www.w3.org/2000/svg" version="1.1" style="display: block;" viewBox="0 0 1024 1024" width="256" height="256" preserveAspectRatio="none">
<path transform="translate(0,0)" fill="rgb(6,4,7)" d="M 514.021 84.2504 C 546.499 80.8097 640.525 118.175 667.941 139.927 C 688.406 156.165 724.282 205.964 734.753 232.191 C 736.249 235.937 737.04 242.95 737.562 247.252 C 743.589 239.506 752.927 230.399 762.141 227.919 C 797.62 219.172 821.149 222.205 849.022 245.796 C 881.335 273.146 887.219 291.912 901.078 330.3 C 908.858 336.829 921.877 342.908 929.505 349.056 C 951.293 366.617 967.197 395.569 977.937 420.989 C 985.965 439.989 991.273 468.04 994.153 488.672 C 995.928 511.038 994.599 529.143 995.076 552.267 C 995.692 582.165 1008.62 628.48 998.217 656.229 C 992.545 671.358 974.215 694.103 965.373 707.95 C 957.599 720.123 944.757 728.814 938.918 743.439 C 939.024 748.237 941.813 754.396 944.522 758.307 C 964.352 786.939 970.219 786.813 1000.76 794.237 C 994.305 795.589 988.19 797.283 981.775 798.741 C 959.062 803.901 942.264 789.98 924.328 777.964 C 922.533 787.369 920.861 795.07 918.434 804.321 C 923.909 807.961 940.552 814.975 944.27 819.043 C 980.416 858.583 982.884 917.928 999.57 966.858 C 1002.75 976.188 1006.68 992.89 1007.56 1001.86 C 992.292 1002.99 975.968 1002.54 960.576 1002.53 L 887.293 1002.51 L 664.5 1002.7 C 470.449 1002.51 274.942 1004.78 80.9985 1002.69 C 90.8159 976.848 98.5565 948.701 107.794 922.532 C 112.17 910.135 116.681 892.691 123.393 881.705 C 132.863 866.202 159.519 861.692 166.841 843.784 C 169.723 836.736 170.048 831.168 170.658 823.996 C 173.241 793.632 153.883 784.821 137.995 763.432 C 129.393 751.852 123.54 740.475 118.379 726.797 C 98.715 674.685 104.708 624.386 134.916 577.906 C 142.834 565.722 153.432 559.191 154.752 543.572 C 155.92 529.758 149.588 517.425 146.671 505.04 C 139.734 475.581 125.601 447.482 134.549 417.229 C 138.338 404.42 141.876 394.471 146.091 382.034 C 150.254 369.748 151.174 355.834 156.779 343.466 C 161.3 333.489 165.579 328.38 171.984 320.092 C 186.419 301.416 197.438 294.481 219.476 286.219 C 231.675 281.645 249.868 275.717 263.039 278.947 C 267.451 280.029 278.598 285.165 283.271 287.222 C 299.301 206.829 336.334 147.415 412.648 112.452 C 447.616 96.4322 477.248 92.7663 514.021 84.2504 z M 703.155 738.676 C 704.215 732.792 705.887 725.774 704.713 720.029 C 699.758 695.79 684.443 678.45 684.625 652.137 C 684.667 646.115 684.649 618.998 682.281 615.633 C 678.319 620.125 675.861 628.262 673.748 634.854 C 665.213 661.483 652.736 704.424 670.841 728.882 C 672.798 731.526 687.017 734.691 690.758 735.63 C 694.743 736.617 699.187 737.832 703.155 738.676 z M 436.116 734.61 C 439.109 727.96 439.627 726.967 445.872 723.324 C 440.732 706.36 438.204 687.52 421.746 680.857 C 420.68 680.426 418.288 678.948 417.251 678.308 C 417.012 685.331 416.81 692.562 416.041 700.693 C 414.73 714.558 407.709 749.595 434.789 736.643 C 435.08 736.504 435.944 735.055 436.116 734.61 z"/>
<path transform="translate(0,0)" fill="rgb(253,253,253)" d="M 599.244 274.572 C 609.591 279.125 607.546 289.881 609.752 300.196 C 613.797 319.112 631.12 321.713 644.837 331.199 C 650.307 334.981 671.361 348.934 672.575 354.651 C 668.55 359.35 653.502 355.062 666.654 368.654 C 680.995 383.475 696.809 400.933 699.749 422.12 C 700.986 431.038 696.096 429.67 691.782 434.385 C 691.435 438.617 691.469 442.805 691.841 447.031 C 693.689 468.021 693.062 489.29 695.838 510.191 C 697.623 492.626 702.476 481.294 709.258 465.139 C 714.97 451.533 718.252 432.847 727.75 421.294 C 741.112 405.04 748.034 425.449 747.586 437.322 C 747.414 475.517 735.826 507.679 708.208 534.811 C 706.633 536.358 694.63 535.003 691.326 534.876 C 687.326 566.51 668.357 609.158 651.166 635.751 C 632.687 664.252 603.415 683.962 579.703 707.181 C 555.812 730.576 535.811 733.189 507.626 715.835 C 488.355 703.97 470.201 692.439 451.498 679.443 C 424.462 661.853 404.014 637.985 387.534 610.598 C 379.243 596.819 378.851 586.816 362.646 579.839 C 348.384 573.698 338.381 565.213 330.08 551.593 C 317.897 531.603 303.819 504.269 302.835 480.445 C 302.857 476.216 310.861 471.921 314.592 469.664 C 327.794 489.148 335.021 500.143 350.437 517.645 C 346.694 503.205 343.458 455.294 343.42 439.868 C 360.938 436.475 381.544 432.479 399.364 432.877 C 411.375 433.145 423.398 442.277 433.636 444.892 C 460.622 451.785 473.589 448.814 498.022 463.254 C 475.537 435.91 447.718 432.797 414.297 424.168 C 465.908 415.351 553.704 372.059 578.424 322.985 C 586.166 307.616 588.477 283.928 599.244 274.572 z"/>
<path transform="translate(0,0)" fill="rgb(6,4,7)" d="M 364.119 456.728 C 372.632 461.322 373.857 463.264 383.314 466.853 C 403.658 458.363 438.81 461.353 456.185 476.508 C 460.099 474.911 465.845 471.877 469.791 474.006 C 469.536 477.444 467.096 479.718 465.104 483.444 C 467.625 487.411 470.053 491.437 472.386 495.517 C 469.557 504.562 469.66 504.956 461.241 509.617 C 452.556 501.957 452.846 500.55 449.47 489.253 C 448.947 496.657 448.251 504.047 447.38 511.418 C 438.015 523.641 423.596 531.228 410.044 518.817 C 400.631 510.197 399.912 496.915 399.79 484.871 L 388.064 486.375 C 385.055 488.229 381.306 491.638 378.528 494.003 C 382.121 501.079 387.485 517.087 391.928 521.097 L 390.69 521.752 C 385.31 521.295 385.808 523.739 381.193 524.168 C 375.698 515.438 357.378 490.316 364.18 480.778 C 367.664 481.343 365.793 483.575 369.946 486.152 C 371.525 485.48 377.34 477.168 379.375 474.758 C 373.456 468.323 369.316 463.709 364.119 456.728 z"/>
<path transform="translate(0,0)" fill="rgb(253,253,253)" d="M 412.432 496.444 C 413.462 496.718 415.153 497.425 416.213 497.826 C 418.39 500.551 418.774 502.069 419.983 505.318 C 427.462 509.378 432.382 499.421 437.962 500.431 C 439.786 503.572 438.939 508.755 438.403 512.239 C 426.672 526.502 401.657 515.303 412.432 496.444 z"/>
<path transform="translate(0,0)" fill="rgb(6,4,7)" d="M 542.539 637.05 C 551.613 636.122 578.665 637.774 581.68 647.338 C 579.244 651.851 575.988 650.469 571.475 653.707 C 566.294 657.424 570.875 663.096 569.754 667.842 C 566.714 680.714 551.151 689.054 541.353 695.81 C 534.666 692.833 527.896 687.89 519.997 684.241 L 536.907 680.743 L 542.672 670.458 C 539.852 667.869 536.379 670.641 528.318 664.185 L 528.639 662.997 C 540.219 662.431 539.345 660.834 544.371 651.094 C 538.369 650.901 523.304 649.705 519.134 652.773 C 521.978 657.241 524.428 655.84 524.943 659.832 L 523.371 660.643 C 517.37 660.082 497.268 651.804 492.373 648.115 C 493.509 645.913 498.845 647.618 505.657 642.389 L 506.031 642.097 C 516.182 641.562 526.603 641.528 536.694 640.825 C 537.51 640.768 541.62 637.74 542.539 637.05 z"/>
<path transform="translate(0,0)" fill="rgb(6,4,7)" d="M 662.522 470.17 C 665.018 469.746 665.909 469.814 668.449 469.938 C 671.483 471.725 672.463 472.112 674.531 475.001 C 673.799 480.431 671.73 477.585 669.44 482.982 C 673.169 486.349 678.942 483.768 680.58 488.626 C 674.759 492.619 663.901 487.061 658.659 494.403 C 658.985 498.971 663.361 499.6 665.178 504.501 C 663.875 506.806 664.705 506.088 662.091 507.021 C 659.48 505.992 657.713 502.105 653.701 499.454 C 647.96 500.62 645.644 510.356 637.941 511.98 C 626.756 514.339 635.824 519.095 632.565 525.363 C 630.564 524.687 628.025 521.373 626.463 519.634 C 610.957 501.829 601.83 510.644 584.694 499.578 C 583.387 498.734 583.832 496.711 583.984 495.282 C 585.81 491.9 589.293 489.868 592.464 487.633 C 599.065 486.965 607.853 487.021 614.852 486.44 C 634.273 484.828 645.699 478.743 662.522 470.17 z"/>
<path transform="translate(0,0)" fill="rgb(6,4,7)" d="M 540.855 561.815 C 550.93 571.281 552.612 588.398 562.657 600.336 C 556.654 612.223 553.489 616.115 542.57 623.32 C 539.863 624.821 536.125 627.72 533.508 629.629 C 528.638 623.022 526.922 617.822 524.217 610.236 C 530.686 608.178 532.079 607.574 537.891 604.091 C 538.405 596.016 537.507 566.893 540.855 561.815 z"/>
<path transform="translate(0,0)" fill="rgb(6,4,7)" d="M 635.526 416.451 L 636.791 416.556 L 637.207 417.921 C 599.383 432.953 572.601 443.215 547.001 477.363 L 545.612 477.892 C 544.644 473.159 558.296 450.695 562.816 446.159 C 581.462 427.451 609.488 417.383 635.526 416.451 z"/>
<path transform="translate(0,0)" fill="rgb(6,4,7)" d="M 729.431 437.417 C 733.363 438.049 732.441 437.319 734.336 439.605 C 734.326 453.531 735.522 477.385 731.415 490.448 C 730.891 492.116 724.133 499.46 722.483 501.278 L 721.436 500.147 C 719.613 493.681 717.242 459.985 723.883 455.311 C 734.973 447.507 725.256 446.455 729.431 437.417 z"/>
<path transform="translate(0,0)" fill="rgb(6,4,7)" d="M 320.894 503.612 C 327.146 504.977 351.027 533.494 353.33 540.731 C 354.724 545.11 355.929 549.571 356.418 554.229 C 340.236 554.089 328.218 516.896 320.894 503.612 z"/>
<path transform="translate(0,0)" fill="rgb(6,4,7)" d="M 421.093 452.562 C 429.52 451.469 454.576 453.223 457.344 463.152 L 456.103 464.837 C 449.707 466.549 445.104 464.248 438.827 462.159 C 427.455 458.252 402.797 459.829 399.338 456.3 C 403.807 451.864 414.886 452.614 421.093 452.562 z"/>
<path transform="translate(0,0)" fill="rgb(6,4,7)" d="M 600.295 473.176 L 602.511 473.669 L 602.648 475.587 C 598.232 480.671 586.159 484.606 579.426 487.211 C 579.13 487.314 578.353 487.04 577.948 486.942 L 578.227 484.94 C 583.103 478.776 592.486 474.201 600.295 473.176 z"/>
<path transform="translate(0,0)" fill="rgb(6,4,7)" d="M 391.928 521.097 C 396.985 524.332 400.103 526.989 404.661 530.81 L 399.237 534.507 L 397.609 533.906 C 394.633 527.015 395.803 527.472 390.69 521.752 L 391.928 521.097 z"/>
<path transform="translate(0,0)" fill="rgb(253,253,253)" d="M 494.746 121.437 L 510.286 121.036 C 501.399 125.537 486.553 129.992 477.666 132.949 C 431.538 148.295 407.925 182.911 388.242 224.727 C 385.362 230.845 375.498 223.351 369.146 224.312 L 368.004 225.99 C 371.015 229.716 379.476 228.978 384.249 235.963 C 386.72 244.723 377.86 253.076 369.073 250.929 C 361.068 248.973 363.406 242.908 358.882 241.431 C 357.252 244.869 358.632 246.726 358.549 250.054 C 358.401 255.959 364.135 253.103 367.539 255.432 C 370.502 257.459 373.493 261.203 375.843 263.942 L 376.999 263.308 C 377.104 262.784 377.216 262.262 377.333 261.741 C 379.599 251.765 416.249 220.342 425.753 211.826 C 430.16 207.878 441.715 200.452 447.113 197.083 C 441.3 207.988 413.699 236.898 418.571 247.407 C 425.105 253.684 437.381 246.739 444.431 244.98 C 446.5 244.464 452.332 244.381 454.687 244.356 C 454.576 251.913 454.511 257.961 454.143 265.679 C 459.363 269.305 463.221 264.582 469.638 269.727 C 471.689 273.884 471.291 279.663 470.13 284.028 C 467.735 293.033 457.832 288.821 451.894 287.05 C 453.731 283.489 457.141 278.254 456.614 274.597 C 453.628 272.603 454.893 276.645 450.53 276.101 L 449.711 274.065 C 451.321 271.765 451.842 271.408 451.976 268.738 C 448.251 267.203 432.934 265.301 429.299 268.347 C 432.078 270.392 438.978 271.274 442.708 272.003 C 448.068 283.083 433.304 291.796 422.947 288.346 C 420.98 285.012 422.096 282.068 419.684 277.301 L 418.079 277.234 C 415.873 280.079 416.608 282.488 415.498 286.938 C 412.502 289.36 410.989 289.83 411.239 293.653 C 414.264 293.487 414.895 293.407 417.807 294.17 L 418.668 295.971 C 417.234 298.272 417.045 298.598 414.58 299.677 C 408.773 298.346 409.157 292.497 402.964 294.22 C 396.887 301.25 405.204 301.61 403.152 308.315 C 400.137 313.404 394.077 315.504 388.774 317.453 C 383.257 328.126 382.649 329.154 372.553 335.54 C 378.602 314.316 384.929 307.452 394.333 289.877 L 393.45 288.339 C 388.091 288.227 358.654 306.751 351.365 308.628 C 347.189 309.704 344.808 309.821 340.458 310.092 C 333.033 322.164 322.301 338.976 314.133 350.319 C 315.126 340.544 325.521 308.203 318.498 304.13 C 316.283 305 316.721 304.466 315.52 306.149 L 318.394 310.327 C 318.688 315.004 317.477 320.5 314.972 324.482 C 310.786 326.903 305.469 327.382 302.152 323.468 C 305.865 286.223 341.779 223.148 366.835 194.97 C 402.418 154.95 439.202 125.65 494.746 121.437 z"/>
<path transform="translate(0,0)" fill="rgb(253,253,253)" d="M 167.869 623.774 C 170.05 626.611 167.066 648.241 168.116 655.347 C 169.593 665.348 169.428 668.896 173.399 678.59 C 185.354 707.772 207.426 702.937 229.501 712.18 C 224.239 702.461 220.301 698.813 212.631 691.076 C 223.223 695.422 238.924 698.856 250.582 703.029 C 271.418 710.488 290.995 725.438 309.194 738.561 L 305.106 750.816 C 305.847 750.964 306.585 751.127 307.319 751.305 C 313.539 752.795 320.524 754.005 323.829 759.499 C 325.139 765.725 319.006 767.234 321.98 773.485 C 325.8 774.143 331.075 774.315 332.819 777.888 L 331.858 780.289 C 325.348 782.311 320.037 775.388 312.442 774.449 C 312.043 774.786 311.644 775.123 311.245 775.46 C 310.477 786.539 308.376 799.261 305.876 809.802 C 303.761 818.722 301.956 822.513 297.9 830.053 C 301.944 798.199 304.112 763.083 272.58 744.143 C 279.954 764.618 281.191 775.541 273.612 796.269 C 265.711 816.34 240.028 848.575 259.702 869.587 C 269.216 879.748 284.427 879.104 297.192 879.018 C 283.907 887.315 271.675 892.432 255.597 893.289 C 231.542 894.571 204.152 877.502 202.412 851.978 C 200.349 821.717 230.722 800.039 239.915 773.311 C 242.708 765.192 242.132 757.46 241.952 748.953 C 216.173 713.482 176.918 728.001 157.227 688.442 C 145.318 664.515 159.736 645.559 167.869 623.774 z"/>
<path transform="translate(0,0)" fill="rgb(253,253,253)" d="M 236.877 321.478 L 238.903 321.508 L 239.307 322.972 C 233.597 333.693 234.324 332.79 223.237 338.008 C 221.247 341.945 229.556 350.457 222.853 358.341 C 213.748 369.049 209.96 358.282 203.711 358.79 C 204.832 362.372 210.786 365.296 213.374 369.351 C 218.243 377 205.51 380.57 201.867 385.945 C 192.341 399.999 196.004 417.887 204.417 431.381 C 216.687 451.065 229.226 452.36 249.823 457.075 C 250.689 462.724 251.199 466.663 248.918 471.933 C 246.005 475.259 243.207 474.988 238.648 476.743 C 235.824 481.332 241.075 486.633 239.483 488.921 C 235.173 495.115 224.506 527.542 219.985 530.217 C 218.509 532.296 217.916 533.61 216.834 535.855 L 215.65 535.864 C 214.533 533.658 215.978 527.009 216.455 524.163 C 218.449 512.262 217.899 504.006 216.794 492.112 C 209.55 482.865 203.723 476.339 198.202 465.743 C 184.704 439.839 183.03 397.814 192.056 370.382 C 180.423 379.378 179.851 384.824 170.927 395.979 C 179.443 373.142 187.807 350.201 199.566 328.737 C 210.724 325.011 225.062 323.081 236.877 321.478 z"/>
<path transform="translate(0,0)" fill="rgb(253,253,253)" d="M 236.038 336.196 L 248.088 335.692 C 251.244 339.791 254.289 344.556 257.187 348.883 C 253.545 353.494 250.901 356.201 246.807 360.324 C 244.197 360.856 234.058 357.675 229.176 356.906 C 227.936 346.338 225.693 342.395 236.038 336.196 z"/>
<path transform="translate(0,0)" fill="rgb(253,253,253)" d="M 335.066 701.872 C 346.005 701.415 356.374 722.048 338.098 728.024 C 334.006 726.917 329.826 725.396 325.803 724.012 C 324.812 719.501 324.227 711.689 323.721 706.878 L 335.066 701.872 z"/>
<path transform="translate(0,0)" fill="rgb(253,253,253)" d="M 306.247 702.626 L 306.985 702.863 C 323.411 708.258 326.25 720.893 309.127 729.025 C 305.473 729.378 299.353 727.81 297.477 724.827 C 291.373 715.118 300.6 707.26 306.247 702.626 z"/>
<path transform="translate(0,0)" fill="rgb(253,253,253)" d="M 475.146 241.293 C 487.415 244.175 494.013 261.757 472.599 265.599 C 465.837 263.39 463.77 260.955 458.817 256.055 C 460.169 252.807 461.065 248.818 461.95 245.363 C 466.821 243.481 470.151 242.598 475.146 241.293 z"/>
<path transform="translate(0,0)" fill="rgb(253,253,253)" d="M 224.847 361.052 C 232.218 360.903 234.297 361.095 241.46 362.668 L 241.618 378.424 C 239.495 380.531 236.082 383.22 233.7 385.211 C 219.811 388.957 211.239 373.053 224.847 361.052 z"/>
<path transform="translate(0,0)" fill="rgb(253,253,253)" d="M 321.05 728.863 C 324.922 728.147 330.94 729.872 334.995 730.748 C 336.48 741.296 338.596 745.07 329.21 751.918 C 312.361 754.221 308.563 736.443 321.05 728.863 z"/>
<path transform="translate(0,0)" fill="rgb(253,253,253)" d="M 336.049 752.005 C 359.319 751.193 346.23 765.359 348.612 776.07 L 347.52 776.154 C 339.729 775.319 334.275 774.524 329.83 767.183 C 325.83 760.577 330.344 754.93 336.049 752.005 z"/>
<path transform="translate(0,0)" fill="rgb(253,253,253)" d="M 434.121 313.868 C 441.175 314.29 444.965 315.915 448.185 322.629 C 449.618 325.597 449.772 329.022 448.612 332.107 C 447.242 335.725 445.59 335.742 442.286 337.242 C 435.53 337.217 430.624 338.226 426.577 332.32 C 425.458 325.864 430.601 319.544 434.121 313.868 z"/>
<path transform="translate(0,0)" fill="rgb(253,253,253)" d="M 469.17 288.268 C 472.932 288.016 478.438 287.193 481.788 289.099 C 489.739 293.623 487.334 302.154 482.902 308.59 C 465.31 311.709 461.635 302.553 469.17 288.268 z"/>
<path transform="translate(0,0)" fill="rgb(253,253,253)" d="M 317.124 680.761 C 325.563 681.532 330.203 689.216 329.656 697.268 C 328.495 700.465 325.626 701.429 322.531 703.048 C 316.616 707.9 298.762 690.645 317.124 680.761 z"/>
<path transform="translate(0,0)" fill="rgb(253,253,253)" d="M 480.591 265.617 C 483.288 265.719 483.951 265.503 485.999 267.027 C 488.869 276.786 490.896 279.377 497.523 286.361 C 500.887 286.371 503.702 286.018 505.658 289.014 C 504.51 292.312 497.602 296.394 494.461 298.613 C 493.327 299.355 492.843 299.338 491.51 299.687 L 490.741 298.04 C 491.223 294.955 492.724 293.489 494.656 291.088 C 488.592 285.082 483.553 286.39 474.209 276.102 C 476.204 272.653 478.502 269.043 480.591 265.617 z"/>
<path transform="translate(0,0)" fill="rgb(253,253,253)" d="M 482.652 216.165 C 490.241 217.585 490.813 220.042 495.223 226.477 C 491.207 231.023 491.624 234.599 486.76 240.147 C 474.96 234.229 463.59 223.891 482.652 216.165 z"/>
<path transform="translate(0,0)" fill="rgb(253,253,253)" d="M 293.951 660.297 C 294.465 660.507 294.977 660.72 295.487 660.938 C 302.583 663.962 311.14 666.974 314.012 674.064 C 313.673 678.065 313.015 677.606 309.93 681.341 C 306.651 682.856 303.026 683.462 299.433 683.095 C 289.504 682.121 292.817 666.357 293.951 660.297 z"/>
<path transform="translate(0,0)" fill="rgb(253,253,253)" d="M 214.802 384.549 C 219.932 385.395 224.998 387.861 229.815 389.923 C 229.908 391.57 229.986 393.218 230.047 394.867 C 230.26 400.896 230.709 402.281 226.532 406.764 C 211.409 412.339 209.39 395.254 214.802 384.549 z"/>
<path transform="translate(0,0)" fill="rgb(253,253,253)" d="M 241.941 382.537 C 245.725 383.475 253.15 393.688 255.737 397.056 C 253.23 401.391 252.563 402.736 248.967 406.131 C 230.23 406.078 231.749 393.702 241.941 382.537 z"/>
<path transform="translate(0,0)" fill="rgb(253,253,253)" d="M 291.921 683.993 C 301.918 683.736 310.828 697.613 294.436 706.511 C 292.894 707.652 293.777 707.207 291.472 707.348 C 286.787 702.354 283.901 694.548 285.129 687.712 C 287.735 684.52 287.318 685.408 291.921 683.993 z"/>
<path transform="translate(0,0)" fill="rgb(253,253,253)" d="M 459.385 223.854 C 462.919 224.061 463.737 224.296 467.066 225.248 C 470.177 228.926 469.556 233.499 469.727 238.632 C 465.175 240.366 462.735 241.493 457.794 241.871 C 454.288 241.077 447.257 240.713 443.42 240.408 C 449.029 231.102 449.991 229.446 459.385 223.854 z"/>
<path transform="translate(0,0)" fill="rgb(253,253,253)" d="M 449.564 290.987 C 455.956 294.067 458.228 295.65 459.163 303.072 C 460.039 310.026 455.747 312.935 449.553 313.214 C 446.052 311.14 440.995 308.973 437.21 307.217 C 441.486 300.176 443.349 296.364 449.564 290.987 z"/>
<path transform="translate(0,0)" fill="rgb(253,253,253)" d="M 498.59 194.136 C 499.907 195.32 501.319 200.912 506.055 205.904 C 502.465 211.374 501.526 217.586 495.051 218.204 C 476.491 208.312 487.997 203.692 498.59 194.136 z"/>
<path transform="translate(0,0)" fill="rgb(253,253,253)" d="M 297.511 329.459 C 307.384 332.455 316.049 341.14 307.715 350.619 C 288.87 354.538 294.66 342.939 297.511 329.459 z"/>
<path transform="translate(0,0)" fill="rgb(253,253,253)" d="M 232.912 406.877 C 244.04 406.588 250.03 417.402 243.011 423.375 L 239.748 422.247 C 234.672 420.828 224.692 418.331 224.038 412.805 C 225.475 409.568 229.54 408.367 232.912 406.877 z"/>
<path transform="translate(0,0)" fill="rgb(253,253,253)" d="M 466.093 310.134 C 467.302 310.722 472.178 315.149 472.762 316.739 C 471.579 319.694 464.529 324.001 461.246 326.586 L 457.042 329.302 C 453.058 328.636 452.925 325.47 453.441 321.88 C 454.56 314.093 459.685 314.445 465.371 310.623 L 466.093 310.134 z"/>
<path transform="translate(0,0)" fill="rgb(253,253,253)" d="M 418.857 341.453 C 424.89 341.171 431.096 341.743 437.137 342.145 C 433.006 345.234 428.124 349.821 424.184 353.319 C 421.401 356.157 419.903 357.687 416.009 356.879 L 414.667 354.436 C 414.219 348.632 415.414 346.167 418.857 341.453 z"/>
<path transform="translate(0,0)" fill="rgb(253,253,253)" d="M 241.203 498.618 C 244.322 499.427 245.019 499.937 246.195 502.594 C 245.414 509.193 241.393 514.715 237.928 520.477 C 234.757 518.632 233.327 515.485 231.422 512.292 C 235.092 506.01 236.356 504.004 241.203 498.618 z"/>
<path transform="translate(0,0)" fill="rgb(253,253,253)" d="M 349.603 725.789 C 352.438 729.005 353.643 742.791 349.258 746.546 L 344.736 745.978 C 335.39 738.445 342.736 730.708 349.603 725.789 z"/>
<path transform="translate(0,0)" fill="#fdfdfd" d="M 220.702 548.782 L 221.984 549.614 C 223.007 553.019 217.697 569.176 214.098 570.75 L 207.362 559.438 C 211.908 553.935 214.169 551.634 220.702 548.782 z"/>
<path transform="translate(0,0)" fill="rgb(253,253,253)" d="M 253.059 474.795 C 254.786 475.757 257.686 480.611 258.949 482.507 L 248.756 494.101 C 247.177 494.997 248.067 494.708 245.895 494.475 C 244.764 491.528 245.91 486.452 246.389 483.069 C 249.405 480.037 250.589 478.324 253.059 474.795 z"/>
<path transform="translate(0,0)" fill="rgb(253,253,253)" d="M 272.974 661.858 C 278.559 661.613 283.944 664.005 286.512 669.166 L 286.738 669.631 C 288.601 673.372 287.419 676.09 286.351 680.241 L 285.7 680.439 C 283.027 678.723 275.228 665.448 272.974 661.858 z"/>
<path transform="translate(0,0)" fill="rgb(253,253,253)" d="M 310.296 353.843 L 311.278 354.199 C 312.327 356.887 308.929 369.075 306.454 371.399 C 303.467 367.567 301.06 365.245 302.305 360.119 C 304.258 356.637 306.752 355.734 310.296 353.843 z"/>
<path transform="translate(0,0)" fill="rgb(253,253,253)" d="M 229.927 525.49 C 232.486 526.046 231.663 525.506 233.329 527.312 C 233.088 530.079 228.779 537.92 227.296 541.418 C 223.147 540.422 221.776 535.721 223.115 531.923 C 224.688 527.461 226.092 527.47 229.927 525.49 z"/>
<path transform="translate(0,0)" fill="rgb(253,253,253)" d="M 334.636 780.249 C 337.504 781.132 337.826 781.288 339.65 783.659 C 340.729 787.075 339.464 790.218 338.531 793.745 C 336.469 793.505 336.557 793.427 334.827 792.171 C 333.328 788.941 334.27 783.977 334.636 780.249 z"/>
<path transform="translate(0,0)" fill="#fdfdfd" d="M 276.423 651.949 C 279.386 652.134 286.51 656.49 289.326 658.128 L 289.62 660.501 C 282.639 661.824 277.793 659.1 276.423 651.949 z"/>
<path transform="translate(0,0)" fill="#fdfdfd" d="M 391.704 370.739 L 393.489 371.455 L 393.949 373.468 C 392.766 376.501 389.154 379.47 386.693 381.817 C 385.228 381.71 385.951 381.85 384.52 380.601 C 384.511 376.255 388.652 373.315 391.704 370.739 z"/>
<path transform="translate(0,0)" fill="#fdfdfd" d="M 261.437 645.805 C 267.094 645.834 270.612 650.681 273.061 655.185 C 266.594 655.314 262.515 652.181 261.437 645.805 z"/>
</svg>
