<svg xmlns="http://www.w3.org/2000/svg" version="1.1" style="display: block;" viewBox="0 0 1024 1024" width="256" height="256" preserveAspectRatio="none">
<path transform="translate(0,0)" fill="rgb(1,2,0)" d="M 820.677 1001.38 C 775.955 1000.31 725.497 1001.44 680.263 1001.44 L 394.144 1001.46 C 366.106 1001.46 338.204 1001.77 310.195 1000.36 C 309.354 1000.32 307.892 1001.17 307.202 1001.63 L 305.777 1000.5 C 303.249 993.999 315.344 961.239 317.892 953.369 L 336.678 894.394 L 355.074 837.151 C 358.349 826.678 367.534 792.128 374.724 786.266 C 396.368 768.618 430.977 762.613 452.067 743.756 C 454.569 741.518 463.031 729.666 463.619 726.994 C 463.013 725.134 461.353 723.093 459.574 722.346 C 442.533 715.191 428.399 704.864 412.723 695.291 C 384.422 678.007 354.474 660.31 341.089 628.255 C 336.733 617.824 328.893 603.543 322.758 593.669 C 316.596 586.013 298.053 572.382 289.579 565.297 C 276.625 554.593 248.068 553.732 236.326 542.142 C 217.132 523.196 219.276 503.757 226.15 480.44 C 232.703 458.211 240.658 429.319 240.275 406.624 C 240.134 398.255 228.105 374.476 224.434 365.617 C 211.204 333.198 197.46 300.992 183.208 269.01 C 180.251 262.39 167.955 237.807 168.305 232.732 C 169.281 221.799 171.57 192.99 179.91 185.639 C 194.005 173.217 208.648 156.232 223.678 145.287 C 238.572 135.227 254.468 126.267 270.015 117.224 C 290.436 105.345 310.202 92.3808 332.731 84.7231 C 362.077 74.7483 391.125 63.5417 420.128 52.6041 C 432.949 47.769 445.899 41.8132 459.616 40.5442 C 509.383 35.4132 558.811 27.2441 608.628 22.5257 C 625.294 20.9358 631.775 25.6728 644.551 35.1417 C 652.808 41.2618 661.121 46.6252 669.039 53.3966 C 675.307 71.4979 680.714 120.079 684.338 141.707 L 697.008 218.045 C 698.754 228.821 701.947 241.935 702.308 252.473 C 719.589 250.173 750.302 243.965 765.19 244.908 C 784.359 246.933 808.423 268.927 817.93 284.577 C 843.688 326.978 834.392 392.062 831.739 439.696 C 830.326 465.058 800.804 488.183 783.444 503.601 C 765.188 519.815 729.248 518.22 706.541 514.729 C 701.818 520.038 652.778 596.269 652.339 598.375 C 653.516 602.125 653.615 601.315 657.048 604.285 C 658.228 607.953 659.828 611.61 659.455 615.358 C 654.86 620.234 634.166 617.533 627.161 619.19 C 626.252 623.37 625.018 638.712 624.401 643.895 C 628.932 651.627 642.328 676.87 646.586 682.495 C 661.42 702.086 685.8 727.629 704.037 744.75 C 707.712 748.2 718.788 755.013 723.34 758.112 C 740.886 770.055 760.763 780.25 777.569 793.042 C 784.085 798.394 785.547 808.45 788.972 815.675 C 804.175 847.75 809.47 873.615 813.271 908.642 C 816.404 939.499 818.874 970.42 820.677 1001.38 z M 436.387 661.617 C 440.598 665.857 444.837 670.069 449.103 674.253 C 461.841 684.574 476.929 683.003 492.295 679.5 C 498.831 673.914 516.385 656.995 517.166 648.377 C 516.004 647.353 516.449 647.336 515.357 647.268 C 489.277 653.307 462.924 658.095 436.387 661.617 z"/>
<path transform="translate(0,0)" fill="rgb(254,253,254)" d="M 574.39 385.646 C 577.114 386.108 579.991 389.085 582.423 390.528 C 602.075 402.184 611.463 420.803 628.574 435.188 C 625.243 451.63 637.782 450.446 639.504 466.929 C 642.151 492.262 646.71 520.462 640.141 545.382 C 656.951 534.676 667.9 520.332 672.34 500.883 C 670.558 492.161 668.701 488.846 664.187 481.522 C 665.096 475.675 665.627 462.523 672.73 461.524 C 680.581 466.217 684.126 488.695 684.52 497.335 C 689.333 484.474 696.912 476.916 693.259 461.927 C 691.525 454.81 684.96 439.445 674.744 442.694 C 660.461 447.239 661.12 464.592 657.474 476.299 C 656.165 480.504 653.781 484.58 651.454 488.517 C 650.579 472.256 653.17 426.648 683.938 434.71 C 690.681 437.502 696.797 449.502 698.06 455.194 C 708.68 503.063 670.039 545.173 634.138 570.668 C 629.738 573.793 624.289 595.975 620.176 602.481 C 607.502 622.528 590.717 639.715 572.855 655.293 C 542.887 682.115 519.57 705.652 479.947 717 C 457.569 711.086 443.297 698.464 423.46 686.246 C 384.729 663.023 372.695 657.359 352.376 614.823 C 382.449 627.443 406.824 624.208 411.591 587.081 C 411.947 584.818 413.22 569.618 414.609 568.637 C 436.88 552.905 457.838 532.439 477.686 513.599 C 481.023 510.432 486.309 510.849 487.703 509.628 C 492.619 505.32 497.029 499.93 501.172 495.233 C 497.532 510.892 497.316 511.694 503.005 527.988 C 504.471 532.187 505.737 533.772 509.574 535.387 C 513.158 531.052 512.025 510.862 512.069 503.664 C 518.517 497.668 519.538 496.848 526.969 492.519 C 528.308 516.244 527.946 539.449 555.487 546.534 C 564.333 543.277 576.926 537.519 578.15 526.992 C 577.223 524.076 577.926 525.102 575.382 523.178 C 571.688 524.233 573.148 527.697 568.973 531.26 C 564.834 534.793 560.985 536.726 556.295 539.323 C 540.372 531.875 537.755 519.143 534.045 503.144 C 533.516 500.863 534.271 500.255 535.573 498.762 L 537.429 499.185 L 540.36 504.17 L 542.924 504.73 C 544.843 503.883 545.563 503.384 547.614 503.339 C 550.533 506.59 553.927 515.329 555.87 519.788 C 558.198 514.874 566.925 499.323 573.073 503.543 C 568.908 511.381 574.574 515.197 579.668 520.406 C 581.426 513.202 582.436 506.007 583.577 498.683 C 596.263 508.965 587.342 506.322 591.006 515.617 L 593.36 515.93 C 595.009 514.449 595.331 514.202 595.717 511.936 C 602.88 469.834 550.593 456.222 522.543 475.318 C 522.197 472.351 522.237 470.952 520.526 468.416 L 518.679 468.385 L 515.234 472.297 L 513.588 471.879 C 509.85 463.223 534.65 458.74 537.398 450.581 L 536.426 449.051 C 531.548 448.032 528.908 451.57 525.644 450.938 C 543.341 432.246 558.485 404.997 574.39 385.646 z M 436.387 661.617 C 440.598 665.857 444.837 670.069 449.103 674.253 C 461.841 684.574 476.929 683.003 492.295 679.5 C 498.831 673.914 516.385 656.995 517.166 648.377 C 516.004 647.353 516.449 647.336 515.357 647.268 C 489.277 653.307 462.924 658.095 436.387 661.617 z"/>
<path transform="translate(0,0)" fill="rgb(1,2,0)" d="M 515.357 647.268 C 516.449 647.336 516.004 647.353 517.166 648.377 C 516.385 656.995 498.831 673.914 492.295 679.5 C 476.929 683.003 461.841 684.574 449.103 674.253 C 444.837 670.069 440.598 665.857 436.387 661.617 C 462.924 658.095 489.277 653.307 515.357 647.268 z M 463.755 677.016 C 471.579 676.875 487.432 675.533 493.891 671.256 L 494.585 669.688 C 493.209 669.083 492.803 668.76 491.3 668.742 C 480.503 674.972 467.622 671.216 461.212 674.81 L 461.385 676.284 L 463.755 677.016 z"/>
<path transform="translate(0,0)" fill="#ffffff" fill-opacity="0.988235" d="M 491.3 668.742 C 492.803 668.76 493.209 669.083 494.585 669.688 L 493.891 671.256 C 487.432 675.533 471.579 676.875 463.755 677.016 L 461.385 676.284 L 461.212 674.81 C 467.622 671.216 480.503 674.972 491.3 668.742 z"/>
<path transform="translate(0,0)" fill="rgb(1,2,0)" d="M 576.947 544.708 C 578.318 545.472 577.729 544.93 578.448 546.655 C 565.885 559.467 557.839 561.045 540.931 564.69 C 538.912 563.094 539.538 563.847 539.084 560.53 C 542.171 554.274 556.059 556.333 564.116 552.496 C 570.279 549.561 571.474 548.627 576.947 544.708 z"/>
<path transform="translate(0,0)" fill="rgb(1,2,0)" d="M 417.166 626.604 C 423.119 626.901 427.578 630.764 431.529 634.975 C 434.144 637.762 433.814 637.914 433.446 641.5 C 424.13 643.009 418.064 635.11 417.166 626.604 z"/>
<path transform="translate(0,0)" fill="rgb(1,2,0)" d="M 487.757 691.501 L 488.306 691.327 L 489.282 691.994 C 487.377 696.766 480.773 700.421 475.589 699.633 C 472.635 697.942 471.187 697.836 469.997 695.234 C 472.748 693.458 480.664 694.085 487.337 691.657 L 487.757 691.501 z"/>
<path transform="translate(0,0)" fill="rgb(254,253,254)" d="M 461.686 173.127 C 463.121 173.239 462.608 173.184 463.966 173.958 C 465.593 181.355 466.988 189.699 467.955 197.277 C 473.509 240.819 479.774 284.72 482.444 328.53 C 482.567 330.55 480.867 334.592 480.022 336.502 C 467.014 339.53 442.018 348.687 426.583 352.796 C 372.057 367.314 328.824 372.176 272.914 371.849 C 268.592 363.387 264.649 354.03 260.786 345.295 C 246.332 309.218 225.417 270.327 211.909 233.673 C 245.972 231.03 270.279 226.049 303.343 218.974 C 357.249 207.887 410.195 192.557 461.686 173.127 z"/>
<path transform="translate(0,0)" fill="rgb(254,253,254)" d="M 552.068 55.3835 C 553.65 57.8377 550.943 56.6558 552.485 61.4735 C 558.768 64.0901 564.987 66.8591 571.136 69.7781 L 571.142 83.2077 L 558.402 91.7028 L 545.872 84.7234 C 549.224 89.6013 551.831 94.0567 554.811 99.1525 L 554.817 109.682 C 551.185 112.295 547.379 115.366 543.812 118.123 C 537.029 113.78 534.201 111.029 528.948 105.29 C 522.002 111.452 517.457 115.689 511.216 122.515 C 510.255 127.377 509.324 132.244 508.423 137.117 C 498.316 140.56 493.968 138.043 489.905 139.717 C 488.929 141.661 488.992 141.984 488.755 144.217 L 488.691 144.865 C 483.686 147.806 465.276 153.459 458.498 156.159 C 390.393 183.289 302.098 207.426 229.234 216.86 C 212.491 218.942 204.992 221.225 188.615 217.301 C 198.788 198.766 207.192 191.415 223.728 177.702 C 287.316 124.971 367.924 94.9214 447.073 74.442 C 481.462 65.5439 517.755 63.4756 552.068 55.3835 z"/>
<path transform="translate(0,0)" fill="rgb(254,253,254)" d="M 744.761 257.46 C 792.741 257.55 803.332 275.854 801.112 318.274 C 801.004 320.348 801.257 322.6 802.838 323.92 C 804.725 322.516 805.091 321.673 805.636 319.389 L 805.765 318.837 C 807.936 309.739 805.285 302.761 806.926 294.198 L 808.4 293.372 C 814.469 296.461 824.132 329.77 822.751 334.176 C 819.077 345.901 815.428 351.611 819.633 367.947 C 820.701 372.096 814.583 399.209 813.06 405.515 C 808.406 397.912 799.771 386.18 800.306 377.589 C 802.827 374.614 810.408 372.006 814.969 368.346 L 814.696 367.163 C 810.33 365.674 803.984 366.41 799.207 366.634 C 801.678 357.272 807.727 341.836 811.231 332.203 C 805.29 335.945 797.467 342.708 791.826 347.317 C 790.075 339.356 782.366 320.987 776.082 316.735 L 773.17 319.725 C 770.898 320.448 756.46 315.56 752.232 314.506 C 762.004 323.735 771.73 327.709 779.875 335.509 C 780.351 344.268 781.032 353.763 779.422 362.44 C 778.239 368.81 774.735 370.561 771.159 375.594 L 771.469 377.353 C 773.732 377.938 775.927 378.354 777.768 379.892 C 781.285 382.83 757.821 411.802 758.274 419.609 L 759.561 420.446 C 765.756 414.379 768.785 407.199 775.767 400.52 L 776.096 400.209 C 775.634 424.153 781.149 444.971 783.479 469.959 C 775.826 465.18 774.782 463.416 767.249 468.377 C 763.069 468.207 765.496 468.432 761.527 464.392 L 759.645 464.846 C 758.139 467.042 757.701 467.84 755.635 469.494 C 752.874 468.946 745.563 460.103 743.722 457.523 C 741.594 454.542 746.925 448.546 742.003 445.046 C 735.593 446.662 736.767 452.583 729.319 452.674 C 733.835 429.32 741.18 418.078 757.438 401.174 C 759.678 398.845 762.671 394.699 762.383 391.273 L 761.109 391.291 C 745.032 399.458 725.09 429.199 713.126 443.541 C 678.791 419.71 711.97 394.605 724.93 364.812 C 711.553 372.959 689.385 396.047 678.598 407.146 C 677.416 389.948 677.662 370.216 677.707 352.984 C 692.011 334.074 720.011 323.44 738.866 309.714 C 713.247 312.687 693.177 325.228 673.983 341.856 C 674.774 334.12 675.671 323.095 678.009 315.863 C 686.715 288.929 723.56 277.647 746.956 266.1 C 735.005 267.332 727.707 269.757 716.859 274.96 C 711.6 277.483 698.597 284.735 693.653 284.24 C 693.63 282.621 693.969 282.083 695.271 280.602 C 710.616 263.151 723.415 260.036 744.761 257.46 z"/>
<path transform="translate(0,0)" fill="rgb(254,253,254)" d="M 401.74 449.332 C 402.094 449.247 403.806 449.376 404.291 449.401 C 405.829 452.432 405.607 458.079 405.735 461.726 C 404.73 462.285 402.552 463.635 401.705 464.202 C 396.731 467.535 386.477 490.662 385.536 495.951 C 388.008 500.279 403.307 489.436 406.032 507.12 C 405.1 512.991 400.131 516.619 395.746 520.368 C 382.596 517.175 387.624 514.858 378.7 510.228 L 376.714 511.031 C 372.915 518.117 388.258 525.828 393.777 529.645 C 384.561 535.155 378.709 537.367 368.65 541.026 C 368.064 536.253 368.011 534.107 365.943 529.825 C 363.367 532.344 360.618 536.422 357.65 538.685 C 347.42 546.486 331.629 548.663 319.13 551.531 C 320.888 549.038 322.258 546.732 323.788 544.104 C 340.088 516.098 357.033 488.331 374.267 460.891 C 375.752 458.527 379.033 455.225 381.053 453.237 C 385.663 451.832 396.528 450.231 401.74 449.332 z"/>
<path transform="translate(0,0)" fill="rgb(254,253,254)" d="M 492.699 158.093 L 493.406 158.711 C 489.854 163.186 486.627 166.54 482.701 170.652 C 486.255 170.227 498.487 166.569 500.159 167.155 C 517.042 173.074 508.45 187.733 498.792 192.739 C 493.856 192.469 497.224 189.757 491.519 187.14 L 489.662 188.445 C 489.68 192.324 493.839 198.888 495.31 202.91 C 496.678 206.651 493.397 209.264 491.431 214.036 C 492.707 218.334 502.505 216.514 506.416 220.21 C 507.891 220.912 510.622 224.293 510.402 226.017 C 507.383 249.746 492.04 232.21 497.323 262.572 C 500.001 265.877 504.365 270.234 507.363 273.614 C 516.261 283.648 502.443 287.619 501.552 295.9 L 502.912 297.171 C 511.752 288.423 519.426 293.2 525.594 301.683 L 522.362 313.452 C 513.394 322.333 515.902 319.238 504.821 313.885 C 502.234 312.635 500.64 312.663 498.356 311.925 C 496.228 311.238 493.99 301.733 493.598 299.771 C 486.994 266.677 483.773 233.034 476.889 200.008 C 474.794 189.911 472.999 179.616 471.064 169.483 C 478.113 167.006 486.11 161.955 492.699 158.093 z"/>
<path transform="translate(0,0)" fill="rgb(254,253,254)" d="M 274.015 446.6 L 295.938 458.612 C 290.246 477.641 270.785 525.846 260.111 542.294 C 242.331 532.072 231.357 521.557 234.293 499.748 C 236.184 489.926 237.802 466.705 246.087 460.588 C 250.279 465.491 232.7 509.278 243.267 517.641 C 244.905 516.869 246.195 515.002 246.745 513.323 C 254.275 490.333 264.715 468.899 274.015 446.6 z"/>
<path transform="translate(0,0)" fill="rgb(254,253,254)" d="M 600.781 364.828 C 607.424 366.167 631.041 379.35 637.702 382.986 C 631.848 381.58 606.922 376.516 602.395 378.988 C 602.333 389.69 653.265 382.29 660.913 392.028 C 657.05 396.55 631.531 392.843 624.973 396.36 L 625.293 398.079 L 628.823 399.975 C 642.132 406.881 652.159 404.146 660.244 407.725 C 662.222 415.934 630.391 420.519 620.841 414.79 C 621.576 411.547 625.209 413.826 628.29 410.01 C 627.077 408.036 612.065 400.725 608.609 398.676 C 596.873 391.717 590.16 386.576 581.759 375.945 C 588.079 372.204 594.42 368.498 600.781 364.828 z"/>
<path transform="translate(0,0)" fill="rgb(254,253,254)" d="M 625.677 347.989 C 635.421 347.911 650.412 354.599 659.956 358.279 L 659.861 381.566 C 654.811 379.095 649.563 377.458 644.244 375.645 C 634.643 372.46 625.232 369.418 615.407 367.026 C 611.513 366.079 608.528 365.959 607.252 361.929 C 609.838 356.493 620.326 351.171 625.677 347.989 z"/>
<path transform="translate(0,0)" fill="rgb(254,253,254)" d="M 585.17 64.7922 C 603.022 66.3617 606.679 83.1966 591.139 90.9591 C 585.843 89.8744 580.205 87.6339 577.245 82.7837 C 575.731 80.358 575.302 77.4095 576.061 74.653 C 577.39 69.9268 581.266 67.2356 585.17 64.7922 z"/>
<path transform="translate(0,0)" fill="rgb(254,253,254)" d="M 510.166 191.017 C 529.705 192.751 527.931 207.659 514.921 218.024 C 510.957 216.974 504.805 212.686 501.106 210.356 C 500.711 198.854 499.53 197.271 510.166 191.017 z"/>
<path transform="translate(0,0)" fill="rgb(254,253,254)" d="M 513.407 240.963 C 529.934 246.009 526.175 261.839 512.179 268.691 C 506.573 265.823 502.624 261.72 498.448 257.192 L 502.429 247.171 L 513.407 240.963 z"/>
<path transform="translate(0,0)" fill="rgb(254,253,254)" d="M 527.673 165.898 C 545.265 168.834 541.666 183.545 530.87 193.181 C 516.518 192.687 516.809 182.032 517.463 171.195 L 527.673 165.898 z"/>
<path transform="translate(0,0)" fill="rgb(254,253,254)" d="M 801.637 401.435 C 805.896 405.664 805.077 406.756 811.615 412.297 C 807.851 429.2 806.978 437.816 797.898 452.403 C 796.236 454.34 795.922 455.096 793.59 455.707 C 792.843 450.628 800.082 408.447 801.637 401.435 z"/>
<path transform="translate(0,0)" fill="rgb(254,253,254)" d="M 404.003 468.676 C 411.112 468.978 420.872 473.401 420.714 481.57 C 420.618 486.588 416.102 489.888 412.711 492.89 C 404.738 496.414 400.939 491.182 395.354 486.08 C 397.473 478.445 398.831 474.657 404.003 468.676 z"/>
<path transform="translate(0,0)" fill="rgb(254,253,254)" d="M 527.316 265.697 C 529.458 265.901 536.671 271.221 537.763 273.35 C 542.89 283.344 537.074 288.595 529.967 293.07 C 526.198 292.94 520.412 288.608 517.025 286.401 L 517.018 273.811 L 527.316 265.697 z"/>
<path transform="translate(0,0)" fill="rgb(254,253,254)" d="M 526.582 215.906 C 540.793 220.06 539.587 223.708 538.289 236.822 C 535.056 238.828 531.796 241.008 528.598 243.09 L 526.958 242.986 C 515.004 235.194 512.988 223.02 526.582 215.906 z"/>
<path transform="translate(0,0)" fill="rgb(254,253,254)" d="M 433.178 439.151 C 430.548 448.217 433.156 464.556 424.641 469.742 C 421.212 469.641 420.205 468.661 417.437 466.777 C 407.373 458.632 409.002 452.699 417.857 444.533 C 419.904 444.439 421.95 444.303 423.992 444.124 C 429.07 443.66 429.962 443.025 433.178 439.151 z"/>
<path transform="translate(0,0)" fill="rgb(254,253,254)" d="M 541.724 290.879 C 549.613 291.513 557.383 298.695 553.579 306.983 C 551.797 310.867 547.91 311.907 544.208 313.43 L 537.854 314.559 C 526.717 310.832 532.192 294.953 541.724 290.879 z"/>
<path transform="translate(0,0)" fill="#ffffff" d="M 571.228 89.5844 C 577.501 89.8175 580.892 93.9728 585.572 98.1353 L 571.582 106.89 C 567.849 109.671 566.875 111.134 562.311 109.609 C 557.936 100.978 565.023 94.3975 571.228 89.5844 z"/>
<path transform="translate(0,0)" fill="rgb(254,253,254)" d="M 431.632 497.391 L 433.358 497.615 C 436.675 507.374 421.912 513.422 414.541 517.631 C 413.217 517.623 413.836 517.651 412.394 516.404 C 412.077 510.571 412.108 505.125 412.126 499.296 C 419.995 499.965 424.166 499.969 431.632 497.391 z"/>
<path transform="translate(0,0)" fill="#ffffff" d="M 606.916 49.413 C 611.426 49.0492 613.363 48.1541 615.707 52.2276 C 615.212 58.7407 608.541 63.0471 603.009 65.1867 C 598.356 63.745 593.978 62.0993 592.322 57.0614 C 593.809 48.6629 599.992 49.7154 606.916 49.413 z"/>
<path transform="translate(0,0)" fill="rgb(254,253,254)" d="M 554.836 216.605 C 556.652 216.61 556.826 216.82 558.466 217.514 C 561.147 221.966 559.575 238.792 557.471 243.289 L 556.137 242.921 C 545.343 236.366 542.603 222.523 554.836 216.605 z"/>
<path transform="translate(0,0)" fill="rgb(254,253,254)" d="M 497.441 317.634 C 502.356 319.327 510.271 321.128 509.478 327.158 C 507.156 330.316 501.595 331.675 497.69 333.062 C 494.403 334.373 489.742 336.567 486.47 335.359 L 485.931 333.714 C 487.607 329.64 494.204 322.541 497.441 317.634 z"/>
<path transform="translate(0,0)" fill="rgb(254,253,254)" d="M 525.295 115.814 C 530.401 116.623 537.799 116.9 537.946 123.22 C 536.49 126.247 532.624 127.513 529.442 129.004 C 526.061 130.695 523.535 132.308 519.764 132.378 C 516.92 130.701 517.722 131.742 516.828 128.444 C 517.884 122.241 520.586 119.738 525.295 115.814 z"/>
<path transform="translate(0,0)" fill="rgb(254,253,254)" d="M 542.932 259.103 L 543.667 242.769 C 550.094 241.065 562.958 256.153 547.835 266.836 C 546.538 265.85 543.896 264.553 542.366 263.74 C 542.711 262.019 542.793 260.854 542.932 259.103 z"/>
<path transform="translate(0,0)" fill="rgb(254,253,254)" d="M 663.891 324.744 C 666.137 325.486 665.386 325.145 667.008 327.495 C 665.669 334.586 662.662 333.611 657.592 337.243 C 655.09 339.036 659.928 341.272 659.483 345.624 C 656.857 346.979 655.482 346.362 652.51 345.803 C 648.984 343.626 643.889 341.178 640.109 339.221 C 651.883 335.58 654.037 332.632 663.891 324.744 z"/>
<path transform="translate(0,0)" fill="rgb(254,253,254)" d="M 558.416 166.409 C 561.055 166.369 561.412 166.212 563.648 167.415 C 566.396 173.456 562.914 185.798 561.264 192.324 C 559.004 192.189 558.539 192.065 556.382 191.366 C 552.492 186.157 554.142 171.59 558.416 166.409 z"/>
<path transform="translate(0,0)" fill="#ffffff" d="M 559.956 54.3757 L 568.869 53.8094 C 573.435 53.5375 581.732 52.3483 585 55.2478 C 584.381 58.3084 583.424 58.2372 580.588 60.7051 C 571.689 68.3707 565.581 62.4699 559.956 54.3757 z"/>
<path transform="translate(0,0)" fill="#ffffff" d="M 556.139 266.927 C 558.278 269.3 555.208 287.823 552.449 290.406 L 549.875 289.445 C 540.862 277.746 546.627 274.893 556.139 266.927 z"/>
<path transform="translate(0,0)" fill="rgb(254,253,254)" d="M 520.724 155.462 C 522.02 155.083 522.939 155.233 524.321 155.251 L 525.054 156.563 C 523.892 162.427 515.995 165.218 510.933 166.324 C 507.395 165.008 505.002 163.657 503.72 160.121 L 504.896 158.502 C 509.48 156.076 515.463 155.965 520.724 155.462 z"/>
<path transform="translate(0,0)" fill="rgb(254,253,254)" d="M 542.155 147.331 L 543.125 148.122 C 543.582 153.481 545.372 163.201 540.578 166.514 L 537.198 165.253 C 534.943 161.827 532.538 155.114 530.939 151.092 C 535.915 149.945 537.521 149.45 542.155 147.331 z"/>
<path transform="translate(0,0)" fill="#ffffff" d="M 615.254 63.5994 C 627.728 64.7786 613.452 79.091 609.676 82.9538 C 609.431 83.177 607.895 83.8624 607.486 84.0566 L 606.51 83.0024 C 606.198 74.4084 608.567 68.7638 615.254 63.5994 z"/>
<path transform="translate(0,0)" fill="#ffffff" d="M 530.51 255.548 C 532.013 251.421 533.87 246.723 537.881 244.45 C 541.293 249.089 536.704 256.168 542.932 259.103 C 542.793 260.854 542.711 262.019 542.366 263.74 C 543.896 264.553 546.538 265.85 547.835 266.836 C 538.816 267.445 535.696 261.875 530.51 255.548 z"/>
<path transform="translate(0,0)" fill="#ffffff" d="M 538.597 191.669 L 540.34 193.444 C 540.634 198.807 541.219 208.555 539.379 213.43 L 536.774 214.471 C 529.007 208.086 531.308 197.06 538.597 191.669 z"/>
<path transform="translate(0,0)" fill="rgb(254,253,254)" d="M 658.555 422.017 C 659.29 422.151 659.797 422.687 660.512 423.202 C 661.326 427.698 661.848 431.743 659.951 435.988 L 658.07 436.693 L 655.734 435.186 C 652.718 433.147 649.808 430.884 646.904 428.681 C 651.3 426.46 654.413 424.585 658.555 422.017 z"/>
<path transform="translate(0,0)" fill="#ffffff" d="M 551.372 198.497 C 554.134 199.106 554.757 199.167 557.104 200.706 C 557.801 204.583 555.273 208.062 553.381 212.354 C 551.402 213.322 552.413 213.152 550.249 212.92 C 549.225 210.222 550.941 202.075 551.372 198.497 z"/>
<path transform="translate(0,0)" fill="rgb(254,253,254)" d="M 526.412 315.636 C 528.741 316.212 528.957 316.479 530.565 318.284 L 530.094 320.468 C 527.038 323.598 525.337 324.058 521.251 325.734 L 519.426 326.09 L 518.526 324.97 C 519.568 321.968 523.998 318.061 526.412 315.636 z"/>
<path transform="translate(0,0)" fill="rgb(1,2,0)" fill-opacity="0.894118" d="M 657.048 604.285 C 660.506 607.752 673.215 618.537 674.14 621.978 C 671.646 623.461 632.019 620.324 627.161 619.19 C 634.166 617.533 654.86 620.234 659.455 615.358 C 659.828 611.61 658.228 607.953 657.048 604.285 z"/>
</svg>
