<svg xmlns="http://www.w3.org/2000/svg" version="1.1" style="display: block;" viewBox="0 0 1024 1024" width="256" height="256" preserveAspectRatio="none">
<path transform="translate(0,0)" fill="rgb(1,1,1)" d="M 477.098 69.4558 C 543.406 68.07 619.683 98.6501 664.12 148.062 C 669.82 154.4 673.993 161.491 679.312 167.624 C 713.452 206.997 723.971 263.159 734.766 312.58 C 739.154 332.835 748.799 335.835 759.403 351.676 C 771.103 369.376 772.897 391.459 779.041 410.948 C 785.181 430.422 789.885 450.003 794.933 469.448 C 796.008 473.589 809.811 491.123 812.818 496.487 C 820.536 510.254 828.407 519.705 823.197 536.759 C 821.727 542.33 816.305 565.515 813.073 568.468 C 799.017 581.308 800.326 593.739 794.726 606.695 C 788.613 620.836 756.992 637.404 743.362 645.905 C 745.063 680.296 751.253 713.817 754.107 748.05 C 754.843 756.871 754.152 760.564 748.498 766.744 C 756.972 775.913 773.763 785.822 784.279 796.73 C 784.169 829.081 792.855 845.953 803.047 876.46 L 833.294 966.901 C 837.57 979.977 844.321 998.413 847.184 1011.28 C 825.798 1012.64 796.824 1011.78 774.763 1011.76 L 646.453 1011.72 L 241.5 1011.72 C 210.209 1011.75 176.748 1012.34 145.634 1011.34 C 143.479 1004.63 149.791 958.183 150.903 947.673 C 153.42 922.7 156.126 897.746 159.021 872.814 C 160.869 855.384 162.846 819.162 170.099 803.019 C 175.649 790.665 195.787 772.505 205.878 762.248 C 210.284 757.578 225.878 747.011 225.434 740.529 C 222.188 693.212 220.179 638.473 216.974 591.943 C 206.676 585.034 201.055 573.315 195.99 562.245 C 191.549 552.539 184.358 539.791 181.649 529.592 C 174.594 503.031 170.994 472.821 172.727 445.391 C 173.738 428.418 182.644 408.295 183.062 395.12 C 181.818 373.114 181.846 349.823 181.759 328.073 C 181.581 283.911 200.337 255.294 221.836 218.405 C 227.955 207.905 234.32 192.093 242.174 182.15 C 259.973 159.618 280.752 137.309 303.972 120.223 C 313.508 113.46 319.867 112.298 329.374 103.862 C 303.331 104.285 266.352 121.005 246.171 136.882 C 220.023 157.455 174.323 209.474 163.325 240.059 L 163.128 240.621 L 161.935 240.598 C 156.766 229.995 180.131 190.097 186.461 180.809 C 192.27 172.285 197.24 155.687 205 148.41 C 223.093 131.444 240.295 110.874 261.493 97.693 C 274.573 91.423 313.813 86.6762 329.277 85.8998 C 338.362 84.4767 353.605 88.8064 362.169 86.6197 C 400.417 76.8534 437.38 70.9455 477.098 69.4558 z M 267.373 715.092 C 271.31 712.075 278.809 706.041 282.749 703.712 C 285.804 701.439 292.802 696.758 292.992 692.788 C 293.38 684.699 272.618 657.868 266.196 655.289 C 266.282 673.161 265.817 697.482 267.373 715.092 z M 392.595 330.298 C 393.111 325.752 394.155 319.662 393.286 315.325 L 391.227 313.648 C 389.667 318.796 389.781 323.688 391.165 328.87 L 392.595 330.298 z"/>
<path transform="translate(0,0)" fill="rgb(254,254,254)" d="M 470.662 409.429 C 474.56 409.045 481.442 409.35 485.574 409.41 C 485.573 415.393 485.838 421.797 485.978 427.815 C 492.623 427.929 503.755 431.326 508.103 429.618 C 511.826 426.463 512.546 416.405 513.399 411.161 C 521.689 412.016 525.346 412.476 533.332 414.664 C 534.16 420.734 534.566 425.585 534.938 431.704 C 549.542 431.805 554.774 439.173 564.334 427.009 C 565.221 438.825 569.354 454.293 571.584 466.452 C 575.016 485.164 575.939 498.559 575.857 517.232 C 569.085 511.742 560.81 508.887 554.679 503.432 C 552.376 501.382 557.171 491.988 556.295 484.613 C 554.617 470.5 547.359 468.446 543.572 461.319 C 545.229 458.46 548.079 458.092 551.706 456.607 L 551.973 455.264 C 546.004 449.648 538.567 458.525 531.845 452.294 C 532.156 449.397 533.846 448.512 536.189 445.922 L 535.481 444.858 C 530.926 444.031 530.11 447.828 525.082 447.962 C 513.715 448.265 501.837 448.088 490.474 448.005 C 494.507 444.238 502.38 438.954 498.849 433.49 C 490.044 429.028 459.28 432.544 450.222 439.366 C 448.968 440.311 448.435 445.901 448.926 447.791 C 450.188 448.87 451.313 449.864 453.162 449.019 C 468.701 441.915 482.472 437.378 499.854 436.039 C 492.267 439.921 488.93 443.385 483.199 449.605 C 481.023 451.967 474.936 446.337 470.752 450.275 C 472.578 457.085 465.611 466.651 459.886 469.095 C 458.865 467.696 458.043 466.303 457.142 464.831 L 455.822 465.252 L 455.143 467.41 C 459.573 476.115 452.968 476.469 452.386 486.375 C 453.915 485.904 454.926 485.728 456.471 485.446 C 469.045 498.614 436.464 500.457 430.052 504.573 C 422.476 509.437 420.691 511.413 415.212 518.348 C 407.375 529.493 403.76 533.847 402.727 547.493 C 391.628 542.112 380.685 540.918 368.58 538.891 C 360.646 531.163 356.001 520.631 347.355 514.906 C 343.414 512.296 342.464 512.955 340.845 508.986 C 343.484 504.81 345.509 507.939 347.685 504.127 C 341.73 499.384 342.68 503.29 339.107 495.036 C 334.395 484.149 326.466 469.209 314.256 465.654 C 309.356 464.227 281.083 456.161 277.867 457.55 L 275.818 462.937 C 271.923 464.4 273.695 460.7 268.084 458.901 C 265.793 459.855 266.581 459.218 265.26 461.439 C 266.588 463.848 270.006 465.619 272.47 467.227 C 270.23 472.847 266.678 478.678 264.447 484.477 C 261.373 492.468 264.966 491.58 268.284 498.647 L 267.553 500.607 C 264.044 502.724 262.235 504.691 258.737 504.381 C 258.343 504.03 257.267 502.985 257.061 502.579 C 245.034 478.827 247.09 472.225 251.525 448.656 C 259.413 450.211 265.919 451.435 273.889 452.352 C 273.535 439.971 273.554 427.539 274.966 415.221 C 283.537 421.301 285.768 425.636 290.982 434.432 C 299.329 436.873 319.455 440.802 328.11 441.423 C 330.81 439.768 332.448 430.873 333.389 427.148 C 334.849 433.095 335.437 438.124 336.219 444.164 C 357.291 446.68 389.654 449.898 409.605 444.092 C 413.334 438.617 416.591 431.888 419.672 425.937 C 419.79 431.527 420.741 436.69 421.606 442.2 L 431.474 442.635 C 432.23 434.904 433.942 429.101 433.815 421.03 C 449.553 412.664 452.929 410.51 470.662 409.429 z"/>
<path transform="translate(0,0)" fill="rgb(1,1,1)" d="M 295.996 444.208 C 314.018 442.507 329.198 457.584 333.708 474.138 C 332.351 473.343 327.688 470.08 327.025 469.027 C 323.568 463.531 297.465 447.904 295.996 444.208 z"/>
<path transform="translate(0,0)" fill="rgb(254,254,254)" d="M 375.435 565.195 C 383.173 566.341 394 564.971 400.973 568.855 C 408.847 573.239 414.068 614.169 451.051 632.794 C 472.486 643.59 504.3 643.336 526.675 636.019 C 529.054 643.149 534.954 651.24 539.296 657.391 C 536.133 661.873 532.622 667.702 529.931 672.502 C 512.171 704.175 490.066 736.447 474.184 768.957 C 470.797 751.53 462.825 742.991 456.209 727.428 C 454.012 722.258 453.653 714.433 453.141 708.674 C 461.349 705.988 469.074 703.549 477.045 700.15 C 489.469 693.512 500.163 676.066 509.485 664.466 C 472.284 678.849 448.829 698.168 408.882 712.347 C 399.392 705.376 391.03 693.74 382.46 687.757 C 361.267 672.961 343.474 658.955 324.064 641.839 C 341.818 635.312 354.706 627.422 365.634 611.997 C 366.631 614.991 367.549 617.997 369.298 620.621 C 372.152 624.902 383.539 624.864 387.156 621.976 C 374.746 612.411 376.543 618.838 368.018 603.302 C 369.095 591.382 372.737 577.043 375.435 565.195 z"/>
<path transform="translate(0,0)" fill="rgb(1,1,1)" d="M 368.579 642.863 C 386.385 647.534 408.48 649.891 426.83 649.187 C 430.765 649.036 437.927 646.122 440.053 650.29 C 438.177 653.146 439.284 652.3 435.765 653.326 C 416.88 655.813 388.899 666.46 370.039 650.912 C 367.806 649.071 368.488 645.582 368.579 642.863 z"/>
<path transform="translate(0,0)" fill="rgb(1,1,1)" d="M 384.544 667.095 C 392.554 665.951 403.255 667.439 405.747 676.242 C 398.847 676.469 387.188 674.207 384.544 667.095 z"/>
<path transform="translate(0,0)" fill="rgb(254,254,254)" d="M 547.462 517.186 C 554.286 523.24 565.623 533.196 565.786 543.118 C 566.1 562.332 561.339 586.853 549.386 602.35 C 526.503 632.016 475.783 640.72 445.564 617.525 C 419.932 598.804 408.597 550.583 429.11 525.049 C 437.115 515.059 448.762 508.66 461.487 507.263 C 465.062 506.885 463.213 511.697 466.855 514.64 C 469.33 512.109 469.676 507.204 473.167 505.776 C 487.374 499.963 492.774 514.079 501.441 521.113 C 503.728 522.968 510.542 524.36 513.329 524.988 C 515.793 524.391 518.972 523.357 521.474 522.626 C 525.178 523.055 527.523 522.687 529.861 526.255 C 523.141 530.54 518.137 533.502 510.005 534.736 C 513.732 539.015 519.085 537.098 526.737 537.833 C 533.115 529.534 541.08 525.589 547.462 517.186 z"/>
<path transform="translate(0,0)" fill="rgb(254,254,254)" d="M 382.817 126.546 C 386.974 128.123 391.46 136.893 393.849 140.905 C 386.293 148.717 385.294 148.716 374.789 151.414 C 374.06 157.368 374.856 162.427 373.162 168.225 C 365.082 173.857 359.898 180.148 356.81 189.247 C 350.311 205.319 363.37 197.656 367.66 207.545 C 370.463 214.005 366.367 222.548 359.298 224.012 C 353.838 225.142 353.374 224.088 349.05 221.519 C 345.495 225.066 352.173 233.662 351.768 238.741 C 351.192 245.964 343.851 244.401 343.231 252.874 C 346.833 251.836 347.365 250.455 351.327 250.614 C 358.826 250.915 366.818 266.801 359.733 271.364 C 352.881 275.776 349.749 275.708 341.897 273.892 C 341.233 275.787 344.997 285.621 346.012 288.996 C 342.13 298.29 332.791 304.448 324.208 296.677 C 324.099 294.386 324.329 292.968 322.855 291.306 L 316.406 294.319 C 315.867 297.59 336.486 312.583 322.112 321.805 C 318.346 324.221 318.718 324.776 314.152 323.234 C 308.222 317.203 308.648 313.937 308.182 305.656 C 303.326 316.562 295.932 326.406 289.154 336.281 C 289.398 326.18 289.47 316.074 289.369 305.97 C 279.595 317.802 265.079 338.829 260.451 353.253 C 259.287 357.827 255.674 374.821 248.056 368.923 C 243.69 359.722 245.12 310.486 246.386 298.511 C 251.018 254.713 277.355 201.799 311.271 173.361 C 301.108 200.804 299.502 203.502 292.688 232.397 C 306.531 216.35 313.301 207.793 325.824 190.364 C 324.234 199.646 322.803 205.899 320.331 214.997 C 337.55 194.154 344.688 177.252 358.877 154.771 C 364.901 145.225 374.901 134.585 382.817 126.546 z"/>
<path transform="translate(0,0)" fill="rgb(254,254,254)" d="M 282.914 513.226 C 303.316 511.659 293.118 523.791 309.019 529.317 C 317.316 532.2 327.006 528.15 334.427 524.411 C 342.24 525.192 353.594 545.848 355.217 553.13 C 358.948 569.869 359.051 591.36 350.293 606.56 C 342.008 620.939 330.804 625.891 315.729 630.007 C 301.548 615.144 290.802 597.548 282.682 578.75 C 278.371 567.508 275.622 555.728 274.511 543.739 L 260.031 556.012 C 259.309 575.274 260.142 583.378 265.079 602.045 C 253.335 580.604 244.222 550.227 255.904 526.999 C 262.383 522.145 268.154 519.94 275.57 516.726 C 288.617 527.92 280.105 524.614 280.768 531.8 C 286.475 533.761 295.559 535.799 301.643 537.262 C 301.781 534.227 285.995 518.807 282.914 513.226 z"/>
<path transform="translate(0,0)" fill="rgb(254,254,254)" d="M 571.363 141.624 C 572.146 142.134 572.455 142.337 573.041 143.062 C 580.256 152.001 588.188 156.354 598.972 159.514 C 586.283 179.182 599.028 168.632 607.811 180.557 C 612.666 187.149 602.139 195.518 600.506 200.202 C 605.743 202.766 606.51 197.85 616.426 203.502 C 623.66 214.817 614.301 220.331 608.529 228.645 C 611.741 233.428 623.32 222.538 632.346 237.607 C 628.879 257.878 627.194 246.461 620.334 253.563 C 620.01 255.942 619.023 260.462 620.027 262.306 C 623.618 258.762 625.84 256.057 630.74 255.037 C 635.93 255.74 638.537 257.653 641.657 261.811 L 642.235 262.593 C 641.722 269.365 643.081 274.609 636.499 277.535 C 631.805 277.263 622.599 272.718 617.835 270.618 C 617.318 279.275 617.125 288.21 616.83 296.898 C 602.447 268.188 591.323 226.812 580.145 196.535 C 576.093 185.558 567.227 173.966 563.34 162.465 C 573.7 153.891 572.645 154.993 571.363 141.624 z"/>
<path transform="translate(0,0)" fill="rgb(254,254,254)" d="M 464.081 298.541 C 468.641 303.29 482.696 361.863 483.908 372.787 C 484.935 382.037 485.37 394.394 485.372 404.306 C 472.399 402.444 465.898 402.481 452.764 403.256 C 444.649 404.374 440.838 404.786 433.011 407.181 C 436.498 366.626 446.425 335.036 464.081 298.541 z"/>
<path transform="translate(0,0)" fill="rgb(254,254,254)" d="M 731.644 393.826 C 735.914 394.947 743.852 399.845 749.412 402.016 C 738.266 420.644 730.822 439.029 728.228 460.809 C 727.429 467.524 728.767 473.141 727.639 480.277 C 725.705 480.499 723.77 480.708 721.833 480.903 C 721.298 483.177 723.076 484.51 724.707 486.405 C 727.509 489.658 726.947 491.476 727.477 495.772 L 727.184 496.339 C 724.168 496.621 708.327 488.642 704.259 486.769 C 703.732 478.338 704.237 465.426 705.614 457.154 C 709.899 431.418 709.692 410.905 731.644 393.826 z"/>
<path transform="translate(0,0)" fill="rgb(254,254,254)" d="M 714.249 347.859 L 716.494 347.825 C 719.38 349.183 721.442 352.694 723.414 355.419 C 713.29 367.188 699.459 372.603 689.674 388.854 C 680.038 404.858 679.364 411.452 674.825 429.426 C 672.363 439.178 672.483 465.16 669.358 469.396 C 665.622 463.678 663.923 462.603 657.889 459.323 C 656.798 437.82 660.048 419.237 667.843 399.163 C 678.275 372.303 688.384 359.557 714.249 347.859 z"/>
<path transform="translate(0,0)" fill="rgb(254,254,254)" d="M 395.459 230.738 C 411.873 231.657 413.028 248.323 399.499 256.644 C 381.404 253.037 379.479 239.223 395.459 230.738 z"/>
<path transform="translate(0,0)" fill="rgb(254,254,254)" d="M 374.522 256.062 C 393.935 254.909 396.478 267.846 382.979 279.18 C 370.819 280.024 361.327 266.657 374.522 256.062 z"/>
<path transform="translate(0,0)" fill="rgb(254,254,254)" d="M 637.387 203.779 L 640.355 204.275 C 646.869 209.413 648.562 216.046 645.634 223.918 C 644.293 227.524 639.958 228.969 636.658 230.34 C 631.077 227.8 628.761 225.092 624.37 220.946 L 627.953 209.288 C 630.417 207.601 634.667 205.334 637.387 203.779 z"/>
<path transform="translate(0,0)" fill="rgb(254,254,254)" d="M 366.748 228.381 C 373.044 227.229 379.076 231.416 380.198 237.717 C 381.321 244.018 377.106 250.03 370.8 251.123 C 364.535 252.21 358.571 248.028 357.456 241.769 C 356.34 235.509 360.494 229.525 366.748 228.381 z"/>
<path transform="translate(0,0)" fill="rgb(254,254,254)" d="M 361.4 277.838 C 367.081 279.343 369.413 281.308 374.132 284.623 C 374.118 291.73 374.241 303.557 363.843 302.402 C 363.284 299.683 363.153 299.109 361.92 296.633 C 357.345 295.345 356.717 299.286 352.046 297.861 C 346.561 288.068 354.356 282.19 361.4 277.838 z"/>
<path transform="translate(0,0)" fill="rgb(254,254,254)" d="M 380.653 201.099 C 385.86 206.044 381.903 208.951 386.009 212.869 C 391.002 211.081 389.043 205.915 395.32 208.639 C 399.365 214.393 399.176 219.74 393.797 224.487 L 382.813 229.856 C 379.785 226.63 376.389 222.809 373.07 219.969 C 374.439 206.98 379.18 209.239 380.653 201.099 z"/>
<path transform="translate(0,0)" fill="rgb(254,254,254)" d="M 647.419 233.105 C 649.15 233.083 650.633 233.398 652.336 233.675 C 658.787 238.633 659.158 247.435 655.306 254.157 C 652.901 256.694 649.929 256.528 646.388 256.87 C 632.839 248.882 630.87 237.457 647.419 233.105 z"/>
<path transform="translate(0,0)" fill="rgb(254,254,254)" d="M 518.841 364.605 C 522.851 369.352 532.504 398.794 532.351 406.317 L 531.005 407.174 L 514.532 405.465 C 517.72 392.796 518.337 377.707 518.841 364.605 z"/>
<path transform="translate(0,0)" fill="rgb(254,254,254)" d="M 624.217 177.959 C 628.739 179.624 637.04 192.47 634.362 198.927 C 631.899 201.798 629.967 202.033 626.319 203.084 C 620.897 202.044 617.196 197.629 613.353 193.818 L 613.468 193.45 C 616.411 184.259 615.877 183.16 624.217 177.959 z"/>
<path transform="translate(0,0)" fill="rgb(254,254,254)" d="M 367.656 178.008 C 370.918 176.975 373.937 175.658 377.263 176.22 C 382.422 180.702 379.487 193.728 380.653 201.099 C 361.611 200.523 359.333 192.665 367.656 178.008 z"/>
<path transform="translate(0,0)" fill="rgb(254,254,254)" d="M 655.087 259.799 C 671.423 259.798 666.992 281.084 658.677 283.295 C 651.627 280.902 649.582 276.785 644.943 270.866 C 648.433 265.409 649.561 263.189 655.087 259.799 z"/>
<path transform="translate(0,0)" fill="rgb(254,254,254)" d="M 387.571 282.898 C 411.214 281.573 394.436 306.676 390.964 307.702 L 389.542 305.735 C 389.003 301.848 388.809 300.345 387.575 296.626 L 385.912 296.286 C 384.435 298.466 384.233 298.987 382.172 300.54 L 380.618 299.76 C 376.735 292.119 382.561 287.627 387.571 282.898 z"/>
<path transform="translate(0,0)" fill="rgb(254,254,254)" d="M 704.073 496.789 C 709.617 497.296 726.015 502.963 728.439 508.103 C 727.164 512.366 725.84 509.207 723.298 514.02 C 725.581 518.086 726.457 519.937 728.095 524.292 L 727.521 525.739 L 725.844 526.297 C 717.821 521.519 706.189 505.885 704.073 496.789 z"/>
<path transform="translate(0,0)" fill="rgb(254,254,254)" d="M 482.766 465.816 C 484.485 467.629 484.268 489.996 484.779 495.2 C 479.595 494.764 474.089 494.638 468.868 494.429 L 467.636 494.554 L 467.165 493.285 C 472.165 476.596 473.711 478.625 482.766 465.816 z"/>
<path transform="translate(0,0)" fill="rgb(254,254,254)" d="M 412.648 208.186 C 416.059 207.803 416.627 207.76 420.081 208.268 L 420.794 209.435 C 420.367 215.194 417.469 227.66 414.429 232.537 C 401.633 226.554 397.717 213.239 412.648 208.186 z"/>
<path transform="translate(0,0)" fill="rgb(254,254,254)" d="M 322.732 325.757 L 334.292 327.834 C 331.5 334.444 327.686 342.114 324.631 348.737 L 323.439 349.666 C 321.145 347.976 316.711 336.807 315.12 333.312 C 318.255 331.047 320.179 328.64 322.732 325.757 z"/>
<path transform="translate(0,0)" fill="#ffffff" d="M 285.066 471.638 L 285.729 471.938 C 287.882 475.293 287.985 495.727 284.001 498.781 L 280.55 497.911 C 268.411 490.989 279.549 479.261 285.066 471.638 z"/>
<path transform="translate(0,0)" fill="rgb(254,254,254)" d="M 340.728 302.934 C 344.439 302.62 346.261 301.837 347.95 305.345 C 347.083 310.029 341.596 316.172 338.859 323.676 C 328.888 316.206 329.54 308.536 340.728 302.934 z"/>
<path transform="translate(0,0)" fill="#ffffff" d="M 640.286 281.314 C 646.45 282.538 651.75 289.368 655.858 294.009 L 649.934 302.366 L 648.765 304.019 L 647.125 304.069 C 643.193 299.259 639.415 287.595 640.286 281.314 z"/>
<path transform="translate(0,0)" fill="#ffffff" d="M 373.841 303.643 L 376.157 304.539 C 380.181 310.437 372.785 322.282 368.273 326.344 C 358.14 317.596 365.665 309.181 373.841 303.643 z"/>
<path transform="translate(0,0)" fill="#ffffff" d="M 657.608 468.792 C 669.529 468.593 673.504 472.551 668.596 484.029 C 665.01 485.421 662.538 485.497 659.204 483.8 C 656.117 479.226 657.146 474.314 657.608 468.792 z"/>
<path transform="translate(0,0)" fill="#ffffff" d="M 411.377 191.813 C 413.642 191.532 413.714 191.596 415.834 192.599 C 416.776 198.684 408.975 202.408 404.269 204.286 C 401.633 205.232 402.529 205.354 400.395 204.504 L 400.163 202.077 C 402.358 196.61 406.476 194.46 411.377 191.813 z"/>
<path transform="translate(0,0)" fill="rgb(254,254,254)" d="M 406.54 256.879 L 407.431 258.373 C 404.87 265.882 403.477 273.813 397.418 277.961 L 395.773 274.971 C 395.331 271.117 397.542 266.052 398.864 262.227 L 406.54 256.879 z"/>
<path transform="translate(0,0)" fill="#ffffff" d="M 603.808 160.144 C 609.363 160.951 618.066 169.605 619.118 175.211 C 609.946 174.862 602.49 170.068 603.808 160.144 z"/>
<path transform="translate(0,0)" fill="rgb(254,254,254)" d="M 387.632 149.814 C 391.242 155.735 387.034 167.212 382.04 171.609 C 376.623 165.83 384.191 155.454 387.632 149.814 z"/>
<path transform="translate(0,0)" fill="#ffffff" d="M 429.608 185.063 C 430.408 185.575 430.444 185.994 431.013 186.967 C 429.816 191.248 426.1 198.971 424.277 203.609 C 421.525 201.493 420.642 196.037 421.573 192.749 C 422.969 187.818 425.389 187.222 429.608 185.063 z"/>
<path transform="translate(0,0)" fill="#ffffff" d="M 521.474 522.626 C 536.18 518.298 531.839 517.22 541.237 511.141 C 537.979 516.595 534.934 522.294 529.861 526.255 C 527.523 522.687 525.178 523.055 521.474 522.626 z"/>
<path transform="translate(0,0)" fill="#ffffff" d="M 279.252 394.551 L 280.448 395.6 C 282.001 400.069 281.921 406.942 281.258 411.63 C 279.952 411.066 279.358 410.318 278.352 409.325 C 277.202 404.779 278.507 399.293 279.252 394.551 z"/>
<path transform="translate(0,0)" fill="#ffffff" fill-opacity="0.988235" d="M 391.227 313.648 L 393.286 315.325 C 394.155 319.662 393.111 325.752 392.595 330.298 L 391.165 328.87 C 389.781 323.688 389.667 318.796 391.227 313.648 z"/>
</svg>
