<svg version="1.1" xmlns="http://www.w3.org/2000/svg" style="display: block;" viewBox="0 0 1680 1116" width="420" height="279" preserveAspectRatio="none">
<path transform="translate(0,0)" fill="rgb(0,0,0)" d="M 1013.53 66.4005 C 1021.7 65.5561 1032.35 64.6232 1040.21 67.3163 C 1051.54 71.201 1063.01 81.5675 1072.84 88.4901 C 1089.24 100.039 1193.53 176.352 1203.27 178.997 C 1214.5 182.048 1229.44 179.307 1240.99 178.413 C 1261.24 176.847 1339.77 168.712 1354.56 175.21 C 1370.28 182.112 1385.16 195.441 1399.34 205.261 L 1485.72 265.274 C 1498.13 273.912 1510.67 283.375 1523.19 291.704 C 1546.53 307.22 1577.67 316.878 1601.28 331.027 C 1609.07 361.228 1611.5 393.624 1615.85 424.683 C 1618.32 442.299 1631.33 510.391 1625.1 523.963 C 1616.28 543.156 1578.08 586.524 1565.25 606.365 C 1558.21 617.25 1531.28 648.706 1528.98 657.379 C 1525.4 670.882 1526.47 694.942 1523.29 712.481 C 1508.1 727.414 1481.39 744.726 1464.01 758.736 C 1434.8 782.299 1404.16 804.823 1374.37 827.768 C 1356.98 837.943 1330.98 839.034 1311.61 843.211 C 1278.51 850.346 1244.94 854.6 1212.07 861.247 C 1201.59 872.894 1186.25 902.268 1176.38 917.796 C 1165.49 922.491 1124.64 928.506 1110.02 931.378 C 1067.67 939.694 1024.51 947.592 982.021 955.441 C 976.354 956.488 968.347 957.155 962.395 956.862 C 922.899 954.92 878.275 940.475 838.967 944.635 C 830.642 945.516 807.684 958.08 798.515 962.068 C 775.337 972.147 751.358 984.71 728.226 994.548 C 715.864 999.894 684.945 993.79 670.774 991.64 C 648.253 988.17 625.715 984.82 603.159 981.591 C 543.916 973.628 483.306 967.779 424.627 956.966 C 418.278 955.797 400.561 944.839 393.971 941.091 L 348.685 915.371 C 330.969 905.357 279.26 879.343 266.909 866.512 C 260.659 843.481 249.354 806.957 239.46 785.741 C 236.22 778.795 207.856 749.741 201.184 742.619 L 131.926 668.173 C 124.442 660.049 99.534 634.196 95.5696 626.837 C 110.07 560.319 119.253 491.682 133.856 425.04 C 138.981 401.648 139.788 378.016 147.332 354.447 C 160.959 343.551 209.272 318.713 226.375 309.066 L 370.633 229.313 C 381.653 223.329 420.74 199.388 431.199 198.108 C 485.608 191.453 542.81 194.824 596.921 185.99 C 603.644 184.892 628.142 168.606 635.5 164.257 L 722.393 113.484 C 732.235 107.636 768.864 84.8547 777.279 82.0733 C 804.075 74.5396 836.186 78.4194 863.435 75.7833 C 913.504 70.9395 963.623 70.2557 1013.53 66.4005 z"/>
<path transform="translate(0,0)" fill="rgb(254,254,254)" d="M 986.703 130.411 C 990.732 129.649 1000.47 131.922 1004.59 133.258 C 1054.72 149.498 1105.4 164.279 1155.47 180.542 C 1173.03 186.247 1190.46 207.437 1203.37 220.813 L 1283.01 222.646 C 1291.22 222.773 1332.46 222.265 1338.32 224.819 C 1379.46 242.772 1418.67 266.945 1459.09 286.751 C 1463.34 288.831 1471.36 294.182 1473.64 298.126 L 1473.98 298.717 C 1479.23 307.772 1491.03 341.757 1497.38 355.712 C 1507.12 358.346 1536.9 365.874 1544.6 369.795 L 1545.22 370.114 C 1551.88 373.496 1561.83 396.397 1565.71 404.119 C 1575.6 423.691 1585.33 443.337 1594.93 463.053 C 1583.07 486.482 1575.17 526.087 1562.69 550.202 C 1558.34 558.604 1548.08 567.547 1541.88 574.903 C 1524.22 595.854 1502.62 615.542 1485.99 637.072 C 1486.61 653.951 1492.81 674.879 1495.57 692.519 C 1487.88 696.653 1476.63 704.725 1468.65 709.598 L 1391.64 757.33 C 1375.33 767.553 1348.7 787.099 1330.32 791.584 C 1327.67 792.229 1308.35 793.246 1304.31 793.497 C 1286.75 794.698 1269.16 795.525 1251.56 795.977 C 1238.69 796.35 1219.88 796.287 1208 799.716 C 1192.58 813.43 1168.45 857.713 1151.9 870.764 C 1148.13 873.742 1099.43 885.078 1091.82 886.956 C 1074.98 891.138 1058.17 895.413 1041.37 899.778 C 1024.22 904.181 1008.77 910.162 991.109 905.87 C 965.877 899.735 940.752 893.264 915.572 886.923 C 902.824 883.685 889.991 880.79 877.088 878.242 C 869.816 881.817 861.614 887.665 854.025 891.578 C 841.147 898.217 829.035 901.241 815.21 904.989 C 806.31 907.535 773.103 918.838 767.357 919.17 C 727.772 921.46 684.587 906.893 644.129 906.918 C 620.278 906.933 593.786 919.686 573.634 919.669 C 564.569 919.661 522.583 908.424 509.989 905.276 C 488.387 899.876 457.11 893.737 436.811 886.453 C 427.236 883.017 402.351 853.412 393.437 844.448 C 382.61 833.56 369.498 820.17 358.307 808.922 C 359.183 794.171 362.276 777.507 364.507 762.632 C 366.423 749.003 368.104 735.343 369.548 721.656 C 354.43 720.25 314.188 708.671 299.808 700.907 C 295.705 698.691 282.251 673.979 278.692 667.747 L 234.861 590.813 C 228.913 580.369 215.662 556.027 208.592 547.371 L 207.95 546.597 C 219.935 508.32 232.583 470.253 245.887 432.414 C 252.807 412.182 260.969 386.154 268.996 366.721 C 279.994 359.608 299.42 351.687 311.814 346.068 L 366.829 320.576 C 406.731 302.341 446.199 283.228 486.309 265.531 C 504.725 257.406 523.678 258.146 543.387 257.084 C 563.56 255.898 583.744 254.923 603.938 254.16 C 617.595 253.726 640.588 253.986 653.608 251.379 C 659.838 250.132 678.353 234.724 684.497 229.989 L 743.808 185.087 C 755.847 176.134 773.016 161.261 787.597 158.737 C 815.992 153.82 844.887 150.253 873.464 146.299 L 986.703 130.411 z"/>
<path transform="translate(0,0)" fill="rgb(4,124,13)" d="M 955.714 181.441 C 1018.95 177.221 1089.77 190.325 1143.52 225.081 C 1157.68 234.236 1174.04 249.174 1187.41 260.351 C 1237.14 247.83 1305.65 255.118 1353.69 273.114 C 1411.99 294.951 1444.74 325.117 1470.34 380.835 C 1484.88 389.086 1499.22 396.501 1511.51 407.74 C 1554.78 447.286 1551.05 505.446 1511.98 546.488 C 1488.9 570.739 1451.68 593.47 1417.87 594.693 C 1424.65 602.721 1434.5 613.419 1439.24 622.428 C 1444.69 633.076 1444.48 653.1 1440.29 664.155 C 1412.91 736.351 1268.13 774.79 1204.02 752.148 C 1183.97 786.479 1153.78 808.833 1117.51 823.608 C 1045.05 852.909 963.988 852.637 891.725 822.853 C 886.325 824.387 881.021 826.44 875.748 828.381 C 811.95 851.938 758.267 862.285 690.34 852.217 C 676.858 850.219 665.311 855.07 652.697 857.975 C 591.491 872.074 512.992 865.376 465.524 820.436 C 424.615 782.521 425.898 724.782 463.898 685.554 C 412.756 671.443 363.116 649.616 329.287 607.883 C 264.928 528.491 309.464 435.68 380.529 381.304 C 472.507 310.928 597.176 283.021 710.157 295.08 C 712.898 291.048 715.282 288.216 718.51 284.593 C 777.723 218.119 868.322 186.008 955.714 181.441 z"/>
<path transform="translate(0,0)" fill="rgb(254,254,254)" d="M 934.568 389.911 C 933.578 386.083 932.94 386.104 933.965 382.848 C 938.78 379.414 993.557 365.329 1003.19 363.993 C 1006.76 363.497 1024.18 365.626 1029.27 366.138 C 1027.76 377.108 1023.43 408.683 1024.06 418.773 C 1024.05 422.766 1023.27 428.564 1024.65 431.697 L 1026.8 433.582 C 1042.16 431.44 1053.63 430.465 1069.14 430.528 C 1071.3 437.161 1073.59 443.644 1074.9 450.497 C 1046.02 451.012 1021.4 456.414 994.994 457.716 C 994.818 471.786 996.481 479.6 997.231 492.936 C 988.734 493.024 976.85 493.494 968.62 493.02 C 966.45 483.336 964.717 472.722 964.729 462.786 C 940.481 468.28 916.525 471.942 892.638 479.172 C 890.567 472.93 887.979 464.347 885.58 458.416 C 895.226 457.343 911.727 452.848 921.693 450.414 L 923.588 445.973 C 920.826 439.849 916.349 439.388 915.047 434.364 C 914.311 431.524 918.41 428.577 920.342 425.493 C 918.723 420.434 904.617 398.415 900.92 391.004 C 908.721 389.113 916.305 386.064 924.714 384.061 C 926.418 389.323 926.817 390.653 929.845 395.207 C 931.468 393.613 933.071 391.652 934.568 389.911 z"/>
<path transform="translate(0,0)" fill="rgb(54,155,46)" d="M 934.568 389.911 C 936.099 390.698 938.548 395.345 940.523 395.603 C 952.138 397.123 988.999 380.066 997.509 384.149 L 997.569 387.313 C 997.292 393.561 997.153 401.335 996.585 407.446 C 993.244 407.772 993.156 408.348 990.624 406.868 C 990.297 404.126 990.123 401.642 989.946 398.901 L 986.73 391.569 C 981.108 390.117 946.709 400.265 935.767 402.133 L 929.845 395.207 C 931.468 393.613 933.071 391.652 934.568 389.911 z"/>
<path transform="translate(0,0)" fill="rgb(67,173,73)" d="M 989.946 398.901 C 990.123 401.642 990.297 404.126 990.624 406.868 C 993.156 408.348 993.244 407.772 996.585 407.446 C 994.692 411.088 992.801 412.546 988.756 413.286 C 983.51 414.244 949.267 422.409 946.796 421.527 C 945.717 418.873 945.795 420.013 946.511 417.228 C 952.219 411.377 978.812 409.278 987.213 404.965 C 989.422 403.831 989.244 401.79 989.946 398.901 z"/>
<path transform="translate(0,0)" fill="rgb(41,142,24)" d="M 1024.06 418.773 C 1024.05 422.766 1023.27 428.564 1024.65 431.697 L 1026.8 433.582 C 1018.6 435.467 1008.05 436.165 999.594 437.463 C 995.969 438.019 995.482 437.295 993.047 435.35 C 991.648 431.608 991.778 433.184 992.412 429.358 C 999.54 422.912 1012.87 429.718 1021.66 425.223 C 1023.3 424.39 1023.59 420.879 1024.06 418.773 z"/>
<path transform="translate(0,0)" fill="rgb(54,155,46)" d="M 923.588 445.973 C 931.37 443.106 954.327 436.249 961.972 437.9 L 963.281 439.392 L 963.011 442.156 C 959.803 444.334 928.203 449.12 921.693 450.414 L 923.588 445.973 z"/>
<path transform="translate(0,0)" fill="rgb(254,254,254)" d="M 536.234 444.254 L 537.387 444.375 C 538.225 455.407 535.752 470.805 537.147 486.176 C 552.91 479.713 567.667 467.681 581.156 457.19 C 586.034 464.313 589.625 470.035 593.956 477.506 C 584.759 482.621 538.029 511.676 535.161 519.125 L 536.178 521.362 C 543.888 526.057 640.877 543.721 657.004 545.717 L 640.642 572.46 C 619.444 565.161 580.22 558.006 558.234 553.882 C 551.135 552.902 541.569 550.603 534.371 549.077 C 530.926 573.91 526.33 604.328 520.512 628.526 C 511.838 628.795 501.157 630.381 492.372 631.462 C 504.027 594.273 506.127 573.803 509.936 536.047 C 494.434 547.62 485.291 553.749 469.794 566.708 C 467.6 560.722 462.918 551.352 460.119 545.314 C 474.962 534.535 497.422 519.496 510.742 507.939 C 511.505 491.917 511.076 467.625 508.801 451.561 C 516.761 449.914 528.13 446.451 536.234 444.254 z"/>
<path transform="translate(0,0)" fill="rgb(254,254,254)" d="M 1159.99 390.982 C 1159.08 391.52 1244.22 383.927 1249.74 383.956 C 1253.39 388.617 1256.2 397.559 1257.9 403.295 C 1254.85 407.327 1252.38 409.066 1253.48 414.185 C 1259.68 418.724 1268.24 424.282 1273.82 428.932 C 1269.52 433.532 1265.41 438.975 1259.34 440.573 L 1257.44 441.61 C 1265.13 445.27 1266.98 449.03 1270.83 457 C 1271.58 462.564 1269.93 466.314 1270.95 469.128 C 1302.98 469.478 1294.59 463.824 1308.83 490.966 C 1272.24 486.35 1240.71 485.222 1203.83 486.031 C 1188.08 486.376 1171.89 487.27 1156.21 487.025 C 1154.96 481.866 1150.79 470.507 1155.44 467.603 C 1163.49 465.895 1168.19 467.847 1172.84 466.877 C 1176.94 463.308 1176.37 462.142 1178.44 456.465 C 1176.38 451.787 1175.7 450.085 1174.53 445.142 L 1175.92 438.138 C 1173.33 434.581 1170.1 426.94 1168.13 422.684 C 1172.78 421.277 1186.99 415.856 1185.49 409.835 C 1177.47 404.888 1176.53 409.285 1169.63 408.443 C 1164.72 405.626 1162 396.376 1159.99 390.982 z"/>
<path transform="translate(0,0)" fill="rgb(54,155,46)" d="M 1270.83 457 C 1271.58 462.564 1269.93 466.314 1270.95 469.128 C 1260.68 469.137 1250.13 469.312 1239.86 468.841 C 1236.22 468.674 1235.63 467.737 1235.02 464.81 C 1241.69 452.295 1263.08 463.143 1270.83 457 z"/>
<path transform="translate(0,0)" fill="rgb(54,155,46)" d="M 1178.44 456.465 C 1185.67 466.379 1200.46 458.077 1209.42 462.674 L 1210.63 465.455 L 1210.23 463.319 L 1210.75 464.189 C 1210.1 465.723 1209.45 467.707 1207.49 467.835 C 1196.28 468.564 1165.19 468.507 1155.44 467.603 C 1163.49 465.895 1168.19 467.847 1172.84 466.877 C 1176.94 463.308 1176.37 462.142 1178.44 456.465 z"/>
<path transform="translate(0,0)" fill="rgb(54,155,46)" d="M 1234.2 432.128 C 1240.17 431.973 1251.24 430.595 1255.42 436.592 C 1256.56 438.231 1257.33 438.886 1258.82 440.139 L 1259.34 440.573 L 1257.44 441.61 C 1256.37 441.58 1256.5 441.557 1255.57 441.92 C 1249.9 444.113 1240.93 443.776 1234.65 443.951 C 1234.12 440.234 1234.22 435.93 1234.2 432.128 z"/>
<path transform="translate(0,0)" fill="rgb(41,142,24)" d="M 1175.92 438.138 C 1184.83 438.32 1200.58 435.054 1205.9 436.048 C 1207 438.754 1206.75 437.704 1206.02 440.973 C 1200.74 447.001 1182.73 444.841 1174.53 445.142 L 1175.92 438.138 z"/>
<path transform="translate(0,0)" fill="rgb(41,142,24)" d="M 1239.7 402.94 C 1246.69 402.729 1250.93 402.728 1257.9 403.295 C 1254.85 407.327 1252.38 409.066 1253.48 414.185 C 1249.27 410.15 1244.34 406.523 1239.7 402.94 z"/>
<path transform="translate(0,0)" fill="rgb(54,155,46)" d="M 1223.23 402.857 C 1224.89 403.099 1224.08 402.862 1225.54 404.079 C 1224.91 411.391 1225.48 413.598 1228.8 419.999 L 1213.13 419.695 C 1210.42 419.434 1210.04 419.572 1208.08 417.896 L 1208.1 415.217 C 1211.28 409.021 1217.23 405.758 1223.23 402.857 z"/>
<path transform="translate(0,0)" fill="rgb(254,254,254)" d="M 1130.35 333.618 C 1136.56 336.086 1145.49 339.753 1151.94 340.423 C 1155.91 338.915 1151.92 337.229 1155.82 333.305 C 1169.49 332.665 1183.15 331.622 1196.77 330.178 C 1229.06 326.806 1222.86 324.705 1253.72 336.298 C 1247.68 346.603 1246.32 352.125 1243.24 363.447 C 1244.78 367.636 1246.86 372.066 1248.68 376.175 L 1249.74 383.956 C 1244.22 383.927 1159.08 391.52 1159.99 390.982 L 1159.79 390.401 C 1157.18 388.087 1157.4 388.743 1153.42 388.121 C 1149.31 421.571 1142.19 453.909 1136.2 487.059 C 1125.38 483.205 1120.04 481.202 1108.77 479.529 C 1107.28 474.645 1114.48 447.554 1116.15 440.045 C 1124.03 404.617 1126.11 369.636 1130.35 333.618 z"/>
<path transform="translate(0,0)" fill="rgb(54,155,46)" d="M 1248.68 376.175 L 1249.74 383.956 C 1244.22 383.927 1159.08 391.52 1159.99 390.982 L 1159.79 390.401 C 1157.18 388.087 1157.4 388.743 1153.42 388.121 L 1154.13 385.579 C 1162.58 378.682 1237.28 380.866 1248.68 376.175 z"/>
<path transform="translate(0,0)" fill="rgb(41,142,24)" d="M 1206.75 346.441 C 1210.34 346.154 1213.89 345.167 1216.23 348.03 C 1216.19 351.869 1215.9 353.147 1215.13 356.855 C 1212.89 358.562 1174.01 362.41 1166.69 363.895 C 1162.69 363.994 1157.85 365.1 1155.95 361.202 C 1156.25 359.306 1156.07 358.179 1157.37 356.884 C 1164.24 350.039 1197.26 347.231 1206.75 346.441 z"/>
<path transform="translate(0,0)" fill="rgb(253,219,82)" d="M 1000.64 684.596 C 1006.33 682.823 1027.78 674.25 1031.18 674.304 C 995.094 712.261 890.297 731.848 838.93 733.719 C 790.962 735.466 737 732.442 689.874 723.557 C 679.896 721.675 665.32 719.371 656.182 715.251 C 655.817 703.926 650.44 689.026 645.938 678.511 C 706.165 711.71 822.157 713.54 890.172 709.288 C 917.061 707.607 975.492 694.291 1000.64 684.596 z"/>
<path transform="translate(0,0)" fill="rgb(254,254,254)" d="M 782.274 421.461 C 784.299 421.005 784.832 421.175 786.833 421.42 C 789.856 425.892 787.25 441.588 786.854 448.406 C 802.465 441.287 815.38 433 832.837 425.489 C 836.432 431.799 840.907 437.322 845.983 442.48 C 827.232 454.261 803.903 464.51 784.178 476.495 C 784.259 483.505 784.143 489.162 783.732 496.158 C 800.921 494.873 816.703 492.857 834.248 491.806 C 843.592 490.927 852.957 490.269 862.332 489.83 C 861.759 498.59 861.375 503.99 859.686 512.543 C 830.305 513.578 781.505 517.157 753.706 523.183 C 754.261 501.999 755.384 480.283 756.358 459.101 C 756.916 446.955 758.705 434.42 759.289 422.07 C 767.5 422.115 774.105 422.08 782.274 421.461 z"/>
<path transform="translate(0,0)" fill="rgb(254,254,254)" d="M 719.579 424.646 C 720.112 425.645 721.634 428.335 721.882 429.246 C 727.041 433.993 736.076 433.922 743.028 434.456 C 735.869 447.283 730.952 454.494 721.966 466.118 L 722.297 467.183 L 725.648 467.917 C 726.212 470.536 726.206 473.145 725.988 475.803 C 724.178 497.9 730.305 522.665 729.744 544.075 C 723.884 547.838 710.761 548.838 703.575 549.416 C 700.357 529.603 701.399 512.663 699.287 493.846 C 693.976 501.61 687.7 511.388 681.445 518.164 C 672.92 513.904 666.457 512.281 658.657 508.737 C 664.302 499.65 672.42 493.146 678.296 485.202 C 686.499 474.113 708.251 450.99 712.654 439.211 C 711.445 436.896 712.864 437.071 709.715 432.974 C 712.153 430.548 716.792 426.948 719.579 424.646 z"/>
<path transform="translate(0,0)" fill="rgb(41,142,24)" d="M 719.579 424.646 C 720.112 425.645 721.634 428.335 721.882 429.246 C 716.762 432.32 716.11 434.256 712.654 439.211 C 711.445 436.896 712.864 437.071 709.715 432.974 C 712.153 430.548 716.792 426.948 719.579 424.646 z"/>
<path transform="translate(0,0)" fill="rgb(253,219,82)" d="M 1070.28 638.354 C 1075.03 634.837 1079.62 634.948 1085.27 635.096 L 1084.6 636.007 C 1082.53 646.331 1085.45 652.471 1089.65 662.098 C 1082.73 673.946 1087.74 675.79 1085.23 685.002 C 1082.65 695.662 1078.4 705.154 1069.21 711.481 C 1066.68 713.226 1060.27 720.053 1059.56 720.305 C 1054.52 714.229 1050.42 709.996 1044.83 704.391 C 1043.25 689.758 1042.87 675.613 1049.49 662.209 C 1054.5 652.065 1059.17 642.522 1070.28 638.354 z"/>
<path transform="translate(0,0)" fill="rgb(54,155,46)" d="M 1070.28 638.354 C 1075.03 634.837 1079.62 634.948 1085.27 635.096 L 1084.6 636.007 C 1082.53 646.331 1085.45 652.471 1089.65 662.098 C 1082.73 673.946 1087.74 675.79 1085.23 685.002 C 1084.76 668.965 1083.62 662.636 1077.47 648.138 C 1074.84 643.53 1074.09 641.947 1070.28 638.354 z"/>
<path transform="translate(0,0)" fill="rgb(41,142,24)" d="M 1070.28 638.354 C 1075.03 634.837 1079.62 634.948 1085.27 635.096 L 1084.6 636.007 C 1078.29 641.426 1085.26 641.195 1077.47 648.138 C 1074.84 643.53 1074.09 641.947 1070.28 638.354 z"/>
<path transform="translate(0,0)" fill="rgb(253,219,82)" d="M 1042.63 590.009 C 1033.49 577.493 1028.51 544.973 1044.16 535.669 C 1047.45 533.713 1051.76 535.621 1055.18 536.699 C 1064.35 545.382 1071.93 558.677 1074.35 571.143 C 1074.72 575.373 1074.62 583.37 1076.34 586.522 L 1077.91 587.114 C 1079.19 586.385 1080.11 586.054 1080.83 584.781 C 1080.88 592.589 1080.65 603.196 1081.35 610.752 L 1069.79 610.591 C 1068.08 610.651 1066.52 610.271 1064.83 609.966 C 1060 610.794 1060.53 609.961 1057.43 612.822 L 1056.8 614.72 C 1050.87 606.931 1044.44 600.729 1037.41 593.985 C 1039.34 592.65 1040.81 591.484 1042.63 590.009 z"/>
<path transform="translate(0,0)" fill="rgb(54,155,46)" d="M 1074.35 571.143 C 1074.72 575.373 1074.62 583.37 1076.34 586.522 L 1077.91 587.114 C 1079.19 586.385 1080.11 586.054 1080.83 584.781 C 1080.88 592.589 1080.65 603.196 1081.35 610.752 L 1069.79 610.591 C 1069.87 607.38 1070.5 603.99 1071.16 600.843 C 1073.22 590.871 1073.92 581.306 1074.35 571.143 z"/>
<path transform="translate(0,0)" fill="rgb(41,142,24)" d="M 1042.63 590.009 C 1050.48 598.345 1055.95 602.746 1064.83 609.966 C 1060 610.794 1060.53 609.961 1057.43 612.822 L 1056.8 614.72 C 1050.87 606.931 1044.44 600.729 1037.41 593.985 C 1039.34 592.65 1040.81 591.484 1042.63 590.009 z"/>
<path transform="translate(0,0)" fill="rgb(253,219,82)" d="M 889.973 556.579 C 894.941 545.297 896.066 543.918 905.699 536.187 C 914.36 546.722 920.207 555.042 919.128 569.943 C 918.861 573.637 914.145 590.911 912.645 593.91 C 911.834 594.475 908.904 596.616 908.151 596.888 L 902.92 598.594 C 896.101 599.447 889.067 598.284 882.16 599.552 C 871.584 596.956 845.946 580.667 856.22 568.619 C 859.805 566.55 864.256 567.085 868.462 567.168 C 869.243 567.296 883.66 564.764 887.404 564.687 L 888.069 564.679 C 890.465 561.429 889.699 561.358 889.973 556.579 z"/>
<path transform="translate(0,0)" fill="rgb(253,219,82)" d="M 889.973 556.579 C 894.941 545.297 896.066 543.918 905.699 536.187 C 914.36 546.722 920.207 555.042 919.128 569.943 C 918.861 573.637 914.145 590.911 912.645 593.91 C 904.055 585.397 892.409 568.482 889.973 556.579 z"/>
<path transform="translate(0,0)" fill="rgb(54,155,46)" d="M 868.462 567.168 C 869.243 567.296 883.66 564.764 887.404 564.687 L 888.069 564.679 C 890.465 561.429 889.699 561.358 889.973 556.579 C 892.409 568.482 904.055 585.397 912.645 593.91 C 911.834 594.475 908.904 596.616 908.151 596.888 C 907.961 596.047 891.827 579.137 888.973 574.372 C 881.61 571.284 876.096 569.28 868.462 567.168 z"/>
<path transform="translate(0,0)" fill="rgb(253,219,82)" d="M 996.414 673.046 C 992.883 671.978 989.448 671.265 986.635 668.926 C 981.842 654.197 1019.04 631.561 1030.96 628.62 C 1030.67 628.694 1057.23 629.99 1059.68 629.994 C 1056.75 640.636 1055.18 645.218 1048.84 654.264 C 1047.58 658.639 1034.11 672.388 1031.18 674.304 C 1027.78 674.25 1006.33 682.823 1000.64 684.596 C 1001.39 681.308 998.096 676.187 996.414 673.046 z"/>
<path transform="translate(0,0)" fill="rgb(41,142,24)" d="M 1048.84 654.264 C 1047.58 658.639 1034.11 672.388 1031.18 674.304 C 1027.78 674.25 1006.33 682.823 1000.64 684.596 C 1001.39 681.308 998.096 676.187 996.414 673.046 C 1020.06 671.813 1030.78 670.787 1048.84 654.264 z"/>
<path transform="translate(0,0)" fill="rgb(254,254,254)" d="M 702.729 399.184 C 710.535 395.309 716.375 391.686 722.72 385.719 C 730.031 392.895 731.546 395.636 735.427 404.714 C 730.646 406.849 719.297 413.706 715.208 416.936 C 717.34 419.827 717.879 420.584 719.277 423.909 L 719.579 424.646 C 716.792 426.948 712.153 430.548 709.715 432.974 C 705.413 435.678 700.272 439.72 696.107 442.807 C 694.509 438.334 693.728 434.914 692.65 430.271 C 683.414 434.231 675.92 438.079 667.886 444.154 C 664.801 438.297 660.617 431.461 657.257 425.635 C 664.028 423.36 673.818 420.808 676.326 413.385 C 676.282 409.38 673.708 407.528 671.326 403.791 C 673.263 399.383 688.556 389.847 693.364 388.136 C 698.431 390.215 700.393 394.422 702.729 399.184 z"/>
<path transform="translate(0,0)" fill="rgb(253,219,82)" d="M 1082.19 612.552 C 1092.49 611.084 1096.71 606.158 1105.08 599.555 L 1108.47 604.663 C 1133.1 594.279 1152.29 598.628 1172.2 615.578 C 1157.84 629.545 1150.97 636.325 1130 635.775 C 1122.17 635.57 1089.5 630.177 1087.18 623.857 C 1086.76 619.517 1087.21 618.141 1085.59 613.959 L 1082.19 612.552 z"/>
<path transform="translate(0,0)" fill="rgb(41,142,24)" d="M 1082.19 612.552 C 1092.49 611.084 1096.71 606.158 1105.08 599.555 L 1108.47 604.663 C 1102.26 608.842 1089.01 616.599 1087.18 623.857 C 1086.76 619.517 1087.21 618.141 1085.59 613.959 L 1082.19 612.552 z"/>
<path transform="translate(0,0)" fill="rgb(253,219,82)" d="M 982.595 594.846 C 981.587 590.6 981.208 591.639 982.45 587.932 C 985.378 584.791 988.63 582.822 992.951 582.301 C 1012.47 579.951 1022.2 583.222 1037.41 593.985 C 1044.44 600.729 1050.87 606.931 1056.8 614.72 C 1057.01 617.388 1057.3 618.073 1056.18 620.375 C 1048.58 626.121 1019.51 622.914 1008.89 622.276 C 1002.36 617.764 999.041 615.339 993.221 609.986 C 986.502 610.788 983.903 609.307 978.752 605.281 C 980.199 603.292 980.791 602.717 982.566 600.993 C 981.702 598.924 981.73 599.526 978.863 598.317 C 980.726 597.245 981.17 596.504 982.595 594.846 z"/>
<path transform="translate(0,0)" fill="rgb(41,142,24)" d="M 982.595 594.846 C 986.571 599.408 989.219 605.481 993.221 609.986 C 986.502 610.788 983.903 609.307 978.752 605.281 C 980.199 603.292 980.791 602.717 982.566 600.993 C 981.702 598.924 981.73 599.526 978.863 598.317 C 980.726 597.245 981.17 596.504 982.595 594.846 z"/>
<path transform="translate(0,0)" fill="rgb(254,254,254)" d="M 774.542 353.327 C 781.484 354.711 789.891 354.215 796.795 355.741 C 799.702 356.383 799.414 357.827 800.845 360.987 L 803.23 361.338 C 805.456 359.884 805.554 359.753 808.126 359.339 C 814.283 361.956 818.087 369.783 821.611 375.554 C 813.584 379.32 805.027 381.552 797.501 386.096 C 790.794 390.147 792.939 399.291 791.631 406.506 C 780.204 406.073 739.342 407.887 743.891 388.319 C 746.32 385.775 765.693 377.563 771.251 374.654 C 772.44 367.559 773.537 360.45 774.542 353.327 z"/>
<path transform="translate(0,0)" fill="rgb(254,254,254)" d="M 911.876 328.881 C 913.069 329.726 922.177 341.69 923.674 343.625 C 927.38 343.151 938.964 336.719 943.002 334.637 C 943.945 335.207 954.775 349.162 956.644 351.352 C 949.035 354.826 940.407 358.148 932.599 361.331 C 935.039 363.875 939.011 366.862 941.867 369.147 C 932.127 370.491 929.81 371.277 921.675 376.772 C 913.091 378.819 912.153 376.023 907.459 369.511 C 898.913 373.123 893.717 374.934 887.089 381.729 C 882.612 374.235 879.559 371.605 875.305 362.739 C 882.299 359.888 890.455 357.385 895.547 351.999 C 896.434 345.952 891.15 348.094 889.628 341.793 C 892.32 334.252 901.437 336.57 911.876 328.881 z"/>
<path transform="translate(0,0)" fill="rgb(253,219,82)" d="M 1085.27 635.096 C 1091.01 634.316 1093.99 636.697 1098.99 637.444 C 1124.13 641.201 1142.58 657.323 1142.2 683.974 C 1142.16 686.754 1142.17 689.823 1142.13 692.685 C 1126.07 692.172 1111.79 690.187 1099.93 677.734 C 1095.63 673.151 1092.16 667.861 1089.65 662.098 C 1085.45 652.471 1082.53 646.331 1084.6 636.007 L 1085.27 635.096 z"/>
<path transform="translate(0,0)" fill="rgb(253,219,82)" d="M 1080.83 584.781 C 1081.54 572.982 1084.56 563.27 1093.75 555.106 C 1104.27 545.761 1113.25 546.631 1125.97 547.265 C 1129.26 569.863 1121.28 584.526 1105.08 599.555 C 1096.71 606.158 1092.49 611.084 1082.19 612.552 L 1081.35 610.752 C 1080.65 603.196 1080.88 592.589 1080.83 584.781 z"/>
<path transform="translate(0,0)" fill="rgb(254,254,254)" d="M 994.734 319.513 C 1008.28 320.657 1020.12 322.848 1034.96 323.826 C 1038.29 326.712 1044.26 336.597 1046.94 340.744 C 1043.79 341.458 1036.57 343.296 1033.74 343.439 C 1013.85 344.441 1016.99 346.827 1012.46 362.826 C 999.892 358.62 997.535 361.458 982.363 353.669 C 979.639 355.011 975.009 357.783 972.288 357.44 L 964.928 343.907 C 965.174 334.23 983.088 334.284 990.85 333.698 L 994.734 319.513 z"/>
<path transform="translate(0,0)" fill="rgb(253,219,82)" d="M 905.356 605.719 C 908.735 606.682 910.555 606.885 912.877 609.607 L 914.037 612.902 C 916.49 613.682 918.789 611.478 920.727 610.103 C 921.562 625.648 924.458 625.5 926.156 635.43 C 925.324 638.711 925.874 639.761 922.278 640.894 C 921.252 641.175 917.841 642.307 917.414 643.409 C 914.832 650.079 907.456 665.687 899.131 665.671 C 888.997 662.049 891.663 644.62 892.223 636.977 C 890.588 634.633 887.727 631.326 885.848 629.013 C 890.881 625.158 902.753 611.904 905.356 605.719 z"/>
<path transform="translate(0,0)" fill="rgb(41,142,24)" d="M 905.356 605.719 C 908.735 606.682 910.555 606.885 912.877 609.607 L 914.037 612.902 C 905.244 612.502 896.055 629.955 892.223 636.977 C 890.588 634.633 887.727 631.326 885.848 629.013 C 890.881 625.158 902.753 611.904 905.356 605.719 z"/>
<path transform="translate(0,0)" fill="rgb(41,142,24)" d="M 914.037 612.902 C 916.49 613.682 918.789 611.478 920.727 610.103 C 921.562 625.648 924.458 625.5 926.156 635.43 C 925.324 638.711 925.874 639.761 922.278 640.894 C 920.538 632.445 913.842 621.351 914.037 612.902 z"/>
<path transform="translate(0,0)" fill="rgb(253,219,82)" d="M 882.16 599.552 C 889.067 598.284 896.101 599.447 902.92 598.594 L 902.537 603.112 L 905.356 605.719 C 902.753 611.904 890.881 625.158 885.848 629.013 C 878.154 628.949 856.518 640.478 852.228 626.175 C 853.885 614.391 867.773 606.341 878.521 604.12 C 881.781 600.312 885.367 601.943 888.537 601.031 C 885.773 600.972 885.158 600.916 882.602 599.756 L 882.16 599.552 z"/>
<path transform="translate(0,0)" fill="rgb(41,142,24)" d="M 882.16 599.552 C 889.067 598.284 896.101 599.447 902.92 598.594 L 902.537 603.112 C 895.063 603.216 885.751 603.096 878.521 604.12 C 881.781 600.312 885.367 601.943 888.537 601.031 C 885.773 600.972 885.158 600.916 882.602 599.756 L 882.16 599.552 z"/>
<path transform="translate(0,0)" fill="rgb(253,219,82)" d="M 922.647 594.926 C 929.827 590.702 935.242 587.443 941.976 582.585 C 946.634 585.288 951.468 585.409 955.393 587.111 C 961.907 591.594 963.05 588.26 968.974 590.365 C 970.64 590.956 975.988 596.415 978.863 598.317 C 981.73 599.526 981.702 598.924 982.566 600.993 C 980.791 602.717 980.199 603.292 978.752 605.281 C 978.088 606.444 977.144 607.768 976.387 608.903 C 965.019 615.476 935.703 610.514 925.921 601.591 C 925.179 596.743 926.081 598.358 922.647 594.926 z"/>
<path transform="translate(0,0)" fill="rgb(41,142,24)" d="M 922.647 594.926 C 929.827 590.702 935.242 587.443 941.976 582.585 C 946.634 585.288 951.468 585.409 955.393 587.111 C 943.596 590.498 931.882 591.017 925.921 601.591 C 925.179 596.743 926.081 598.358 922.647 594.926 z"/>
<path transform="translate(0,0)" fill="rgb(253,219,82)" d="M 920.727 610.103 C 939.038 608.757 948.664 618.087 957.854 632.585 C 958.075 637.957 959 648.22 956.27 652.587 C 948.909 656.387 928.843 641.589 926.156 635.43 C 924.458 625.5 921.562 625.648 920.727 610.103 z"/>
<path transform="translate(0,0)" fill="rgb(253,219,82)" d="M 941.634 549.065 C 946.319 549.009 952.098 549.726 956.848 550.178 C 955.174 566.535 954.199 571.971 941.976 582.585 C 935.242 587.443 929.827 590.702 922.647 594.926 C 919.782 573.986 925.87 562.192 941.634 549.065 z"/>
</svg>