<svg version="1.1" xmlns="http://www.w3.org/2000/svg" style="display: block;" viewBox="0 0 1160 1036" width="290" height="259" preserveAspectRatio="none">
<path transform="translate(0,0)" fill="rgb(0,0,0)" d="M 87.4018 67.3544 C 129.304 63.2848 187.521 62.6782 229.61 61.7636 C 266.772 60.6342 303.925 59.2437 341.068 57.5922 C 368.668 56.6401 396.617 56.2488 424.08 55.1533 C 444.001 54.3587 467.274 51.1203 487.621 49.5238 L 677.018 34.4012 C 800.835 24.5712 924.902 16.4288 1048.48 3.91091 L 1089.57 104.237 C 1095.91 119.29 1112.12 155.531 1115.53 170.367 C 1118.15 181.76 1108.49 227.297 1106.12 241.272 L 1089.07 343.987 C 1083.25 377.454 1076.44 412.044 1072.82 445.951 C 1071.99 453.739 1073 466.069 1073.24 474.135 C 1083.02 472.836 1110.58 470.856 1120.26 471.459 C 1120.12 502.084 1120.22 532.819 1120.91 563.431 C 1121.35 583.05 1120.09 606.155 1121.86 625.475 C 1132.55 623.617 1149.54 620.18 1160 619.704 L 1160 696.761 C 1151.98 720.26 1152.95 743.517 1150.48 767.719 C 1148.4 788.244 1145.28 808.141 1144.21 828.848 C 1142.68 846.453 1141.32 864.521 1137.89 881.839 C 1137.05 886.091 1134.74 889.919 1130.66 891.531 C 1114.21 898.033 1096.9 903.024 1080.17 908.806 L 949.694 952.839 C 936.563 957.216 923.407 961.518 910.226 965.743 C 903.911 967.705 897.261 969.402 890.912 971.31 C 889.519 971.728 888.116 974.565 887.371 975.904 C 880.569 972.841 874.531 938.414 867.411 934.446 C 862.312 931.604 847.199 935.943 841.184 936.756 C 814.848 942.429 788.539 948.402 762.223 954.159 L 540.93 1003.03 L 434.08 1026.69 C 423.628 1028.98 401.903 1031.82 392.709 1036 L 348.211 1036 C 342.66 1033.55 318.15 1026.81 310.438 1024.38 L 200.793 990.764 C 189.242 987.262 165.021 980.978 155.341 975.605 C 154.68 970.155 187.581 931.018 185.104 926.331 C 180.063 916.791 133.21 884.846 123.932 878.563 C 135.559 848 144.449 816.256 155.373 785.368 C 162.68 764.709 151.782 726.972 147.343 704.944 L 127.209 606.441 C 121.959 581.652 118.011 554.6 111.597 530.289 C 110.088 524.571 100.231 503.682 97.041 496.517 C 86.4656 472.291 75.5389 448.22 64.2643 424.311 C 56.1209 406.655 7.98581 294.394 0 287.613 L 0 279.45 C 5.40763 276.385 21.1323 231.565 24.811 222.029 L 66.9158 113.424 C 71.3265 102.22 80.5838 74.1536 87.4018 67.3544 z"/>
<path transform="translate(0,0)" fill="rgb(255,255,255)" d="M 1036.16 58.4125 C 1039.32 57.941 1040.46 57.9779 1043.54 58.0903 C 1045.89 59.659 1078.22 144.75 1082.72 155.091 C 1079.04 166.122 1076.72 181.384 1073.47 192.918 C 1067.65 213.539 1062.25 234.056 1056.91 254.818 C 1049.27 286.09 1035.73 319.45 1032.88 351.582 C 1029.34 391.525 1028.6 432.045 1024.61 472.034 C 1022.99 488.324 1024.01 506.366 1020.95 522.379 C 1036.99 520.881 1059.4 519.714 1073.84 513.935 C 1077.99 536.306 1078.93 561.488 1082.01 584.288 C 1083.97 598.763 1083.16 623.097 1089.03 636.287 C 1094.04 647.528 1104.92 659.204 1111.5 671.157 C 1110.92 675.878 1109.91 681.298 1108.94 685.99 C 1099.52 731.408 1092.66 777.613 1083.2 822.959 C 1065.63 830.083 1036.29 834.631 1016.84 838.78 C 994.303 843.586 968.858 849.917 946.387 853.701 C 936.26 848.62 927.097 842.996 916.404 838.994 C 892.988 843.987 865.819 851.978 842.351 857.765 C 825.221 861.988 797.312 868.849 781.21 874.656 C 776.149 867.949 773.491 863.797 770.674 856 C 745.159 862.946 713.613 881.769 687.42 890.169 C 670.865 881.511 669.646 879.091 650.259 872.08 C 640.699 877.797 633.475 886.74 626.57 895.305 C 612.914 897.254 598.675 900.322 584.77 902.388 C 513.037 913.037 441.156 922.664 369.149 931.267 C 360.614 932.205 334.639 937.056 329.168 936.052 C 316.802 933.784 289.198 921.299 277.651 915.555 C 274.478 910.28 272.548 905.885 270.015 900.312 C 260.135 877.299 247.937 847.783 236.663 825.758 C 240.438 803.719 248.526 780.739 250.054 758.408 C 250.751 748.221 242.32 730.858 238.903 720.113 C 235.145 708.295 231.136 695.794 227.669 683.828 C 225.213 675.354 218.573 659.828 217.576 651.876 C 214.97 631.103 219.947 606.433 223.271 585.585 C 227.466 562.93 226.961 538.297 232.632 516.04 C 239.053 490.84 250.705 465.705 259.231 441.044 C 265.595 422.637 273.666 404.947 280.045 386.539 C 269.31 393.452 250.817 401.545 237.814 409.216 C 200.774 389.612 204.492 393.732 189.662 355.122 C 177.492 323.434 165.548 291.66 153.831 259.802 C 149.258 247.578 138.569 216.829 132.14 206.864 C 135.745 200.719 180.846 144.401 186.678 141.253 C 194.123 137.233 235.968 134.408 247.838 133.374 L 318.348 126.954 L 531.087 106.361 L 843.982 76.7136 C 908.168 70.6055 971.75 62.7637 1036.16 58.4125 z"/>
<path transform="translate(0,0)" fill="rgb(238,0,109)" d="M 463.648 159.452 C 498.712 154.792 477.762 220.677 472.998 237.541 C 458.332 289.458 445.9 342.933 434.752 395.718 C 428.737 424.2 422.844 458.208 421.186 487.039 C 419.851 509.655 419.476 532.317 420.063 554.965 C 420.369 563.989 424.208 614.443 419.545 618.793 C 400.481 623.191 380.447 624.865 361.088 627.77 C 346.156 630.012 331.005 633.581 316.007 635.022 C 311.865 635.42 307.239 635.567 303.165 634.608 C 299.804 633.817 296.874 632.092 295.049 629.069 C 285.42 613.122 303.604 498.278 307.568 476.273 C 312.094 451.142 317.681 426.118 323.287 401.21 C 332.636 361.701 342.337 322.896 354.778 284.189 C 358.395 272.935 362.956 257.567 367.394 247.004 C 352.869 249.799 336.899 248.765 321.524 252.816 C 308.572 275.172 299.292 304.874 286.398 328.418 C 279.273 341.428 266.744 379.548 245.133 367.487 C 242.093 365.791 238.233 357.625 237.074 354.42 C 226.588 321.933 219.233 287.216 209.667 254.596 C 197.51 213.14 202.677 182.072 253.212 178.468 C 323.166 173.48 393.514 165.393 463.648 159.452 z"/>
<path transform="translate(0,0)" fill="rgb(238,0,109)" d="M 749.696 131.445 C 782.703 124.938 757.54 200.407 753.997 214.504 C 733.18 297.311 709.467 382.868 703.035 468.246 C 701.885 484.831 701.496 501.46 701.869 518.081 C 702.09 531.909 706.601 570.403 702.988 579.755 C 692.032 589.961 602.371 597.153 583.855 596.566 C 582.562 593.194 580.042 586.412 580.083 583.09 C 580.917 515.024 594.835 440.29 609.213 374.629 C 614.385 350.142 621.669 328.101 627.359 304.287 C 634.431 274.691 644.7 246.6 652.016 217.676 C 638.955 219.987 624.402 219.193 610.117 221.888 C 604.901 231.391 600.338 240.669 595.841 250.486 C 583.677 275.378 574.338 306.669 558.265 329.186 C 542.39 351.426 527.25 325.884 523.366 309.794 C 515.812 278.499 507.498 247.935 499.575 216.754 C 494.008 194.846 491.672 182.921 507.538 164.158 C 517.267 152.511 528.31 152.283 542.342 150.629 C 563.111 148.18 584.036 146.148 604.882 144.263 L 749.696 131.445 z"/>
<path transform="translate(0,0)" fill="rgb(238,0,109)" d="M 1021.43 104.401 C 1043.72 103.051 1041.02 126.081 1038.53 141.505 C 1034.01 169.467 1024.44 197.792 1017.52 225.391 C 1007.65 264.04 998.545 302.881 990.212 341.891 C 976.883 406.946 975.904 479.828 978.362 546.384 C 967.263 548.588 952.701 553.834 941.975 554.705 C 916.766 556.754 884.01 565.715 859.68 559.59 C 849.112 528.552 877.896 379.674 887.089 341.207 C 900.195 286.076 913.195 243.719 929.886 189.82 C 916.079 190.252 902.3 191.405 888.524 192.44 C 875.05 217.758 866.107 245.532 852.637 271.07 C 846.592 282.029 838.247 304.728 824.194 306.851 C 811.004 308.844 806.212 287.073 803.907 278.175 C 796.383 249.142 789.164 220.537 782.886 191.227 C 780.305 179.177 776.015 165.183 779.027 152.826 C 782.363 141.111 794.622 127.788 806.744 124.897 C 825.528 121.372 845.818 119.735 865.018 118.377 C 916.742 114.717 969.922 107.898 1021.43 104.401 z"/>
<path transform="translate(0,0)" fill="rgb(238,0,109)" d="M 408.38 760.422 C 424.791 758.58 466.616 759.134 454.385 786.522 C 446.599 803.958 425.111 788.792 413.407 787.776 C 390.933 785.825 358.521 792.424 337.289 799.51 L 338.234 811.568 C 346.819 812.924 354.569 812.765 363.107 812.89 C 389.021 813.268 457.64 795.554 461.896 836.054 C 466.944 884.092 382.234 889.305 350.173 892.078 C 337.175 891.817 306.011 892.5 301.994 876.578 C 300.799 871.739 301.639 866.622 304.319 862.419 C 312.023 850.145 327.696 858.874 338.422 860.751 C 358.243 864.22 379.387 861.585 398.804 856.944 C 404.597 855.559 420.026 851.468 422.961 846.6 C 416.682 822.213 294.792 865.573 294.748 811.975 C 294.711 766.419 376.222 762.846 408.38 760.422 z"/>
<path transform="translate(0,0)" fill="rgb(238,0,109)" d="M 584.883 742.591 C 590.136 741.976 595.292 741.603 600.133 742.282 C 605.31 743.007 610.015 752.788 607.555 756.335 C 593.45 776.669 553.197 771.822 531.045 776.885 C 525.469 778.159 519.601 776.974 515.099 779.429 C 512.211 782.776 512.768 788.193 516.114 791.127 C 520.232 792.298 586.209 781.768 594.636 780.515 C 596.234 781.122 602.73 784.155 603.465 785.031 C 628.399 814.758 532.594 818.277 516.82 819.67 C 517.183 825.389 518.097 829.847 519.149 835.447 C 534.467 833.999 558.583 829.504 574.875 827.279 C 584.883 825.639 603.435 822.069 611.949 827.802 C 621.771 834.416 614.26 848.547 604.359 851.392 C 590.86 855.27 577.633 855.965 563.924 857.903 L 488.119 868.805 C 481.912 865.047 479.99 863.349 475.132 858.312 C 473.737 848.481 473.981 838.386 472.927 828.495 C 471 810.389 467.326 791.525 467.256 773.361 C 467.244 770.374 467.13 766.155 469.089 763.68 C 480.442 749.333 564.739 744.461 584.883 742.591 z"/>
<path transform="translate(0,0)" fill="rgb(2,212,88)" d="M 526.545 623.358 C 533.822 622.419 541.196 622.516 548.445 623.646 C 564.743 626.167 573.201 631.6 582.729 644.596 C 583.267 649.538 583.344 655.126 583.528 660.139 C 578.868 668.785 574.952 672.935 568.135 679.763 C 587.585 692.961 586.978 698.111 589.362 720.787 C 581.637 724.795 570.36 728.564 561.725 729.549 C 538.876 732.157 544.218 705.714 531.258 695.098 C 524.081 689.22 518.335 690.899 509.513 691.89 L 492.11 693.117 C 494.315 706.366 494.712 723.364 493.882 736.667 C 481.813 738.312 468.291 741.725 456.244 741.991 C 450.437 726.657 445.839 661.5 444.745 642.489 C 461.314 626.653 503.43 626.419 526.545 623.358 z"/>
<path transform="translate(0,0)" fill="rgb(255,255,255)" d="M 512.663 644.274 C 519.826 643.351 524.463 643.026 530.284 647.252 C 531.699 649.948 531.554 648.711 530.624 651.929 C 525.479 657.73 515.194 658.628 507.325 660.206 C 500.487 661.742 494.063 664.334 488.36 659.862 C 486.44 656.706 486.663 652.234 486.508 648.438 C 495.27 647.343 503.994 645.954 512.663 644.274 z"/>
<path transform="translate(0,0)" fill="rgb(238,0,109)" d="M 887.683 699.36 C 893.623 698.8 904.847 697.586 909.266 702.64 C 942.982 741.197 820.674 723.738 824.077 743.638 C 833.459 756.203 892.008 733.261 908.163 740.37 C 913.362 742.658 915.651 749.207 917.864 754.135 C 917.615 754.401 917.365 754.665 917.113 754.927 C 901.075 771.629 851.966 774.814 828.959 775.357 C 828.825 780.776 828.985 786.475 829.049 791.916 C 843.789 789.772 858.508 787.489 873.205 785.067 C 885.8 783.001 899.59 780.401 912.237 780.885 C 918.261 784.644 920.531 786.845 925.1 791.917 C 923.408 795.163 921.531 798.83 918.994 801.487 C 909.172 811.773 821.603 822.441 804.463 822.702 C 798.114 822.799 795.315 820.36 790.918 816.163 C 788.767 807.833 788.526 796.549 787.501 787.812 C 785.037 766.813 784.258 744.856 781.601 723.968 C 783.153 722.117 789.552 715.278 791.347 714.896 C 820.206 708.748 858.927 703.752 887.683 699.36 z"/>
<path transform="translate(0,0)" fill="rgb(238,0,109)" d="M 1040.1 678.196 C 1054.83 677.395 1064.87 673.938 1066.2 691.844 C 1068.31 720.44 1075.06 753.695 1071.86 782.364 C 1063.13 788.647 1056.96 790.419 1046.73 791.807 C 1035.78 787.462 982.399 750.089 973.39 741.193 C 974.304 758.654 978.084 770.081 978.209 790.748 C 974.102 796.811 971.705 798.126 965.186 801.545 C 954.66 804.406 948.224 803.523 938.474 799.948 C 934.706 784.865 926.055 704.897 935.532 695.931 C 942.793 692.315 957.864 693.835 966.46 694.15 C 978.42 703.041 1019.33 734.457 1031 739.981 C 1029.49 722.8 1027.56 705.66 1025.2 688.575 C 1030.66 682.332 1032.3 680.883 1040.1 678.196 z"/>
<path transform="translate(0,0)" fill="rgb(2,212,88)" d="M 743.645 595.381 C 758.411 592.452 780.506 601.334 784.481 617.003 C 799.679 676.912 734.154 671.089 696.609 677.414 C 696.56 685.151 697.965 695.575 698.238 704.162 C 696.223 706.354 693.021 709.225 690.785 711.353 C 679.446 715.831 669.683 713.571 657.991 711.715 C 657.332 707.863 657.126 703.947 656.735 700.062 C 653.951 672.368 652.29 644.436 647.667 616.965 C 662.428 604.093 673.926 604.642 692.555 602.059 C 709.557 599.701 726.622 597.591 743.645 595.381 z"/>
<path transform="translate(0,0)" fill="rgb(255,255,255)" d="M 732.257 626.448 C 736.904 624.932 744.868 627.836 747.276 632.648 C 746.529 643.864 718.959 646.429 709.769 648.03 L 694.579 650.739 C 693.292 643.598 691.037 637.378 694.463 631.233 C 695.516 630.272 697.612 628.595 698.948 628.558 C 710.326 628.244 721.015 627.584 732.257 626.448 z"/>
<path transform="translate(0,0)" fill="rgb(2,212,88)" d="M 1031.66 558.365 C 1046.76 556.864 1055.93 561.148 1050.8 578.004 C 1043.13 587.532 972.528 589.379 971.347 590.73 C 934.725 632.631 1069.36 570.907 1049.72 616.082 C 1042.47 632.762 977.095 627.015 970.164 638.483 C 969.694 642.07 969.635 642.559 970.708 646.073 C 975.182 648.895 999.919 642.699 1009.23 641.851 C 1024.03 639.857 1043.43 636.119 1057.75 638.163 C 1058.07 643.31 1059.17 650.013 1057.34 654.903 C 1056.36 657.504 1055.09 658.732 1052.55 659.846 C 1043.24 663.933 964.599 674.504 953.219 673.563 C 948.702 673.19 943.329 670.496 939.079 668.868 C 936.791 659.454 936.239 639.684 935.286 628.906 C 933.92 613.462 930.967 594.869 930.689 579.767 C 932.487 578.11 936.049 574.932 938.286 574.231 C 966.732 565.316 1002.5 562.484 1031.66 558.365 z"/>
<path transform="translate(0,0)" fill="rgb(2,212,88)" d="M 410.982 638.381 C 421.307 637.683 433.06 637.46 436.198 650.691 C 436.705 653.075 435.33 657.442 433.489 659.011 C 421.039 669.62 390.556 669.684 374.658 671.197 C 374.679 674.953 374.86 678.527 375.283 682.257 C 377.588 702.611 378.608 722.977 380.085 743.394 C 366.181 757.24 358.161 757.904 339.713 755.352 C 337.013 745.568 335.208 727.489 334.241 717.242 C 332.983 703.228 332.632 691.867 330.746 677.593 C 313.882 678.847 292.47 684.059 277.136 684.406 C 264.657 674.367 263.638 660.908 280.916 655.147 C 289.426 652.31 304.09 651.518 313.286 650.371 C 346.486 646.229 378.079 645.189 410.982 638.381 z"/>
<path transform="translate(0,0)" fill="rgb(238,0,109)" d="M 747.353 718.197 C 760.265 716.67 766.044 721.957 774.06 730.882 C 750.713 761.399 741.087 805.37 715.228 833.162 C 694.034 855.94 658.903 798.767 646.622 783.43 C 636.927 771.634 627.6 762.945 619.534 749.501 C 627.818 736.825 627.755 738.332 642.74 736.283 C 645.028 734.389 646.234 732.969 649.132 732.533 C 666.732 737.058 689.289 787.11 701.446 786.282 C 713.431 777.273 725.255 731.799 739.868 721.225 C 741.494 720.049 745.342 718.85 747.353 718.197 z"/>
<path transform="translate(0,0)" fill="rgb(2,212,88)" d="M 807.775 586.244 C 815.099 585.651 826.163 583.928 832.341 588.767 C 836.931 592.362 839.382 654.828 840.378 664.766 C 863.357 662.373 886.182 656.579 909.327 655.46 C 926.678 654.621 926.014 660.019 926.062 674.346 C 919.745 677.387 917.525 678.265 910.778 680.103 C 897.094 683.663 814.303 693.604 804.805 688.898 C 802.434 686.105 800.5 681.067 800.243 677.519 C 798.179 649.057 795.362 620.4 792.831 592.017 C 797.827 590.132 802.809 588.208 807.775 586.244 z"/>
<path transform="translate(0,0)" fill="rgb(2,212,88)" d="M 610.058 614.359 C 617.355 613.872 626.645 613.95 634.099 613.804 C 635.701 637.467 644.546 697.232 642.311 716.052 C 637.521 717.492 634.11 718.106 629.25 718.969 C 620.212 719.712 611.179 719.664 602.114 719.732 C 599.675 692.908 592.27 642.546 594.808 617.743 C 599.968 616.024 604.735 615.306 610.058 614.359 z"/>
</svg>