<svg xmlns="http://www.w3.org/2000/svg" version="1.1" style="display: block;" viewBox="0 0 1024 1024" width="256" height="256" preserveAspectRatio="none">
<path transform="translate(0,0)" fill="rgb(0,0,0)" d="M 488.723 54.3706 C 488.859 54.3528 488.994 54.3316 489.13 54.3173 C 516.15 51.4653 583.929 56.525 609.276 66.5961 C 623.48 72.2397 636.274 81.8086 649.646 89.2026 C 660.908 95.4302 673.677 100.865 683.727 108.979 C 694.754 117.883 717.027 164.466 725.364 179.815 L 761.832 246.775 C 764.837 252.284 776.078 271.141 777.073 275.805 C 779.886 288.976 778.357 311.072 778.147 325.075 C 777.484 349.026 778.023 374.559 775.701 398.353 C 768.179 475.434 757.906 551.613 758.104 629.245 C 758.166 653.597 754.886 680.628 757.503 704.833 C 761.939 732.493 767.95 759.717 774.734 787.168 C 778.548 802.604 786.484 869.147 802.527 875.089 C 822.917 882.64 853.568 887.249 872.979 900.106 C 878.222 903.579 882.478 913.525 885.899 918.58 C 903.832 949.3 908.713 973.754 911.896 1008.34 C 899.768 1007.53 881.287 1007.93 868.681 1007.93 L 793.704 1007.91 L 561.5 1007.92 L 279.955 1007.92 L 186.912 1007.9 C 169.271 1007.9 149.717 1007.46 132.332 1008.29 C 138.247 988.605 151.946 933.574 163.047 917.75 C 172.091 912.599 199.412 900.907 203.761 894.406 C 212.07 878.142 215.472 852.559 217.897 834.537 C 224.137 788.169 231.4 737.517 233.128 691.036 C 235.027 639.953 231.308 587.636 228.993 536.771 L 225.749 473.523 C 225.207 462.312 225.203 450.207 224.211 438.968 C 223.182 427.297 218.358 413.152 217.296 400.805 C 213.913 361.487 212.406 313.127 219.171 274.447 C 220.784 265.222 236.595 234.377 240.867 224.941 C 244.783 216.293 255.15 192.774 260.87 185.826 C 267.627 177.619 281.542 164.483 289.817 156.588 C 304.082 142.977 320.27 125.207 335.642 113.467 C 338.6 111.208 360.258 101.896 364.68 99.9459 C 389.01 89.0306 413.703 78.9414 438.715 69.6955 C 456.007 63.132 470.14 56.4422 488.723 54.3706 z M 303.114 832.398 C 303.807 829.191 305.518 805.167 304.414 802.968 L 304.807 804.15 L 303.36 804.344 C 301.528 809.07 301.038 815.011 300.371 820.112 C 297.932 827.612 288.728 853.106 289.493 859.826 C 291.149 860.287 292.427 859.809 293.836 858.705 C 310.158 845.905 327.214 834.178 344.084 822.101 C 349.751 818.044 356.353 814.845 362.05 810.933 C 356.954 795.789 352.008 779.894 348.034 764.429 C 344.743 751.621 342.417 738.613 338.939 725.795 C 336.232 737.907 334.556 750.015 331.871 762.023 C 327.279 781.739 321.384 801.129 314.225 820.064 C 312.159 825.639 308.787 835.643 304.979 839.869 L 302.891 840.597 C 301.168 838.102 302.124 835.244 303.114 832.398 z"/>
<path transform="translate(0,0)" fill="rgb(254,254,254)" d="M 429.638 367.812 L 430.491 368.973 C 431.023 372.293 428.698 377.972 427.871 381.522 C 423.433 400.576 416.913 467.947 425.855 482.724 C 430.309 485.587 432.748 482.507 436.668 479.312 C 444.048 473.296 442.865 477.221 450.001 477.254 C 459.84 469.578 460.165 436.207 475.769 443.79 C 476.87 448.026 473.859 450.351 473.441 454.809 C 473.011 459.4 472.939 464.393 472.824 469.011 C 479.712 466.456 483.172 465.671 490.399 464.187 C 486.291 470.003 476.417 477.782 470.793 482.432 C 474.074 484.551 477.4 486.601 480.767 488.581 C 484.051 487.452 483.402 483.088 487.724 478.562 C 494.763 471.19 499.066 469.847 508.115 466.17 C 514.384 473.869 517.057 473.587 526.775 476.302 C 520.148 483.115 515.658 488.064 509.702 495.447 C 523.009 493.753 540.559 493.093 554.3 492.173 C 565.562 480.569 566.857 471.983 581.036 459.075 C 568.111 504.224 568.255 547.02 562.737 593.128 C 558.762 626.34 564.707 646.719 536.262 670.2 C 507.861 693.645 467.819 725.083 429.488 726.44 C 412.447 727.044 386.281 693.514 375.126 680.895 C 357.907 662.14 332.429 635.454 318.308 615.491 C 297.526 586.108 288.621 529.643 283.811 493.872 C 285.537 490.66 287.168 494.982 290.679 493.38 C 290.671 487.137 285.013 480.578 286.128 475.517 C 289.624 488.24 303.087 499.723 314.266 505.843 C 325.648 504.113 334.83 502.809 346.272 503.922 C 348.792 504.167 351.742 502.416 352.412 499.644 C 350.929 496.891 346.852 494.84 344.028 493.083 C 348.107 490.075 350.729 487.872 354.485 484.462 C 358.102 487.719 365.973 494.118 370.14 496.165 L 370.998 495.301 C 370.096 488.536 364.651 482.898 363.205 475.854 C 363.904 475.908 367.095 478.807 368.849 479.565 C 375.918 482.617 383.253 481.796 390.64 481.319 C 392.223 485.49 394.96 490.036 396.229 494.042 C 407.441 529.451 400.427 571.329 386.151 604.216 C 395.845 614.955 407.919 619.85 421.338 624.715 C 415.846 616.501 410.766 608.869 405.715 600.339 C 408.736 574.218 406.317 535.833 405.701 508.918 C 405.645 506.468 401.957 491.277 401.229 486.499 C 405.05 480.401 401.823 475.243 403.183 466.827 C 408.02 436.896 409.987 391.496 429.638 367.812 z"/>
<path transform="translate(0,0)" fill="rgb(0,0,0)" d="M 415.938 641.433 C 425.333 641.1 472.095 641.102 476.773 647.114 L 475.901 648.673 C 471.598 650.204 457.764 651.464 452.134 652.293 C 441.711 655.931 402.266 655.495 394.844 647.248 L 395.12 645.532 C 400.63 641.806 409.329 641.83 415.938 641.433 z"/>
<path transform="translate(0,0)" fill="rgb(0,0,0)" d="M 413.796 667.393 C 414.72 667.559 420.5 669.753 421.211 670.203 C 426.662 673.653 445.975 672.384 449.738 674.175 C 449.298 677.029 448.034 677.553 445.796 680.049 C 440.437 683.165 437.693 683.821 431.875 685.544 L 417.647 681.232 C 416.964 677.17 415.035 671.466 413.796 667.393 z"/>
<path transform="translate(0,0)" fill="rgb(254,254,254)" d="M 395.633 142.57 C 398.535 144.255 405.443 157.94 407.556 161.821 C 399.221 179.128 392.593 196.006 387.875 214.675 C 386.052 221.887 375.954 260.013 378.493 264.44 C 379.137 264.457 379.78 264.496 380.422 264.556 C 387.933 265.203 397.073 267.481 395.247 277.811 C 393.876 285.569 389.745 287.855 383.662 291.952 C 379.399 287.548 373.89 282.695 369.309 278.472 C 359.728 299.628 375.801 288.676 378.312 294.691 C 386.574 314.485 368.941 314.307 359.85 313.717 C 355.174 318.539 374.734 324.466 354.984 342.626 C 350.971 340.794 344.304 336.245 340.374 333.729 C 340.825 322.256 340.084 324.016 348.412 316.348 C 349.984 314.9 350.299 312.947 350.107 310.878 L 348.327 310.231 C 343.601 312.234 337.39 314.51 333.463 317.603 C 330.139 325.724 349.085 325.036 320.95 342.136 C 318.863 326.773 322.581 309.333 325.184 293.994 C 322.231 297.886 315.679 306.238 311.324 308.198 L 310.1 307.28 C 310.17 305.405 310.174 303.527 310.112 301.651 C 310.049 299.02 310.536 299.995 308.82 298.359 C 304.217 300.398 303.183 308.725 300.98 313.062 C 283.816 346.857 291.981 383.225 290.866 419.711 C 283.004 394.084 283.022 374.95 281.577 348.498 C 280.167 351.005 275.851 358.573 275.323 361.136 C 270.932 382.438 274.468 407.645 274.16 429.539 C 274.094 434.191 275.541 442.016 274.617 445.774 L 272.952 445.425 C 257.501 427.638 265.378 368.544 256.162 363.892 C 248.719 369.8 245.653 408.444 243.463 419.421 C 243.222 418.148 243.016 416.868 242.846 415.583 C 238.347 380.471 240.263 329.961 244.199 294.53 C 247.103 268.398 271.653 217.331 287.945 196.207 C 285.735 208.873 281.351 219.812 281.189 233.002 C 289.93 213.468 292.536 195.708 311.244 184.885 C 307.447 201.314 302.559 217.499 298.722 234.494 C 312.102 228.592 319.238 230.28 327.473 215.993 C 340.759 192.941 348.797 162.658 364.362 141.104 C 360.079 155.415 353.163 191.415 352.678 206.025 C 357.132 200.375 362.045 190.831 366.063 184.508 C 374.912 170.581 384.638 154.782 395.633 142.57 z"/>
<path transform="translate(0,0)" fill="rgb(254,254,254)" d="M 649.639 241.102 C 659.634 242.477 669.362 248.254 671.411 258.814 C 674.039 272.354 669.08 280.921 662.016 291.72 L 662.38 292.973 C 669.337 295.013 679.063 293.757 683.182 295.392 C 698.525 301.481 704.079 324.865 698.583 338.897 C 695.857 345.857 685.88 348.483 680.01 350.839 C 670.705 346.889 665.721 344.125 658.226 337.383 C 656.458 346.655 655.493 348.453 649.549 355.457 C 646.105 358.065 646.123 358.905 642.412 359.37 L 641.517 357.711 C 641.84 352.911 644.144 349.382 646.404 345.154 C 638.05 348.666 632.163 351.915 623.302 354.947 C 596.616 344.661 601.798 319.59 618.157 301.1 C 623.548 295.007 634.227 295.969 641.828 296.111 L 642.894 294.847 C 633.908 283.468 624.386 270.514 631.629 254.541 C 634.827 247.488 642.491 243.494 649.639 241.102 z"/>
<path transform="translate(0,0)" fill="rgb(0,0,0)" d="M 667.066 300.49 C 672.621 300.48 676.452 302.465 681.333 304.73 C 686.871 313.859 693.569 328.898 682.893 336.958 C 660.1 342.704 656.857 313.16 667.066 300.49 z"/>
<path transform="translate(0,0)" fill="rgb(0,0,0)" d="M 629.79 305.774 C 648.164 304.738 638.554 327.632 632.388 335.042 C 630.349 337.491 627.722 339.438 625.202 341.325 C 617.437 340.672 612.52 332.149 614.757 324.738 C 617.705 314.973 621.201 310.871 629.79 305.774 z"/>
<path transform="translate(0,0)" fill="rgb(0,0,0)" d="M 649.539 250.464 C 656.6 251.524 661.28 260.681 663.524 266.638 C 661.123 275.072 661.238 277.791 654.208 282.815 L 653.472 282.783 C 632.767 281.777 637.108 261.023 649.539 250.464 z"/>
<path transform="translate(0,0)" fill="rgb(254,254,254)" d="M 471.168 197.86 L 472.592 198.975 C 473.821 222.177 455.818 272.6 447.808 294.879 C 444.166 291.185 434.998 282.194 429.517 283.318 L 429.317 284.257 C 431.227 291.857 438.272 297.129 444.013 302.386 C 439.412 308.163 437.515 310.329 432.014 315.231 C 427.201 313.939 419.874 310.588 415.431 311.188 C 415.577 313.835 418.924 316.891 420.747 319.098 C 432.058 332.798 425.289 333.025 414.043 340.897 C 406.521 336.926 405.371 336.304 400.699 329.178 C 403.964 320.357 405.463 318.899 411.359 311.73 C 404.842 312.801 402.44 313.252 396.119 315.476 C 393.091 312.375 389.256 309.081 385.998 306.139 C 387.166 302.375 388.652 295.476 391.587 293.572 L 396.338 290.194 C 399.281 289.565 402.423 291.31 405.298 292.502 L 406.755 291.833 C 407.016 287.53 401.732 280.597 401.582 278.047 C 401.267 272.691 406.585 272.124 404.518 264.399 C 401.672 262.459 401.526 262.635 397.89 262.528 C 383.388 262.099 387.697 248.593 389.736 238.237 C 393.824 239.008 398.548 240.409 402.316 238.969 C 405.181 236.549 404.434 237.745 405.563 234.495 C 403.696 231.509 404.697 232.533 401.003 230.822 C 397.342 230.524 394.618 232.587 391.363 234.44 C 397.574 223.729 400.717 214.762 408.092 202.985 C 416.883 205.314 423.093 207.201 431.256 211.159 C 433.243 214.304 435.06 218.416 436.688 221.838 C 433.858 237.204 429.273 244.753 428.231 262.319 C 437.108 240.252 450.52 211.474 471.168 197.86 z"/>
<path transform="translate(0,0)" fill="rgb(254,254,254)" d="M 548.771 168.612 C 565.648 185.778 574.354 201.808 577.156 225.784 L 580.522 225.38 C 581.196 217.542 581.754 209.071 582.616 201.308 C 589.452 217.552 595.009 238.568 591.1 256.242 C 590.124 295.353 588.7 315.007 580.908 353.202 C 579.856 349.824 579.311 349.314 577.097 346.631 C 577.178 277.564 573.291 233.398 548.771 168.612 z"/>
<path transform="translate(0,0)" fill="#fefefe" d="M 582.616 201.308 C 589.452 217.552 595.009 238.568 591.1 256.242 C 590.632 252.079 591.247 244.504 591.472 240.076 C 587.111 240.085 582.169 240.438 578.141 238.965 C 575.682 235.555 576.754 229.982 577.156 225.784 L 580.522 225.38 C 581.196 217.542 581.754 209.071 582.616 201.308 z"/>
<path transform="translate(0,0)" fill="#fefefe" d="M 577.156 225.784 L 580.522 225.38 C 580.311 229.094 580.25 234.772 579.101 238.131 L 578.141 238.965 C 575.682 235.555 576.754 229.982 577.156 225.784 z"/>
<path transform="translate(0,0)" fill="rgb(254,254,254)" d="M 242.166 453.802 C 245.954 456.822 258.449 486.638 259.324 493.117 C 261.036 505.785 261.39 520.726 261.851 533.635 C 263.327 566.92 263.372 600.254 261.985 633.543 C 261.094 633.643 261.172 633.451 260.11 632.988 C 258.638 629.814 255.353 620.48 255.257 617.083 C 253.731 562.951 243.716 507.691 242.166 453.802 z"/>
<path transform="translate(0,0)" fill="rgb(254,254,254)" d="M 664.078 463.125 C 665.174 463.361 668.065 464.233 668.871 464.834 C 693.276 483.007 668.255 530.91 657.215 550.181 C 653.733 555.643 652.299 557.137 647.881 561.687 C 651.314 540.495 656.857 520.309 660.645 499.262 C 662.714 487.768 663.246 474.893 664.078 463.125 z"/>
<path transform="translate(0,0)" fill="rgb(254,254,254)" d="M 638.175 806.045 C 644.755 810.99 650.655 866.067 633.773 869.512 C 632.749 856.248 627.502 830.523 624.861 816.779 C 627.137 813.226 634.293 808.914 638.175 806.045 z"/>
<path transform="translate(0,0)" fill="rgb(254,254,254)" d="M 641.877 550.076 L 642.35 550.616 C 643.065 553.315 641.728 564.649 640.959 567.559 C 637.352 581.213 637.364 588.67 625.545 596.922 C 622.247 592.187 626.925 568.19 628.491 561.694 C 629.814 556.204 637.202 552.695 641.877 550.076 z"/>
<path transform="translate(0,0)" fill="rgb(254,254,254)" d="M 631.007 639.808 L 632.701 640.992 C 636.442 658.284 631.953 674.618 620.985 688.079 L 620.053 687.548 C 618.389 683.78 620.245 651.852 620.771 645.355 C 624.09 643.116 627.432 641.569 631.007 639.808 z"/>
<path transform="translate(0,0)" fill="rgb(254,254,254)" d="M 656.532 357.694 L 657.313 358.439 C 658.479 361.548 658.745 374.743 658.364 378.41 C 656.928 392.232 653.55 397.945 643.691 406.517 C 641.382 403.531 643.88 379.557 644.039 373.441 C 646.884 368.948 652.923 362.039 656.532 357.694 z"/>
<path transform="translate(0,0)" fill="rgb(254,254,254)" d="M 335.431 339.433 C 341.905 339.393 348.153 346.728 352.622 351.13 C 349.728 355.432 346.178 361.539 342.087 364.4 C 330.787 365.837 327.806 360.183 324.266 350.678 C 328.582 345.451 330.24 343.804 335.431 339.433 z"/>
<path transform="translate(0,0)" fill="rgb(254,254,254)" d="M 647.947 500.91 C 651.219 504.211 644.543 530.552 642.757 535.683 C 640.091 538.261 635.148 541.665 632.028 543.959 L 631.101 542.012 C 632.688 526.425 632.047 507.942 647.947 500.91 z"/>
<path transform="translate(0,0)" fill="rgb(254,254,254)" d="M 631.698 687.835 C 634.082 691.245 632.861 713.098 632.754 718.786 C 629.387 724.076 626.698 726.446 621.485 729.75 C 619.403 722.527 620.09 706.139 620.26 698.031 C 624.285 693.423 626.909 691.546 631.698 687.835 z"/>
<path transform="translate(0,0)" fill="rgb(254,254,254)" d="M 295.072 466.466 C 300.775 467.25 303.581 469.078 308.534 471.768 C 309.179 475.679 309.523 480.119 312.69 482.593 C 315.884 482.679 314.871 482.727 317.895 480.474 L 319.716 480.899 C 321.177 485.303 320.08 491.699 319.776 496.753 L 317.997 498.041 C 304.562 496.859 295.917 478.799 295.072 466.466 z"/>
<path transform="translate(0,0)" fill="rgb(254,254,254)" d="M 653.8 449.997 L 654.595 451.071 C 654.044 459.526 652.284 476.357 650.431 484.245 C 646.005 489.486 643.86 491.038 638.468 495.175 C 636.917 492.527 639.066 486.246 639.695 482.821 C 641.129 475.009 641.415 468.176 641.12 460.28 C 645.213 457.388 649.885 453.266 653.8 449.997 z"/>
<path transform="translate(0,0)" fill="rgb(254,254,254)" d="M 653.824 407.864 C 654.316 408.027 655.036 408.66 655.507 409.015 C 656.397 417.004 655.971 428.158 655.884 436.43 C 651.96 441.118 649.22 444.908 644.059 448.253 L 642.568 447.638 C 641.919 441.37 643.89 424.176 644.042 416.302 C 646.692 413.61 650.836 410.358 653.824 407.864 z"/>
<path transform="translate(0,0)" fill="rgb(254,254,254)" d="M 637.138 770.894 C 637.403 772.565 636.663 776.458 636.901 778.432 C 638.796 794.136 640.364 796.178 626.697 805.126 L 626.119 804.936 C 624.665 802.77 624.593 779.775 624.438 775.161 C 629.477 773.911 632.467 773.344 637.138 770.894 z"/>
<path transform="translate(0,0)" fill="rgb(254,254,254)" d="M 632.26 731.088 C 635.079 734.01 634.371 753.464 634.419 758.933 C 631.143 762.546 628.843 765.002 625.209 768.295 C 623.407 762.123 622.385 744.101 622.038 737.26 L 632.26 731.088 z"/>
<path transform="translate(0,0)" fill="rgb(254,254,254)" d="M 382.707 314.985 L 383.804 314.671 C 406.366 319.95 391.138 346.661 382.988 338.991 L 383.019 336.25 L 383.031 316.085 C 380.562 320.703 378.448 326.141 372.68 326.768 L 372.659 324.791 C 375.259 319.543 377.822 318.621 382.707 314.985 z"/>
<path transform="translate(0,0)" fill="rgb(254,254,254)" d="M 632.274 601.812 L 634.228 603.357 C 634.952 609.004 634.257 617.45 633.958 623.388 C 629.861 629.287 629.243 630.352 623.578 634.953 L 622.28 635.07 L 621.236 633.525 C 621.375 624.561 620.977 615.271 624.499 606.863 C 625.756 603.862 629.159 603.007 632.274 601.812 z"/>
<path transform="translate(0,0)" fill="rgb(254,254,254)" d="M 475.518 410.162 C 491.692 410.864 482.724 422.347 477.766 431.86 C 475.304 433.035 474.635 433.505 471.936 433.514 C 469.23 429.608 474.59 418.477 475.518 410.162 z"/>
<path transform="translate(0,0)" fill="rgb(254,254,254)" d="M 562.596 428.758 C 563.542 429.662 563.487 430.092 563.949 431.426 C 562.815 441.146 558.863 447.165 551.759 453.584 C 545.2 445.493 557.341 434.294 562.596 428.758 z"/>
<path transform="translate(0,0)" fill="rgb(254,254,254)" d="M 326.069 367.196 C 336.228 371.241 336.962 376.195 333.96 385.897 C 331.841 387.269 331.341 387.443 328.932 388.22 L 327.047 387.053 C 324.912 382.678 325.923 372.558 326.069 367.196 z"/>
<path transform="translate(0,0)" fill="#fefefe" d="M 412.26 364.787 L 413.284 365.156 L 413.834 366.938 C 411.632 374.399 408.492 381.51 403.496 387.527 C 402.925 387.26 401.899 386.404 401.346 385.98 C 399.421 377.889 405.482 368.845 412.26 364.787 z"/>
<path transform="translate(0,0)" fill="rgb(254,254,254)" d="M 406.863 346.042 C 410.465 347.189 411.139 348.18 412.476 351.406 C 412.4 355.172 410.22 358.246 408.325 361.539 L 405.402 362.401 L 404.453 361.04 C 405.014 355.254 405.741 351.693 406.863 346.042 z"/>
<path transform="translate(0,0)" fill="rgb(0,0,0)" fill-opacity="0.27451" d="M 300.371 820.112 C 301.038 815.011 301.528 809.07 303.36 804.344 L 304.807 804.15 L 304.414 802.968 C 305.518 805.167 303.807 829.191 303.114 832.398 C 302.544 828.297 303.29 823.463 301.945 819.966 L 300.371 820.112 z"/>
<path transform="translate(0,0)" fill="#fefefe" d="M 577.097 346.631 C 579.311 349.314 579.856 349.824 580.908 353.202 C 580.43 355.526 579.855 359.216 578.121 360.416 C 576.634 356.447 577.057 350.989 577.097 346.631 z"/>
</svg>
