<svg xmlns="http://www.w3.org/2000/svg" version="1.1" style="display: block;" viewBox="0 0 1024 1024" width="256" height="256" preserveAspectRatio="none">
<path transform="translate(0,0)" fill="rgb(0,0,0)" d="M 248.027 570.172 C 245.947 510.629 239.125 469.459 213.3 416.401 C 188.666 365.791 170.245 311.648 129.41 270.298 C 116.312 252.936 80.4492 259.923 95.1193 230.978 C 159.831 103.296 333.517 61.9431 465.457 58.4387 C 529.789 56.73 611.5 66.8656 673.361 85.9671 C 687.06 91.7434 711.663 95.4152 700.736 115.51 C 664.711 181.76 639.099 254.542 628.517 329.277 C 626.439 343.956 617.222 413.848 643.729 409.293 C 692.603 400.895 737.841 419.089 783.982 431.447 C 789.866 433.046 835.383 422.903 842.507 419.654 C 855.947 413.526 874.541 399.086 884.304 387.818 C 885.269 404.656 888.288 428.456 876.275 441.959 C 868.899 450.249 854.586 455.272 844.842 460.98 C 855.739 467.19 864.629 476.395 870.456 487.502 C 904.07 483.402 936.477 497.266 964.854 513.987 C 967.064 520.35 970.772 528.876 972.415 534.849 C 942.518 515.882 925.3 524.764 892.769 530.721 C 921.861 592.727 882.479 667.199 840.589 713.034 C 827.96 726.851 820.021 735.46 804.303 745.786 C 801.671 744.268 801.399 743.275 800.111 740.622 C 803.828 736.463 807.136 733.07 809.972 728.232 C 794.842 737.596 781.133 749.6 766.146 759.39 C 749.376 770.345 712.412 786.773 692.952 793.804 C 680.124 798.438 666.525 802.374 653.281 805.658 C 644.314 807.882 632.251 808.559 624.182 812.837 C 612.636 818.959 603.288 832.069 592.955 840.314 C 561.256 865.609 461.731 939.008 424.384 930.634 C 411.489 927.743 401.269 919.09 390.825 911.529 C 370.19 896.592 343.462 878.335 316.833 880.563 C 309.925 892.56 306.497 914.774 295.514 918.476 C 288.171 920.951 270.533 909.905 263.919 905.825 C 241.388 891.927 222.758 872.479 210.218 849.084 C 205.304 839.917 201.804 829.817 196.461 820.247 C 183.318 812.468 163.882 809.334 149.217 802.174 C 107.461 781.787 27.7061 704.036 64.1073 653.052 C 100.096 602.645 187.779 571.845 248.027 570.172 z M 707.498 436.133 C 713.558 436.973 743.242 436.249 749.436 434.951 L 749.223 434.461 C 735.497 433.456 713.232 431.655 699.9 432.938 C 702.908 433.786 705.143 434.119 707.498 436.133 z M 553.175 393.769 C 553.651 389.436 554.632 384.539 553.138 380.545 C 551.45 379.091 551.358 378.916 549.275 378.268 C 549.021 382.418 549.347 388.781 550.985 392.566 L 553.175 393.769 z M 689.743 477.06 C 691.847 473.345 696.816 465.183 696.596 461.343 L 695.183 463.159 L 697.209 461.288 L 697.146 460.934 C 694.812 462.578 691.339 469.43 689.635 472.279 L 689.743 477.06 z"/>
<path transform="translate(0,0)" fill="rgb(254,254,254)" d="M 128.865 228.411 C 144.7 186.304 186.676 153.092 226.44 135.047 C 330.022 88.8051 443.726 69.8818 556.701 80.083 C 585.016 82.6713 622.336 88.3989 648.984 98.4123 C 654.454 100.442 659.818 102.749 665.054 105.324 C 635.123 103.426 600.011 101.215 570.739 106.449 C 519.671 115.579 473.709 130.15 428.148 154.894 C 402.715 168.706 384.109 173.638 359.44 192.49 C 378.232 182.169 400.454 173.774 420.124 165.11 C 447.072 153.24 474.692 142.277 502.799 133.529 C 505.713 132.622 509.131 131.709 511.914 130.614 C 511.643 211.733 510.355 293.833 516.995 374.71 C 518.289 390.469 519.791 414.13 522.595 428.925 C 498.479 443.094 497.722 447.948 478.415 466.614 C 466.498 478.136 432.66 497.792 416.484 503.941 C 409.407 506.632 393.876 510.31 385.763 512.756 C 382.399 507.029 376.318 496.644 372.354 491.48 C 376.793 491.094 382.422 491.127 385.423 487.621 L 384.329 486.267 C 380.062 485.135 374.977 486.636 370.535 487.532 C 351.237 458.56 371.88 467.061 378.083 458.628 C 378.177 456.064 378.523 456.888 377.139 455.178 C 371.056 456.936 365.423 461.418 359.125 457.85 C 350.719 453.089 351.84 445.566 352.02 437.821 C 357.434 436.781 360.725 436.113 366.316 435.866 C 370.752 432.843 367.873 427.289 364.546 425.329 C 361.697 426.094 357.308 430.789 351.98 433.52 C 347.856 428.871 340.768 423.436 341.218 417.147 C 341.68 410.712 347.723 404.863 354.341 405.709 C 356.515 406.003 358.625 406.657 360.584 407.644 L 361.546 406.611 C 361.21 403.193 360.816 399.751 360.706 396.321 C 345.829 402.698 342.538 405.989 331.639 392.771 C 336.387 380.994 341.401 371.748 354.933 381.521 C 355.458 380.073 342.369 333.884 340.645 328.335 C 339.281 323.941 332.064 317.917 334.578 311.204 C 337.578 303.191 329.44 294.176 324.941 287.884 C 329.619 270.259 324.506 270.869 313.242 258.645 C 324.062 239.043 316.074 245.204 304.071 231.579 C 313.437 223.717 322.987 216.075 332.713 208.662 C 324.603 212.786 318.976 215.611 311.291 220.825 C 303.032 226.167 294.576 234.701 285.936 239.177 C 246.881 259.41 198.041 271.587 154.73 259.062 C 139.092 254.539 131.853 243.688 128.865 228.411 z"/>
<path transform="translate(0,0)" fill="rgb(254,254,254)" d="M 689.635 472.279 L 689.743 477.06 C 686.529 483.786 681.532 495.653 677.675 501.2 C 647.085 513.888 634.043 513.216 618.966 548.678 C 611.172 567.012 603.601 605.317 625.815 619.303 C 629.892 621.871 643.875 618.775 649.035 617.555 C 645.423 577.75 681.072 560.845 712.567 548.32 C 700.325 560.055 667.918 590.989 684.772 606.141 C 710.002 628.822 779.882 576.833 795.87 560.358 C 822.044 533.386 836.831 506.048 877.542 505.182 C 883.643 505.13 899.615 501.155 904.514 503.795 C 901.546 505.215 894.051 506.674 888.829 508.809 C 866.28 518.026 842.849 530.159 825.14 547.165 C 809.576 562.112 795.465 583.94 785.334 602.951 C 780.746 611.56 773.664 626.583 767.485 633.44 C 753.838 648.583 721.651 659.649 701.92 652.85 C 691.896 649.395 689.843 642.929 685.333 633.961 C 665.404 631.357 630.426 630.096 615.6 643.858 C 608.724 650.241 583.965 673.642 583.979 683.7 C 583.987 689.875 584.628 698.303 588.614 703.683 C 593.399 710.141 604.725 710.733 607.084 713.633 C 599.736 731.918 560.195 746.357 542.659 751.251 C 538.788 752.331 532.949 751.911 529.591 754.171 C 529.526 757.184 529.105 756.088 531.15 758.271 C 536.681 759.88 558.288 754.629 563.75 755.429 C 580.505 757.882 640.731 694.56 639.457 683.645 C 637.219 684.076 629.677 693.556 624.005 697.099 C 615.101 697.291 606.185 698.375 599.101 691.939 C 591.826 685.329 595.571 675.409 601.553 669.679 C 617.582 654.321 632.361 641.995 655.887 643.174 C 674.384 643.74 685.199 645.336 694.335 663.323 C 687.388 676.232 675.15 692.006 666.131 703.791 C 623.126 760.619 572.355 811.128 515.304 853.837 C 497.691 866.95 486.612 876.958 465.383 883.424 C 436.29 892.284 414.137 889.313 387.691 874.276 C 365.824 861.844 337.131 842.68 310.055 850.299 C 309.406 848.674 308.672 847.72 307.733 846.247 C 314.35 829.198 322.72 801.522 310.427 785.575 C 310.511 785.195 322.453 772.678 323.054 768.046 C 324.974 753.27 394.209 669.785 401.983 668.042 C 404.619 676.223 389.34 691.725 384.58 698.598 C 379.291 706.236 369.278 726.316 375.341 734.228 C 379.679 735.602 382.792 732.086 388.354 732.082 L 388.976 733.73 C 387.051 742.224 378.064 750.169 372.956 757.757 C 357.971 780.016 350.954 807.185 355.525 833.577 C 361.49 823.855 367.227 814.502 377.914 809.256 C 381.628 807.469 385.622 806.336 389.721 805.908 C 397.759 805.001 408.217 807.102 415.468 806.1 C 434.941 803.408 424.291 815.101 428.553 821.247 C 437.722 835.179 466.868 827.916 477.36 829.197 C 519.565 834.346 529.736 814.718 555.302 787.308 C 562.724 779.351 573.924 775.152 583.991 769.45 C 577.976 766.287 504.693 806.226 500.013 781.842 C 497.649 769.529 522.178 760.954 530.248 751.931 C 528.198 752.088 526.152 752.287 524.11 752.529 C 505.323 754.794 489.769 765.994 478.321 780.555 C 494.544 799.854 518.261 794.482 541.523 793.945 C 540.61 795.063 539.677 796.164 538.725 797.249 C 530.78 806.361 512.985 820.874 500.353 821.607 C 495.118 821.911 493.436 819.854 489.668 816.497 C 473.399 824.311 460.964 827.848 442.773 822.522 C 437.14 816.959 436.212 814.58 433.357 807.377 C 433.979 805.757 434.523 804.496 435.265 802.928 L 434.066 802.016 L 430.084 803.619 C 419.66 800.056 407.065 798.909 396.063 799.193 C 377.819 799.666 370.464 806.539 358.969 818.627 C 360.629 812.584 360.988 806.398 362.095 800.198 C 365.01 784.31 372.102 769.483 382.642 757.242 C 390.4 748.198 406.959 736.525 400.703 720.786 C 399.729 718.335 397.96 718.079 395.685 717.482 C 391.329 718.074 389.76 719.552 386.128 722.12 L 385.309 721.332 C 392.795 693.427 404.92 696.664 420.303 676.626 C 424.259 671.474 428.381 657.644 431.377 650.875 C 439.351 632.862 452.341 618.138 466.001 604.233 L 469.871 607.596 C 461.6 620.352 456.306 639.188 461.335 653.847 C 466.643 668.424 481.037 670.489 494.28 665.57 C 525.055 654.575 531.604 613.534 540.864 586.053 C 541.877 583.047 534.312 579.375 546.356 561.398 C 583.44 506.045 646.534 520.735 689.635 472.279 z"/>
<path transform="translate(0,0)" fill="rgb(254,254,254)" d="M 430.229 582.596 C 446.08 565.134 461.419 546.154 477.662 529.324 C 541.497 463.182 607.754 433.52 699.9 432.938 C 702.908 433.786 705.143 434.119 707.498 436.133 C 672.078 437.215 635.627 444.039 601.705 460.038 C 551.514 483.709 487.484 519.683 461.629 571.347 C 446.863 600.853 426.135 618.861 405.835 643.611 C 388.847 668.875 379.526 678.102 359.598 700.311 C 323.741 743.261 273.406 775.002 216.131 774.689 C 203.886 774.623 154.88 766.491 145.324 760.524 C 100.22 732.359 58.2068 680.823 101.7 635.061 C 107.247 629.18 113.791 624.328 121.03 620.73 C 135.059 613.701 178.261 602.825 194.523 602.789 C 211.473 602.751 244.096 605.097 257.678 616.296 C 260.15 620.2 256.535 638.019 257.992 642.94 C 263.617 661.933 289.551 699.867 306.453 709.089 C 309.811 710.922 333.325 707.764 337.539 704.762 C 341.422 701.996 349.87 692.625 354.154 688.15 C 371.542 669.986 387.748 653.999 398.548 630.735 C 387.737 639.093 354.287 672.539 344.605 676.337 C 342.41 673.749 344.279 671.111 343.743 670.368 C 331.341 653.169 335.691 636.61 333.186 616.959 C 330.179 593.371 326.174 569.961 324.575 545.775 C 313.184 542.353 299.026 537.777 287.922 533.306 C 347.998 534.631 374.164 532.615 430.413 503.165 C 442.332 496.926 453.57 489.345 465.647 482.997 C 477.153 476.912 488.769 471.037 500.489 465.373 C 506.96 462.237 517.598 457.537 523.156 453.97 C 521.273 458.46 516.091 472.998 513.768 476.049 C 498.82 495.694 477.131 511.924 462.18 531.793 C 450.349 547.516 441.763 564.809 429.111 579.53 L 430.229 582.596 z"/>
<path transform="translate(0,0)" fill="#fefefe" d="M 429.111 579.53 L 430.229 582.596 C 428.68 585.508 421.796 592.296 419.325 594.603 C 422.828 588.122 424.649 585.416 429.111 579.53 z"/>
<path transform="translate(0,0)" fill="rgb(254,254,254)" d="M 720.332 524.425 C 731.507 523.078 755.665 524.176 768.232 524.115 C 762.441 542.926 755.061 561.211 746.171 578.771 C 737.939 595.059 735.132 598.894 717.223 605.318 C 694.855 614.369 680.381 601.256 693.952 579.29 C 705.646 560.361 719.259 553.599 740.035 548.472 C 728.14 548.914 723.884 549.072 711.767 547.986 C 710.571 547.875 707.675 547.494 706.677 547.63 C 678.237 551.502 655.166 564.526 640.799 589.935 C 637.631 595.539 635.543 604.961 631.505 609.548 C 619.148 610.273 618.59 585.87 619.876 577.498 C 624.289 548.776 634.616 543.591 660.12 535.565 C 682.93 528.387 697.077 525.847 720.332 524.425 z"/>
<path transform="translate(0,0)" fill="rgb(254,254,254)" d="M 861.609 422.953 L 863.06 423.263 L 863.816 424.922 C 854.637 447.983 826.494 447.119 809.112 455.986 C 795.349 463.007 790.238 481.959 775.871 488.968 C 766.47 493.555 755.039 485.226 748.557 488.774 L 748.73 492.631 C 747.765 495.167 739.419 500.647 736.47 502.97 C 734.41 502.007 730.811 499.789 728.704 498.578 C 718.987 484.724 736.583 475.122 743.928 465.214 C 745.258 463.421 747.716 457.669 748.772 455.443 L 750.338 455.595 C 750.416 458.518 749.918 459.415 751.445 461.397 C 759.757 458.482 769.986 448.429 779.816 445.743 C 788.332 443.415 796.848 442.153 805.612 441.361 C 831.159 439.055 840.262 435.864 861.609 422.953 z"/>
<path transform="translate(0,0)" fill="rgb(254,254,254)" d="M 520.317 578.1 L 521.811 578.315 C 525.982 583.02 528.656 588.744 531.561 594.272 C 527.736 610.605 522.38 629.482 511.544 642.671 C 504.76 650.928 496.471 655.871 485.82 656.934 C 457.981 649.134 481.216 603.502 495.717 592.839 C 502.952 587.519 512.459 582.548 520.317 578.1 z"/>
<path transform="translate(0,0)" fill="rgb(254,254,254)" d="M 218.47 782.238 C 233.977 781.883 253.468 785.216 266.845 793.601 C 280.06 801.885 287.436 813.63 290.99 828.511 L 284.227 833.127 C 283.201 834.586 282.143 836.254 280.876 837.507 C 279.219 839.146 277.119 839.405 274.901 839.293 C 256.937 838.386 239.114 798.847 228.56 786.554 C 225.07 785.304 221.788 783.891 218.47 782.238 z"/>
<path transform="translate(0,0)" fill="rgb(254,254,254)" d="M 337.089 348.803 C 344.012 350.814 350.352 358.288 347.188 366.157 C 344.219 373.54 341.332 373.847 334.414 377.051 C 319.238 365.914 318.503 356.206 337.089 348.803 z"/>
<path transform="translate(0,0)" fill="rgb(254,254,254)" d="M 552.863 270.034 C 570.579 269.401 573.629 291.017 556.468 293.683 C 547.546 294.202 546.726 292.018 541.563 285.509 C 542.962 275.325 542.197 272.908 552.863 270.034 z"/>
<path transform="translate(0,0)" fill="rgb(254,254,254)" d="M 562.748 220.011 C 579.292 217.64 582.561 238.254 568.55 245.413 C 553.233 248.747 546.407 226.736 562.748 220.011 z"/>
<path transform="translate(0,0)" fill="rgb(254,254,254)" d="M 589.158 122.375 C 594.885 123.19 596.614 126.386 600.208 130.779 L 597.238 143.564 C 594.203 144.484 589.482 145.307 586.244 145.969 C 573.26 144.952 570.42 134.431 578.146 125.115 C 580.479 122.302 585.549 122.553 589.158 122.375 z"/>
<path transform="translate(0,0)" fill="rgb(254,254,254)" d="M 327.298 321.001 C 340.893 325.374 344.838 342.503 326.478 347.592 C 318.888 347.16 311.872 339.853 314.923 332.2 C 317.942 324.624 320.65 324.245 327.298 321.001 z"/>
<path transform="translate(0,0)" fill="rgb(254,254,254)" d="M 304.662 342.692 C 319.516 341.915 322.421 363.071 311.041 367.978 C 291.351 369.739 288.208 353.122 304.662 342.692 z"/>
<path transform="translate(0,0)" fill="rgb(254,254,254)" d="M 572.02 170.033 C 580.695 168.892 581.963 171.684 586.887 177.842 L 587.539 191.565 C 584.276 192.968 581.099 194.585 577.913 196.157 C 574.865 196.485 568.646 194.019 566.857 191.687 C 560.751 183.729 566.6 175.195 572.02 170.033 z"/>
<path transform="translate(0,0)" fill="rgb(254,254,254)" d="M 552.608 190.711 C 560.821 192.189 565.227 198.006 570.344 203.976 C 565.95 210.648 563.691 212.692 557.943 218.224 C 557.663 218.445 556.507 218.602 556.074 218.689 C 553.888 215.331 550.344 216.228 547.864 213.786 C 540.279 206.314 547.541 196.347 552.608 190.711 z"/>
<path transform="translate(0,0)" fill="rgb(254,254,254)" d="M 561.335 143.064 C 578.851 141.616 584.282 159.471 571.636 165.529 C 570.6 165.647 569.563 165.755 568.525 165.851 C 551.353 167.416 550.51 153.725 561.335 143.064 z"/>
<path transform="translate(0,0)" fill="rgb(254,254,254)" d="M 546.729 164.121 C 555.655 165.443 555.394 167.272 559.554 175.169 C 557.371 183.758 557.923 185.427 549.404 188.812 C 546.855 190.43 544.424 189.988 541.778 189.026 C 536.366 184.39 538.776 172.66 541.02 166.87 C 541.756 164.971 544.904 164.646 546.729 164.121 z"/>
<path transform="translate(0,0)" fill="rgb(254,254,254)" d="M 312.48 373.342 L 324.993 373.053 C 327.955 381.847 331.066 390.565 319.659 394.418 C 306.243 395.592 296.855 380.28 312.48 373.342 z"/>
<path transform="translate(0,0)" fill="rgb(254,254,254)" d="M 546.03 241.032 C 549.267 243.425 553.168 244.947 555.185 248.607 C 559.672 256.753 555.699 261.937 548.438 265.735 C 545.868 266.438 545.123 266.424 542.432 266.563 C 534.615 263.386 535.402 252.598 538.003 246.055 C 541.539 244.522 542.487 244.135 545.403 241.587 L 546.03 241.032 z"/>
<path transform="translate(0,0)" fill="rgb(254,254,254)" d="M 585.796 197.877 C 589.115 198.072 587.968 197.587 590.342 199.457 C 593.008 205.782 591.862 216.918 589.46 223.2 C 585.769 224.284 585.866 223.602 581.555 222.516 C 566.909 212.884 571.23 203.752 585.796 197.877 z"/>
<path transform="translate(0,0)" fill="rgb(254,254,254)" d="M 311.57 293.452 C 330.483 295.983 335.415 308.264 319.232 320.788 C 315.87 320.37 307.381 316.518 305.72 313.62 C 307.319 307.762 314.945 308.47 314.708 300.162 C 312.866 297.435 312.319 296.798 311.57 293.452 z"/>
<path transform="translate(0,0)" fill="rgb(254,254,254)" d="M 588.956 149.067 C 592.636 149.211 597.975 150.007 601.757 150.452 C 602.45 158.138 603.875 171.479 595.55 174.794 C 588.561 170.691 586.321 169.352 582.005 162.528 C 583.776 158.387 585.991 152.185 588.956 149.067 z"/>
<path transform="translate(0,0)" fill="rgb(254,254,254)" d="M 554.943 346.267 L 557.167 346.483 C 560.077 351.187 559.022 366.301 555.038 371.514 C 551.411 372.437 551.699 371.733 547.453 370.051 C 533.458 360.731 539.23 348.415 554.943 346.267 z"/>
<path transform="translate(0,0)" fill="rgb(254,254,254)" d="M 571.06 249.093 C 575.599 248.778 582.6 248.298 582.935 254.582 C 583.2 259.531 582.642 268.485 579.554 272.484 L 577.723 272.293 C 574.538 267.965 575.302 265.529 574.644 260.313 C 569.369 263.15 572.714 268.719 569.15 271.954 C 561.518 269.209 558.135 253.906 571.06 249.093 z"/>
<path transform="translate(0,0)" fill="rgb(254,254,254)" d="M 538.648 318.796 C 549.907 320.432 564.431 325.084 553.019 338.933 C 548.412 341.884 544.326 343.353 539.301 345.375 C 538.784 336.525 538.566 327.66 538.648 318.796 z"/>
<path transform="translate(0,0)" fill="rgb(254,254,254)" d="M 563.285 124.384 C 567.33 124.166 566.845 123.511 569.205 125.527 C 570.323 129.22 568.598 134.503 567.693 138.45 C 562.954 139.52 556.573 140.222 551.651 140.907 C 548.81 138.966 545.19 130.489 543.402 126.91 L 563.285 124.384 z"/>
<path transform="translate(0,0)" fill="rgb(254,254,254)" d="M 300.601 316.92 L 310.142 322.192 C 310.037 333.636 310.966 334.56 300.286 339.712 C 298.149 340.584 298.011 340.532 295.661 340.488 L 294.236 338.675 C 293.22 331.801 297.755 323.306 300.601 316.92 z"/>
<path transform="translate(0,0)" fill="rgb(254,254,254)" d="M 562.228 296.646 L 564.008 297.297 C 566.511 301.688 563.777 317.231 562.551 322.428 C 560.529 322.645 558.719 320.629 556.613 319.092 C 552.876 315.599 551.466 312.117 549.311 307.601 C 554.023 301.623 555.216 299.395 562.228 296.646 z"/>
<path transform="translate(0,0)" fill="rgb(254,254,254)" d="M 308.081 265.423 C 319.768 267.862 323.127 275.943 317.535 286.3 C 315.304 287.88 313.88 289.163 311.233 289.834 C 309.645 285.418 308.331 270.449 308.081 265.423 z"/>
<path transform="translate(0,0)" fill="rgb(254,254,254)" d="M 542.128 394.364 C 545.338 395.182 551.131 400.109 554.046 402.341 C 553.039 406.455 551.312 411.39 549.999 415.495 L 546.843 417.988 L 544.763 417.681 C 540.937 413.452 542.059 400.499 542.128 394.364 z"/>
<path transform="translate(0,0)" fill="rgb(254,254,254)" d="M 539.52 212.302 C 541.894 213.276 548.707 222.418 551.11 225.281 C 548.76 228.384 546.676 231.104 544.591 234.394 C 543.943 236.079 543.22 237.372 542.379 238.969 L 540.636 239.459 C 537.272 235.162 538.695 217.965 539.52 212.302 z"/>
<path transform="translate(0,0)" fill="rgb(254,254,254)" d="M 539.752 138.129 C 552.341 141.181 551.366 145.749 547.026 156.448 C 544.916 158.049 544.583 158.328 542.058 159.08 L 540.417 157.681 C 539.286 154.07 539.882 143.184 539.752 138.129 z"/>
<path transform="translate(0,0)" fill="rgb(254,254,254)" d="M 537.981 292.279 C 549.069 295.297 545.045 306.101 543.338 314.803 L 540.737 315.398 L 538.931 313.602 C 536.743 306.838 537.606 299.401 537.981 292.279 z"/>
<path transform="translate(0,0)" fill="#fefefe" fill-opacity="0.988235" d="M 699.9 432.938 C 713.232 431.655 735.497 433.456 749.223 434.461 L 749.436 434.951 C 743.242 436.249 713.558 436.973 707.498 436.133 C 705.143 434.119 702.908 433.786 699.9 432.938 z"/>
<path transform="translate(0,0)" fill="#ffffff" d="M 320.205 400.315 C 325.819 399.87 330.569 398.653 334.866 402.989 C 336.763 406.437 336.387 408.652 336.286 412.597 C 331.64 409.697 321.861 404.678 320.205 400.315 z"/>
<path transform="translate(0,0)" fill="rgb(254,254,254)" d="M 577.024 275.629 C 583.228 277.605 579.248 292.996 578.619 298.789 C 571.706 296.633 573.95 278.952 577.024 275.629 z"/>
<path transform="translate(0,0)" fill="#ffffff" d="M 597.404 118.322 C 601.703 117.995 609.455 116.603 612.533 119.496 C 612.506 122.566 610.554 124.228 608.522 126.527 C 605.733 126.884 598.703 122.251 596.689 120.312 L 597.404 118.322 z"/>
<path transform="translate(0,0)" fill="rgb(254,254,254)" d="M 304.72 242.218 L 306.784 243.077 C 310.942 247.426 311.201 253.519 308.213 258.585 L 305.937 258.127 C 303.18 253.364 304.193 247.611 304.72 242.218 z"/>
<path transform="translate(0,0)" fill="#ffffff" d="M 307.733 846.247 C 308.672 847.72 309.406 848.674 310.055 850.299 C 306.584 853.084 297.431 865.074 294.195 869.118 C 298.339 859.802 301.195 854.057 307.733 846.247 z"/>
<path transform="translate(0,0)" fill="#ffffff" d="M 466.001 604.233 C 472.869 598.129 477.494 594.955 485.929 591.022 C 479.704 596.685 474.886 600.798 469.871 607.596 L 466.001 604.233 z"/>
<path transform="translate(0,0)" fill="#ffffff" d="M 610.106 128.775 C 613.344 131.612 607.439 141.04 605.69 144.354 C 600.702 139.078 606.748 133.331 610.106 128.775 z"/>
<path transform="translate(0,0)" fill="#ffffff" fill-opacity="0.976471" d="M 549.275 378.268 C 551.358 378.916 551.45 379.091 553.138 380.545 C 554.632 384.539 553.651 389.436 553.175 393.769 L 550.985 392.566 C 549.347 388.781 549.021 382.418 549.275 378.268 z"/>
<path transform="translate(0,0)" fill="#fefefe" fill-opacity="0.980392" d="M 689.635 472.279 C 691.339 469.43 694.812 462.578 697.146 460.934 L 697.209 461.288 L 695.183 463.159 L 696.596 461.343 C 696.816 465.183 691.847 473.345 689.743 477.06 L 689.635 472.279 z"/>
<path transform="translate(0,0)" fill="rgb(0,0,0)" fill-opacity="0.854902" d="M 800.111 740.622 C 801.399 743.275 801.671 744.268 804.303 745.786 C 801.036 748.629 796.861 753.364 792.261 751.375 C 793.256 747.656 796.436 747.809 799.661 741.516 L 800.111 740.622 z"/>
</svg>
