<svg xmlns="http://www.w3.org/2000/svg" version="1.1" style="display: block;" viewBox="0 0 1024 1024" width="256" height="256" preserveAspectRatio="none">
<path transform="translate(0,0)" fill="rgb(2,3,1)" d="M 535.68 72.3298 C 561.423 69.6588 588.093 79.8631 613.05 86.8426 C 637.471 93.6723 672.373 98.4811 694.083 110.76 C 705.898 117.443 726.621 144.919 738.253 154.054 C 755.224 172.074 779.219 192.95 793.749 212.768 C 798.884 219.772 802.271 239.981 804.768 249.427 L 820.898 311.749 C 824.12 324.486 829.425 340.513 831.819 353.083 C 835.7 373.463 833.898 399.735 834.089 420.929 C 834.209 434.237 834.948 459.13 833.66 471.307 C 832.101 486.052 824.727 511.015 821.559 526.261 L 805.082 604.965 C 802.705 615.872 799.064 641.044 792.294 648.673 C 779.861 662.682 762.172 689.812 748.748 701.245 C 731.984 715.524 687.353 747.163 666.483 751.174 L 665.576 750.398 C 670.202 743.405 683.574 736.108 685.223 729.972 L 683.674 728.452 C 667.98 726.486 643.296 736.856 632.481 747.835 C 625.249 755.178 631.955 779.08 632.703 789.534 C 665.209 790.608 672.435 790.213 702.161 779.261 C 713.126 775.221 739.603 774.625 754.174 771.383 C 769.08 768.067 796.147 762.149 811.964 765.078 C 834.436 777.131 857.229 800.325 877.399 816.662 C 890.748 827.474 892.402 854.11 896.922 869.87 C 914.1 923.115 917.711 953.767 900.02 1008.18 L 494.5 1007.94 L 203.571 1007.93 L 121.796 1007.89 C 108.958 1007.88 85.6932 1007.23 73.9208 1009 C 79.4049 1001.31 88.6531 977.771 92.878 968.156 C 111.695 925.331 129.678 879.302 157.72 841.19 C 174.744 834.959 190.508 827.602 206.973 820.033 C 218.98 814.226 235.328 815.788 248.36 818.521 C 273.731 823.84 305.455 819.36 328.826 829.426 C 340.757 825.695 353.523 822.357 365.673 819.405 C 381.847 815.476 386.914 809.282 397.439 797.703 C 394.208 778.692 389.818 759.415 387.177 740.203 C 385.215 725.925 367.252 725.551 357.385 717.984 C 351.53 713.494 350.321 710.479 342.898 705.521 C 341.162 700.365 338.413 691.769 332.582 690.355 C 326.153 697.624 337.504 718.807 335.234 727.689 C 329.022 729.031 315.544 703.113 302.892 700.617 C 297.791 701.881 299.284 702.812 294.496 706.125 L 292.272 705.266 C 282.127 694.12 265.821 667.719 259.97 653.875 C 256.534 645.745 254.873 636.665 252.367 628.191 C 245.057 603.479 236.854 578.564 233.035 552.991 C 230.3 534.678 230.282 515.313 229.826 496.81 C 229.292 475.143 227.945 452.769 229.452 431.158 C 231.649 399.638 240.112 364.997 247.517 334.269 C 250.448 322.106 252.248 309.162 256.738 297.467 C 264.595 277.003 282.59 247.485 293.502 227.366 C 301.318 212.955 309.063 192.992 318.717 180.287 C 329.888 165.584 346.998 153.039 360.868 140.902 C 375.251 128.316 389.273 110.827 405.647 101.202 C 418.021 93.9284 516.372 75.145 535.68 72.3298 z M 635.691 733.68 C 638.764 733.864 641.23 734.244 643.595 732.063 C 647.349 728.602 657.738 716.928 658.293 712.476 L 656.571 710.947 C 649.19 714.497 627.485 721.679 632.382 731.519 L 635.691 733.68 z M 316.275 549.455 C 316.636 546.971 312.268 534.338 310.235 532.753 C 307.384 540.431 307.097 546.397 316.275 549.455 z M 302.874 537.493 C 302.888 531.693 301.274 528.507 295.19 526.721 C 295.206 531.498 299.22 534.877 302.874 537.493 z"/>
<path transform="translate(0,0)" fill="rgb(254,254,254)" d="M 571.069 395.171 C 591.473 377.282 591.145 340.65 597.638 335.937 L 599.259 336.316 C 606.156 346.195 599.452 392.798 601.461 397.106 C 607.049 395.236 606.621 394.701 609.911 399.381 C 615.604 401.85 621.323 388.181 628.473 387.755 C 629.493 390.838 627.448 396.809 626.884 401.115 L 627.994 402.293 C 633.476 400.521 637.782 392.504 643.534 393.082 C 644.247 396.159 642.134 405.835 637.963 405.652 C 615.842 404.692 593.914 404.882 572.789 412.561 C 566.759 414.753 556.67 416.038 557.932 423.912 C 565.144 429.914 593.835 417.276 604.589 415.811 C 616.894 414.136 636.971 412.772 647.117 406.642 C 651.283 399.516 650.148 393.75 657.393 387.468 L 658.626 387.75 C 660.14 394.073 655.347 407.404 657.24 412.478 L 658.98 413.096 C 667.01 408.504 675.612 380.01 682.229 380.098 C 683.847 383.66 683.06 392.944 682.996 397.283 C 682.708 416.93 683.352 434.473 677.609 453.421 C 685.824 445.099 694.613 437.365 703.911 430.275 C 698.742 454.012 697.634 479.046 686.237 500.822 C 681.208 510.43 676.147 520.007 671.036 529.572 C 679.777 526.399 684.729 523.405 692.197 518.13 C 687.564 532.233 681.315 545.752 673.577 558.42 C 669.789 564.599 661.924 572.896 662.524 579.596 C 665.252 584.332 665.678 585.308 666.237 590.731 C 666.423 591.865 666.878 595.138 666.278 595.951 C 657.385 608.021 642.793 620.887 634.252 632.858 C 649.98 626.284 664.084 620.016 677.424 609.291 C 671.869 622.375 665.659 632.346 655.07 642.171 C 624.818 670.241 586.133 689.74 550.351 709.885 C 534.227 718.962 516.705 729.384 499.46 735.694 C 491.946 738.443 483.517 738.073 475.631 737.903 C 458.68 729.254 388.333 658.18 372.975 638.851 C 365.833 629.863 352.252 597.496 347.192 585.446 C 356.063 591.192 364.994 596.846 373.982 602.407 C 363.945 583.534 355.349 583.54 348.086 562.747 C 360.153 571.555 360.384 573.76 375.172 580.364 C 362.311 558.941 357.068 546.699 347.788 523.832 C 352.107 525.824 360.563 529.897 364.662 527.018 C 364.382 522.659 357.37 511.841 355.404 507.033 C 352.182 499.158 339.105 466.914 345.707 460.83 C 348.993 462.124 352.239 466.637 354.662 469.483 C 352.783 455.673 353.726 437.475 356.756 423.424 C 357.823 418.476 361.957 427.201 364.054 411.721 C 364.284 410.024 367.269 390.606 367.412 390.377 C 370.847 392.197 374.459 396.781 377.163 399.81 C 377.166 395.711 375.829 368.47 376.621 366.609 C 383.472 367.691 382.583 376.413 392.67 382.355 L 393.1 382.603 C 393.113 369.953 392.588 362.352 389.98 350.021 C 395.926 354.895 400.126 359.317 405.484 364.859 C 403.094 358.591 401.215 352.735 399.182 346.347 C 407.043 352.193 412.847 366.47 419.466 367.073 C 422.415 362.883 419.838 363.3 422.201 358.55 C 426.488 357.815 430.748 366.617 438.263 367.125 L 439.863 365.716 C 440.673 361.927 438.997 341.725 439.099 335.696 C 443.589 344.279 451.606 364.417 460.199 367.72 L 461.495 367.023 C 463.426 359.753 460.625 353.651 458.426 346.384 C 464.218 351.311 475.307 366.212 478.448 367.313 L 480.918 364.579 C 482.079 364.361 501.896 370.061 505.973 370.856 L 507.627 346.434 C 512.926 352.756 517.296 362.521 521.001 370.1 C 529.979 373.991 536.464 375.873 544.22 381.903 C 543.458 372.21 542.891 363.967 542.769 354.194 C 545.307 360.209 553.567 387.286 558.366 388.494 C 561.292 385.786 568.057 369.571 575.745 360.31 C 576.34 374.761 574.274 381.145 571.069 395.171 z"/>
<path transform="translate(0,0)" fill="rgb(2,3,1)" d="M 598.527 460.976 C 613.772 462.315 629.687 462.588 644.42 467.105 C 651.572 469.298 672.312 472.339 676.522 477.013 C 675.334 483.349 666.652 478.458 662.505 481.974 C 663.686 486.404 669.175 486.481 668.226 489.433 C 662.353 507.714 646.378 533.931 624.179 532.93 C 620.071 532.745 616.014 533.912 613.516 531.57 L 614.013 530.319 C 618.451 528.161 625.658 529.077 631.297 526.996 C 642.558 522.841 648.075 519.371 653.416 508.81 C 657.153 500.292 662.796 483.481 649.704 483.106 C 646.357 481.902 646.238 489.494 646.316 491.626 C 647.311 518.821 606.018 533.408 594.129 505.476 C 591.304 498.839 594.035 487.454 590.793 483.792 C 585.401 484.869 580.224 501.407 573.635 506.113 L 572.088 505.619 C 573.672 494.61 576.483 489.29 576.038 477.69 L 576.01 477.055 C 583.196 474.201 594.369 471.921 598.85 468.84 C 600.616 465.287 599.887 465.914 598.527 460.976 z"/>
<path transform="translate(0,0)" fill="rgb(2,3,1)" d="M 363.66 421.795 C 380.443 422.745 405.688 426.942 419.849 435.592 C 431.703 442.834 451.295 458.462 458.925 469.89 C 454.073 468.406 448.264 465.845 443.48 463.892 C 434.527 473.303 431.195 486.264 415.513 488.408 C 397.134 490.921 389.198 482.372 386.276 466.075 C 384.082 453.738 382.976 454.885 389.122 445.92 C 389.329 442.302 387.157 439.666 384.065 438.107 C 376.164 437.104 372.269 447.543 371.025 453.661 C 365.769 479.512 390.349 486.327 402.157 502.395 L 402.413 502.749 C 390.654 499.026 376.741 491.026 369.374 480.832 C 364.167 473.628 367.53 459.577 366.101 450.566 C 365.374 445.984 362.358 442.53 363.17 438.543 C 370.421 430.67 363.379 434.715 363.66 421.795 z"/>
<path transform="translate(0,0)" fill="rgb(2,3,1)" d="M 476.861 641.377 C 477.417 641.274 477.974 641.172 478.53 641.07 C 504.83 640.146 517.078 644.318 536.866 660.096 C 533.034 661.905 527.886 663.352 524.354 665.282 C 516.667 669.482 513.299 672.053 504.979 675.298 C 482.381 679.054 466.589 667.284 450.353 652.741 C 448.643 651.209 448.893 649.943 449.143 648.059 C 453.69 644.549 470.286 642.464 476.861 641.377 z"/>
<path transform="translate(0,0)" fill="rgb(254,254,254)" d="M 476.188 651.421 C 483.425 650.67 499.554 649.103 504.901 654.316 C 504.667 657.169 504.913 656.148 502.624 658.685 C 495.555 660.852 482.829 663.19 476.852 657.663 C 475.434 653.827 475.37 655.189 476.188 651.421 z"/>
<path transform="translate(0,0)" fill="rgb(2,3,1)" d="M 407.926 374.61 C 412.702 374.594 416.654 375.192 421.318 375.41 C 433.467 375.978 496.067 401.905 482.264 419.811 C 460.642 405.739 433.685 382.606 407.427 379.16 L 407.926 374.61 z"/>
<path transform="translate(0,0)" fill="rgb(2,3,1)" d="M 502.479 580.662 C 502.988 580.721 503.496 580.789 504.003 580.864 C 514.427 582.434 519.291 592.368 525.596 600.8 L 518.452 607.728 L 509.055 612.706 L 499.931 607.234 C 499.569 596.939 500.795 590.819 502.479 580.662 z"/>
<path transform="translate(0,0)" fill="rgb(2,3,1)" d="M 584.575 432.968 C 589.326 432.818 598.64 435.666 599.051 441.101 C 595.739 445.502 584.368 447.335 578.783 448.698 C 574.493 449.822 566.736 452.81 563.762 448.738 C 565.571 442.06 578.65 436.047 584.575 432.968 z"/>
<path transform="translate(0,0)" fill="rgb(2,3,1)" d="M 443.066 467.505 L 445.659 468.685 C 449.801 474.399 456.081 483.554 458.021 490.197 C 445.263 490.075 444.011 477.647 443.066 467.505 z"/>
<path transform="translate(0,0)" fill="rgb(2,3,1)" d="M 474.838 589.369 C 481.797 590.343 486.091 596.056 484.573 603.089 C 476.221 601.003 471.111 598.448 474.838 589.369 z"/>
<path transform="translate(0,0)" fill="rgb(254,254,254)" d="M 454.646 141.419 C 467.787 140.113 485.981 141.734 498.604 145.629 C 517.905 151.494 534.075 164.805 543.538 182.621 C 556.374 184.975 573.773 185.694 586.997 186.144 C 590.947 179.448 594.443 174.163 601.427 170.048 C 618.856 159.781 636.718 155.906 656.412 160.14 C 694.829 168.401 725.316 185.799 747.589 218.701 C 761.817 239.717 762.187 255.881 763.598 280.414 C 763.937 286.292 765.011 295.469 763.838 300.948 L 762.438 301.577 C 755.589 295.338 762.983 284.98 756.484 277.75 C 744.791 272.262 736.393 296.742 728.902 302.975 C 721.106 309.462 711.059 312.566 701.06 312.332 C 664.629 311.48 635.153 301.347 608.931 275.559 C 599.902 266.094 594.396 255.499 589.635 243.258 C 584.053 228.908 584.582 211.347 570.625 201.833 C 565.147 198.098 551.98 198.312 545.72 199.553 C 534.619 201.753 528.4 223.392 521.11 234.212 C 508.967 252.236 493.886 263.327 471.794 267.751 C 442.805 273.557 405.139 278.844 377.87 264.232 C 367.681 258.772 360.906 239.147 358.732 228.012 C 351.405 246.09 350.968 272.394 341.563 285.965 L 340.213 286.114 C 338.514 279.973 341.434 266.781 342.696 260.014 C 347.433 234.621 353.863 201.98 370.54 181.553 C 391.839 155.467 421.908 144.657 454.646 141.419 z"/>
<path transform="translate(0,0)" fill="rgb(2,3,1)" d="M 633.622 173.208 C 669.503 169.672 728.798 199.425 740.838 234.954 C 750.455 263.334 734.569 286.089 707.646 294.754 C 687.43 298.382 670.862 295.91 651.214 286.176 C 620.467 270.944 586.758 230.092 603.272 193.942 C 608.29 182.957 622.106 176.652 633.622 173.208 z"/>
<path transform="translate(0,0)" fill="rgb(2,3,1)" d="M 452.407 154.41 C 467.376 152.831 490.275 157.71 501.985 167.419 C 520.524 182.789 512.688 213.428 499.117 229.831 C 483.91 248.211 462.667 251.406 440.247 253.407 C 426.612 255.346 404.256 252.409 393.272 243.817 C 385.707 237.919 380.849 229.213 379.802 219.678 C 378.417 206.62 384.335 189.15 392.914 179.337 C 407.911 162.184 430.73 156.102 452.407 154.41 z"/>
<path transform="translate(0,0)" fill="rgb(254,254,254)" d="M 252.265 503.201 C 250.725 454.523 249.886 410.858 263.265 363.363 C 264.861 357.697 279.768 305.143 281.07 304.294 C 283.704 306.743 285.28 314.05 287.662 318.535 L 288.872 318.54 C 293.947 306.212 295.966 292.569 301.455 280.245 C 306.536 268.836 310.993 257.317 317.911 246.825 C 313.218 272.592 314.505 282.202 315.2 308.196 C 318.944 296.079 319.571 293.044 327.45 283.108 C 323.497 308.633 328.698 328.894 330.515 354.548 C 341.209 328.514 343.797 296.545 362.678 277.679 C 372.958 286.412 384.063 286.977 389.09 292.839 C 389.92 296.616 389.255 296.525 387.979 300.751 C 393.546 299.625 398.438 298.243 403.491 301.708 C 406.013 303.421 407.702 306.114 408.147 309.131 C 410.302 322.864 388.609 339.868 384.376 302.861 C 382.123 304.478 380.442 305.449 378.781 307.684 C 379.066 310.011 379.674 315.189 380.615 317.235 C 383.736 324.03 397.08 332.676 392.855 340.371 L 391.575 340.208 L 388.489 336.035 C 385.324 336.431 378.864 342.464 376.957 344.927 C 375.606 345.31 370.499 346.73 369.586 346.369 C 341.712 335.373 351.281 365.401 351.28 388.061 C 347.523 385.135 344.686 382.778 340.447 380.504 L 339.476 381.027 C 339.58 387.689 340.533 412.871 336.261 416.571 C 329.282 414.386 322.789 387.391 320.313 380.053 C 319.344 414.02 319.958 450.656 319.908 484.822 L 305.647 483.161 C 305.818 487.154 306.236 492.786 305.881 496.636 L 305.252 496.896 C 301.783 496.639 293.31 500.684 289.105 502.193 C 284.733 499.619 281.211 496.337 277.388 493.023 L 280.154 481.42 C 284.213 479.007 287.65 477.108 291.862 474.975 C 298.04 463.508 285.293 448.653 277.401 441.063 L 273.547 443.286 C 274.757 454.039 288.996 454.98 291.037 463.852 C 288.422 472.634 278.136 473.322 270.912 476.666 C 268.557 477.756 272.941 480.595 273.065 484.472 C 273.247 490.15 271.774 495.442 270.328 500.822 C 263.935 501.374 258.533 501.679 252.265 503.201 z"/>
<path transform="translate(0,0)" fill="#ffffff" d="M 376.957 344.927 C 371.74 336.037 379.024 321.537 378.781 307.684 C 379.066 310.011 379.674 315.189 380.615 317.235 C 383.736 324.03 397.08 332.676 392.855 340.371 L 391.575 340.208 L 388.489 336.035 C 385.324 336.431 378.864 342.464 376.957 344.927 z"/>
<path transform="translate(0,0)" fill="rgb(2,3,1)" d="M 273.547 443.286 C 274.34 436.958 278.66 425.459 284.482 422.129 C 286.596 428.785 278.097 432.606 277.401 441.063 L 273.547 443.286 z"/>
<path transform="translate(0,0)" fill="rgb(2,3,1)" d="M 256.326 452.326 C 257.583 452.446 258.584 452.83 259.783 453.209 C 262.134 459.237 261.972 474.007 257.25 478.901 C 252.146 474.719 260.101 467.65 255.198 454.603 L 256.326 452.326 z"/>
<path transform="translate(0,0)" fill="rgb(254,254,254)" d="M 268.948 502.24 C 272.451 502.789 275.765 502.643 279.434 503.374 C 291.485 505.774 291.11 518.551 280.808 523.905 L 276.289 526.322 C 260.573 526.366 261.852 512.228 268.948 502.24 z"/>
<path transform="translate(0,0)" fill="rgb(254,254,254)" d="M 424.679 299.895 C 436.359 296.075 443.268 314.322 435.666 321.516 L 433.197 321.371 C 416.714 324.58 415.364 321.465 416.044 305.845 L 424.679 299.895 z"/>
<path transform="translate(0,0)" fill="#ffffff" d="M 455.476 297.68 C 460.71 298.632 469.256 305.002 470.839 310.36 C 470.264 313.506 470.836 312.322 468.4 314.78 C 462.832 313.916 463.021 307.498 455.327 307.742 L 453.36 310.144 C 454.36 313.748 456.363 318.577 454.853 321.695 L 452.959 322.006 C 449.054 319.973 446.494 315.916 443.79 312.357 C 448.864 304.679 448.984 304.174 455.476 297.68 z"/>
<path transform="translate(0,0)" fill="#ffffff" d="M 274.812 549.4 C 281.2 551.289 291.207 561.14 288.754 569.573 C 286.234 572.209 287.43 571.654 284.287 572.148 C 281.319 571.138 279.966 568.862 278.061 566.385 C 276.768 563.343 276.574 562.733 274.089 560.396 L 272.356 560.537 C 270.422 563.517 270.103 569.292 269.62 573.025 L 268.921 572.979 C 267.78 568.765 266.581 564.895 265.248 560.736 C 268.565 557.018 271.65 553.243 274.812 549.4 z"/>
<path transform="translate(0,0)" fill="#ffffff" d="M 305.252 496.896 L 305.881 496.636 C 307.42 507.207 308.559 517.833 309.294 528.49 C 304.001 524.79 298.428 523.912 295.558 520.653 C 293.784 517.596 294.728 512.141 295.003 508.381 C 299.201 503.755 303.479 502.109 305.252 496.896 z"/>
<path transform="translate(0,0)" fill="#ffffff" d="M 289.06 523.947 L 290.757 526.002 C 291.695 532.345 294.624 546.012 291.237 551.084 C 288.396 551.855 288.756 551.321 285.554 549.655 C 285.028 549.162 284.506 548.666 283.988 548.165 C 273.347 537.864 279.913 531.88 289.06 523.947 z"/>
<path transform="translate(0,0)" fill="#ffffff" d="M 257.74 524.331 C 266.81 526.544 277.251 536.758 271.39 546.668 C 267.948 548.877 266.768 550.225 263.207 548.525 C 258.91 541.614 258.462 532.553 257.74 524.331 z"/>
<path transform="translate(0,0)" fill="#ffffff" d="M 429.685 286.923 C 435.498 286.559 448.129 288.511 451.357 293.716 L 449.761 296.953 C 441.388 301.136 430.108 296.124 429.685 286.923 z"/>
<path transform="translate(0,0)" fill="#ffffff" d="M 472.139 279.74 L 473.587 280.989 C 474.482 285.457 476.699 294.228 474.42 297.967 L 470.037 298.483 C 465.722 296.846 464.768 296.65 463.849 292.087 C 464.846 287.757 469.187 283.309 472.139 279.74 z"/>
<path transform="translate(0,0)" fill="#ffffff" d="M 662.524 579.596 C 668.911 574.135 677.703 566.066 684.805 562.147 C 679.929 572.15 667.307 583.597 666.237 590.731 C 665.678 585.308 665.252 584.332 662.524 579.596 z"/>
<path transform="translate(0,0)" fill="#ffffff" d="M 441.096 324.613 C 449.137 325.11 455.865 332.091 456.621 340.044 C 449.078 338.148 440.842 333.082 441.096 324.613 z"/>
<path transform="translate(0,0)" fill="#ffffff" d="M 416.273 325.293 C 417.939 325.408 418.187 325.678 419.751 326.309 C 421.967 329.525 424.297 332.234 421.436 335.63 L 418.708 335.32 C 414.799 330.408 412.937 331.496 408.923 327.403 C 410.935 325.426 412.922 325.786 416.273 325.293 z"/>
<path transform="translate(0,0)" fill="#ffffff" fill-opacity="0.988235" d="M 310.235 532.753 C 312.268 534.338 316.636 546.971 316.275 549.455 C 307.097 546.397 307.384 540.431 310.235 532.753 z"/>
<path transform="translate(0,0)" fill="rgb(193,194,191)" d="M 287.406 577.02 C 295.708 576.563 298.181 578.287 301.497 585.882 C 294.982 586.582 291.366 581.627 287.406 577.02 z"/>
<path transform="translate(0,0)" fill="rgb(193,194,191)" fill-opacity="0.984314" d="M 295.19 526.721 C 301.274 528.507 302.888 531.693 302.874 537.493 C 299.22 534.877 295.206 531.498 295.19 526.721 z"/>
</svg>
