<svg version="1.1" xmlns="http://www.w3.org/2000/svg" style="display: block;" viewBox="0 0 1024 1024" width="256" height="256" preserveAspectRatio="none">
<path transform="translate(0,0)" fill="rgb(0,0,0)" d="M 325.274 820.283 L 325.441 819.899 C 330.667 807.58 330.964 788.062 326.561 776.16 C 323.323 767.405 304.694 745.063 308.96 738.637 C 318.031 724.973 317.018 725.775 301.808 710.332 C 290.559 698.746 278.852 687.614 266.713 676.963 C 244.179 657.323 223.235 642.143 211.042 613.626 C 205.352 600.319 200.761 586.877 195.257 573.627 C 179.617 535.978 152.845 508.285 158.175 464.825 C 161.033 441.515 156.76 430.968 145.605 411.045 C 139.532 398.541 132.508 372.48 130.656 357.913 C 130.654 321.996 139.163 285.413 151.574 252.14 C 163.753 219.489 187.64 191.905 214.158 170.153 C 220.119 165.263 235.773 150.354 242.118 146.927 C 259.75 137.404 286.157 122.036 304.201 114.295 C 342.752 99.298 391.079 92.8847 432.115 91.7133 C 448.548 91.2443 477.683 97.8462 492.393 103.117 C 513.929 111.243 535.558 119.769 556.922 128.257 C 563.353 130.813 578.637 144.813 582.959 145.231 C 609.23 147.775 653.693 163.345 672.804 181.601 C 685.85 194.064 708.528 235.275 719.351 253.599 C 717.138 258.216 714.701 263.609 712.113 267.642 C 708.384 273.451 693.474 277.417 697.921 285.51 C 713.748 314.263 720.278 344.187 726.578 376.108 C 728.215 384.401 729.773 392.873 732.184 401.026 C 737.476 418.92 755.233 446.678 759.026 463.876 C 738.179 476.897 729.873 480.307 711.682 498.331 L 709.767 511.674 C 706.449 514.197 703.319 516.687 699.7 518.779 C 705.898 533.242 708.576 548.924 714.087 563.396 C 721.497 583.369 727.096 603.999 733.715 624.218 C 744.21 656.273 756.3 692.363 762.199 725.507 C 768.533 761.093 770.576 757.826 790.357 787.365 C 825.403 788.45 819.647 792.645 840.569 819.634 C 849.701 831.415 860.695 843.067 867.797 856.509 C 886.535 894.357 879.051 932.356 880.632 972.586 C 881.168 986.25 884.085 1010.63 886.137 1024 L 127.947 1024 C 124.963 1008.4 124.989 987.155 124.599 971.011 C 139.5 948.778 156.849 922.886 172.939 901.911 C 176.022 897.892 221.91 883.475 232.181 877.283 C 263.174 858.6 295.044 840.211 325.274 820.283 z M 501.266 400.219 C 497.514 395.476 493.386 387.804 490.192 384.379 C 492.276 390.485 494.912 398.512 498.552 403.871 L 501.266 400.219 z M 580.146 183.038 C 579.926 177.954 578.23 172.985 572.642 171.63 C 572.361 177.779 575.17 179.517 580.146 183.038 z"/>
<path transform="translate(0,0)" fill="rgb(254,253,254)" d="M 217.189 426.671 C 226.903 425.79 237.725 423.637 247.202 425.077 C 265.992 427.931 284.745 431.836 299.499 444.544 C 304.185 448.58 311.785 458.951 317.602 458.788 C 318.946 457.71 320.272 456.611 321.581 455.491 C 336.575 457.45 378.919 474.443 380.475 449.272 C 376.626 447.39 368.53 453.199 367.478 452.945 C 337.902 445.797 323.663 420.602 331.309 391.614 C 331.94 389.222 334.717 386.821 336.851 385.584 L 337.886 386.042 C 335.32 394.627 338.606 398.604 341.037 406.402 C 350.654 437.253 370.901 434.371 397.176 430.711 C 400.667 427.03 404.258 423.342 407.545 419.486 C 410.354 419.706 423.13 422.36 422.624 422.462 C 457.465 415.408 487.34 409.863 520.223 428.318 C 522.418 429.55 526.766 431.729 529.481 431.125 C 530.52 425.332 504.259 411.35 498.552 403.871 L 501.266 400.219 C 511.058 408.597 524.209 414.122 536.902 416.07 C 545.726 411.743 548.915 410.484 557.918 407.327 C 557.24 425.679 562.08 423.956 563.714 436.783 L 562.798 437.424 L 557.429 434.058 L 556.197 434.431 C 556.067 439.348 561.456 451.849 563.613 456.725 C 560.26 479.451 558.663 500.306 534.47 509.705 C 534.217 513.769 533.855 512.261 535.526 515.653 C 547.176 521.388 564.774 504.764 568.978 494.951 C 572.975 485.619 570.416 482.739 572.428 473.61 C 574.917 465.687 586.958 457.57 586.659 449.59 L 584.155 445.588 C 585.723 440.47 605.292 432.663 610.489 430.324 C 617.853 442.307 630.788 461.962 626.374 476.528 C 623.548 485.856 623.079 495.403 620.1 504.632 C 611.562 531.28 592.022 548.638 568.957 562.815 C 566.267 564.462 563.551 566.067 560.811 567.631 C 554.695 567.258 552.432 567.182 546.204 567.874 C 542.814 577.791 538.669 590.199 533.38 599.212 C 513.183 631.807 478.177 664.558 443.994 681.858 C 418.342 694.841 390.373 708.011 363.013 715.811 C 345.111 719.774 330.598 702.023 318.223 692.797 C 285.798 668.623 251.902 641.976 235.004 604.065 C 214.792 558.718 207.693 508.28 186.059 463.448 C 182.07 455.184 178.49 442.108 175.684 433.008 C 189.747 445.479 201.761 443.154 219.855 442.727 C 220.016 448.6 220.221 453.439 220.79 459.302 C 216.665 457.089 208.607 451.794 204.968 451.822 C 199.548 461.824 215.269 462.703 215.299 468.722 C 211.272 474.703 207.645 471.566 201.165 472.466 C 201.678 476.36 208.392 480.39 211.664 482.62 C 211.08 484.752 210.866 485.027 209.731 486.953 C 211.069 493.005 217.534 490.733 215.732 498.351 C 213.247 501.105 212.104 501.357 211.827 504.435 L 213.34 505.925 C 218.636 504.603 218.073 502.971 221.657 504.596 C 223.826 508.714 225.113 514.681 227.619 516.783 L 230.413 516.609 C 235.795 509.254 221.43 493.48 222.812 485.266 C 223.533 480.984 224.078 477.109 224.232 472.772 C 227.147 468.911 232.638 460.614 237.366 459.919 C 240.571 467.791 226.933 487.087 240.139 493.67 C 241.2 494.2 246.363 493.94 247.983 493.955 C 250.854 501.049 240.632 500.004 252.114 513.981 C 265.47 514.311 279.672 511.312 280.797 494.923 C 281.201 489.044 275.51 484.977 276.614 479.87 L 278.313 478.328 C 285.223 478.932 290.602 490.112 295.432 488.05 C 297.033 477.153 273.823 455.687 267.38 447.245 C 271.739 448.568 275.947 449.727 279.993 451.907 C 285.906 455.092 289.423 461.936 295.504 463.266 L 297.096 462.174 C 297.944 449.868 274.907 440.067 264.598 440.061 C 250.529 440.052 239.593 441.898 225.81 437.82 C 222.871 433.763 220.481 430.507 217.189 426.671 z"/>
<path transform="translate(0,0)" fill="rgb(0,0,0)" d="M 406.362 460.774 C 409.896 450.928 416.568 453.076 413.898 447.077 C 411.608 441.931 406.667 440.289 408.543 433.99 L 410.199 433.566 C 415.22 437.479 422.538 450.675 431.209 442.802 C 434.13 435.418 431.387 427.882 431.257 419.782 C 443.473 437.71 443.22 438.935 464.741 439.539 C 461.979 436.836 455.667 431.457 455.218 428.149 C 457.272 426.307 458.168 425.264 460.867 424.434 C 462.939 425.988 466.161 433.74 470.227 438.281 C 478.842 441.265 488.218 443.779 495.153 449.594 C 497.948 445.712 499.425 443.203 503.532 440.627 L 505.253 440.813 C 507.281 447.491 500.912 457.888 502.691 462.348 C 506.501 463.195 512.962 459.259 516.805 457.364 C 515.851 459.26 513.012 464.804 511.675 465.771 C 496.563 476.702 508.182 480.761 506.356 488.442 C 491.526 499.589 500.541 467.808 490.405 463.141 C 486.638 463.339 487.721 463.293 484.271 465.618 C 480.654 472.627 504.809 494.715 465.135 511.74 C 452.471 509.096 448.361 508.634 439.332 498.96 C 443.109 494.44 445.525 491.508 448.789 486.526 L 435.121 484.939 C 436.307 466.929 436.592 462.713 448.856 448.654 C 438.34 452.541 438.651 452.024 429.675 457.997 C 421.178 463.651 412.646 481.392 407.505 482.858 C 405.749 480.867 406.273 481.689 406.004 478.576 C 406.014 474.408 403.171 472.441 402.516 466.547 C 403.177 463.413 404.066 462.87 406.362 460.774 z"/>
<path transform="translate(0,0)" fill="rgb(234,233,234)" d="M 406.362 460.774 C 408.801 460.15 410.101 459.784 412.657 459.609 C 417.342 463.515 408.37 473.06 406.004 478.576 C 406.014 474.408 403.171 472.441 402.516 466.547 C 403.177 463.413 404.066 462.87 406.362 460.774 z"/>
<path transform="translate(0,0)" fill="rgb(0,0,0)" d="M 337.369 626.062 C 347.772 625.565 391.335 626.872 396.457 635.029 C 394.064 641.485 360.353 649.93 354.755 653.42 L 354.5 655.623 C 360.464 658.156 369.185 656.32 371.059 661.479 C 366.665 667.886 340.844 667.941 336.26 660.985 C 335.632 658.369 336.37 657.326 337.553 654.978 L 337.971 654.159 C 337.787 653.511 324.226 638.57 321.348 633.976 C 326.663 631.286 332.003 628.647 337.369 626.062 z"/>
<path transform="translate(0,0)" fill="rgb(234,233,234)" d="M 347.088 635.252 C 352.556 634.972 367.41 633.321 370.941 636.43 C 369.93 639.312 368.686 639.264 365.523 641.246 C 360.787 643.418 356.942 644.537 352.014 646.059 C 349.81 642.239 348.044 639.615 347.088 635.252 z"/>
<path transform="translate(0,0)" fill="rgb(0,0,0)" d="M 593.485 461.952 C 600.386 462.548 610.63 481.066 611.923 487.608 C 610.368 491.711 605.659 489.627 604.693 492.057 C 596.491 512.687 594.732 522.705 572.461 533.436 C 568.02 534.892 560.753 537.071 558.866 531.544 C 561.657 523.705 575.129 515.271 582.224 505.765 L 575.983 495.716 C 577.075 487.849 578.466 483.202 579.124 474.629 C 583.932 468.885 587.5 466.466 593.485 461.952 z"/>
<path transform="translate(0,0)" fill="rgb(0,0,0)" d="M 331.571 566.735 L 332.803 567.048 C 333.903 569.059 330.879 579.38 330.586 583.149 C 329.767 593.694 346.85 593.014 345.725 604.986 C 342.612 607.795 343.859 606.988 339.598 607.866 C 330.448 603.59 326.803 601.233 319.403 594.62 C 319.436 594.103 319.478 593.587 319.529 593.072 C 320.615 581.438 322.503 574.312 331.571 566.735 z"/>
<path transform="translate(0,0)" fill="rgb(0,0,0)" d="M 313.79 468.198 C 319.61 467.662 324.156 466.782 329.008 470.452 C 333.132 476.21 330.443 482.773 329.616 490.205 C 326.171 489.055 317.229 478.101 314.647 474.664 C 312.571 471.901 313.207 471.021 313.79 468.198 z"/>
<path transform="translate(0,0)" fill="rgb(0,0,0)" d="M 352.834 587.514 C 360.297 589.168 366.465 588.778 368.164 596.921 C 364.012 596.836 358.396 597.171 354.85 595.357 C 352.241 592.059 353.062 592.56 352.834 587.514 z"/>
<path transform="translate(0,0)" fill="rgb(254,253,254)" d="M 308.092 248.357 C 317.077 224.848 334.139 211.997 353.203 196.415 C 346.333 209.18 313.894 247.505 348.446 247.201 C 355.93 247.135 360.836 245.44 367.695 242.982 C 378.135 245.575 380.275 245.456 387.596 253.292 C 389.481 256.022 388.799 256.771 388.847 260.768 C 395.293 261.081 395.46 259.226 401.893 256.898 C 405.047 256.841 407.69 259.588 410.257 261.648 C 412.825 268.646 415.346 280.816 404.182 282.261 C 396.441 283.262 391.697 278.139 386.17 273.431 C 367.663 289.489 364.413 281.636 353.671 264.461 C 351.049 292.085 339.291 278.734 331.824 281.706 C 330.899 290.967 348.925 293.489 325.446 309.587 C 321.666 307.056 317.876 304.915 313.944 302.647 C 313.948 294.619 314.269 292.452 315.739 284.598 C 313.647 282.97 309.076 283.019 305.979 281.362 C 302.331 279.41 299.488 276.972 296.302 274.394 C 290.531 279.811 284.36 285.237 278.471 290.564 L 277.305 302.263 C 272.155 305.874 268.782 307.913 263.274 310.952 C 240.308 287.128 270.574 288.837 265.413 274.087 C 259.858 274.277 253.129 286.206 247.919 282.285 C 245.95 277.052 251.645 268.777 254.801 264.846 C 262.921 254.734 257.287 258.406 257.137 252.75 C 264.197 240.252 299.076 207.198 310.798 200.325 C 303.053 217.814 297.268 216.579 290.706 241.552 C 297.3 243.783 301.741 245.512 308.092 248.357 z"/>
<path transform="translate(0,0)" fill="rgb(254,253,254)" d="M 659.561 473.354 C 665.456 476.269 661.431 507.301 664.267 513.707 C 667.414 520.814 673.562 521.321 672.233 531.452 C 669.672 534.041 668.981 533.481 664.806 534.472 C 662.966 538.836 673.976 544.056 672.094 550.441 C 670.326 556.441 662.559 557.13 662.214 563.327 C 667.833 565.662 675.66 559.408 680.042 563.964 C 682.576 566.599 686.258 574.376 688.09 577.886 C 681.845 583.857 677.939 584.584 673.073 589.192 C 672.81 592.403 672.543 591.124 674.181 594.013 L 676.394 594.416 C 680.19 592.91 685.603 587.027 689.339 583.866 C 692.51 592.285 695.243 599.415 699.061 607.613 C 689.007 613.56 685.071 608.756 681.376 610.91 C 680.848 620.201 700.008 627.166 674.653 636.833 L 669.723 635.268 C 665.207 633.821 656.472 630.884 652.053 633.166 C 654.443 636.708 661.266 638.055 665.34 639.136 C 667.625 641.119 670.257 644.721 672.204 647.197 C 671.055 651.334 668.722 657.215 667.213 661.391 L 652.763 663.354 C 655.582 673.793 660.611 688.381 664.731 698.53 C 665.578 700.614 670.463 705.89 672.411 709.749 L 672.722 710.38 C 674.198 712.847 674.685 713.445 675.124 716.261 C 673.392 716.979 673.633 717.175 671.417 716.189 C 648.43 705.952 653.172 686.607 644.539 666.688 C 640.353 665.682 634.385 664.902 630.011 664.196 C 611.125 638.683 617.814 628.538 608.403 600.519 C 612.492 606.519 624.132 627.362 628.158 629.44 L 629.948 628.096 C 636.756 612.801 634.738 599.58 632.136 583.632 C 642.201 599.106 646.989 603.797 662.885 613.093 C 638.899 565.549 640.303 522.371 659.561 473.354 z"/>
<path transform="translate(0,0)" fill="rgb(254,253,254)" d="M 180.551 356.218 C 171.551 334.04 160.535 298.744 166.973 275.234 C 179.661 228.899 217.165 194.701 256.707 170.142 C 257.9 171.039 260.112 172.59 261.129 173.524 C 244.531 187.538 226.051 203.394 220 225.766 L 220.447 227.899 C 224.011 227.806 226.064 224.473 229.596 224.051 C 233.856 223.543 235.455 228.027 238.025 228.268 C 240.104 228.464 261.234 208.919 267.166 205.846 C 247.561 230.936 236.32 252.387 231.538 284.798 C 230.265 293.423 231.62 304.473 231.019 312.914 C 230.852 315.857 232.61 320.576 232.419 321.754 C 227.469 352.302 188.555 312.909 218.652 308.956 C 220.241 308.747 225.994 311.075 228.749 311.485 C 222.702 300.457 221.244 297.599 219.734 285.215 C 213.519 278.818 209.482 278.409 206.987 268.739 C 208.811 259.253 224.595 261.873 222.005 252.162 L 220.203 251.236 C 215.264 252.712 210.52 259.838 207.425 264.026 C 204.985 260.308 204.083 258.07 200.148 256.498 L 199.059 257.861 C 198.572 263.202 200.605 269.091 202.023 274.362 C 196.328 280.914 193.972 280.826 185.961 284.335 C 182.57 291.107 180.879 346.325 180.551 356.218 z"/>
<path transform="translate(0,0)" fill="rgb(254,253,254)" d="M 603.918 214.76 C 607.765 217.221 613.963 229.161 617.596 233.025 C 620.014 235.597 627.943 240.514 629.354 242.923 C 631.884 247.243 621.106 258.362 620.608 263.45 C 619.571 274.044 627.906 270.591 632.301 277.101 C 633.2 281.203 631.461 285.049 630.118 289.073 L 642.952 294.059 C 644.667 289.65 646.044 279.14 650.445 277.92 L 651.747 279.545 C 652.291 294.213 655.718 318.662 652.147 332.354 C 649.066 344.166 624.817 351.294 613.278 356.767 C 619.415 347.048 624.842 336.9 629.517 326.399 C 631.902 319.917 636.5 305.866 631.718 300.298 L 629.06 300.281 C 621.27 303.936 613.506 315.477 607.993 322.603 C 609.145 317.892 616.539 281.746 616.163 279.952 C 615.986 279.108 614.875 278.752 614.154 278.321 C 606.679 279.25 593.663 289.883 586.85 294.655 C 592.368 286.397 604.519 266.267 605.967 255.398 C 606.171 253.871 604.849 253.223 603.776 252.406 C 598.301 252.236 601.33 252.41 595.733 255.936 C 591.936 255.804 591.433 255.761 588.054 253.969 C 582.028 245.43 590.231 237.087 596.164 231.394 L 609.532 237.408 C 603.183 227.674 601.568 226.14 603.918 214.76 z"/>
<path transform="translate(0,0)" fill="rgb(254,253,254)" d="M 428.06 353.934 C 438.797 366.374 442.765 377.123 452.613 388.862 C 457.216 394.35 470.863 395.849 475.014 404.596 C 445.161 407.452 437.448 395.065 430.544 367.209 C 429.374 362.491 428.094 359.033 428.06 353.934 z"/>
<path transform="translate(0,0)" fill="rgb(254,253,254)" d="M 658.445 354.752 C 660.579 356.936 660.647 366.31 660.254 369.26 C 657.954 386.523 648.547 400.814 635.653 411.633 C 633.39 408.094 633.596 398.01 633.303 392.954 C 653.197 378.458 648.313 368.007 658.445 354.752 z"/>
<path transform="translate(0,0)" fill="rgb(254,253,254)" d="M 173.652 475.271 C 183.171 478.632 201.619 520.458 200.596 532.745 C 188.766 528.932 171.369 487.422 173.652 475.271 z"/>
<path transform="translate(0,0)" fill="rgb(254,253,254)" d="M 202.883 281.741 C 205.618 281.849 212.332 285.571 214.132 287.633 C 222.046 296.704 211.126 305.774 206.212 310.41 C 201.695 312.071 180.961 298.553 202.883 281.741 z"/>
<path transform="translate(0,0)" fill="rgb(254,253,254)" d="M 536.915 180.785 C 539.416 180.919 547.447 186.589 550.236 188.364 L 549.846 201.074 C 545.711 203.341 542.884 205.31 539.064 207.98 C 518.228 198.967 521.739 192.646 536.915 180.785 z"/>
<path transform="translate(0,0)" fill="rgb(254,253,254)" d="M 353.906 281.63 C 356.314 281.782 361.668 284.595 363.495 286.221 C 374.225 295.771 367.025 303.224 359.161 308.425 C 357.742 309.088 356.498 309.418 355.01 309.891 C 347.034 307.935 345.934 302.97 346.096 295.397 C 346.24 288.68 349.146 286.03 353.906 281.63 z"/>
<path transform="translate(0,0)" fill="rgb(254,253,254)" d="M 416.925 281.77 C 428.093 282.064 433.226 305.059 416.868 309.784 C 403.734 308.175 405.454 300.215 405.425 289.632 C 408.903 287.056 413.286 284.246 416.925 281.77 z"/>
<path transform="translate(0,0)" fill="rgb(254,253,254)" d="M 550.348 155.56 C 552.946 155.997 560.109 159.059 562.003 160.934 C 570.26 169.105 560.16 177.535 555.145 182.34 C 545.534 181.829 543.86 177.067 539.083 169.763 C 542.878 163.767 544.824 160.076 550.348 155.56 z"/>
<path transform="translate(0,0)" fill="rgb(254,253,254)" d="M 386.248 281.838 C 389.967 283.154 396.411 290.825 399.167 293.978 C 395.427 300.26 392.174 306.977 385.976 310.783 C 378.392 308.199 370.072 300.036 374.925 292.109 C 377.76 287.478 381.998 284.955 386.248 281.838 z"/>
<path transform="translate(0,0)" fill="rgb(254,253,254)" d="M 703.061 661.848 C 720.406 667.689 720.792 680.392 703.682 687.723 C 701.071 686.676 693.057 681.794 690.221 680.153 C 690.585 678.617 690.973 677.087 691.385 675.564 C 693.679 667.153 695.672 666.055 703.061 661.848 z"/>
<path transform="translate(0,0)" fill="rgb(254,253,254)" d="M 564.549 232.923 C 574.705 232.839 575.449 235.86 580.521 243.813 C 578.719 250.2 577.729 253.563 573.483 258.654 C 561.327 256.742 560.427 255.097 554.532 244.734 C 557.721 240.174 560.056 236.284 564.549 232.923 z"/>
<path transform="translate(0,0)" fill="rgb(254,253,254)" d="M 294.2 283.813 C 308.48 284.067 314.033 300.607 296.31 307.863 C 295.262 308.078 294.187 308.123 293.124 307.998 C 277.21 306.004 282.771 290.725 294.2 283.813 z"/>
<path transform="translate(0,0)" fill="rgb(254,253,254)" d="M 564.51 180.728 C 577.944 181.088 586.025 195.193 570.724 206.478 C 554.695 207.723 552.736 190.85 564.51 180.728 z"/>
<path transform="translate(0,0)" fill="rgb(254,253,254)" d="M 685.584 637.914 C 696.147 637.321 705.1 643.747 698.316 655.768 C 697.633 656.978 693.036 660.617 691.722 661.682 C 684.751 663.195 681.317 657.86 676.725 653.326 C 678.267 644.074 676.898 642.637 685.584 637.914 z"/>
<path transform="translate(0,0)" fill="rgb(254,253,254)" d="M 580.949 207.827 C 600.957 208.854 595.34 225.11 583.391 234.348 C 568.851 223.382 565.615 220.505 580.949 207.827 z"/>
<path transform="translate(0,0)" fill="rgb(254,253,254)" d="M 337.747 309.049 C 345.252 308.793 346.908 308.575 350.343 315.878 C 352.306 320.052 351.283 324.077 349.884 328.272 C 348.927 331.142 345.264 331.759 342.654 332.725 C 324.941 331.381 326.091 318.225 337.747 309.049 z"/>
<path transform="translate(0,0)" fill="rgb(254,253,254)" d="M 368.367 308.783 C 370.191 309.027 374.536 309.889 376.145 310.517 C 378.914 311.616 381.12 313.789 382.261 316.541 C 385.424 324.389 378.821 330.947 372.132 333.773 C 367.677 331.397 360.156 321.565 357.138 317.316 C 360.775 314.335 364.521 311.489 368.367 308.783 z"/>
<path transform="translate(0,0)" fill="rgb(234,233,234)" d="M 215.837 382.783 C 221.25 388.412 212.515 399.975 232.487 415.364 C 230.479 416.981 226.039 419.841 223.749 421.424 C 221.168 422.112 220.717 422.367 218.115 422.131 C 213.098 418.617 210.409 404.936 208.682 398.53 C 210.129 392.852 213.075 387.959 215.837 382.783 z"/>
<path transform="translate(0,0)" fill="rgb(254,253,254)" d="M 414.289 233.91 C 422.468 235.162 426.339 247.282 424.242 254.983 C 421.225 257.765 421.779 256.948 417.053 257.703 C 402.725 252.756 400.339 242.126 414.289 233.91 z"/>
<path transform="translate(0,0)" fill="rgb(254,253,254)" d="M 277.701 309.049 C 292.549 311.382 301.463 324.291 285.363 331.525 C 279.291 326.173 274.013 320.569 266.64 317.473 C 271.052 313.474 272.536 312.205 277.701 309.049 z"/>
<path transform="translate(0,0)" fill="rgb(254,253,254)" d="M 546.872 208.126 C 553.388 207.87 559.287 209.138 563.25 214.602 C 568.129 221.329 562.93 225.771 558.635 229.761 L 550.868 235.938 C 549.484 221.673 546.392 220.219 544.76 210.391 L 546.872 208.126 z"/>
<path transform="translate(0,0)" fill="rgb(254,253,254)" d="M 444.052 282.714 C 446.763 283.799 456.941 297.041 459.486 300.22 L 449.767 302.734 C 445.704 303.759 441.656 305.236 437.685 306.601 C 435.668 294.022 434.14 291.634 444.052 282.714 z"/>
<path transform="translate(0,0)" fill="rgb(254,253,254)" d="M 421.382 260.267 C 429.849 260.766 436.123 269.939 439.729 277.149 C 440.546 278.783 438.873 280.795 437.992 282.321 C 427.022 284.211 426.333 281.93 419.65 274.072 C 419.979 269.836 420.82 264.564 421.382 260.267 z"/>
<path transform="translate(0,0)" fill="rgb(254,253,254)" d="M 698.333 612.484 C 705.798 613.924 708.985 627.406 708.867 634.008 C 707.267 637.027 708.321 636.086 704.669 637.334 C 691.667 632.392 685.683 622.366 698.333 612.484 z"/>
<path transform="translate(0,0)" fill="rgb(234,233,234)" d="M 247.227 308.953 C 253.884 309.135 259.71 310.86 262.183 317.93 C 263.944 322.965 262.027 324.82 259.765 329.284 C 256.008 331.989 253.662 333.122 249.434 330.916 C 245.572 326.074 246.961 315.182 247.227 308.953 z"/>
<path transform="translate(0,0)" fill="rgb(254,253,254)" d="M 521.621 158.132 C 537.391 161.016 539.563 172.705 526.859 182.038 L 524.876 180.886 C 523.809 175.573 517.741 167.163 514.622 162.115 C 516.867 159.303 517.76 159.661 521.621 158.132 z"/>
<path transform="translate(0,0)" fill="rgb(254,253,254)" d="M 251.55 385.482 C 256.104 388.364 266.146 413.354 271.563 421.452 C 270.806 421.43 270.051 421.386 269.297 421.319 C 252.583 419.852 250.36 398.822 251.55 385.482 z"/>
<path transform="translate(0,0)" fill="rgb(254,253,254)" d="M 303.009 309.209 C 315.034 308.805 328.963 315.699 322.266 329.309 C 316.264 325.999 303.892 320.153 301.217 314.437 C 301.143 310.793 300.694 312.191 303.009 309.209 z"/>
<path transform="translate(0,0)" fill="rgb(254,253,254)" d="M 495.744 139.052 C 502.236 138.834 514.595 141.061 521.057 142.657 L 521.116 144.439 C 518.318 148.204 518.184 149.104 517.336 153.779 C 515.208 156.269 513.497 157.166 510.412 156.859 C 504.244 153.042 499.927 145.213 495.744 139.052 z"/>
<path transform="translate(0,0)" fill="rgb(234,233,234)" d="M 188.955 308.019 C 193.325 309.38 199.007 314.292 202.779 317.243 L 198.795 329.684 L 195.957 331.012 C 188.712 328.881 188.142 314.228 188.955 308.019 z"/>
<path transform="translate(0,0)" fill="rgb(234,233,234)" d="M 407.249 209.533 C 408.667 210.503 414.255 218.652 415.9 220.78 C 412.151 224.973 408.834 228.35 404.848 232.286 C 403.857 233.402 403.205 233.481 401.805 233.963 L 400.658 232.839 C 399.573 227.879 405.371 216.559 407.249 209.533 z"/>
<path transform="translate(0,0)" fill="rgb(234,233,234)" d="M 199.206 334.316 C 203.732 334.089 211.193 332.799 214.089 336.512 C 212.892 340.378 212.176 340.031 208.693 343.181 C 206.555 345.839 205.032 346.009 202 346.099 C 197.317 343.028 195.832 339.037 199.206 334.316 z"/>
<path transform="translate(0,0)" fill="rgb(234,233,234)" d="M 526.239 144.449 C 530.651 144.771 541.056 148.022 543.941 151.533 C 545.12 152.967 544.648 153.484 544.578 155.73 C 534.99 161.046 527.658 154.574 526.239 144.449 z"/>
<path transform="translate(0,0)" fill="rgb(254,253,254)" d="M 588.047 185.931 C 595.521 192.452 597.796 196.472 596.304 206.165 C 593.142 204.431 589.364 202.653 586.097 201.013 C 586.454 196.038 586.594 190.662 588.047 185.931 z"/>
<path transform="translate(0,0)" fill="rgb(234,233,234)" d="M 228.448 334.515 C 232.559 336.729 232.522 347.528 229.729 350.983 C 228.835 352.089 225.857 351.876 224.347 351.981 C 222.537 350.691 222.549 350.52 221.672 348.393 C 221.936 342.607 224.278 338.456 228.448 334.515 z"/>
<path transform="translate(0,0)" fill="rgb(254,253,254)" d="M 711.501 641.696 C 713.895 643.729 715.286 656.003 716.612 660.002 L 715.267 661.033 C 705.507 654.696 704.397 651.278 711.501 641.696 z"/>
<path transform="translate(0,0)" fill="rgb(234,233,234)" d="M 256.707 170.142 C 265.045 164.334 271.368 161.624 280.518 157.382 L 281.204 157.594 C 278.394 160.514 264.715 171.427 261.129 173.524 C 260.112 172.59 257.9 171.039 256.707 170.142 z"/>
<path transform="translate(0,0)" fill="rgb(234,233,234)" d="M 387.596 253.292 C 395.234 247.106 389.34 242.957 397.747 241.648 C 402.168 246.24 395.763 252.303 392.053 255.532 C 391.407 256.095 390.743 256.638 390.064 257.161 L 388.847 260.768 C 388.799 256.771 389.481 256.022 387.596 253.292 z"/>
<path transform="translate(0,0)" fill="rgb(254,253,254)" d="M 261.981 333.578 L 264.063 334.006 C 266.29 336.093 265.629 335.018 266.248 338.491 C 265.339 342.04 265.239 342.585 262.277 344.88 C 258.451 343.222 256.651 342.269 255.91 338.07 C 258.123 334.54 257.601 335.545 261.981 333.578 z"/>
<path transform="translate(0,0)" fill="rgb(234,233,234)" d="M 241.501 287.739 C 245.174 289.193 247.601 290.734 249.294 294.076 C 248.202 298.056 248.341 296.994 244.695 300.118 C 244.261 300.537 243.145 301.069 242.556 301.388 C 240.679 298.969 241.357 291.171 241.501 287.739 z"/>
<path transform="translate(0,0)" fill="rgb(234,233,234)" d="M 672.213 662.213 C 678.983 661.207 685.337 665.95 684.171 673.304 C 680.122 673.116 674.595 665.669 672.213 662.213 z"/>
<path transform="translate(0,0)" fill="rgb(234,233,234)" d="M 584.073 256.534 C 592.128 261.191 592.624 262.41 590.608 271.337 L 588.92 270.523 C 585.658 266.472 584.728 261.563 584.073 256.534 z"/>
<path transform="translate(0,0)" fill="rgb(234,233,234)" fill-opacity="0.988235" d="M 490.192 384.379 C 493.386 387.804 497.514 395.476 501.266 400.219 L 498.552 403.871 C 494.912 398.512 492.276 390.485 490.192 384.379 z"/>
<path transform="translate(0,0)" fill="rgb(234,233,234)" fill-opacity="0.984314" d="M 572.642 171.63 C 578.23 172.985 579.926 177.954 580.146 183.038 C 575.17 179.517 572.361 177.779 572.642 171.63 z"/>
</svg>