<svg version="1.1" xmlns="http://www.w3.org/2000/svg" style="display: block;" viewBox="0 0 1024 1024" width="256" height="256" preserveAspectRatio="none">
<path transform="translate(0,0)" fill="rgb(0,0,0)" d="M 568.314 79.3028 C 573.307 81.1676 584.28 86.2666 588.603 86.5591 L 589.516 85.8041 C 589.043 82.4241 587.648 75.9848 589.112 73.3716 C 594.482 74.5515 599.327 92.822 603.908 96.7374 C 621.239 111.549 642.498 117.956 656.971 136.827 C 662.178 143.616 666.321 152.504 672.686 157.382 C 676.761 159.17 690.979 155.582 695.435 156.559 C 717.104 161.309 751.693 166.208 771.225 174.442 L 771.084 175.607 C 759.997 180.786 744.289 187.636 733.988 193.472 C 756.044 204.699 762.651 225.169 769.839 246.984 C 774.397 260.818 783.901 282.819 784.134 297.137 C 784.555 322.929 787.607 316.777 799.959 337.4 C 808.079 350.957 814.378 369.969 822.719 384.284 C 811.612 377.197 793.128 370.932 780.144 368.637 C 782.481 373.944 784.55 386.684 786.367 389.246 C 799.935 408.375 814.826 424.923 827.164 445.143 C 812.524 439.74 806.538 438.929 791.094 436.633 C 794.876 457.696 797.167 455.026 804.404 471.265 L 792.171 474.985 C 785.535 482.484 782.18 485.759 773.283 490.38 C 772.204 504.961 773.071 520.705 771.867 534.404 C 766.771 528.857 762.266 518.761 757 518.234 C 749.114 520.605 744.078 544.816 738.687 552.75 C 725.793 571.728 701.203 589.115 689.122 607.374 C 688.959 619.431 688.505 631.482 687.759 643.517 C 681.628 636.322 676.823 630.407 668.895 625.084 C 669.556 634.171 666.935 679.813 662.876 684.657 C 655.902 683.369 658.355 669.124 652.855 664.23 L 650.743 664.284 C 648.202 669.125 644.523 684.898 642.375 691.496 C 647.737 705.399 642.817 750.297 644.773 768.936 C 665.512 788.231 688.898 805.925 710.63 824.056 C 750.33 857.177 792.231 891.205 839.566 912.894 C 865.08 924.585 868.6 917.962 891.6 940.943 C 909.732 959.059 921.3 969.478 929.6 995.747 C 931.918 1001.99 936.033 1008.72 936.517 1015.78 C 934.747 1018.44 932.473 1018.51 929.285 1018.56 C 908.382 1018.86 887.358 1018.59 866.455 1018.55 L 709.822 1018.59 L 93.0566 1018.11 C 97.7781 1005.42 101.947 989.934 109.491 978.661 C 117.189 967.157 177.563 911.264 190.544 905.378 C 198.595 901.728 207.508 899.485 215.938 896.819 C 225.972 893.646 235.815 889.913 245.838 886.716 C 254.41 883.982 263.32 881.797 271.715 878.568 C 312.023 863.063 350.301 839.601 386.143 815.802 C 391.996 811.915 405.145 804.916 407.699 798.52 C 410.474 791.569 409.325 770.06 406.115 763.468 C 401.582 754.159 387.511 749.345 380.568 741.237 C 360.697 718.034 319.887 668.132 306.442 642.21 C 296.122 622.314 286.839 592.557 280.732 570.563 C 274.339 574.269 272.405 575.121 265.392 577.389 C 263.959 581.541 260.167 594.337 257.835 596.843 C 250.68 590.428 256.212 557.379 251.726 551.489 C 243.939 552.847 243.511 566.103 238.408 572.336 L 236.915 572.542 C 232.053 564.93 240.929 475.639 243.372 460.241 C 243.695 458.207 243.761 455.555 241.905 454.736 C 234.687 461.516 228.342 475.167 222.444 479.625 L 221.338 479.588 C 221.316 476.974 221.321 477.206 222.037 475.648 C 225.704 467.671 224.452 406.136 222.456 401.039 C 210.815 397.687 197.01 413.681 189.14 420.822 L 189.328 420.236 C 194.154 405.545 204.186 391.629 210.988 378.03 C 213.869 372.271 236.169 342.58 236.64 339.684 C 231.707 337.389 208.913 354.644 204.218 358.258 C 210.421 332.173 206.606 321.646 230.087 301.812 C 239.721 293.674 256.023 267.496 262.4 255.794 C 253.056 261.782 239.055 265.306 228.332 270.189 C 216.958 275.368 213.385 281.266 205 286.934 C 212.471 269.749 241.872 240.234 252.546 222.546 C 255.996 216.83 276.412 215.753 279.406 211.363 C 274.885 205.516 252.24 202.636 249.576 199.197 C 253.193 195.233 296.381 185.235 304.032 178.602 C 325.025 160.402 339.067 136.916 362.532 120.973 C 371.515 114.869 389.746 116.732 392.599 111.668 C 390.009 107.335 388.246 107.269 383.22 105.641 C 381.971 98.0889 373.932 97.8681 368.127 94.3572 C 370.939 91.7324 375.832 94.0933 383.786 88.5426 L 384.487 88.0487 C 406.996 84.6591 430.03 79.7734 452.126 87.2373 C 459.515 89.7333 477.016 96.2951 483.78 95.8189 C 512.181 93.8196 530.994 87.2466 560.236 92.6827 C 562.496 87.426 561.528 85.7918 559.527 80.6057 L 560.534 79.2817 C 563.127 79.2457 565.721 79.2527 568.314 79.3028 z M 323.82 353.301 C 326.28 351.203 329.044 349.495 329.685 346.559 L 328.018 345.531 C 325.613 347.686 322.912 349.471 322.246 352.418 L 323.82 353.301 z"/>
<path transform="translate(0,0)" fill="rgb(254,254,254)" d="M 548.907 370.48 C 548.915 374.799 545.622 398.065 545.83 398.699 L 547.757 398.983 C 568.331 387.746 578.412 361.871 592.65 344.177 C 593.751 353.432 596.654 362.509 598.218 371.755 C 601.856 393.276 601.611 416.18 597.755 437.656 C 596.53 444.477 591.079 455.474 593.54 461.629 C 597.039 459.039 608.22 444.264 612.878 439.648 C 610.607 463.734 599.429 490.428 591.831 513.474 C 590.107 518.704 578.227 530.007 579.764 535.079 C 589.079 532.724 585.373 537.47 589.667 540.709 C 593.578 538.701 610.239 515.95 614.637 510.701 C 610.726 537.133 614.103 539.409 602.448 565.164 C 609.549 559.166 612.229 556.292 618.114 550.178 C 624.163 543.894 638.477 520.387 642.431 518.594 L 643.799 520.004 C 645.053 531.067 638.292 540.583 637.702 551.088 C 639.685 551.614 644.249 548.555 648.158 547.449 L 649.398 548.407 C 649.598 559.471 633.866 561.347 636.284 569.953 C 638.635 570.897 642.175 569.585 643.653 567.933 C 651.8 558.831 664.827 560.263 672.757 556.512 C 686.945 549.8 702.332 527.445 704.045 511.904 C 704.665 506.276 701.842 495.541 703.886 490.423 L 705.658 490.366 C 710.341 495.254 711.743 503.711 716.503 509.567 L 717.959 509.483 C 719.781 505.573 719.345 502.114 719.927 498.676 C 723.007 480.478 706.994 467.987 704.675 457.838 L 705.642 456.733 C 711.339 457.992 718.507 464.217 720.959 468.766 C 736.767 500.028 723.694 518.703 702.538 541.502 C 685.746 559.599 680.274 569.39 658.588 583.093 C 649.37 583.046 641.442 582.997 632.203 583.727 C 617.639 606.24 614.464 639.827 593.404 659.567 C 588.188 664.457 583.165 669.425 577.272 673.589 C 542.731 697.997 504.709 720 467.027 739.181 C 452.861 746.391 422.166 749.257 407.23 742.643 C 394.4 736.961 380.622 706.255 370.942 695.321 C 348.159 664.687 319.434 637.62 307.792 600.364 C 301.288 580.304 298.992 555.885 294.535 535.703 C 287.992 506.081 281.193 483.354 292.223 453.89 C 293.158 451.392 293.815 451.198 295.985 450.437 C 299.812 455.051 292.775 483.351 296.723 491.038 C 298.863 495.205 301.259 503.099 307.064 503.005 C 310.266 498.15 306.51 488.858 304.99 483.525 C 308.649 478.334 313.227 472.709 317.183 467.636 C 316.218 474.123 315.163 483.289 316.848 489.614 C 318.811 496.976 321.836 495.714 326.885 498.64 C 327.239 501.885 323.864 507.319 322.218 510.564 C 333.912 516.662 352.949 522.848 359.03 505.736 L 359.318 504.899 C 363.295 501.874 370.174 508.804 373.573 500.132 C 372.738 494.751 368.464 487.498 366.067 482.09 L 366.866 480.576 L 369.334 480.525 C 377.09 485.344 390.173 528.786 393.216 539.845 C 393.538 515.321 385.19 484.223 375.108 461.647 C 370.902 452.229 365.931 449.703 361.134 436.293 C 364.495 431.645 382.841 407.366 386.778 404.297 L 388.423 405.033 C 389.731 408.599 388.175 415.376 387.972 420.118 L 389.108 420.67 C 403.158 410.703 413.86 390.104 430.204 379.525 C 427.812 386.871 424.333 413.207 424.181 420.998 L 425.064 421.386 C 429.051 416.51 431.136 413.288 434.484 408.006 C 435.429 409.297 437.337 411.738 438.078 413.002 C 437.091 418.391 430.007 428.013 426.702 434.267 C 434.088 430.504 440.791 425.193 447.941 420.948 C 476.824 403.801 545.47 412.895 577.378 421.036 C 563.417 409.147 549.11 405.398 531.458 401.039 C 537.199 387.367 540.187 382.626 548.907 370.48 z"/>
<path transform="translate(0,0)" fill="rgb(0,0,0)" d="M 506.477 434.442 L 510.044 433.943 C 521.588 439.16 540.798 433.212 553.653 437.025 C 558.627 438.501 571.092 443.143 573.659 447.422 L 572.652 448.84 C 566.84 450.236 561.352 448.89 555.341 448.052 C 565.602 451.808 578.469 458.985 587.606 465.149 C 589.086 475.34 592.301 482.554 593.024 494.507 C 594.09 512.125 567.112 526.606 561.266 519.422 C 563.341 515.954 567.886 516.102 571.591 512.265 C 575.695 508.017 578.042 504.038 581.183 499.127 C 581.358 494.073 580.809 487.083 580.557 481.897 C 571.149 498.755 571.808 507.543 552.729 515.55 C 538.551 518.578 534.777 511.905 524.241 503.586 C 529.455 500.578 533.66 496.181 538.044 492.027 C 533.214 492.294 528.074 492.848 523.375 491.869 C 518.382 487.635 523.248 479.533 520.793 472.757 L 518.968 472.829 C 512.566 478.349 512.451 480.193 507.272 486.583 C 506.822 492.482 507.144 502.455 500.751 505.043 L 498.686 504.129 C 496.876 501.846 495.648 498.96 495.169 496.172 C 490.608 469.61 490.487 475.753 503.556 455.479 L 501.56 454.998 C 497.89 456.354 497.722 457.705 494.821 461.176 C 491.031 461.349 494.719 460.125 489.592 456.229 C 481.773 455.555 470.954 464.142 464.508 468.691 C 477.498 439.287 469.703 437.859 506.477 434.442 z"/>
<path transform="translate(0,0)" fill="rgb(0,0,0)" d="M 428.998 654.323 C 433.587 656.2 475.63 661.312 483.774 662.561 C 482.11 665.579 481.785 666.345 479.241 668.75 C 472.403 671.471 456.174 666.852 445.796 666.439 C 436.289 666.958 391.437 677.392 395.519 657.452 C 400.797 655.067 412.863 661.2 428.998 654.323 z"/>
<path transform="translate(0,0)" fill="rgb(0,0,0)" d="M 386.29 573.712 L 387.357 575.452 C 387.636 585.254 386.558 588.749 383.793 597.848 C 391.175 601.166 416.574 616.226 420.74 621.924 C 418.502 624.439 416.175 624.587 412.588 625.818 C 401.885 626.203 400.456 625.753 391.122 619.151 C 385.237 614.988 377.202 608.433 376.007 601.078 C 377.936 595.181 383.051 577.305 386.29 573.712 z"/>
<path transform="translate(0,0)" fill="rgb(0,0,0)" d="M 401.126 684.999 C 412.016 684.021 419.516 687.251 428.845 691.94 C 434.672 691.424 453.661 687.04 457.579 691.151 C 456.274 694.579 456.306 693.77 452.949 696.334 C 444.387 701.821 434.046 704.026 424.08 704.934 C 416.147 700.96 404.899 693.197 401.126 684.999 z"/>
<path transform="translate(0,0)" fill="rgb(254,254,254)" d="M 307.462 206.766 C 333.483 180.364 379.01 167.806 412.97 154.287 C 424.305 149.774 433.853 141.914 445.06 137.881 C 448.966 136.476 458.778 134.847 463.49 133.937 C 454.943 142.638 445.086 154.133 436.518 163.334 C 445.538 162.039 450.441 160.353 458.53 156.635 C 450.187 171.754 442.35 174.323 432.891 194.066 C 453.683 185.622 497.669 180.966 521.662 172.702 C 515.11 187.256 508.442 195.827 499.615 209.053 C 495.941 214.557 493.156 221.128 489.075 226.471 C 487.106 229.05 485.664 229.464 483.483 231.967 L 483.929 233.545 C 490.233 235.045 495.847 227.413 500.75 224.709 C 508.841 220.247 552.068 188.024 556.988 187.282 L 557.54 188.595 C 555.419 197.299 548.171 209.498 544.139 217.603 C 542.776 220.343 543.401 221.476 541.523 224.53 C 537.376 218.031 533.544 214.913 525.086 217.18 L 524.265 218.864 C 525.883 223.181 531.559 224.192 534.943 229.055 C 533.924 231.917 522.377 242.851 519.123 246.297 C 514.114 241.152 509.03 236.08 503.873 231.084 C 496.286 240.541 492.467 239.776 484.36 246.89 C 486.229 260.359 485.497 260.364 476.136 270.087 C 458.558 262.408 459.495 257.144 468.36 242.032 C 460.708 242.237 450.093 240.916 442.243 240.162 C 458.004 252.796 463.371 259.583 441.414 270.023 C 433.068 262.418 432.342 261.352 429.652 250.506 C 415.717 275.938 413.152 262.906 406.216 269.761 C 405.717 274.065 409.512 276.611 409.77 279.881 C 410.292 286.522 407.087 292.125 400.143 292.644 C 392.135 293.243 389.828 289.961 384.562 285.331 C 385.564 281.335 389.834 270.574 387.758 267.605 C 385.162 267.712 381.959 268.384 379.815 267.166 C 375.402 264.658 372.224 261.559 366.971 261.943 C 364.007 263.352 362.346 267.58 360.7 270.686 L 358.741 271.359 C 349.113 272.68 349.302 278.26 347.609 286.332 C 344.639 289.366 341.406 292.391 338.339 295.348 C 334.262 292.532 323.921 285.058 319.307 287.427 C 319.844 295.015 333.243 298.752 335.239 306.394 C 334.044 312.03 328.023 316.49 323.66 320.003 C 318.563 316.696 311.306 314.539 308.944 309.03 C 316.655 293.358 306.256 294.153 304.24 289.781 C 304.614 285.804 307.961 281.344 310.176 277.819 C 295.166 280.427 281.754 285.903 266.291 289.049 C 273.596 281.756 282.962 274.291 291.311 268.167 C 298.442 262.373 315.343 255.055 320.265 247.54 C 327.296 236.808 339.166 213.033 342.454 201.059 C 327.514 200.491 321.821 202.238 307.462 206.766 z"/>
<path transform="translate(0,0)" fill="rgb(254,254,254)" d="M 525.472 374.708 L 526.323 375.443 C 527.114 377.497 524.271 396.277 523.866 400.871 C 508.636 399.176 493.237 399.797 478.192 402.711 L 486.938 396.215 C 491.262 392.491 497.658 386.306 502.63 384.431 L 504.095 385.47 C 504.593 390.52 501.942 395.673 500.114 400.775 C 508.346 392.834 516.995 383.14 525.472 374.708 z"/>
<path transform="translate(0,0)" fill="rgb(254,254,254)" d="M 441.161 292.803 C 448.455 293.164 454.691 301.337 459.459 306.692 C 458.885 310.007 450.251 316.388 447.471 318.233 C 439.725 322.052 418.398 310.417 441.161 292.803 z"/>
<path transform="translate(0,0)" fill="rgb(254,254,254)" d="M 350.887 292.034 C 359.972 294.274 361.112 297.629 364.904 305.397 C 362.301 314.424 363.216 315.862 354.032 319.511 C 348.318 317.869 345.4 315.895 340.366 312.918 C 340.847 309.09 341.009 304.373 341.249 300.457 C 344.396 297.221 347.41 294.851 350.887 292.034 z"/>
<path transform="translate(0,0)" fill="rgb(254,254,254)" d="M 358.741 271.359 L 360.7 270.686 L 361.377 270.709 C 371.544 270.998 369.174 268.268 380.24 274.155 C 379.718 278.578 379.247 282.774 378.446 287.167 C 361.951 303.723 355.25 288.248 358.741 271.359 z"/>
<path transform="translate(0,0)" fill="rgb(254,254,254)" d="M 563.82 242.696 C 574.768 243.536 584.138 261.856 566.149 268.952 C 561.5 268.075 556.622 265.98 554.601 261.601 C 550.012 251.656 557.133 246.729 563.82 242.696 z"/>
<path transform="translate(0,0)" fill="rgb(254,254,254)" d="M 499.652 243.949 C 511.017 243.911 511.432 246.412 517.303 255.099 C 515.119 259.328 512.595 265.371 508.103 267.026 C 504.764 268.243 503.53 268.955 500.011 268.414 C 495.861 266.339 493.287 260.516 490.553 256.157 C 493.287 251.656 495.553 247.27 499.652 243.949 z"/>
<path transform="translate(0,0)" fill="rgb(254,254,254)" d="M 529.9 244.926 C 549.528 245.528 551.815 263.821 536.535 268.511 C 525.719 270.485 514.787 256.012 529.9 244.926 z"/>
<path transform="translate(0,0)" fill="rgb(254,254,254)" d="M 428.452 267.982 L 429.765 267.69 C 442.657 271.759 442.149 288.144 429.064 294.775 C 424.432 289.307 414.787 287.211 415.409 278.834 C 417.854 272.948 423.045 270.752 428.452 267.982 z"/>
<path transform="translate(0,0)" fill="rgb(254,254,254)" d="M 454.288 270.08 C 470.266 268.529 476.188 282.175 462.166 293.291 C 460.55 293.672 458.197 293.774 456.491 293.909 C 445.966 289.506 441.595 275.784 454.288 270.08 z"/>
<path transform="translate(0,0)" fill="rgb(254,254,254)" d="M 575.147 217.531 C 581.505 218.22 593.593 228.535 591.907 235.985 C 590.179 238.659 584.513 241.271 581.478 242.933 C 580.795 244.481 581.331 243.826 579.547 244.683 C 564.061 235.582 565.49 231.002 575.147 217.531 z"/>
<path transform="translate(0,0)" fill="rgb(254,254,254)" d="M 488.293 267.875 C 492.068 267.531 499.671 273.646 499.927 278.322 C 500.343 285.918 497.155 289.295 492.693 294.842 C 488.756 294.275 487.722 293.195 484.641 290.927 C 472.898 282.284 478.799 274.075 488.293 267.875 z"/>
<path transform="translate(0,0)" fill="rgb(254,254,254)" d="M 592.89 243.812 C 602.155 243.945 608.234 250.797 607.599 259.662 C 607.433 261.972 603.248 265.316 601.585 266.787 C 596.935 267.561 585.829 254.348 586.49 247.761 C 588.848 244.444 588.354 245.389 592.89 243.812 z"/>
<path transform="translate(0,0)" fill="rgb(254,254,254)" d="M 380.451 292.36 C 391.319 295.924 403.903 306.181 390.419 315.795 C 386.98 318.255 385.066 319.604 380.825 318.383 C 377.403 314.292 380.027 298.883 380.451 292.36 z"/>
<path transform="translate(0,0)" fill="rgb(254,254,254)" d="M 423.384 318.764 C 432.915 320.217 433.718 320.837 441.087 326.688 C 437.29 329.978 433.109 334.003 429.367 337.446 C 426.121 340.597 424.105 343.732 419.506 342.546 C 416.244 337.433 420.931 323.977 423.384 318.764 z"/>
<path transform="translate(0,0)" fill="rgb(254,254,254)" d="M 606.438 217.426 C 614.738 218.519 618.55 229.341 617.976 236.752 C 617.742 239.761 613.961 241.519 611.686 243.11 L 610.692 244.362 C 607.792 244.289 605.771 242.39 602.936 240.668 C 602.565 232.882 600.384 222.577 606.438 217.426 z"/>
<path transform="translate(0,0)" fill="rgb(254,254,254)" d="M 359.71 404.644 L 360.82 405.039 C 363.367 408.123 364.402 426.807 359.79 431.587 C 355.861 431.816 356.224 430.999 352.171 428.085 C 349.362 426.28 344.947 424.092 341.885 422.462 C 347.786 416.886 353.941 410.443 359.71 404.644 z"/>
<path transform="translate(0,0)" fill="rgb(254,254,254)" d="M 307.15 319.153 C 308.214 319.274 309.275 319.422 310.332 319.596 C 313.499 320.129 315.282 320.514 317.171 323.153 C 316.793 328.601 308.067 333.536 302.668 338.458 L 300.871 340.846 L 299.138 340.834 C 296.696 338.56 294.868 333.445 293.434 330.181 C 298.297 323.514 299.192 321.563 307.15 319.153 z"/>
<path transform="translate(0,0)" fill="rgb(254,254,254)" d="M 336.114 318.465 C 341.748 319.832 345.492 323.027 349.876 326.538 C 345.926 329.994 341.229 336.096 337.776 340.285 C 335.557 342.129 334.176 343.729 331.275 343.682 L 329.813 342.035 C 328.894 335.24 333.564 324.855 336.114 318.465 z"/>
<path transform="translate(0,0)" fill="rgb(254,254,254)" d="M 338.134 430.144 C 343.253 432.299 348.929 435.427 353.919 438.014 C 338.345 436.839 329.857 437.954 314.367 439.536 C 311.592 439.986 308.81 440.397 306.023 440.769 L 304.84 439.422 C 305.233 425.858 322.64 434.635 330.458 433.641 C 332.03 433.441 336.57 430.981 338.134 430.144 z"/>
<path transform="translate(0,0)" fill="rgb(254,254,254)" d="M 621.235 242.664 C 629.836 246.118 628.267 265.228 621.698 269.48 C 610.171 256.454 608.572 256.776 621.235 242.664 z"/>
<path transform="translate(0,0)" fill="rgb(228,228,229)" d="M 607.476 267.433 C 614.775 267.733 622.356 276.23 622.707 283.897 C 621.145 287.725 621.359 286.725 617.51 289.484 L 616.611 290.314 L 615.044 289.43 C 612.562 282.403 608.005 278.59 605.199 272.056 C 604.686 270.862 606.473 268.931 607.476 267.433 z"/>
<path transform="translate(0,0)" fill="rgb(254,254,254)" d="M 514.073 269.94 C 518.063 269.834 523.839 269.466 527.009 271.696 L 527.242 273.398 C 525.132 276.879 519.373 279.77 515.689 282.004 C 511.948 284.55 511.51 285.816 507.78 285.799 L 506.792 283.94 C 507.458 277.503 509.771 274.549 514.073 269.94 z"/>
<path transform="translate(0,0)" fill="rgb(228,228,229)" d="M 558.508 223.74 C 560.721 225.847 559.977 233.303 559.903 236.422 C 554.639 241.919 553.183 243.615 545.914 245.693 L 544.248 242.434 C 543.888 237.748 554.239 228.79 558.508 223.74 z"/>
<path transform="translate(0,0)" fill="rgb(228,228,229)" d="M 545.351 268.873 C 557.105 271.496 564.086 275.108 561.301 288.495 C 556.28 286.627 546.076 274.088 545.351 268.873 z"/>
<path transform="translate(0,0)" fill="rgb(228,228,229)" d="M 598.851 191.657 C 602.383 194.247 609.308 207.019 607.573 212.359 C 606.242 212.691 602.498 213.677 601.405 213.437 C 594.728 211.973 598.209 196.025 598.851 191.657 z"/>
<path transform="translate(0,0)" fill="rgb(254,254,254)" d="M 301.535 297.618 L 303.119 299.022 C 304.508 302.788 303.993 309.464 303.923 313.71 L 293.118 319.077 L 291.601 318.695 C 291.333 315.705 299.679 301.095 301.535 297.618 z"/>
<path transform="translate(0,0)" fill="rgb(254,254,254)" d="M 287.134 344.683 L 291.581 345.081 C 295.839 349.078 286.588 356.816 283.316 360.442 L 280.359 361.703 L 279.031 360.994 C 277.892 355.588 283.306 348.144 287.134 344.683 z"/>
<path transform="translate(0,0)" fill="rgb(228,228,229)" d="M 286.246 326.752 C 291.645 335.064 288.48 339.485 281.078 344.195 L 279.655 342.849 C 278.783 339.183 284.203 330.527 286.246 326.752 z"/>
<path transform="translate(0,0)" fill="rgb(254,254,254)" d="M 469.166 292.453 L 473.008 293.437 L 473.547 294.904 C 472.29 298.762 467.789 302.584 464.785 305.59 L 462.422 305.822 L 461.386 304.957 C 461.154 300.317 466.065 295.452 469.166 292.453 z"/>
<path transform="translate(0,0)" fill="rgb(228,228,229)" d="M 410.63 292.525 L 412.449 293.914 L 412.584 295.881 C 410.388 300.217 405.5 304.391 401.904 307.871 C 400.307 307.08 401.041 307.658 400.107 305.578 C 400.709 300.1 406.493 295.998 410.63 292.525 z"/>
<path transform="translate(0,0)" fill="rgb(228,228,229)" d="M 434.484 408.006 C 437.718 402.452 443.215 392.322 447.187 387.836 C 444.988 393.881 439.577 407.425 438.078 413.002 C 437.337 411.738 435.429 409.297 434.484 408.006 z"/>
<path transform="translate(0,0)" fill="rgb(228,228,229)" d="M 272.062 368.534 C 273.731 368.77 273.927 369.093 275.297 370.059 C 274.548 373.597 271.978 375.505 269.316 378.513 C 267.187 378.042 267.277 378.121 265.772 376.565 C 266.752 372.974 269.183 371.455 272.062 368.534 z"/>
<path transform="translate(0,0)" fill="rgb(176,175,168)" fill-opacity="0.988235" d="M 328.018 345.531 L 329.685 346.559 C 329.044 349.495 326.28 351.203 323.82 353.301 L 322.246 352.418 C 322.912 349.471 325.613 347.686 328.018 345.531 z"/>
<path transform="translate(0,0)" fill="rgb(0,0,0)" fill-opacity="0.878431" d="M 560.236 92.6827 C 559.384 84.3341 545.013 76.1022 541.691 63.6696 L 542.829 63.164 L 541.954 63.0729 L 542.001 64.3855 C 546.036 63.5977 551.296 70.1502 555.69 72.5179 C 559.981 74.8302 563.887 77.1241 568.314 79.3028 C 565.721 79.2527 563.127 79.2457 560.534 79.2817 L 559.527 80.6057 C 561.528 85.7918 562.496 87.426 560.236 92.6827 z"/>
<path transform="translate(0,0)" fill="rgb(0,0,0)" fill-opacity="0.913725" d="M 350.031 92.7454 C 360.671 90.6168 373.659 89.2418 384.487 88.0487 L 383.786 88.5426 C 375.832 94.0933 370.939 91.7324 368.127 94.3572 C 373.932 97.8681 381.971 98.0889 383.22 105.641 C 370.937 100.204 362.809 97.0647 350.031 92.7454 z"/>
</svg>