<svg xmlns="http://www.w3.org/2000/svg" version="1.1" style="display: block;" viewBox="0 0 1024 1024" width="256" height="256" preserveAspectRatio="none">
<path transform="translate(0,0)" fill="rgb(0,0,0)" d="M 496.107 15.5268 C 508.2 15.6256 539.133 40.6201 553.419 44.2329 C 570.151 48.4644 586.692 42.4806 602.983 45.2042 C 614.88 47.1932 629.465 58.978 641.421 62.6976 C 651.023 65.6847 661.485 67.2051 671.35 69.1964 C 681.696 71.3704 691.828 74.4601 701.626 78.4291 C 734.812 91.8299 755.885 110.801 775.593 139.528 C 785.086 152.97 800.088 166.402 808.759 180.057 C 834.088 219.945 855.946 266.546 867.492 312.307 C 871.5 328.192 870.594 351.764 870.853 367.897 C 871.53 409.954 862.179 443.784 846.411 482.225 C 843.49 484.138 845.275 479.552 840.015 478.668 C 834.155 485.45 808.112 536.564 803.602 546.889 C 801.027 552.784 796.862 568.196 794.621 575.077 C 793.319 579.074 791.076 587.339 787.378 589.231 L 785.551 588.361 C 783.181 584.197 783.126 578.255 782.681 573.35 C 778.459 585.439 765.824 622.75 753.962 627.959 L 751.741 626.541 C 747.807 626.306 742.541 633.47 738.854 635.591 C 735.108 637.746 729.884 639.697 725.838 641.292 C 725.483 638.266 725.264 631.756 722.67 630.256 C 718.791 633.578 703.118 669.164 697.399 676.636 C 696.105 678.327 697.609 681.44 698.576 683.156 C 705.224 688.185 721.445 688.948 730.327 690.117 C 744.908 715.63 759.564 746.843 763.912 775.979 C 777.332 790.071 791.273 804.259 806.105 816.855 C 818.459 827.346 831.983 836.542 845.152 845.973 C 878.884 870.13 913.961 893.356 950.383 913.319 C 964.844 921.244 992.902 926.908 1003.51 936.455 C 1008.71 941.138 1008.42 953.029 1008.82 959.614 C 1009.28 967.304 1010.83 999.317 1005.58 1004.83 C 1001.63 1008.99 654.041 1007.54 615.8 1007.64 L 233.374 1008.13 C 236.382 1000.21 239.729 990.545 243.84 983.632 C 265.494 947.222 310.776 939.166 343.35 916.329 C 346.82 913.896 358.576 895.923 362.397 890.995 C 383.06 864.337 411.175 846.01 437.195 825.099 C 448.853 815.767 459.174 809.891 468.976 798.17 C 465.362 789.281 463.971 774.466 460.35 768.245 C 445.032 741.927 412.824 725.517 391.669 704.853 C 384.553 697.903 379.539 679.565 371.279 673.236 C 365.809 673.674 367.136 676.594 360.672 678.373 C 353.704 677.964 338.694 656.808 330.22 649.362 C 334.293 662.143 337.254 673.442 344.318 685.048 C 346.351 688.389 348.59 694.568 350.125 698.361 C 340.722 692.088 325.984 682.662 318.044 674.437 C 293.489 648.998 276.021 608.744 262.61 576.249 C 258.752 566.903 254.666 546.541 250.917 538.83 C 247.916 532.658 238.876 519.469 234.578 511.361 C 211.896 468.575 202.378 434.185 201.978 385.996 C 199.889 345.079 210.516 311.762 223.733 274.193 C 237.312 235.594 251.641 209.794 277.271 177.739 C 289.671 162.231 311.091 146.8 321.361 132.256 C 335.162 112.713 337.729 80.1073 358.8 62.8402 C 383.356 38.3028 405.134 36.2665 437.439 46.3833 C 443.504 48.2827 453.042 51.8797 459.693 51.8732 C 468.595 50.3639 489.516 23.0773 496.107 15.5268 z M 376.704 87.8848 C 379.749 85.225 394.173 72.362 397.192 71.1372 C 410.039 65.9242 427.513 63.7908 439.771 57.0309 C 441.407 56.1286 441.088 55.9829 441.357 54.4333 C 435.342 50.7943 423.567 51.8932 416.541 52.2716 C 390.783 58.0307 380.356 68.1751 364.045 89.6134 C 362.94 91.0667 359.616 97.3665 359.598 98.9397 C 364.344 98.9342 372.794 91.0986 376.704 87.8848 z M 692.583 274.469 C 692.447 269.311 689.751 263.707 684.787 261.651 C 685.985 264.464 689.253 273.338 691.253 274.654 L 692.583 274.469 z"/>
<path transform="translate(0,0)" fill="#ffffff" d="M 550.339 410.979 C 557.537 427.049 565.153 442.672 573.188 458.34 C 579.007 469.688 583.969 474.959 594.279 482.293 C 592.557 502.138 592.294 522.009 591.361 541.945 C 590.737 555.282 588.122 569.442 587.488 582.166 C 590.392 577.179 592.316 573.269 596.566 569.309 L 598.116 569.192 C 600.164 576.837 597.267 581.021 602.964 585.837 L 605.375 585.699 C 609.239 580.747 613.227 573.122 616.394 567.469 C 618.058 570.245 618.007 579.092 618.765 583.471 C 621.646 584.078 628.761 580.379 632.189 578.958 C 641.804 594.646 637.659 611.053 635.225 628.509 C 634.103 636.558 626.971 646.467 621.788 652.555 C 597.373 681.232 570.886 704.633 539.516 725.552 C 522.156 737.128 498.114 761.052 475.047 748.101 C 464.032 741.912 456.442 731.902 447.07 723.962 C 427.732 707.578 408.749 692.037 391.698 673.137 C 385.308 666.093 379.75 658.336 375.134 650.021 C 359.725 622.569 348.618 593.458 338.623 563.735 C 334.251 550.735 330.415 550.151 334.094 535.667 C 334.087 535.694 329.718 526.955 328.946 525.399 C 330.686 521.88 335.936 522.637 339.626 522.536 C 348.687 542.726 351.024 545.87 368.085 559.437 C 371.867 556.22 380.082 549.968 381.538 545.549 C 380.284 540.685 377.421 540.936 376.418 535.419 C 378.146 533.723 378.535 533.503 380.616 532.226 L 380.767 530.136 C 375.342 524.369 368.686 518.551 362.778 513.169 C 388.86 525.578 391.932 532.737 409.6 555.849 C 405.843 544.646 401.696 525.775 395.889 516.777 C 386.828 502.739 363.476 503.049 363.935 483.081 L 364.935 482.51 C 373.106 491.076 365.789 489.682 381.167 490.873 C 378.207 482.189 367.757 439.418 371.291 431.994 C 372.026 433.657 372.89 437.784 373.035 439.555 C 374.578 458.342 385.239 473.229 390.915 490 C 401.419 490.069 418.318 489.046 427.706 490.381 C 427.385 486.95 426.61 484.013 428.322 481.259 C 431.169 482.404 432.866 486.069 434.412 488.907 C 439.826 488.305 453.134 486.395 457.796 487.295 C 458.797 488.853 459.162 489.412 460.4 490.781 L 462.807 490.54 C 465.018 487.334 466.961 483.504 470.467 482.29 C 474.1 482.653 474.303 482.679 477.417 485.55 L 478.957 486.437 C 480.319 486.37 481.679 486.254 483.033 486.091 C 488.415 485.434 511.062 482.033 514.119 478.175 L 513.571 476.967 C 520.177 475.113 524.784 475.73 531.253 474.75 C 533.987 474.335 533.226 470.581 537.404 470.197 C 539.916 474.238 538.249 475.191 541.118 478.049 C 542.66 475.19 542.848 474.693 543.508 471.514 C 550.029 465.179 560.594 470.05 563.617 463.81 C 561.838 450.298 552.826 428.491 550.339 410.979 z"/>
<path transform="translate(0,0)" fill="rgb(0,0,0)" d="M 513.571 476.967 C 520.177 475.113 524.784 475.73 531.253 474.75 C 533.987 474.335 533.226 470.581 537.404 470.197 C 539.916 474.238 538.249 475.191 541.118 478.049 L 541.02 480.166 C 560.205 490.114 578.233 483.523 585.636 486.996 L 585.29 488.309 C 581.02 488.762 580.3 488.105 577.54 490.388 C 571.443 511.058 568.207 530.286 546.478 540.096 C 547.416 542.869 548.66 545.437 547.75 548.184 C 544.232 548.535 542.36 545.251 538.595 544.514 C 528.539 542.544 529.048 554.199 522.987 558.463 L 521.855 558.067 C 521.48 554.629 521.56 550.697 519.27 548.408 C 514.072 545.702 509.304 545.893 507.371 543.533 C 513.38 535.566 527.02 545.113 537.504 537.074 C 538.979 531.145 517.063 522.048 516.965 509.497 C 516.865 496.597 499.634 501.106 493.613 506.47 C 482.264 512.325 487.114 531.028 480.237 532.648 C 474.348 526.969 487.473 511.927 482.302 506.166 C 479.911 506.194 466.401 511.872 462.049 513.253 C 472.806 504.023 479.384 498.043 492.29 492.381 C 490.759 490.799 484.039 489.887 478.957 486.437 C 480.319 486.37 481.679 486.254 483.033 486.091 C 488.415 485.434 511.062 482.033 514.119 478.175 L 513.571 476.967 z"/>
<path transform="translate(0,0)" fill="#000000" d="M 513.571 476.967 C 520.177 475.113 524.784 475.73 531.253 474.75 C 533.987 474.335 533.226 470.581 537.404 470.197 C 539.916 474.238 538.249 475.191 541.118 478.049 L 541.02 480.166 C 534.06 477.669 522.915 480.085 514.119 478.175 L 513.571 476.967 z"/>
<path transform="translate(0,0)" fill="rgb(0,0,0)" d="M 432.662 670.203 C 449.986 669.377 463.975 674.434 481.012 676.553 C 486.029 677.177 500.743 677.873 504.616 680.044 C 497.709 681.798 484.429 683.46 476.998 684.395 C 473.153 688.268 470.245 691.697 466.742 695.843 C 472.378 702.575 476.516 693.604 483.989 712.923 C 464.251 712.592 444.968 708.785 440.84 685.933 L 440.669 684.954 L 440.597 685.845 C 437.582 682.675 430.569 676.162 430.449 672.232 L 432.662 670.203 z"/>
<path transform="translate(0,0)" fill="rgb(0,0,0)" d="M 404.393 606.731 L 405.428 607.994 C 408.815 636.637 389.355 644.541 434.092 652.827 C 428.354 654.478 420.242 655.896 414.211 657.112 C 400.033 659.233 395.993 656.66 386.186 647.024 C 388.752 638.969 399.252 613.441 404.393 606.731 z"/>
<path transform="translate(0,0)" fill="rgb(0,0,0)" d="M 334.426 548.671 C 340.912 550.359 345.711 559.123 352.974 562.192 C 356.786 563.802 363.062 561.343 365.787 563.252 L 366.703 563.894 L 367.132 566.361 C 365.114 568.724 361.5 569.078 358.361 569.778 C 355.171 571.157 353.288 574.135 348.566 575.583 L 347.211 574.032 C 349.938 565.909 346.285 568.281 342.086 562.52 C 340.166 559.886 335.448 551.79 334.426 548.671 z"/>
<path transform="translate(0,0)" fill="#ffffff" d="M 381.984 232.888 C 393.008 227.485 404.561 219.948 413.451 211.448 C 410.646 225.924 410.303 237.206 409.697 251.757 C 409.569 254.818 406.212 255.335 406.656 259.495 C 416.139 261.357 426.406 262.94 423.109 275.785 C 420.354 286.523 411.719 280.159 406.796 285.873 C 405.703 287.143 408.306 293.893 409.041 296.011 C 407.254 301.569 405.309 308.425 402.747 313.57 C 407.528 310.97 411.816 308.54 417.321 310.08 C 423.122 314.125 421.64 323.909 421.59 330.461 C 416.146 331.456 408.106 333.714 403.49 330.953 C 401.8 328.304 399.601 323.978 396.978 322.82 C 393.111 327.083 397.272 328.714 392.59 331.705 L 387.661 331.726 C 384.174 327.469 380.217 310.648 379.16 304.933 C 368.12 300.544 368.495 300.645 356.543 298.455 C 354.233 291.007 364.264 280.813 371.475 284.763 C 372.447 285.295 373.554 286.097 374.474 286.731 L 375.689 286.417 C 375.45 281.849 372.566 280.086 371.925 276.233 C 371.155 271.607 372.756 263.434 370.883 259.284 C 364.476 257.429 354.357 255.093 348.595 259.049 C 337.894 263.291 336.531 271.436 329.751 279.986 C 326.744 283.778 323.574 286.562 320.555 290.089 C 320.2 294.177 319.867 298.267 319.556 302.359 C 315.743 305.239 310.877 308.706 307.346 311.78 C 302.966 307.405 299.762 303.955 294.635 300.408 C 303.726 317.616 311.776 323.089 291.819 334.952 C 290.376 342.422 290.129 351.116 284.112 355.635 C 276.615 356.132 274.488 345.676 272.292 339.721 C 274.983 327.435 275.505 313.996 277.194 301.506 C 280.322 278.388 287.691 248.358 300.21 228.403 C 308.908 232.767 335.398 244.628 344.703 247.563 C 358.532 242.279 362.971 235.889 371.394 232.611 L 372.504 233.212 L 372.948 235.31 C 377.201 236.341 377.682 235.321 381.984 232.888 z"/>
<path transform="translate(0,0)" fill="#ffffff" d="M 765.616 171.136 C 766.924 172.583 771.645 181.262 773.452 183.739 C 800.578 220.91 813.694 260.16 822.532 305.104 C 816.408 295.396 801.164 267.784 787.716 270.374 C 787.327 270.83 786.873 271.362 786.352 271.972 C 787.706 277.584 789.796 287.562 790.836 292.82 C 792.966 303.594 793.121 311.225 792.695 321.855 C 789.499 325.018 784.451 328.539 780.745 331.3 C 778.809 322.817 776.355 314.46 773.396 306.277 C 771.987 302.365 770.364 297.228 768.691 293.629 C 762.849 281.052 757.54 279.204 756.621 264.992 L 742.837 251.701 L 742.74 251.249 C 737.627 228.43 728.575 236.785 721.941 214.02 C 721.687 216.467 721.371 218.908 720.996 221.339 C 719.579 230.014 716.253 237.002 705.658 234.57 C 701.182 233.543 695.232 222.098 697.316 218.007 C 700.728 211.309 711.459 213.82 717.38 211.027 L 717.171 210.42 C 715.62 205.772 712.477 195.268 716.445 191.586 C 719.794 193.532 724.205 204.645 726.023 208.8 C 733.347 208.55 741.92 209.509 746.973 204.583 C 749.722 199.032 744.859 186.857 742.901 180.329 C 749.717 177.638 759.789 175.1 765.616 171.136 z"/>
<path transform="translate(0,0)" fill="#ffffff" d="M 500.231 36.5874 C 501.041 36.7075 501.847 36.8502 502.649 37.0153 C 568.108 50.637 569.178 210.894 558.375 260.72 L 557.704 263.082 L 556.551 263.422 C 554.712 257.98 553.714 244.88 553.166 238.644 C 549.809 200.425 545.866 164.316 535.291 127.213 C 529.706 107.617 527.01 92.3401 513.226 75.8048 C 504.324 65.1258 502.264 49.8294 500.231 36.5874 z"/>
<path transform="translate(0,0)" fill="#ffffff" d="M 574.13 55.0535 C 619.653 54.3369 659.935 122.284 672.772 160.376 C 670.54 158.14 668.147 154.806 666.178 152.23 C 652.104 132.384 623.487 101.682 603.52 88.345 C 586.77 77.1564 575.602 85.3148 560.047 65.0259 C 565.507 59.8278 567.725 58.3967 574.13 55.0535 z"/>
<path transform="translate(0,0)" fill="#ffffff" d="M 261.694 339.023 C 259.301 328.774 256.916 318.293 258.669 307.718 C 264.764 270.957 268.076 234.479 293.07 205.361 C 293.285 232.968 279.863 258.254 274.27 285.483 C 270.87 302.032 268.501 318.815 265.872 335.489 L 261.694 339.023 z"/>
<path transform="translate(0,0)" fill="#ffffff" d="M 453.575 233.863 C 462.459 235.206 473.702 242.401 466.478 252.823 C 464.696 255.395 460.124 258.799 457.56 260.866 C 456.831 261.507 456.692 261.257 455.337 261.412 C 450.435 258.095 447.106 252.681 443.085 247.902 C 446.765 241.794 448.146 238.588 453.575 233.863 z"/>
<path transform="translate(0,0)" fill="#ffffff" d="M 348.595 259.049 C 366.947 262.417 371.087 273.783 355.202 284.94 C 348.009 284.435 340.462 279.927 341.412 272.062 C 342.186 265.652 345.043 263.925 348.595 259.049 z"/>
<path transform="translate(0,0)" fill="#ffffff" d="M 426.521 282.765 C 430.625 284.882 434.402 287.459 438.265 289.985 L 437.398 303.413 C 434.358 305.3 430.837 308.056 427.898 310.234 C 420.504 310.022 413.253 300.658 416.285 293.195 C 419.078 286.323 420.62 286.34 426.521 282.765 z"/>
<path transform="translate(0,0)" fill="#ffffff" d="M 337.048 282.65 C 355.434 291.937 351.182 298.837 339.156 310.522 C 334.299 309.81 325.707 303.844 326.231 298.15 C 326.943 290.422 331.807 287.319 337.048 282.65 z"/>
<path transform="translate(0,0)" fill="#ffffff" d="M 721.711 233.727 C 725.518 234.312 733.501 238.015 735.031 241.657 C 739.263 251.73 731.806 255.655 725.1 259.043 L 723.392 260.437 C 717.465 258.779 713.432 253.166 713.732 247.078 C 714.049 240.669 717.45 237.851 721.711 233.727 z"/>
<path transform="translate(0,0)" fill="#ffffff" d="M 501.547 474.717 C 493.765 456.648 491.192 445.75 491.463 425.773 C 495.534 440.274 500.278 458.955 507.444 472.405 C 508.132 473.697 512.061 475.921 513.571 476.967 L 514.119 478.175 C 511.062 482.033 488.415 485.434 483.033 486.091 C 481.679 486.254 480.319 486.37 478.957 486.437 L 477.417 485.55 C 481.983 480.73 494.43 477.812 501.547 474.717 z"/>
<path transform="translate(0,0)" fill="#ffffff" d="M 695.101 233.728 C 707.189 236.822 709.8 253.867 694.433 260.196 C 677.384 249.377 677.797 243.54 695.101 233.728 z"/>
<path transform="translate(0,0)" fill="#ffffff" d="M 442.287 258.912 C 452.2 259.177 460.246 274.456 444.633 283.786 C 432.685 285.022 429.05 275.833 432.963 266.312 C 435.041 261.254 437.536 260.745 442.287 258.912 z"/>
<path transform="translate(0,0)" fill="#ffffff" d="M 708.017 259.823 C 724.807 261.491 724.966 279.487 710.743 284.577 C 695.239 278.815 694.073 269.016 708.017 259.823 z"/>
<path transform="translate(0,0)" fill="#ffffff" d="M 454.15 283.711 C 456.884 283.262 462.292 285.875 464.137 287.867 C 471.108 295.387 464.408 304.265 460.152 309.216 C 443.913 304.313 438.494 295.205 454.15 283.711 z"/>
<path transform="translate(0,0)" fill="#ffffff" d="M 305.831 334.067 C 314.074 333.35 315.399 336.642 319.105 343.093 C 316.752 347.919 315.453 355.819 311.856 358.14 C 307.634 356.597 299.858 352.615 295.529 350.533 C 296.849 340.88 295.733 337.456 305.831 334.067 z"/>
<path transform="translate(0,0)" fill="#ffffff" d="M 318.979 308.588 C 326.527 308.613 330.811 313.238 336.65 317.879 L 325.063 328.663 C 322.578 332.43 323.543 332.256 320.019 333.463 C 315.129 331.99 312.795 326.083 310.248 321.482 C 313.357 315.796 314.29 313.284 318.979 308.588 z"/>
<path transform="translate(0,0)" fill="#ffffff" d="M 705.851 308.921 C 708.806 309.17 712.326 309.243 714.757 311.077 C 721.337 316.041 716.361 330.446 711.834 335.28 C 705.174 333.303 700.448 322.636 697.389 316.717 C 700.195 313.477 702.543 311.654 705.851 308.921 z"/>
<path transform="translate(0,0)" fill="#ffffff" d="M 736.625 260.011 C 744.789 260.123 753.622 265.47 751.881 274.623 C 747.878 279.611 743.483 277.467 738.422 275.15 L 738.012 274.851 C 734.676 275.444 737.411 277.992 734.073 282.466 C 726.529 279.174 728.65 269.523 730.777 263.281 C 731.627 260.787 734.349 260.639 736.625 260.011 z"/>
<path transform="translate(0,0)" fill="#ffffff" d="M 433.713 237.723 L 436.174 239.473 C 438.494 243.022 438.504 248.02 438.91 252.342 C 436.025 254.789 429.897 260.584 426.648 261.375 L 424.472 259.843 C 420.512 257.545 414.235 254.619 415.348 249.403 C 418.711 246.427 423.459 248.497 425.226 245.62 C 428.036 241.045 428.873 240.084 433.713 237.723 z"/>
<path transform="translate(0,0)" fill="#ffffff" d="M 722.964 283.939 C 729.342 283.63 740.281 298.124 730.96 304.361 C 726.018 304.507 724.264 301.609 721.965 297.872 L 719.493 300.358 C 719.195 303.349 719.257 305.034 717.573 307.594 L 716.444 306.802 C 715.279 302.516 713.321 296.677 713.585 292.407 C 714.977 288.621 719.423 286.413 722.964 283.939 z"/>
<path transform="translate(0,0)" fill="#ffffff" d="M 396.155 332.084 L 408.062 337.422 C 408.646 341.28 409.185 343.632 408.676 347.523 C 405.215 350.128 408.041 347.119 402.86 347.421 L 401.132 349.699 C 399.412 353.341 398.76 356.631 394.366 356.127 C 390.299 351.862 390.047 341.963 389.509 336.095 C 391.255 333.553 392.907 333.504 396.155 332.084 z"/>
<path transform="translate(0,0)" fill="#ffffff" d="M 681.527 227.348 C 679.554 222.685 676.696 216.66 678.248 211.609 C 682.289 208.393 685.314 211.744 689.344 214.299 C 694.733 225.107 693.546 226.672 684.095 233.96 C 681.128 234.69 679.419 235.352 676.391 234.653 C 673.681 232.082 674.528 233.355 673.329 229.621 C 674.203 226.605 673.533 227.158 675.6 225.88 C 677.866 226.86 679.061 227.201 681.527 227.348 z"/>
<path transform="translate(0,0)" fill="#000000" d="M 684.095 233.96 C 681.128 234.69 679.419 235.352 676.391 234.653 C 673.681 232.082 674.528 233.355 673.329 229.621 C 674.203 226.605 673.533 227.158 675.6 225.88 C 677.866 226.86 679.061 227.201 681.527 227.348 C 681.331 230.609 681.152 231.646 684.095 233.96 z"/>
<path transform="translate(0,0)" fill="#ffffff" d="M 694.224 282.707 C 700.718 287.227 711.68 295.806 703.53 303.914 C 700.683 305.632 696.933 308.768 694.211 310.92 C 693.898 300.866 693.709 292.823 694.224 282.707 z"/>
<path transform="translate(0,0)" fill="#ffffff" d="M 292.962 357.822 C 294.408 357.893 295.367 358.154 296.775 358.44 C 301.517 364.231 294.853 378.102 290.834 383.106 C 288.25 376.174 286.344 371.588 283.089 364.954 C 285.972 362.41 289.733 360.011 292.962 357.822 z"/>
<path transform="translate(0,0)" fill="#ffffff" d="M 471.342 257.798 L 472.303 258.026 C 473.706 261.273 469.99 281.899 467.038 283.676 L 465.13 282.46 C 463.034 279.019 460.532 275.34 458.32 271.927 C 462.766 265.002 464.525 262.423 471.342 257.798 z"/>
<path transform="translate(0,0)" fill="#000000" d="M 304.993 480.882 C 303.587 479.272 324.269 509.086 322.769 505.633 C 321.514 505.83 320.254 506.007 318.993 506.163 C 315.797 506.539 313.643 506.812 311.303 504.975 C 309.156 500.573 303.957 485.455 304.993 480.882 z"/>
<path transform="translate(0,0)" fill="#ffffff" d="M 537.132 439.565 C 541.007 441.857 547.824 459.267 550.328 464.583 C 546.471 464.947 545.915 465.016 542.32 463.539 C 537.423 459.369 538.646 447.88 537.132 439.565 z"/>
<path transform="translate(0,0)" fill="#000000" d="M 683.245 196.45 C 682.822 196.297 702.175 206.455 701.391 205.846 L 700.658 207.512 C 690.784 212.184 681.309 207.166 683.245 196.45 z"/>
<path transform="translate(0,0)" fill="#000000" d="M 477.124 225.352 L 478.545 225.348 L 479.801 226.94 C 478.179 235.843 473.259 234.581 465.6 234.331 C 461.25 222.603 469.5 229.959 477.124 225.352 z"/>
<path transform="translate(0,0)" fill="#000000" d="M 439.372 223.434 C 443.479 224.101 448.611 228.054 449.198 232.342 C 447.868 234.348 448.563 233.706 445.765 234.493 C 441.896 233.837 437.682 234.478 433.745 234.876 C 436.305 230.575 437.414 228.073 439.372 223.434 z"/>
<path transform="translate(0,0)" fill="#000000" d="M 460.184 461.622 C 464.975 464.463 468.355 474.83 469.202 480.159 C 459.306 480.787 460.138 468.198 460.184 461.622 z"/>
<path transform="translate(0,0)" fill="#ffffff" d="M 443.528 308.625 C 452.316 310.061 453.836 317.359 453.271 324.791 C 451.268 325.17 452.299 325.159 450.097 324.402 C 447.037 320.223 444.016 313.824 443.528 308.625 z"/>
<path transform="translate(0,0)" fill="#fcfbfd" d="M 716.733 336.504 L 718.453 338.085 C 718.625 342.596 719.089 349.032 718.499 353.348 L 716.987 354.413 C 715.104 351.11 712.537 347.34 710.45 344.092 C 712.703 341.77 714.721 339.057 716.733 336.504 z"/>
<path transform="translate(0,0)" fill="#000000" d="M 261.694 339.023 L 265.872 335.489 C 265.683 342.223 265.32 346.736 264.473 353.422 L 261.694 339.023 z"/>
<path transform="translate(0,0)" fill="#000000" fill-opacity="0.980392" d="M 684.787 261.651 C 689.751 263.707 692.447 269.311 692.583 274.469 L 691.253 274.654 C 689.253 273.338 685.985 264.464 684.787 261.651 z"/>
</svg>
