<svg xmlns="http://www.w3.org/2000/svg" version="1.1" style="display: block;" viewBox="0 0 1024 1024" width="256" height="256" preserveAspectRatio="none">
<path transform="translate(0,0)" fill="rgb(0,0,0)" d="M 496.229 42.429 C 525.44 41.1556 591.297 49.8872 621.614 57.5794 C 623.843 58.1452 664.057 82.0031 669.904 85.7274 C 682.313 93.6318 712.976 109.666 723.502 118.309 C 734.497 127.337 760.994 165.006 767.901 178.91 C 771.96 187.079 775.638 214.384 777.634 224.541 C 783.3 253.375 786.881 283.266 791.873 312.148 L 811.344 427.144 C 819.693 475.634 826.466 503.392 818.436 552.402 C 814.652 575.497 817.354 607.012 812.277 630.115 C 804.505 665.478 787.935 700.134 776.025 734.331 C 772.104 745.856 767.338 758.379 762.863 769.076 C 772.286 776.681 833.399 816.477 835.606 822.478 C 847.147 853.855 857.664 895.46 866.25 928.512 C 869.336 940.394 860.838 997.008 859.135 1012.06 C 728.654 1010.25 595.205 1011.67 464.5 1011.69 L 209.979 1011.7 L 132.536 1011.68 C 119.391 1011.65 101.054 1010.92 88.5005 1011.96 C 95.7209 988.268 97.0927 962.755 104.118 938.79 C 109.569 920.192 159.795 816.806 171.769 804.757 C 185.634 790.806 205.715 784.377 220.656 771.724 C 216.8 764.157 213.377 753.067 209.846 744.877 C 202.599 725.515 190.787 702.395 186.471 682.201 C 178.653 645.633 169.973 603.131 165.909 566.102 C 172.264 552.355 182.836 536.93 189.908 523.366 C 192.425 518.537 196.519 505.422 198.562 499.651 C 202.229 489.27 206.288 479.032 210.731 468.958 C 224.618 437.015 240.442 404.659 254.161 372.759 C 264.757 348.122 267.192 313.253 274.228 287.026 C 279.239 268.347 284.586 249.607 289.846 230.974 C 292.382 220.993 295.921 199.539 300.718 191.736 C 309.285 177.798 324.999 162.169 336.094 149.195 C 349.307 135.332 361.966 116.821 376.218 104.34 C 385.969 95.8019 407.582 86.4739 419.17 79.4698 C 440.047 66.8516 461.896 55.027 483.824 44.4531 C 486.712 43.0604 492.889 42.674 496.229 42.429 z M 306.306 687.644 C 305.711 682.521 301.889 670.705 297.639 667.694 C 297.367 675.735 299.438 683.114 306.306 687.644 z M 314.371 701.309 C 314.086 708.908 317.393 710.716 323.775 714.57 C 324.559 708.024 320.683 702.89 314.371 701.309 z M 649.071 89.94 C 652.341 92.1913 653.749 93.4173 657.638 94.2852 L 658.697 93.578 C 657.238 90.6852 653.913 89.2254 650.97 87.4831 L 649.071 89.94 z"/>
<path transform="translate(0,0)" fill="rgb(254,253,254)" d="M 504.401 299.411 C 521.909 297.017 598.743 303.989 615.975 308.66 C 618.214 315.84 620.479 328.917 622.072 336.536 C 625.038 350.646 628.483 364.651 632.4 378.528 C 641.605 410.297 658.364 427.622 659.914 463.807 C 662.032 513.259 656.274 561.163 622.953 600.01 C 594.045 633.711 522.482 678.146 478.522 681.412 C 463.239 669.127 449.577 658.691 434.227 645.77 C 367.911 593.363 365.479 570.566 345.498 489.844 C 342.638 478.292 338.029 456.006 334.14 444.927 C 340.426 428.906 349.15 412.708 355.949 395.752 C 372.737 391.481 391.728 387.608 409.019 389.969 C 415.788 390.893 430.695 396.078 436.331 392.976 C 433.744 386.827 423.187 385.291 417.548 383.645 C 396.911 377.622 377.488 382.563 357.439 388.999 C 363.372 378.067 372.064 349.31 378.354 342.889 C 397.946 322.888 478.58 301.714 504.401 299.411 z"/>
<path transform="translate(0,0)" fill="rgb(0,0,0)" d="M 362.353 410.322 C 368.29 410.863 369.245 415.124 374.061 414.917 C 388.142 414.311 406.619 406.975 418.606 417.385 C 421.318 419.741 420.228 426.688 421.339 427.865 C 429.439 436.446 438.61 444.043 445.869 453.382 C 439.138 450.461 432.023 445.857 425.684 441.983 C 430.811 447.498 445.066 464.895 437.789 471.625 L 435.144 470.705 C 431.78 467.964 430.818 463.358 429.436 459.146 C 419.38 476.819 417.709 480.976 398.497 487.003 C 393.663 487.135 386.733 482.855 383.472 479.469 C 374.038 469.672 374.354 459.854 374.126 447.424 L 372.611 447.067 C 367.358 449.511 365.615 456.466 363.591 461.834 C 366.61 466.684 370.082 474.707 372.588 480.116 C 368.065 477.82 363.383 475.084 358.935 472.592 C 353.175 462.935 355.951 460.155 353.498 450.44 C 352.862 447.922 346.167 447.367 347.237 439.232 C 350.701 436.745 351.381 440.826 356.295 438.823 C 359.87 429.883 350.421 431.072 351.983 422.692 C 355.646 420.06 359.219 425.741 365.416 424.63 C 365.94 421.347 363.2 416.876 362.479 411.334 L 362.353 410.322 z"/>
<path transform="translate(0,0)" fill="rgb(0,0,0)" d="M 627.47 423.895 C 632.107 429.873 615.97 434.02 630.541 448.079 C 635.649 442.932 638.678 440.094 644.363 435.623 C 643.132 438.333 641.206 442.933 639.668 445.285 C 636.128 450.697 634.801 448.727 635.15 455.614 C 639.721 460.322 643.862 451.232 650.217 451.367 C 653.201 458.37 646.247 457.498 646.121 463.353 L 649.691 465.281 L 650.158 467.482 C 646.621 476.247 643.176 470.875 636.792 475.954 C 634.874 481.326 630.773 488.256 624.796 489.607 L 623.744 488.414 C 623.861 484.614 627.593 480.238 629.898 476.932 L 629.843 475.63 C 629.63 470.968 630.078 467.977 626.849 465.035 C 620.997 467.258 618.003 480.38 614.051 485.747 C 611.472 489.249 608.81 491.448 605.575 494.261 C 600.663 494.295 593.324 494.551 588.773 493.27 C 581.95 491.182 578.054 489.71 571.513 486.842 C 569.268 476.879 568.718 464.837 568.113 454.553 C 551.249 460.307 553.546 463.62 543.833 477.894 C 546.116 461.301 548.792 455.96 559.325 443.601 C 551.914 447.916 546.203 451.093 538.47 454.745 C 541.573 449.575 549.783 439.648 554.605 436.348 C 577.901 420.404 592.585 429.654 614.082 432.588 C 618.45 429.547 622.973 426.741 627.47 423.895 z"/>
<path transform="translate(0,0)" fill="rgb(0,0,0)" d="M 422.632 401.767 C 432.088 405.194 439.291 406.428 449.164 407.804 C 450.13 408.589 451.079 409.393 452.012 410.217 C 473.784 429.477 471.961 451.103 473.811 479.355 C 473.186 479.447 472.998 479.516 472.291 479.386 C 464.262 477.916 445.006 431.388 438.983 421.632 C 434.632 414.585 428.061 408.049 422.632 401.767 z"/>
<path transform="translate(0,0)" fill="rgb(0,0,0)" d="M 545.057 380.441 C 571.161 379.335 597.664 379.82 620.472 393.53 C 614.944 393.338 606.94 392.035 601.234 391.255 C 583.584 389.06 565.785 388.309 548.013 389.011 C 543.918 389.18 531.67 391.626 530.199 391.047 C 531.696 381.586 537.358 380.709 545.057 380.441 z"/>
<path transform="translate(0,0)" fill="rgb(0,0,0)" d="M 473.527 606.412 C 478.881 606.266 520.583 609.269 521.957 610.123 L 521.87 613.018 C 519.947 615.408 518.754 615.01 515.184 615.921 C 506.621 617.1 471.317 617.859 465.394 612.423 L 465.313 610.4 C 468.595 606.837 468.095 607.833 473.527 606.412 z"/>
<path transform="translate(0,0)" fill="rgb(0,0,0)" d="M 472.386 550.748 C 474.435 554.404 473.145 565.91 472.949 571.071 C 478.253 574.56 491.833 583.092 486.589 590.205 L 482.605 590.786 C 457.271 577.121 462.65 575.952 472.386 550.748 z"/>
<path transform="translate(0,0)" fill="rgb(0,0,0)" d="M 475.911 629.566 C 480.532 630.437 485.334 633.97 489.503 634.677 C 495.13 635.63 498.026 629.693 504.281 632.9 C 506.253 636.077 506.11 637.063 506.259 640.769 C 494.16 645.902 476.773 647.142 475.911 629.566 z"/>
<path transform="translate(0,0)" fill="rgb(0,0,0)" d="M 575.781 413.076 C 577.246 412.994 578.713 412.949 580.181 412.94 C 586.454 412.891 602.498 415.025 606.854 419.329 L 606.283 420.732 L 603.249 421.192 C 596.989 421.035 572.018 423.173 569.676 418.076 C 570.9 415.333 573.147 414.492 575.781 413.076 z"/>
<path transform="translate(0,0)" fill="rgb(254,253,254)" d="M 634.986 317.823 C 645.58 317.822 686.604 325.242 692.063 334.143 C 705.969 356.814 707.148 397.567 709.553 424.234 C 710.24 431.849 707.298 439.015 707.163 445.596 L 708.489 446.321 C 720.202 438.31 714.949 388.952 715.045 374.41 C 723.941 388.94 737.401 427.911 739.392 443.913 C 742.304 467.31 731.642 529.391 716.865 548.325 C 696.491 574.432 680.913 584.099 665.5 617.002 C 655.989 636.841 645.7 646.266 629.532 660.484 C 631.126 636.566 641.601 593.413 657.868 575.511 C 682.042 548.907 687.153 540.274 698.395 506.476 C 685.944 522.78 687.988 530.511 670.451 550.259 C 670.688 547.707 671.039 544.902 671.515 542.415 C 677.768 509.716 676.061 475.146 666.08 443.333 C 662.519 431.984 656.381 419.599 652.015 408.077 C 640.872 379.286 635.101 348.696 634.986 317.823 z"/>
<path transform="translate(0,0)" fill="rgb(254,253,254)" d="M 290.911 371.941 C 299.356 384.432 260.694 481.446 255.269 500.374 C 250.895 515.635 246.314 540.482 244.274 556.239 C 243.518 562.084 250.352 586.697 252.129 594.471 C 237.018 632.795 228.111 657.253 226.894 699.216 C 213.792 680.436 204.117 659.486 198.316 637.334 C 188.712 602.308 178.964 574.794 196.734 539.893 C 221.096 492.046 238.07 440.46 261.704 392.241 C 263.362 388.857 267.507 384.503 270.167 381.674 C 264.77 404.746 264.089 412.134 255.371 434.972 C 262.904 427.926 269.444 417.422 275.552 409.101 C 283.823 397.835 286.242 384.782 290.911 371.941 z"/>
<path transform="translate(0,0)" fill="rgb(254,253,254)" d="M 256.1 533.502 C 262.775 496.362 268.115 465.522 283.286 429.65 C 286.939 421.012 295.599 412.152 298.863 404.563 C 319.961 355.5 316.804 342.268 359.77 309.915 C 356.853 327.346 353.463 344.878 347.625 361.7 C 330.76 410.295 300.427 463.302 297.232 515.204 C 294.037 567.108 361.193 598.394 335.652 648.168 C 329.786 659.601 325.916 667.39 316.438 676.479 C 325.169 614.505 290.449 572.302 281.4 514.586 C 279.599 503.101 288.939 449.326 293.317 436.98 L 291.306 433.23 C 281.373 470.818 274.927 498.766 256.1 533.502 z"/>
<path transform="translate(0,0)" fill="#fefdfe" d="M 291.306 433.23 C 292.493 427.595 293.417 421.561 296.024 416.479 C 297.396 419.115 294.062 433.527 293.317 436.98 L 291.306 433.23 z"/>
<path transform="translate(0,0)" fill="rgb(254,253,254)" d="M 764.57 353.415 C 772.659 357.163 776.095 380.61 777.754 388.868 C 781.21 406.306 784.416 423.793 787.371 441.323 C 789.794 455.344 792.006 471.722 797.031 484.9 L 784.484 486.488 C 787.846 489.562 791.2 492.841 794.507 495.991 C 790.702 502.982 783.59 512.334 778.83 519.312 C 784.729 516.267 792.352 511.472 798.467 508.066 C 798.91 511.539 799.295 515.019 799.621 518.505 C 800.06 523.624 801.079 532.768 797.769 536.708 C 789.801 537.74 785.692 525.177 779.706 526.565 C 774.794 537.346 786.658 537.539 788.721 540.113 C 801.585 556.161 782.509 560.392 769.93 561.072 C 772.754 565.801 775.592 571.074 778.312 575.911 C 771.608 583.19 769.241 587.093 759.157 587.375 C 757.296 589.477 762.069 592.496 761.36 598.774 C 760.54 606.029 755.395 609.016 749.905 613.554 C 744.136 609.492 741.565 607.648 734.744 606.083 L 733.915 606.849 C 735.918 614.901 746.923 616.235 748.664 624.801 C 747.042 631.05 741.942 634.527 736.998 638.196 C 730.623 634.875 725.253 632.644 718.594 629.901 C 721.879 634.653 726.287 639.608 730.053 644.071 C 731.914 653.304 730.823 655.262 724.108 661.83 C 719.152 661.676 711.619 660.756 706.491 660.281 L 716.305 671.414 C 711.975 679.677 705.264 686.077 700.231 693.936 C 694.61 702.716 689.819 711.689 684.236 720.567 C 693.428 684.764 697.164 668.933 711.801 633.104 C 733.487 580.017 766.413 535.62 771.311 477.488 C 773.973 445.895 772.596 422.398 768.681 390.843 C 767.627 382.34 764.524 362.112 764.558 354.396 L 764.57 353.415 z"/>
<path transform="translate(0,0)" fill="rgb(254,253,254)" d="M 721.612 337.707 C 730.255 341.329 748.881 348.078 755.43 352.579 C 764.336 410.522 772.691 471.953 738.85 523.741 C 737.934 525.409 732.658 531.902 731.2 533.767 C 731.353 533.337 731.504 532.907 731.652 532.475 C 754.527 465.587 753.159 401.714 721.612 337.707 z"/>
<path transform="translate(0,0)" fill="rgb(254,253,254)" d="M 560.836 101.793 C 558.994 99.8631 557.198 97.8899 555.45 95.8753 C 553.326 93.3791 552.133 91.2967 552.395 87.9228 C 559.399 78.1745 582.801 91.0941 586.56 80.457 L 585.69 79.0848 C 580.671 76.562 572.062 79.0971 569.422 75.4896 C 569.971 74.568 570.578 73.0019 571.803 72.9825 C 597.606 72.5741 627.489 76.5538 650.97 87.4831 L 649.071 89.94 C 645.905 89.7113 643.008 89.5962 640.01 91.3496 C 631.055 96.5868 620.358 81.811 610.727 86.0415 L 610.736 87.1868 C 618.353 91.8082 622.969 94.4743 630.282 99.7197 L 620.66 113.628 C 617.35 112.094 606.783 106.418 603.765 108.182 C 605.198 114.236 614.455 120.097 613.15 126.169 C 610.025 127.409 605.946 125.826 602.892 124.639 C 585.561 117.907 567.692 113.388 549.69 108.871 C 545.875 107.914 541.001 107.416 537.656 105.482 L 537.505 103.678 C 539.744 100.552 543.618 98.6726 546.989 96.7002 C 551.76 97.6953 556.336 99.8713 560.836 101.793 z"/>
<path transform="translate(0,0)" fill="rgb(254,253,254)" d="M 280.315 538.634 C 284.887 552.696 279.337 601.991 280.554 620.056 C 279.24 638.422 279.241 654.737 280.11 673.092 C 281.376 699.839 302.655 724.014 308.063 746.589 L 299.889 738.17 C 285.089 721.494 276.646 710.064 268.113 689.233 C 250.623 646.536 262.305 579.964 280.315 538.634 z"/>
<path transform="translate(0,0)" fill="rgb(254,253,254)" d="M 483.283 71.3643 C 489.171 71.2053 502.255 73.8129 504.209 80.0653 C 501.045 87.5947 463.099 94.5572 454.468 95.9402 C 450.307 94.5061 450.653 94.4916 446.961 96.53 L 446.769 97.666 C 449.779 98.5671 450.951 98.8452 453.755 100.48 L 453.945 102.409 C 450.781 107.345 419.096 123.5 410.719 128.562 C 413.869 122.969 415.348 120.458 417.427 114.273 L 416.463 113.23 L 414.689 114.922 C 409.332 118.757 386.174 131.871 380.338 132.409 L 379.912 130.988 C 380.292 130.263 381.6 127.967 382.175 127.453 C 409.98 102.551 445.434 75.2247 483.283 71.3643 z"/>
<path transform="translate(0,0)" fill="rgb(254,253,254)" d="M 680.585 653.717 L 681.888 655.462 C 678.586 663.084 675.64 670.855 673.058 678.75 C 664.132 706.488 656.303 747.461 675.082 772.532 C 682.623 782.6 692.405 790.802 698.089 801.926 C 692.47 798.746 689.598 796.632 684.486 792.779 C 681.301 790.62 677.34 787.257 674.256 784.792 C 670.772 785.707 672.563 786.165 669.782 790.619 C 664.529 789.64 651.079 768.918 647.948 763.736 C 647.881 738.677 660.038 691.561 670.402 667.464 C 672.543 662.487 676.803 657.654 680.585 653.717 z"/>
<path transform="translate(0,0)" fill="rgb(254,253,254)" d="M 777.874 584.803 C 785.2 587.361 788.774 591.933 793.961 597.513 C 790.16 605.269 789.205 607.522 782.079 612.24 C 776.783 615.245 756.584 602.207 777.874 584.803 z"/>
<path transform="translate(0,0)" fill="rgb(254,253,254)" d="M 355.471 736.727 C 359.037 739.143 364.073 741.621 366.282 745.244 C 371.853 754.385 365.567 760.708 357.657 764.848 C 349.853 764.631 343.625 758.256 345.234 750.414 C 346.922 742.184 349.002 741.255 355.471 736.727 z"/>
<path transform="translate(0,0)" fill="rgb(254,253,254)" d="M 761.243 611.852 C 769.228 611.63 772.026 615.768 778.41 621.274 C 773.656 628.372 775.124 632.071 767.72 636.828 C 750.278 632.968 743.618 622.855 761.243 611.852 z"/>
<path transform="translate(0,0)" fill="rgb(254,253,254)" d="M 794.113 561.036 C 805.969 562.912 801.927 578.473 797.633 585.418 C 797.079 586.314 795.685 585.826 794.737 585.718 C 791.058 584.324 786.975 581.971 783.456 580.081 C 783.436 567.784 781.49 564.942 794.113 561.036 z"/>
<path transform="translate(0,0)" fill="rgb(254,253,254)" d="M 750.167 635.59 C 763.249 642.947 768.551 650.859 753.544 660.356 C 750.399 661.114 748.798 660.991 745.641 660.961 C 738.991 656.513 747.328 641.475 750.167 635.59 z"/>
<path transform="translate(0,0)" fill="rgb(254,253,254)" d="M 510.904 65.288 C 516.812 65.0475 522.731 65.2115 528.617 65.779 C 533.381 66.2409 542.788 66.9551 545.79 70.6176 L 545.587 72.4487 L 540.945 74.9 L 531.641 81.2848 C 524.367 75.9511 515.315 73.1918 510.904 65.288 z"/>
<path transform="translate(0,0)" fill="rgb(254,253,254)" d="M 748.443 687.745 C 752.909 688.189 752.578 687.475 755.634 689.84 C 757.671 695.745 750.185 707.688 746.073 711.687 C 740.658 707.677 736.052 705.294 736.626 697.963 C 738.988 692.337 743.11 690.512 748.443 687.745 z"/>
<path transform="translate(0,0)" fill="rgb(254,253,254)" d="M 669.03 511.433 C 670.036 512.303 671.204 513.396 670.949 514.936 C 668.142 531.87 669.189 550.698 657.689 564.305 L 656.523 562.897 C 656.308 552.16 664.443 521.54 669.03 511.433 z"/>
<path transform="translate(0,0)" fill="rgb(254,253,254)" d="M 331.161 717.26 C 337.302 719.064 347.065 723.521 351.679 728.227 C 352.417 731.395 352.104 730.552 349.978 734.188 C 347.428 735.724 343.266 737.733 340.512 739.176 C 328.504 731.804 330.16 730.723 331.161 717.26 z"/>
<path transform="translate(0,0)" fill="rgb(254,253,254)" d="M 524.537 111.007 C 526.39 110.907 528.245 110.864 530.1 110.878 C 536.333 110.941 559.838 115.006 563.752 119.027 C 561.952 120.617 561.176 120.084 558.249 120.141 C 542.187 119.479 527.594 116.313 511.686 115.512 L 524.537 111.007 z"/>
<path transform="translate(0,0)" fill="rgb(254,253,254)" d="M 766.792 665.022 L 769.122 664.89 L 770.454 666.113 C 770.469 669.976 761.656 684.166 758.218 686.023 C 751.746 681.479 752.112 676.713 753.945 669.32 C 756.947 666.449 759.731 668.181 766.792 665.022 z"/>
<path transform="translate(0,0)" fill="rgb(254,253,254)" d="M 739.857 666.345 C 753.482 668.204 749.232 679.424 740.662 685.109 C 738.434 686.692 739.361 686.521 737.02 686.33 C 734.951 681.931 738.531 671.23 739.857 666.345 z"/>
<path transform="translate(0,0)" fill="rgb(254,253,254)" d="M 321.307 737.817 C 328.352 737.219 330.476 739.377 336.113 743.518 C 337.891 748.731 338.631 751.215 339.585 756.62 C 332.165 755.24 324.098 744.403 321.307 737.817 z"/>
<path transform="translate(0,0)" fill="rgb(254,253,254)" d="M 309.261 712.388 C 322.855 713.59 322.927 721.195 320.341 732.296 L 319.179 732.965 L 317.543 732.515 C 314.433 727.491 309.798 718.203 309.261 712.388 z"/>
<path transform="translate(0,0)" fill="rgb(254,253,254)" d="M 736.789 711.38 C 737.174 711.566 737.559 711.752 737.943 711.939 C 746.319 719.042 746.677 720.467 740.962 727.318 L 739.049 729.685 L 737.486 729.289 C 735.61 724.346 736 716.538 736.789 711.38 z"/>
<path transform="translate(0,0)" fill="rgb(254,253,254)" d="M 786.505 612.414 C 789.55 612.881 789.528 612.392 791.656 614.242 C 791.63 617.289 789.117 627.319 788.42 632.236 C 787.002 632.855 787.709 632.612 785.799 632.266 C 782.752 627.303 784.413 617.527 786.505 612.414 z"/>
<path transform="translate(0,0)" fill="rgb(254,253,254)" fill-opacity="0.980392" d="M 297.639 667.694 C 301.889 670.705 305.711 682.521 306.306 687.644 C 299.438 683.114 297.367 675.735 297.639 667.694 z"/>
<path transform="translate(0,0)" fill="rgb(254,253,254)" fill-opacity="0.988235" d="M 314.371 701.309 C 320.683 702.89 324.559 708.024 323.775 714.57 C 317.393 710.716 314.086 708.908 314.371 701.309 z"/>
<path transform="translate(0,0)" fill="rgb(254,253,254)" d="M 301.165 690.486 C 309.184 691.84 308.889 696.753 308.852 703.83 C 304.26 701.598 300.853 695.628 301.165 690.486 z"/>
<path transform="translate(0,0)" fill="#fefdfe" fill-opacity="0.988235" d="M 650.97 87.4831 C 653.913 89.2254 657.238 90.6852 658.697 93.578 L 657.638 94.2852 C 653.749 93.4173 652.341 92.1913 649.071 89.94 L 650.97 87.4831 z"/>
</svg>
