<svg xmlns="http://www.w3.org/2000/svg" version="1.1" style="display: block;" viewBox="0 0 1024 1024" width="256" height="256" preserveAspectRatio="none">
<path transform="translate(0,0)" fill="rgb(0,0,0)" d="M 345.705 50.43 C 375.269 48.9643 409.329 50.4799 439.1 50.7301 C 459.97 50.9055 493.205 50.7164 513.505 54.4509 C 530.204 57.523 552.796 64.2197 570.012 68.0825 L 661.098 89.4415 C 698.368 98.4496 737.186 104.789 769.958 126.893 C 786.31 137.922 808.947 169.416 820.525 186.104 C 814.806 206.632 809.225 225.893 802.531 246.162 C 799.327 255.863 796.961 267.108 793.816 277.129 L 773.134 343.922 C 768.016 360.381 755.949 393.637 756.18 409.195 C 756.568 435.296 769.428 468.001 777.697 493.29 C 776.301 500.932 758.173 545.117 754.518 551.593 C 753.099 554.107 751.616 555.648 749.121 557.13 C 740.528 562.238 729.633 561.752 721.475 568.213 C 705.282 581.036 673.625 695.365 655.655 723.318 C 648.549 734.372 636.79 743.57 627.303 752.56 C 615.25 764.21 603.004 775.658 590.57 786.901 C 583.351 793.344 563.39 806.752 562.464 816.739 C 560.892 833.675 659.494 862.747 673.333 880.656 C 688.182 899.872 700.31 922.258 713.858 942.541 L 742.007 984.477 C 745.754 989.978 754.921 1002.46 757.32 1007.78 C 769.413 1034.36 780.835 1061.24 791.575 1088.4 C 794.464 1095.66 801.621 1119.72 804.938 1123.81 C 814.202 1135.25 825.03 1139.19 836.56 1153.08 C 823.649 1151.27 802.172 1152.05 788.315 1152.04 L 704.5 1152.01 L 294.757 1152.81 L 179.306 1152.85 C 167.51 1152.83 135.916 1151.7 126.131 1153.18 C 139.775 1133.15 156.77 1095.38 167.852 1072.79 L 188.65 1029.61 C 194.784 1017.11 199.82 1007.61 205.296 994.47 C 213.248 975.393 216.794 941.115 226.951 925.097 C 233.891 914.152 265.978 896.369 275.958 886.742 C 300.295 863.264 320.491 814.819 322.448 781.527 C 307.177 769.27 305.242 762.062 292.92 747.813 C 293.497 740.28 298.605 722.495 300.27 713.17 C 293.684 705.279 281.209 693.187 273.667 685.578 L 227.156 638.772 C 220.612 632.191 200.709 613.893 197.16 605.553 C 185.423 576.066 168.79 540.52 160.212 510.977 C 156.392 497.82 187.294 420.818 189.68 403.093 C 190.637 395.982 205.624 378.284 205.139 367.316 C 201.86 293.073 187.94 219.687 183.985 145.443 C 183.644 138.984 180.145 122.389 183.622 117.473 C 194.277 102.409 207.478 81.488 219.945 68.3687 C 232.534 64.5552 252.202 62.2261 265.535 60.1252 C 292.32 55.9045 318.637 52.2227 345.705 50.43 z"/>
<path transform="translate(0,0)" fill="rgb(253,253,253)" d="M 373.133 647.54 C 352.463 627.681 346.247 618.441 340.143 589.656 C 329.191 538.005 336.457 501.651 377.623 466.261 C 385.92 476.527 396.712 490.284 405.771 499.536 C 398.458 502.35 371.049 508.52 368.488 512.052 C 373.654 513.981 400.242 509.989 408.024 509.456 C 414.23 512.645 418.135 516.257 423.454 520.72 C 416.206 520.963 401.691 520.614 394.828 523.233 C 392.634 524.071 392.451 526.491 391.679 528.971 C 391.544 531.37 391.518 535.263 390.792 537.409 L 390.446 538.917 C 391.278 541.983 395.089 545.452 397.432 547.952 C 385.114 554.382 379.503 559.271 371.038 570.028 C 373.232 576.089 379.413 590.698 385.055 593.654 L 386.71 592.896 C 388.871 587.283 382.305 573.969 387.614 567.896 C 390.163 568.183 390.122 568.542 390.248 572.78 C 390.744 589.417 395.475 606.725 407.781 618.528 C 415.557 625.987 434.783 627.411 441.121 617.591 C 454.105 597.471 450.444 573.033 448.095 550.696 C 469.844 563.192 467.416 569.531 471.431 592.246 C 471.847 594.599 472.066 596.957 473.626 598.676 L 475.828 598.424 C 480.1 593.838 478.078 585.27 478.373 577.088 C 488.609 579.951 500.235 586.229 510.049 590.871 C 530.693 600.637 557.765 604.969 580.446 603.15 C 585.606 628.873 596.868 660.14 626.893 664.484 C 644.177 666.985 654.944 659.12 667.961 649.423 C 650.587 717.817 650.056 712.443 593.728 759.049 C 582.4 768.422 569.676 782.927 557.229 791.676 C 549.809 796.893 539.065 798.172 530.5 795.915 C 514.075 791.586 495.679 780.724 479.804 773.761 C 439.806 756.219 394.39 727.92 366.671 693.54 C 353.349 677.016 336.657 649.16 324.405 630.343 C 345.426 646.465 347.761 649.807 373.133 647.54 z"/>
<path transform="translate(0,0)" fill="rgb(0,0,0)" d="M 549.962 726.29 C 559.493 725.142 562.568 726.983 571.366 730.486 C 564.825 747.962 561.921 753.831 543.024 750.854 C 533.606 748.477 527.458 744.587 519.008 739.863 C 531.04 730.423 534.813 729.059 549.962 726.29 z"/>
<path transform="translate(0,0)" fill="rgb(0,0,0)" d="M 590.463 688.799 L 591.095 689.738 C 592.786 697.754 583.974 704.581 577 706.487 C 572.41 696.718 583.263 693.001 590.463 688.799 z"/>
<path transform="translate(0,0)" fill="rgb(0,0,0)" d="M 539.434 762.926 C 544.751 763.31 554.028 762.015 557.733 763.979 C 558.199 766.684 557.652 766.389 555.743 769.227 C 547.176 773.214 541.948 773.424 539.434 762.926 z"/>
<path transform="translate(0,0)" fill="rgb(253,253,253)" d="M 266.588 144.559 C 278.004 147.404 292.026 152.98 302.934 155.374 C 334.508 162.304 367.638 171.829 399.194 177.676 C 424.419 182.349 454.202 184.006 480.005 187.21 C 565.525 197.827 646.558 202.475 732.691 203.108 C 727.468 205.714 719.496 209.779 713.851 210.829 C 666.663 219.601 609.283 205.356 564.483 222.328 C 563.188 222.819 552.593 232.272 550.076 234.353 C 545.067 231.03 540.932 227.979 537.124 223.232 C 535.087 220.693 535.39 219.827 532.796 217.253 L 531.249 217.803 C 527.129 224.882 520.951 229.174 514.62 234.314 C 509.516 231.147 505.626 228.14 500.881 224.512 C 500.409 220.134 500.499 215.682 497.3 212.76 L 495.402 213.378 C 492.95 216.678 492.961 221.833 492.548 226.063 C 499.31 231.925 505.976 235.912 511.416 243.039 C 506.221 262.803 488.738 268.464 491.173 291.515 C 494.679 293.559 495.885 290.289 499.149 290.704 C 506.865 291.685 510.914 299.402 509.741 306.481 C 508.509 313.919 503.784 316.137 498.407 320.003 C 493.804 318.14 489.752 316.296 484.835 315.424 L 483.765 316.59 C 484.045 320.512 489.949 326.793 492.433 330.725 C 497.9 339.378 483.731 345.741 479.444 351.896 C 478.063 353.879 476.881 358.162 476.184 360.597 C 472.091 359.739 467.958 359.307 463.798 358.993 C 426.789 356.198 390.55 349.361 354.113 342.58 C 330.557 338.195 307.906 334.693 284.959 327.323 C 283.176 286.767 278.214 247.895 273.47 207.6 C 270.99 186.537 269.36 165.653 266.588 144.559 z"/>
<path transform="translate(0,0)" fill="rgb(253,253,253)" d="M 223.29 116.574 C 254.232 99.8206 291.392 92.9722 325.67 87.9587 C 446.164 70.3356 558.712 85.6048 674.404 120.177 C 687.556 124.107 708.18 132.377 720.26 139.037 C 712.333 141.437 710.667 141.54 705.616 148.115 L 705.765 150.07 C 711.247 151.368 717.377 146.698 722.298 143.795 C 742.428 156.574 738.071 162.836 723.161 177.655 C 719.222 173.436 713.984 168.167 707.711 170.974 C 706.143 176.154 712.697 178.466 716.655 180.452 C 717.162 185.089 717.615 189.919 718.22 194.525 L 691.913 194.226 C 692.445 185.353 693.25 182.801 696.365 174.181 C 685.889 181.161 680.404 181.188 682.999 194.978 C 675.125 194.4 664.195 194.143 656.378 192.142 C 655.273 191.859 653.144 187.73 652.558 186.543 L 650.948 186.942 L 649.861 191.268 C 645.256 193.647 605.074 190.001 600.679 184.109 L 601.807 179.606 C 571.391 180.619 542.529 180.458 512.33 176.441 C 434.241 166.053 357.595 154.861 281.448 134.26 C 262.033 129.007 242.759 122.133 223.29 116.574 z"/>
<path transform="translate(0,0)" fill="#fdfdfd" d="M 601.807 179.606 C 608.853 178.512 614.137 177.578 621.289 177.497 C 616.948 182.393 604.977 182.586 600.679 184.109 L 601.807 179.606 z"/>
<path transform="translate(0,0)" fill="rgb(253,253,253)" d="M 425.584 457.735 C 426.25 457.758 426.915 457.792 427.58 457.838 C 438.593 458.581 449.733 460.93 460.751 462.119 C 478.542 464.04 496.438 464.981 514.271 466.441 C 518.07 466.753 524.485 466.864 527.848 468.522 C 529.235 469.206 598.167 548.083 606.105 557.226 C 587.277 560.255 532.912 546.639 512.78 543.903 C 475.346 538.814 444.933 488.714 425.584 457.735 z"/>
<path transform="translate(0,0)" fill="rgb(253,253,253)" d="M 248.763 444.171 C 274.059 440.782 284.154 461.155 281.841 483.366 C 279.798 502.993 269.509 520.818 254.664 533.541 C 251.321 532.097 247.761 530.198 244.481 528.536 C 239.679 516.253 241.052 494.182 241.326 480.753 C 241.657 477.303 242.589 473.322 240.616 470.678 L 238.795 470.712 C 227.487 483.195 234.229 519.275 229.438 529.7 C 223.471 531.253 219.355 528.459 217.582 522.784 C 208.006 492.126 217.597 456.863 248.763 444.171 z"/>
<path transform="translate(0,0)" fill="rgb(253,253,253)" d="M 335.005 426.749 C 348.449 437.372 358.153 448.948 373.676 459.588 C 364.566 465.348 321.08 493.804 318.468 501.433 C 320.131 502.956 324.173 502.362 327.031 502.362 C 335.664 509.427 325.09 546.683 326.597 561.104 C 329.19 585.91 332.601 608.199 347.103 629.101 C 349.325 632.315 352.641 636.284 355.117 639.429 C 287.629 608.188 327.33 523.858 317.147 515.181 C 312.35 516.89 308.884 524.761 306.294 529.436 C 304.403 494.415 320.31 458.515 335.005 426.749 z"/>
<path transform="translate(0,0)" fill="rgb(253,253,253)" d="M 280.879 526.182 C 292.477 527.634 295.989 530.275 306.275 535.725 C 306.937 540.743 307.558 545.767 308.138 550.796 C 308.553 554.595 309.46 562.944 307.084 565.901 C 299.611 561.936 297.162 538.46 286.27 533.472 C 269.071 534.553 264.428 567.889 270.334 575.949 C 272.6 574.251 273.603 566.8 275.483 562.763 C 278.376 556.553 281.392 550.758 284.564 544.714 C 293.237 554.857 294.965 558.579 301.186 570.546 C 301.31 570.786 301.595 572.382 301.514 572.606 C 300.229 576.148 289.016 582.426 286.826 590.755 C 285.132 597.2 306.969 623.291 311.259 631.408 C 294.954 623.354 273.583 614.031 265.7 596.372 C 255.468 573.452 253.568 538.034 280.879 526.182 z"/>
<path transform="translate(0,0)" fill="rgb(253,253,253)" d="M 226.474 162.244 C 231.427 163.333 238.824 164.062 244.012 164.732 C 245.605 193.563 250.969 224.929 254.474 253.92 C 256.082 267.213 260.387 306.217 263.497 317.226 C 259.203 315.633 252.617 313.391 249.529 309.995 C 244.48 304.44 225.917 176.217 226.474 162.244 z"/>
<path transform="translate(0,0)" fill="rgb(253,253,253)" d="M 221.094 382.981 C 230.92 388.209 241.155 394.125 250.922 399.576 C 254.044 426.171 250.816 434.665 229.634 450.244 L 222.068 455.997 C 196.273 425.365 201.402 413.304 221.094 382.981 z"/>
<path transform="translate(0,0)" fill="rgb(253,253,253)" d="M 434.362 566.596 C 437.176 566.63 440.222 567.046 441.3 570.224 C 446.003 584.085 438.384 619.785 418.37 615.224 C 411.612 613.684 406.779 604.88 403.669 598.995 C 401.689 592.609 399.15 581.089 399.839 574.381 C 401.636 566.976 414.43 568.872 415.709 575.561 C 416.863 581.593 413.806 590.475 420.962 592.239 C 421.807 591.939 422.808 591.585 423.964 591.175 C 426.883 580.361 424.78 573.819 434.362 566.596 z"/>
<path transform="translate(0,0)" fill="rgb(253,253,253)" d="M 367.925 436.661 C 373.348 437.344 387.377 445.313 397.745 447.2 C 405.304 455.325 432.174 505.577 432.972 513.923 C 424.361 511.5 377.167 447.785 367.925 436.661 z"/>
<path transform="translate(0,0)" fill="rgb(253,253,253)" d="M 262.532 403.27 C 277.779 408.72 292.934 414.426 307.99 420.385 C 300.499 422.447 295.975 424.109 288.744 427.013 C 274.213 433.493 271.556 434.278 255.787 436.332 C 261.793 426.365 261.866 414.593 262.532 403.27 z"/>
<path transform="translate(0,0)" fill="rgb(253,253,253)" d="M 226.672 560.757 C 229.859 563.04 234.137 567.51 237.055 570.371 L 239.356 583.844 C 243.377 576.156 244.126 574.731 249.816 568.436 C 250.798 576.321 258.347 595.384 252.556 600.376 C 251.13 596.51 250.258 593.445 247.707 590.193 L 245.65 590.097 C 242.753 593.342 245.164 596.935 242.778 602.266 L 241.042 602.715 C 225.028 596.091 224.544 575.334 226.672 560.757 z"/>
<path transform="translate(0,0)" fill="rgb(253,253,253)" d="M 512.575 317.613 C 519.288 318.541 522.025 322.349 526.628 327.159 L 527.587 341.345 C 523.72 343.985 519.47 347.436 515.715 350.333 C 511.435 349.794 504.425 344.212 500.53 341.516 C 500.837 335.745 501.394 332.321 502.381 326.723 C 506.409 322.064 507.434 320.947 512.575 317.613 z"/>
<path transform="translate(0,0)" fill="rgb(253,253,253)" d="M 529.109 231.719 C 536.749 232.269 546.78 237.782 545.125 247.136 C 543.557 255.995 539.496 257.991 532.629 263.072 C 531.979 263.847 531.607 263.866 530.612 264.388 C 514.531 255.944 515.553 242.127 529.109 231.719 z"/>
<path transform="translate(0,0)" fill="rgb(253,253,253)" d="M 514.177 260.992 C 526.959 262.534 534.701 283.352 514.17 292.152 C 494.054 284.649 497.516 270.447 514.177 260.992 z"/>
<path transform="translate(0,0)" fill="rgb(253,253,253)" d="M 193.348 450.617 C 198.07 453.306 209.192 463.776 213.776 467.911 C 210.829 472.96 207.493 480.062 204.815 485.414 C 203.51 488.415 202.754 491.094 199.847 492.601 C 196.475 493.327 192.981 491.169 189.685 489.652 C 191.75 477.088 192.198 463.482 193.348 450.617 z"/>
<path transform="translate(0,0)" fill="rgb(253,253,253)" d="M 754.468 143.896 C 758.803 145.077 769.176 157.911 773.222 162.364 C 768.293 167.175 765.065 170.146 759.65 174.389 C 748.671 178.598 733.199 160.67 754.468 143.896 z"/>
<path transform="translate(0,0)" fill="rgb(253,253,253)" d="M 528.594 289.845 C 532.364 290.804 541.696 295.177 545.414 296.926 C 541.451 304.473 538.097 312.003 533.931 319.742 C 523.44 322.582 508.567 300.68 528.594 289.845 z"/>
<path transform="translate(0,0)" fill="rgb(253,253,253)" d="M 547.543 260.757 C 550.528 261.566 554.845 263.567 556.695 266.221 C 558.461 273.528 550.34 285.973 546.609 293.504 C 530.404 282.962 532.985 270.791 547.543 260.757 z"/>
<path transform="translate(0,0)" fill="rgb(253,253,253)" d="M 559.645 349.339 C 565.263 350.507 582.252 358.152 582.193 365.363 C 580.593 367.982 578.83 368.411 576.047 369.597 C 571.22 370.791 560.895 372.129 556.551 369.375 C 548 363.954 555.838 354.697 559.645 349.339 z"/>
<path transform="translate(0,0)" fill="rgb(253,253,253)" d="M 530.599 347.655 C 536.725 348.474 540.656 354.047 544.879 358.625 C 545.073 361.92 545.774 366.757 544.223 369.472 C 540.529 371.123 539.457 370.212 534.77 369.669 C 530.042 368.856 522.097 368.251 517.094 367.729 C 520.238 357.719 521.762 353.279 530.599 347.655 z"/>
<path transform="translate(0,0)" fill="rgb(253,253,253)" d="M 321.731 424.027 L 323.214 424.405 L 323.558 426.141 C 320.035 433.114 290.866 453.82 284.572 453.498 C 282.186 450.567 281.607 449.741 279.838 446.37 L 280.346 444.831 C 288.001 439.616 312.921 427.095 321.731 424.027 z"/>
<path transform="translate(0,0)" fill="rgb(253,253,253)" d="M 494.042 347.651 C 501.341 349.673 507.503 353.69 510.528 360.835 C 510.355 364.584 510.899 363.202 508.512 366.047 C 505.205 367.723 500.124 366.672 496.243 366.255 C 490.233 365.905 484.087 365.393 478.069 364.957 C 483.617 358.368 487.944 353.748 494.042 347.651 z"/>
<path transform="translate(0,0)" fill="rgb(253,253,253)" d="M 736.676 174.752 C 742.487 175.222 754.981 180.748 753.063 188.42 C 750.925 190.819 746.871 191.129 743.576 191.781 C 736.844 192.596 727.199 194.722 725.727 185.984 C 727.603 180.446 731.882 177.752 736.676 174.752 z"/>
<path transform="translate(0,0)" fill="rgb(253,253,253)" d="M 564.353 232.884 C 568.235 233.053 568.86 232.347 571.085 234.5 C 572.362 240.999 563.501 255.593 560.164 262.663 C 556.202 258.781 551.128 249.576 552.804 243.983 C 554.652 237.818 559.301 235.805 564.353 232.884 z"/>
<path transform="translate(0,0)" fill="rgb(253,253,253)" d="M 391.679 528.971 C 397.511 531.069 421.846 524.114 429.939 532.235 L 430.733 534.826 L 429.734 536.472 C 418.599 536.882 401.127 538.802 390.792 537.409 C 391.518 535.263 391.544 531.37 391.679 528.971 z"/>
<path transform="translate(0,0)" fill="rgb(253,253,253)" d="M 316.854 446.85 L 317.889 448.467 C 316.171 456.915 309.845 466.66 304.186 473.012 C 301.242 476.317 300.016 475.786 296.214 475.88 C 293.652 472.689 293.959 473.925 293.616 470.584 C 296.582 463.256 310.425 452.409 316.854 446.85 z"/>
<path transform="translate(0,0)" fill="rgb(253,253,253)" d="M 774.339 173.062 C 776.575 173.814 785.44 181.466 787.735 183.38 C 780.836 185.929 776.666 186.656 769.522 187.803 C 765.46 188.765 762.486 190.033 758.911 187.538 L 758.753 185.527 C 762.534 178.688 767.626 176.631 774.339 173.062 z"/>
<path transform="translate(0,0)" fill="rgb(253,253,253)" d="M 535.584 330.449 C 540.144 331.567 550.039 339.674 554.078 342.895 C 556.768 345.041 556.349 344.834 556.546 347.642 C 542.293 352.702 536.419 343.852 535.584 330.449 z"/>
<path transform="translate(0,0)" fill="rgb(253,253,253)" d="M 722.03 130.866 C 728.377 131.551 742.225 134.22 746.91 138.449 L 746.92 140.263 L 743.775 143.295 C 742.434 145.175 742.184 145.445 740.344 146.839 C 734.635 146.095 726.407 135.439 722.03 130.866 z"/>
</svg>
