<svg xmlns="http://www.w3.org/2000/svg" version="1.1" style="display: block;" viewBox="0 0 1024 1024" width="256" height="256" preserveAspectRatio="none">
<path transform="translate(0,0)" fill="rgb(0,0,0)" d="M 222.07 575.685 C 209.074 572.468 200.437 568.826 193.879 556.179 C 185.845 540.683 176.833 522.427 169.447 506.753 C 161.411 489.699 168.417 463.021 168.38 444.986 C 168.812 434.316 169.333 410.968 171.851 402.212 C 175.296 390.23 186.434 369.178 192.349 357.198 C 199.729 342.249 202.662 327.177 210.876 313.796 C 217.464 304.276 226.101 295.817 234.004 287.279 C 245.453 274.909 256.471 260.734 268.805 249.307 C 289.991 229.678 313.49 209.998 336.212 192.181 C 350.346 181.098 369.027 172.571 383.974 162.406 C 393.527 156.438 403.227 155.552 411.715 150.025 C 416.696 146.78 423.579 131.835 429.461 129.43 C 439.487 125.331 452.862 121.57 463.376 118.407 C 485.537 111.74 508.207 103.446 530.355 97.3426 C 553.681 103.627 581.812 115.665 604.575 124.091 C 619.573 129.896 637.775 131.35 652.513 137.343 C 684.568 150.378 706.472 171.305 730.169 195.154 C 752.021 217.147 765.249 235.536 777.756 264.252 C 781.884 273.73 783.222 285.246 786.251 295.169 C 800.99 332.954 798.521 365.165 800.147 405.14 C 805.496 409.182 813.24 415.343 818.88 419.092 C 821.864 421.075 825.812 416.581 829.619 421.088 C 829.535 429.211 815.737 433.244 809.046 433.774 C 814.689 439.049 818.421 441.724 825.692 444.721 C 829.045 446.103 829.732 446.988 830.115 450.414 C 825.381 461.752 804.924 466.64 794.312 468.617 C 792.727 494.93 790.308 511.685 783.986 537.473 C 775.615 571.616 773.523 578.265 737.31 582.448 C 728.847 601.622 730.393 624.619 723.041 644.267 C 716.791 660.967 707.061 676.353 698.963 692.204 C 692.88 704.112 694.539 708.222 697.491 720.514 L 697.81 720.806 C 705.827 728.034 717.766 732.291 727.642 736.665 C 758.092 750.107 790.861 757.068 814.364 782.3 C 826.167 794.971 835.85 807.228 847.218 820.665 C 874.294 852.669 880.88 895.557 896.689 933.323 C 900.103 941.479 901.21 951.274 905.306 959.275 C 911.9 972.198 923.329 986.463 931.9 998.505 C 935.148 1003.07 947.836 1021.05 950.711 1024 L 0 1024 L 0 724.1 C 10.9895 719.663 21.1386 713.507 31.8049 708.353 C 69.1359 690.318 105.668 670.792 142.23 651.27 C 157.002 643.382 171.935 635.884 186.296 627.232 C 198.808 619.892 205.557 619.564 211.603 604.833 C 215.417 595.539 217.724 584.397 222.07 575.685 z"/>
<path transform="translate(0,0)" fill="rgb(252,252,253)" d="M 546.363 310.732 C 555.695 313.327 581.092 328.63 584.637 328.687 C 586.688 326.745 586.889 326.301 589.524 325.696 C 592.293 327.082 592.637 329.903 594.141 333.436 C 597.46 333.08 595.901 330.27 600.052 327.963 C 603.433 329.67 609.193 338.205 610.265 338.603 C 620.202 342.292 619.974 340.135 626.738 349.11 C 630.147 345.81 638.188 337.232 642.435 336.817 L 645.488 339.669 C 648.519 339.918 670.507 334.092 675.495 332.874 C 675.127 354.809 679.074 379.657 688.794 399.484 C 680.391 409.964 671.71 422.127 657.584 424.209 C 643.928 426.221 637.738 432.32 634.785 446.229 C 637.197 450.839 640.831 445.794 645.045 449.564 C 646.588 456.61 641.337 465.253 638.608 473.035 C 642.313 470.183 648.629 461.277 653.068 461.944 C 651.57 467.92 649.087 472.439 653.241 477.397 C 660.093 480.22 664.716 478.174 671.633 476.114 C 671.88 472.139 671.951 461.953 674.072 459.522 C 674.338 459.533 674.605 459.544 674.871 459.554 C 688.646 465.111 681.898 478.491 674.002 485.7 C 671.451 488.028 669.865 488.853 668.061 490.108 C 662.351 488.459 656.575 486.27 650.966 484.259 C 657.272 493.676 658.667 494.755 669.41 497.88 C 685.584 491.363 680.043 492.963 695.196 490.38 L 696.06 488.581 C 695.826 487.849 695.604 487.114 695.394 486.375 C 694.39 482.713 694.51 482.899 695.982 480.323 C 699.474 480.468 697.159 483.425 701.526 485.568 C 705.159 481.717 701.672 477.241 701.082 471.86 L 702.185 471.08 C 706.492 477.232 706.803 473.027 712.515 476.791 C 713.971 481.697 712.1 496.233 713.37 504.649 C 714.461 511.878 722.554 539.437 721.692 544.996 C 716.107 580.999 701.788 625.476 692.352 660.822 C 687.348 672.249 665.735 688.525 659.895 697.604 C 640.838 728.154 615.109 755.346 579.971 767.094 C 554.565 775.588 553.211 772.306 533.897 793.355 C 490.671 773.305 448.749 741.429 406.559 718.84 C 391.031 710.526 378.566 703.28 367.696 689.093 C 356.885 673.531 349.691 666.633 337.873 652.785 C 332.835 646.881 329.339 636.746 321.613 627.332 C 311.882 623.523 301.21 622.094 292.369 615.638 C 285.635 610.72 270.23 600.419 273.22 590.888 C 280.038 588.597 320.629 599.566 330.725 602.036 C 319.215 582.452 322.273 589.474 316.234 565.857 C 322.378 571.739 337.65 586.152 341.568 592.354 C 356.206 615.523 360.016 628.726 386.189 641.685 C 390.557 643.848 426.478 658.15 429.408 657.211 C 424.169 651.901 415.806 648.664 411.73 645.187 C 402.126 636.996 375.336 621.455 369.668 613.454 C 359.873 599.63 360.789 574.584 363.331 558.921 C 373.883 563.507 386.926 568.731 396.612 574.573 C 392.523 566.322 386.739 559.471 380.939 552.342 C 385.854 554.68 399.917 564.308 402.883 565.017 C 423.365 569.915 454.093 571.36 475.337 573.3 C 467.141 563.137 450.612 552.5 439.775 542.904 C 474.57 550.726 492.831 554.475 527.804 544.107 C 531.696 542.953 536.516 542.653 537.176 538.234 C 534.232 536.137 519.208 533.343 513.952 531.569 C 489.943 523.464 456.351 506.627 443.734 483.52 C 438.816 474.803 439.75 464.94 438.12 455.529 C 430.743 412.948 444.995 373.195 469.128 338.623 C 477.351 326.844 488.488 328.043 493.242 313.825 L 504.43 322.543 C 509.546 321.542 517.01 319.755 522.012 319.971 C 523.117 321.393 523.741 322.629 525.415 323.052 C 531.875 309.802 537.191 321.421 546.363 310.732 z"/>
<path transform="translate(0,0)" fill="rgb(0,0,0)" d="M 627.965 596.647 C 634.53 600.712 666.843 627.66 665.664 635.106 C 663.08 636.578 659.537 635.871 655.503 636.517 C 652.762 638.955 649.694 644.719 647.631 648.043 C 628.906 678.208 573.984 666.545 550.684 651.674 C 540.008 644.359 530.27 636.054 519.665 628.765 C 514.978 625.544 511.707 629.487 507.332 626.51 L 507.273 623.618 C 508.766 621.46 509.012 620.765 511.839 620.221 C 540.371 614.729 567.395 605.372 595.221 597.762 C 609.137 606.459 616.939 612.813 627.965 596.647 z"/>
<path transform="translate(0,0)" fill="#000000" d="M 614.227 634.19 C 619.98 634.829 628.806 634.934 634.809 635.18 C 627.279 650.825 626.807 651.693 609.911 652.905 C 605.917 653.212 601.903 652.677 598.128 651.335 C 594.948 650.192 595.19 650.404 594.092 648.021 C 598.065 643.48 603.646 651.408 608.838 650.58 C 611.327 646.918 613.022 638.78 614.227 634.19 z"/>
<path transform="translate(0,0)" fill="rgb(0,0,0)" d="M 560.251 413.112 C 533.235 388.382 518.359 374.67 479.589 391.61 C 476.147 393.114 472.042 396.361 469.472 396.092 L 469.73 394.097 C 483.874 374.31 520.134 369.987 539.455 383.128 C 552.098 391.727 560.296 401.664 573.823 409.028 C 579.879 412.325 596.715 421.63 600.114 426.507 C 599.256 430.438 595.635 435.034 593.268 438.495 C 586.077 432.879 579.064 426.893 570.752 423.216 C 569.738 424.669 569.077 425.339 568.497 426.994 C 570.524 432.501 577.199 452.767 575.771 457.918 C 569.215 459.317 567.743 459.723 561.623 462.791 C 561.935 458.773 562.704 453.968 563.243 449.909 C 557.835 448.575 550.103 445.725 544.621 443.861 C 534.851 452.061 538.537 455.906 528.237 465.286 C 522.013 462.931 514.8 460.324 508.853 457.198 C 506.024 455.711 506.208 452.445 505.56 448.883 L 503.565 447.988 C 499.254 449.054 497.444 450.425 495.87 454.525 C 497.483 457.429 513.459 467.73 517.456 469.629 C 532.52 476.788 548.312 470.14 562.803 464.903 C 546.175 481.715 526.023 482.119 505.168 473.43 C 501.875 476.001 496.14 481.095 492.11 481.328 C 491.021 476.739 496.956 472.361 494.884 467.133 C 489.955 465.879 485.861 471.257 482.102 471.454 C 481.894 466.041 488.279 464.154 487.035 458.631 C 482.284 455.711 469.761 457.351 463.595 457.735 C 469.503 453.664 472.612 451.842 479.022 448.604 C 475.662 443.797 471.064 439.218 467.851 434.999 C 465.182 431.495 458.26 410.402 461.501 407.298 C 464.477 410.064 469.793 417.154 472.249 418.494 C 490.185 404.417 513.553 413.09 534.321 413.922 C 543.777 414.301 550.815 414.187 560.251 413.112 z"/>
<path transform="translate(0,0)" fill="#000000" d="M 568.497 426.994 C 562.172 424.162 554.582 424.484 552.412 422.774 C 554.132 419.978 557.313 418.85 560.38 417.273 C 563.362 419.378 567.466 421.443 570.752 423.216 C 569.738 424.669 569.077 425.339 568.497 426.994 z"/>
<path transform="translate(0,0)" fill="rgb(0,0,0)" d="M 479.608 685.962 C 493.423 688.449 514.994 697.271 524.633 707.839 C 530.818 714.619 531.849 720.056 542.223 723.225 C 558.714 728.263 585.91 735.953 602.571 733.197 C 610.744 731.845 628.044 723.34 635.785 719.744 C 631.021 725.903 628.488 728.887 622.934 734.32 C 598.694 755.826 586.713 754.372 556.362 753.715 C 545.889 743.644 528.515 738.148 519.204 727.735 C 513.768 721.657 480.448 690.94 479.608 685.962 z"/>
<path transform="translate(0,0)" fill="rgb(0,0,0)" d="M 639.318 543.42 C 644.349 546.088 640.179 559.18 639.254 564.014 C 630.018 572.464 619.542 579.896 610.645 588.719 C 597.108 582.822 587.954 575.78 577.662 565.281 C 574.998 562.29 567.404 554.622 566.968 551.298 C 570.279 548.209 578.757 558.485 581.975 558.962 C 595.451 560.912 609.889 563.251 623.486 563.142 C 630.165 563.088 634.843 548.725 639.318 543.42 z"/>
<path transform="translate(0,0)" fill="rgb(0,0,0)" d="M 572.327 674.217 C 581.017 676.171 597.49 675.913 606.827 675.925 C 610.197 680.256 613.134 682.731 610.775 687.931 C 599.3 692.287 574.727 686.951 572.327 674.217 z"/>
<path transform="translate(0,0)" fill="rgb(0,0,0)" d="M 464.067 474.405 C 470.112 474.467 475.456 474.804 478.512 480.64 C 477.739 484.457 478.051 483.281 474.668 486.297 C 473.205 487.926 472.418 488.152 470.427 489.167 C 463.735 488.12 464.152 479.915 464.067 474.405 z"/>
<path transform="translate(0,0)" fill="rgb(252,252,253)" d="M 477.452 141.498 C 521.436 134.894 510.004 124.077 559.22 137.871 C 588.542 146.089 634.785 148.855 655.734 178.395 C 666.93 194.181 681.578 230.558 689.498 248.572 C 685.233 245.183 679.425 238.683 674.98 234.619 C 661.671 222.449 648.798 218.371 632.29 212.182 C 636.863 224.937 645.172 237.611 650.954 253.262 C 639.294 244.079 630.161 232.159 616.969 223.329 C 600.119 211.983 579.449 207.8 559.514 211.703 C 522.311 219.022 516.603 237.42 497.044 266.465 C 498.018 253.652 511.915 210.712 516.771 198.697 C 505.735 211.292 501.183 217.134 487.724 227.286 C 499.773 205.298 507.334 191.003 534.138 190.156 C 540.735 189.947 556.514 185.721 562.031 186.418 C 577.989 188.434 596.572 192.774 611.965 197.566 C 597.865 181.034 591.67 159.889 576.256 146.244 C 560.815 142.438 501.313 134.852 493.046 152.851 C 496.509 155.345 496.637 154.946 498.14 159.489 C 487.106 164.353 481.752 171.104 475.953 181.005 C 487.995 176.932 502.253 175.001 514.992 172.759 C 512.686 174.394 496.001 186.436 494.706 186.645 C 469.563 190.689 474.89 195.648 459.697 213.945 C 461.45 204.438 466.015 182.675 466.56 173.953 C 464.927 171.768 464.411 171.428 462.284 169.891 L 461.688 169.468 C 461.648 164.791 474.292 146.956 477.452 141.498 z"/>
<path transform="translate(0,0)" fill="rgb(252,252,253)" d="M 323.438 245.803 C 325.655 248.172 322.266 252.949 320.651 255.013 C 305.85 273.924 295.409 298.418 295.204 322.621 C 295.157 328.072 298.949 337.468 301.043 343.272 C 304.68 333.984 308.848 326.675 317.602 321.136 C 321.577 318.622 331.027 312.864 335.403 313.752 C 334.154 317.248 320.608 331.988 316.854 337.877 C 296.384 369.993 287.638 403.376 283.282 440.648 C 277.835 427.629 273.719 413.634 270.043 400.023 C 268.037 392.6 270.571 381.906 264.693 376.59 C 257.383 373.844 255.405 380.818 253.394 386.565 C 238.523 405.341 239.781 421.453 238.517 444.426 C 233.645 428.001 222.249 404.431 222.023 388.04 C 221.808 372.5 232.584 339.086 240.639 325.337 C 244.237 319.194 256.433 306.673 261.63 301.224 C 257.828 309.52 238.055 334.59 249.073 340.871 C 254.68 336.606 272.036 297.968 278.721 288.859 C 291.812 271.021 306.971 260.102 323.438 245.803 z"/>
<path transform="translate(0,0)" fill="rgb(252,252,253)" d="M 379.266 320.607 C 380.942 322.737 378.686 339.548 378.64 343.988 C 378.349 372.125 378.734 400.11 377.396 428.231 C 373.497 416.77 371.161 414.916 363.387 405.493 C 364.078 416.393 368.7 437.476 370.937 449.035 C 358.856 437.867 349.207 426.323 335.838 415.739 C 334.095 423.393 332.413 429.008 329.998 436.495 C 327.727 444.368 325.617 452.578 323.464 460.51 C 317.145 431.427 304.091 419.623 308.894 387.729 C 312.693 362.499 315.732 357.272 327.744 335.297 C 331.914 344.445 334.589 346.778 341.9 353.151 C 363.739 338.579 363.887 343.26 379.266 320.607 z"/>
<path transform="translate(0,0)" fill="rgb(252,252,253)" d="M 691.48 406.774 C 694.3 409.689 700.469 430.183 704.032 437.045 C 695.284 436.417 686.52 436.03 677.75 435.884 C 673.338 436.022 667.419 435.21 662.912 434.733 C 677.275 422.373 679.024 423.351 691.48 406.774 z"/>
<path transform="translate(0,0)" fill="#000000" d="M 706.591 444.152 C 718.989 446.683 719.925 467.529 713.862 476.458 C 709.748 470.487 705.249 465.429 706.028 458.04 C 706.639 452.244 704.965 450.015 706.591 444.152 z"/>
<path transform="translate(0,0)" fill="#000000" d="M 322.095 538.306 C 326.495 540.327 335.929 543.949 338.15 547.678 L 337.291 549.368 L 332.98 550.73 C 326.518 551.519 323.89 552.097 317.664 553.819 C 319.553 549.088 320.829 543.304 322.095 538.306 z"/>
<path transform="translate(0,0)" fill="#000000" d="M 493.046 152.851 L 493.619 152.736 C 498.524 151.706 503.538 148.434 508.988 150.664 C 509.854 156.388 502.36 158.516 498.14 159.489 C 496.637 154.946 496.509 155.345 493.046 152.851 z"/>
</svg>
