<svg xmlns="http://www.w3.org/2000/svg" version="1.1" style="display: block;" viewBox="0 0 1024 1024" width="256" height="256" preserveAspectRatio="none">
<path transform="translate(0,0)" fill="rgb(0,0,0)" d="M 300.489 117.567 C 316.72 97.5718 319.866 100.564 341.775 90.0707 C 349.7 86.2749 358.734 77.0832 368.448 72.818 L 369.081 72.5341 C 375.747 69.6006 386.088 70.9181 391.351 68.0887 C 405.383 60.5093 417.799 47.2397 431.298 39.1458 C 446.346 30.123 467.762 24.3878 484.877 21.2079 C 495.924 19.1556 503.933 14.3784 515.357 19.145 C 540.726 29.7305 558.895 45.9964 578.113 64.9575 C 583.772 70.5265 594.197 75.443 600.209 80.5787 C 611.921 90.5838 618.335 92.905 632.319 97.8184 C 635.13 102.799 636.743 105.96 642.618 107.097 C 661.544 110.375 678.173 112.07 692.58 126.535 C 695.368 129.333 701.842 134.397 703.281 137.996 C 715.039 167.404 721.299 199.391 730.373 229.336 C 739.189 258.424 770.456 281.516 777.623 312.096 C 780.257 321.412 781.12 329.729 782.376 339.278 C 774.691 360.756 757.72 382.688 748.018 403.512 C 741.077 418.411 736.096 443.374 734.965 460.089 C 734.485 467.185 743.844 485.41 739.543 490.868 C 736.086 491.389 730.055 491.926 728.525 495.053 C 717.75 517.083 725.575 547.318 721.124 570.163 C 719.823 576.841 713.022 589.786 710.653 596.837 C 698.336 633.502 686.585 670.326 673.587 706.676 C 670.155 716.277 666.454 730.868 661.373 739.186 C 656.517 747.136 640.075 754.827 633.748 762.121 C 635.185 766.593 641.732 768.008 646.889 771.32 C 659.817 779.621 686.063 787.268 695.691 798.322 C 696.747 799.533 693.194 808.777 693.146 811.995 C 692.96 824.616 691.674 840.23 692.173 852.583 C 745.175 877.161 798.462 907.209 851.353 932.844 C 864.634 939.281 881.302 939.141 890.759 947.988 C 900.446 957.05 909.148 978.804 916.22 989.552 C 921.592 997.716 938.995 1017.31 946.379 1024 L 0 1024 L 0 974.437 C 11.2381 964.62 7.73463 942.264 30.8384 927.939 C 56.4215 908.555 88.9266 909.239 115.99 897.419 C 173.556 872.277 231.707 845.042 286.865 815.036 C 291.628 812.445 285.813 763.85 284.533 756.815 C 290.287 756.153 314.867 753.993 312.418 746.169 C 306.865 728.427 319.561 725.272 336.207 718.869 C 332.022 696.363 331.408 692.537 317.709 674.332 C 315.728 671.7 315.81 666.512 311.908 662.823 C 306.975 663.721 287.796 680.258 283.17 680.496 C 281.825 676.829 291.508 660.107 293.006 655.114 C 294.282 650.859 295.026 647.411 295.889 643.02 C 287.675 624.408 273.235 623.665 263.607 608.575 L 263.658 593.641 C 251.238 588.601 238.257 579.521 226.366 573.039 C 212.823 565.657 208.724 551.79 204.142 538.137 C 205.063 533.989 205.954 529.62 207.112 525.55 C 198.537 508.066 180.956 486.759 171.983 468.184 C 167.001 457.871 162.798 426.916 151.282 422.381 L 149.384 422.892 C 146.871 431.656 166.231 458.896 159.572 463.121 C 155.899 461.983 132.215 427.041 130.89 423.473 C 120.746 396.148 120.515 363.426 127.779 335.379 C 129.995 326.824 142.015 310.741 145.475 300.816 C 149.011 290.548 147.816 280.919 150.39 270.188 C 152.687 260.607 167.578 244.232 169.635 237.048 C 177.608 209.211 176.714 205.289 197.044 183.57 C 218.956 160.159 240.914 137.955 271.325 125.053 C 284.152 119.36 286.556 119.316 300.489 117.567 z"/>
<path transform="translate(0,0)" fill="rgb(254,254,254)" d="M 399.028 475.483 C 405.966 491.462 405.418 504.713 415.88 520.719 C 430.576 543.201 449.029 540.97 473.128 541.219 C 477.1 541.26 481.217 540.089 485.124 539.577 C 512.385 533.076 549.406 532.563 571.845 514.722 C 586.034 503.44 578.299 476.261 585.061 461.444 C 588.629 453.623 593.601 452.169 600.939 449.424 C 600.625 479.708 615.886 534.856 626.527 563.877 C 612.848 577.287 615.708 573.878 597.552 574.102 C 596.992 574.109 588.527 579.276 587.094 580.159 C 595.842 585.584 600.125 592.965 610.58 599.378 C 635.491 597.677 643.002 587.534 647.657 564.143 C 644.735 555.86 637.929 543.358 633.692 535.246 C 625.024 518.651 619.299 505.972 613.476 488.225 C 623.984 499.302 626.739 503.582 640.755 509.874 C 643.163 509.49 645.604 509.291 648.029 509.008 C 668.505 506.621 687.146 497.98 706.995 492.899 C 710.407 531.743 705.353 541.073 693.839 577.576 L 674.271 641.817 C 666.603 667.252 661.407 694.813 653.419 720.937 C 647.491 716.875 639.068 713.199 632.29 710.766 L 631.202 710.267 C 624.424 710.307 625.043 710.898 621.717 717.135 C 622.867 723.426 624.401 729.659 625.031 735.949 C 620.994 736.659 615.608 728.074 612.558 726.18 C 610.731 737.226 609.821 738.599 603.39 747.597 C 603.246 742.685 603.458 727.699 599.414 725.28 C 593.608 728.573 593.592 742.8 589.341 745.265 C 574.759 740.611 587.056 735.782 584.09 728.75 C 581.436 727.128 576.217 726.355 573.555 728.288 C 571.844 731.855 571.685 738.204 571.33 742.355 C 565.181 740.355 554.594 734.345 549.28 729.739 C 548.67 729.21 550.845 724.875 548.522 721.257 C 543.645 722.19 547.356 725.424 542.888 727.524 C 534.544 724.877 520.474 716.591 512.004 712.5 C 485.171 699.683 459.143 686.431 433.951 670.705 C 411.662 656.791 402.283 654.048 392.688 627.913 C 384.149 604.655 350.037 596.083 329.411 585.055 C 303.641 571.497 284.458 548.082 276.235 520.149 C 268.299 493.682 272.26 472.507 301.298 463.805 C 307.208 465.678 320.27 470.311 324.008 475.169 C 341.381 497.746 347.222 527.452 364.098 550.463 C 370.904 559.744 375.974 569.367 384.192 577.786 C 391.94 573.236 395.907 568.11 401.743 561.414 C 399.431 568.131 395.965 575.801 393.387 583.004 C 397.793 578.776 406.829 567.617 409.865 562.49 C 407.394 558.82 404.971 555.119 402.597 551.386 C 399.445 553.149 397.165 554.784 393.567 554.915 L 392.643 553.638 C 394.164 550.315 396.73 549.331 399.949 547.521 C 390.635 534.145 390.218 535.54 387.711 519.352 L 377.841 513.648 C 380.671 509.773 384.523 504.914 384.407 499.98 C 380.746 494.912 376.818 500.319 373.044 492.041 C 374.139 482.487 391.148 477.469 399.028 475.483 z"/>
<path transform="translate(0,0)" fill="rgb(254,254,254)" d="M 612.558 726.18 C 617.664 722.174 612.306 719.706 621.717 717.135 C 622.867 723.426 624.401 729.659 625.031 735.949 C 620.994 736.659 615.608 728.074 612.558 726.18 z"/>
<path transform="translate(0,0)" fill="rgb(0,0,0)" d="M 303.533 492.13 C 311.671 491.59 315.66 492.939 322.278 497.775 C 333.178 505.738 369.979 571.41 367.206 580.72 C 361.087 581.906 353.63 573.625 347.251 571.958 C 330.146 572.863 334.242 569.42 327.015 556.245 C 325.626 553.713 314.854 551.293 314.887 547.077 C 314.947 539.463 321.76 532.39 326.517 527.13 C 320.066 520.059 317.136 514.135 311.281 506.897 C 304.371 505.414 305.811 513.634 299.603 517.198 C 296.633 517.014 297.799 517.405 295.136 515.086 C 292.05 507.157 297.136 497.103 303.533 492.13 z"/>
<path transform="translate(0,0)" fill="rgb(0,0,0)" d="M 628.78 617.374 C 632.485 617.261 632.3 616.608 634.503 618.619 C 633.864 634.808 611.101 631.907 600.602 633.803 C 569.911 639.346 551.059 648.806 518.951 646.585 C 515.23 645.746 514.554 645.691 511.972 642.792 C 511.428 639.755 511.205 640.929 512.731 638.368 C 515.191 638.515 532.229 639.95 532.859 639.82 C 553.991 635.481 575.647 627.85 596.439 622.226 C 604.922 619.931 619.885 618.465 628.78 617.374 z"/>
<path transform="translate(0,0)" fill="rgb(0,0,0)" d="M 627.864 641.074 L 629.123 642.566 C 630.043 649.84 614.936 661.88 609.326 665.486 C 606.4 665.404 604.128 662.946 601.662 660.962 C 598.022 657.468 595.194 655.932 596.647 650.785 C 601.046 646.314 617.381 645.859 627.864 641.074 z"/>
<path transform="translate(0,0)" fill="rgb(254,254,254)" d="M 524.41 419.473 C 526.118 419.292 525.734 419.443 527.55 420.318 C 542.005 440.394 535.306 487.889 535.064 514.327 C 499.977 523.03 486.786 523.198 452.273 527.078 C 447.343 524.699 444.556 522.75 440.091 519.717 C 439.696 519.364 439.306 519.005 438.92 518.641 C 425.809 506.252 417.897 480.192 417.475 462.191 C 430.568 435.42 496.662 422.143 524.41 419.473 z"/>
<path transform="translate(0,0)" fill="rgb(0,0,0)" d="M 504.852 434.248 C 510.51 433.272 519.374 435.945 525.136 437.312 L 525.585 438.807 L 526.26 438.213 C 518.499 441.472 516.037 437.281 501.824 443.799 C 506.086 447.603 515.741 453.635 515.867 458.954 L 514.178 460.389 C 504.975 461.738 496.283 446.558 487.829 447.981 C 479.465 458.401 499.456 463.121 477.148 481.828 C 468.509 482.229 463.667 482.607 455.647 478.731 C 450.075 476.038 447.896 472.456 441.779 473.65 C 441.105 476.324 441.046 476.74 441.229 479.488 C 445.873 488.913 461.579 492.135 462.87 499.383 L 460.982 500.287 C 447.592 499.182 415.519 484.609 428.9 467.33 C 446.39 444.743 478.188 439.18 504.852 434.248 z"/>
<path transform="translate(0,0)" fill="rgb(254,254,254)" d="M 408.699 156.938 L 409.331 157.84 C 409.205 160.983 399.79 175.463 397.556 179.504 C 392.48 188.689 389.19 196.568 385.242 206.187 C 388.836 205.025 394.061 203.36 397.508 204.603 C 395.13 211.457 373.672 239.224 368.097 249.672 C 375.827 244.844 394.483 236.235 403.5 231.677 C 405.266 236.573 405.893 238.847 409.154 242.919 C 412.636 244.191 414.166 242.065 419.68 241.186 C 423.041 241.739 425.817 245.198 428.328 247.718 C 437.4 233.908 449.294 220.799 459.412 207.458 C 465.297 212.831 481.365 225.178 488.14 228.783 C 488.864 221.441 491.587 193.777 495.804 189.031 C 498.817 193.231 497.254 231.159 498.503 239.968 C 499.793 249.068 501.432 257.85 503.354 267.094 L 486.738 283.925 C 480.982 275.804 471.59 260.991 463.563 256.068 C 460.053 255.83 461.054 255.926 457.573 258.058 C 445.645 268.388 444.234 278.793 440.289 293.39 L 427.392 293.606 C 427.36 293.946 427.332 294.287 427.295 294.628 C 427.25 295.042 427.146 295.762 427.136 296.167 C 426.926 304.188 410.861 325.075 405.855 333.335 C 402.612 316.268 397.201 298.046 392.932 281.095 C 391.65 276 388.469 271.202 387.389 267.686 C 386.662 265.321 390.32 257.672 390.052 252.793 L 388.559 251.727 C 384.217 252.075 382.135 252.461 379.978 256.417 C 383.861 266.691 377.65 272.94 371.774 281.009 C 364.162 276.705 362.905 273.305 357.542 270.16 C 355.053 270.348 344.934 278.645 341.589 280.959 C 334.581 277.141 332.078 274.452 327.116 268.614 C 330.901 259.238 332.851 258.217 340.513 251.837 C 344.227 254.919 350.699 261.449 355.395 259.779 L 355.586 260.819 C 355.828 255.948 346.647 247.351 343.171 243.18 C 346.965 232.319 347.906 232.602 356.017 225.412 L 355.471 224.217 L 352.74 224.582 L 352.281 222.866 C 360.008 204.232 371.65 188.833 383.097 172.381 C 393.38 168.655 399.948 163.23 408.699 156.938 z"/>
<path transform="translate(0,0)" fill="rgb(254,254,254)" d="M 644.658 256.562 C 652.759 263.031 644.261 271.945 668.589 283.779 C 671.185 304.221 682.913 332.55 691.99 351.368 C 697.309 362.395 703.498 369.01 707.934 381.888 C 675.644 381.493 644.887 391.537 616.629 406.275 C 606.154 411.254 605.03 415.404 597.13 422.965 C 592.666 427.237 574.82 422.031 572.146 416.789 C 567.788 408.25 575.209 390.691 577.654 381.433 C 616.276 355.079 612.911 349.195 624.731 304.37 C 627.251 294.814 640.002 265.663 644.658 256.562 z"/>
<path transform="translate(0,0)" fill="rgb(0,0,0)" d="M 657.414 347.618 C 662.311 349.404 664.463 350.62 669.023 353.181 C 674.122 355.303 689.043 360.123 690.793 364.493 C 688.3 366.791 678.754 369.056 675.143 369.931 C 650.278 375.958 629.588 385.623 607.772 398.982 C 618.956 380.03 632.797 372.679 653.585 365.356 C 657.772 363.881 667.026 362.098 670.309 359.9 C 669.792 358.455 670.233 358.869 669.246 358.048 C 665.07 355.032 661.186 351.165 657.414 347.618 z"/>
<path transform="translate(0,0)" fill="rgb(254,254,254)" d="M 206.904 270.173 C 223.449 257.444 244.657 233.798 261.224 218.808 C 260.511 227.264 259.848 237.122 257.948 245.283 C 255.85 254.294 252.771 262.474 251.158 271.727 C 263.183 265.972 275.356 257.099 287.192 250.109 C 286.85 258.647 286.412 267.588 287.106 276.079 C 287.93 286.151 289.807 295.975 290.333 306.089 C 286.275 306.199 282.863 306.191 278.807 306.033 L 277.72 304.536 C 277.77 301.523 277.911 299.968 276.5 297.159 C 258.603 321.006 255.862 287.007 251.823 283.57 C 242.375 288.639 234.156 332.784 217.446 328.724 C 210.771 327.102 205.951 318.377 210.113 311.625 C 219.439 296.492 225.097 306.966 235.065 313.378 C 232.573 309.396 223.577 293.43 221.479 292.228 C 219.535 292.975 211.001 302.289 206.181 305.796 C 200.948 302.715 196.775 299.966 191.775 296.548 C 195.683 290.135 198.356 282.829 202.465 277.331 C 206.15 279.386 209.481 281.667 213.688 281.779 L 215.515 280.778 C 215.271 277.196 213.879 276.164 210.968 273.623 C 209.626 272.459 208.271 271.309 206.904 270.173 z"/>
<path transform="translate(0,0)" fill="#fefefe" d="M 276.5 297.159 C 278.032 294.167 277.366 294.206 279.985 293.21 C 284.329 295.067 286.935 302.581 290.333 306.089 C 286.275 306.199 282.863 306.191 278.807 306.033 L 277.72 304.536 C 277.77 301.523 277.911 299.968 276.5 297.159 z"/>
<path transform="translate(0,0)" fill="rgb(254,254,254)" d="M 693.425 400.306 C 696.58 399.986 695.736 399.638 698.292 400.813 C 701.904 409.152 699.163 463.813 701.039 479.053 C 678.994 490.588 663.532 496.531 638.388 496.131 C 630.511 488.282 624.551 472.808 620.222 462.387 C 621.55 455.735 626.159 439.137 634.167 439 C 638.372 443.921 632.843 447.275 640.731 455.794 C 647.139 459.659 652.245 457.61 658.75 455.464 C 665.059 444.99 666.11 429.545 670.494 426.598 C 674.734 426.659 673.63 426.005 676.253 428.433 C 678.324 434.77 672.713 452.039 671.15 460.417 C 692.324 443.051 681.722 436.592 694.772 416.67 C 691.483 416.082 684.278 413.662 682.561 413.583 C 672.357 413.114 658.213 417.105 647.894 419.01 C 662.489 407.933 675.582 403.431 693.425 400.306 z"/>
<path transform="translate(0,0)" fill="rgb(254,254,254)" d="M 599.846 134.484 C 601.266 135.637 602.688 137.843 602.949 139.62 C 606.573 164.281 610.537 190.027 613.576 214.7 C 593.782 195.955 584.155 198.681 558.007 199.136 C 556.006 205.159 545.992 231.629 542.613 235.142 C 540.506 233.36 539.96 229.172 539.262 226.257 C 532.694 198.775 529.379 193.225 529.107 163.592 C 534.132 157.911 536.447 156.085 542.487 151.427 C 552.74 158.986 556.958 168.312 567.007 175.905 C 572.899 176.243 579.329 175.901 585.263 175.73 C 593.515 164.329 595.946 148.259 599.846 134.484 z"/>
<path transform="translate(0,0)" fill="rgb(254,254,254)" d="M 538.137 418.649 C 578.729 422.063 579.223 476.034 564.392 502.575 C 558.509 510.197 552.924 511.33 544.109 513.114 C 542.857 477.068 547.179 454.03 538.137 418.649 z"/>
<path transform="translate(0,0)" fill="rgb(254,254,254)" d="M 552.261 390.026 L 554.155 391.352 C 557.648 388.816 560.021 385.281 563.407 383.995 L 564.469 384.736 C 565.373 393.74 564.09 402.907 565.231 414.623 C 540.072 399.008 510.389 412.493 482.345 415.93 C 500.362 399.1 503.066 397.138 529.198 398.216 C 535.028 398.457 545.851 399.319 551.095 396.9 L 551.56 395.613 C 551.086 395.276 549.485 394.082 549.071 393.916 C 550.011 392.984 551.384 391.136 552.261 390.026 z"/>
<path transform="translate(0,0)" fill="rgb(254,254,254)" d="M 709.965 395.192 C 729.35 397.796 723.74 409.796 724.157 426.171 C 724.502 439.717 724.392 457.941 717.985 469.787 L 714.967 473.014 L 713.504 472.873 C 714.055 451.271 710.87 418.344 709.965 395.192 z"/>
<path transform="translate(0,0)" fill="rgb(254,254,254)" d="M 514.935 388.714 C 529.075 378.13 547.912 369.114 564.955 356.728 C 558.984 369.657 556.136 376.285 552.261 390.026 C 551.384 391.136 550.011 392.984 549.071 393.916 C 536.743 389.454 527.991 389.191 514.935 388.714 z"/>
<path transform="translate(0,0)" fill="rgb(254,254,254)" d="M 322.915 277.733 C 340.063 282.158 341.79 291.992 329.998 304.419 C 329.558 304.481 329.117 304.533 328.674 304.575 C 311.587 306.308 312.52 287.389 322.915 277.733 z"/>
<path transform="translate(0,0)" fill="rgb(254,254,254)" d="M 339.535 302.624 C 341.882 302.807 343.922 303.702 345.983 304.807 C 357.824 311.16 348.758 322.648 343.822 330.458 C 339.011 329.347 334.219 326.091 329.901 323.526 C 330.026 319.06 330.342 314.332 330.563 309.844 C 332.859 307.64 336.904 304.673 339.535 302.624 z"/>
<path transform="translate(0,0)" fill="rgb(254,254,254)" d="M 323.047 329.848 C 325.129 330.05 327.199 330.364 329.247 330.787 C 332.723 331.541 334.747 332.654 336.632 335.634 C 338.229 341.917 331.712 350.423 328.532 357.493 C 314.546 350.507 307.072 341.059 323.047 329.848 z"/>
<path transform="translate(0,0)" fill="rgb(254,254,254)" d="M 354.311 278.9 C 358.876 278.656 365.441 284.469 369.237 287.33 C 366.683 293.225 362.662 298.587 358.752 303.62 C 347.994 309.111 336.884 288.395 354.311 278.9 z"/>
<path transform="translate(0,0)" fill="rgb(254,254,254)" d="M 191.424 304.332 C 197.406 306.06 204.283 312.705 202.423 319.24 C 200.924 324.505 198.048 325.426 193.724 327.99 C 190.258 328.974 189.56 329.298 185.979 328.553 C 179.469 322.973 187.616 310.008 191.424 304.332 z"/>
<path transform="translate(0,0)" fill="rgb(254,254,254)" d="M 231.876 329.78 L 237.145 330.731 C 243.725 336.205 235.539 347.508 231.725 353.405 C 216.057 349.641 222.07 336.857 231.876 329.78 z"/>
<path transform="translate(0,0)" fill="rgb(254,254,254)" d="M 186.278 356.275 C 191.212 355.605 194.181 354.116 196.783 358.599 C 196.514 362.862 190.755 372.843 188.468 377.644 C 180.034 379.776 174.264 362.043 186.278 356.275 z"/>
<path transform="translate(0,0)" fill="rgb(254,254,254)" d="M 202.997 330.014 C 206.003 329.751 208.791 329.104 211.165 330.902 C 212.859 337.237 204.674 341.942 201.102 352.006 L 200.94 352.472 C 196.486 351.956 191.258 347.434 192.584 342.386 C 194.256 336.023 197.845 333.602 202.997 330.014 z"/>
<path transform="translate(0,0)" fill="rgb(254,254,254)" d="M 249.243 302.753 L 253.429 303.526 C 259.459 308.981 249.09 320.102 245.122 325.863 C 241.282 325.167 242.519 325.888 240.051 323.444 C 238.713 320.001 240.095 314.978 240.763 311.164 C 243.411 307.934 246.175 305.546 249.243 302.753 z"/>
<path transform="translate(0,0)" fill="rgb(254,254,254)" d="M 631.202 710.267 L 632.29 710.766 C 635.834 714.677 647.237 724.597 639.816 729.786 C 630.316 729.538 626.553 717.893 631.202 710.267 z"/>
<path transform="translate(0,0)" fill="rgb(254,254,254)" d="M 314.181 356.317 C 316.019 357.462 323.42 363.845 325.681 365.678 L 319.285 374.88 C 317.74 376.694 317.482 376.842 315.294 377.797 L 313.999 377.059 C 312.853 372.832 313.96 361.448 314.181 356.317 z"/>
<path transform="translate(0,0)" fill="rgb(254,254,254)" d="M 178.72 331.534 C 180.82 332.757 185.112 335.967 187.284 337.488 C 186.918 341.022 186.733 347.357 184.792 349.985 C 181.518 351.078 181.357 351.754 178.497 350.858 C 175.523 345.88 177.81 337.551 178.72 331.534 z"/>
<path transform="translate(0,0)" fill="rgb(254,254,254)" d="M 315.212 306.493 C 323.187 309.677 324.648 315.634 321.728 322.986 C 319.708 324.639 319.417 324.896 316.917 325.6 L 315.39 324.51 C 313.806 320.301 314.908 311.373 315.212 306.493 z"/>
</svg>
