<svg xmlns="http://www.w3.org/2000/svg" version="1.1" style="display: block;" viewBox="0 0 1024 1024" width="256" height="256" preserveAspectRatio="none">
<defs>
	<linearGradient id="Gradient1" gradientUnits="userSpaceOnUse" x1="495.195" y1="315.277" x2="494.177" y2="320">
		<stop class="stop0" offset="0" stop-opacity="1" stop-color="rgb(0,0,0)"/>
		<stop class="stop1" offset="1" stop-opacity="1" stop-color="rgb(22,16,26)"/>
	</linearGradient>
</defs>
<path transform="translate(0,0)" fill="rgb(0,0,0)" d="M 483.974 64.38 C 485.646 64.2903 487.322 64.3053 488.993 64.425 C 513.49 66.1128 568.789 76.4807 593.907 82.0318 C 614.824 94.0461 645.858 114.921 663.734 129.917 C 681.154 146.272 711.517 179.851 715.024 204.058 C 720.091 239.041 738.186 260.048 751.236 291.942 C 760.251 313.975 757.106 326.375 753.098 348.721 C 747.782 378.362 740.251 408.265 736.1 438.068 C 733.018 463.62 740.808 495.065 734.69 520.628 C 730.659 536.35 709.842 564.085 706.552 578.121 C 698.933 610.634 679.659 657.109 677.509 688.759 C 688.612 691.328 699.343 700.265 709.912 706.202 L 764.478 736.625 C 792.864 752.348 821.341 767.904 849.909 783.292 C 861.981 789.894 874.189 797.442 886.252 803.805 C 899.677 810.885 914.455 811.961 926.276 823.342 C 936.99 833.658 950.248 841.416 955.526 856.173 C 971.656 899.076 988.943 941.69 1003.86 985.023 C 1006.26 991.997 1007.09 1006.01 1007.77 1013.72 C 992.843 1014.99 973.098 1014.43 957.721 1014.47 L 867.504 1014.76 L 528.5 1015.92 L 149.52 1017.98 C 103.144 1018.06 54.5353 1019.87 8.41117 1018.15 C 7.55474 1008.08 7.98963 989.781 7.97923 979.087 L 7.94442 907.884 L 7.95135 817.184 C 7.95773 800.765 7.37224 784.075 8.25108 767.685 C 8.49654 763.107 8.61875 756.428 11.384 752.704 C 22.8393 737.278 115.711 686.367 136.872 674.706 C 143.801 670.887 150.699 666.84 157.868 663.493 C 175.54 655.243 191.754 649.552 204.922 634.24 C 215.732 621.67 215.307 604.073 224.291 590.607 C 231.827 579.311 249.686 574.684 254.79 564.62 C 256.842 560.574 235.561 494.389 232.81 486.834 C 229.44 477.573 221.916 473.54 217.305 465.375 C 210.381 453.111 202.525 418.815 193.463 410.865 C 190.997 408.701 187.059 407.193 184.073 405.8 C 186.619 392.287 189.859 351.473 190.13 337.57 C 187.08 338.561 185.041 339.457 181.838 339.206 C 179.359 337.245 179.406 336.456 180.569 333.281 C 185.435 320.004 186.684 305.837 190.521 292.204 C 191.624 288.157 193.116 284.227 194.977 280.468 C 199.174 271.846 220.15 241.687 226.802 231.59 L 255.041 188.747 C 258.477 183.533 268.53 167.071 272.317 163.527 C 317.951 120.826 371.285 89.3045 431.223 70.8247 C 443.313 67.0974 470.578 65.6915 483.974 64.38 z M 450.405 159.864 L 452.288 157.628 C 451.415 153.206 447.141 149.177 442.779 148.253 L 440.042 151.297 C 441.575 154.987 446.252 155.95 450.405 159.864 z M 457.063 151.316 C 457.45 145.696 453.426 139.071 448.04 137.316 C 448.225 142.362 452.343 149.806 457.063 151.316 z"/>
<path transform="translate(0,0)" fill="rgb(254,254,254)" d="M 519.232 169.574 C 521.662 170.2 520.775 169.735 522.542 171.643 C 522.611 175.065 519.153 178.962 516.715 181.124 C 491.544 203.431 482.14 225.283 474.603 257.698 C 488.137 227.716 506.866 195.423 536.79 179.303 C 549.534 172.438 557.678 174.545 563.553 187.311 C 564.028 185.765 564.514 184.223 565.01 182.684 C 565.486 181.203 566.537 177.105 567.986 176.407 C 575.458 172.806 624.317 193.459 628.396 190.488 C 630.237 189.147 629.687 185.411 632.379 184.027 C 644.924 205.135 651.913 238.251 650.54 262.577 C 649.981 272.47 647.508 286.098 646.104 296.379 L 646.409 295.893 C 650.833 288.755 655.424 280.377 657.64 272.3 C 662.739 253.716 662.881 218.183 658.533 199.778 C 660.862 203.181 664.718 208.619 667.191 212.811 C 670.504 218.426 675.27 225.772 677.301 232.749 C 684.699 258.163 691.516 289.623 693.327 316.064 C 693.452 317.881 677.513 315.215 673.233 316.184 C 661.893 318.75 633.199 329.736 623.892 335.243 C 638.814 331.888 687.228 317.975 696.271 334.709 C 700.861 343.202 716.713 375.052 704.87 381.607 C 704.075 381.336 698.307 379.408 698.01 379.497 C 670.342 387.779 637.71 389.154 614.725 408.536 C 613.757 404.133 611.891 393.698 609.292 390.827 L 607.579 391.223 C 605.542 394.654 605.979 400.417 605.478 404.681 C 603.774 419.211 597.12 429.082 586.315 438.137 C 588.954 445.942 591.144 457.559 593.549 465.975 C 602.892 498.667 608.384 524.083 608.032 558.41 C 599.447 568.129 586.989 585.348 572.505 579.157 C 562.361 574.821 509.814 560.013 506.413 554.83 C 505.443 546.99 509.512 538.25 512.29 530.821 C 497.849 545.785 503.125 552.524 489.664 565.694 C 476.334 578.736 456.164 571.474 446.638 580.985 C 438.125 589.486 425.623 619.783 425.244 632.333 C 434.817 615.361 438.017 601.937 450.132 584.688 C 461.926 581.49 503.362 574.662 514.615 577.823 C 533.218 583.834 552.744 597.944 562.647 614.982 C 566.874 622.254 565.934 633.462 575.131 635.713 L 576.924 634.348 L 576.853 632.536 C 568.228 625.945 570.125 619.986 569.785 609.438 C 577.525 607.26 600.155 600.416 606.823 604.301 C 613.642 608.274 621.8 618.313 630.311 622.591 L 631.151 623.008 L 637.377 639.381 C 610.774 637.051 600.977 639.574 575.107 646.137 C 566.36 648.45 550.622 646.302 542.709 647.649 C 528.895 649.999 482.581 630.635 474.86 640.472 C 475.212 649.509 486.097 649.146 493.127 649.128 C 503.263 649.101 511.726 649.647 521.721 651.271 C 538.66 655.176 556.103 656.422 573.425 654.964 C 578.872 654.519 604.34 648.421 605.473 648.819 C 606.976 654.632 604.202 664.767 601.615 670.31 C 582.496 675.374 558.571 675.754 538.717 676.092 L 533.775 687.175 C 572.782 699.331 582.58 694.917 619.562 687.341 C 623.066 697.582 624.728 711.482 626.947 722.63 C 619.11 726.759 609.711 733.13 601.608 736.588 C 585.003 743.674 561.17 741.76 543.174 741.657 C 531.612 741.1 518.974 741.251 507.969 737.287 C 491.659 731.413 478.982 719.67 464.598 710.525 C 456.299 705.248 447.438 700.643 439.056 695.456 C 414.648 680.546 390.895 664.59 367.862 647.633 C 352.682 636.457 343.463 632.281 336.806 613.513 C 328.576 590.31 321.407 568.555 322.415 543.545 L 310.83 552.627 C 293.708 539.452 295.204 529.414 284.991 514.377 C 268.524 490.134 252.316 477.733 256.054 445.086 C 258.311 425.377 259.471 416.992 275.472 403.132 C 283.041 405.962 284.915 406.552 290.837 412.171 C 291.971 416.052 293.819 420.887 293.197 424.745 L 292.002 425.062 C 288.034 421.647 284.788 414.98 282.114 410.252 C 248.463 432.729 263.957 466.046 282.478 491.638 C 296.952 511.637 305.823 519.193 324.497 535.353 C 317.667 520.094 309.29 505.481 303.132 490.102 C 297.514 476.07 302.738 469.479 304.198 456.304 C 304.62 452.5 297.65 443.544 300.511 438.536 C 301.517 439.329 326.029 497.444 329.475 504.607 C 328.927 501.075 327.076 494.845 327.037 491.547 C 326.915 481.228 328.898 468.57 328.258 458.422 C 327.262 442.634 323.9 426.29 324.074 410.386 C 324.327 387.174 328.855 363.01 347.205 347.053 C 355.038 340.241 360.863 337.584 368.908 329.53 C 363.984 326.006 359.447 323.18 355.643 318.29 C 341.573 300.205 350.356 257.835 353.597 235.924 C 351.175 232.872 350.29 235.858 347.204 232.627 C 357.859 205.973 375.653 202.284 398.466 189.412 C 399.611 188.766 401.221 184.348 401.769 182.916 C 415.3 180.988 429.297 182.4 442.527 181.19 C 459.694 179.621 459.509 174.442 476.694 181.385 C 472.646 194.885 455.98 261.373 466.397 268.766 C 469.001 266.201 467.5 250.928 468.911 245.599 C 474.229 225.518 482.578 195.686 493.726 178.634 C 498.04 172.034 510.018 172.511 515.51 173.962 C 516.833 174.311 518.336 171.067 519.232 169.574 z"/>
<path transform="translate(0,0)" fill="rgb(0,0,0)" d="M 434.269 380.394 C 462.215 377.378 462.61 386.853 479.183 388.113 C 480.62 385.022 480.288 384.435 483.243 385.498 C 504.292 393.071 525.596 400.273 546.817 407.269 C 546.818 407.269 552.181 405.693 552.751 405.526 L 553.943 406.515 C 554.634 422.341 533.116 429.157 522.477 434.93 C 520.959 435.754 517.481 440.278 516.3 441.823 C 518.24 446.751 529.281 464.333 533.155 472.452 C 528.115 475.911 522.138 478.849 517.248 482.205 C 508.316 488.334 499.958 497.971 492.543 505.946 C 485.869 506.132 478.55 505.873 471.819 505.758 C 483.467 499.614 497.227 486.697 505.101 476.389 C 500.184 477.862 492.647 481.616 487.703 483.912 C 494.59 469.239 500.792 471.174 500.16 456.806 C 495.344 452.161 486.425 438.542 481.516 437.466 L 480.266 438.814 C 479.286 443.259 481.357 449.175 482.538 453.768 C 476.896 472.081 470.355 476.473 452.229 480.39 C 447.623 478.428 444.529 477.142 440.645 473.894 C 435.738 469.791 426.808 458.138 420.152 458.784 L 419.653 460.785 C 423.161 471.259 446.29 486.863 457.713 486.947 C 462.303 486.981 471.668 485.82 473.971 489.021 L 473.133 491.552 C 472.618 492.109 471.703 492.924 470.989 493.097 C 451.734 498.151 428.871 482.134 418.282 466.855 C 410.344 455.402 418.667 458.699 403.422 450.572 C 404.646 448.98 411.085 448.397 412.127 447.088 C 427.231 428.12 447.287 425.129 472.577 423.789 L 478.586 417.282 C 470.215 417.236 430.723 420.469 427.119 419.508 L 426.478 418.301 C 427.407 417.382 434.714 414.622 436.923 413.56 C 429.359 412.067 404.956 416.408 396.562 417.847 C 394.102 415.622 391.953 411.804 390.138 408.916 C 390.05 405.221 389.483 405.92 391.394 403.636 C 395.445 403.068 396.899 403.523 398.628 400.04 C 397.484 397.702 394.109 397.219 390.975 396.045 L 390.075 394.06 C 392.014 383.176 424.8 381.372 434.269 380.394 z"/>
<path transform="translate(0,0)" fill="url(#Gradient1)" d="M 464.014 310.384 C 481.905 308.313 517.187 317.303 530.435 329.392 C 519.802 325.965 509.575 324.027 498.248 321.327 C 488.258 318.946 475.276 315.79 465.295 312.453 C 464.788 311.635 464.361 310.945 464.014 310.384 z"/>
<path transform="translate(0,0)" fill="rgb(254,254,254)" d="M 241.685 298.936 C 244.084 289.986 243.649 289.256 242.99 279.772 C 244.394 279.933 246.622 280.494 247.284 279.748 C 249.772 276.942 263.138 264.795 263.68 262.374 L 263.003 259.686 C 273.476 244.581 312.371 235.1 330.434 229.974 C 329.441 241.046 326.13 254.459 323.623 265.47 C 319.409 266.569 313.269 268.265 310.192 271.582 L 310.316 273.157 C 313.995 274.871 319.78 276.46 321.301 279.507 C 320.028 285.717 313.291 289.025 308.549 293.279 C 304.658 296.77 302.924 292.478 300.286 295.644 C 303.672 299.065 303.69 297.986 303.99 301.852 C 302.788 303.879 301.878 305.271 301.022 307.498 C 305.452 307.05 315.613 301.387 323.244 305.857 L 324.03 307.623 L 323.316 308.744 C 304.882 312.38 299.38 314.76 281.512 322.542 C 281.467 329.022 288.674 334.107 287.141 340.017 C 283.229 343.745 256.093 359.462 250.734 356.053 L 250.81 353.421 L 251.274 353.109 C 253.213 351.779 253.303 351.704 254.676 349.847 C 254.608 343.891 250.27 346.27 254.685 341.466 C 257.355 338.561 262.735 334.843 266.057 332.39 L 264.296 331.12 C 257.953 332.919 250.443 335.243 244.098 336.512 L 263.024 317.923 C 263.349 314.496 263.609 310.844 264.244 307.485 L 248.344 313.149 L 240.198 306.725 C 245.898 303.376 260.006 295.438 262.277 289.587 L 260.651 288.52 C 250.993 291.51 249.834 293.067 241.685 298.936 z"/>
<path transform="translate(0,0)" fill="#fefefe" d="M 264.296 331.12 C 267.693 328.962 271.22 326.279 275.154 325.85 C 274.743 328.732 268.485 330.684 266.057 332.39 L 264.296 331.12 z"/>
<path transform="translate(0,0)" fill="rgb(254,254,254)" d="M 647.17 481.829 C 669.271 473.536 675.738 477.271 680.448 450.489 C 683.815 449.53 685.793 451.748 687.357 454.495 C 688.625 459.503 686.927 467.079 684.078 471.361 L 683.694 471.944 C 679.764 477.823 670.957 485.163 665.916 490.569 C 674.938 486.804 683.025 483.896 691.206 478.475 C 692.698 481.583 695.372 485.938 694.493 489.052 C 692.587 490.887 692.149 490.836 689.496 491.563 L 688.863 493.485 L 689.698 495.052 C 692.656 495.261 694.006 494.99 696.862 494.569 C 703.723 502.715 685.905 538.531 681.71 547.086 C 674.162 543.931 663.693 540.658 656.982 537.62 C 654.619 531.616 646.092 510.07 648.638 508.719 C 666.988 498.988 642.46 498.981 642.035 485.951 C 643.466 484.305 644.212 483.471 645.836 482.024 L 647.17 481.829 z"/>
<path transform="translate(0,0)" fill="rgb(254,254,254)" d="M 381.104 137.78 C 384.826 138.121 385.607 138.19 389.129 139.466 C 389.869 141.436 389.901 141.677 391.2 143.295 L 393.95 142.882 L 396.243 139.639 C 400.595 139.319 404.013 142.317 407.352 145.109 L 407.301 146.538 C 401.55 147.646 400.305 147.957 395.66 151.502 L 395.274 151.8 C 395.092 157.321 394.302 162.858 393.63 168.347 C 389.46 170.965 373.527 177.941 372.531 180.468 C 374.95 181.321 375.89 181.71 378.132 182.949 L 378.066 184.504 L 376.887 185.249 C 374.17 184.802 364.198 181.865 362.248 178.951 C 362.065 178.677 362.655 175.436 361.376 173.19 C 354.639 172.773 358.651 175.233 351.23 172.398 C 344.482 170.102 336.457 170.613 331.563 168.298 L 331.219 166.446 C 339.3 155.32 349.004 166.748 359.665 163.28 C 358.172 160.455 351.498 158.954 347.721 154.824 L 348.661 153.649 C 356.409 152.241 369.277 153.191 377.137 154.299 C 373.918 152.157 362.469 142.14 361.996 141.951 C 368.033 142.466 372.058 143.688 377.864 144.683 C 379.4 142.762 380.199 140.127 381.104 137.78 z"/>
<path transform="translate(0,0)" fill="rgb(254,254,254)" d="M 422.874 118.849 C 431.473 118.783 439.476 128.818 445.321 134.752 C 441.12 139.225 437.184 147.786 431.223 148.405 C 427.475 147.841 425.36 145.101 422.604 142.391 C 413.203 136.347 407.785 133.921 397.328 130.136 C 406.74 127.116 423.028 127.127 426.023 124.665 L 426.226 122.537 L 422.874 118.849 z"/>
<path transform="translate(0,0)" fill="rgb(254,254,254)" d="M 306.248 219.145 C 310.659 218.885 314.421 218.607 318.723 219.804 L 318.695 220.338 C 311.158 224.779 309.977 223.33 309.85 232.104 C 306.424 236.462 282.085 240.913 275.791 241.967 L 258.714 245.815 C 273.228 232.366 287.402 224.566 306.248 219.145 z"/>
<path transform="translate(0,0)" fill="rgb(254,254,254)" d="M 305.465 326.007 C 315.131 326.893 325.189 346.784 305.288 353.014 C 299.446 351.976 292.805 346.313 293.802 339.858 C 294.927 332.579 300.005 329.912 305.465 326.007 z"/>
<path transform="translate(0,0)" fill="rgb(254,254,254)" d="M 284.757 439.654 C 285.597 440.415 286.727 441.357 287.14 442.351 C 289.139 447.165 298.25 449.907 303.293 451.788 C 296.4 452.765 290.991 452.802 284.031 452.938 C 283.671 463.904 286.021 474.92 287.181 486.102 L 286.508 487.619 L 285.145 487.075 C 263.291 455.246 276.436 474.527 278.46 447.488 C 280.038 445.073 282.832 441.941 284.757 439.654 z"/>
<path transform="translate(0,0)" fill="rgb(254,254,254)" d="M 530.311 121.081 C 543.089 124.534 548.572 131.985 554.263 143.057 C 545.803 136.682 540.849 133.499 531.336 129.043 C 526.633 130.718 523.828 131.967 519.344 134.179 C 511.542 139.087 504.306 146.87 497.733 153.465 C 498.952 151.057 500.214 148.67 501.518 146.306 C 509.225 132.462 515.047 125.456 530.311 121.081 z"/>
<path transform="translate(0,0)" fill="rgb(254,254,254)" d="M 673.595 411.959 C 686.628 411.365 691.346 430.82 693.92 440.064 L 682.103 429.728 L 675.602 425.106 C 666.666 424.361 663.223 424.15 654.316 425.013 C 661.562 419.364 665.512 416.245 673.595 411.959 z"/>
<path transform="translate(0,0)" fill="rgb(254,254,254)" d="M 410.466 149.083 C 415.424 149.585 425.807 157.91 426.008 163.169 C 422.242 164.753 419.224 161.039 412.801 161.927 C 405.141 160.158 406.05 162.913 401.991 169.677 L 401.171 169.143 C 401.164 169.14 401.157 169.136 401.15 169.132 C 400.823 156.384 400.257 156.796 410.466 149.083 z"/>
<path transform="translate(0,0)" fill="rgb(254,254,254)" d="M 308.021 314.25 C 314.299 313.943 328.54 312.053 332.619 316.521 C 331.654 319.777 331.019 319.373 327.735 321.918 C 318.808 328.951 308.494 323.972 308.021 314.25 z"/>
<path transform="translate(0,0)" fill="rgb(214,215,213)" d="M 645.836 482.024 C 639.525 480.25 634.01 476.374 630.203 471.038 C 628.254 468.299 626.983 466.175 627.508 463.046 L 629.573 463.431 C 631.728 465.179 645.962 479.437 647.17 481.829 L 645.836 482.024 z"/>
<path transform="translate(0,0)" fill="rgb(214,215,213)" d="M 299.671 356.975 C 303.317 358.741 302.265 357.648 303.949 360.916 C 304.368 367.663 300.719 371.838 296.957 377.344 L 295 377.839 L 294.226 376.557 C 293.488 366.843 294.928 365.335 299.671 356.975 z"/>
<path transform="translate(0,0)" fill="rgb(214,215,213)" d="M 310.272 360.249 C 315.913 364.126 318.296 361.74 323.282 364.472 L 322.628 365.853 L 319.638 366.849 C 314.988 368.388 314.717 370.58 310.532 370.699 C 309.182 368.166 310.015 363.358 310.272 360.249 z"/>
<path transform="translate(0,0)" fill="rgb(214,215,213)" fill-opacity="0.988235" d="M 442.779 148.253 C 447.141 149.177 451.415 153.206 452.288 157.628 L 450.405 159.864 C 446.252 155.95 441.575 154.987 440.042 151.297 L 442.779 148.253 z"/>
<path transform="translate(0,0)" fill="rgb(214,215,213)" fill-opacity="0.988235" d="M 448.04 137.316 C 453.426 139.071 457.45 145.696 457.063 151.316 C 452.343 149.806 448.225 142.362 448.04 137.316 z"/>
<path transform="translate(0,0)" fill="rgb(214,215,213)" d="M 285.616 353.349 C 291.122 352.325 295.845 351.154 298.616 356.768 C 294.279 357.162 286.472 358.707 285.616 353.349 z"/>
<path transform="translate(0,0)" fill="rgb(214,215,213)" d="M 332.868 337.008 C 333.817 337.745 333.395 337.284 333.693 338.892 L 327.127 347.949 C 325.631 345.597 325.412 345.276 325.389 342.508 C 326.571 339.648 329.993 338.458 332.868 337.008 z"/>
</svg>
