<svg xmlns="http://www.w3.org/2000/svg" version="1.1" style="display: block;" viewBox="0 0 1024 1024" width="256" height="256" preserveAspectRatio="none">
<path transform="translate(0,0)" fill="rgb(0,0,0)" d="M 380.94 136.726 C 389.612 121.885 392.617 116.026 411.379 110.3 C 434.89 103.124 447.446 117.217 468.862 120.03 C 477.742 121.366 487.294 120.753 496.138 121.871 C 517.571 124.583 539.448 126.105 560.828 129.105 C 598.329 134.366 648.583 133.136 671.245 169.217 C 685.287 191.575 695.627 217.559 707.25 241.373 C 716.02 259.393 725.506 277.188 732.749 295.887 C 738.575 310.929 742.593 328.202 747.313 343.524 C 754.706 369.402 755.178 394.948 761.291 421.146 C 767.603 448.196 781.743 474.639 788.967 501.461 C 799.405 540.217 808.121 587.334 809.066 627.677 C 809.264 636.128 809.776 645.089 808.169 653.165 C 807.067 657.563 795.063 651.262 792.347 650.085 C 789.803 664.45 786.885 677.088 783.486 691.3 C 780.772 688.196 777.541 683.706 773.794 682.504 C 761.364 682.905 739.41 724.628 731.516 727.879 C 726.142 727.005 724.88 725.53 720.284 728.804 C 706.726 738.465 709.429 751.346 689.955 746.778 C 680.408 760.182 683.801 763.926 688.966 778.837 C 700.321 787.085 722.682 796.32 736.634 804.013 L 826.496 853.804 C 840.026 861.334 861.902 871.863 873.212 881.584 C 879.663 887.129 894.425 907.256 900.837 914.321 C 908.548 922.818 914.795 942.426 921.306 952.397 C 926.555 961.857 929.805 970.125 933.957 979.937 C 937.344 987.94 943.837 997.059 946.48 1005.6 C 943.584 1009.78 891.911 1007.96 884.605 1007.92 L 773.529 1007.95 L 429.96 1007.93 L 316.004 1007.92 C 296.697 1007.92 274.697 1007.42 255.574 1008.07 C 259.513 998.221 262.944 988.179 265.854 977.981 C 267.764 971.198 274.72 942.281 278.509 937.125 C 301.995 905.169 344.142 888.622 377.597 869.259 C 386.503 864.104 404.617 856.696 409.981 849.57 C 419.184 837.347 427.674 815.434 434.049 801.451 C 419.027 792.246 404.404 783.943 390.341 773.118 C 388.716 771.867 387.73 771.647 385.796 771.961 C 385.494 776.313 385.822 778.322 382.986 781.179 C 372.042 772.857 350.128 740.778 337.728 730.712 C 337.675 730.67 333.933 729.908 333.59 729.871 C 332.326 732.382 329.317 738.878 326.893 739.589 C 320.957 737.233 307.033 715.857 302.933 709.58 L 299.265 708.977 C 295.35 704.132 289.439 697.226 286.4 692.075 C 281.871 693.077 279.347 694.026 275.011 692.355 C 266.431 689.049 264.893 691.609 257.212 693.604 C 254.955 684.349 241.633 633.97 231.781 635.086 L 227.882 638.738 C 223.043 636.01 223.338 626.092 221.91 620.768 C 208.341 624.513 194.941 628.846 181.748 633.756 C 159.418 641.986 140.92 651.418 116.638 652.135 C 88.4964 652.966 81.6038 650.801 59.3884 634.364 C 60.173 630.154 62.6183 614.43 64.2193 611.377 C 73.9424 593.259 95.0804 581.268 110.965 568.86 C 125.691 557.358 144.383 550.643 158.818 538.962 C 177.558 523.796 194.132 503.602 213.396 489.33 C 208.934 465.353 203.502 437.541 200.802 413.315 C 197.774 386.139 200.321 355.441 199.521 328.025 C 199.527 311.611 208.692 284.991 217.508 271.103 C 222.605 263.074 240.774 248.749 248.822 241.747 L 291.646 204.222 C 308.067 189.788 325.054 173.473 341.951 159.776 C 352.032 151.603 369.57 143.721 380.94 136.726 z"/>
<path transform="translate(0,0)" fill="rgb(254,254,254)" d="M 521.164 381.147 C 525.41 389.2 531.277 412.74 535.402 414.982 C 539.182 413.812 540.577 410.266 542.402 406.799 L 543.278 405.112 C 549.468 429.606 552.718 463.277 555.48 488.65 C 561.505 482.692 563.073 480.825 568.262 474.007 C 572.506 484.442 573.165 486.317 582.015 493.172 C 580.916 504.746 578.059 513.054 575.851 523.428 C 572.966 536.985 561.099 581.981 562.867 594.454 C 566.741 594.061 564.966 590.87 568.866 591.508 C 571.678 596.668 570.771 602.136 573.998 605.115 L 575.894 605.365 C 578.967 601.73 583.931 589.501 586.738 584.624 C 590.395 578.271 592.015 576.492 596.691 570.955 C 596.64 586.863 599.489 603.061 598.93 618.768 C 598.375 634.335 588.158 665.692 580.44 679.175 C 577.421 684.45 572.849 689.212 568.56 693.478 C 546.435 715.485 473.813 777.462 443.156 777.07 C 437.338 776.996 432.116 773.853 427.521 770.558 C 412.314 759.653 399.645 744.797 385.495 732.509 C 371.965 720.761 356.164 711.047 343.937 697.954 C 337.36 690.809 331.704 682.869 327.099 674.319 C 318.668 658.89 294.171 597.184 300.376 582.637 C 308.746 576.322 319.244 591.312 328.699 588.168 C 330.123 585.406 330.016 586.621 329.081 583.633 C 320.815 575.325 308.047 572.073 315.184 558.192 L 316.682 557.562 C 319.257 559.54 320.86 562.788 323.096 565.312 C 330.974 574.202 345.379 576.888 353.128 566.355 C 357.243 560.761 356.148 555.579 355.476 549.001 C 358.992 552.529 364.293 559.502 369.147 558.685 C 369.764 557.326 370.221 556.788 371.053 555.572 C 375.079 554.209 373.977 554.634 378.581 555.538 C 381.418 558.258 380.611 558.281 383.988 558.971 L 385.396 557.498 C 385.077 550.664 364.077 517.043 359.199 511.402 C 387.299 481.474 422.77 454.246 450.047 423.533 C 477.435 392.695 480.133 388.941 521.164 381.147 z"/>
<path transform="translate(0,0)" fill="rgb(0,0,0)" d="M 456.225 516.512 C 461.442 510.184 465.449 506.508 472.184 501.996 C 473.326 501.231 473.092 500.635 473.055 499.362 C 470.275 499.703 467.488 499.99 464.696 500.223 C 460.956 497.391 464.828 497.748 461.955 494.352 C 458.698 495.435 455.411 496.423 452.097 497.315 C 450.023 497.878 450.784 497.989 449.251 497.11 C 452.446 490.257 465.048 480.276 472.137 478.698 C 482.929 476.295 520.038 467.549 526.738 477.329 L 525.663 478.706 C 520.564 479.938 500.276 480.884 493.042 481.508 C 494.352 482.606 495.369 483.642 496.956 484.256 L 497.462 484.498 C 507.043 489.164 532.835 485.635 542.26 489.264 C 553.714 493.675 557.672 500.931 571.553 507.053 C 563.127 527.332 559.902 561.478 529.574 565.123 C 524.972 565.676 508.443 565.562 508.246 559.61 C 508.75 559.038 509.356 558.35 510.065 557.546 C 515.956 557.528 525.743 560.396 530.829 557.961 C 536.496 555.248 541.927 550.448 546.968 546.207 C 517.767 554.447 508.289 546.457 497.402 520.552 C 500.215 515.911 503.681 510.542 501.403 505.203 L 499.546 504.934 C 496.184 508.355 492.561 510.216 488.312 512.663 C 480.004 517.525 480.336 528.105 478.017 536.52 C 476.559 541.811 473.827 545.168 467.36 543.508 C 465.654 543.07 465.968 542.809 465.177 541.145 C 466.327 530.458 471.669 520.894 476.215 511.099 L 456.225 516.512 z"/>
<path transform="translate(0,0)" fill="#ffffff" d="M 493.042 481.508 C 494.352 482.606 495.369 483.642 496.956 484.256 C 489.154 490.191 478.708 489.032 469.223 488.661 C 477.709 484.755 483.977 483.113 493.042 481.508 z"/>
<path transform="translate(0,0)" fill="rgb(0,0,0)" d="M 385.508 578.955 C 388.308 579.837 388.685 579.953 390.542 582.202 C 394.245 593.261 385.992 626.434 382.642 638.048 C 396.531 647.427 402.056 645.168 417.539 647.835 C 419.832 648.23 419.671 648.611 420.563 650.201 C 419.993 653.68 417.427 655.759 414.95 658.367 C 409.859 664.473 374.877 645.741 376.013 640.171 C 380.558 617.892 385.053 602.133 385.508 578.955 z"/>
<path transform="translate(0,0)" fill="rgb(0,0,0)" d="M 407.106 714.81 C 425.025 714.088 403.104 726.917 438.038 721.628 C 442.88 723.588 449.947 725.874 452.793 730.075 C 452.653 733.182 453.047 731.956 450.561 734.793 C 431.922 747.029 407.173 741.237 407.106 714.81 z"/>
<path transform="translate(0,0)" fill="rgb(0,0,0)" d="M 395.779 689.019 C 409.326 688.842 434.175 696.461 448.107 698.856 C 452.821 699.667 459.741 696.381 463.351 699.124 L 462.719 700.338 L 460.516 700.983 C 455.159 702.596 450.467 703.673 445.847 706.889 C 430.196 706.152 423.528 705.848 408.297 701.907 C 404.562 696.15 400.894 693.52 395.779 689.019 z"/>
<path transform="translate(0,0)" fill="rgb(0,0,0)" d="M 480.694 439.184 L 481.845 439.303 L 481.866 440.351 C 474.644 445.423 464.336 450.292 456.455 454.86 C 446.015 460.911 435.154 468.325 424.333 473.346 C 422.866 472.612 422.342 471.467 421.417 470.077 C 421.281 468.393 420.817 466.719 421.785 465.48 C 431.297 453.301 466.774 443.263 480.694 439.184 z"/>
<path transform="translate(0,0)" fill="rgb(254,254,254)" d="M 432.765 145.474 C 433.889 145.341 434.541 145.549 435.671 145.728 C 439.386 150.738 453.891 191.368 458.264 201.044 C 407.034 214.124 348.753 221.581 306.872 256.669 C 303.765 259.272 298.087 261.784 294.345 263.499 C 298.055 265.062 299.833 265.821 303.214 267.958 C 304.917 271.995 303.54 283.993 302.885 288.67 C 300.54 291.567 299.689 290.003 294.955 291.847 C 292.274 297.255 295.688 318.508 297.249 324.909 C 290.503 328.401 281.808 331.698 274.644 334.619 C 273.293 327.899 271.195 307.435 267.944 304.19 C 255.938 303.202 258.482 315.155 260.099 323 C 261.801 331.256 263.734 339.594 265.826 347.759 C 279.289 340.64 287.375 337.849 301.763 333.492 C 304.564 340.276 308.042 347.635 311.06 354.396 C 304.416 356.298 285.275 360.547 284.14 367.338 C 285.206 368.983 287.466 372.603 289.023 372.441 C 293.524 371.972 307.146 364.595 311.331 362.716 C 312.496 368.63 313.86 372.689 315.723 378.369 C 308.274 381.201 291.54 389.507 289.428 397.554 C 290.304 401.271 289.618 399.864 292.526 402.875 C 298.18 404.323 310.625 396.858 317.64 393.996 C 320.764 396.739 323.441 402.914 325.385 406.799 C 316.853 414.694 301.885 418.662 299.107 424.127 C 304.181 427.052 313.318 423.35 318.638 421.738 C 306.067 431.647 295.627 434.715 281.863 442.191 C 262.724 452.588 244.75 462.581 227.384 475.701 C 226.402 462.792 222.874 443.841 221.159 430.307 C 217.644 404.6 215.791 378.692 215.613 352.746 C 215.248 329.496 213.736 312.915 230.093 294.074 C 246.571 275.095 264.396 259.7 283.153 243.202 C 309.424 220.095 335.101 196.215 363.779 175.967 C 379.977 164.415 397.025 156.462 413.816 146.135 L 432.765 145.474 z"/>
<path transform="translate(0,0)" fill="rgb(0,0,0)" d="M 404.329 175.922 C 407.826 176.327 409.07 176.271 412.074 178.14 C 415.503 185.699 402.873 191.396 397.34 193.882 C 394.541 195.223 393.263 194.902 391.178 193.179 C 389.124 183.602 397.038 179.11 404.329 175.922 z"/>
<path transform="translate(0,0)" fill="rgb(254,254,254)" d="M 456.184 387.229 L 457.604 388.107 C 457.203 396.209 384.363 461.627 373.623 470.887 C 342.522 497.703 302.224 536.891 262.306 550.265 C 233.973 559.758 192.844 560.751 162.977 567.48 C 140.751 571.622 125.358 582.86 107.767 583.147 L 106.963 583.021 L 106.457 582.112 C 110.318 578.317 126.334 570.402 132.002 567.286 C 162.316 550.623 185.858 529.765 210.195 505.57 C 220.516 495.31 235.275 484.1 246.76 474.509 C 272.276 453.201 304.746 437.55 334.609 423.103 C 340.688 420.226 362.709 414.34 370.23 412.098 C 398.137 403.78 428.031 394.117 456.184 387.229 z"/>
<path transform="translate(0,0)" fill="rgb(254,254,254)" d="M 658.696 423.361 C 673.097 428.5 676.816 439.499 663.573 448.921 C 655.105 454.947 654.753 463.144 656.756 472.967 C 657.658 477.39 671.27 477.595 672.505 484.409 C 673.609 490.499 668.113 498.687 662.3 500.522 C 659.44 501.362 655.907 498.809 653.525 497.381 C 645.996 501.254 637.916 534.873 626.767 537.84 L 625.292 536.169 C 624.264 530.077 628.087 516.873 625.525 513.62 C 622.576 515.024 619.969 518.916 617.96 521.536 C 607.868 534.705 594.18 543.731 580.813 553.398 C 583.448 547.413 585.57 541.79 587.865 535.673 C 590.387 529.581 595.345 517.81 595.359 511.408 L 594.115 510.364 C 590.638 511.941 588.201 516.408 585.963 519.696 C 587.938 511.72 599.096 469.651 605.442 468.263 C 607.083 471.275 606.228 479.603 606.139 483.542 C 611.18 476.03 615.281 466.483 619.766 458.416 C 624.244 450.36 628.298 444.863 633.777 437.535 C 634.641 452.416 629.62 473.795 630.092 493.329 C 640.865 475.722 649.353 460.06 654.393 439.994 C 655.004 437.561 658.037 436.812 660.211 435.833 L 660.717 434.052 C 657.107 428.72 656.884 429.359 658.696 423.361 z"/>
<path transform="translate(0,0)" fill="rgb(254,254,254)" d="M 328.559 327.403 C 382.667 320.134 394.439 361.369 356.857 395.958 C 322.598 425.362 317.182 351.168 312.479 329.484 C 317.825 328.686 323.186 327.992 328.559 327.403 z"/>
<path transform="translate(0,0)" fill="rgb(0,0,0)" d="M 337.088 344.26 C 339.38 344.066 341.681 343.986 343.981 344.021 C 352.753 344.198 360.774 349.85 360.253 359.396 C 359.83 367.153 355.72 371.089 350.383 376.054 C 347.098 377.766 342.565 379.549 339.056 377.681 C 337.224 373.301 332.024 351.929 331.036 346.794 C 333.273 344.356 333.174 345.034 337.088 344.26 z"/>
<path transform="translate(0,0)" fill="rgb(254,254,254)" d="M 689.994 474.784 C 710.904 483.967 704.162 492.155 690.768 502.379 C 685.9 501.697 677.223 495.447 678.215 489.575 C 679.601 481.369 683.94 479.254 689.994 474.784 z"/>
<path transform="translate(0,0)" fill="rgb(254,254,254)" d="M 702.484 450.685 C 718.942 454.275 721.847 462.509 710.851 475.179 C 694.695 480.888 685.192 462.973 702.484 450.685 z"/>
<path transform="translate(0,0)" fill="rgb(254,254,254)" d="M 673.412 450.716 C 689.832 457.415 691.987 469.964 675.443 477.505 L 673.815 477.392 C 661.538 469.12 658.824 458.627 673.412 450.716 z"/>
<path transform="translate(0,0)" fill="#ffffff" d="M 444.717 143.938 C 451.7 145.703 476.262 190.882 479.363 199.633 L 475 199.859 C 468.038 196.498 447.986 152.504 444.717 143.938 z"/>
<path transform="translate(0,0)" fill="rgb(254,254,254)" d="M 689.826 424.08 C 697.925 427.253 698.948 429.774 704.469 436.582 C 702.056 441.263 700.002 444.522 696.057 447.965 C 692.683 449.48 691.785 449.783 688.169 450.55 C 679.94 447.318 687.494 430.426 689.826 424.08 z"/>
<path transform="translate(0,0)" fill="rgb(254,254,254)" d="M 718.651 476.009 C 730.025 476.568 733.876 483.141 731.182 493.739 L 729.538 494.638 L 726.954 493.113 C 721.9 490.273 711.601 485.89 710.32 480.493 C 712.876 477.364 714.405 477.576 718.651 476.009 z"/>
<path transform="translate(0,0)" fill="rgb(254,254,254)" d="M 660.017 525.955 C 663.597 526.815 663.979 526.241 665.906 528.64 C 666.054 535.643 656.285 547.243 651.834 553.392 C 651.367 554.018 650 555.359 649.392 555.994 C 649.253 552.337 651.062 535.642 651.272 529.748 C 654.257 528.737 657.154 527.29 660.017 525.955 z"/>
<path transform="translate(0,0)" fill="#ffffff" d="M 671.311 500.499 C 674.256 500.504 675.05 500.396 677.781 501.658 C 679.7 506.173 672.682 512.757 670.289 523.406 C 665.931 523.102 663.084 517.342 660.757 513.885 C 664.862 508.881 666.348 505.748 671.311 500.499 z"/>
<path transform="translate(0,0)" fill="rgb(254,254,254)" d="M 701.483 501.836 L 703 502.233 C 705.261 506.724 703.895 518.615 700.426 522.573 L 696.943 522.464 L 696.275 521.741 C 687.696 512.349 694.063 508.08 701.483 501.836 z"/>
<path transform="translate(0,0)" fill="#ffffff" d="M 369.147 558.685 C 369.388 550.713 363.34 546.793 361.276 537.921 L 362.32 537.671 C 368.149 542.259 373.685 549.682 378.581 555.538 C 373.977 554.634 375.079 554.209 371.053 555.572 C 370.221 556.788 369.764 557.326 369.147 558.685 z"/>
<path transform="translate(0,0)" fill="#ffffff" d="M 689.951 524.877 C 693.142 526.415 693.739 526.653 696.32 529.193 C 698.089 532.433 697.222 534.964 696.579 538.646 C 691.258 534.316 688.228 531.846 689.951 524.877 z"/>
<path transform="translate(0,0)" fill="rgb(0,0,0)" fill-opacity="0.901961" d="M 299.265 708.977 L 302.933 709.58 C 307.033 715.857 320.957 737.233 326.893 739.589 C 329.317 738.878 332.326 732.382 333.59 729.871 C 334.553 735.192 335.792 751.239 333.963 756.02 L 332.603 756.04 C 327.494 752.546 302.454 715.629 299.265 708.977 z"/>
</svg>
