<svg xmlns="http://www.w3.org/2000/svg" version="1.1" style="display: block;" viewBox="0 0 1024 1024" width="256" height="256" preserveAspectRatio="none">
<path transform="translate(0,0)" fill="rgb(0,0,0)" d="M 810.945 131.635 L 812.521 133.024 C 812.316 151.534 811.433 170.566 814.222 188.748 C 825.133 259.871 835.55 328.871 832.412 401.159 C 833.362 411.024 830.965 429.505 832.956 438.488 C 843.308 485.204 849.838 523.297 848.1 571.551 C 846.799 607.658 849.665 620.928 835.957 656.359 C 804.609 737.382 735.004 793.002 658.119 828.336 C 616.098 847.842 572.17 862.949 527.039 873.414 C 508.35 877.661 486.214 882.844 467.209 884.628 C 392.767 891.616 321.357 878.001 251.787 851.396 C 237.33 845.867 204.802 833.253 197.99 816.862 C 196.457 813.174 200.858 807.479 198.942 801.861 C 194.682 789.373 188.042 776.202 182.498 764.108 C 176.157 744.486 127.843 752.609 120.791 703.697 C 107.715 613.012 145.142 532.032 198.004 460.646 C 203.164 453.678 209.015 447.336 214.044 440.192 C 212.837 405.705 211.558 376.952 215.56 342.207 C 217.834 322.462 217.494 303.917 222.273 283.798 C 224.96 272.487 226.529 257.884 228.536 246.162 C 276.236 262.063 312.27 338.539 330.206 344.897 C 337.866 344.854 383.458 321.847 394.358 317.652 C 455.442 294.001 523.285 276.604 589.244 277.884 C 629.45 278.665 622.137 277.014 655.067 256.608 C 701.134 228.061 739.11 191.434 780.858 157.325 C 791.211 148.867 799.962 139.333 810.945 131.635 z M 794.6 266.049 C 796.337 274.103 797.861 280.163 800.239 288.046 C 799.867 280.518 799.269 273.004 798.443 265.513 L 794.6 266.049 z M 817.827 509.188 C 817.824 504.222 818.511 495.18 813.656 492.43 C 812.372 498.904 813.824 503.892 817.827 509.188 z"/>
<path transform="translate(0,0)" fill="rgb(252,252,252)" d="M 505.021 301.344 C 520.205 299.769 528.461 300.596 543.038 304.25 C 511.974 308.471 489.616 310.55 461.05 324.734 C 459.627 325.44 457.757 323.485 456.544 322.552 C 448.707 329.588 445.356 332.67 436.376 338.1 C 434.021 335.519 431.323 332.047 429.052 329.295 C 422.608 332.402 406.267 337.287 404.361 340.456 C 403.805 344.014 406.968 350.674 408.4 354.366 C 403.175 359.995 399.511 361.751 392.85 365.041 C 386.739 360.001 384.8 356.833 381.039 350.213 C 373.652 359.582 371.032 362.221 359.02 364.992 C 360.612 368.403 365.026 375.792 362.165 379.875 C 360.549 382.18 356.461 384.065 354.776 386.141 C 348.099 394.369 345.301 380.764 337.177 382.882 C 334.837 383.492 335.936 382.752 334.565 384.76 C 335.64 387.165 342.88 391.33 346.987 395.852 L 346.601 408.017 C 340.893 410.873 339.399 411.737 334.27 415.704 C 331.99 413.841 326.387 409.276 324.6 407.272 C 323.308 405.823 325.241 403.112 321.089 400.661 C 311.561 408.841 304.845 421.759 297.714 431.961 C 294.007 437.263 289.827 441.196 285.904 446.388 L 286.989 456.527 C 282.501 458.88 278.63 462.877 274.224 463.794 C 269.365 460.464 265.759 458.674 259.58 459.342 L 258.923 460.82 C 262.601 465.313 268.923 468.155 271.116 474.047 C 274.909 484.242 263.419 487.293 256.643 489.806 C 246.752 482.296 252.342 480.49 247.152 473.694 C 240.342 473.296 240.518 478.969 241.045 483.626 C 232.326 488.852 229.696 489.282 219.939 490.246 L 227.872 501.947 C 218.447 506.363 214.908 511.011 203.517 511.43 C 198.891 511.6 172.446 542.877 169.289 546.586 C 176.57 521.344 188.053 497.51 203.255 476.085 C 224.034 447.106 253.837 415.746 282.862 394.805 C 299.236 382.992 319.213 372.281 336.455 361.833 C 353.525 351.49 372.945 338.668 391.396 330.955 C 404.324 325.551 424.192 321.477 438.278 317.883 C 459.7 312.416 483.423 304.879 505.021 301.344 z"/>
<path transform="translate(0,0)" fill="rgb(252,252,252)" d="M 623.263 671.664 C 626.842 672.949 668.034 730.641 676.979 740.591 C 668.585 749.693 642.647 767.643 631.953 774.55 C 620.226 781.03 609.303 788.662 597.062 795.287 C 596.808 747.659 591.868 709.463 623.263 671.664 z"/>
<path transform="translate(0,0)" fill="rgb(252,252,252)" d="M 663.487 277.923 C 684.125 260.698 704.926 240.321 725.736 222.644 C 750.412 201.681 761.049 187.908 790.738 172.144 C 791.083 200.322 796.718 236.782 798.443 265.513 L 794.6 266.049 C 792.473 252.544 779.263 226.142 772.864 212.477 C 764.91 219.072 758.515 227.18 751.565 234.505 C 729.179 258.102 720.835 267.489 707.151 296.4 C 695.257 288.657 677.114 281.51 663.487 277.923 z"/>
<path transform="translate(0,0)" fill="rgb(252,252,252)" d="M 415.757 765.591 C 432.72 771.887 458.569 822.256 468.188 839.526 C 451.581 842.237 439.267 845.009 422.234 846.686 C 404.206 848.902 387.098 849.329 368.957 850.092 C 384.442 830.595 402.104 778.187 415.757 765.591 z"/>
<path transform="translate(0,0)" fill="rgb(252,252,252)" d="M 509.741 752.78 C 524.616 752.713 567.966 792.589 578.988 804.599 L 549.69 815.982 C 532.801 822.68 513.755 829.287 496.104 833.185 C 495.844 815.903 495.034 796.319 496.623 779.297 C 497.699 767.769 500.668 759.885 509.741 752.78 z"/>
<path transform="translate(0,0)" fill="rgb(252,252,252)" d="M 704.742 607.055 C 705.879 608.524 705.525 609.137 705.038 611.546 C 697.523 648.723 687.651 684.113 685.434 722.145 C 678.63 712.452 672.275 701.764 665.112 691.576 C 658.837 682.553 642.852 662.633 635.267 655.312 C 666.405 626.439 665.301 627.057 704.742 607.055 z"/>
<path transform="translate(0,0)" fill="rgb(252,252,252)" d="M 234.239 418.584 C 234.941 399.8 232.393 376.352 232.128 357.027 C 231.775 331.326 232.979 307.739 234.619 282.075 C 242.458 288.444 257.147 297.63 266.308 304.388 C 265.03 307.989 264.659 308.368 261.985 311.073 C 261.826 329.987 263.315 357.377 269.691 374.902 C 258.307 389.809 246.485 404.377 234.239 418.584 z"/>
<path transform="translate(0,0)" fill="rgb(252,252,252)" d="M 730.101 606.355 C 732.356 607.058 734.438 608.226 736.214 609.784 C 739.078 612.301 740.816 614.818 742.894 617.948 C 764.707 650.797 732.268 685.093 712.105 708.401 C 708.734 711.947 705.002 715.151 701.344 718.404 C 708.49 696.15 720.088 622.114 730.101 606.355 z"/>
<path transform="translate(0,0)" fill="rgb(252,252,252)" d="M 384.175 775.666 L 385.221 775.943 C 385.318 777.994 358.177 830.873 354.417 838.188 C 351.321 830.669 348.259 824.613 344.548 817.357 C 338.063 804.2 329.316 792.512 322.424 778.167 C 335.951 776.283 369.026 776.269 384.175 775.666 z"/>
<path transform="translate(0,0)" fill="rgb(252,252,252)" d="M 582.384 705.944 L 583.405 707.016 C 578.589 721.415 577.106 764.267 577.883 779.568 C 568.917 766.659 563.333 761.476 550.961 751.779 C 541.89 744.483 533.188 739.465 522.257 735.613 C 541.713 729.376 566.891 718.933 582.384 705.944 z"/>
<path transform="translate(0,0)" fill="rgb(252,252,252)" d="M 296.137 778.606 C 306.574 782.799 334.332 837.558 339.572 848.021 C 324.735 846.845 311.428 844.613 296.909 841.783 C 296.98 822.22 297.668 797.853 296.137 778.606 z"/>
<path transform="translate(0,0)" fill="rgb(252,252,252)" d="M 484.287 748.157 L 485.038 748.312 C 485.847 750.419 483.498 755.873 482.658 758.402 C 476.102 778.151 477.106 796.437 478.022 816.993 L 465.416 796.505 C 458.798 785.363 448.467 771.136 441.029 759.627 C 455.585 756.435 470.344 753.487 484.287 748.157 z"/>
<path transform="translate(0,0)" fill="rgb(252,252,252)" d="M 238.165 778.56 C 241.824 780.534 271.412 830.966 270.993 833.778 C 258.107 830.409 246.749 825.57 234.557 820.39 C 235.997 807.101 235.505 791.03 238.165 778.56 z"/>
<path transform="translate(0,0)" fill="rgb(252,252,252)" d="M 771.984 413.817 C 776.523 413.859 781.955 417.789 785.78 420.252 C 784.974 428.251 783.928 431.668 781.339 439.064 C 796.225 438.225 809.915 445.21 796.17 460.487 C 792.119 457.919 780.279 439.963 775.862 434.783 C 771.058 429.151 766.493 423.912 761.154 418.299 L 771.984 413.817 z"/>
<path transform="translate(0,0)" fill="rgb(252,252,252)" d="M 378.654 413.841 C 386.643 413.101 391.299 421.274 394.646 427.175 C 390.105 433.523 388.863 435.148 383.089 440.322 C 366.077 437.607 361.326 423.157 378.654 413.841 z"/>
<path transform="translate(0,0)" fill="rgb(252,252,252)" d="M 302.722 437.786 C 320.817 441.865 319.702 455.696 306.727 465.526 C 290.964 457.582 283.589 448.622 302.722 437.786 z"/>
<path transform="translate(0,0)" fill="rgb(252,252,252)" d="M 333.936 438.022 C 340.265 438.401 342.607 441.243 346.907 445.788 C 346.82 450.72 346.34 455.087 345.84 459.967 L 335.739 463.896 C 334.913 464.184 333.512 464.262 332.585 464.365 C 324.758 460.251 322.614 453.497 325.205 444.834 C 326.444 440.69 330.164 439.533 333.936 438.022 z"/>
<path transform="translate(0,0)" fill="rgb(252,252,252)" d="M 347.475 413.57 C 350.12 413.561 356.141 415.329 358.104 416.983 C 368.472 425.719 359.586 434.34 353.516 439.441 C 342.658 439.546 340.798 432.86 337.537 424.326 C 340.535 418.665 342.047 416.895 347.475 413.57 z"/>
<path transform="translate(0,0)" fill="rgb(252,252,252)" d="M 363.36 386.599 C 369.519 387.833 374.954 394.434 379.177 398.956 C 375.096 407.229 374.233 409.029 366.634 414.294 C 359.281 411.504 356.708 408.225 351.397 402.632 C 354.886 394.398 355.931 391.948 363.36 386.599 z"/>
<path transform="translate(0,0)" fill="rgb(252,252,252)" d="M 318.478 412.711 C 336.163 416.744 333.001 431.228 321.077 440.812 C 305.167 438.968 305.431 421.729 318.478 412.711 z"/>
<path transform="translate(0,0)" fill="rgb(252,252,252)" d="M 755.954 388.087 C 762.631 389.027 767.891 390.029 769.949 397.182 C 772.433 405.816 767.405 410.239 760.28 412.766 C 758.436 413.186 757.373 413.053 755.516 412.99 C 749.732 410.198 748.066 403.205 745.721 397.182 C 749.619 392.897 750.956 391.31 755.954 388.087 z"/>
<path transform="translate(0,0)" fill="rgb(252,252,252)" d="M 383.972 391.014 C 390.696 390.882 400.297 389.743 406.025 394.032 C 410.487 397.373 407.089 406.952 404.261 410.398 C 395.71 416.218 392.214 411.922 383.972 407.161 L 383.972 391.014 z"/>
<path transform="translate(0,0)" fill="rgb(252,252,252)" d="M 363.832 437.627 C 374.485 439.21 387.442 455.484 368.564 460.839 C 347.568 460.076 347.891 447.494 363.832 437.627 z"/>
<path transform="translate(0,0)" fill="rgb(252,252,252)" d="M 377.631 362.591 C 382.889 362.824 386.946 366.788 391.068 370.025 C 384.725 379.028 385.709 380.853 381.673 389.333 L 381.424 389.847 C 379.06 388.299 376.715 386.722 374.39 385.118 C 370.057 382.109 368.421 381.139 367.452 375.73 C 368.35 369.262 372.678 366.559 377.631 362.591 z"/>
<path transform="translate(0,0)" fill="rgb(252,252,252)" d="M 737.783 364.244 C 749.796 363.421 748.654 363.169 757.727 370.96 C 755.842 378.027 755.16 380.955 749.965 386.055 C 747.267 387.741 746.685 388.855 744.245 388.385 C 741.567 383.322 736.339 372.146 735.792 366.659 L 737.783 364.244 z"/>
<path transform="translate(0,0)" fill="rgb(252,252,252)" d="M 202.415 760.776 C 229.758 769.838 219.479 767.231 220.72 791.853 L 220.164 792.899 L 218.929 792.788 C 215.175 785.606 203.235 766.9 202.415 760.776 z"/>
<path transform="translate(0,0)" fill="rgb(252,252,252)" d="M 781.364 389.285 C 786.948 391.411 798.424 406.469 791.857 413.096 C 775.798 410.824 771.348 403.664 781.364 389.285 z"/>
<path transform="translate(0,0)" fill="rgb(252,252,252)" d="M 288.725 462.713 C 293.855 464.22 299.419 470.276 303.359 474.07 C 299.32 475.402 292.776 476.575 288.45 477.486 C 285.066 478.551 283.857 478.946 280.283 479.381 C 277.008 477.795 277.876 478.804 276.803 475.758 C 278.521 468.91 283.093 466.626 288.725 462.713 z"/>
<path transform="translate(0,0)" fill="rgb(252,252,252)" d="M 261.059 775.1 C 268.282 777.167 270.677 777.079 278.013 777.17 C 277.875 786.849 278.474 796.315 277.928 806.057 C 275.19 802.078 261.669 778.973 261.059 775.1 z"/>
<path transform="translate(0,0)" fill="rgb(252,252,252)" d="M 805.674 462.874 L 808.09 463.21 C 812.335 466.423 816.357 482.825 814.049 487.548 L 811.144 487.65 C 806.946 483.227 800.1 473.325 799.853 466.792 C 801.868 463.651 801.548 464.518 805.674 462.874 z"/>
<path transform="translate(0,0)" fill="#ffffff" d="M 266.308 304.388 C 276.449 312.766 285.907 321.103 292.843 332.498 C 283.88 327.671 267.116 312.235 261.985 311.073 C 264.659 308.368 265.03 307.989 266.308 304.388 z"/>
<path transform="translate(0,0)" fill="rgb(252,252,252)" d="M 795.914 416.373 C 801.708 418.355 806.818 434.83 803.562 440.451 C 802.866 440.196 802.174 439.926 801.488 439.643 C 790.403 435.039 791.898 425.699 795.914 416.373 z"/>
<path transform="translate(0,0)" fill="rgb(252,252,252)" d="M 719.333 345.849 C 725.759 346.075 737.654 347.847 740.206 354.664 L 737.886 357.582 L 735.504 361.198 C 728.776 364.676 722.681 351.173 719.333 345.849 z"/>
<path transform="translate(0,0)" fill="rgb(252,252,252)" d="M 415.666 390.967 C 422.436 391.091 428.202 392.263 434.849 393.423 L 423.424 402.223 L 414.762 411.995 C 414.806 404.356 414.854 398.539 415.666 390.967 z"/>
<path transform="translate(0,0)" fill="rgb(252,252,252)" d="M 763.323 369.366 C 766.599 370.61 776.261 379.531 777.569 383.172 C 778.386 385.448 777.624 386.086 776.753 388.459 C 770.93 388.456 765.869 384.645 760.679 381.669 C 761.459 377.621 762.444 373.411 763.323 369.366 z"/>
<path transform="translate(0,0)" fill="#ffffff" d="M 424.716 336.651 C 428.472 337.391 427.731 336.674 429.988 339.107 L 429.427 341.216 C 426.219 344.931 421.739 347.032 417.433 349.433 L 414.847 350.421 L 414.211 349.196 C 415.918 343.03 419.521 339.918 424.716 336.651 z"/>
<path transform="translate(0,0)" fill="#ffffff" d="M 242.693 488.971 C 246.001 488.469 246.568 488.334 249.739 489.715 L 250.082 491.211 C 247.916 494.487 245.081 494.829 241.253 495.939 C 237.193 497.201 237.757 497.784 234.869 496.337 L 235.109 494.412 C 237.068 490.916 238.96 490.511 242.693 488.971 z"/>
<path transform="translate(0,0)" fill="rgb(252,252,252)" d="M 317.929 462.788 C 320.743 463.265 323.843 463.711 325.156 466.313 C 323.318 468.734 319.458 469.413 316.41 470.321 C 313.579 471.703 313.352 472.404 310.598 472.023 L 310.73 470.019 C 313.268 465.984 313.945 465.491 317.929 462.788 z"/>
<path transform="translate(0,0)" fill="rgb(252,252,252)" d="M 408.169 413.125 C 408.685 413.482 409.29 414.446 409.698 415.006 C 408.915 418.665 404.655 423.234 402.165 426.343 L 400.747 425.261 C 399.255 421.425 399.28 422.875 399.938 419.349 C 402.058 415.923 404.587 415.004 408.169 413.125 z"/>
<path transform="translate(0,0)" fill="#ffffff" fill-opacity="0.984314" d="M 798.443 265.513 C 799.269 273.004 799.867 280.518 800.239 288.046 C 797.861 280.163 796.337 274.103 794.6 266.049 L 798.443 265.513 z"/>
<path transform="translate(0,0)" fill="#fcfcfc" fill-opacity="0.984314" d="M 813.656 492.43 C 818.511 495.18 817.824 504.222 817.827 509.188 C 813.824 503.892 812.372 498.904 813.656 492.43 z"/>
</svg>
