<svg xmlns="http://www.w3.org/2000/svg" version="1.1" style="display: block;" viewBox="0 0 1024 1024" width="256" height="256" preserveAspectRatio="none">
<path transform="translate(0,0)" fill="rgb(0,0,0)" d="M 224.936 158.687 C 228.455 161.51 232.124 165.023 236.429 166.01 L 238.338 165.286 C 239.361 162.253 239.689 159.914 242.258 158.279 C 247.357 158.591 243.931 161.56 249.291 160.304 C 253.499 156.109 256.467 151.709 260.33 147.247 C 268.792 137.537 278.494 128.981 289.187 121.8 C 308.767 108.907 333.878 99.4697 356.605 94.1192 C 372.663 90.3386 383.449 84.6551 398.448 78.0602 C 416.876 69.7781 436.843 65.4695 457.047 65.4148 C 486.137 65.4428 509.984 72.802 537.991 77.9908 C 545.573 79.3955 558.843 78.0502 566.931 77.6101 C 586.528 76.5437 600.953 79.2159 619.133 86.5022 C 634.37 92.6091 647.917 99.6666 660.409 110.878 C 662.891 113.106 670.951 122.023 674.616 123.893 C 675.09 123.549 675.564 123.204 676.038 122.859 L 678.188 118.11 L 680.099 117.421 C 695.052 125.394 701.491 167.624 722.43 127.713 C 725.356 122.136 726.13 118.203 727.375 112.098 C 739.841 130.382 744.27 141.766 737.052 164.047 C 747.389 181.781 746.776 196.84 753.074 214.332 C 795.946 241.038 793.795 204.524 789.43 173.835 C 800.85 188.268 824.245 217.351 822.096 235.777 C 821.058 244.683 813.492 251.434 809.667 258.838 C 816.311 266.584 822.985 272.684 828.972 280.828 C 842.616 299.389 844.251 317.847 849.407 339.024 C 851.414 347.264 861.332 364.024 865.269 373.576 C 869.509 373.049 874.295 372.568 878.465 371.881 C 892.501 361.186 893.448 359.67 898.908 342.691 C 903.883 355.91 911.471 372.164 905.297 385.754 C 899.847 397.748 886.825 403.451 877.648 411.132 C 893.663 441.88 892.009 458.173 886.16 492.823 C 906.485 541.913 912.244 593.235 878.195 638.574 C 885.625 638.941 893.897 639.156 901.176 640.234 C 888.327 650.763 884.421 667.375 871.386 676.07 C 861.284 682.808 842.945 685.747 831.024 687.766 C 830.196 691.891 829.275 696.06 828.451 700.173 C 820.978 737.474 793.062 754.979 758.633 765.197 C 759.55 757.886 760.734 751.079 758.013 744.015 L 756.307 742.337 L 754.406 742.404 C 749.124 748.462 745.34 754.618 739.001 759.712 C 726.325 769.897 713.265 771.451 698.138 775.463 C 697.11 769.335 693.818 749.445 685.577 750.339 C 674.272 763.352 696.78 810.998 709.389 820.512 C 729.491 835.681 762.178 851.124 788.011 851.483 C 790.039 851.419 797.058 849.627 799.305 849.038 C 805.408 851.961 811.304 854.939 817.252 858.161 C 840.611 870.812 865.992 881.779 890.869 890.983 C 902.627 895.29 914.531 899.189 926.559 902.672 C 954.77 910.625 992.133 918.173 1003.78 951.373 C 1008.97 966.198 1004.98 991.987 1006.43 1008.29 L 458.743 1008.46 C 351.6 1008.86 244.455 1008.67 137.314 1007.91 C 144.143 977.289 146.191 938.479 176.253 920.771 C 187.756 913.995 206.536 907.587 219.581 903.68 C 257.65 892.281 292.604 874.777 329.571 860.645 C 343.338 855.382 357.197 847.726 372.142 847.014 C 377.459 846.773 391.662 851.313 393.79 845.429 C 388.38 841.482 371.431 839.329 363.816 835.516 C 350.849 829.024 341.597 822.116 332.84 810.514 C 318.45 810.479 303.442 809.632 289.58 805.389 C 276.064 810.743 262.444 817.127 247.56 814.789 C 220.616 810.558 197.727 787.055 188.043 762.514 C 187.332 760.678 186.74 758.798 186.269 756.886 C 196.073 756.754 199.383 755.287 208.612 751.844 C 202.347 732.73 194.228 715.334 189.89 695.693 C 187.165 683.358 187.45 672.7 185.951 660.703 C 174.813 662.831 163.946 661.159 153.162 657.999 C 126.674 650.236 121.098 623.303 113.217 600.182 C 117.729 603.677 121.856 606.981 127.073 609.36 C 174.925 631.181 183.161 600.18 184.602 560.626 C 182.788 560.061 175.568 557.955 174.39 557.206 C 169.374 551.589 150.232 544.472 152.242 536.562 C 156.166 534.304 157.013 535.165 162.113 535.355 C 171.073 537.329 176.812 537.223 185.66 538.136 C 184.114 518.398 180.506 500.685 178.065 481.212 C 177.186 474.198 180.906 458.213 178.75 453.394 C 175.759 446.709 165.891 439.148 162.419 430.952 C 145.056 389.967 164.759 369.301 173.678 336.067 C 154.238 317.236 153.082 311.252 147.436 285.176 C 154.439 292.345 169.006 306.902 179.565 300.239 C 181.959 291.516 183.781 278.948 185.685 269.683 C 192.651 235.781 203.907 217.216 223.304 189.96 C 221.35 180.693 218.085 161.202 221.127 152.07 L 222.525 151.663 C 224.172 154.373 224.301 155.671 224.936 158.687 z M 389.803 194.634 C 404.629 203.603 410.395 181.827 402.426 177.572 C 402.381 181.723 402.779 186.845 400.879 190.388 C 397.247 192.66 394.805 190.34 391.458 188.174 C 389.407 190.307 390.046 190.984 389.803 194.634 z M 343.503 281.735 L 344.865 279.961 C 340.774 275.923 334.748 271.95 328.857 271.636 L 327.323 274.013 C 328.834 276.279 338.696 278.839 343.503 281.735 z"/>
<path transform="translate(0,0)" fill="#ffffff" d="M 503.502 281.252 C 519.05 279.564 530.323 290.934 539.833 301.46 C 516.684 304.154 499.282 316.716 481.925 331.313 C 472.959 338.853 463.408 346.311 457.087 356.087 C 455.635 358.334 453.441 369.288 452.796 372.233 C 454.391 370.104 456.033 368.01 457.72 365.953 C 471.65 349.057 516.063 311.542 537.983 309.461 C 539.884 310.802 540.203 311.114 542.368 311.877 C 549.905 306.377 548.117 292.897 546.545 284.928 C 566.084 294.561 580.691 299.758 589.913 321.548 C 595.817 335.499 596.863 346.954 598.314 361.748 C 602.376 355.532 605.675 349.835 609.347 343.374 L 611.01 343.161 C 614.414 345.885 616.028 349.787 617.788 353.855 C 630.492 383.228 643.283 427.716 617.432 453.938 C 606.441 465.086 582.849 462.32 567.869 461.716 C 578.451 472.898 589.564 478.747 602.759 486.154 C 583.665 516.365 581.552 546.14 601.275 576.951 C 603.038 579.705 604.594 581.9 606.198 584.817 L 605.022 587.645 C 597.726 605.378 600.595 613.181 607.908 630.751 C 587.184 650.141 557.475 686.22 536.936 700.005 C 534.616 701.29 531.81 702.925 529.14 702.504 C 516.645 700.534 501.07 694.106 489.18 689.423 C 461.626 678.57 412.227 661.777 390.718 641.813 C 378.598 630.564 358.982 597.492 346.966 583.054 C 366.801 576.481 373.15 566.209 385.913 550.804 C 371.382 557.478 363.056 560.674 346.929 554.912 C 326.566 547.636 320.507 530.321 312.078 512.095 C 317.643 512.572 324.196 513.872 329.779 514.826 C 316.226 503.456 296.538 469.81 290.592 452.627 C 279.56 420.742 277.991 377.771 280.798 344.419 C 281.84 332.034 285.724 316.27 288.405 303.896 L 288.972 304.416 C 294.995 309.865 323.708 324.899 330.12 317.74 C 329.097 313.623 327.778 313.291 324.557 309.883 C 333.936 310.45 342.725 311.138 351.908 312.198 C 366.749 313.911 401.355 321.738 414.127 317.754 L 413.78 316.669 C 408.193 313.687 392.39 309.888 384.955 307.181 L 384.909 305.69 C 390.549 300.109 421.006 301.598 430.49 300.672 C 456.546 298.126 477.822 285.643 503.502 281.252 z"/>
<path transform="translate(0,0)" fill="rgb(0,0,0)" d="M 305.274 455.171 C 312.557 453.752 323.449 450.371 329.25 445.55 L 328.686 444.275 C 326.285 443.936 324.806 443.651 322.456 443.051 L 322.372 441.4 C 328.729 433.192 352.834 423.306 361.99 425.24 C 363.964 432.989 358.559 430.034 357.23 434.729 C 362.315 435.851 366.845 431.721 373.015 432.739 C 376.915 433.382 392.407 437.847 394.072 440.098 L 393.207 442.287 C 388.948 443.091 388.376 443.213 385.076 445.981 C 390.148 447.545 394.757 447.736 399.342 450.553 C 400.057 453.876 394.623 451.497 392.309 455.633 C 394.843 457.551 409.333 469.416 408.038 472.359 C 402.288 485.424 388.73 497.438 378.293 506.871 C 378.072 511.313 378.335 516.317 376.509 520.28 C 373.169 519.747 375.266 515.495 370.057 512.977 C 366.026 513.576 362.704 517.853 358.987 520.278 C 352.154 524.737 349.681 514.013 343.336 512.555 C 341.672 513.649 341.241 514.168 339.257 514.027 C 336.316 498.222 322.041 491.236 313.837 476.835 C 314.771 474.579 315.194 474.283 316.82 472.508 L 317.326 471.963 C 318.67 465.037 310.187 458.799 305.274 455.171 z"/>
<path transform="translate(0,0)" fill="#fefdfe" d="M 385.076 445.981 C 381.766 444.778 371.791 441.763 370.958 438.771 C 379.868 437.117 385.109 441.774 392.308 442.236 L 393.207 442.287 C 388.948 443.091 388.376 443.213 385.076 445.981 z"/>
<path transform="translate(0,0)" fill="#ffffff" d="M 338.826 453.659 C 343.062 455.863 339.992 475.495 345.033 483.064 C 351.648 492.995 357.093 493.63 367.96 496.709 C 376.087 494.546 379.209 493.461 386.836 489.939 C 382.942 495.041 378.748 499.865 374.589 504.752 C 370.424 506.672 369.961 506.351 365.586 506.569 C 336.998 507.99 315.837 489.052 331.981 460.815 C 333.169 458.737 336.942 455.425 338.826 453.659 z"/>
<path transform="translate(0,0)" fill="rgb(0,0,0)" d="M 547.289 337.118 C 548.195 337.027 549.104 336.984 550.014 336.99 C 553.552 337 558.28 336.995 560.658 339.375 C 560.26 341.787 560.025 343.564 559.84 346.001 C 565.783 353.433 582.397 350.78 588.482 356.811 C 593.882 362.162 604.241 370.902 607.912 377.346 C 606.625 383.003 599.502 392.888 596.82 400.061 C 598.346 404.905 599.851 401.334 602.451 406.999 C 600.415 411.872 598.319 409.749 594.632 414.843 C 595.316 418.087 596.701 415.624 600.51 418.471 L 599.155 420.582 C 595.543 421.713 595.686 420.979 591.34 419.669 C 588.554 420.48 576.525 432.197 568.613 436.694 C 561.179 436.596 539.165 437.368 536.284 427.784 C 542.649 424.723 551.559 429.916 557.896 430.491 C 575.113 432.051 593.017 410.341 596.84 395.031 C 597.702 391.58 594.584 387.263 591.033 387.069 C 583.185 398.061 596.365 407.704 567.631 420.206 C 540.053 429.192 530.847 400.373 531.932 378.611 C 526.614 389.485 521.731 398.102 521.492 410.628 C 521.41 414.906 523.127 420.737 521.228 424.463 C 518.271 425.945 519.619 425.684 515.727 424.843 C 509.976 418.339 516.904 409.309 515.005 403.6 C 509.267 405.117 508.753 405.402 503.021 404.603 C 501.421 402.266 506.486 399.493 506.558 397.942 C 506.83 392.029 506.981 383.284 507.11 377.531 C 514.707 368.335 520.78 360.81 532.939 358.052 C 540.478 356.342 550.076 353.474 555.683 348.109 C 556.888 344.673 556.96 346.025 555.661 342.994 C 542.156 332.125 510.726 363.685 503.714 362.884 C 503.016 350.771 537.61 339.415 547.289 337.118 z"/>
<path transform="translate(0,0)" fill="rgb(0,0,0)" d="M 333.278 393.421 C 335.791 393.285 338.306 393.186 340.822 393.125 C 363.38 392.57 374.317 393.915 391.11 409.914 C 382.684 405.635 376.941 402.806 368.142 399.507 C 356.986 402.006 351.713 402.569 340.235 403.876 C 324.082 404.422 312.433 410.428 297.252 414.339 C 294.891 414.948 291.835 415.126 289.716 413.672 C 289.642 411.078 289.748 410.794 291.842 408.418 C 303.89 394.748 316.636 394.743 333.278 393.421 z"/>
<path transform="translate(0,0)" fill="rgb(0,0,0)" d="M 545.911 582.419 C 548.464 581.897 548.806 581.956 551.359 582.512 L 550.85 583.91 C 540.899 590.42 480.719 614.004 467.529 617.642 L 463.786 617.777 L 462.782 616.66 C 463.061 613.793 465.743 610.472 467.902 608.742 C 477.092 601.377 479.892 599.127 491.115 599.631 C 509.418 585.688 523.562 584.678 545.911 582.419 z"/>
<path transform="translate(0,0)" fill="rgb(0,0,0)" d="M 449.06 509.613 C 455.278 511.992 461.369 536.574 462.785 542.995 C 473.476 545.748 481.093 551.812 483.664 563.007 C 450.619 567.914 453.446 534.156 449.06 509.613 z"/>
<path transform="translate(0,0)" fill="rgb(0,0,0)" d="M 416.2 441.896 C 420.217 441.922 424.211 443.935 427.971 445.501 C 437.795 458.677 442.806 466.471 441.805 483.295 C 430.439 477.851 419.667 453.401 416.2 441.896 z"/>
<path transform="translate(0,0)" fill="rgb(0,0,0)" d="M 524.85 616.81 C 525.909 617.67 525.433 617.172 525.882 618.82 C 521.065 629.727 507.741 635.089 496.274 632.708 C 493.711 630.574 492.679 629.944 492.716 626.877 C 498.641 622.519 508.978 628.321 524.85 616.81 z"/>
<path transform="translate(0,0)" fill="#ffffff" d="M 230.044 268.3 C 229.07 278.785 227.733 303.183 231.532 312.533 C 232.876 312.097 245.711 293.985 248.706 290.692 C 248.798 297.358 251.609 315.037 247.662 319.171 C 245.175 318.516 244.562 318.344 242 318.331 L 241.148 320.433 C 242.709 325.954 248.286 325.456 249.542 329.77 C 257.174 355.997 239.389 348.376 236.162 350.079 C 235.332 353.734 238.076 357.375 240.064 361.015 C 240.284 368 233.079 371.362 236.482 377.51 C 239.148 377.659 240.425 377.079 242.954 376.312 C 249.706 378.667 252.211 382.891 256.357 388.45 C 250.369 403.098 247.033 396.651 240.86 404.101 C 239.978 407.475 241.24 410.848 242.113 414.306 C 253.812 398.963 270.702 394.489 266.7 418.834 C 263.665 437.292 248.141 419.829 245.562 419.453 C 252.661 431.421 261.195 448.419 241.902 453.36 L 238.484 450.325 L 237.519 450.885 C 236.469 470.382 276.81 523.398 289.475 539.629 C 294.086 534.986 295.478 534.012 300.856 530.539 C 303.929 537.122 308.046 540.078 310.531 546.114 C 312.019 549.729 307.885 549.112 306.343 552.556 C 310.233 556.679 312.75 555.07 316.419 556.213 C 318.913 556.99 327.281 567.198 329.259 569.511 C 299.393 562.701 291.208 557.86 269.099 537.923 C 256.954 526.971 243.809 517.106 231.52 505.363 C 237.183 522.434 241.678 536.722 249.852 552.871 C 246.134 552.885 238.17 552.388 235.474 554.191 C 234.668 558.249 239.321 563.85 239.746 567.978 C 240.131 571.726 234.877 575.817 234.938 579.763 C 242.162 585.541 247.321 573.905 254.933 590.973 C 252.516 599.106 251.092 605.125 249.394 613.45 C 246.611 611.322 240.794 607.3 238.808 605.183 C 226.811 592.394 224.241 569.249 220.997 552.328 C 218.637 577.843 210.246 589.564 186.124 598.477 C 192.075 591.103 196.944 582.917 200.582 574.167 C 218.367 532.162 209.66 494.052 192.78 452.719 C 208.557 472.959 214.72 479.131 239.883 485.775 C 226.121 472.319 203.241 439.94 194.162 422.512 C 181.909 398.992 182.337 368.389 190.216 343.509 C 191.42 339.705 197.083 329.081 200.547 327.397 C 196.835 345.405 200.321 359.41 206.073 376.649 C 206.079 372.156 205.622 367.614 205.656 363.066 C 205.911 329.181 217.839 299.099 230.044 268.3 z"/>
<path transform="translate(0,0)" fill="#ffffff" d="M 284.587 240.683 C 280.98 244.546 278.011 249.217 272.492 248.783 C 270.434 246.878 270.247 246.224 269.421 243.658 L 269.193 242.933 C 266.919 248.999 263.579 262.945 255.948 262.578 C 255.609 262.28 254.565 261.321 254.439 261.005 C 245.007 237.231 263.407 197.5 280.582 184.034 C 282.408 185.025 282.965 188.704 283.802 191.288 L 285.138 191.843 C 287.629 189.638 290.599 184.301 292.396 181.265 C 303.955 161.727 359.009 126.644 381.406 127.847 C 384.373 129.836 384.486 131.937 386.108 135.748 L 401.87 140.136 C 379.966 157.837 379.33 174.963 371.566 200.888 C 380.377 210.757 375.35 210.643 379.938 219.638 L 380.656 224.143 C 375.9 224.712 374.596 218.543 368.037 215.688 C 365.443 216.07 366.27 215.556 364.849 217.399 C 365.179 220.222 368.646 222.489 370.416 224.828 C 383.256 241.797 371.038 253.427 352.872 243.561 C 351.298 239.475 350.165 232.968 349.24 228.519 C 348.408 232.669 346.897 237.376 345.834 241.461 C 343.317 251.128 350.465 247.209 356.304 251.766 C 358.104 253.171 361.037 257.857 362.443 260.042 C 361.306 263.422 359.314 267.262 357.735 270.529 C 337.693 284.472 340.496 254.825 330.304 255.373 C 332.608 267.947 328.347 268.719 318.047 274.973 C 309.456 268.502 302.249 259.85 314.379 249.599 C 317.472 246.986 320.8 249.626 323.581 249.128 L 318.021 242.132 L 304.406 252.551 C 286.079 237.69 291.658 229.495 284.801 222.338 C 283.042 226.127 284.246 236.055 284.587 240.683 z"/>
<path transform="translate(0,0)" fill="#ffffff" d="M 215.659 612.61 L 216.909 613.352 C 219.524 617.916 217.537 631.299 216.915 636.695 C 221.038 639.72 223.598 640.875 224.591 645.869 C 222.723 653.119 217.615 652.133 210.873 657.43 C 209.151 661.914 218.297 684.967 220.477 690.583 L 220.068 691.982 C 217.59 691.697 215.793 689.522 213.96 687.655 C 203.309 676.805 200.16 665.033 200.416 650.35 C 200.717 633.096 203.544 624.62 215.659 612.61 z"/>
<path transform="translate(0,0)" fill="#ffffff" d="M 406.5 196.917 C 415.383 197.041 416.096 197.62 421.913 204.438 L 421.954 216.547 L 412.437 222.991 C 409.935 223.183 403.558 220.505 402.049 218.561 C 395.848 210.568 400.577 202.971 406.5 196.917 z"/>
<path transform="translate(0,0)" fill="#ffffff" d="M 743.393 299.708 C 749.219 299.467 753.069 302.549 757.957 305.537 C 757.936 309.744 757.797 314.049 757.71 318.265 C 754.287 320.153 750.163 323.036 746.825 325.23 C 745.932 325.562 744.604 325.597 743.602 325.693 C 732.22 320.515 731.295 306.449 743.393 299.708 z"/>
<path transform="translate(0,0)" fill="#ffffff" d="M 728.893 273.948 C 742.237 271.922 747.609 290.084 734.444 298.991 C 722.565 298.71 716.553 291.958 720.501 280.415 C 721.849 276.475 725.316 275.513 728.893 273.948 z"/>
<path transform="translate(0,0)" fill="#ffffff" d="M 286.74 247.733 C 290.782 248.396 293.883 250.655 297.366 252.809 C 301.756 266.395 300.164 267.356 288.954 275.017 C 288.429 275.395 287.584 275.312 286.735 275.389 C 276.015 266.812 273.05 255.275 286.74 247.733 z"/>
<path transform="translate(0,0)" fill="#ffffff" d="M 683.416 248.965 C 699.245 249.281 702.478 265.759 686.544 274.288 C 678.882 274.44 674.973 263.484 670.937 257.314 C 675.935 253.055 677.122 251.458 683.416 248.965 z"/>
<path transform="translate(0,0)" fill="#ffffff" d="M 226.153 655.83 C 229.049 655.903 235.399 659.623 236.964 661.93 C 242.733 670.436 237.926 676.06 232.147 680.837 C 213.011 681.972 211.123 666.107 226.153 655.83 z"/>
<path transform="translate(0,0)" fill="#ffffff" d="M 269.035 581.079 C 277.85 581.746 279.066 583.621 285.395 589.7 C 283.029 599.073 284.702 600.931 275.446 604.196 C 262.061 608.843 254.189 587.069 269.035 581.079 z"/>
<path transform="translate(0,0)" fill="#ffffff" d="M 253.313 452.77 C 260.851 452.346 267.389 456.288 266.95 464.655 C 266.495 473.314 263.887 475.072 257.781 480.257 C 245.008 471.644 238.501 463.839 253.313 452.77 z"/>
<path transform="translate(0,0)" fill="#ffffff" d="M 391.079 223.835 C 401.601 223.236 408.851 231.169 405.794 242.017 C 404.797 245.554 402.117 246.067 399.001 247.402 C 382.806 249.84 378.066 234.552 391.079 223.835 z"/>
<path transform="translate(0,0)" fill="#ffffff" d="M 255.894 655.668 C 263.982 655.29 281.419 672.321 258.817 679.016 C 255.394 678.364 249.07 677.691 247.053 674.811 C 241.474 666.845 250.197 659.958 255.894 655.668 z"/>
<path transform="translate(0,0)" fill="#ffffff" d="M 699.461 273.926 L 701.468 273.868 C 706.986 276.535 708.179 277.76 710.533 283.237 C 707.756 291.755 707.842 295.749 700.202 299.703 C 682.899 294.108 683.425 281.733 699.461 273.926 z"/>
<path transform="translate(0,0)" fill="#ffffff" d="M 707.427 250.862 C 718.863 250.186 735.336 260.952 721.589 271.353 L 716.905 274.141 C 705.791 275.475 700.372 260.773 707.427 250.862 z"/>
<path transform="translate(0,0)" fill="#ffffff" d="M 407.12 248.937 C 418.53 248.061 425.644 257.668 419.616 266.469 C 414.855 265.794 416.113 262.289 412.449 261.765 C 411.509 265.247 412.084 266.059 413.498 269.249 C 414.211 269.662 414.389 270.167 414.939 270.948 C 413.677 273.573 414.477 272.776 411.997 274.042 C 407.952 274.023 403.811 271.225 400.16 269.221 C 399.467 259.206 397.318 254.215 407.12 248.937 z"/>
<path transform="translate(0,0)" fill="#ffffff" d="M 378.604 248.767 C 392.596 249.008 396.673 269.441 383.781 271.335 C 369.647 266.192 359.411 258.777 378.604 248.767 z"/>
<path transform="translate(0,0)" fill="#ffffff" d="M 760.135 273.316 C 764.407 275.359 771.718 278.242 773.576 282.462 C 770.108 292.491 764.071 284.208 762.321 297.326 L 760.416 298.937 C 750.935 299.291 743.323 281.902 760.135 273.316 z"/>
<path transform="translate(0,0)" fill="#ffffff" d="M 421.792 172.571 C 427.762 175.339 433.589 185.333 434.905 191.887 C 433.627 195.65 433.486 194.899 430.094 197.889 C 413.972 198.766 408.775 179.858 421.792 172.571 z"/>
<path transform="translate(0,0)" fill="#ffffff" d="M 241.022 630.341 C 257.995 633.257 259.388 648.427 243.403 656.812 C 240.569 656.895 236.523 655.837 234.517 653.759 C 234.548 648.676 238.128 648.45 238.255 647.044 C 239.061 638.076 236.927 639.035 241.022 630.341 z"/>
<path transform="translate(0,0)" fill="#ffffff" d="M 268.578 479.671 L 270.642 479.81 C 275.702 482.455 279.535 493.5 281.81 498.837 C 279.16 500.811 275.258 503.216 272.416 505.095 C 269.951 504.763 265.278 501.272 264.04 499.213 C 258.669 490.273 261.718 484.852 268.578 479.671 z"/>
<path transform="translate(0,0)" fill="#ffffff" d="M 662.241 227.495 C 669.29 228.747 679.304 232.642 679.787 240.905 C 679.061 244.232 676.127 246.018 673.4 248.269 L 670.999 249.841 C 664.395 249.584 658.116 240.135 657.529 233.654 C 657.983 230.649 659.93 229.449 662.241 227.495 z"/>
<path transform="translate(0,0)" fill="#ffffff" d="M 284.24 503.868 L 285.299 504.405 C 289.319 511.238 293.093 517.512 294.814 525.252 C 293.296 528.22 293.704 527.346 289.909 528.925 C 273.277 526.01 273.687 514.483 284.24 503.868 z"/>
<path transform="translate(0,0)" fill="#ffffff" d="M 423.948 222.83 L 425.497 224.373 C 426.54 230.456 430.206 240.416 429.435 245.214 C 427.459 247.309 426.799 248.192 424.142 249.523 C 411.25 241.3 409.2 230.379 423.948 222.83 z"/>
<path transform="translate(0,0)" fill="#ffffff" d="M 252.47 556.905 C 253.636 557.745 261.788 570.252 267.372 574.892 L 258.649 580.901 C 245.934 574.354 238.137 569.404 252.47 556.905 z"/>
<path transform="translate(0,0)" fill="#ffffff" d="M 240.581 681.777 C 247.423 681.837 257.088 689.396 253.971 696.791 C 250.524 698.682 251.261 698.07 246.777 697.836 C 239.218 696.282 235.488 694.532 228.558 691.367 L 240.581 681.777 z"/>
<path transform="translate(0,0)" fill="#ffffff" d="M 262.054 637.101 C 267.201 639.339 281.469 643.95 282.062 649.866 L 279.222 653.144 C 272.81 658.061 267.884 658.159 263.697 650.409 L 263.4 649.851 C 260.919 645.25 261.561 642.276 262.054 637.101 z"/>
<path transform="translate(0,0)" fill="#ffffff" d="M 438.878 197.829 C 442.282 198.791 453.135 211.173 452.258 216.355 C 449.059 217.469 449.062 216.609 444.973 214.963 C 437.407 213.318 438.51 210.829 432.874 209.253 C 431.775 209.942 431.227 210.284 430.226 211.125 L 429.481 211.757 L 428.323 210.502 C 428.895 204.454 434.366 201.362 438.878 197.829 z"/>
<path transform="translate(0,0)" fill="#ffffff" d="M 269.616 426.971 C 272.621 429.659 279.857 443.319 275.613 446.915 L 272.737 446.444 C 269.416 446.393 265.276 446.68 262.453 445.174 C 260.478 442.817 260.98 437.147 260.97 433.792 C 265.149 431.243 266.105 430.424 269.616 426.971 z"/>
<path transform="translate(0,0)" fill="#ffffff" d="M 286.223 655.688 C 287.718 655.574 289.393 655.855 290.902 656.03 C 299.936 663.108 288.131 670.855 281.237 673.179 C 279.774 673.611 278.975 673.504 277.442 673.547 L 276.006 672.005 C 275.549 664.887 281.171 659.708 286.223 655.688 z"/>
<path transform="translate(0,0)" fill="#ffffff" d="M 687.493 229.381 C 694.763 230.25 701.498 236.466 705.169 242.616 C 706.223 244.381 704.499 246.601 703.63 248.366 L 701.366 249.526 C 689.964 246.895 687.933 239.817 687.493 229.381 z"/>
<path transform="translate(0,0)" fill="#ffffff" d="M 732.085 324.597 C 739.823 327.471 747.379 338.551 739.179 345.731 C 737.041 347.721 735.807 349.371 733.009 349.695 C 729.963 345.704 732.027 331.688 732.085 324.597 z"/>
<path transform="translate(0,0)" fill="#ffffff" d="M 433.899 250.539 L 435.067 251.178 C 437.233 255.641 446.546 266.209 445.759 269.458 L 443.799 269.063 C 437.901 268.396 430.409 268.756 428.053 262.796 C 428.531 257.802 431.149 255.133 433.899 250.539 z"/>
<path transform="translate(0,0)" fill="#ffffff" d="M 386.107 197.792 C 388.759 201.852 391.273 205.952 394.481 209.591 C 389.391 215.74 386.522 218.716 380.656 224.143 L 379.938 219.638 C 382.792 215.038 384.211 204.014 386.107 197.792 z"/>
<path transform="translate(0,0)" fill="#ffffff" d="M 413.768 154.228 C 420.858 156.557 423.051 167.159 413.458 170.896 C 409.58 170.815 408.614 171.185 406.897 167.961 C 407.17 163.961 411.503 157.921 413.768 154.228 z"/>
<path transform="translate(0,0)" fill="#fefdfe" d="M 260.573 688.296 C 264.61 688.487 276.885 694.228 281.002 696.205 L 281.26 697.459 C 268.627 699.557 262.64 705.038 260.573 688.296 z"/>
<path transform="translate(0,0)" fill="#fefdfe" d="M 733.209 262.756 C 736.894 262.664 751.516 266.793 754.726 269.255 L 754.624 271.346 C 754.273 271.547 753.918 271.742 753.56 271.929 C 744.179 276.773 737.469 271.137 733.209 262.756 z"/>
<path transform="translate(0,0)" fill="#fefdfe" d="M 757.583 324.331 C 759.358 325.084 759.327 325.256 760.505 326.713 C 758.459 334.785 757.702 339.241 749.914 342.127 C 748.297 340.821 748.288 340.78 747.051 339.095 C 749.225 333.001 752.313 328.154 757.583 324.331 z"/>
<path transform="translate(0,0)" fill="#fefdfe" fill-opacity="0.937255" d="M 402.426 177.572 C 410.395 181.827 404.629 203.603 389.803 194.634 C 390.046 190.984 389.407 190.307 391.458 188.174 C 394.805 190.34 397.247 192.66 400.879 190.388 C 402.779 186.845 402.381 181.723 402.426 177.572 z"/>
<path transform="translate(0,0)" fill="#fefdfe" d="M 252.852 353.6 C 252.568 361.73 254.416 366.37 254.27 372.861 L 253.054 373.613 L 251.494 372.442 L 250.908 371.986 C 241.541 364.494 243.718 360.368 252.852 353.6 z"/>
<path transform="translate(0,0)" fill="#ffffff" d="M 362.722 273.908 L 364.38 274.072 C 368.342 277.119 368.826 282.976 365.965 286.991 L 363.623 286.344 C 359.726 284.224 356.656 283.23 355.454 279.262 C 356.784 276.366 359.689 275.454 362.722 273.908 z"/>
<path transform="translate(0,0)" fill="#fefdfe" d="M 688.708 300.929 C 698.911 305.421 698.627 309.224 698.167 319.036 C 695.66 319.126 695.068 319.366 693.042 318.118 C 690.809 313.083 689.442 306.383 688.708 300.929 z"/>
<path transform="translate(0,0)" fill="#fefdfe" d="M 674.632 203.454 C 679.101 205.176 686.279 218.742 688.393 223.282 C 677.123 224.067 675.87 211.879 674.632 203.454 z"/>
<path transform="translate(0,0)" fill="#ffffff" d="M 301.649 271.603 C 309.403 273.562 315.213 280.351 313.22 288.603 C 308.895 283.944 303.017 280.279 300.251 275.002 L 301.649 271.603 z"/>
<path transform="translate(0,0)" fill="#fefdfe" d="M 287.505 605.911 C 290.649 606.904 296.871 608.484 298.554 611.172 C 296.572 612.612 295.856 612.346 293.249 612.317 L 274.924 612.012 L 287.505 605.911 z"/>
<path transform="translate(0,0)" fill="#fefdfe" d="M 792.919 271.573 C 794.192 272.232 793.649 271.964 794.596 273.438 C 793.518 277.762 785.463 283.507 781.655 286.587 C 780.674 286.559 780.783 286.33 779.683 285.573 C 780.999 278.917 787.282 274.602 792.919 271.573 z"/>
<path transform="translate(0,0)" fill="#fefdfe" d="M 728.831 358.938 L 729.654 359.87 C 730.724 367.654 720.894 372.456 714.484 373.936 L 713.712 373.317 C 716.183 369.61 725.046 362.264 728.831 358.938 z"/>
<path transform="translate(0,0)" fill="#fefdfe" d="M 744.924 350.082 L 746.175 350.284 L 746.793 351.921 C 744.501 356.591 739.023 361.282 734.863 364.302 L 733.806 363.774 C 732.635 357.11 739.81 352.336 744.924 350.082 z"/>
<path transform="translate(0,0)" fill="#fefdfe" fill-opacity="0.988235" d="M 328.857 271.636 C 334.748 271.95 340.774 275.923 344.865 279.961 L 343.503 281.735 C 338.696 278.839 328.834 276.279 327.323 274.013 L 328.857 271.636 z"/>
<path transform="translate(0,0)" fill="#fefdfe" d="M 695.968 325.601 L 696.922 326.083 C 697.766 328.677 693.04 336.123 691.198 340.594 C 688.613 339.461 688.968 338.322 688.635 335.903 C 689.942 331.824 693.099 328.822 695.968 325.601 z"/>
<path transform="translate(0,0)" fill="rgb(0,0,0)" fill-opacity="0.886275" d="M 174.39 557.206 C 172.644 556.819 170.917 556.353 169.214 555.808 C 158.7 552.349 136.42 536.181 140.758 523.374 C 143.052 522.513 142.563 522.989 144.851 525.74 C 148.352 529.948 157.005 533.128 162.113 535.355 C 157.013 535.165 156.166 534.304 152.242 536.562 C 150.232 544.472 169.374 551.589 174.39 557.206 z"/>
</svg>
