<svg version="1.1" xmlns="http://www.w3.org/2000/svg" style="display: block;" viewBox="0 0 1024 1024" width="256" height="256" preserveAspectRatio="none">
<path transform="translate(0,0)" fill="rgb(0,0,0)" d="M 259.629 398.161 C 256.245 396.576 252.603 395.108 250.476 391.869 C 243.962 381.95 240.055 328.501 240.84 314.181 C 241.518 301.803 243.858 288.882 246.512 276.789 C 248.103 269.537 249.987 262.151 253.394 255.515 C 258.085 246.378 265.353 238.001 271.259 229.593 C 286.766 207.517 300.466 185.273 319.952 166.194 C 329.638 156.71 341.362 148.498 352.749 141.203 C 389.304 117.784 403.727 116.216 444.503 105.454 C 461.4 100.995 477.666 93.4997 494.872 90.3034 C 505.856 88.263 517.33 86.8918 528.509 86.7413 C 540.552 86.5792 552.886 88.2464 564.905 89.0666 C 594.159 91.0632 624.147 92.5616 652.846 98.9239 C 702.048 109.831 762.28 151.895 789.355 194.51 C 817.154 238.265 828.319 311.232 833.069 362.419 C 834.609 379.015 834.345 396.382 836.887 412.796 C 838.849 425.47 842.74 438.205 845.912 450.652 C 848.103 459.252 850.128 467.974 852.975 476.382 C 857.058 488.436 881.621 547.169 880.003 554.455 C 877.497 554.626 860.954 544.013 857.592 541.875 C 861.212 549.753 865.42 559.368 867.963 567.669 C 867.826 569.426 867.502 575.815 867.231 577.085 L 869.692 577.241 L 869.082 579.186 L 867.731 579.734 L 865.896 577.813 C 864.047 578.237 863.822 579.351 862.454 581.274 C 852.48 576.01 844.329 575.32 833.375 573.4 C 836.343 590.44 843.452 612.989 848.184 630.121 C 843.975 626.863 805.696 606.289 801.82 606.231 C 800.912 609.575 803.867 610.735 804.228 614.337 C 804.666 618.717 804.81 623.472 804.99 627.87 C 800.315 622.99 797.065 616.573 789.84 616.086 C 785.923 619.842 776.639 651.484 774.263 658.903 C 759.651 645.859 753.594 639.725 737.49 627.317 C 735.7 636.237 732.856 646.072 730.59 655.021 C 722.488 646.812 708.241 630.541 697.781 627.35 C 692.811 625.833 687.838 629.474 683.543 632.029 C 682.921 634.548 681.03 642.607 680.073 644.364 C 672.828 657.672 665.169 660.105 666.521 676.909 C 669.669 716.048 657.996 746.395 690.943 775.825 C 706.908 790.086 721.962 805.824 739.073 819.517 C 769.72 823.818 824.25 812.189 850.928 822.356 C 859.627 828.811 910.99 876.688 912.048 882.013 C 919.795 920.989 944.799 968.933 955.253 1005.05 C 946.015 1005.02 936.711 1005.88 927.154 1005.95 L 780.839 1007.25 L 420.499 1009.53 L 260.536 1011.63 C 238.623 1011.86 207.89 1010.66 186.901 1012.15 C 185.003 980.028 180.415 960.654 193.774 930.069 C 205.641 902.903 225.495 878.464 246.819 857.368 C 253.648 850.611 302.996 842.008 314.542 838.867 C 344.623 834.145 377.859 833.337 408.347 827.623 C 418.242 815.574 434.17 793.199 439.298 778.7 C 442.595 769.378 434.838 739.268 435.987 728.019 C 436.578 722.233 438.981 715.51 439.328 710.335 C 439.942 701.172 436.776 690.104 430.908 682.936 C 399.012 672.517 382.16 688.084 351.55 692.77 C 338.834 681.346 328.489 669.908 317.031 688.937 C 316.016 684.076 315.657 679.519 311.64 676.541 C 305.802 677.103 308.546 679.441 302.723 681.636 L 300.751 680.321 C 298.302 676.111 297.972 669.201 297.366 664.166 C 289.756 663.872 285.598 664.381 278.397 666.327 C 275.888 669.093 266.456 679.688 263.433 680.196 C 265.308 674.592 271.159 667.645 274.469 661.313 C 290.229 631.16 306.773 588.569 285.234 557.15 C 278.156 546.825 267.383 543.574 262.165 529.375 C 256.643 514.347 300.075 490.605 280.848 480.482 C 273.408 480.077 266.5 485.611 259.923 489.623 C 260.903 478.302 260.219 458.704 260.196 446.812 C 260.167 431.705 260.75 412.707 259.629 398.161 z"/>
<path transform="translate(0,0)" fill="rgb(254,254,254)" d="M 306.649 267.679 C 308.75 269.66 308.616 283.686 308.821 287.429 C 309.39 298.579 310.594 309.686 312.427 320.699 C 314.428 332.206 316.014 339.093 321.138 349.47 C 329.478 345.03 337.092 341.531 346.543 340.676 C 349.057 331.427 352.905 320.763 355.978 311.558 C 357.016 319.663 357.964 331.782 358.158 339.781 C 365.532 335.586 371.163 333.166 377.599 327.535 C 379.048 323.074 380.546 309.563 383.578 308.176 C 387.342 312.088 388.709 320.22 389.692 325.52 C 400.155 323.731 410.283 323.783 420.902 321.571 C 422.097 314.487 428.186 296.677 430.631 288.507 C 431.175 299.999 431.247 309.918 431.142 321.404 C 438.832 318.965 451.062 315.485 457.914 312.005 C 459.106 334.664 459.684 368.747 456.421 390.973 C 454.718 402.569 448.832 419.542 446.456 433.452 C 450.086 427.049 455.447 412.024 458.953 408.257 C 460.139 411.067 454.093 444.367 453.008 450.506 C 460.71 448.281 475.171 446.411 484.168 444.328 C 492.413 434.365 507.009 409.806 513.054 398.35 C 510.226 412.145 507.929 428.871 504.484 442.03 C 519.589 437.656 534.521 432.704 549.246 427.184 C 550.2 431.894 554.417 459.428 555.454 461.161 L 556.918 460.946 C 559.491 457.786 571.686 428.649 572.357 424.277 L 573.424 423.507 C 576.439 427.928 577.895 429.494 581.678 433.314 C 579.43 447.795 575.536 464.093 572.903 479.049 L 590.098 470.433 C 598.29 447.741 601.81 415.561 597.506 391.452 C 600.37 394.057 604.639 398.536 608.301 399.126 L 608.906 397.239 C 607.137 390.388 600.946 378.378 592.743 378.417 C 587.045 380.718 576.363 398.573 571.762 404.904 C 573.157 394.039 572.179 375.739 571.89 364.372 C 577.236 361.912 586.266 356.487 590.727 352.793 C 598.589 355.003 605.416 357.275 613.14 359.956 C 636.026 370.593 641.62 392.995 643.446 415.807 C 628.2 447.159 629.038 469.556 597.968 494.851 C 590.22 501.159 586.879 503.359 577.465 502.412 C 564.584 529.652 562.792 573.246 542.036 594.966 C 532.569 604.873 520.61 612.638 508.721 619.294 C 490.205 629.661 386.148 676.809 369.333 677.123 C 358.628 677.323 351.204 672.465 343.849 665.303 C 339.031 652.753 340.724 638.062 337.566 625.115 C 336.426 620.211 326.185 610.945 329.79 605.912 C 335.473 597.979 348.298 596.067 357.293 593.471 C 362.566 591.949 367.624 590.615 373.029 588.626 C 352.875 585.684 332.042 577.361 311.261 572.809 C 310.834 563.463 310.906 559.139 313.025 550.265 C 304.296 547.804 287.093 541.403 280.76 535.382 C 280.319 534.966 279.9 534.526 279.506 534.065 C 272.89 526.201 286.029 512.081 290.212 504.732 C 304.649 479.372 303.332 461.853 302.268 434.61 C 294.526 427.003 290.28 420.254 284.228 411.277 L 299.949 409.689 C 294.484 402.023 290.672 397.438 283.048 391.837 C 285.604 382.553 289.541 367.973 293.002 359.353 C 296.63 357.539 296.811 361.908 301.158 360.726 C 301.787 357.389 299.83 341.525 299.251 336.985 C 295.93 310.929 301.954 292.574 306.649 267.679 z"/>
<path transform="translate(0,0)" fill="rgb(0,0,0)" d="M 388.785 361.339 C 399.675 360.611 429.856 371.896 437.006 380.03 C 448.147 392.706 422.113 411.363 414.29 417.32 C 417.99 410.092 423.208 402.213 426.074 394.751 C 431.957 379.43 414.506 380.228 405.075 379.798 C 406.897 391.22 408.947 395.892 401.113 405.383 C 399.472 407.372 398.457 408.737 397.954 411.31 C 399.461 415.777 401.578 416.382 405.741 419.533 C 401.207 431.121 394.533 433.184 383.628 436.827 L 383.036 436.08 C 373.134 423.341 369.243 411.925 371.115 395.894 C 364.772 405.507 360.136 410.927 351.959 418.958 C 354.123 410.261 356.878 400.477 357.602 391.641 C 352.077 390.017 339.767 390.053 338.76 384.056 C 344.688 374.819 376.845 362.898 388.785 361.339 z"/>
<path transform="translate(0,0)" fill="rgb(0,0,0)" d="M 398.134 335.063 C 403.39 334.475 428.549 337.898 434.273 338.918 C 424.242 340.223 409.714 340.142 400.338 341.908 C 386.695 344.478 366.908 355.356 353.638 361.688 C 346.512 365.151 338.206 371.827 330.737 371.047 C 327.528 369.041 328.563 370.178 326.898 366.659 L 327.832 364.345 C 337.468 357.472 386.189 338.223 398.134 335.063 z"/>
<path transform="translate(0,0)" fill="rgb(254,254,254)" d="M 584.464 551.004 L 585.869 551.75 C 586.943 554.933 581.322 575.041 580.188 580.335 C 575.063 604.261 572.321 630.082 562.044 652.431 C 569.914 646.917 581.036 636.366 589.918 629.625 C 588.076 636.517 587.138 642.584 585.985 649.618 C 593.743 642.882 611.623 634.455 621.514 628.908 C 619.168 638.693 617.002 653.139 616.911 663.079 C 598.991 667.892 583.684 675.649 566.228 680.858 C 553.502 684.852 512.087 690.032 497.505 690.105 C 494.131 690.123 484.327 687.497 480.347 686.482 C 486.015 673.485 505.215 639.908 515.8 630.127 C 523.67 622.855 541.981 611.905 548.694 602.551 C 566.785 577.342 553.4 568.202 584.464 551.004 z"/>
<path transform="translate(0,0)" fill="rgb(254,254,254)" d="M 431.399 134.164 C 428.17 138.41 425.986 141.614 423.114 146.066 C 422.389 147.19 419.614 148.811 417.728 151.374 C 420.709 154.351 425.943 152.79 430.122 156.452 C 435.573 161.229 434.965 171.971 429.823 176.904 C 421.742 179.339 416.443 173.239 411.709 174.895 C 412.167 181.622 425.634 189.278 418.206 200.033 C 415.415 206.034 399.892 201.039 400.952 207.94 C 401.861 213.867 407.786 219.745 403.753 225.654 C 400.851 229.907 388.825 232.515 385.838 229.095 C 379.131 221.415 386.495 213.9 375.021 208.021 C 374.473 207.906 366.847 204.272 364.859 203.504 C 357.124 197.53 359.48 201.114 350.526 204.059 C 347.282 205.125 342.871 203.167 339.461 205.107 C 346.935 219.148 350.053 237.532 327.441 229.059 C 324.882 228.1 321.957 221.451 320.657 218.891 C 312.867 226.644 300.612 236.929 291.076 242.597 C 314.483 203.508 321.249 197.678 354.97 169.224 C 357.845 170.882 361.71 172.925 364.125 175.058 C 374.613 168.893 385.504 160.912 394.919 153.169 C 408.383 142.097 413.961 137.411 431.399 134.164 z"/>
<path transform="translate(0,0)" fill="rgb(254,254,254)" d="M 548.69 166.106 C 559.563 165.613 572.532 168.491 580.461 176.397 C 583.506 179.433 584.611 182.686 588.417 185.854 L 590.216 185.468 C 592.811 182.329 592.128 183.662 592.451 179.34 C 594.692 177.305 601.85 177.015 604.987 177.005 C 607.339 176.997 608.642 184.066 612.306 187.318 C 612.706 191.946 610.232 188.604 608.244 194.964 C 608.005 199.739 607.976 202.006 606.764 206.586 C 603.737 206.604 594.468 195.423 588.768 193.158 C 587.214 194.339 586.681 194.696 584.96 195.615 C 580.799 192.922 547.406 171.957 546.87 171.201 C 546.758 168.123 546.599 169.307 548.69 166.106 z"/>
<path transform="translate(0,0)" fill="rgb(254,254,254)" d="M 572.744 213.904 C 575.139 213.75 578.347 213.388 580.501 214.866 C 590.19 221.516 603.312 232.971 606.814 244.449 C 607.969 248.236 606.291 251.606 604.471 254.505 C 591.993 256.253 577.467 231.356 571.783 221.871 C 570.342 219.467 571.744 216.278 572.744 213.904 z"/>
<path transform="translate(0,0)" fill="rgb(254,254,254)" d="M 359.217 205.526 C 364.751 206.816 367.869 207.244 372.693 210.412 C 379.1 220.653 373.967 230.218 361.76 231.57 C 353.53 232.482 350.817 221.932 352.052 215.589 C 353.105 210.185 354.808 208.827 359.217 205.526 z"/>
<path transform="translate(0,0)" fill="rgb(254,254,254)" d="M 449.748 152.818 C 466.994 152.001 471.211 170.103 454.593 178.546 C 438.195 175.907 435.111 161.994 449.748 152.818 z"/>
<path transform="translate(0,0)" fill="rgb(254,254,254)" d="M 734.609 231.889 C 743.741 232.891 750.35 239.295 747.321 248.804 C 745.494 254.541 742.526 255.494 737.484 258.205 L 735.936 258.686 C 732.683 257.984 727.866 254.499 724.88 252.585 C 724.911 240.769 723.148 237.476 734.609 231.889 z"/>
<path transform="translate(0,0)" fill="rgb(254,254,254)" d="M 750.88 259.208 C 765.284 258.709 769.082 277.231 752.748 283.529 C 734.988 281.684 733.308 262.709 750.88 259.208 z"/>
<path transform="translate(0,0)" fill="rgb(254,254,254)" d="M 703.41 232.894 C 719.648 233.181 724.51 247.859 710.21 256.962 C 695.945 261.901 687.199 241.611 703.41 232.894 z"/>
<path transform="translate(0,0)" fill="rgb(254,254,254)" d="M 716.87 206.41 C 721.071 204.971 725.722 205.944 728.994 208.946 C 732.267 211.948 733.636 216.498 732.565 220.807 C 731.494 225.116 728.153 228.495 723.856 229.615 C 717.546 231.259 711.066 227.62 709.187 221.377 C 707.307 215.133 710.702 208.521 716.87 206.41 z"/>
<path transform="translate(0,0)" fill="rgb(254,254,254)" d="M 703.498 180.45 C 707.078 179.555 710.872 180.347 713.797 182.598 C 716.721 184.85 718.456 188.315 718.507 192.006 C 718.583 197.571 714.848 202.468 709.46 203.865 C 702.982 205.546 696.371 201.639 694.719 195.153 C 693.067 188.666 697.004 182.073 703.498 180.45 z"/>
<path transform="translate(0,0)" fill="rgb(254,254,254)" d="M 716.046 259.938 C 733.653 257.205 739.09 275.253 726.362 282.12 C 708.211 284.851 703.225 267.472 716.046 259.938 z"/>
<path transform="translate(0,0)" fill="rgb(254,254,254)" d="M 750.043 205.749 C 753.361 206.397 758.698 210.925 760.144 213.852 C 765.222 224.132 760.102 228.356 752.42 232.534 C 749.004 232.008 742.339 227.783 740.876 224.686 C 736.377 215.162 743.196 209.602 750.043 205.749 z"/>
<path transform="translate(0,0)" fill="rgb(254,254,254)" d="M 467.823 129.092 C 469.653 128.826 471.619 128.864 473.483 128.842 C 480.837 132.086 481.565 137.513 479.007 144.46 C 477.306 149.077 473.756 150.095 469.543 151.917 C 458.965 151.359 453.767 145.277 458.613 134.675 C 460.247 131.1 464.167 130.36 467.823 129.092 z"/>
<path transform="translate(0,0)" fill="rgb(254,254,254)" d="M 690.051 206.061 C 706.347 209.867 709.633 221.041 694.063 230.511 C 691.838 231.705 691.767 231.756 689.354 231.37 C 682.491 227.22 680.123 219.457 682.286 211.792 C 683.318 208.134 686.89 207.419 690.051 206.061 z"/>
<path transform="translate(0,0)" fill="rgb(254,254,254)" d="M 684.202 154.391 C 701.173 152.162 712.89 164.843 697.948 174.971 C 693.781 177.159 692.071 178.755 687.862 175.505 C 681.031 170.231 679.278 161.661 684.202 154.391 z"/>
<path transform="translate(0,0)" fill="rgb(254,254,254)" d="M 763.487 285.734 C 778.13 286.873 783.641 301.495 771.395 310.147 C 760.032 310.124 747.74 294.352 763.487 285.734 z"/>
<path transform="translate(0,0)" fill="rgb(254,254,254)" d="M 481.163 152.996 C 492.805 151.4 501.902 172.937 486.945 175.4 C 480.239 169.798 478.228 170.313 469.519 169.697 C 471.118 159.381 470.197 156.022 481.163 152.996 z"/>
<path transform="translate(0,0)" fill="rgb(254,254,254)" d="M 619.497 239.616 C 632.258 243.024 626.924 256.106 624.919 266.287 C 623.094 268.48 620.218 271.329 618.181 273.466 L 616.446 274.192 L 614.537 273.34 C 609.782 263.395 611.888 247.594 619.497 239.616 z"/>
<path transform="translate(0,0)" fill="rgb(254,254,254)" d="M 775.729 313.002 C 777.27 312.934 778.813 312.918 780.355 312.952 C 793.838 313.36 794.674 329.282 785.316 337.319 C 774.502 340.406 770.646 324.594 771.612 316.556 C 771.826 314.782 774.274 313.839 775.729 313.002 z"/>
<path transform="translate(0,0)" fill="rgb(254,254,254)" d="M 433.359 181.01 C 443.056 180.509 444.762 181.847 451.266 188.958 C 447.332 193.495 443.93 197.029 439.705 201.272 C 438.391 202.643 437.772 203.118 436.257 204.274 C 429.447 203.18 426.569 196.845 426.722 190.521 C 426.824 186.294 430.42 183.524 433.359 181.01 z"/>
<path transform="translate(0,0)" fill="rgb(254,254,254)" d="M 764.563 231.871 L 765.799 232.082 C 770.976 235.39 775.112 248.958 771.872 255.139 C 769.184 257.383 767.938 257.442 764.535 258.2 C 756.501 254.52 755.898 252.036 751.532 244.366 C 756.526 238.397 757.859 236.104 764.563 231.871 z"/>
<path transform="translate(0,0)" fill="rgb(254,254,254)" d="M 667.424 182.136 C 674.369 184.667 687.12 187.574 688.218 195.97 C 687.581 199.385 686.976 199.826 684.625 202.185 C 666.97 209.137 663.306 197.109 667.424 182.136 z"/>
<path transform="translate(0,0)" fill="rgb(254,254,254)" d="M 727.025 182.203 L 732.545 181.833 C 738.093 183.466 746.117 192.212 745.651 198.543 C 745.481 200.853 743.888 201.603 742.235 203.058 C 733.371 206.502 731.681 203.998 724.81 198.916 C 724.983 194.537 725.644 186.121 727.025 182.203 z"/>
<path transform="translate(0,0)" fill="rgb(254,254,254)" d="M 377.024 232.002 C 382.225 233.052 387.719 234.172 388.551 239.849 C 387.151 243.818 380.77 250.039 377.433 254.425 C 376.696 256.313 377.328 255.569 375.238 256.498 C 364.471 250.419 365.042 238.004 377.024 232.002 z"/>
<path transform="translate(0,0)" fill="rgb(254,254,254)" d="M 543.972 136.608 L 548.009 137.56 C 565.524 141.774 566.264 144.902 575.665 160.257 C 562.266 160.245 547.266 150.278 543.972 136.608 z"/>
<path transform="translate(0,0)" fill="rgb(254,254,254)" d="M 733.586 285.861 C 739.113 285.429 743.481 288.682 748.111 291.485 C 743.673 297.367 742.023 299.052 736.668 304.049 C 734.959 305.621 734.881 305.834 732.681 306.183 C 727.303 302.273 726.199 296.445 727.536 290.228 C 728.088 287.659 731.44 286.834 733.586 285.861 z"/>
<path transform="translate(0,0)" fill="rgb(254,254,254)" d="M 422.124 205.756 C 425.554 206.163 429.306 208.872 432.358 210.743 C 428.489 216.079 426.61 219.289 420.655 221.993 L 420.102 222.199 C 415.884 223.74 414.836 224.251 411.277 222.615 C 407.72 214.513 415.671 208.702 422.124 205.756 z"/>
<path transform="translate(0,0)" fill="rgb(254,254,254)" d="M 450.453 135.232 L 451.274 135.372 L 451.823 136.946 C 447.235 149.785 446.306 152.328 432.089 150.718 C 430.116 149.829 428.696 149.502 427.705 147.713 L 428.837 144.823 C 434.228 139.437 443.179 137.378 450.453 135.232 z"/>
<path transform="translate(0,0)" fill="rgb(254,254,254)" d="M 774.236 261.455 C 774.726 261.586 776.017 262.386 776.539 262.684 C 778.09 267.206 783.349 281.007 782.03 285.222 L 780.755 285.063 C 768.908 278.432 761.167 273.651 774.236 261.455 z"/>
<path transform="translate(0,0)" fill="rgb(254,254,254)" d="M 710.72 158.984 C 715.137 160.794 727.028 170.143 726.824 175.265 L 723.159 177.927 C 718.786 179.368 713.5 175.86 709.115 173.755 C 709.246 168.938 709.03 163.406 710.72 158.984 z"/>
<path transform="translate(0,0)" fill="rgb(254,254,254)" d="M 664.883 138.969 C 669.275 138.885 674.217 139.063 678.66 139.118 C 681.403 141.553 686.107 144.704 686.653 147.606 L 684.74 148.684 C 673.445 154.487 666.997 151.908 664.883 138.969 z"/>
<path transform="translate(0,0)" fill="rgb(254,254,254)" d="M 594.87 278.195 C 607.811 277.657 614.307 283.47 612.284 296.704 C 606.866 294.185 596.528 284.433 594.87 278.195 z"/>
<path transform="translate(0,0)" fill="rgb(254,254,254)" d="M 315.768 232.324 C 320.281 233.836 326.956 234.29 329.973 236.47 L 329.682 238.051 L 326.315 240.138 C 321.305 242.246 316.56 243.274 312.911 238.519 C 313.218 234.578 313.042 235.807 315.768 232.324 z"/>
<path transform="translate(0,0)" fill="rgb(254,254,254)" d="M 646.278 181.803 C 655.401 182.463 657.817 185.77 658.96 194.289 C 649.368 191.903 646.06 192.565 646.278 181.803 z"/>
<path transform="translate(0,0)" fill="rgb(0,0,0)" fill-opacity="0.835294" d="M 867.963 567.669 C 871.697 575.216 876.242 585.076 880.436 592.171 C 874.423 588.571 868.429 584.938 862.454 581.274 C 863.822 579.351 864.047 578.237 865.896 577.813 L 867.731 579.734 L 869.082 579.186 L 869.692 577.241 L 867.231 577.085 C 867.502 575.815 867.826 569.426 867.963 567.669 z"/>
</svg>