<svg version="1.1" xmlns="http://www.w3.org/2000/svg" style="display: block;" viewBox="0 0 1024 1024" width="256" height="256" preserveAspectRatio="none">
<path transform="translate(0,0)" fill="rgb(0,0,0)" d="M 517.156 86.3216 C 540.434 84.7968 570.765 95.3832 591.736 105.038 C 600.092 108.885 615.353 109.291 622.94 113.42 C 646.493 126.236 669.004 144.853 688.778 162.923 C 703.439 178.909 715.628 193.902 730.912 209.677 C 761.461 241.207 771.96 287.076 796.857 323.36 C 809.969 342.47 812.653 351.404 831.595 366.177 C 845.027 376.653 853.208 415.966 852.907 431.89 C 849.994 437.046 846.242 442.424 842.94 447.395 C 844.108 458.254 849.978 479.912 854.366 490.435 C 855.841 493.973 864.99 502.012 866.474 504.99 C 872.721 517.53 882.748 540.506 883.959 554.006 C 885.584 572.124 883.003 592.217 868.873 604.654 C 864.849 608.876 857.045 615.512 855.261 620.896 C 840.245 666.199 842.467 668.533 792.986 672.778 C 778.432 684.997 778.464 699.25 766.226 706.855 C 740.465 722.866 723.894 699.372 699.818 695.099 C 683.369 716.836 689.188 736.646 705.574 756.651 C 719.359 761.908 738.429 762.04 753.297 762.561 C 787.603 763.648 828.282 769.387 859.552 784.476 C 878.888 793.807 902.877 832.922 916.171 849.967 C 922.3 859.538 931.867 890.237 930.271 900.476 C 924.369 938.337 932.877 967.931 942.705 1005.32 C 937.04 1004.72 912.308 1005.3 905.201 1005.31 L 808.958 1005.95 L 474.5 1006.75 L 337.231 1006.94 C 287.227 1007.36 233.058 1008.27 183.35 1006.31 C 176.938 965.362 174.125 910.601 188.062 871.702 C 200.807 847.269 231.6 830.593 258.335 832.237 C 282.511 833.725 319.048 820.214 339.949 812.19 C 341.149 808.858 342.133 805.453 342.893 801.994 C 346.16 786.525 324.591 782.948 316.044 767.59 C 307.796 752.767 309.875 751.703 307.994 742.151 C 300.934 706.317 339.299 698.602 341.925 686.632 C 340.753 681.207 334.438 671.946 329.62 668.794 C 320.724 662.975 314.536 665.78 304.95 667.589 C 292.288 658.84 283.64 651.012 274.39 638.738 C 270.975 644.945 269.42 647.452 265.064 653.028 C 256.694 656.458 250.812 655.725 241.163 659.667 C 242.182 652.955 255.805 635.743 249.684 629.62 C 244.189 624.124 225.931 633.047 220.323 632.654 C 206.078 631.655 187.944 619.269 177.64 609.991 C 176.582 606.954 175.401 601.87 174.537 598.62 C 168.607 598.078 164.232 598.441 158.552 600.032 C 151.027 596.961 146.614 594.548 139.885 590.116 C 144.304 588.184 161.776 577.189 163.257 573.161 C 162.091 568.79 161.095 558.172 159.696 556.319 C 155.168 554.906 148.595 559.995 145.567 559.417 C 129.401 556.335 114.134 537.135 113.355 520.976 C 112.94 512.364 115.955 509.48 120.924 504.006 C 116.989 497.126 109.755 490.276 106.551 483.481 C 100.343 470.312 103.479 454.017 112.419 442.801 C 115.248 439.253 124.31 431.453 125.169 428.257 C 126.688 422.603 122.193 414.714 122.033 407.852 C 121.75 395.693 123.293 383.437 124.443 371.322 C 139.633 352.124 166.319 343.028 189.85 340.156 C 183.407 309.526 192.376 319.556 206.281 301.006 C 208.34 298.26 217.968 273.473 221.113 267.19 C 231.274 261.699 240.296 260.62 250.985 256.411 C 265.588 238.007 276.355 212.326 292.183 192.624 C 322.743 154.584 353.816 133.606 398.079 113.941 C 425.783 101.633 433.154 100.062 462.738 95.0269 C 480.824 91.8008 498.966 88.8986 517.156 86.3216 z"/>
<path transform="translate(0,0)" fill="rgb(254,254,254)" d="M 536.182 183.094 C 543.159 197.462 564.838 213.134 578.171 223.1 C 624.754 257.92 654.699 307.945 671.068 363.014 C 673.975 372.908 670.715 395.128 670.885 405.914 C 652.208 397.153 638.348 393.419 617.483 394.917 C 610.707 395.404 597.704 394.934 593.367 400.834 L 593.173 402.715 C 598.861 406.526 622.794 399.628 633.364 401.381 C 646.998 403.643 658.902 406.536 672.036 410.943 C 667.915 424.239 661.023 434 668.323 445.627 C 676.261 458.269 685.525 471.298 694.194 483.435 C 681.616 513.337 677.423 531.928 651.317 552.931 C 627.903 571.767 632.627 601.529 646.18 625.685 C 635.429 635.003 624.781 644.814 613.479 653.445 C 602.955 661.481 591.662 668.492 581.133 676.531 C 568.201 686.404 529.596 721.379 514.789 720.237 C 492.843 718.546 406.548 657.981 391.201 639.577 C 382.067 628.625 358.343 600.521 359.778 586.584 C 360.503 579.547 364.805 572.61 367.305 566.055 C 373.478 549.873 368.177 531.279 357.849 518.027 C 351.6 510.009 343.722 504.572 336.325 497.788 C 336.132 493.14 334.869 476.607 337.512 474.764 C 351.607 464.928 367.739 454.517 377.437 439.378 C 375.068 460.557 371.377 461.399 386.296 477.762 L 387.021 476.868 C 388.477 472.714 388.546 471.194 391.957 468.433 C 395.216 482.7 403.624 491.094 419.322 487.492 C 427.186 485.624 434.003 480.745 438.306 473.903 C 445.417 462.559 442.975 446.999 442.195 433.864 C 462.496 443.392 462.473 446.878 466.938 468.532 C 468.815 460.994 470.705 452.138 471.663 444.427 C 467.791 435.143 461.595 432.337 461.078 428.259 C 466.892 426.352 468.6 431.492 473.295 430.042 C 479.011 407.024 421.75 403.823 408.015 405.913 C 406.144 406.197 402.687 416.303 395.994 416.348 L 392.288 413.548 L 390.648 413.928 C 387.429 423.72 390.354 422.295 381.821 430.463 L 381.215 430.046 C 384.45 418.991 377.724 397.498 372.087 387.707 C 371.75 387.123 371.4 386.545 371.039 385.975 C 380.349 378.733 461.316 386.091 477.027 388.044 C 478.273 388.2 479.517 388.37 480.759 388.554 C 447.859 377.507 417.597 377.45 383.693 376.599 C 375.206 376.386 369.392 383.62 363.395 379.913 C 359.844 369.959 382.795 311.339 388.65 300.49 C 406.644 267.142 440.424 237.129 473.706 219.236 C 481.546 215.02 490.597 206.836 499.225 203.395 C 521.263 196.527 520.186 200.295 536.182 183.094 z"/>
<path transform="translate(0,0)" fill="rgb(0,0,0)" d="M 646.32 432.366 L 648.51 433.15 C 650.228 436.045 649.316 436.712 648.66 440.973 C 650.199 448.451 661.516 449.151 666.019 455.062 C 679.717 473.046 676.036 492.759 659.426 506.439 C 662.871 497.041 664.332 491.916 666.679 482.061 C 662.172 467.011 659.71 462.45 646.807 454.241 C 647.17 470.725 648.476 489.079 636.844 501.969 C 606.541 519.596 598.322 499.6 596.04 472.476 C 588.307 482.433 586.757 485.409 581.772 496.97 C 582.753 483.032 582.58 470.63 592.446 459.847 C 593.791 458.377 595.315 456.396 596.214 454.646 C 594.507 453.106 594.084 452.904 593.141 450.871 C 601.284 437.869 627.461 439.834 640.475 442.257 L 646.32 432.366 z"/>
<path transform="translate(0,0)" fill="rgb(0,0,0)" d="M 481.472 628.187 C 493.915 626.77 504.341 629.593 515.153 629.986 C 543.179 631.006 547.466 629.822 573.538 640.793 C 560.99 645.003 551.309 656.086 539.968 664.896 C 531.109 670.983 516.699 672.582 508.249 665.376 C 505.127 657.437 516.829 652.259 522.919 648.155 C 512.817 645.068 505.214 640.364 495.923 637.443 C 490.604 635.771 476.391 636.745 470.685 633.06 L 470.678 631.63 C 473.525 629.371 477.818 628.906 481.472 628.187 z"/>
<path transform="translate(0,0)" fill="rgb(0,0,0)" d="M 530.796 556.222 C 547.022 560.813 542.571 580.345 541.969 593.922 C 537.1 595.743 532.188 597.448 527.237 599.033 C 520.936 601.66 517.832 594.24 517.978 589.005 C 519.535 586.769 521.198 586.107 523.571 584.743 C 526.028 580.92 529.746 561.632 530.796 556.222 z"/>
<path transform="translate(0,0)" fill="rgb(0,0,0)" d="M 596.708 424.244 L 597.59 424.184 C 608.246 423.535 629.989 424.249 638.248 431.573 L 638.311 433.153 C 633.792 436.711 624.418 436.111 618.75 436.09 C 609.957 435.948 588.904 443.249 583.463 439.658 C 580.896 432.416 590.999 426.33 596.708 424.244 z"/>
<path transform="translate(0,0)" fill="rgb(254,254,254)" d="M 247.104 411.691 C 249.351 395.396 256.631 377.796 266.268 364.396 C 264.874 371.903 262.66 380.422 260.884 387.939 C 265.089 391.998 274.616 398.636 271.586 404.19 C 268.247 406.453 263.003 406.349 258.831 406.661 C 269.131 412.421 269.131 414.12 276.44 422.953 L 278.57 425.455 C 280.762 430.212 287.141 436.018 291.055 439.991 L 290.521 440.852 C 288.697 445.496 290.06 449.557 289.666 450.927 C 287.548 458.311 274.851 454.932 269.76 460.459 C 270.687 462.642 275.865 463.842 279.687 466.599 C 283.851 476.236 269.812 481.407 263.033 484.945 C 257.066 475.868 256.259 475.669 252.037 465.715 L 250.944 484.454 C 248.055 487.215 244.116 490.58 243.996 494.66 L 245.529 496.079 C 254.03 497.366 264.473 492.898 272.275 489.559 C 277.225 490.049 282.171 490.587 287.111 491.171 L 295.643 498.104 C 294.743 503.749 294.127 509.193 293.481 514.863 C 302.925 518.483 312.88 523.068 322.035 527.35 C 297.297 562.35 274.841 574.671 301.361 618.571 C 294.376 616.179 287.425 613.102 280.613 610.207 C 276.449 590.242 279.678 591.926 268.81 570.195 C 293.827 540.763 250.915 539.846 234.586 534.039 C 232.581 531.781 230.588 529.511 228.608 527.23 C 221.698 519.275 196.502 491.228 197.15 481.959 C 199.195 477.013 204.419 474.439 208.988 472.139 C 213.063 473.353 217.238 474.996 221.24 476.485 C 225.484 474.211 236.181 462.269 239.017 458.078 C 232.505 424.801 260.174 451.712 265.971 433.495 C 264.914 426.968 252.528 416.976 247.104 411.691 z"/>
<path transform="translate(0,0)" fill="rgb(254,254,254)" d="M 463.283 128.9 C 465.796 130.06 466.009 130.379 467.603 132.663 C 466.242 141.908 443.744 152.428 440.858 157.745 C 443.51 161.27 445.647 158.756 447.538 162.995 C 446.076 168.143 437.337 177.74 433.57 182.284 C 425.016 171.921 425.178 171.529 424.46 157.862 C 420.331 167.833 418.565 176.029 413.601 187.131 C 386.401 181.969 389.189 194.086 381.306 214.333 C 377.941 222.978 370.912 221.066 363.33 223.582 C 364.002 228.665 372.119 231.335 372.349 238.7 C 370.233 243.924 356.967 250.392 352.704 248.721 C 351.986 246.344 351.449 244.824 350.489 242.534 L 348.682 242.719 C 332.837 256.429 328.246 273.482 318.156 288.194 C 304.559 308.023 301.696 308.405 290.954 331.128 L 285.161 323.72 C 289.456 300.23 294.278 295.58 289.81 271.542 L 284.179 245.498 C 299.568 222.867 321.104 199.595 340.261 180.102 C 345.477 174.796 373.454 152.979 379.886 151.694 C 379.094 154.257 362.361 174.398 359.107 178.556 C 360.539 181.596 361.321 186.117 362.049 189.504 C 356.195 199.493 354.465 197.841 343.231 199.783 L 342.496 200.95 C 344.401 204.575 348.349 206.997 351.701 209.475 C 354.761 206.524 371.244 192.474 372.036 190.632 C 369.7 187.536 364.157 181.277 367.617 177.727 C 376.254 168.863 383.302 168.884 392.564 175.44 C 394.636 173.875 394.058 173.802 394.602 170.478 C 395.751 162.474 406.337 165.954 411.701 162.241 C 428.579 150.56 446.028 139.858 463.283 128.9 z"/>
<path transform="translate(0,0)" fill="rgb(254,254,254)" d="M 226.62 337.78 C 227.413 340.656 215.072 376.095 212.868 383.694 C 208.906 397.354 209.75 411.57 207.377 425.019 C 205.496 435.676 176.075 437.409 173.048 449.017 C 173.3 452.413 174.508 453.56 176.518 456.225 C 180.665 456.996 185.072 451.899 189.937 451.6 C 199.979 450.983 208.493 461.781 200.67 470.365 C 195.344 476.208 189.276 475.37 181.89 475.58 L 190.444 482.053 C 192.337 488.182 194.95 495.725 191.151 501.369 C 185.603 504.153 175.204 499.204 171.624 504.378 C 175.337 517.788 212.044 537.406 213.474 542.35 L 211.721 544.672 C 209.211 547.111 201.392 556.769 199.666 557.175 C 191.893 546.458 167.436 522.738 156.376 515.897 L 155.972 515.651 C 156.013 507.645 156.354 500.412 156.823 492.414 C 132.548 483.162 129.542 471.04 137.666 447.802 C 147.181 438.806 171.894 430.314 178.613 421.991 C 185.928 412.929 195.013 387.387 201.69 375.114 C 210.832 358.306 214.639 352.489 226.62 337.78 z"/>
<path transform="translate(0,0)" fill="rgb(254,254,254)" d="M 703.308 222.839 C 716.995 226.709 722.622 245.104 705.292 249.881 C 688.124 244.139 687.184 230.435 703.308 222.839 z"/>
<path transform="translate(0,0)" fill="rgb(254,254,254)" d="M 641.209 153.565 C 659.959 159.744 658.43 169.786 647.098 182.068 C 629.653 174.892 625.27 167.619 641.209 153.565 z"/>
<path transform="translate(0,0)" fill="rgb(254,254,254)" d="M 682.417 199.874 C 699.453 205.262 699.035 217.552 685.067 227.108 C 679.872 225.123 675.136 224.099 672.702 218.579 C 668.359 208.732 673.978 203.573 682.417 199.874 z"/>
<path transform="translate(0,0)" fill="rgb(254,254,254)" d="M 218.72 443.79 C 221.696 443.652 228.369 446.555 230.076 448.893 C 236.387 457.537 228.252 465.843 222.475 470.398 C 221.266 470.166 220.062 469.905 218.865 469.615 C 211.431 467.78 206.986 461.565 208.987 453.925 C 210.489 448.191 213.971 446.625 218.72 443.79 z"/>
<path transform="translate(0,0)" fill="rgb(254,254,254)" d="M 658.407 178.65 C 661.901 178.673 666.936 180.793 670.387 182.021 L 677.549 191.474 L 670.477 202.832 C 665.963 203.09 661.584 202.662 657.082 202.334 C 649.864 191.798 650.035 188.339 658.407 178.65 z"/>
<path transform="translate(0,0)" fill="rgb(254,254,254)" d="M 392.006 192.328 C 399.392 191.406 404.897 190.966 409.472 197.965 C 413.612 204.297 410.093 211.239 404.462 214.899 C 387.59 217.596 383.031 204.613 392.006 192.328 z"/>
<path transform="translate(0,0)" fill="rgb(254,254,254)" d="M 721.512 246.961 C 727.914 245.413 733.398 257.277 736.283 261.993 C 733.387 265.25 730.464 268.482 727.513 271.689 C 716.213 264.3 702.872 256.388 721.512 246.961 z"/>
<path transform="translate(0,0)" fill="rgb(254,254,254)" d="M 648.156 208.388 C 664.932 206.302 672.212 214.864 663.6 230.403 C 658.805 228.773 646.779 214.156 646.368 209.661 L 648.156 208.388 z"/>
<path transform="translate(0,0)" fill="rgb(254,254,254)" d="M 276.44 422.953 C 276.661 416.694 274.864 410.562 278.96 406.111 C 281.916 407.025 293.686 420.066 294.171 423.714 C 290.012 429.069 283.734 425.568 278.57 425.455 L 276.44 422.953 z"/>
<path transform="translate(0,0)" fill="rgb(254,254,254)" d="M 301.563 427.368 C 304.166 430.149 306.727 432.969 309.244 435.828 C 307.18 442.512 306.16 444.824 302.937 451.036 C 299.981 448.478 293.57 442.617 290.521 440.852 L 291.055 439.991 C 292.167 438.952 298.758 430.368 301.563 427.368 z"/>
<path transform="translate(0,0)" fill="rgb(254,254,254)" d="M 387.508 219.961 C 390.469 219.935 391.027 219.847 393.618 221.216 L 394.146 223.283 C 392.43 227.716 387.418 232.567 384.085 236.237 C 382.598 237.92 382.55 237.978 380.49 238.778 C 378.06 236.491 377.967 229.313 377.598 225.527 L 387.508 219.961 z"/>
<path transform="translate(0,0)" fill="rgb(254,254,254)" d="M 670.451 228.696 C 675.809 229.109 681.663 232.227 684.808 236.606 L 684.494 238.387 L 681.758 239.613 C 676.136 241.469 670.431 242.673 666.931 237.014 C 666.678 233.418 668.365 231.688 670.451 228.696 z"/>
<path transform="translate(0,0)" fill="rgb(254,254,254)" d="M 618.9 143.661 C 620.939 144.165 622.971 144.696 624.996 145.254 C 628.55 146.243 633.333 147.537 635.238 150.903 C 634.695 153.518 634.913 152.664 632.218 154.768 C 630.336 156.635 629.458 157.941 626.896 158.4 C 620.333 156.139 618.523 150.124 618.9 143.661 z"/>
<path transform="translate(0,0)" fill="rgb(254,254,254)" d="M 300.931 453.342 L 301.554 454.383 C 298.446 461.808 296.336 467.526 288.889 470.666 C 280.83 459.351 292.313 455.979 300.931 453.342 z"/>
<path transform="translate(0,0)" fill="rgb(254,254,254)" d="M 635.765 181.855 C 645.18 190.331 650.046 192.503 644.682 205.625 L 643.247 205.706 C 639.488 202.279 635.127 186.91 635.765 181.855 z"/>
<path transform="translate(0,0)" fill="rgb(254,254,254)" d="M 427.445 185.768 L 429.071 186.31 L 429.536 187.888 C 427.581 192.104 421.978 198.472 418.868 202.301 C 410.617 196.458 419.298 187.527 427.445 185.768 z"/>
<path transform="translate(0,0)" fill="rgb(254,254,254)" d="M 736.213 271.272 C 737.187 271.505 738.65 272.085 739.641 272.437 C 742.861 276.821 746.68 282.722 744.287 288.054 C 740.671 285.227 735.836 282.067 733.894 278.078 C 733.538 274.037 733.586 275.292 736.213 271.272 z"/>
<path transform="translate(0,0)" fill="rgb(254,254,254)" d="M 393.36 450.258 C 392.353 457.391 391.732 461.245 391.957 468.433 C 388.546 471.194 388.477 472.714 387.021 476.868 C 386.846 476.196 386.677 475.523 386.513 474.848 C 383.768 463.499 387.203 460.283 393.36 450.258 z"/>
</svg>