<svg xmlns="http://www.w3.org/2000/svg" version="1.1" style="display: block;" viewBox="0 0 1024 1024" width="256" height="256" preserveAspectRatio="none">
<path transform="translate(0,0)" fill="rgb(0,0,0)" d="M 189.385 780.29 C 199.166 759.901 208.752 701.808 211.127 677.491 C 213.01 638.588 215.183 596.229 213.963 557.404 C 211.435 476.977 207.632 404.128 224.52 324.316 C 239.66 252.767 266.706 175.51 331.134 132.943 C 355.872 116.599 377.622 100.93 406.548 95.1657 C 449.511 84.2836 503.923 78.5893 547.938 84.859 C 588.698 93.4432 638.137 107.459 673.216 131.222 C 701.414 150.322 735.6 190.091 751.52 219.601 C 757.895 231.419 770.605 263.568 773.011 276.472 C 778.069 303.604 778.801 337.124 777.443 364.785 C 775.102 382.325 775.176 407.226 772.954 424.077 C 770.601 441.924 784.472 462.988 783.471 468.319 C 778.719 468.247 770.234 459.011 766.625 455.549 C 767.82 478.602 764.061 498.307 761.058 520.7 C 750.994 595.722 741.952 670.364 737.82 746.006 C 736.257 774.613 733.602 804.575 733.095 833.163 L 733.05 834.311 C 731.803 854.662 733.093 879.225 738.058 899.127 C 765.105 912.337 795.406 948.755 805.634 977.351 C 810.243 990.239 809.172 1003.14 803.158 1015.33 C 801.695 1018.25 800.18 1021.14 798.614 1024 L 35.0293 1024 C 36.3428 998.135 42.9038 980.984 45.548 957.432 C 49.6125 921.23 37.6698 884.754 56.7722 849.839 C 72.0254 821.959 99.7167 781.082 136.145 781.131 C 155.833 781.157 169.959 786.571 189.385 780.29 z M 627.054 823.001 C 630.114 827.204 635.328 834.96 640.075 836.789 L 641.7 836.365 C 643.19 831.475 641.527 811.67 641.549 804.809 C 641.635 778.761 641.216 752.762 641.93 726.702 C 642.048 722.408 643.985 701.292 643.385 699.685 C 615.874 726.43 608.037 728.879 608.682 768.5 C 609.053 791.231 613.36 804.444 627.054 823.001 z M 364.804 610.008 C 367.786 602.168 368.027 600.075 361.166 595.252 L 360.877 593.953 L 364.8 590.199 C 364.644 586.028 361.385 586.207 357.701 585.512 C 352.248 594.441 362.233 602.147 361.342 611.423 C 362.487 610.931 363.642 610.459 364.804 610.008 z"/>
<path transform="translate(0,0)" fill="rgb(253,253,253)" d="M 389.893 469.389 L 396.5 470.284 C 402.311 474.879 400.659 494.461 407.553 505.451 C 414.761 517.239 434.546 530.967 448.584 533.19 C 491.939 540.054 555.302 544.196 567.879 490.43 C 602.402 490.541 587.677 491.363 600.385 513.517 C 616.965 542.421 690.799 542.092 716.467 534.751 C 702.146 576.815 707.266 587.338 678.199 627.32 C 674.142 632.486 669.837 637.454 665.302 642.207 C 651.294 656.971 584.642 717.17 567.057 716.036 C 532.801 713.826 407.283 640.162 399.726 606.452 C 393.037 576.612 389.625 501.825 389.893 469.389 z"/>
<path transform="translate(0,0)" fill="rgb(0,0,0)" d="M 562.506 626.467 C 567.294 625.18 583.23 627.676 589.256 627.796 C 595.213 627.916 599.725 627.684 605.772 627.364 L 606.503 628.387 C 602.162 636.203 594.215 635.188 589.004 637.668 C 590.334 640.673 591.52 641.907 590.071 644.969 C 585.028 655.627 566.439 663.364 555.726 657.934 C 559.899 648.651 571.897 651.314 576.437 642.717 L 575.216 641.415 C 568.427 640.099 559.675 641.307 552.314 641.624 C 544.195 636.517 534.917 635.161 529.137 631.391 L 528.738 629.455 C 533.04 625.4 552.126 628.533 561.563 626.662 L 562.506 626.467 z"/>
<path transform="translate(0,0)" fill="rgb(0,0,0)" d="M 590.267 560.46 C 591.922 561.554 600.895 572.642 602.297 574.889 C 612.437 591.132 601.187 598.8 589.475 606.046 C 586.461 607.798 578.765 604.459 575.424 603.349 C 579.717 596.189 586.01 591.364 590.416 585.7 C 592.417 583.126 590.397 564.995 590.267 560.46 z"/>
<path transform="translate(0,0)" fill="rgb(0,0,0)" d="M 559.534 587.174 C 564.144 586.988 569.919 586.396 573.275 589.932 C 572.233 592.118 571.691 591.811 569.102 593.065 C 564.488 593.209 560.396 595.125 556.891 593.735 C 556.664 590.525 557.462 590.531 559.534 587.174 z"/>
<path transform="translate(0,0)" fill="rgb(253,253,253)" d="M 571.81 199.578 C 579.575 202.969 609.37 236.244 616.227 243.679 C 618.908 244.371 617.794 244.385 620.697 243.003 C 624.806 237.562 624.083 230.67 623.96 224.033 C 618.764 214.949 613.837 209.792 606.983 202.041 C 630.507 212.663 655.485 233.733 659.184 261.052 C 659.585 264.01 658.631 267.472 659.746 270.218 L 663.048 269.199 L 663.917 269.844 C 662.754 277.312 654.212 275.182 656.345 285.339 C 659.915 287.979 664.936 285.857 668.969 287.931 C 683.798 295.555 663.434 320.236 653.3 304.522 C 652.758 303.681 646.53 299.414 645.025 298.379 C 642.084 303.745 638.16 311.191 631.147 311.682 C 624.434 309.287 625.032 299.768 620.296 294.924 L 618.269 295.101 C 613.599 298.988 608.887 309.688 606.535 315.375 C 633.405 298.921 631.758 334.929 620.643 335.246 C 616.817 328.818 614.607 330.259 607.292 329.823 C 607.117 327.276 606.979 319.56 605.741 317.941 C 600.555 320.662 594.271 335.395 587.141 337.057 C 582.292 335.418 571.161 325.714 573.242 319.779 C 577.801 318.34 579.986 320.42 584.786 322.914 L 585.138 322.067 C 579.144 310.322 568.046 310.35 565.811 307.231 C 549.226 294.516 569.269 292.393 570.789 280.845 L 569.438 279.337 C 564.97 279.996 558.467 285.753 555.32 288.829 L 554.422 301.784 C 541.81 315.414 538.13 311.15 529.06 297.579 C 531.544 293.285 535.221 288.928 533.525 284.103 L 531.534 283.668 C 527.861 284.762 527.13 285.508 524.131 287.828 C 522.454 291.001 521.884 304.28 521.478 308.803 L 507.109 309.706 C 499.533 300.843 500.049 299.644 503.568 288.965 C 499.642 286.803 494.658 282.452 491.451 286.569 C 491.16 290.464 492.986 293.764 494.561 297.355 C 491.766 302.902 489.779 307.196 483.805 309.791 C 480.723 309.512 481.543 310.051 479.804 308.226 C 472.982 275.491 465.8 259.209 478.92 227.837 C 478.831 235.691 478.965 256.453 482.503 263.215 C 487.063 271.93 500.54 272.758 509.792 275.348 C 515.591 260.529 516.328 260.136 516.208 243.761 C 524.252 251.446 533.87 261.138 542.432 267.955 C 550.356 259.103 556.75 246.012 562.431 235.397 C 563.344 237.02 566.951 243.587 568.42 243.948 C 598.73 251.411 575.532 209.706 571.81 199.578 z"/>
<path transform="translate(0,0)" fill="rgb(253,253,253)" d="M 319.404 463.621 C 325.639 468.304 330.321 515.836 333.421 525.392 C 333.815 526.606 335.572 526.585 336.929 526.818 C 341.008 523.901 337.473 515.804 343.381 509.85 C 345.899 509.147 346.72 508.649 349.238 509.928 C 371.405 521.186 350.884 532.821 345.154 545.77 L 344.965 546.206 C 351.635 542.846 356.562 538.893 362.111 534.042 C 361.548 542.639 362.211 550.459 361.75 559.152 C 358.559 560.929 356.775 557.445 352.415 558.67 C 352.371 560.022 358.023 569.485 359.556 572.816 C 351.862 592.426 355.224 596.333 356.126 615.83 C 357.654 648.897 365.926 677.24 372.227 709.27 C 358.646 690.373 352.731 671.33 343.454 650.223 C 343.072 663.777 342.776 677.616 344.134 691.111 C 346.298 706.531 355.284 737.342 360.48 752.837 C 363.548 761.985 370.878 776.756 374.817 787.767 C 344.431 757.464 342.829 724.407 331.093 686.305 C 311.971 624.219 315.626 560.595 306.746 497.52 C 309.773 499.057 312.322 500.714 315.691 500.672 C 316.543 499.319 318.355 469.536 319.404 463.621 z"/>
<path transform="translate(0,0)" fill="rgb(253,253,253)" d="M 324.322 223.52 C 319.624 239.606 317.209 243.436 309.022 257.856 C 314.433 258.107 334.87 256.327 337.309 258.102 C 337.949 261.674 335.48 266.514 334.065 270.079 C 338.348 265.652 341.741 260.683 348.215 260.656 C 355.533 260.624 357.241 265.923 357.348 271.978 C 357.487 279.874 353.924 282.532 348.739 287.529 C 344.818 284.218 341.069 282.972 336.372 281.04 L 334.432 266.229 C 331.967 273.352 329.907 279.023 326.894 285.917 C 342.22 285.988 352.053 294.973 337.455 308.561 C 334.829 311.005 325.224 307.088 321.71 305.902 L 320.828 306.967 C 320.959 311.911 327.582 316.62 328.576 322.454 C 329.637 328.677 321.792 336.405 316.278 336.914 C 311.482 334.588 308.029 330.848 304.179 327.168 C 306.958 316.999 312.148 313.508 312.856 305.879 L 311.718 305.565 C 304.742 310.101 295.236 329.332 294.987 337.269 L 296.725 338.135 C 309.406 328.995 315.135 342.302 312.839 353.111 L 311.631 353.311 C 308.324 348.431 309.603 345.724 306.836 343.006 C 301.636 345.24 284.925 351.493 283.55 356.954 C 279.284 373.903 277.752 393.308 274.864 410.746 C 271.718 388.162 273.265 366.356 271.676 343.903 C 271.427 340.384 266.865 328.701 265.449 324.879 C 260.846 325.955 256.523 327.855 252.137 329.624 C 252.034 321.888 251.965 313.006 252.826 305.975 C 254.441 292.787 265.931 254.33 278.313 249.194 C 306.699 237.417 302.832 251.809 324.322 223.52 z"/>
<path transform="translate(0,0)" fill="rgb(253,253,253)" d="M 296.725 338.135 C 309.406 328.995 315.135 342.302 312.839 353.111 L 311.631 353.311 C 308.324 348.431 309.603 345.724 306.836 343.006 L 307.625 342.715 C 308.313 341.044 308.307 341.172 308.174 339.374 C 305.462 338.017 300.025 338.228 296.725 338.135 z"/>
<path transform="translate(0,0)" fill="rgb(253,253,253)" d="M 503.001 443.213 C 527.695 442.855 528.341 451.993 540.196 468.464 C 542.556 466.151 539.432 458.135 544.292 455.287 C 554.058 458.596 553.379 469.466 553.314 476.468 C 552.936 517.496 526.613 525.077 491.39 524.468 C 474.139 524.17 457.392 525.936 440.661 519.393 C 428.181 514.462 418.159 504.795 412.781 492.502 C 407.978 481.256 407.676 469.599 412.336 458.236 C 415.001 455.798 413.753 456.365 417.033 455.751 C 419.155 456.668 419.914 457.254 421.38 459.041 C 420.319 464.848 419.349 479.438 424.114 483.518 L 425.2 482.962 C 425.012 472.828 423.83 462.16 434.347 456.376 L 435.567 456.891 C 434.432 476.245 432.596 500.516 457.41 505.229 C 464.316 506.54 478.951 508.082 482.444 500.776 C 483.206 496.568 481.679 495.782 480.538 491.997 C 478.857 486.423 488.09 487.022 488.946 483.584 C 491.641 472.751 486.974 461.2 482.883 451.425 L 483.896 450.401 C 487.376 451.672 492.038 453.236 495.627 454.466 C 504.12 457.378 510.867 482.519 519.62 480.746 C 521.288 474.726 513.92 469.035 512.725 462.316 L 513.765 460.849 C 516.049 460.962 518.334 461.04 520.619 461.082 C 520.314 453.796 506.933 450.381 503.001 443.213 z"/>
<path transform="translate(0,0)" fill="rgb(253,253,253)" d="M 657.289 167.126 C 699.578 191.767 734.543 223.941 748.613 272.654 C 752.197 285.062 751.53 299.663 755.251 312.11 C 751.54 325.057 746.632 335.069 742.972 346.788 C 740.215 326.918 745.839 285.384 720.021 279.247 L 716.827 280.404 L 716.598 282.746 C 712.771 283.552 708.714 284.045 704.825 284.584 C 704.75 296.994 703.085 297.392 702.199 307.522 C 707.532 315.321 735.905 312.515 709.179 336.986 C 701.333 332.654 698.257 331.041 689.132 330.483 C 690.999 307.937 695.79 291.094 692.787 267.797 C 690.801 265.397 688.435 262.017 686.708 259.353 C 674.983 241.264 660.364 224.268 648.512 206.438 C 658.694 211.913 666.292 217.513 674.743 225.339 C 685.221 227.858 687.792 228.118 698.204 226.619 C 685.252 191.961 679.627 196.087 654.661 171.396 L 657.289 167.126 z"/>
<path transform="translate(0,0)" fill="rgb(253,253,253)" d="M 651.904 507.62 C 683.029 513.812 674.498 507.866 685.345 483.248 C 687.508 478.339 689.109 473.442 690.286 468.221 C 687.59 464.818 682.75 460.272 681.863 456.745 L 682.882 455.312 C 695.728 454.261 701.946 467.424 703.431 477.855 C 704.783 487.347 692.975 505.536 696.111 509.995 C 700.328 508.509 703.056 505.208 706.444 502.649 C 707.262 502.031 712.256 503.294 714.199 501.123 C 711.934 498.73 709.133 496.484 708.669 493.452 C 712.23 481.493 719.395 480.577 719.949 475.035 C 721.683 471.497 722.388 471.153 725.641 468.895 C 728.418 477.509 726.539 480.528 725.814 489.017 C 724.478 504.649 714.591 523.434 697.71 527.214 C 673.594 532.234 643.688 531.589 621.113 520.928 C 614.871 517.981 611.733 513.468 610.188 506.942 C 605.314 486.351 605.877 474.221 622.143 459.486 C 631.816 456.658 640.676 456.586 648.965 454.17 C 644.486 462.686 631.859 476.608 630.643 483.697 L 631.926 484.543 C 638.263 483.086 643.231 471.367 647.297 465.913 C 643.608 481.766 639.399 494.588 651.904 507.62 z"/>
<path transform="translate(0,0)" fill="rgb(253,253,253)" d="M 400.091 303.83 C 405.572 308.653 405.216 330.718 406.713 338.308 C 410.158 355.784 422.752 386.875 432.957 401.122 C 422.011 407.952 398.939 421.418 391.907 430.53 C 401.599 424.049 423.468 414.294 434.793 409.562 C 441.451 413.096 448.066 416.708 454.639 420.396 C 458.007 422.213 467.818 424.669 468.871 426.893 C 462.902 430.582 439.442 429.45 428.108 433.011 C 412.439 437.934 404.344 447.75 391.68 451.823 C 389.893 447.938 388.131 443.177 388.119 438.929 C 388.04 411.13 392.349 327.987 400.091 303.83 z"/>
<path transform="translate(0,0)" fill="rgb(253,253,253)" d="M 523.1 369.675 C 528.845 373.711 534.952 394.276 540.074 401.327 C 557.056 424.709 579.57 447.871 608.549 453.859 C 592.795 467.041 596.42 480.775 570.298 471.39 C 566.54 470.04 565.895 467.933 564.066 464.515 C 559.963 458.295 557.819 456.274 552.52 451.173 C 544.397 443.355 496.026 418.814 503.683 406.587 C 512.942 405.733 525.33 428.84 535.479 421.522 C 537.035 417.959 537.272 416.789 534.908 413.369 C 525.263 399.415 524.342 386.651 523.1 369.675 z"/>
<path transform="translate(0,0)" fill="rgb(253,253,253)" d="M 426.47 213.645 C 426.607 213.836 427.789 215.491 427.789 215.491 C 425.811 240.639 421.401 276.149 422.454 300.191 C 423.259 318.564 425.862 321.663 429.795 332.777 L 428.811 333.453 L 426.351 330.999 C 424.159 328.536 415.579 319.135 414.757 316.526 C 408.279 295.977 412.134 263.382 416.157 242.863 C 417.56 235.707 423.92 220.158 426.47 213.645 z"/>
<path transform="translate(0,0)" fill="rgb(253,253,253)" d="M 738.828 462.059 C 724.81 444.309 695.608 442.368 674.983 439.099 C 673.557 438.873 673.421 437.677 672.93 436.522 C 674.66 433.246 675.222 433.611 678.408 431.719 C 682.088 429.534 682.046 426.313 684.219 422.589 C 688.778 423.88 702.049 431.568 707.83 433.943 C 720.129 438.994 727.856 439.641 740.081 442.555 C 744.335 443.812 743.983 442.957 745.957 445.916 C 744.474 450.105 740.774 457.739 738.828 462.059 z"/>
<path transform="translate(0,0)" fill="rgb(253,253,253)" d="M 606.163 381.62 C 613.027 386.226 612.244 408.677 618.028 414.526 C 625.052 421.629 634.601 424.452 643.552 430.958 C 639.399 432.077 636.537 432.849 632.564 434.453 L 632.534 436.224 C 636.792 437.963 643.4 435.993 647.53 434.375 L 649.894 435.415 C 650.744 436.705 651.414 437.964 652.167 439.308 L 650.814 440.83 C 644.248 443.542 627.073 446.814 621.571 440.999 L 621.158 440.555 C 616.108 435.196 608.356 421.845 604.189 415.094 C 605.65 402.269 606.52 394.572 606.163 381.62 z"/>
<path transform="translate(0,0)" fill="rgb(253,253,253)" d="M 329.428 336.067 C 339.984 334.615 341.977 341.524 346.687 349.41 C 342.594 355.003 341.139 357.185 335.777 361.678 C 324.739 361.966 310.192 344.936 329.428 336.067 z"/>
<path transform="translate(0,0)" fill="rgb(253,253,253)" d="M 644.063 309.704 C 652.937 312.08 661.102 315.043 657.805 327.717 C 656.547 332.551 653.608 334.558 649.111 336.617 C 642.594 335.309 634.322 329.665 635.076 322.295 C 635.741 315.793 639.517 313.529 644.063 309.704 z"/>
<path transform="translate(0,0)" fill="rgb(253,253,253)" d="M 344.509 310.857 C 356.373 308.087 366.419 325.584 349.405 336.248 L 345.669 336.383 C 337.272 332.533 334.031 327.659 336.368 317.944 C 337.315 314.008 341.105 312.598 344.509 310.857 z"/>
<path transform="translate(0,0)" fill="rgb(253,253,253)" d="M 557.209 309.265 L 566.665 315.48 C 552.075 326.577 557.893 330.346 552.428 337.274 C 550.982 342.172 547.938 354.6 543.175 356.476 C 541.395 353.361 543.476 349.784 542.99 345.97 C 542.463 341.833 540.214 340.694 540.788 336.819 C 543.342 335.702 547.808 336.795 550.792 337.246 C 550.024 330.081 547.047 329.616 542.495 323.978 C 547.719 316.968 549.638 313.994 557.209 309.265 z"/>
<path transform="translate(0,0)" fill="rgb(253,253,253)" d="M 716.598 282.746 L 716.827 280.404 C 723.655 286.169 734.645 299.149 727.175 307.758 C 717.965 312.001 706.088 303.566 709.709 293.291 C 710.892 289.935 715.609 287.168 716.598 282.746 z"/>
<path transform="translate(0,0)" fill="rgb(253,253,253)" d="M 495.191 309.897 C 513.251 313.158 512.309 324.678 502.104 336.616 C 497.88 335.632 488.759 320.288 485.821 315.816 L 495.191 309.897 z"/>
<path transform="translate(0,0)" fill="rgb(253,253,253)" d="M 357.827 235.152 C 377.146 238.454 367.961 249.99 361.756 262.518 C 348.862 252.947 346.834 247.466 357.827 235.152 z"/>
<path transform="translate(0,0)" fill="rgb(253,253,253)" d="M 345.009 458.676 C 356.93 464.103 366.984 472.877 352.474 483.633 C 348.85 485.459 346.885 486.898 343.121 484.881 C 340.305 479.134 343.771 465.535 345.009 458.676 z"/>
<path transform="translate(0,0)" fill="rgb(253,253,253)" d="M 314.198 360.944 C 324.452 360.803 325.574 364.509 330.346 372.46 C 327.717 377.783 326.832 379.649 322.949 384.36 C 320.348 386.063 320.634 386.479 317.857 386.428 C 313.651 382.187 309.775 365.768 314.198 360.944 z"/>
<path transform="translate(0,0)" fill="rgb(253,253,253)" d="M 689.152 334.735 C 695.159 337.147 704.687 339.268 706.291 345.83 C 706.271 349.553 703.949 352.469 701.93 355.675 C 698.983 357.739 693.505 359.914 690.052 361.427 L 689.152 334.735 z"/>
<path transform="translate(0,0)" fill="rgb(253,253,253)" d="M 360.255 285.747 C 363.247 285.814 364.123 285.665 366.533 287.512 C 370.021 293.254 366.797 307.228 361.447 310.69 C 349.559 303.269 346.848 293.411 360.255 285.747 z"/>
<path transform="translate(0,0)" fill="rgb(253,253,253)" d="M 628.181 335.897 C 631.773 336.212 635.222 336.112 638.112 338.155 C 642.424 345.001 635.263 351.182 630.854 356.707 C 628.548 358.875 628.656 359.532 625.963 359.817 C 621.728 355.127 623.024 340.262 628.181 335.897 z"/>
<path transform="translate(0,0)" fill="rgb(253,253,253)" d="M 571.847 335.437 C 583.119 338.663 589.576 346.698 581.571 357.399 C 579.943 358.306 578.053 359.041 576.325 359.784 C 568.186 358.785 571.516 342.397 571.847 335.437 z"/>
<path transform="translate(0,0)" fill="rgb(253,253,253)" d="M 332.808 386.22 C 336.497 390.677 333.546 410.502 325.608 409.614 C 316.509 394.935 317.051 391.118 332.808 386.22 z"/>
<path transform="translate(0,0)" fill="rgb(253,253,253)" d="M 656.081 335.976 C 661.437 335.955 664.508 335.06 667.985 339.338 C 668.77 342.935 666.142 353.391 665.412 358.63 C 664.731 359.864 664.971 359.355 663.464 360.251 C 657.135 357.209 655.627 342.269 656.081 335.976 z"/>
<path transform="translate(0,0)" fill="rgb(253,253,253)" d="M 740.081 442.555 C 739.302 435.785 735.363 432.586 737.41 424.366 L 738.11 423.954 L 740.656 425.579 L 740.373 425.194 C 745.41 429.787 747.208 432.272 751.278 437.679 C 750.054 439.366 746.187 444.266 745.957 445.916 C 743.983 442.957 744.335 443.812 740.081 442.555 z"/>
<path transform="translate(0,0)" fill="rgb(253,253,253)" d="M 358.576 486.773 L 359.921 488.511 C 360.341 493.733 361.642 505.319 358.787 509.587 L 355.366 508.867 C 347.271 501.155 349.791 492.415 358.576 486.773 z"/>
<path transform="translate(0,0)" fill="rgb(253,253,253)" d="M 719.949 475.035 C 714.105 471.725 709.562 468.23 710.067 460.837 C 711.762 457.979 710.753 458.764 713.79 457.814 C 719.459 459.145 722.317 464.214 725.641 468.895 C 722.388 471.153 721.683 471.497 719.949 475.035 z"/>
<path transform="translate(0,0)" fill="rgb(253,253,253)" d="M 375.347 208.698 L 376.47 210.992 C 375.68 215.362 373.579 229.245 370.438 231.665 L 368.221 230.473 C 357.754 221.911 368.066 214.365 375.347 208.698 z"/>
<path transform="translate(0,0)" fill="#fdfdfd" fill-opacity="0.988235" d="M 357.701 585.512 C 361.385 586.207 364.644 586.028 364.8 590.199 L 360.877 593.953 L 361.166 595.252 C 368.027 600.075 367.786 602.168 364.804 610.008 C 363.642 610.459 362.487 610.931 361.342 611.423 C 362.233 602.147 352.248 594.441 357.701 585.512 z"/>
<path transform="translate(0,0)" fill="rgb(253,253,253)" d="M 720.753 335.251 C 721.899 335.453 723.04 335.68 724.176 335.933 C 727.97 336.809 728.522 337.377 730.254 340.147 C 730.496 344.321 727.267 349.272 725.229 353.155 C 724.181 355.132 724.25 355.057 722.563 356.52 L 721.124 355.596 C 719.351 350.141 720.204 341.043 720.753 335.251 z"/>
<path transform="translate(0,0)" fill="rgb(253,253,253)" d="M 336.806 490.566 C 339.619 491.598 343.885 494.299 346.628 495.915 C 345.034 500.471 344.087 502.388 341.785 506.662 C 340.747 507.735 339.626 508.472 338.421 509.349 L 336.789 508.493 C 335.078 503.945 336.155 495.418 336.806 490.566 z"/>
<path transform="translate(0,0)" fill="rgb(253,253,253)" d="M 674.807 310.914 C 677.688 314.555 672.645 329.041 668.617 332.132 C 662.26 320.754 665.296 317.425 674.807 310.914 z"/>
<path transform="translate(0,0)" fill="rgb(253,253,253)" d="M 487.342 421.709 C 496.526 421.527 503.868 424.54 508.355 432.922 C 505.184 433.191 501.99 432.932 498.904 432.155 C 492.962 430.599 490.234 426.68 487.342 421.709 z"/>
<path transform="translate(0,0)" fill="rgb(253,253,253)" d="M 726.822 314.467 C 733.217 317.815 735.236 328.099 733.491 334.669 C 731.042 333.026 727.254 331.222 724.54 329.832 C 725.202 324.696 725.963 319.574 726.822 314.467 z"/>
<path transform="translate(0,0)" fill="rgb(253,253,253)" d="M 371.679 260.445 C 372.964 261.157 372.728 261.166 373.628 262.5 C 373.65 267.057 373.662 278.425 371.223 281.942 L 369.791 281.414 L 363.775 274.252 C 366.531 268.88 368.334 265.531 371.679 260.445 z"/>
<path transform="translate(0,0)" fill="rgb(253,253,253)" d="M 354.144 437.385 L 356.26 439.398 C 356.938 443.582 358.328 453.701 357.7 457.695 L 355.848 458.661 C 353.84 456.459 350.761 452.181 348.842 449.687 C 350.64 444.664 351.519 442.128 354.144 437.385 z"/>
<path transform="translate(0,0)" fill="rgb(253,253,253)" d="M 599.828 334.53 L 601.963 335.588 L 602.572 337.446 C 601.136 342.457 597.015 347.663 593.96 352.051 L 591.762 351.237 L 590.969 349.09 C 591.423 342.566 595.395 338.809 599.828 334.53 z"/>
<path transform="translate(0,0)" fill="rgb(253,253,253)" d="M 348.247 360.29 C 354.016 363.266 349.01 378.263 347.391 383.756 C 346.265 382.923 346.037 382.483 345.151 381.409 C 345.036 375.287 344.682 365.233 348.247 360.29 z"/>
<path transform="translate(0,0)" fill="#fdfdfd" d="M 638.061 155.862 C 643.841 158.356 652.186 163.464 657.289 167.126 L 654.661 171.396 C 649.086 166.263 643.552 161.085 638.061 155.862 z"/>
<path transform="translate(0,0)" fill="rgb(253,253,253)" d="M 355.518 337.681 C 356.953 341.949 356.362 351.553 353.592 355.412 C 351.317 348.278 349.798 343.415 355.518 337.681 z"/>
</svg>
