<svg xmlns="http://www.w3.org/2000/svg" version="1.1" style="display: block;" viewBox="0 0 1024 1024" width="256" height="256" preserveAspectRatio="none">
<defs>
	<linearGradient id="Gradient1" gradientUnits="userSpaceOnUse" x1="523.548" y1="420.263" x2="529.049" y2="429.404">
		<stop class="stop0" offset="0" stop-opacity="1" stop-color="#eeeeee"/>
		<stop class="stop1" offset="1" stop-opacity="1" stop-color="#eeeeee"/>
	</linearGradient>
</defs>
<path transform="translate(0,0)" fill="rgb(2,1,2)" d="M 350.344 109.314 C 367.909 87.9746 396.784 79.6324 422.546 89.9239 C 427.913 92.0678 435.18 97.9538 441.825 100.973 C 471.635 77.3805 503.776 88.3143 530.071 110.474 C 540.796 108.504 553.715 105.123 563.869 110.828 C 576.994 118.202 587.23 130.953 601.359 136.893 L 601.857 137.098 C 617.232 117.68 625.382 109.318 650.068 102.18 C 673.427 95.4263 691.594 94.2424 714.983 100.667 C 722.9 102.841 731.134 104.199 738.894 108.95 C 788.922 139.58 830.244 190.143 862.272 238.568 C 867.514 246.494 875.785 269.608 878.252 278.426 C 884.665 301.015 884.015 323.912 884.569 346.936 C 885.642 385.826 882.472 426.791 865.765 462.58 C 854.815 486.037 843.306 511.622 832.129 534.98 C 823.929 552.115 800.156 569.206 791.535 587.041 C 784.04 602.547 777.05 619.48 770.098 635.283 C 766.726 642.854 769.213 678.447 772.011 686.781 C 774.783 695.038 782.083 708.543 785.029 718.911 C 795.463 722.516 807.079 725.3 817.82 728.107 C 824.202 726.032 836.93 719.19 841.895 720.265 L 842.247 721.946 C 832.463 742.24 831.776 742.202 811.787 750.856 C 806.999 749.559 799.074 746.352 795.124 749.834 C 795.461 750.743 795.874 751.831 796.696 752.397 C 812.619 763.355 821.672 762.857 838.661 762.172 C 841.895 762.264 847.923 761.689 849.861 764.223 C 843.79 771.86 828.263 778.133 818.825 783.039 C 807.942 779.736 783.726 776.522 776.151 772.963 C 741.761 756.806 712.624 728.525 688.311 699.74 C 682.26 692.576 676.531 681.136 671.873 673.447 C 663.545 659.703 663.511 648.117 659.353 633.843 C 639.6 666.288 642.985 694.634 645.488 731.174 C 645.665 733.751 646.518 733.997 648.354 735.117 C 654.467 734.767 658.811 730.621 663.105 734.734 C 668.242 739.655 669.29 756.356 669.616 763.419 C 670.022 772.231 670.164 784.298 668.53 792.928 C 667.907 796.218 662.544 802.433 663.817 805.66 C 680.459 813.131 697.914 820.078 714.816 827.586 C 730.755 834.665 756.07 847.311 771.646 852.365 C 790.877 840.466 810.179 828.679 829.55 817.007 C 839.712 810.941 851.599 804.266 861.375 797.969 C 869.697 792.608 879.164 778.066 889.986 773.195 C 896.309 770.348 901.892 769.862 908.548 771.53 C 928.311 776.484 963.767 809.759 976.366 824.509 C 977.019 830.65 979.613 847.959 978.579 853.309 C 975.835 866.265 974.445 878.987 972.715 892.059 C 971.158 903.821 963.747 918.48 964.781 930.465 C 965.025 933.302 986.297 946.388 989.783 949.461 C 997.119 977.298 999.24 997.591 987.879 1024 L 142.416 1024 C 142.946 1016.02 143.507 1010.24 144.742 1002.35 C 149.221 997.034 151.009 995.313 156.935 991.628 C 161.892 992.321 173.511 994.589 177.438 991.802 C 177.532 988.439 158.439 965.077 154.73 959.184 C 141.794 938.632 137.664 925.658 136.697 901.3 C 139.593 897.72 143.641 892.512 147.785 890.469 C 163.955 882.5 190.695 894.232 206.79 899.456 C 207.126 891.719 206.592 883.798 209.452 876.447 C 211.884 870.198 217.029 864.674 223.264 862.107 C 246.716 852.453 311.728 877.536 333.266 889.677 C 342.762 895.03 350.538 903.606 360.597 907.887 L 360.997 908.054 C 387.783 899.075 412.88 885.683 435.252 868.431 C 440.742 864.216 450.862 857.896 448.515 850.318 C 444.685 847.861 437.869 846.662 433.241 845.567 C 424.007 833.799 419.334 813.808 407.23 798.188 C 407.687 796.983 409.477 792.341 410.227 791.731 C 421.8 782.331 437.152 780.222 451.605 780.346 C 455.925 780.382 463.518 780.399 466.367 777.022 C 464.014 763.941 411.37 750.867 399.347 742.771 C 378.609 728.716 357.61 712.099 341.084 693.239 C 334.702 685.955 328.34 661.083 316.854 662.957 C 309.632 673.687 331.545 702.526 335.493 716.104 C 344.824 748.191 344.245 771.778 337.28 804.277 C 331.305 832.159 321.265 841.98 294.505 851.865 C 274.625 858.479 263.922 854.576 246.156 844.718 C 253.504 843.436 264.939 842.788 272.747 842.019 L 284.164 830.608 C 274.719 832.726 250.062 834.047 240.198 831.033 C 238.187 830.419 226.906 824.101 224.214 822.668 C 221.301 819.406 218.211 816.496 216.945 812.326 C 217.74 806.654 222.938 807.749 227.37 808.318 C 236.18 806.997 245.524 808.964 254.686 807.437 C 260.024 806.547 265.943 804.78 269.175 800.097 C 273.878 793.284 269.835 779.187 268.209 771.515 C 264.215 752.663 231.959 719.5 215.372 708.756 C 202.611 700.491 188.036 695.116 175.231 686.628 C 158.587 675.594 133.245 656.386 120.323 641.849 C 110.945 631.298 102.945 619.083 94.5829 607.692 C 86.1328 596.18 77.384 584.919 71.0128 572.078 C 65.0287 560.018 61.2876 547.409 56.6085 534.853 C 52.3311 523.374 46.8876 511.948 44.4932 499.888 C 40.398 479.261 39.3087 450.989 40.3487 429.967 C 42.8998 378.4 60.7372 276.591 102.702 243.136 C 122.238 227.562 146.868 227.38 169.948 212.17 C 174.045 209.471 178.446 206.683 181.712 202.976 C 186.462 197.585 189.236 189.635 193.335 183.563 C 207.338 162.821 231.059 152.683 254.839 148.138 C 267.881 137.528 265.827 127.08 278.454 119.737 C 305.612 103.942 321.71 103.422 350.344 109.314 z M 299.418 680.333 C 296.901 676.867 292.083 670.175 287.934 668.895 C 288.424 675.865 292.525 679.021 299.418 680.333 z"/>
<path transform="translate(0,0)" fill="rgb(253,253,253)" d="M 507.338 380.79 C 510.36 380.152 511.84 379.695 514.989 380.003 L 515.224 380.976 C 504.772 388.87 445.485 424.637 454.694 440.987 L 455.966 441.644 C 459.532 438.285 462.106 433.97 465.585 430.753 C 492.175 406.172 527.149 386.966 561.573 376.069 C 572.921 372.477 588.673 375.948 600.236 378.215 C 622.347 411.222 634.582 452.91 624.099 492.127 C 628.854 489.081 633.311 487.257 634.079 481.836 C 636.932 461.695 631.881 438.375 638.877 418.892 C 641.048 412.846 649.259 402.221 652.629 395.995 C 660.119 395.985 668.161 396.129 675.598 395.93 C 688.471 412.445 693.572 418.717 695.201 440.952 C 695.492 444.919 696.47 455.424 695.57 459.496 C 690.972 480.285 678.555 511.161 662.006 525.024 C 661.048 525.826 658.79 527.024 657.729 527.54 C 652.686 551.552 653.777 579.29 647.933 602.549 C 645.734 611.303 627.651 647.376 621.774 655.131 C 597.982 686.529 568.306 725.751 537.341 749.963 C 531.474 754.551 516.441 756.41 508.776 759.223 C 437.734 731.414 370.878 717.591 337.331 645.696 C 328.828 627.474 281.723 527.49 256.972 562.897 C 256.711 563.266 256.177 566.063 256.059 566.83 L 257.574 569.417 L 256.218 568.096 L 257.601 569.526 C 262.494 567.99 265.403 565.93 269.856 564.176 C 274.819 568.864 281.142 575.046 282.025 582.151 C 282.469 585.753 277.897 592.024 279.638 595.328 C 284.381 604.328 295.218 610.713 303.108 616.778 C 305.227 618.408 310.35 618.58 313.028 618.78 C 318.004 626.807 319.971 631.24 323.705 640.001 C 318.013 638.265 308.158 635.334 303.289 632.646 C 287.68 624.028 263.78 597.517 255.711 582.253 C 252.664 576.481 250.294 570.376 248.649 564.06 C 251.16 555.849 252.224 553.754 258.313 547.366 C 262.492 547.437 266.9 547.436 271.053 547.696 L 270.766 547.238 C 266.809 541.017 264.394 539.285 258.723 534.59 L 259.621 533.427 C 268.781 534.335 282.722 546.952 290.199 551.839 C 300.202 558.377 307.553 556.124 318.324 553.962 C 321.324 557.031 331.667 566.162 332.333 568.646 C 330.754 571.365 328.693 574.045 329.159 577.06 C 331.085 579.803 330.048 578.942 333.093 580.332 C 336.923 575.874 334.013 574.525 338.434 571.239 C 341.059 571.806 341.309 571.991 343.043 574.048 C 344.181 579.774 341.6 580.91 343.709 585.479 C 346.972 587.413 345.852 587.355 348.843 587.11 C 354.759 582.018 348.31 574.902 360.714 575.105 C 362.143 575.128 364.642 576.409 365.938 577.123 C 367.883 575.368 369.604 568.237 370.613 565.222 C 352.269 567.11 346.029 569.412 331.145 557.305 L 325.247 552.471 C 323.455 547.065 321.445 542.158 322.404 536.336 C 323.665 528.677 328.2 518.426 335.75 515.098 L 337.931 515.603 C 339.924 520.055 335.785 526.192 333.657 530.26 C 339.112 542.492 350.448 559.693 366.156 556.013 C 368.238 554.349 369.702 553.065 372.108 551.83 C 378.268 553.272 379.091 562.691 386.605 557.714 C 392.877 553.56 402.236 541.948 406.168 535.51 C 387.6 513.932 394.943 521.897 384.757 497.062 C 375.749 493.571 362.126 494.392 358.715 490.865 L 358.276 487.8 L 356.93 486.853 C 350.888 487.97 343.116 489.879 337.06 491.507 C 335.686 491.876 334.994 495.234 332.174 494.476 C 330.43 491.976 328.915 489.269 326.208 487.936 C 323.043 488.117 324.274 487.589 321.655 490.475 C 322.604 500.728 330.721 497.463 317.906 509.723 C 312.389 505.268 306.92 500.755 301.499 496.184 C 301.812 500.024 302.098 506.057 302.615 509.689 C 307.109 513.991 319.341 523.458 312.554 529.391 C 308.387 530.735 304.264 530.123 299.895 529.812 C 298.309 537.547 311.619 539.029 314.461 544.933 L 313.501 546.772 C 294.828 549.242 264.356 493.187 260.737 478.21 C 254.282 451.493 253.023 415.949 257.486 389.124 C 276.635 417.535 304.268 425.981 336.344 434.251 C 349.211 437.568 362.133 432.581 374.312 428.08 C 366.258 427.866 331.867 425.808 330.81 414.969 C 337.26 404.446 365.955 410.69 374.342 417.446 C 377.702 420.153 387.969 427.494 392.443 427.314 C 398.215 425.652 411.909 420.268 415.843 416.055 L 416.614 415.168 C 424.348 411.75 434.652 412.914 442.821 410.802 C 450.148 408.907 459.915 402.751 467.076 400.739 L 471.517 397.277 L 471.353 396.066 C 452.779 389.719 446.861 385.423 430.949 373.327 C 447.552 376.652 463.684 386.339 479.646 390.78 C 481.325 391.248 502.149 382.035 506.889 380.895 L 507.338 380.79 z"/>
<path transform="translate(0,0)" fill="rgb(238,238,238)" d="M 430.949 373.327 C 447.552 376.652 463.684 386.339 479.646 390.78 C 481.325 391.248 502.149 382.035 506.889 380.895 L 507.338 380.79 C 503.065 385.623 484.335 391.227 478.388 395.628 C 475.127 398.041 471.164 400.438 467.076 400.739 L 471.517 397.277 L 471.353 396.066 C 452.779 389.719 446.861 385.423 430.949 373.327 z"/>
<path transform="translate(0,0)" fill="rgb(2,1,2)" d="M 564.305 410.637 C 566.066 411.556 566.104 411.748 567.289 413.409 C 567.536 417.813 564.221 425.066 562.551 429.69 C 570.285 429.815 584.716 433.992 590.436 429.748 C 590.927 429.383 592.23 426.075 595.159 423.989 L 596.535 424.879 C 597.448 431.298 592.77 437.774 593.601 444.481 C 597.735 448.784 608.037 437.51 611.375 434.365 C 610.26 438.256 608.85 443.468 606.913 446.953 C 603.859 452.448 607.572 450.193 607.608 456.392 C 605.625 459.142 597.078 471.594 595.051 472.6 C 593.265 469.969 594.597 464.679 595.093 461.061 C 577.483 465.975 589.676 478.501 578.394 488.578 C 570.133 495.956 557.202 496.37 546.882 496.087 L 539.66 489.374 C 525.059 471.008 534.543 462.673 530.476 455.892 C 524.53 463.511 522.206 474.044 521.767 483.537 C 521.468 490.002 524.467 499.289 517.38 502.108 C 507.126 497.254 511.212 483.737 513.049 475.144 C 510.076 477.221 507.563 479.545 504.036 479.483 L 502.897 478.129 C 502.887 474.415 506.053 470.363 508.131 467.074 C 507.958 460.892 508.102 457.582 508.65 451.463 C 523.683 435.82 530.057 433.959 550.317 428.912 C 556.105 423.644 558.65 416.853 564.305 410.637 z"/>
<path transform="translate(0,0)" fill="rgb(2,1,2)" d="M 535.394 647.048 C 536.134 647.219 537.465 648.099 538.198 648.529 C 540.09 656.563 519.611 666.727 513.732 670.045 C 506.689 670.075 502.85 670.284 495.879 671.194 C 490.284 675.866 482.274 684.324 486.076 692.443 C 490.847 694.941 500.954 688.772 509.659 686.535 C 504.63 696.331 504.353 697.186 505.06 708.015 C 501.219 710.123 497.702 711.539 493.684 713.216 C 486.906 710.615 483.363 708.157 477.622 704.03 L 471.971 700.973 C 473.182 696.212 474.173 690.908 475.183 686.061 C 468.516 686.141 447.277 688.397 443.531 683.708 C 444.686 680.135 450.131 677.669 453.023 674.935 C 456.911 671.259 459.071 663.999 463.644 662.056 C 469.079 661.033 472.978 663.516 477.643 666.168 C 484.783 662.828 498.281 656.254 505.755 654.39 C 516.305 651.76 524.567 650.324 535.394 647.048 z"/>
<path transform="translate(0,0)" fill="rgb(2,1,2)" d="M 659.816 417.783 C 665.98 420.434 675.338 427.428 675.444 434.692 L 673.941 435.615 C 670.046 434.888 666.348 430.962 663.24 428.235 L 663.077 428.723 C 660.994 434.787 660.957 435.526 657.067 440.792 C 670.257 459.274 671.426 482.682 653.33 498.314 C 647.809 503.263 639.471 512.745 634.17 518.421 C 639.88 500.711 643.346 478.813 638.686 460.568 C 645.938 443.565 649.835 433.544 659.816 417.783 z"/>
<path transform="translate(0,0)" fill="rgb(2,1,2)" d="M 320.263 450.242 C 343.968 462.965 360.665 438.089 392.474 475.779 C 376.722 467.189 370.836 464.536 353.234 462.253 C 323.284 461.554 316.171 464.431 288.625 476.452 C 283.715 467.826 313.872 453.347 320.263 450.242 z"/>
<path transform="translate(0,0)" fill="rgb(2,1,2)" d="M 573.76 502.616 C 581.485 495.573 586.243 487.87 594.249 481.94 C 597.411 481.892 596.49 481.951 599.478 484.783 C 602.592 486.451 604.339 487.085 606.222 490.072 L 605.117 491.061 C 601.757 490.789 599.889 490.065 596.704 489.038 C 589.457 496.961 599.019 497.707 596.384 505.249 C 592.784 506.356 594.384 502.731 588.212 501.024 C 585.374 501.511 582.56 503.65 580.191 505.242 C 573.369 509.828 576.245 509.554 574.926 516.496 C 570.927 517.196 571.46 512.376 568.693 511.98 C 559.324 510.642 548.386 516.853 539.775 510.878 C 536.685 508.733 533.537 506.938 534.333 502.936 C 538.778 500.725 553.314 505.016 559.623 504.527 C 564.819 504.124 568.613 503.511 573.76 502.616 z"/>
<path transform="translate(0,0)" fill="rgb(2,1,2)" d="M 438.959 578.269 C 451.547 581.415 451.676 597.506 452.211 607.813 C 458.523 614.599 470.167 622.689 470.388 631.174 C 458.421 632.845 451.381 623.481 442.951 615.949 C 442.415 605.49 440.821 588.316 438.959 578.269 z"/>
<path transform="translate(0,0)" fill="rgb(2,1,2)" d="M 411.536 504.691 C 423.523 508.281 433.558 523.452 438.813 534.305 C 437.728 540.702 437.252 545.245 436.769 551.716 L 435.902 552.353 L 434.086 551.626 C 426.484 542.261 412.596 515.17 411.536 504.691 z"/>
<path transform="translate(0,0)" fill="url(#Gradient1)" d="M 536.624 416.411 C 543.908 416.665 551.183 417.123 558.441 417.784 C 537.356 420.182 530.753 420.95 513.464 433.743 C 510.283 436.059 507.978 438.197 504.396 437.738 L 503.823 435.95 C 507.895 424.283 525.158 417.622 536.624 416.411 z"/>
<path transform="translate(0,0)" fill="rgb(253,253,253)" d="M 228.976 170.283 C 234.755 170.304 240.091 169.834 244.799 173.261 C 247.547 178.794 244.352 182.016 244.168 187.326 C 243.978 192.818 253.907 196.142 260.405 202.247 C 263.151 216.318 264.633 217.435 274.785 227.311 C 275.105 230.811 276.176 235.878 276.819 239.458 C 282.966 246.518 294.637 252.082 287.78 263.024 C 280.264 275.017 264.049 258.935 258.979 259.985 C 261.193 266.601 271.57 273.759 277.38 278.445 C 283.355 271.357 290.508 264.964 296.238 257.815 C 298.343 255.189 297.718 251.057 300.831 246.814 C 303.642 245.09 311.539 245.025 315.786 244.431 C 317.107 242.783 316.984 242.832 315.083 239.367 C 312.141 234.003 313.745 226.929 314.379 220.431 L 326.07 218.86 C 333.104 223.959 333.134 225.883 338.832 231.497 C 341.529 228.594 347.637 220.622 350.651 219.423 C 357.468 216.711 360.869 226.285 369.804 221.63 C 366.262 214.404 338.148 211.054 369.57 192.725 C 386.3 204.187 381.185 208.708 370.984 223.364 C 377.609 219.491 380 218.978 387.401 217.041 C 392.299 210.536 380.456 204.33 398.808 192.443 C 403.256 196.281 406.4 199.286 410.508 203.446 C 411.308 208.474 412.175 213.492 413.11 218.497 C 416.042 203.074 416.535 201.852 428.597 191.745 C 440.146 201.262 439.358 203.455 444.369 217.302 C 448.635 204.1 444.493 199.924 459.342 194.095 C 462.376 195.609 465.911 198.041 468.817 199.923 C 469.823 204.281 471.342 213.516 476.16 215.036 C 477.861 203.049 476.625 191.516 494.617 197.847 C 497.93 199.012 499.921 200.525 501.388 203.858 C 502.229 211.679 496.101 214.027 493.179 220.941 L 494.571 221.602 C 495.826 221.036 497.086 220.48 498.35 219.935 C 512.845 213.704 510.503 227.836 520.255 231.75 C 524.305 226.513 535.048 209.137 541.405 223.632 C 540.427 227.208 536.549 228.668 533.308 232.806 C 533.473 236.251 557.087 252.722 562.875 258.358 C 567.62 263.162 569.706 266.347 573.11 272.074 C 541.3 247.717 505.636 237.5 467.141 229.226 C 441.91 223.802 429.122 221.73 403.242 226.623 C 392.203 228.503 378.619 228.839 368.085 232.343 C 338.066 242.328 315.349 254.473 291.842 275.702 C 268.906 296.414 250.93 320.065 238.383 348.492 C 228.847 370.097 239.423 391.677 220.08 409.88 C 220.764 400.573 220.301 393.051 222.674 383.981 C 209.299 384.128 195.955 382.635 182.943 379.536 C 163.893 359.741 154.608 332.846 159.721 304.898 C 161.646 294.371 169.003 290.989 177.478 285.961 L 168.525 281.234 C 165.26 262.626 165.288 256.626 171.967 238.911 C 175.569 236.873 183.316 233.623 187.379 233.787 C 195.766 234.125 214.187 235.817 210.081 221.133 C 208.202 218.593 203.429 218.112 200.164 217.427 C 203.53 192.057 210.332 187.285 228.976 170.283 z"/>
<path transform="translate(0,0)" fill="rgb(253,253,253)" d="M 385.423 116.081 C 394.061 114.33 404.373 120.106 412.171 123.7 C 403.09 128.968 399.885 131.87 393.286 140.024 C 411.717 150.677 417.008 155.21 399.776 170.438 C 395.327 171.056 396.409 167.954 391.395 167.315 C 385.715 177.301 406.66 176.87 384.032 195.76 C 364.85 182.639 368.48 176.588 386.738 165.01 L 365.953 169.241 C 364.836 168.298 363.693 167.386 362.524 166.506 C 359.702 164.42 357.109 163.186 353.742 163.687 L 353.182 165.386 C 354.768 168.657 360.213 171.888 363.4 174.138 C 365.71 178.104 363.682 188.657 360.153 191.67 C 353.619 197.249 344.933 187.775 339.022 193.598 C 341.047 196.642 345.371 195.317 347.8 198.529 C 358.39 212.532 338.723 226.894 329.27 213.309 C 325.553 207.968 328.104 201.235 329.649 195.242 C 325.667 194.318 320.126 192.353 316.652 193.346 C 315.942 197.028 316.637 196.811 318.357 200.936 C 322.474 214.801 317.048 217.147 305.611 223.057 L 303.69 238.659 C 300.543 240.517 296.566 243.866 293.609 246.202 C 272.194 232.057 278.442 226.862 297.66 218.442 C 296.795 215.651 292.442 211.598 290.212 209.24 C 285.34 216.36 283.394 217.233 275.546 220.329 C 272.174 217.478 269.2 214.585 267.008 210.692 C 261.231 200.43 272.234 197.76 279.585 194.076 C 282.641 188.897 277.54 175.938 277.647 169.361 C 277.899 153.8 289.066 144.711 301.787 138.06 C 317.282 129.958 334.906 131.729 351.849 131.867 L 351.813 132.864 C 351.617 139.171 350.77 149.742 355.012 154.224 C 358.286 155.564 358.36 156.259 361.283 155.471 C 363.841 144.894 347.051 142.357 368.94 120.384 C 374.115 119.386 380.263 117.509 385.423 116.081 z"/>
<path transform="translate(0,0)" fill="rgb(253,253,253)" d="M 139.416 469.835 C 143.173 469.984 153.504 473.589 155.2 476.101 C 161.661 485.672 143.626 493.176 143.283 502 C 145.335 502.682 147.87 500.272 149.943 499.082 C 153.81 496.862 157.812 495.745 162.037 494.469 C 166.798 500.564 168.164 502.919 171.707 509.825 C 164.443 518.701 164.263 520.826 152.257 519.006 C 164.122 544.373 174.421 566.964 191.795 589.244 C 194.601 592.842 201.895 606.011 206.565 604.689 C 206.798 604.166 207.038 603.647 207.286 603.131 C 210.256 596.997 213.754 596.763 220.293 594.446 C 227.317 598.623 228.756 601.056 232.722 607.94 C 232.334 608.732 231.935 609.518 231.524 610.297 C 226.357 620.072 225.493 618.2 215.724 621.23 C 212.614 625.542 214.204 629.895 215.068 635.502 C 211.355 641.13 210.221 642.345 205.441 646.907 C 196.345 640.741 186.687 634.944 178.668 627.563 C 167.167 617.17 156.507 609.253 147.798 596.542 C 139.576 584.541 118.281 534.126 121.139 520.638 C 123.096 518.27 122.18 518.651 124.625 518.372 C 126.249 520.091 127.962 535.345 129.641 539.292 C 139.721 562.985 148.614 581.524 171.929 593.687 C 167.405 583.644 158.915 572.31 153.704 561.077 C 144.364 540.945 140.478 512.798 137.679 490.646 C 137.298 487.628 139.008 473.321 139.416 469.835 z"/>
<path transform="translate(0,0)" fill="rgb(2,1,2)" d="M 179.896 619.948 C 184.196 619.852 193.017 618.891 196.039 620.86 C 196.656 624.297 196.09 623.828 194.135 627.664 C 192.89 628.742 192.374 628.912 190.95 629.696 C 187.768 628.94 182.572 622.722 179.896 619.948 z"/>
<path transform="translate(0,0)" fill="rgb(253,253,253)" d="M 130.927 268.03 C 134.441 272.514 119.86 285.277 116.636 291.407 C 108.801 306.306 98.2808 338.262 99.5927 354.385 C 103.407 353.843 110.938 352.056 113.762 354.331 C 107.358 370.406 99.7369 366.001 94.4434 371.332 C 95.0205 380.057 96.6075 382.955 92.5523 391.161 C 91.7801 392.723 98.5895 394.756 100.079 395.258 C 104.932 396.893 107.492 399.411 111.197 402.845 C 110.564 406.061 109.346 410.221 108.489 413.477 C 91.4047 429.166 98.8827 413.543 89.1564 417.311 C 89.1436 420.642 95.9016 427.306 96.0356 430.043 C 96.4359 438.222 86.8338 445.182 81.6493 452.473 C 88.1368 449.323 92.7077 446.589 98.7546 442.725 C 108.791 450.276 119.311 460.94 101.231 469.502 C 95.8691 472.041 91.3998 464.736 86.6726 462.113 C 85.237 464.887 85.889 467.976 86.1234 471.248 C 85.241 498.142 95.6115 508.232 100.894 534.345 C 96.9055 529.188 82.927 506.106 81.3803 501.062 C 62.7717 440.371 59.9644 298.767 130.927 268.03 z"/>
<path transform="translate(0,0)" fill="rgb(253,253,253)" d="M 369.435 284.61 C 372.709 286.39 391.868 334.447 401.894 301.502 L 397.063 286.818 C 419.425 292.171 431.995 302.793 449.384 317.119 C 453.164 315.458 456.535 314.511 460.457 313.338 L 461.229 298.209 C 467.265 303.299 479.002 312.184 482.832 318.327 C 498.411 323.536 504.963 322.714 522.238 330.297 C 515.479 334.874 511.318 341.175 503.992 346.624 C 502.503 345.652 498.687 343.116 497.583 341.901 C 494.755 338.791 492.892 332.781 488.855 331.164 C 485.734 333.313 486.275 334.078 484.63 338.351 C 479.951 341.848 477.443 343.189 472.382 345.86 C 469.608 343.781 466.586 341.236 463.849 339.039 C 462.442 336.122 461.78 333.878 458.64 333.153 C 455.259 334.834 451.671 341.389 445.064 346.207 C 441.241 344.418 436.709 341.311 433.074 338.979 C 431.923 327.692 428.109 309.925 412.467 316.244 L 412.002 317.376 C 425.961 325.361 428.479 327.665 421.07 342.388 C 432.394 344.539 435.317 346.278 442.844 354.203 C 440.789 357.915 438.187 363.487 435.001 365.983 C 428.404 367.931 413.725 362.891 416.786 354.059 C 417.402 352.282 421.315 346.803 420.996 345.579 C 417.96 344.416 414.929 347.487 413.54 347.15 C 411.708 346.705 410.131 344.862 406.917 345.251 C 405.871 349.288 410.671 353.388 410.053 357.934 L 408.577 358.881 C 404.502 357.16 402.414 352.962 399.185 350.871 C 371.012 332.623 367.186 318.811 369.435 284.61 z"/>
<path transform="translate(0,0)" fill="rgb(253,253,253)" d="M 473.505 110.222 C 474.396 116.947 480.795 128.25 484.05 134.833 C 482.964 136.627 478.836 143.517 477.582 147.865 C 473.553 161.84 458.81 181.659 446.947 161.29 C 445.233 158.347 452.93 144.726 452.131 140.819 C 448.072 140.94 447.884 144.628 444.538 143.955 C 437.463 142.533 436.054 139.114 428.248 139.652 L 427.016 139.091 C 425.151 131.347 440.745 117.343 446.282 110.651 C 455.821 110.012 463.988 110.108 473.505 110.222 z"/>
<path transform="translate(0,0)" fill="rgb(253,253,253)" d="M 345.336 293.786 C 348.365 296.204 349.655 312.647 351.09 317.436 C 356.933 336.934 365.169 341.827 380.597 351.201 C 378.946 363.179 379.82 366.307 367.77 371.31 C 357.463 365.583 356.713 365.605 356.983 353.751 C 357.169 351.013 357.369 350.63 356.147 348.309 C 352.598 345.319 346.337 344.461 341.625 343.392 C 346.553 347.997 353.736 353.42 351.689 360.958 L 349.739 361.125 C 340.316 355.755 334.959 338.543 331.514 328.621 C 330.587 325.952 338.499 323.53 339.419 321.46 C 343.381 312.542 341.982 303.132 345.336 293.786 z"/>
<path transform="translate(0,0)" fill="rgb(253,253,253)" d="M 476.36 280.455 C 491.954 283.441 512.165 289.564 525.793 298.073 C 528.867 299.993 531.614 303.787 536.342 306.887 C 539.499 303.37 535.898 299.333 541.193 296.622 C 545.511 296.795 551.722 296.709 555.648 298.102 C 562.645 300.585 562.178 307.517 559.182 312.832 C 555.745 318.929 552.72 319.476 546.33 321.337 C 541.424 317.05 537.341 309.408 531.323 310.683 C 528.042 313.43 526.437 316.464 524.204 320.072 L 522.921 321.267 C 503.126 312.96 499.632 315.86 485.271 298.142 C 491.384 299.963 500.611 305.243 506.714 303.572 C 505.687 299.378 484.017 287.674 476.36 280.455 z"/>
<path transform="translate(0,0)" fill="rgb(253,253,253)" d="M 231.906 619.985 C 239.802 618.848 248.28 625.423 245.946 633.891 C 244.319 639.791 241.241 640.993 236.591 644.179 C 234.264 645.645 233.945 645.692 231.195 645.512 C 223.734 641.895 221.78 635.165 223.702 627.229 C 224.732 622.975 228.227 621.797 231.906 619.985 z"/>
<path transform="translate(0,0)" fill="rgb(238,238,238)" d="M 499.582 167.812 C 517.14 169.72 521.307 182.334 507.316 193.619 C 490.029 194.55 488.825 178.656 499.582 167.812 z"/>
<path transform="translate(0,0)" fill="rgb(253,253,253)" d="M 441.621 167.717 C 444.561 167.774 451.391 171.165 452.851 173.571 C 458.653 183.138 452.802 189.259 445.472 194.713 C 443.224 194.987 436.058 191.276 434.874 189.347 C 428.891 179.594 434.44 173.01 441.621 167.717 z"/>
<path transform="translate(0,0)" fill="rgb(253,253,253)" d="M 473.336 167.785 C 479.885 169.752 488.179 176.008 485.428 183.93 C 483.42 189.713 478.921 191.471 473.879 194.228 C 461.604 194.048 456.268 176.567 473.336 167.785 z"/>
<path transform="translate(0,0)" fill="rgb(253,253,253)" d="M 518.003 192.832 C 527.216 196.153 533.654 204.729 527.476 214.358 C 525.003 218.212 522.438 217.967 518.235 218.837 C 512.964 219.493 505.556 215.276 506.597 208.969 C 507.977 200.613 512.025 197.866 518.003 192.832 z"/>
<path transform="translate(0,0)" fill="rgb(253,253,253)" d="M 516.999 143.821 C 530.576 145.164 536.222 163.475 519.397 169.876 C 512.739 169.55 505.705 165.149 506.934 157.526 C 508.106 150.248 511.548 148.038 516.999 143.821 z"/>
<path transform="translate(0,0)" fill="rgb(253,253,253)" d="M 548.749 142.749 C 558.092 145.442 561.056 158.675 556.68 166.983 C 552.947 169.847 553.288 169.018 547.991 169.743 C 530.971 166.011 534.968 150.262 548.749 142.749 z"/>
<path transform="translate(0,0)" fill="rgb(238,238,238)" d="M 260.525 166.59 C 263.284 168.181 272.362 177.794 273.476 181.013 C 276.492 189.728 270.283 191.833 263.301 194.376 C 243.343 187.075 249.283 177.938 260.525 166.59 z"/>
<path transform="translate(0,0)" fill="rgb(253,253,253)" d="M 531.764 167.84 C 545.98 170.801 544.386 176.203 543.764 188.584 C 540.771 190.88 536.698 193.1 533.372 195.039 C 531.415 194.807 526.187 190.637 524.982 188.896 C 518.882 180.081 525.68 172.643 531.764 167.84 z"/>
<path transform="translate(0,0)" fill="rgb(253,253,253)" d="M 413.781 167.951 C 416.88 168.175 420.816 170.103 422.407 172.917 C 427.884 182.602 422.671 189.256 414.871 194.802 C 404.742 192.17 400.583 185.657 404.357 175.449 C 406.19 170.491 409.137 169.818 413.781 167.951 z"/>
<path transform="translate(0,0)" fill="rgb(253,253,253)" d="M 185.628 544.961 L 189.959 545.392 C 194.209 547.993 197.381 552.036 198.896 556.783 C 200.571 562.135 198.992 567.863 193.113 569.385 C 183.128 569.935 175.121 567.149 177.409 554.145 C 178.283 549.176 181.23 547.307 185.628 544.961 z"/>
<path transform="translate(0,0)" fill="rgb(253,253,253)" d="M 200.966 569.873 C 213.511 570.572 223.181 588.048 204.781 594.21 C 189.143 593.165 186.446 578.249 200.966 569.873 z"/>
<path transform="translate(0,0)" fill="rgb(253,253,253)" d="M 168.366 519.761 C 178.867 520.504 181.233 527.513 186.098 535.876 C 182.826 539.032 180.312 540.846 176.632 543.55 C 165.529 547.044 163.462 539.252 161.44 530.855 C 163.368 526.876 165.022 522.584 168.366 519.761 z"/>
<path transform="translate(0,0)" fill="rgb(253,253,253)" d="M 571.131 299.852 C 581.848 301.27 580.865 302.312 595.06 303.002 C 592.245 309.269 591.059 312.952 585.409 316.734 L 584.86 317.313 C 577.543 324.92 565.346 315.791 565.427 305.632 C 567.361 301.588 566.991 302.677 571.131 299.852 z"/>
<path transform="translate(0,0)" fill="rgb(238,238,238)" d="M 427.016 139.091 L 428.248 139.652 C 431.282 145.5 440.193 149.913 441.78 157.455 C 440.6 163.054 432.289 171.042 426.781 168.781 C 417.466 164.956 424.905 145.802 427.016 139.091 z"/>
<path transform="translate(0,0)" fill="rgb(238,238,238)" d="M 487.71 142.407 C 503.782 150.899 505.536 157.256 491.491 168.907 L 487.989 169.463 C 484.152 168.665 481.609 166.014 478.635 163.452 C 481.021 155.416 484.009 149.907 487.71 142.407 z"/>
<path transform="translate(0,0)" fill="rgb(238,238,238)" d="M 245.677 645.156 C 246.455 645.25 247.229 645.369 247.998 645.513 C 252.918 646.407 257.573 648.333 260.437 652.57 C 261.947 660.071 256.44 661.63 250.483 664.155 C 246.87 665.317 243.711 666.448 240.178 665.16 C 232.684 658.57 238.146 647.76 245.677 645.156 z"/>
<path transform="translate(0,0)" fill="rgb(238,238,238)" d="M 446.39 355.136 C 450.127 349.46 453.153 346.802 458.93 343.181 C 463.427 346.137 469.785 349.769 471.366 355.065 C 467.078 359.3 456.496 351.872 453.93 353.548 L 453.206 355.287 C 456.869 358.347 464.455 366.457 468.133 370.164 C 457.992 369.468 445.44 367.89 446.39 355.136 z"/>
<path transform="translate(0,0)" fill="rgb(253,253,253)" d="M 546.361 194.039 C 548.843 193.449 550.271 194.399 552.699 195.404 C 558.343 202.133 549.973 212.911 545.763 218.327 L 544.262 218.758 C 537.695 217.034 536.268 206.776 538.1 201.293 C 539.515 197.054 542.714 195.985 546.361 194.039 z"/>
<path transform="translate(0,0)" fill="rgb(238,238,238)" d="M 563.001 319.087 C 568.655 320.176 575.727 321.461 575.075 328.32 C 573.026 331.544 568.182 332.565 564.384 333.841 C 558.882 334.756 554.367 335.613 551.353 330.454 C 551.561 324.049 557.603 320.88 563.001 319.087 z"/>
<path transform="translate(0,0)" fill="rgb(238,238,238)" d="M 110.938 468.498 L 112.99 470.05 C 114.168 476.647 119.915 490.67 114.072 495.005 L 109.969 494.05 C 108.535 493.051 107.133 492.007 105.767 490.917 C 95.7471 482.766 104.875 474.831 110.938 468.498 z"/>
<path transform="translate(0,0)" fill="rgb(238,238,238)" d="M 485.154 344.874 L 486.03 344.921 C 491.718 345.263 501.554 348.648 500.878 355.594 C 497.833 358.53 497.315 357.843 492.505 358.937 C 487.624 359.06 482.85 359.583 478.666 357.252 C 474.795 351.956 480.917 348.071 485.154 344.874 z"/>
<path transform="translate(0,0)" fill="rgb(238,238,238)" d="M 386.629 352.538 C 393.603 355.491 407.112 367.852 415.708 370.258 C 417.383 370.726 419.036 371.514 420.646 372.206 L 421.539 374.875 C 415.474 376.782 412.775 374.693 406.931 372.799 C 389.616 367.186 389.482 370.382 386.629 352.538 z"/>
<path transform="translate(0,0)" fill="rgb(238,238,238)" d="M 514.472 128.606 L 515.464 128.453 L 516.407 129.878 C 513.984 138.981 509.158 148.734 498.453 142.584 L 490.061 135.589 C 500.641 129.829 502.431 129.529 514.472 128.606 z"/>
<path transform="translate(0,0)" fill="rgb(238,238,238)" d="M 114.751 367.87 C 116.93 370.709 113.321 389.467 112.506 393.624 C 109.081 393.578 108.85 392.561 105.456 390.236 C 90.8628 383.108 108.261 372.006 114.751 367.87 z"/>
<path transform="translate(0,0)" fill="rgb(238,238,238)" d="M 522.291 127.381 C 528.438 127.975 539.385 130.853 543.342 135.841 C 543.437 139.112 543.048 138.446 540.322 141.686 C 529.684 150.176 521.545 138.128 522.291 127.381 z"/>
<path transform="translate(0,0)" fill="rgb(238,238,238)" d="M 381.855 395.025 C 388.88 397.666 413.049 408.552 416.614 415.168 L 415.843 416.055 C 414.424 416.093 413.003 416.093 411.584 416.057 C 398.935 415.681 390.193 403.918 381.855 395.025 z"/>
<path transform="translate(0,0)" fill="rgb(253,253,253)" d="M 214.085 645.082 C 222.878 644.733 232.234 650.418 230.564 659.804 L 228.315 661.106 C 223.499 658.375 212.731 654.647 210.696 649.968 C 211.403 646.735 211.23 647.663 214.085 645.082 z"/>
<path transform="translate(0,0)" fill="rgb(253,253,253)" d="M 109.558 418.585 C 112.856 422.646 112.873 439.224 109.496 442.973 L 107.24 442.163 C 96.9164 431.537 101.11 427.988 109.558 418.585 z"/>
<path transform="translate(0,0)" fill="rgb(238,238,238)" d="M 125.425 321.752 C 127.678 324.174 126.35 330.238 126.015 333.569 C 121.977 339.857 119.794 341.814 113.584 345.947 C 107.991 337.869 119.682 326.863 125.425 321.752 z"/>
<path transform="translate(0,0)" fill="rgb(238,238,238)" d="M 381.69 368.758 C 387.677 368.609 395.359 372.038 394.591 379.059 C 392.057 380.995 393.152 380.401 389.522 380.923 L 370.92 375.791 L 381.69 368.758 z"/>
<path transform="translate(0,0)" fill="rgb(238,238,238)" d="M 95.2115 493.539 C 105.182 493.899 112.424 502.599 114.523 511.788 C 105.117 512.57 96.6342 501.832 95.2115 493.539 z"/>
<path transform="translate(0,0)" fill="rgb(238,238,238)" d="M 268.639 652.927 C 272.298 654.842 279.684 660.281 282.195 663.519 C 285.206 667.402 284.73 667.227 284.313 671.337 C 278.881 669.366 270.041 664.763 267.175 659.471 C 266.795 656.368 267.322 655.644 268.639 652.927 z"/>
<path transform="translate(0,0)" fill="rgb(238,238,238)" d="M 524.204 320.072 C 530.352 319.904 541.174 318.58 543.531 326.207 C 539.917 331.889 531.893 327.377 527.63 324.601 C 526.026 323.538 524.456 322.426 522.921 321.267 L 524.204 320.072 z"/>
<path transform="translate(0,0)" fill="rgb(238,238,238)" d="M 557.997 169.865 C 560.625 172.647 560.092 186.418 557.795 189.387 L 556.128 189.239 C 544.814 179.457 552.68 179.304 557.577 170.621 L 557.997 169.865 z"/>
<path transform="translate(0,0)" fill="rgb(238,238,238)" d="M 515.699 344.919 C 518.543 345.045 519.073 344.981 521.314 346.676 L 521.375 348.268 C 519.199 351.379 516.543 352.311 513.127 353.998 C 511.377 354.985 511.965 354.691 509.605 354.475 C 507.924 351.609 508.227 352.965 508.944 349.087 C 510.501 346.323 512.713 345.936 515.699 344.919 z"/>
<path transform="translate(0,0)" fill="rgb(238,238,238)" d="M 134.279 450.345 C 137.294 451.708 139.789 452.559 142.026 454.996 C 142.843 458.32 142.606 457.326 140.871 461.057 C 138.956 462.704 138.633 462.793 136.303 463.852 L 134.642 463.227 C 133.09 459.956 134.001 454.186 134.279 450.345 z"/>
<path transform="translate(0,0)" fill="rgb(238,238,238)" d="M 371.047 501.257 C 376.634 501.529 381.588 501.18 385.279 506.006 C 386.496 509.372 386.409 509.802 385.341 513.156 C 380.703 508.92 375.804 506.917 370.831 503.034 L 371.047 501.257 z"/>
<path transform="translate(0,0)" fill="rgb(238,238,238)" d="M 605.65 293.834 C 611.977 297.708 602.346 304.825 599.25 307.376 C 596.941 306.058 597.06 304.137 597.146 301.951 C 598.857 298.621 602.614 296.175 605.65 293.834 z"/>
<path transform="translate(0,0)" fill="rgb(238,238,238)" fill-opacity="0.988235" d="M 287.934 668.895 C 292.083 670.175 296.901 676.867 299.418 680.333 C 292.525 679.021 288.424 675.865 287.934 668.895 z"/>
<path transform="translate(0,0)" fill="rgb(2,1,2)" fill-opacity="0.870588" d="M 214.864 815.969 C 213.706 810.865 207.104 799.318 208.169 796.215 C 213.169 798.674 221.609 804.89 227.37 808.318 C 222.938 807.749 217.74 806.654 216.945 812.326 C 218.211 816.496 221.301 819.406 224.214 822.668 C 219.49 820.326 218.707 819.642 214.864 815.969 z"/>
<path transform="translate(0,0)" fill="rgb(2,1,2)" fill-opacity="0.87451" d="M 838.661 762.172 C 845.849 760.495 852.676 751.403 858.347 752.057 C 857.29 754.549 851.775 762.702 849.861 764.223 C 847.923 761.689 841.895 762.264 838.661 762.172 z"/>
</svg>
