<svg xmlns="http://www.w3.org/2000/svg" version="1.1" style="display: block;" viewBox="0 0 1024 1024" width="256" height="256" preserveAspectRatio="none">
<path transform="translate(0,0)" fill="rgb(0,0,0)" d="M 492.691 96.3622 C 525.467 94.9128 556.006 100.4 587.014 109.884 C 595.429 112.458 606.083 112.704 614.478 115.596 C 642.737 125.329 664.122 145.932 685.356 166.04 C 749.998 227.836 778.213 311.599 764.136 399.667 C 763.967 403.849 763.884 408.264 763.98 412.445 C 764.671 442.442 760.306 472.805 774.911 500.368 C 769.937 495.941 763.385 488.904 759.408 483.558 C 755.913 478.86 751.592 470.238 747.692 466.36 L 745.676 466.571 C 740.608 474.727 739.875 482.785 733.893 491.673 C 724.963 504.944 711.917 517.217 704.799 531.287 C 700.962 538.87 698.813 554.526 695.094 562.262 C 690.214 572.309 684.981 582.629 679.596 592.414 C 672.05 606.128 666.237 622.593 656.906 635.021 C 645.302 650.475 635.095 664.508 625.548 681.32 C 616.769 696.781 611.772 715.838 602.717 730.615 C 609.233 731.591 618.134 734.71 624.653 736.78 C 624.134 748.592 624.267 761.003 624.455 772.82 C 653.863 795.707 684.692 817.74 714.602 840.13 C 729.281 851.119 746.154 863.956 761.645 873.633 C 768.268 877.77 782.808 875.013 790.768 878.552 C 809.31 886.795 825.977 902.117 843.986 911.242 C 853.075 915.847 868.421 915.834 877.75 923.545 C 881.12 926.33 888.896 932.706 891.109 937.445 C 901.962 960.689 912.063 986.072 920.867 1010.22 C 921.53 1012.04 920.41 1012.85 919.464 1013.98 C 912.523 1015.87 883.032 1015.42 874.303 1015.43 L 794.506 1015.46 L 457.5 1015.47 C 314.251 1015.47 166.457 1017.42 23.5935 1014.67 C 22.5021 996.807 16.0079 983.901 19.7872 964.808 C 24.486 941.071 40.4709 925.545 56.6527 908.699 C 64.2825 902.501 74.5376 898.174 83.0657 893.649 C 144.526 861.037 207.545 831.469 266.394 794.166 C 291.09 778.512 292.911 768.772 298.664 741.667 C 292.553 749.203 271.623 768.146 262.488 767.623 C 261.314 764.514 265.331 760.001 267.219 755.601 C 273.844 740.159 278.063 727.379 280.683 710.857 C 276.567 713.36 246.547 729.161 242.676 730.169 C 242.344 729.83 242.012 729.49 241.679 729.151 C 246.016 719.356 254.228 711.618 257.183 700.904 C 263.648 677.465 261.629 653.687 257.63 630.638 C 253.465 607.279 245.692 584.709 234.59 563.739 C 226.15 548.138 215.835 531.968 206.813 516.696 C 194.869 499.621 192.608 487.594 189.358 467.822 C 184.014 435.31 184.909 416.506 191.111 384.14 C 198.826 343.883 205.681 299.009 221.674 260.923 C 244.253 207.156 290.096 166.47 336.359 133.093 C 343.6 127.889 352.363 119.694 359.943 116.07 C 374.956 108.891 392.491 102.859 408.859 99.877 C 427.189 96.7655 442.805 99.5939 460.699 99.8284 C 468.855 99.9353 484.221 97.4945 492.691 96.3622 z"/>
<path transform="translate(0,0)" fill="rgb(254,254,254)" d="M 450.116 207.898 C 452.176 208.966 460.364 224.557 462.245 227.76 C 468.882 239.182 476.765 252.174 485.976 261.646 C 517.2 293.758 553.407 318.066 590.921 341.906 C 598.794 346.91 608.685 363.309 616.734 370.895 C 611.441 376.087 606.919 380.607 601.136 385.255 C 600.778 402.417 599.478 422.457 604.202 438.877 C 607.939 451.868 613.391 464.25 616.155 477.64 C 612.675 485.204 591.876 508.604 598.985 515.961 C 618.032 499.219 630.01 499.29 647.609 484.958 C 645.766 478.671 644.285 467.633 642.485 460.118 C 652.76 457.013 663.004 453.809 673.217 450.507 C 674.499 452.837 679.843 462.539 680.272 464.425 C 686.286 490.878 658.556 532.425 647.057 555.469 C 656.413 550.531 675.624 540.742 683.109 534.394 C 675.782 558.245 666.579 581.486 657.608 604.85 C 652.294 618.111 641.5 628.306 633.014 639.554 C 619.217 657.84 604.82 676.036 592.502 695.332 C 586.143 705.294 581.291 723.789 569.876 728.367 C 551.755 735.634 533.524 719.298 517.454 712.986 C 498.497 704.705 479.335 696.005 460.271 687.613 C 446.071 681.588 432.31 674.577 419.089 666.632 C 403.659 657.396 357.834 629.143 350.22 614.324 C 346.305 606.704 338.095 572.012 335.49 561.592 C 327.5 560.8 319.862 560.457 312.78 556.432 C 282.871 539.437 269.104 490.221 259.218 459.675 C 267.955 444.864 278.417 436.488 291.294 425.517 C 292.593 431.049 297.523 445.47 296.218 450.489 C 291.224 451.037 292.341 448.699 287.01 451.366 C 284.224 454.177 283.311 458.877 282.169 462.779 C 286.611 477.254 291.88 483.115 301.691 494.34 C 299.621 499.583 297.102 509.086 295.417 514.765 C 300.631 518.511 315.763 530.096 321.149 529.445 C 324.491 524.102 319.027 513.376 319.316 509.138 C 319.807 501.976 319.364 479.41 323.256 474.667 C 327.001 476.668 334.31 488.387 337.892 491.874 C 345.533 499.313 356.913 512.086 365.417 518.093 C 377.935 526.934 396.203 530.411 411.013 537.522 C 407.749 528.113 400.734 512.882 398.588 503.489 C 389.776 464.914 373.962 418.114 376.992 378.601 C 380.536 332.39 390.563 291.146 415.5 251.884 C 428.55 231.338 430.936 224.506 450.116 207.898 z"/>
<path transform="translate(0,0)" fill="rgb(0,0,0)" d="M 395.942 349.474 C 435.558 331.815 469.241 324.192 511.084 337.412 C 532.634 344.22 531.71 342.002 533.111 366.018 C 524.711 363.527 519.421 361.907 511.452 358.41 C 510.816 358.72 508.264 359.918 507.844 360.234 C 504.175 362.537 502.636 360.672 496.43 364.373 C 495.906 367.263 504.406 378.138 506.89 381.867 C 504.574 384.379 502.048 387.68 498.916 388.699 C 496.073 384.686 494.214 378.281 490.361 373.191 C 479.885 359.352 471.217 353.466 454.704 350.379 C 470.451 367.7 471.354 376.339 471.115 398.683 C 477.04 402.656 482.94 409.04 484.591 416.196 L 483.616 417.341 C 474.426 413.348 455.978 407.067 448.833 403.353 C 445.258 406.279 441.255 408.924 437.441 411.554 L 440.481 397.94 C 435.833 395.296 433.916 394.097 429.793 390.721 C 425.041 393.366 421.307 395.846 416.814 398.85 C 417.545 394.89 417.983 390.37 418.468 386.335 C 408.764 376.369 401.515 362.028 395.942 349.474 z"/>
<path transform="translate(0,0)" fill="rgb(254,254,254)" d="M 434.665 340.499 C 452.125 334.494 473.707 336.785 491.182 341.848 C 502.232 345.049 503.618 352.551 511.452 358.41 C 510.816 358.72 508.264 359.918 507.844 360.234 C 486.173 339.997 462.101 339.821 434.665 340.499 z"/>
<path transform="translate(0,0)" fill="rgb(254,254,254)" d="M 441.484 349.346 C 442.23 349.41 442.732 349.777 443.484 350.141 C 436.221 351.527 431.445 354.539 425.641 358.902 C 420.397 362.844 421.842 366.495 419.363 373.158 L 417.905 373.178 C 414.828 369.065 412.435 365.621 409.616 361.35 C 423.337 353.535 425.83 352.997 441.484 349.346 z"/>
<path transform="translate(0,0)" fill="rgb(0,0,0)" d="M 554.864 555.283 C 570.253 552.728 593.661 569.892 600.5 583.185 C 601.562 585.249 604.555 588.329 606.126 590.059 C 600.539 593.491 594.908 596.851 589.235 600.139 C 582.716 633.209 602.392 620.231 570.126 649.697 C 564.687 646.546 547.144 639.311 545.534 634.801 C 547.314 632.011 564.401 625.908 573.361 617.439 C 574.073 616.984 574.253 616.425 574.782 615.598 C 571.462 611.537 555.449 608.912 550.047 606.607 C 540.997 603.097 531.241 598.386 521.852 595.869 C 497.796 589.421 479.498 583.168 457.373 571.519 C 485.797 564.434 522.812 562.046 554.864 555.283 z"/>
<path transform="translate(0,0)" fill="rgb(254,254,254)" d="M 545.005 571.431 C 557.003 569.387 568.894 572.029 579.574 577.568 C 577.14 586.17 572.748 593.587 571.46 602.167 C 563.267 599.754 556.737 597.574 548.733 594.591 C 530.261 586.816 521.09 582.679 501.562 577.999 C 518.475 573.268 527.546 572.93 545.005 571.431 z"/>
<path transform="translate(0,0)" fill="rgb(0,0,0)" d="M 470.266 310.88 C 490.264 310.73 528.24 314.132 543.267 328.973 C 550.606 336.221 554.48 344.49 559.182 353.531 C 512.013 325.338 500.731 321.204 447.75 314.684 C 447.527 312.754 447.367 313.718 448.744 311.833 C 454.07 310.66 463.357 311.548 470.266 310.88 z"/>
<path transform="translate(0,0)" fill="#000000" d="M 447.75 314.684 C 444.327 314.544 425.62 313.259 424.026 311.811 L 423.8 312.569 L 421.751 312.251 L 422.313 311.68 L 423.723 312.167 L 424.745 311.303 C 435.225 310.1 459.617 309.406 470.266 310.88 C 463.357 311.548 454.07 310.66 448.744 311.833 C 447.367 313.718 447.527 312.754 447.75 314.684 z"/>
<path transform="translate(0,0)" fill="rgb(254,254,254)" d="M 385.955 146.154 C 385.751 150.648 363.38 176.088 364.206 180.862 C 366.925 196.592 373.17 195.034 356.571 208.958 C 353.545 206.445 350.647 203.607 346.564 204.344 C 347.064 210.911 353.408 219.472 349.152 226.242 C 347.295 229.195 341.976 233.982 338.554 234.875 C 336.76 233.465 334.945 232.081 333.112 230.722 L 331.614 231.532 C 329.613 239.01 336.798 245.217 336.486 252.661 C 336.084 262.217 318.961 260.351 315.532 263.33 C 316.392 265.118 317.214 266.923 317.997 268.746 C 321.768 277.601 322.512 283.903 311.76 288.327 C 297.777 294.079 294.566 267.212 290.374 265.273 C 288.816 269.583 288.899 275.915 288.697 280.644 C 271.149 296.322 268.08 327.629 264.726 350.477 C 262.36 345.459 258.267 331.015 253.659 329.032 C 250.968 330.817 251.328 332.003 250.07 335.701 C 244.563 347.577 238.804 363.393 234.044 375.675 C 231.928 302.107 252.048 265.732 291.034 206.4 C 295.385 214.275 299.671 222.186 303.891 230.132 C 314.76 208.587 365.007 158.962 385.955 146.154 z"/>
<path transform="translate(0,0)" fill="rgb(254,254,254)" d="M 550.803 152.926 C 568.374 152.001 577.135 162.875 562.141 176.212 C 543.811 183.47 536.513 160.775 550.803 152.926 z"/>
<path transform="translate(0,0)" fill="rgb(254,254,254)" d="M 288.901 291.124 C 310.437 292.194 312.021 308.731 294.617 316.815 C 288.881 317.364 283.847 312.113 279.121 308.417 C 280.672 300.174 280.273 294.448 288.901 291.124 z"/>
<path transform="translate(0,0)" fill="rgb(254,254,254)" d="M 378.227 182.289 C 384.127 181.723 389.511 181.638 395.42 181.507 C 399.939 192.366 400.522 197.351 391.187 205.272 C 379.556 211.273 364.702 191.727 378.227 182.289 z"/>
<path transform="translate(0,0)" fill="rgb(254,254,254)" d="M 644.774 208.097 C 645.216 208.078 645.657 208.061 646.099 208.046 C 667.061 207.381 664.99 222.365 652.742 234.104 C 644.926 233.444 640.972 230.049 635.732 224.818 C 637.638 216.411 637.918 213.19 644.774 208.097 z"/>
<path transform="translate(0,0)" fill="rgb(254,254,254)" d="M 367.119 206.813 C 376.734 209.285 377.906 210.913 384.417 218.052 C 381.265 225.12 380.102 228.911 373.336 232.987 C 365.415 234.683 362.604 230.667 357.278 225.744 C 358.3 217.221 358.142 210.254 367.119 206.813 z"/>
<path transform="translate(0,0)" fill="rgb(254,254,254)" d="M 629.803 181.209 C 630.507 181.172 631.212 181.147 631.916 181.133 C 645.581 180.888 646.065 189.83 645.835 200.232 L 636.538 207.368 L 634.943 207.692 C 621.542 203.189 615.718 187.477 629.803 181.209 z"/>
<path transform="translate(0,0)" fill="rgb(254,254,254)" d="M 586.442 151.944 C 605.141 158.008 602.79 170.03 587.869 179.1 L 586.283 179.197 C 570.681 172.374 570.983 158.135 586.442 151.944 z"/>
<path transform="translate(0,0)" fill="rgb(254,254,254)" d="M 322.674 291.002 C 344.277 292.679 337.056 307.915 323.894 316.735 C 322.578 316.354 321.274 315.93 319.985 315.463 C 305.471 310.187 308.027 295.831 322.674 291.002 z"/>
<path transform="translate(0,0)" fill="rgb(254,254,254)" d="M 598.586 181.019 C 618.737 180.839 622.038 194.46 606.467 206.165 C 606.121 206.518 604.966 207.15 604.557 207.395 C 598.364 205.017 592.062 197.505 592.23 190.6 C 592.336 186.268 595.665 183.681 598.586 181.019 z"/>
<path transform="translate(0,0)" fill="rgb(254,254,254)" d="M 615.948 154.145 C 623.706 154.784 624.608 156.228 630.599 161.026 C 630.636 164.183 630.174 169.115 629.972 172.399 C 626.963 174.788 623.109 176.844 619.736 178.778 C 604.1 174.034 599.921 159.249 615.948 154.145 z"/>
<path transform="translate(0,0)" fill="rgb(254,254,254)" d="M 289.826 346.231 C 294.336 346.052 299.581 347.146 304.101 347.896 C 302.401 353.962 298.656 368.507 295.618 373.241 L 295.034 373.07 C 288.272 371.045 284.185 369.944 281.31 362.514 C 278.106 354.233 282.131 349.288 289.826 346.231 z"/>
<path transform="translate(0,0)" fill="rgb(254,254,254)" d="M 562.999 127.814 C 572.368 128.202 576.55 131.127 583.78 137.14 C 582.593 142.185 582.717 145.964 579.167 149.332 C 563.032 156.151 554.896 139.97 562.999 127.814 z"/>
<path transform="translate(0,0)" fill="rgb(254,254,254)" d="M 332.866 262.712 C 336.225 262.494 343.349 262.93 346.988 263.042 C 344.018 272.987 343.763 280.252 341.362 289.663 C 324.997 287.065 320.475 274.574 332.866 262.712 z"/>
<path transform="translate(0,0)" fill="rgb(254,254,254)" d="M 307.071 317.994 C 311.382 318.121 316.331 320.404 320.454 321.999 C 316.272 327.499 311.922 334.569 308.101 340.466 C 305.663 342.422 304.318 341.906 301.544 341.544 C 298.787 339.901 297.883 338.497 296.951 335.455 C 295.701 331.328 296.163 326.871 298.233 323.088 C 300.183 319.504 303.159 319.115 307.071 317.994 z"/>
<path transform="translate(0,0)" fill="rgb(254,254,254)" d="M 540.262 123.598 C 555.871 128.997 559.928 145.354 541.918 151.308 L 529.373 147.41 C 538.946 138.117 541.858 137.263 540.262 123.598 z"/>
<path transform="translate(0,0)" fill="rgb(254,254,254)" d="M 663.269 235.901 C 669.854 235.985 672.253 238.145 677.842 241.259 C 678.134 251.944 679.523 253.703 670.174 259.549 C 666.03 256.57 656.943 246.505 656.853 240.867 C 658.942 237.465 659.243 238.088 663.269 235.901 z"/>
<path transform="translate(0,0)" fill="rgb(254,254,254)" d="M 275.442 315.287 C 285.258 319.789 294.903 329.442 286.451 340.308 C 281.778 342.283 279.887 343.768 275.348 341.114 C 271.256 334.663 273.95 322.815 275.442 315.287 z"/>
<path transform="translate(0,0)" fill="rgb(254,254,254)" d="M 350.198 232.417 L 362.301 235.998 C 358.96 243.951 355.035 250.91 350.917 258.452 C 350.126 259.882 350.632 259.226 349.02 260.231 C 346.581 257.851 344.208 255.405 341.902 252.895 C 343.672 244.133 346.114 240.445 350.198 232.417 z"/>
<path transform="translate(0,0)" fill="rgb(254,254,254)" d="M 523.101 152.851 C 532.376 153.351 538.802 157.834 537.406 167.837 C 535.079 171.088 536.357 170.282 532.708 171.021 C 525.694 169.42 517.359 165.15 517.51 157.039 C 519.892 153.705 519.1 154.699 523.101 152.851 z"/>
<path transform="translate(0,0)" fill="rgb(254,254,254)" d="M 618.709 207.063 C 626.248 208.81 634.853 218.611 629.01 224.494 L 625.727 224.069 C 620.487 221.285 610.827 217.481 610.844 211.226 C 612.55 208.543 615.629 208.023 618.709 207.063 z"/>
<path transform="translate(0,0)" fill="rgb(254,254,254)" d="M 671.579 211.159 C 675.725 211.827 679.681 221.634 681.424 225.081 C 683.278 228.744 682.528 231.09 681.076 234.623 C 671.052 229.58 662.775 222.061 671.579 211.159 z"/>
<path transform="translate(0,0)" fill="rgb(254,254,254)" d="M 655.751 186.225 L 658.512 187.479 C 661.112 191.27 669.041 202.713 668.315 207.007 C 654.413 205.252 649.929 199.194 655.751 186.225 z"/>
<path transform="translate(0,0)" fill="rgb(254,254,254)" d="M 683.595 240.272 C 689.864 242.935 691.993 255.666 692.881 261.74 C 684.269 258.722 682.629 248.082 683.595 240.272 z"/>
<path transform="translate(0,0)" fill="rgb(254,254,254)" d="M 586.58 139.842 C 592.262 140.255 604.421 145.664 607.314 151.069 C 598.432 153.541 592.346 145.583 586.58 139.842 z"/>
<path transform="translate(0,0)" fill="rgb(254,254,254)" d="M 634.179 161.667 C 638.009 163.788 649.345 174.478 649.633 179.039 C 642.139 176.418 634.487 170.155 634.179 161.667 z"/>
<path transform="translate(0,0)" fill="rgb(254,254,254)" d="M 673.352 262.114 C 680.517 260.913 691.046 264.854 693.701 271.813 C 686.606 272.378 679.278 266.422 673.352 262.114 z"/>
</svg>
