<svg xmlns="http://www.w3.org/2000/svg" version="1.1" style="display: block;" viewBox="0 0 1024 1024" width="256" height="256" preserveAspectRatio="none">
<path transform="translate(0,0)" fill="rgb(0,0,0)" d="M 257.921 533.531 C 254.945 529.623 243.736 514.391 242.641 510.215 C 236.236 485.764 229.555 461.674 222.237 437.472 C 219.76 429.277 226.343 401.782 232.088 394.845 C 235.761 390.411 239.311 385.492 241.361 379.999 L 241.607 379.35 C 245.46 368.944 244.23 346.728 246.938 334.154 C 252.721 307.297 249.322 266.904 259.911 241.779 C 269.368 219.34 292.604 183.608 304.96 161.113 C 306.545 158.226 327.387 148.367 330.1 144.288 C 341.736 135.614 366.636 112.824 378.256 107.593 C 387.639 103.368 416.241 94.3443 426.984 91.259 C 455.864 82.9644 493.535 67.4813 522.144 63.2693 C 541.926 63.0671 573.704 65.2374 591.535 72.7113 C 626.709 87.4548 665.475 101.517 698.077 120.131 C 705.417 124.322 733.536 172.143 739.369 181.749 L 771.278 233.477 C 775.804 240.951 797.214 273.026 798.7 278.231 C 804.906 299.959 806.659 343.063 809.065 365.999 L 815.012 423.917 C 816.069 433.969 818.231 450.73 818.459 460.562 C 803.909 486.552 783.68 512.685 769.188 539.165 C 767.962 541.406 766.723 542.934 764.379 543.724 C 759.906 541.25 759.375 540.22 754.867 541.178 C 742.563 550.808 731.459 569.569 727.915 584.925 C 730.651 585.512 740.693 587.242 741.235 590.447 C 742.657 598.863 737.239 646.556 733.341 650.171 C 729.794 651.736 728.542 652.059 724.746 652.932 C 720.686 678.751 725.698 674.816 742.844 692.561 C 749.038 698.971 754.888 709.228 761.466 715.666 C 776.319 728.718 793.737 741.544 809.446 753.607 L 907.39 828.597 C 921.59 839.606 938.895 849.754 951.188 862.776 C 957.63 869.601 999.996 953.481 1002.19 962.851 C 1005.63 977.553 1004.55 996.213 1002.82 1011.09 C 944.78 1012.17 881.856 1010.91 823.473 1010.91 L 446.527 1010.94 L 318.438 1010.96 C 304.389 1010.95 283.191 1009.9 270.206 1010.34 C 268.432 1008.33 268.026 1008.04 268.276 1004.69 C 270.82 970.698 287.048 957.52 312.073 936.831 C 326.292 925.075 344.171 913.251 357.721 901.375 C 353.502 896.358 349.806 891.976 345.235 887.269 C 319.538 903.723 281.167 930.296 253.049 939.151 C 246.546 931.42 281.604 903.074 287.059 890.749 C 299.223 863.266 305.095 835.728 310.736 806.423 C 314.913 804.706 327.228 799.579 330.512 797.574 C 340.553 791.445 376.226 769.733 381.166 761.347 L 381.111 759.217 C 378.709 757.005 377.532 755.778 373.983 756.164 C 358.464 757.855 313.857 790.817 300.508 785.463 C 300.668 780.196 299.956 775.284 298.683 770.199 L 297.047 769.511 L 295.306 770.603 C 273.801 774.499 249.589 763.215 230.817 755.342 C 226.616 753.58 208.549 750.278 202.606 748.899 C 209.207 747.945 225.483 746.574 229.342 741.835 C 229.164 735.031 221.708 735.455 218.972 729.636 C 219.464 728.869 219.512 728.193 220.629 728.241 C 261.653 729.921 282.338 689.246 296.334 657.201 C 298.778 651.606 298.229 625.403 296.402 619.172 C 288.391 591.85 277.235 564.532 271.068 536.612 L 257.921 533.531 z"/>
<path transform="translate(0,0)" fill="rgb(254,254,254)" d="M 393.363 177.887 L 393.474 178.523 C 395.252 188.239 396.141 188.698 401.394 197.69 C 422.309 195.208 434.661 191.95 452.934 181.01 C 448.715 189.713 446.391 191.578 439.472 198.048 C 450.616 195.853 488.298 182.763 496.35 188.026 C 496.17 190.951 494.541 192.244 492.547 194.541 C 494.08 196.222 550.953 201.122 557.332 201.834 C 555.979 204.178 555.879 203.545 555.996 205.834 C 571.696 211.596 578.127 193.959 590.606 221.615 C 585.97 223.124 574.141 226.299 572.889 230.966 C 574.501 234.16 582.978 240.248 586.518 243.241 C 583.055 250.227 577.219 260.87 577.708 268.253 C 579.897 271.579 579.595 270.645 584.256 272.18 C 587.524 276.118 582.082 274.894 581.571 282.077 C 585.471 285.508 587.323 282.962 589.839 285.525 C 579.386 292.78 583.64 291.484 571.144 296.254 C 575.059 297.871 578.066 299.279 581.842 301.201 C 574.496 303.905 541.736 317.753 536.537 322.156 C 537.54 323.381 556.524 330.445 559.38 331.602 C 570.749 349.917 578.417 353.155 588.297 374.738 C 580.856 369.735 573.029 362.734 566.107 356.851 C 569.79 364.423 573.706 371.88 577.848 379.211 C 580.506 382.27 583.679 385.183 584.062 389.139 L 583.596 391.099 C 579.736 392.668 577.498 391.495 574.157 389.218 C 577.802 404.89 579.949 420.859 582.008 436.804 C 560.538 443.821 530.551 455.886 509.185 457.553 C 499.39 445.984 490.571 439.479 476.001 434.516 C 453.711 428.894 445.351 426.858 422.427 425.924 C 394.416 427.425 376.19 428.116 372.841 461.128 C 360.645 457.842 344.381 455.232 331.647 452.887 C 334.747 444.491 340.6 423.955 338.406 415.342 C 334.244 398.036 315.376 357.835 300.394 348.022 C 266.825 326.034 269.448 341.304 282.252 299.904 C 290.607 272.889 294.019 234.906 312.545 210.033 C 321.524 197.977 334.094 195.236 346.726 188.856 C 348.156 188.106 354.312 180.705 355.898 178.861 L 352.163 197.032 C 370.601 190.096 376.318 188.357 393.363 177.887 z"/>
<path transform="translate(0,0)" fill="#ffffff" d="M 429.935 421.658 C 448.724 419.253 467.697 429.482 474.765 428.428 C 476.648 430.764 476.02 430.951 476.001 434.516 C 453.711 428.894 445.351 426.858 422.427 425.924 L 423.041 425.388 C 426.939 424.87 428.457 425.141 429.935 421.658 z"/>
<path transform="translate(0,0)" fill="rgb(0,0,0)" d="M 429.935 421.658 L 429.249 418.95 C 436.24 412.19 468.027 422.006 474.765 428.428 C 467.697 429.482 448.724 419.253 429.935 421.658 z"/>
<path transform="translate(0,0)" fill="rgb(0,0,0)" d="M 395.833 345.035 C 408.637 343.863 441.895 359.073 454.68 365.081 C 458.122 366.698 469.055 374.69 472.4 377.402 C 462.569 377.845 420.743 347.233 408.007 364.69 C 409.899 365.77 412.078 366.98 414.116 367.707 C 425.984 371.945 434.611 380.548 445.182 387.012 C 455.786 393.498 466.465 399.739 476.981 406.5 C 486.978 412.588 491.245 415.408 499.387 423.769 C 493.071 420.009 472.223 406.899 465.555 406.943 C 462.537 410.556 461.164 410.468 456.904 408.658 C 447.944 404.85 439.338 401.55 429.996 398.692 C 426.162 403.13 419.163 414.091 413.322 411.576 C 410.627 408.239 410.207 402.401 409.479 397.989 C 403.173 403.51 399.318 405.631 392.019 409.899 L 384.852 402.053 L 383.519 385.847 C 379.434 384.676 374.921 383.833 370.736 382.961 C 372.37 364.327 376.53 350.817 395.833 345.035 z"/>
<path transform="translate(0,0)" fill="rgb(0,0,0)" d="M 416.246 284.021 C 425.535 285.64 475.025 314.442 468.866 325.28 L 467.309 325.228 C 456.211 312.077 434.98 298.615 419.635 289.881 C 417.309 288.557 417.02 289.226 414.576 290.189 C 397.217 296.089 376.022 306.794 363.308 320.232 C 358.62 318.477 350.734 315.817 350.089 310.428 C 353.89 307.612 369.145 306.861 373.624 304.755 C 389.168 297.445 399.373 288.645 416.246 284.021 z"/>
<path transform="translate(0,0)" fill="rgb(0,0,0)" d="M 427.976 267.359 C 436.394 266.822 444.915 267.814 453.264 268.735 C 444.877 270.377 433.53 270.942 424.242 272.494 C 419.546 273.848 414.345 276.075 410.069 274.47 L 410.737 272.666 C 416.999 267.999 420.245 268.232 427.976 267.359 z"/>
<path transform="translate(0,0)" fill="rgb(254,254,254)" d="M 584.198 448.417 L 584.906 449.116 C 586.611 455.833 584.568 461.581 587.741 468.115 C 591.267 474.092 585.756 474.657 585.429 475.78 C 577.59 502.753 567.013 511.426 587.109 537.666 C 583.197 537.828 571.215 538.139 568.489 540.139 C 570.485 545.753 578.243 554.915 578.667 558.216 C 576.11 556.7 574.109 554.828 571.679 555.081 C 572.836 562.703 582.955 575.48 582.643 579.983 C 577.676 583.042 578.026 577.785 571.49 577.002 L 570.083 578.273 C 571.354 589.232 581.518 589.203 576.246 605.183 C 573.959 606.871 570.853 605.304 566.665 604.895 C 564.721 605.906 564.01 606.542 561.927 606.372 C 560.432 604.166 559.878 602.811 557.437 601.86 C 548.457 604.833 552.163 612.655 546.459 616.111 C 544.316 614.934 543.989 614.775 541.582 614.376 C 538.205 617.063 531.429 630.083 528.587 634.879 C 525.921 632.235 522.789 628.157 520.345 625.165 C 503.793 654.312 441.805 684.529 411.343 697.047 C 404.607 699.814 383.081 698.609 375.478 697.67 C 373.901 694.624 369.949 689.589 368.95 687.073 C 367.487 683.39 366.422 678.823 364.776 674.52 C 361.651 674.725 363.624 679.78 360.125 681.636 L 358.922 679.678 C 357.959 666.393 361.518 660.37 366.34 648.206 C 363.373 642.563 339.58 638.488 342.299 625.924 C 345.916 624.692 355.232 627.102 359.261 626.502 C 390.818 621.804 418.137 636.813 448.775 640.988 C 453.557 641.64 472.463 640.781 474.962 642.73 C 474.706 645.901 469.799 650.661 467.332 653.825 L 467.971 654.701 C 475.463 654.326 477.085 646.153 483.108 642.669 C 486.76 644.763 484.485 647.43 487.864 650.626 C 489.456 649.084 494.424 636.451 494.327 634.069 C 494.076 627.892 490.289 615.171 482.518 615.406 C 485.163 618.93 486.625 621.977 483.581 625.928 C 481.326 624.997 475.073 615.043 471.898 611.463 C 466.892 606.497 444.889 583.799 440.266 583.317 C 440.852 588.613 459.799 613.2 457.801 629.331 C 450.97 640.461 401.005 624.581 388.228 622.822 C 378.944 621.545 365.861 615.374 357.179 611.394 C 376.334 601.882 388.342 590.367 401.466 573.418 C 413.199 558.268 407.519 551.608 396.784 538.943 C 398.62 547.571 399.52 554.024 400.564 562.812 C 394.775 564.799 385.853 567.267 380.763 569.938 C 363.765 578.859 349.392 588.331 332.03 596.96 C 328.623 594.491 325.896 592.108 322.727 589.356 C 317.847 562.002 325.951 493.8 331.267 464.454 C 347.648 467.415 357.829 471.042 373.096 474.569 C 375.778 513.617 389.571 521.371 425.991 527.88 C 474.346 536.523 494.672 519.488 502.515 472.429 C 518.54 471.182 563.861 453.961 584.198 448.417 z"/>
<path transform="translate(0,0)" fill="rgb(0,0,0)" d="M 574.092 492.873 C 575.464 493.885 574.842 493.299 575.532 495.275 C 573.349 501.774 534.05 546.588 526.858 555.546 L 525.751 555.743 L 525.339 554.564 C 535.182 524.462 548.908 512.654 574.092 492.873 z"/>
<path transform="translate(0,0)" fill="rgb(254,254,254)" d="M 407.812 437.035 C 410.818 435.937 413.473 434.706 416.661 434.793 C 425.158 443.564 420.04 442.12 434.051 443.437 C 420.552 460.105 427.583 465.334 443.756 475.271 C 451.03 479.124 456.981 482.118 465.154 483.916 C 477.776 486.971 481.935 482.278 491.197 474.687 C 485.57 497.271 481.36 521.941 452.458 521.152 C 432.96 520.62 389.627 520.203 383.33 496.105 C 383.806 491.548 389.588 487.833 390.441 484.172 C 394.141 468.282 397.095 450.092 407.812 437.035 z"/>
<path transform="translate(0,0)" fill="rgb(0,0,0)" d="M 416.949 460.383 C 422.537 464.582 419.297 470.166 425.519 474.697 C 434.403 481.167 472.149 501.94 475.493 510.461 C 459.583 509.415 444.209 501.717 432.322 491.435 C 421.228 481.84 413.9 475.71 416.949 460.383 z"/>
<path transform="translate(0,0)" fill="rgb(254,254,254)" d="M 365.217 154.088 C 362.897 155.951 361.483 158.549 359.61 160.877 C 350.263 172.495 344.526 170.125 331.57 168.736 L 330.964 167.832 C 332.655 162.808 345.2 153.479 349.84 149.796 C 363.339 139.702 382.743 121.621 400.045 118.963 C 420.407 115.835 440.199 109.521 460.212 105.061 C 462.658 104.516 466.513 105.381 468.67 103.698 C 470.089 102.592 470.886 102.503 472.548 102.233 L 473.724 103.416 C 470.796 107.009 446.949 121.96 441.552 127.45 C 440.254 128.771 435.893 127.951 433.476 129.974 C 435.639 139.448 436.396 149.202 423.484 150.147 C 417.524 148.45 412.411 141.68 408.344 136.994 C 405.721 136.544 401.182 149.884 396.977 149.995 C 386.785 150.264 387.827 141.743 376.664 146.108 C 374.551 149.013 368.735 151.525 365.217 154.088 z"/>
<path transform="translate(0,0)" fill="rgb(254,254,254)" d="M 643.357 417.082 C 652.683 418.065 659.235 421.093 663.307 429.94 C 669.205 442.756 670.544 462.45 665.43 475.634 C 655.837 500.367 627.112 523.587 603.907 534.408 C 603.946 527.128 604.128 522.159 604.881 514.929 C 633.072 501.741 649.213 498.972 649.073 463.946 C 647.114 451.405 644.994 448.928 638.058 438.413 C 650.435 442.887 651.177 443.515 658.281 453.62 C 660.973 453.931 659.971 454.215 661.978 452.728 C 663.357 448.081 660.108 442.779 658.314 438.635 C 647.48 413.6 628.808 430.083 623.259 448.223 C 621.123 455.207 622.886 465.806 623.744 473.534 C 621.215 476.427 612.831 485.849 609.183 485.184 L 608.507 483.432 C 612.559 467.192 619.742 438.334 627.291 424.682 C 632.367 421.349 637.749 419.386 643.357 417.082 z"/>
<path transform="translate(0,0)" fill="rgb(254,254,254)" d="M 278.366 427.613 L 280.12 428.699 C 281.495 437.179 286.403 445.373 288.996 452.945 C 293.421 465.867 304.019 460.911 309.386 466.487 C 308.325 468.88 307.673 469.759 306.158 471.905 L 307.557 472.857 C 312.261 471.292 316.729 469.528 321.342 467.733 C 320.873 477.14 319.381 490.268 317.628 499.357 C 300.081 500.916 277.64 495.851 261.384 489.135 C 260.439 488.743 258.936 487.627 258.021 487.009 C 252.182 476.952 253.254 449.885 254.093 438.556 C 259.057 437.223 261.034 436.492 265.708 434.347 C 268.327 455.786 261.358 472.471 280.361 486.91 C 279.132 479.294 279.571 466.837 279.508 458.778 C 279.367 448.382 278.987 437.991 278.366 427.613 z"/>
<path transform="translate(0,0)" fill="rgb(254,254,254)" d="M 272.306 345.839 C 274.303 345.888 279.533 346.128 281.28 346.445 C 288.578 347.769 309.316 363.297 309.764 370.446 C 303.777 375.534 290.089 371.28 289.319 383.734 C 288.996 388.953 295.919 389.35 299.635 389.951 C 318.1 392.936 330.583 402.157 331.578 421.678 C 322.437 420.223 299.231 409.999 292.988 412.409 L 293.325 413.946 C 295.858 416.879 302.05 418.47 305.955 419.833 C 298.4 420.193 281.466 420.086 275.365 415.373 C 274.031 406.057 275.121 394.589 274.698 384.873 C 274.134 371.901 272.481 358.728 272.306 345.839 z"/>
<path transform="translate(0,0)" fill="rgb(254,254,254)" d="M 432.672 455.883 C 436.416 452.72 440.298 449.325 444.136 446.309 C 465.049 473.282 468.005 467.056 496.619 458.176 C 488.967 466.991 480.244 478.401 468.643 481.394 L 465.154 483.916 C 456.981 482.118 451.03 479.124 443.756 475.271 L 444.847 472.715 C 438.503 466.717 436.618 464.067 432.672 455.883 z"/>
<path transform="translate(0,0)" fill="rgb(21,20,25)" d="M 444.847 472.715 C 452.144 476.766 460.204 480.699 468.643 481.394 L 465.154 483.916 C 456.981 482.118 451.03 479.124 443.756 475.271 L 444.847 472.715 z"/>
<path transform="translate(0,0)" fill="rgb(254,254,254)" d="M 283.959 504.069 C 293.238 506.134 309.165 506.459 319.043 506.823 C 317.908 518.086 318.586 523.842 310.728 531.962 L 306.385 538.52 C 299.612 531.751 286.088 512.958 283.959 504.069 z"/>
<path transform="translate(0,0)" fill="rgb(254,254,254)" d="M 313.582 711.065 L 318.3 712.288 C 319.132 713.952 319.023 713.944 318.837 715.717 L 317.335 717.042 L 317.399 718.717 C 319.816 717.993 321.128 717.083 323.002 717.904 C 320.621 724.153 305.139 740.644 297.403 738.76 C 297.906 736.303 298.415 735.157 297.475 732.853 L 295.512 732.502 L 292.202 735.352 C 288.641 736.757 284.508 734.994 280.713 733.88 C 294.784 727.885 302.396 720.968 313.582 711.065 z"/>
<path transform="translate(0,0)" fill="rgb(254,254,254)" d="M 452.109 124.97 C 456.783 125.898 461.434 127.502 465.986 128.95 C 466.077 133.315 465.654 138.27 465.386 142.673 C 461.655 145.984 460.022 147.079 455.752 149.718 C 442.01 150.989 435.612 133.331 452.109 124.97 z"/>
<path transform="translate(0,0)" fill="#ffffff" d="M 295.024 431.401 C 304.646 436.873 295.969 448.235 319.652 455.85 C 318.373 458.2 317.257 458.172 314.509 459.629 C 296.253 461.791 294.262 456.856 287.828 441.33 C 290.458 438.225 292.722 434.764 295.024 431.401 z"/>
<path transform="translate(0,0)" fill="#ffffff" d="M 484.644 127.159 L 490.48 126.912 C 507.106 134.778 485.599 159.154 479.051 145.863 C 481.977 144.344 484.076 143.39 484.939 140.064 C 480.003 141.213 475.679 144.086 472.793 139.502 C 473.222 130.315 476.704 129.601 484.644 127.159 z"/>
<path transform="translate(0,0)" fill="#ffffff" d="M 742.85 249.748 C 748.329 251.169 754.074 259.014 752.286 264.679 C 749.424 266.486 743.155 265.443 739.408 265.201 L 738.32 266.459 C 738.942 269.514 740.744 270.99 742.878 273.361 C 743.15 273.549 743.518 274.395 743.709 274.757 C 736.971 277.635 727.321 272.241 729.828 263.77 C 732.436 254.956 735.717 253.995 742.85 249.748 z"/>
<path transform="translate(0,0)" fill="#ffffff" d="M 365.217 154.088 C 368.735 151.525 374.551 149.013 376.664 146.108 L 379.419 149.097 L 390.152 156.708 C 389.797 160.139 389.152 164.926 389.037 168.261 C 383.55 169.933 378.625 171.288 373.405 173.724 C 375.124 169.554 377.882 164.595 376.771 160.576 C 372.08 159.507 369.52 161.006 366.891 156.633 L 365.217 154.088 z"/>
<path transform="translate(0,0)" fill="rgb(21,20,25)" d="M 365.217 154.088 C 368.735 151.525 374.551 149.013 376.664 146.108 L 379.419 149.097 C 373.801 153.897 370.646 153.306 366.891 156.633 L 365.217 154.088 z"/>
<path transform="translate(0,0)" fill="#ffffff" d="M 510.873 91.8529 C 511.922 101.628 478.147 126.3 468.908 125.665 C 464.75 122.52 463.534 122.209 458.508 120.593 C 460.107 118.361 461.886 117.266 464.347 116.209 C 467.764 116.965 469.019 119.765 471.447 122.998 L 472.91 122.04 C 473.448 120.812 474.996 117.195 475.921 116.544 C 487.96 108.061 499.863 101.822 510.873 91.8529 z"/>
<path transform="translate(0,0)" fill="#ffffff" d="M 289.182 707.517 C 294.273 702.124 308.383 686.319 312.943 683.152 C 314.544 684.676 314.111 683.874 314.252 686.491 C 312.846 687.57 311.661 688.49 310.33 689.66 C 315.04 691.452 317.331 688.547 321.265 690.763 C 319.534 695.426 311.795 703.1 308.138 706.881 C 305.549 705.441 305.185 705.251 302.256 704.89 C 296.508 703.508 294.616 704.865 289.182 707.517 z"/>
<path transform="translate(0,0)" fill="rgb(254,254,254)" d="M 386.07 441.294 C 388.278 441.737 388.201 441.65 389.951 443.022 C 392.19 448.446 391.297 471.118 386.847 474.209 L 380.019 463.788 C 381.262 455.862 381.829 448.058 386.07 441.294 z"/>
<path transform="translate(0,0)" fill="#ffffff" d="M 501.605 136.869 C 508.659 139.552 520.896 138.98 528.881 139.087 C 526.283 141.849 524.117 144.418 521.695 147.338 C 520.973 148.36 519.158 149.566 518.064 150.389 C 510.701 151.409 502.959 143.578 501.605 136.869 z"/>
<path transform="translate(0,0)" fill="#ffffff" d="M 748.279 280.307 C 751.425 281.45 768.605 298.141 759.656 302.062 C 748.223 293.602 741.451 294.959 748.279 280.307 z"/>
<path transform="translate(0,0)" fill="#ffffff" d="M 302.256 704.89 C 305.185 705.251 305.549 705.441 308.138 706.881 C 301.636 713.002 290.407 724.169 281.466 726.08 L 279.754 723.341 C 286.91 716.841 294.345 710.441 302.256 704.89 z"/>
<path transform="translate(0,0)" fill="#ffffff" d="M 718.092 229.799 C 723.101 230.138 732.512 235.98 734.913 240.644 C 736.831 244.369 735.979 246.406 735.053 250.213 C 725.334 248.247 720.523 238.622 718.092 229.799 z"/>
<path transform="translate(0,0)" fill="rgb(254,254,254)" d="M 337.879 641.547 C 350.393 652.513 337.561 657.924 328.703 661.908 L 328.051 662.347 L 326.781 661.875 C 327.395 657.306 334.989 645.699 337.879 641.547 z"/>
<path transform="translate(0,0)" fill="#ffffff" d="M 532.878 139.205 C 538.324 139.111 550.535 138.032 554.528 141.28 C 554.079 143.855 553.47 143.57 550.897 145.541 L 540.503 150.095 C 537.796 146.997 533.664 143.04 532.878 139.205 z"/>
<path transform="translate(0,0)" fill="#ffffff" d="M 764.774 303.368 C 770.405 304.402 777.308 310.474 777.232 316.246 L 775.797 315.865 C 770.89 314.297 763.829 314.782 761.247 312.309 C 761.156 308.543 762.738 307.092 764.774 303.368 z"/>
<path transform="translate(0,0)" fill="#ffffff" d="M 438.58 148.52 C 441.381 149.026 442.855 149.812 444.247 152.116 L 443.491 154.146 C 439.743 157.851 436.355 158.97 431.578 161.03 C 429.017 162.076 429.937 162.146 427.794 161.352 C 428.38 156.532 434.736 151.917 438.58 148.52 z"/>
<path transform="translate(0,0)" fill="#ffffff" d="M 409.591 148.773 C 412.441 149.259 412.931 149.288 415.248 150.977 L 415.116 152.627 C 411.837 155.97 405.992 158.695 401.731 160.98 C 400.366 161.933 399.03 162.587 397.565 163.361 L 397.012 162.488 C 399.872 156.244 403.962 152.443 409.591 148.773 z"/>
<path transform="translate(0,0)" fill="#000000" d="M 503.373 117.867 C 506.033 117.836 506.334 117.974 508.651 119.3 C 510.871 122.439 510.624 121.192 510.518 124.32 L 508.624 125.657 L 503.945 124.777 C 500.929 125.528 498.634 126.556 495.963 125.341 L 495.567 123.6 C 497.499 120.258 499.865 119.542 503.373 117.867 z"/>
<path transform="translate(0,0)" fill="#ffffff" d="M 711.993 257.091 C 712.415 257.047 712.837 257.008 713.26 256.976 C 721.73 256.33 724.868 260.85 724.949 268.528 L 722.265 268.349 C 717.18 265.472 714.284 262.547 711.993 257.091 z"/>
<path transform="translate(0,0)" fill="#ffffff" d="M 503.909 151.111 C 506.055 152.884 507.714 153.81 508.497 156.401 C 506.31 158.617 501.694 158.882 498.384 159.428 C 495.195 158.832 495.471 159.425 493.767 157.513 C 495.387 154.775 500.769 152.676 503.909 151.111 z"/>
<path transform="translate(0,0)" fill="#000000" d="M 279.754 723.341 L 281.466 726.08 C 277.961 728.483 268.168 734.391 264.109 733.233 C 266.75 729.393 275.335 725.412 279.754 723.341 z"/>
<path transform="translate(0,0)" fill="#ffffff" d="M 313.582 711.065 C 316.503 708.266 320.34 703.947 324.023 702.829 C 325.087 705.714 320.372 712.577 318.837 715.717 C 319.023 713.944 319.132 713.952 318.3 712.288 L 313.582 711.065 z"/>
<path transform="translate(0,0)" fill="rgb(0,0,0)" fill-opacity="0.913725" d="M 295.306 770.603 L 297.047 769.511 L 298.683 770.199 C 299.956 775.284 300.668 780.196 300.508 785.463 C 296.387 784.144 291.855 784.798 287.498 785.095 L 288.403 784.065 L 288.462 784.536 C 291.048 780.65 296.77 775.399 297.782 771.142 L 295.306 770.603 z"/>
</svg>
