<svg version="1.1" xmlns="http://www.w3.org/2000/svg" style="display: block;" viewBox="0 0 1340 1180" width="335" height="295" preserveAspectRatio="none">
<defs>
	<linearGradient id="Gradient1" gradientUnits="userSpaceOnUse" x1="826.421" y1="391.635" x2="848.021" y2="410.868">
		<stop class="stop0" offset="0" stop-opacity="1" stop-color="rgb(43,33,0)"/>
		<stop class="stop1" offset="1" stop-opacity="1" stop-color="rgb(66,37,0)"/>
	</linearGradient>
</defs>
<path transform="translate(0,0)" fill="rgb(0,0,0)" d="M 519.977 0 L 710.649 0 C 729.448 16.9917 753.855 35.6388 774.041 51.4827 C 802.064 73.4133 829.97 95.4927 857.758 117.72 L 1159.91 358.033 L 1248.63 428.35 C 1260.49 437.765 1289.46 459.454 1297.84 470.04 C 1298.27 487.673 1300.7 575.341 1297.19 584.66 C 1292.41 597.37 1282.4 609.643 1274.88 620.898 L 1238.31 675.638 L 1086.93 903.14 L 969.159 1080.44 L 938.293 1126.81 C 931.646 1136.99 921.936 1152.93 914.315 1161.73 C 911.621 1162.06 908.917 1162.32 906.207 1162.49 C 892.196 1163.39 868.046 1161.98 853.808 1161.22 L 777.571 1156.93 C 763.718 1156.17 695.223 1157.29 686.112 1151.94 C 671.127 1143.14 638.018 1117.9 622.7 1106.8 L 431.922 968.017 L 206.507 804.255 L 135.182 752.562 C 124.189 744.566 106.46 732.437 96.6832 723.775 C 94.4221 709.704 93.4989 692.776 92.1948 678.484 L 86.0522 616.958 L 80.1654 552.353 C 78.8476 538.907 76.5712 525.677 76.2529 512.168 C 83.2664 500.116 98.1406 484.179 107.776 473.178 L 149.561 425.233 L 310.134 240.43 L 441.08 89.6068 C 457.501 70.3104 474.059 51.1314 490.754 32.0712 C 499.179 22.3876 510.845 8.0534 519.977 0 z"/>
<path transform="translate(0,0)" fill="rgb(254,254,254)" d="M 630.313 29.7796 C 649.277 35.9732 683.805 44.2638 699.737 53.1768 C 712.801 60.4852 736.494 79.9103 749.746 89.6399 L 860.012 170.245 L 1257.1 461.461 C 1264.6 488.639 1269.09 517.181 1276.36 544.511 C 1277.87 550.178 1279.01 555.826 1279.28 561.702 C 1272.28 567.776 1257.65 590.852 1251.41 599.682 C 1236.29 620.935 1221.05 642.106 1205.7 663.194 L 981.835 975.124 L 921.392 1059.95 C 911.345 1074.23 894.614 1099.29 883.874 1112.14 C 862.373 1108.92 841.253 1104.07 819.793 1100.21 C 808.436 1098.02 787.852 1095 778.568 1089.25 C 764.194 1080.34 750.004 1068.23 736.034 1058.1 L 630.271 980.88 L 253.104 705.851 C 232.591 690.856 212.153 675.756 191.793 660.553 C 182.884 653.944 166.13 640.811 157.064 636.005 C 156.47 606.578 158.487 576.699 158.904 547.24 C 158.975 542.217 159.287 537.157 159.71 532.15 C 164.479 524.986 177.684 512.35 184.12 505.605 L 225.094 462.344 C 229.256 458.037 233.552 453.535 237.506 449.039 C 260.364 423.043 284.649 398.454 308.259 373.121 L 503.437 164.314 L 586.976 74.8772 C 601.575 59.396 613.985 43.5349 630.313 29.7796 z"/>
<path transform="translate(0,0)" fill="rgb(254,219,27)" d="M 666.005 54.9541 C 674.33 65.234 689.192 74.8771 699.605 83.3433 C 744.198 119.597 788.737 155.827 833.451 191.934 L 1239.49 523.464 C 1232.06 535.647 1220.85 551.209 1212.73 563.186 C 1200.96 580.927 1188.63 598.289 1176.94 616.086 C 1175.44 618.377 1173.98 620.694 1172.25 622.825 C 1100.71 726.81 1029.73 831.178 959.308 935.924 L 903.022 1018.96 C 891.528 1035.57 878.489 1052.11 868.615 1069.66 C 849.299 1054.64 829.01 1041.25 809.126 1026.89 L 653.407 915.556 L 202.564 593.649 L 507.621 238.354 L 601.419 129.617 C 622.377 105.542 645.839 79.5726 666.005 54.9541 z"/>
<path transform="translate(0,0)" fill="rgb(0,0,0)" d="M 785.069 644.513 C 786.233 630.708 786.342 612.494 784.553 598.759 C 782.476 587.907 776.044 578.568 777.114 567.152 C 778.195 555.624 794.129 550.02 804.135 551.302 C 816.939 552.943 824.302 571.295 831.488 581.088 C 817.11 606.273 812.728 609.657 809.171 638.011 C 823.891 633.42 839.573 628.342 854.324 624.162 C 873.963 618.597 885.675 616.415 904.409 607.943 C 893.703 617.59 883.056 625.951 872.908 636.463 C 863.724 645.857 858.95 650.649 852.728 662.141 C 862.978 711.365 826.304 680.608 807.239 698.949 C 802.06 703.93 803.821 726.559 804.15 734.699 C 813.369 734.851 822.59 735.221 831.78 734.621 C 843.907 733.83 856.5 731.591 868.587 731.394 C 853.104 724.324 835.866 719.903 822.479 713.642 C 843.021 717.471 863.554 719.878 884.281 722.521 C 898.798 724.373 916.301 724.896 930.441 728.303 C 934.529 733.117 940.892 740.447 943.59 745.84 C 942.918 754.118 938.679 783.29 929.587 781.604 C 907.9 777.582 882.633 766.496 860.076 764.831 C 847.717 763.919 834.78 767.479 822.45 767.56 C 815.972 767.693 810.413 766.266 804.226 765.645 C 803.916 777.199 803.516 788.138 804.133 799.712 C 804.381 816.236 805.984 838.272 810.013 854.153 C 809.98 866.588 800.247 869.593 790.184 864.917 C 779.4 859.907 776.973 852.657 772.984 842.431 C 758.911 837.285 739.627 837.524 724.534 834.894 C 711.205 832.571 699.576 828.928 686.117 828.219 C 702.447 810.934 721.366 806.83 743.837 800.894 L 744.004 798.122 L 745.513 797.313 L 748.778 798.765 L 748.283 799.036 C 755.731 802.248 766.527 807.694 774.325 805.366 C 776.761 800.936 776.362 783.379 775.254 778.25 C 769.435 774.449 748.864 784.523 740.68 782.151 C 729.578 782.514 706.817 791.456 695.641 794.653 C 678.146 799.658 664.973 810.141 652.987 823.356 C 649.113 822.447 644.443 821.783 641.252 819.269 C 632.56 812.423 629.075 797.013 627.845 786.369 C 627.246 781.187 626.448 771.714 630.281 767.457 C 643.374 752.916 760.159 738.399 784.086 736.855 C 783.975 725.369 784.036 713.883 784.269 702.399 C 777.839 703.868 771.754 704.666 765.304 706.731 C 754.314 710.251 744.203 714.212 732.912 716.854 C 725.792 707.471 724.429 702.945 723.059 691.694 C 717.222 701.112 712.213 711.213 707.134 721.075 C 697.183 721.462 685.743 720.64 675.408 720.911 C 657.055 721.392 618.304 754.41 603.168 748.12 C 596.706 734.567 653.589 688.206 662.406 673.5 C 677.654 648.069 683.388 631.382 689.025 602.984 C 696.762 595.684 719.365 579.156 729.674 579.44 C 744.572 579.85 777.342 588.311 778.06 607.096 C 778.212 610.511 777.37 613.896 775.638 616.842 C 773.169 621.046 747.706 646.543 742.248 652.505 C 752.18 649.68 774.218 646.231 785.069 644.513 z"/>
<path transform="translate(0,0)" fill="rgb(254,174,32)" d="M 740.68 782.151 C 752.449 778.3 765.801 776.063 778.105 774.685 C 777.802 798.756 778.783 806.52 769.554 828.993 C 751.045 829.714 731.912 828.944 713.337 828.892 C 719.502 821.318 726.055 812.393 734.658 807.578 C 738.215 805.587 741.813 804.745 745.565 802.554 L 743.837 800.894 L 744.004 798.122 L 745.513 797.313 L 748.778 798.765 L 748.283 799.036 C 755.731 802.248 766.527 807.694 774.325 805.366 C 776.761 800.936 776.362 783.379 775.254 778.25 C 769.435 774.449 748.864 784.523 740.68 782.151 z"/>
<path transform="translate(0,0)" fill="rgb(213,173,3)" d="M 849.681 739.052 C 852.271 738.462 850.993 738.416 853.629 739.405 C 855.011 742.841 854.701 746.264 852.606 749.329 C 843.859 751.351 825.621 748.779 812.749 750.291 C 809.796 750.22 808.178 749.557 807.167 746.781 C 813.529 741.468 832.918 749.686 849.681 739.052 z"/>
<path transform="translate(0,0)" fill="rgb(254,174,32)" d="M 831.488 581.088 C 839.191 584.308 848.797 589.628 857.054 589.784 C 878.064 590.737 899.53 585.96 920.327 585.099 C 952.96 583.749 984.973 580.813 1017.48 578.239 L 1140.46 569.144 C 1160.21 567.578 1178.92 569.187 1196.86 561.248 C 1201.96 558.996 1207.84 560.598 1212.73 563.186 C 1200.96 580.927 1188.63 598.289 1176.94 616.086 C 1175.44 618.377 1173.98 620.694 1172.25 622.825 C 1161.81 618.365 1128.91 623.912 1116.28 624.622 C 1098.65 625.613 1079.75 625.74 1062.2 626.993 L 956.622 634.627 C 941.661 635.643 882.448 642.657 872.908 636.463 C 883.056 625.951 893.703 617.59 904.409 607.943 C 885.675 616.415 873.963 618.597 854.324 624.162 C 839.573 628.342 823.891 633.42 809.171 638.011 C 812.728 609.657 817.11 606.273 831.488 581.088 z"/>
<path transform="translate(0,0)" fill="rgb(254,174,32)" d="M 804.133 799.712 C 824.437 807.195 835.74 817.674 854.018 827.902 C 875.571 839.963 902.552 851.732 925.929 859.455 C 926.11 878.294 926.154 897.135 926.063 915.975 L 845.957 916.264 C 845.946 903.362 846.597 863.19 844.64 852.576 C 837.109 849.731 833.477 848.753 825.602 847.019 C 820.765 849.96 812.504 852.486 810.013 854.153 C 805.984 838.272 804.381 816.236 804.133 799.712 z"/>
<path transform="translate(0,0)" fill="rgb(0,0,0)" d="M 692.14 251.06 C 701.043 223.281 717.706 219.871 744.246 218.585 C 758.474 226.925 765.538 238.415 771.173 253.317 C 764.133 260.88 727.64 290.324 730.668 296.989 C 744.518 296.66 829.465 273.668 832.617 274.355 C 831.53 282.227 804.077 295.799 803.628 307.127 C 803.454 311.513 805.78 313.353 808.674 316.666 L 808.112 318.395 C 806.007 318.848 804.836 319.184 802.802 319.89 C 799.8 326.398 797.903 340.757 796.748 348.162 C 780.876 356.511 772.284 358.867 754.485 359.108 C 765.148 375.581 778.373 389.013 791.794 403.249 C 791.755 397.441 791.143 387.712 794.646 383.156 C 802.295 382.537 801.133 398.643 804.163 406.385 C 810.647 422.952 818.87 428.252 831.729 438.971 C 836.954 434.969 836.365 434.534 837.144 428.686 L 838.005 429.341 C 841.219 423.934 838.939 416.726 842.975 412.995 L 845.852 413.961 L 848.9 410.644 C 853.819 432.869 851.886 447.065 854.481 468.34 C 855.386 478.282 854.725 485.418 856.884 495.859 C 868.192 510.145 875.694 510.847 881.313 529.813 C 879.993 531.749 869.676 544.995 868.23 544.642 C 827.401 534.663 780.752 526.361 739.302 536.467 C 728.958 538.99 717.427 548.753 707.343 553.038 L 706.41 553.427 C 694.636 543.256 689.483 520.605 687.218 505.555 C 692.067 499.126 696.75 493.02 701.157 486.274 C 690.844 487.686 685.681 489.175 676.227 492.853 C 670.358 485.55 647.89 459.833 635.064 462.067 C 630.737 462.821 633.117 468.616 631.329 472.332 C 627.568 472.962 623.86 468.711 617.836 467.555 C 617.253 467.897 616.671 468.239 616.088 468.582 C 616.111 479.275 618.602 501.165 618.104 511.481 C 617.455 526.73 613.693 541.685 607.051 555.426 C 602.177 555.776 593.955 556.754 589.711 554.193 C 577.739 546.968 557.701 512.02 561.695 498.35 C 565.916 483.908 572.554 468.006 576.495 452.477 C 578.919 442.927 580.409 415.535 583.997 409.148 C 599.018 401.558 606.034 421.713 610.839 431.663 L 619.934 424.03 C 617.496 417.702 613.756 409.291 613.595 402.761 L 614.746 401.986 C 619.841 405.02 626.003 413.993 629.879 419.014 C 636.882 409.829 643.097 400.067 648.455 389.833 C 628.297 370.573 621.308 363.154 613.82 335.431 C 607.522 344.067 598.335 356.024 593.749 365.403 C 566.387 421.355 539.703 481.224 522.227 540.756 C 516.961 540.66 510.946 540.196 505.622 539.918 C 491.417 528.1 489.546 513.946 480.529 507.759 C 480.567 505.515 484.412 500.772 485.946 498.619 C 477.246 496.726 464.576 497.356 459.085 489.543 C 455.724 479.867 479.559 447.694 483.966 436.98 C 486.041 431.935 493.579 422.978 495.876 417.493 C 502.005 402.856 504.53 387.754 514.218 374.737 C 523.188 361.553 530.995 347.753 538.926 333.967 C 554.564 306.784 562.909 271.046 591.678 254.783 C 609.497 270.016 632.979 279.22 640.637 304.4 C 641.19 306.221 639.715 310.279 640.119 313.407 C 644.048 314.85 649.207 312.728 653.068 313.006 C 691.961 315.8 691.56 293.032 699.014 261.554 C 696.769 258.604 694.189 254.284 692.14 251.06 z"/>
<path transform="translate(0,0)" fill="rgb(254,174,32)" d="M 837.144 428.686 L 838.005 429.341 C 838.247 438.123 840.89 445.464 841.092 454.292 C 839.744 473.43 840.135 480.149 834.138 498.318 C 795.012 497.899 751.148 493.849 711.939 497.966 C 714.953 492.392 716.735 486.792 718.842 480.833 C 732.154 471.77 728.415 476.492 736.464 476.026 C 745.669 475.492 784.675 447.874 789.294 442.42 C 794.906 455.806 808.547 474.882 825.524 468.814 C 829.03 467.588 831.834 464.906 833.214 461.458 C 835.613 455.632 834.099 444.654 831.729 438.971 C 836.954 434.969 836.365 434.534 837.144 428.686 z"/>
<path transform="translate(0,0)" fill="rgb(82,48,0)" d="M 838.005 429.341 C 841.219 423.934 838.939 416.726 842.975 412.995 L 845.852 413.961 C 846.837 424.393 847.648 430.94 844.735 441.351 C 843.381 446.193 841.557 449.132 841.092 454.292 C 840.89 445.464 838.247 438.123 838.005 429.341 z"/>
<path transform="translate(0,0)" fill="rgb(254,219,27)" d="M 723.376 366.326 C 728.357 366.497 731.817 368.817 735.07 372.365 C 745.608 383.859 754.632 395.246 766.323 405.67 C 754.281 406.302 742.23 406.739 730.173 406.981 C 729.806 403.219 729.073 399.058 728.488 395.287 C 719.766 390.486 698.4 382.939 694.447 397.29 C 694.97 403.668 695.456 405.079 697.82 411.055 C 684.034 414.984 669.992 415.887 655.476 420.618 C 668.052 390.144 689.896 370.063 723.376 366.326 z"/>
<path transform="translate(0,0)" fill="rgb(254,219,27)" d="M 755.869 415.497 C 760 415.428 764.422 415.555 768.579 415.597 C 771.348 420.519 779.31 430.206 783.129 435.08 C 777.595 441.704 742.072 474.276 735.428 473.867 C 733.114 471.731 733.413 470.876 732.384 467.591 C 727.678 466.741 722.134 466.81 717.291 466.71 L 724.606 455.111 C 739.527 452.062 733.43 446.918 748.66 437.96 C 740.447 437.059 733.03 437.038 724.776 436.922 C 728.325 428.709 729.53 425.041 730.291 416.142 C 738.678 416.113 747.454 415.736 755.869 415.497 z"/>
<path transform="translate(0,0)" fill="rgb(213,173,3)" d="M 543.012 374.601 C 544.113 375.154 545.239 376.301 544.626 377.646 C 539.214 388.159 532.785 400.13 526.762 410.28 C 514.733 430.549 499.009 479.614 481.08 492.166 C 479.218 490.185 479.831 491.344 479.418 488.458 C 481.324 482.8 495.293 457.192 498.909 450.651 C 509.409 431.658 528.202 388.619 543.012 374.601 z"/>
<path transform="translate(0,0)" fill="rgb(213,173,3)" d="M 695.678 435.46 L 698.373 435.454 C 701.773 437.356 702.415 438.533 701.36 441.967 C 696.813 446.083 688.985 447.584 682.933 449.205 C 678.635 448.924 677.926 449.391 674.726 447.2 L 674.417 445.355 C 677.879 438.496 688.761 436.06 695.678 435.46 z"/>
<path transform="translate(0,0)" fill="rgb(213,173,3)" d="M 693.647 462.016 C 697.342 461.682 697.795 461.444 700.016 463.912 C 700.731 471.864 695.899 472.417 689.943 473.175 C 686.855 473.198 685.982 473.335 683.148 472.187 L 682.628 470.569 C 684.631 467.23 690.173 464.243 693.647 462.016 z"/>
<path transform="translate(0,0)" fill="rgb(254,174,32)" d="M 836.548 374.113 C 837.604 373.556 838.982 372.828 840.683 371.931 C 853.489 372.686 865.099 372.335 878.079 371.627 C 921.478 369.258 965.588 363.01 1009.03 363.036 C 1010.27 363.037 1010.92 364.45 1011.64 365.478 C 1011.98 370.207 1011.94 373.367 1008.82 377.273 C 1001.01 382.648 924.705 385.467 909.038 388.6 C 910.096 404.747 910.965 425.66 910.587 441.841 C 895.938 450.135 871.494 456.819 855.72 464.868 C 855.237 466.221 854.824 467.379 854.481 468.34 C 851.886 447.065 853.819 432.869 848.9 410.644 L 845.852 413.961 L 842.975 412.995 C 838.939 416.726 841.219 423.934 838.005 429.341 L 837.144 428.686 C 836.799 418.165 831.7 393.484 829.087 383.211 C 832.522 382.137 835.964 381.361 838.771 379.155 L 836.548 374.113 z"/>
<path transform="translate(0,0)" fill="url(#Gradient1)" d="M 838.771 379.155 C 841.408 385.467 848.691 403.867 848.9 410.644 L 845.852 413.961 L 842.975 412.995 C 838.939 416.726 841.219 423.934 838.005 429.341 L 837.144 428.686 C 836.799 418.165 831.7 393.484 829.087 383.211 C 832.522 382.137 835.964 381.361 838.771 379.155 z"/>
<path transform="translate(0,0)" fill="rgb(0,0,0)" d="M 809.734 328.969 C 821.667 344.356 828.324 356.732 836.548 374.113 L 838.771 379.155 C 835.964 381.361 832.522 382.137 829.087 383.211 C 822.952 363.843 816.1 347.477 809.734 328.969 z"/>
</svg>