<svg xmlns="http://www.w3.org/2000/svg" version="1.1" style="display: block;" viewBox="0 0 1024 1024" width="256" height="256" preserveAspectRatio="none">
<path transform="translate(0,0)" fill="rgb(0,0,0)" d="M 556.668 45.4352 C 605.223 43.1472 604.632 45.8093 647.803 64.9648 C 678.648 78.5199 709.339 92.424 739.87 106.675 C 743.397 108.335 756.87 115.331 758.338 118.402 C 771.45 145.836 786.011 175.297 793.769 204.781 C 796.831 216.417 799.242 226.847 803.319 238.233 C 801.637 246.165 798.152 262.839 796.907 270.029 C 796.255 273.793 814.192 287.562 818.609 291.436 C 837.593 308.084 838.003 324.294 838.844 348.588 C 830.465 357.741 810.756 372.628 798.874 377.624 C 797.261 378.302 783.416 379.541 780.699 379.8 C 779.383 383.298 776.069 401.083 774.912 405.921 L 760.186 466.094 C 748.017 517.31 733.915 569.809 721.097 621.103 C 732.524 643.121 729.829 666.43 727.007 690.167 C 757.525 697.124 793.03 692.731 822.816 699.366 C 841.481 708.922 871.268 730.74 884.731 745.507 C 901.893 764.33 914.617 801.562 932.357 816.656 C 956.651 837.325 987.95 851.107 1012.71 871.712 C 1013.29 916.493 1013.85 973.082 1012.1 1017.13 C 990.945 1015.14 955.151 1016.12 933.13 1016.13 L 793.113 1016.16 L 338.5 1016.16 L 210.612 1016.12 C 186.368 1016.12 159.945 1015.62 135.851 1016.51 C 161.776 958.333 199.88 907.236 232.945 853.39 C 240.87 834.061 235.128 808.879 250.692 793.049 C 271.675 771.707 296.273 752.644 320.829 735.557 C 325.39 732.384 331.948 731.257 337.282 728.853 C 339.598 725.076 334.073 717.551 331.502 713.603 C 313.878 686.527 313.501 665.555 309.273 634.776 C 287.421 637.428 248.272 644.503 225.254 645.794 C 221.247 646.019 213.971 631.402 211.752 626.302 C 234.003 604.837 273.237 601.231 303.068 596.362 C 301.365 578.806 296.039 557.44 293.765 539.488 C 287.987 493.878 279.689 447.112 275.109 401.472 C 249.229 390.503 230.314 405.638 204.215 411.249 C 182.706 415.874 163.764 417.956 141.824 413.913 C 133.163 406.525 114.959 383.284 106.277 373.522 C 113.252 364.349 123.684 344.217 130.828 337.951 C 139.326 330.498 237.565 296.271 256.397 290.905 C 252.399 283.479 247.283 277.044 244.305 268.729 C 234.028 240.031 232.757 205.075 224.54 176.204 C 226.643 173.409 228.882 170.717 231.247 168.14 C 250.593 146.936 279.173 111.436 307.726 104.406 C 340.822 96.2583 359.707 70.4502 387.86 54.6259 C 393.985 51.183 434.648 50.9905 445.386 50.5055 L 556.668 45.4352 z M 205.335 333.902 C 201.541 333.051 197.626 333.124 194.206 331.234 C 189.305 330.976 181.129 332.437 176.026 333.168 C 186.287 334.611 195.008 334.253 205.335 333.902 z M 594.514 297.407 C 600.91 297.228 607.096 303.729 612.001 301.764 C 608.549 298.677 603.913 296.557 599.239 296.391 L 594.514 297.407 z"/>
<path transform="translate(0,0)" fill="rgb(253,253,253)" d="M 624.537 361.322 L 627.529 361.221 L 628.748 362.539 C 627.699 367.126 623.083 367.265 620.562 372.736 C 622.251 376.866 628.219 375.162 628.925 380.582 C 627.407 382.373 625.936 383.91 624.321 385.596 L 624.381 387.952 C 627.491 389.527 633.774 392.011 634.114 395.712 C 629.819 397.624 623.381 396.027 618.546 395.278 C 624.485 401.475 633.771 408.913 640.509 415.011 L 640.451 415.521 C 638.693 430.201 633.735 449.076 631.165 463.722 C 629.093 475.534 625.22 512.608 616.236 519.603 C 611.995 521.357 609.376 520.271 604.681 519.524 C 602.607 524.756 607.178 528.186 604.725 532.875 L 603.436 532.833 L 602.399 528.765 L 600.684 528.043 L 598.743 529.038 C 598.173 531.842 600.342 536.34 601.412 539.303 C 604.337 547.397 605.525 554.283 605.349 562.913 C 602.888 564.697 602.444 559.699 598.346 560.269 C 596.953 568.452 602.4 567.104 605.079 573.52 C 603.906 577.337 602.225 574.844 598.79 578.569 L 599.225 580.084 C 601.697 580.934 602.109 581.007 604.226 582.476 C 604.985 594.674 588.888 610.325 580.844 618.901 L 592.066 631.377 C 561.617 645.226 534.526 663.714 505.222 679.521 C 499.514 682.6 494.023 685.999 488.548 689.464 C 484.107 689.6 485.027 684.156 479.741 682.855 C 472.181 684.667 478.978 693.162 473.812 697.086 C 458.079 709.037 463.97 687.169 450.907 688.252 C 451.596 694.266 455.48 705.012 452.409 709.65 C 448.189 709.102 441.022 698.893 437.745 694.959 C 438.44 700.169 441.168 710.536 435.561 712.961 C 431.839 711.513 427.824 705.841 423.763 702.591 L 422.483 703.342 C 421.646 709.874 422.537 711.229 425.328 717.221 C 417.655 716.074 409.414 716.067 401.622 715.885 C 402.479 710.73 403.572 707.432 402.479 702.348 C 400.051 699.064 401.376 700.037 397.451 698.723 C 389.908 700.428 396.812 705.461 393.489 710.667 C 390.347 708.968 391.219 704.753 387.556 700.932 C 384.24 703.392 385.109 711.098 381.069 713.882 C 374.211 710.303 386.757 684.096 376.058 681.459 C 374.4 687.402 376.153 703.233 370.461 708.055 C 367.593 709.015 367.246 709.038 364.391 708.055 C 360.388 701.444 365.74 692.525 364.424 685.007 C 363.238 685.082 350.91 698.155 348.112 700.595 C 355.256 677.007 373.214 664.812 368.402 639.086 C 368.114 637.544 369.253 629.708 369.526 627.622 C 394.388 645.402 400.381 654.429 432.868 643.965 C 422.202 634.021 416.611 629.941 403.313 624.222 C 395.483 621.554 390.621 621.955 382.536 622.22 C 387.547 617.255 392.335 612.092 395.723 605.893 C 411.938 610.067 429.867 613.761 445.751 618.104 C 470.314 624.819 478.97 633.331 505.569 632.692 C 496.412 611.391 496.223 622.959 480.57 618.298 C 442.224 606.877 402.555 594.448 362.425 590.587 L 367.165 575.343 C 373.758 580.961 376.011 581.693 384.028 584.104 C 404.376 573.619 419.651 565.372 440.911 556.474 C 408.441 540.837 386.549 553.153 358.875 544.26 C 359.444 530.876 362.282 513.569 364.037 500.008 C 365.758 486.707 367.641 469.211 370.814 456.546 C 405.837 457.707 414.983 452.751 447.961 442.549 C 456.63 450.445 460.239 457.982 467.876 466.142 C 469.951 468.36 472.727 467.906 475.244 467.522 C 483.37 460.411 468.968 445.996 470.001 434.976 C 475.321 427.061 486.511 437.043 491.186 441.066 C 518.933 464.947 545.384 463.265 568.842 434.531 C 569.555 433.658 568.682 430.03 570.252 427.361 C 575.629 426.551 581.415 434.331 586.587 430.66 L 586.591 428.603 C 575.505 413.804 537.856 404.895 520.56 399.854 C 551.02 377.209 587.679 367.205 624.537 361.322 z"/>
<path transform="translate(0,0)" fill="rgb(0,0,0)" d="M 470.441 585.008 C 475.617 584.978 483.899 584.74 487.706 588.662 C 489.537 590.534 490.511 593.079 490.4 595.695 L 488.216 597.09 C 478.684 593.35 478.499 594.415 468.807 598.156 C 469.186 593.995 469.912 589.212 470.441 585.008 z"/>
<path transform="translate(0,0)" fill="rgb(0,0,0)" d="M 449.802 578.474 C 455.554 580.789 463.295 592.802 460.827 599.314 L 457.407 600.561 C 451.689 590.873 450.899 594.89 445.479 588.696 C 445.499 584.83 447.735 582.208 449.802 578.474 z"/>
<path transform="translate(0,0)" fill="rgb(0,0,0)" d="M 420.83 573.337 C 422.139 573.967 434.837 587.225 435.453 589.689 C 436.227 592.784 435.646 593.121 434.332 595.409 C 428.617 593.203 422.042 584.358 418.679 579.256 C 418.273 575.667 418.212 576.905 420.83 573.337 z"/>
<path transform="translate(0,0)" fill="rgb(0,0,0)" d="M 421.365 685.838 C 424.413 685.979 427.681 685.735 430.003 687.592 C 431.122 690.987 430.623 690.466 429.746 694.46 C 426.193 695.966 427.329 696.065 423.915 695.407 C 421.81 693.257 421.747 689.011 421.365 685.838 z"/>
<path transform="translate(0,0)" fill="rgb(253,253,253)" d="M 194.206 331.234 C 196.787 330.873 205.855 329.68 207.399 328.56 C 222.382 317.496 234.597 308.282 252.289 301.189 C 273.694 292.606 296.113 291.885 318.89 291.689 C 333.773 291.561 380.012 293.592 390.218 302.726 C 390.003 310.055 376.66 313.546 370.614 315.964 C 378.173 330.507 375.644 331.732 362.643 339.282 C 357.777 336.401 355.948 335.043 350.254 334.248 L 348.58 334.823 C 351.143 342.033 361.421 349.324 357.668 358.043 C 355.896 362.159 348.299 367.086 343.735 364.472 C 338.479 361.464 336.905 351.277 332.868 349.181 C 324.745 353.515 322.718 380.61 302.844 350.964 C 298.56 356.901 288.49 370.01 279.649 363.514 C 277.174 361.695 277.239 359.621 277.156 356.765 C 277.134 355.932 277.123 355.099 277.122 354.266 C 265.066 351.853 255.822 349.671 243.87 346.199 C 229.191 341.935 220.191 333.583 205.335 333.902 C 201.541 333.051 197.626 333.124 194.206 331.234 z"/>
<path transform="translate(0,0)" fill="rgb(253,253,253)" d="M 664.714 168.384 C 664.876 168.355 665.038 168.326 665.2 168.297 C 717.681 163.802 712.467 238.544 690.824 266.948 C 683.327 276.786 675.148 278.619 664.733 279.89 C 632.524 278.399 618.691 251.034 622.604 221.866 C 625.948 196.949 635.846 170.513 664.714 168.384 z"/>
<path transform="translate(0,0)" fill="rgb(253,253,253)" d="M 289.552 149.19 C 291.371 145.526 294.228 140.568 296.82 137.201 C 314.653 114.893 345.355 97.342 372.072 88.1781 C 393.131 82.1826 415.167 80.5445 436.868 77.5881 C 450.713 75.702 468.944 73.5317 482.408 78.3172 C 486.22 79.672 493.059 86.9335 496.921 89.8501 C 501.06 90.1927 504.226 89.9365 507.22 92.7139 C 496.078 97.1026 485.824 103.081 474.497 106.83 C 467.407 109.177 455.752 108.177 448.963 109.807 C 432.28 113.815 414.913 117.366 398.342 121.551 C 365.222 129.916 323.115 145.632 289.552 149.19 z"/>
<path transform="translate(0,0)" fill="rgb(253,253,253)" d="M 653.032 516.208 C 659.859 490.856 662.89 464.664 671.453 439.151 C 676.974 422.705 674.916 405.148 687.912 390.294 C 699.057 377.556 704.339 374.888 720.328 372.841 C 731.499 384.623 736.881 395.929 740.084 411.594 C 736.743 424.103 707.103 475.811 698.091 484.393 C 694.931 484.678 695.502 484.21 692.198 481.73 C 688.822 481.255 687.67 484.736 682.057 487.642 L 677.974 490.48 C 674.786 491.79 674.176 492.458 671.701 494.659 C 669.074 502.37 677.435 503.593 678.057 509.676 C 674.128 515.037 663.879 510.785 653.893 515.77 L 653.032 516.208 z"/>
<path transform="translate(0,0)" fill="rgb(0,0,0)" d="M 706.201 390.145 C 712.174 389.69 721.215 388.45 725.364 394.079 C 737.441 411.093 720.684 429.916 712.638 444.082 C 703.773 459.691 691.945 468.635 678.987 480.556 C 675.695 483.254 673.375 485.515 668.824 484.757 C 658.275 474.881 684.131 446.851 682.527 434.927 C 681.954 430.667 678.524 427.195 675.816 424.041 C 681.85 411.924 693.994 396.539 706.201 390.145 z"/>
<path transform="translate(0,0)" fill="rgb(253,253,253)" d="M 707.099 396.508 C 715.789 397.137 724.594 405.507 718.291 413.331 C 713.336 407.233 706.74 405.384 705.19 399.644 L 707.099 396.508 z"/>
<path transform="translate(0,0)" fill="rgb(253,253,253)" d="M 561.666 263.189 C 560.503 255.363 559.541 249.484 557.681 241.815 C 559.264 238.277 560.012 241.584 564.55 238.987 C 564.825 234.204 560.416 231.532 560.317 228.817 C 559.727 212.784 579.207 164.231 595.63 160.076 C 613.047 155.669 642.898 158.685 663.134 155.672 C 619.314 173.521 610.62 202.358 609.577 247.606 C 608.629 249.145 607.454 251.274 606.22 252.518 C 599.739 256.716 592.845 260.868 586.265 264.964 C 579.617 260.889 575.103 252.541 570.03 252.948 C 566.472 255.42 564.115 259.549 561.666 263.189 z"/>
<path transform="translate(0,0)" fill="rgb(253,253,253)" d="M 300.791 199.728 L 306.949 199.828 C 308.176 201.37 308.145 200.887 308.399 202.601 C 307.805 213.661 313.818 254.823 315.889 267.201 C 312.302 268.159 310.446 268.816 306.709 268.734 C 299.421 261.537 299.972 217.944 292.602 208.675 C 289.485 207.297 290.693 207.312 287.938 208.187 C 285.178 216.052 292.503 262.265 295.887 271.166 C 293.608 271.647 283.253 274.102 281.649 272.66 C 270.768 262.879 278.926 221.556 266.999 214.545 C 264.355 214.613 263.648 214.468 261.657 216.13 C 257.436 225.685 269.068 262.086 269.078 273.344 C 267.22 276.644 266.246 277.042 262.896 276.221 C 255.544 270.197 246.497 229.579 243.254 217.808 C 259.852 208.869 282.127 202.512 300.791 199.728 z"/>
<path transform="translate(0,0)" fill="rgb(253,253,253)" d="M 355.055 598.42 C 359.202 597.634 369.467 598.649 373.479 600.126 L 373.591 601.316 C 369.374 605.582 332.105 613.518 324.24 615.37 L 251.596 632.811 C 248.498 633.576 242.993 634.784 240.052 633.267 C 234.942 630.629 232.438 625.262 235.199 619.791 C 243.93 616.731 262.622 615.751 272.826 613.547 C 301.065 607.449 326.315 601.463 355.055 598.42 z"/>
<path transform="translate(0,0)" fill="rgb(253,253,253)" d="M 502.275 422.162 C 515.894 420.253 508.9 431.507 516.434 436.283 C 524.805 441.591 547.583 427.519 554.746 432.629 L 554.59 434.914 C 552.021 438.868 550.161 440.171 546.508 443.226 C 522.128 456.528 507.889 442.718 489.186 428.559 C 493.372 426.692 498.106 424.212 502.275 422.162 z"/>
<path transform="translate(0,0)" fill="rgb(253,253,253)" d="M 728.259 241.047 C 735.229 239.166 740.263 236.755 746.777 240.067 L 747.319 240.346 C 755.15 244.308 756.166 249.763 763.187 253.281 C 764.708 254.044 765.408 254.486 766.839 255.38 L 765.426 256.732 L 764.932 256.421 C 763.163 255.321 762.923 255.125 760.974 254.538 C 759.124 256.359 759.677 255.536 759.331 258.628 C 757.167 262.319 752.901 265.711 748.712 265.737 C 734.12 265.827 729.432 251.431 728.259 241.047 z"/>
<path transform="translate(0,0)" fill="#ffffff" d="M 300.791 199.728 C 314.917 197.483 338.483 194.512 352.637 194.635 L 353.638 195.772 C 348.111 199.19 329.013 195.866 324.518 203.471 C 325.201 208.877 332.358 264.112 332.185 264.565 C 318.476 262.833 324.471 202.745 318.189 201.498 C 314.61 204.517 312.434 204.259 308.399 202.601 C 308.145 200.887 308.176 201.37 306.949 199.828 L 300.791 199.728 z"/>
<path transform="translate(0,0)" fill="rgb(253,253,253)" d="M 254.748 170.874 C 256.031 172.642 258.12 196.116 258.602 200.489 C 254.568 200.984 249.896 201.875 245.83 202.543 C 244.006 202.492 243.971 202.276 242.505 201.241 C 241.162 195.9 241.518 183.272 241.439 177.107 C 246.475 175.125 249.992 173.327 254.748 170.874 z"/>
<path transform="translate(0,0)" fill="rgb(253,253,253)" d="M 391.568 313.908 C 396.519 313.712 401.992 318.015 403.528 322.782 C 402.724 331.168 399.448 332.516 393.002 338.349 C 389.126 337.776 382.954 334.488 381.45 330.911 C 377.232 320.875 384.794 317 391.568 313.908 z"/>
<path transform="translate(0,0)" fill="rgb(253,253,253)" d="M 268.509 171.216 C 272.777 170.988 275.411 171.004 279.684 171.248 C 283.669 174.153 283.41 191.999 280.779 195.975 C 276.115 196.843 274.155 197.356 269.478 196.955 C 265.662 193.611 265.875 174.864 268.509 171.216 z"/>
<path transform="translate(0,0)" fill="rgb(253,253,253)" d="M 300.844 164.274 L 303.44 164.125 C 306.363 166.836 307.813 183.351 308.429 188.243 L 300.745 190.528 C 297.919 191.271 296.043 192.14 293.412 191.12 C 290.011 186.816 291.852 173.582 291.817 166.462 L 300.844 164.274 z"/>
<path transform="translate(0,0)" fill="rgb(253,253,253)" d="M 359.165 364.065 C 365.606 366.114 378.018 369.487 373.868 378.765 C 371.179 381.361 368.563 381.369 364.836 381.939 C 360.146 382.683 354.584 383.262 349.811 383.868 C 350.627 373.457 349.408 369.727 359.165 364.065 z"/>
<path transform="translate(0,0)" fill="rgb(253,253,253)" d="M 331.928 363.878 L 333.999 364.089 C 340.478 368.372 346.951 374.557 341.907 382.445 C 337.77 384.235 336.918 383.305 331.92 382.627 C 325.642 382.098 320.939 382.619 320.187 375.412 C 322.808 368.094 325.086 367.48 331.928 363.878 z"/>
<path transform="translate(0,0)" fill="rgb(253,253,253)" d="M 371.325 340.024 C 380.61 339.945 381.76 341.043 389.327 346.151 C 385.81 349.044 380.758 352.263 376.903 354.878 C 375.155 356.23 373.351 357.414 371.522 358.652 C 368.111 358.412 369.345 358.973 366.909 356.529 C 365.019 350.613 366.494 344.067 371.325 340.024 z"/>
<path transform="translate(0,0)" fill="rgb(253,253,253)" d="M 572.112 262.755 C 583.01 263.834 587.289 282.061 578.682 287.492 C 573.963 280.765 566.617 275.984 566.055 268.181 C 567.792 264.433 567.892 265.277 572.112 262.755 z"/>
<path transform="translate(0,0)" fill="rgb(253,253,253)" d="M 315.255 160.219 C 318.053 160.021 318.625 159.977 321.36 160.546 C 325.333 165.471 323.889 180.69 323.757 187.568 C 321.562 187.267 320.891 187.044 318.772 186.354 C 314.25 180.171 314.238 167.524 315.255 160.219 z"/>
<path transform="translate(0,0)" fill="rgb(253,253,253)" d="M 599.954 262.8 C 604.8 263.644 612.199 267.265 613.112 272.575 L 611.973 274.028 C 609.584 273.908 608.095 273.704 605.815 274.657 C 604.534 274.985 603.25 275.293 601.96 275.583 C 597.704 276.528 596.451 276.821 592.671 274.387 C 589.57 267.937 595.009 265.531 599.954 262.8 z"/>
<path transform="translate(0,0)" fill="rgb(253,253,253)" d="M 606.22 252.518 C 607.454 251.274 608.629 249.145 609.577 247.606 C 616.383 248.172 620.38 251.648 621.26 258.724 C 620.091 262.432 620.947 261.353 618.309 263.44 C 612.079 263.281 608.17 258.036 606.22 252.518 z"/>
<path transform="translate(0,0)" fill="#ffffff" d="M 301.013 363.817 C 306.209 365.688 314.044 369.885 313.773 376.063 L 312.448 376.775 L 309.736 375.843 C 305.159 374.488 295.673 372.821 293.851 368.46 C 296.263 365.15 296.715 365.738 301.013 363.817 z"/>
<path transform="translate(0,0)" fill="#ffffff" d="M 759.331 258.628 C 759.677 255.536 759.124 256.359 760.974 254.538 C 762.923 255.125 763.163 255.321 764.932 256.421 L 765.426 256.732 L 766.839 255.38 C 776.016 259.552 783.661 264.645 789.39 273.14 C 780.686 268.522 765.5 262.139 759.331 258.628 z"/>
<path transform="translate(0,0)" fill="#ffffff" d="M 380.946 368.248 L 383.319 368.236 C 387.559 368.225 396.166 367.527 399.033 370.378 C 397.104 373.175 395.85 373.031 392.259 374.694 C 387.559 376.407 383.948 378.56 379.674 376.764 C 378.81 372.846 379.611 372.649 380.946 368.248 z"/>
<path transform="translate(0,0)" fill="#ffffff" d="M 496.921 89.8501 C 511.08 88.2149 516.456 83.6436 528.522 80.1697 C 521.614 85.3403 515.547 90.0305 507.22 92.7139 C 504.226 89.9365 501.06 90.1927 496.921 89.8501 z"/>
<path transform="translate(0,0)" fill="#ffffff" d="M 677.974 490.48 L 682.057 487.642 C 685.851 489.909 689.902 491.837 690.202 496.735 C 685.694 499.602 681.007 493.853 677.974 490.48 z"/>
<path transform="translate(0,0)" fill="#ffffff" d="M 396.172 303.495 C 401.636 304.298 407.328 308.778 408.693 314.241 C 400.791 313.932 396.197 311.874 396.172 303.495 z"/>
<path transform="translate(0,0)" fill="rgb(253,253,253)" d="M 413.161 316.645 C 415.339 315.545 417.996 316.281 419.297 318.346 C 420.598 320.41 420.115 323.125 418.182 324.615 C 416.759 325.711 414.837 325.907 413.222 325.12 C 411.607 324.333 410.577 322.698 410.564 320.902 C 410.551 319.105 411.557 317.456 413.161 316.645 z"/>
<path transform="translate(0,0)" fill="#ffffff" d="M 594.514 297.407 C 590.599 295.521 585.727 294.064 584.606 289.685 L 586.487 289.094 C 593.406 290.288 594.822 290.984 599.239 296.391 L 594.514 297.407 z"/>
<path transform="translate(0,0)" fill="#ffffff" fill-opacity="0.984314" d="M 176.026 333.168 C 181.129 332.437 189.305 330.976 194.206 331.234 C 197.626 333.124 201.541 333.051 205.335 333.902 C 195.008 334.253 186.287 334.611 176.026 333.168 z"/>
<path transform="translate(0,0)" fill="#fdfdfd" fill-opacity="0.988235" d="M 599.239 296.391 C 603.913 296.557 608.549 298.677 612.001 301.764 C 607.096 303.729 600.91 297.228 594.514 297.407 L 599.239 296.391 z"/>
</svg>
