<svg version="1.1" xmlns="http://www.w3.org/2000/svg" style="display: block;" viewBox="0 0 1024 1024" width="256" height="256" preserveAspectRatio="none">
<path transform="translate(0,0)" fill="rgb(0,0,0)" d="M 216.164 584.88 C 221.333 573.745 235.731 545.305 238.375 535.751 C 244.998 511.81 262.019 449.763 252.683 427.241 C 239.812 396.192 238.621 399.135 243.636 362.164 C 248.94 323.071 255.654 283.616 271.88 246.908 C 283.582 220.443 302.697 201.798 321.572 180.986 C 339.913 160.762 356.989 147.003 378.034 130.147 C 397.929 114.211 405.314 104.68 430.927 96.8282 C 447.925 91.6178 464.305 86.6615 482.104 83.8265 C 536.48 71.2607 576.966 75.087 630.01 91.6843 C 642.442 95.5744 664.798 98.9105 676.439 105.344 C 691.42 113.92 713.078 122.474 726.981 132.065 C 755.071 151.443 788.574 186.388 799.203 219.759 C 808.344 248.46 811.23 287.472 819.019 317.384 C 822.958 332.514 827.419 347.102 831.67 362.123 C 839.953 397.811 847.549 432.103 858.302 467.258 C 862.842 482.102 863.633 511.53 864.031 527.47 C 859.475 554.884 836.144 588.211 832.563 617.389 C 832.196 620.38 835.675 628.344 835.973 631.459 C 835.913 635.042 836.28 640.405 834.517 643.253 C 831.04 644.501 825.047 641 818.744 642.235 C 815.651 640.006 814.746 639.651 811.334 640.632 C 799.95 651.644 793.383 662.545 791.247 678.793 C 788.39 700.531 810.969 735.648 824.553 752.25 C 808.375 747.243 795.771 748.876 779.784 742.458 C 784.498 756.088 791.224 777.857 795.184 791.573 C 814.751 806.978 822.497 816.108 839.07 833.214 C 866.916 861.956 895.919 891.408 923.974 919.652 C 956.877 952.778 977.653 962.666 976.701 1014.75 C 959.349 1015.89 936.165 1014.9 918.214 1014.71 L 785.09 1012.32 L 349.256 1007.39 C 315.875 1007.24 282.495 1006.82 249.12 1006.15 C 238.781 1005.9 209.971 1003.51 201.34 1005.42 L 200.834 1004.08 C 203.7 996.843 225.992 977.11 233.475 968.89 C 232.465 955.617 229.953 941.529 229.081 928.12 C 227.978 911.174 228.664 893.618 230.359 876.731 C 236.593 871.342 244.871 864.496 248.911 857.783 C 259.705 839.85 261.294 825.803 278.905 812.37 C 304.622 792.754 315.29 785.243 347.695 780.496 C 355.868 779.299 363.092 776.103 373.591 775.85 C 383.496 775.183 397.906 781.017 406.876 776.06 C 419.659 768.995 408.189 750 397.844 747.657 C 390.617 746.021 378.321 756.685 372.02 760.54 C 359.662 768.101 353.809 765.969 340.36 765.189 C 336.596 765.068 335.991 767.224 332.041 766.264 C 327.788 756.039 351.685 738.136 348.135 721.451 C 344.729 705.435 334.243 698.843 326.798 684.591 C 324.012 679.258 321.737 667.415 317.878 664.355 C 312.961 665.925 314.059 672.335 309.314 674.365 C 304.811 671.932 299.554 653.665 296.292 648.19 C 294.042 644.412 292.465 642.219 289.727 638.69 C 292.083 650.444 291.716 661.841 292.487 673.786 C 293.567 690.505 297.804 706.122 303.916 721.652 C 287.264 708.43 266.734 696.793 252.846 682.028 C 227.548 655.133 236.659 618.106 239.017 585.305 C 239.228 582.365 239.154 580.834 237.328 578.802 L 235.309 580.545 C 221.334 582.091 223.466 590.483 216.615 590.319 C 216.43 588.466 216.257 586.741 216.164 584.88 z M 781.587 300.353 C 784.437 296.082 783.266 284.769 782.675 279.564 L 781.495 277.82 C 780.128 284.943 779.187 290.672 779.725 298.051 L 781.587 300.353 z"/>
<path transform="translate(0,0)" fill="rgb(253,253,253)" d="M 521.661 361.556 L 524.534 361.292 C 521.479 367.485 507.268 365.28 504.082 371.649 C 506.017 374.239 509.132 372.849 511.201 375.292 C 507.995 379.816 498.165 381.568 495.154 386.984 C 493.295 390.327 488.757 396.37 492.146 399.66 C 495.459 399.023 500.038 393.915 506.042 390.966 C 504.432 398.367 494.723 421.121 500.647 424.908 L 502.729 424.053 C 519.34 404.921 500.629 396.933 536.9 382.706 C 531.514 391.117 527.461 398.547 528.88 408.743 C 529.846 415.685 529.778 423.976 535.047 429.018 C 549.829 436.244 592.711 416.786 602.418 403.62 C 601.871 399.416 600.333 403.213 598.103 399.094 C 599.734 395.239 609.122 382.187 612.334 377.02 C 622.196 399.486 621.998 403.865 618.087 428.247 C 613.634 456.012 604.666 471.68 585.148 491.984 C 596.362 487.454 601.179 486.678 613.301 484.822 C 611.993 509.194 606.285 525.996 596.879 547.814 C 605.993 541.617 642.704 527.105 655.268 521.731 C 653.316 542.987 650.085 572.927 640.934 592.772 C 638.336 598.405 626.117 607.803 624.664 613.847 C 627.353 614.487 640.896 611.133 644.673 610.37 L 645.236 623.921 C 623.206 639.767 604.24 648.593 582.05 662.631 C 559.805 677.371 537.494 691.903 514.413 705.333 C 495.339 716.431 485.53 726.489 462.608 726.111 C 453.644 725.124 448.391 724.491 439.704 722.326 C 435.213 717.8 413.474 681.257 406.396 670.777 C 389.731 646.1 364.205 621.191 351.673 596.255 C 343.274 579.542 334.966 544.322 330.041 525.235 C 338.573 533.944 348.67 541.73 358.56 548.823 C 356.002 541.63 350.531 536.058 347.245 528.235 L 347.876 526.793 C 350.874 527.06 353.505 527.415 356.475 527.842 L 357.701 526.759 C 356.755 522.181 351.308 517.402 347.619 514.76 C 345.754 499.796 342.516 490.787 338.242 477.086 L 339.326 476.521 C 343.889 479.761 348.285 482.534 353.005 485.514 L 339.911 463.732 C 341.38 457.707 342.126 451.378 342.993 445.224 C 348.314 459.843 353.145 457.437 360.787 469.82 C 361.458 470.907 358.953 475.734 359.476 479.451 C 361.274 479.265 377.536 472.138 381.8 470.626 C 387.98 477.908 398.985 488.677 405.859 495.894 C 404.875 484.892 405.922 469.399 406.352 458.057 C 414.868 469.287 432.008 475.66 444.927 481.734 C 434.772 469.171 430.21 466.141 422.408 450.657 C 432.739 458.74 444.389 463.662 454.875 471.088 C 463.147 476.945 470.937 488.163 477.153 496.465 C 474.071 487.836 473.551 478.925 471.537 470.076 C 470.056 463.569 468.139 457.193 466.591 450.609 L 467.437 449.603 L 471.517 452.936 C 472.682 450.947 466.57 429.948 465.806 424.981 C 464.133 414.099 463.926 409.337 464.281 398.264 C 469.213 405.218 479.949 422.588 489.477 420.864 L 489.574 419.361 C 480.446 407.617 479.128 397.957 475.802 384.054 C 476.618 383.147 477.439 382.245 478.265 381.347 C 493.691 364.584 499.498 362.486 521.661 361.556 z"/>
<path transform="translate(0,0)" fill="rgb(0,0,0)" d="M 403.37 511.64 C 408.878 528.855 393.686 544.624 407.487 568.474 C 411.951 570.53 416.019 572.106 419.706 575.397 C 420.244 577.052 415.141 590.752 414.306 591.827 L 411.745 591.57 C 405.256 588.064 399.852 585.029 392.525 583.859 C 389.254 574.062 387.72 568.605 390.189 558.108 C 393.89 542.375 400.405 527.565 403.37 511.64 z"/>
<path transform="translate(0,0)" fill="rgb(0,0,0)" d="M 500.933 605.521 C 503.48 605.372 507.135 604.721 509.023 605.996 C 506.401 607.81 494.863 609.134 490.67 610.436 C 456.894 620.928 453.596 623.321 418.752 620.955 C 414.875 620.343 415.528 621.014 412.931 618.713 L 413.886 617.187 C 437.246 605.907 441.716 604.978 468.17 606.875 C 475.62 607.41 492.743 606.224 500.933 605.521 z"/>
<path transform="translate(0,0)" fill="rgb(0,0,0)" d="M 457.085 641.371 C 462.359 640.103 465.519 640.507 468.229 645.139 C 468.765 654.772 458.129 666.041 448.326 666.479 C 442.478 663.667 429.746 655.729 436.324 648.034 C 441.133 642.408 450.197 642.202 457.085 641.371 z"/>
<path transform="translate(0,0)" fill="rgb(0,0,0)" d="M 432.011 562.228 C 437.347 564.471 441.798 565.334 447.428 566.783 L 448.053 568.411 L 446.487 570.175 C 443.07 571.58 436.948 573.256 433.235 574.398 L 432.011 562.228 z"/>
<path transform="translate(0,0)" fill="rgb(253,253,253)" d="M 641.031 175.714 C 646.656 179.812 653.042 199.152 671.84 211.992 C 670.138 216.296 668.214 220.343 668.026 224.966 C 670.377 227.332 671.584 223.069 677.572 223.891 C 681.506 226.374 685.333 233.931 687.94 238.322 C 685.464 241.041 678.571 248.031 679.106 251.423 C 697.107 247.951 699.68 251.616 699.149 269.44 C 692.647 272.479 686.474 275.873 689.616 284.041 C 694.228 283.158 696.91 274.739 705.898 276.572 C 716.564 278.747 716.35 294.153 720.349 298.8 C 735.877 316.843 744.496 340.361 757.985 359.391 C 757.905 365.765 758.172 369.539 758.8 375.851 C 763.931 379.25 768.985 382.763 773.96 386.387 C 773.776 401.223 768.525 398.831 765.158 411.434 C 762.683 420.697 761.874 434.457 760.773 444.31 C 756.375 433.504 754.79 420.632 750.71 409.434 C 745.263 394.483 735.043 381.676 732.954 365.781 C 729.722 380.695 725.867 398.242 724.498 413.404 C 721.325 414.308 711.21 386.073 709.714 382.424 C 700.251 359.335 695.189 345.064 676.119 328.292 C 678.426 361.195 673.962 368.606 662.347 396.729 C 662.84 390.262 664.796 381.823 664.432 375.605 C 663.094 352.757 652.287 327.038 644.794 305.691 C 639.384 305.656 633.539 305.284 628.101 305.046 C 626.135 277.417 622.044 255.189 618.532 227.952 C 637.256 242.828 643.673 268.56 652.401 291.387 C 652.316 278.581 652.011 263.565 650.155 250.898 C 646.583 226.508 640.7 200.533 641.031 175.714 z"/>
<path transform="translate(0,0)" fill="rgb(253,253,253)" d="M 397.97 144.994 L 398.881 146.369 C 397.62 150.504 372.796 180.739 368.27 187.571 C 367.976 191.688 368.109 197.016 368.094 201.235 C 363.458 204.016 353.694 208.915 353.169 214.5 C 354.986 218.044 355.979 217.855 359.759 220.398 C 362.392 219.498 359.357 212.918 365.228 207.638 C 373.916 204.192 382.93 216.527 387.244 222.55 C 389.49 214.643 393.44 206.542 403.109 206.547 C 411.958 211.674 401.34 226.671 397.963 232.627 C 391.905 229.077 391.685 227.382 387.081 224.536 L 384.884 225.399 C 383.158 227.896 382.063 228.961 382.369 232.033 C 384.813 234.777 390.25 235.578 394.44 236.878 C 392.8 242.459 390.335 253.185 386.395 256.737 C 381.02 261.582 380.263 254.784 373.633 254.409 C 371.65 256.052 372.061 255.265 371.341 257.504 C 378.357 263.21 388.452 268.831 379.778 280.589 C 376.879 284.52 366.259 283.29 361.444 283.294 L 360.307 284.444 C 366.293 294.845 367.412 288.525 368.222 303.018 C 367.195 304.136 366.122 305.209 365.004 306.236 C 359.842 310.97 355.798 310.1 348.918 309.836 C 346.463 316.652 341.527 330.03 338.145 335.904 C 338.256 335.954 331.675 330.351 330.914 329.373 C 325.612 322.563 333.922 313.867 337.413 311.065 C 334.614 309.6 322.555 309.222 318.387 308.882 C 323.086 316.435 325.136 323.198 322.045 332.709 C 321.355 334.834 319.146 334.974 317.19 335.345 C 313.618 332.404 309.766 329.554 306.075 326.743 C 304.177 337.428 296.135 350.061 292.984 360.727 C 288.892 374.578 285.881 389.035 282.3 403.103 C 277.036 372.645 274.89 369.358 279.994 339.309 C 286.571 293.643 300.842 259.971 323.548 220.594 C 347.287 179.425 359.843 171.68 397.97 144.994 z"/>
<path transform="translate(0,0)" fill="rgb(253,253,253)" d="M 701.542 432.338 C 715.019 436.653 724.624 468.436 727.89 480.562 C 721.754 493.689 708.381 518.323 697.441 527.161 C 692.259 531.243 686.15 534.885 680.544 538.427 C 681.448 527.132 680.161 510.258 683.069 499.622 C 690.564 472.208 700.021 461.862 701.542 432.338 z"/>
<path transform="translate(0,0)" fill="rgb(253,253,253)" d="M 597.618 672.897 C 604.205 675.004 610.777 677.161 617.331 679.369 C 581.009 699.508 552.586 712.594 514.125 729.144 C 508.926 738.944 503.549 763.668 499.097 776.707 C 498.326 779.344 498.086 781.529 495.981 783.063 C 493.677 780.903 486.955 738.04 486.587 732.064 C 516.331 723.479 567.618 686.244 597.618 672.897 z"/>
<path transform="translate(0,0)" fill="rgb(253,253,253)" d="M 478.901 319.771 C 493.591 338.043 493.252 338.458 510.846 353.326 C 508.191 354.767 504.855 354.854 501.763 355.22 C 490.659 356.454 484.35 358.113 474.745 363.354 C 474.79 348.73 476.181 334.14 478.901 319.771 z"/>
<path transform="translate(0,0)" fill="rgb(253,253,253)" d="M 776.004 352.812 C 789.694 352.267 794.516 372.186 778.628 377.893 C 777.844 377.706 777.064 377.508 776.286 377.297 C 758.717 372.525 760.915 360.405 776.004 352.812 z"/>
<path transform="translate(0,0)" fill="rgb(253,253,253)" d="M 756.475 329.307 C 762.921 328.751 768.467 328.134 772.418 334.674 C 776.521 341.466 772.954 347.752 766.843 351.603 C 755.308 354.4 749.396 348.324 750.796 335.901 C 751.219 332.154 753.476 331.177 756.475 329.307 z"/>
<path transform="translate(0,0)" fill="rgb(253,253,253)" d="M 727.923 277.967 C 731.878 276.195 736.487 276.743 739.916 279.394 C 743.344 282.044 745.036 286.366 744.317 290.64 C 743.599 294.913 740.586 298.445 736.479 299.828 C 730.537 301.829 724.071 298.813 721.786 292.974 C 719.501 287.135 722.202 280.531 727.923 277.967 z"/>
<path transform="translate(0,0)" fill="rgb(253,253,253)" d="M 744.825 301.781 C 748.648 301.066 753.536 304.278 757.02 306.145 C 757.616 310.001 757.854 314.586 758.159 318.527 C 754.02 322.565 752.56 323.627 747.654 326.717 C 736.319 326.413 728.443 309.772 744.825 301.781 z"/>
<path transform="translate(0,0)" fill="rgb(253,253,253)" d="M 370.794 309.999 C 386.294 315.485 386.909 328.648 371.679 336.699 C 364.488 336.187 357.98 323.459 361.473 316.976 C 363.917 312.441 366.556 311.99 370.794 309.999 z"/>
<path transform="translate(0,0)" fill="rgb(253,253,253)" d="M 771.587 303.15 C 785.104 301.981 785.455 304.18 789.015 316.069 C 786.475 319.791 784.397 323.096 781.187 326.306 C 767.164 325.702 757.724 313.586 771.587 303.15 z"/>
<path transform="translate(0,0)" fill="rgb(253,253,253)" d="M 718.964 249.993 C 729.751 250.297 736.116 268.501 717.504 274.491 C 701.93 269.739 702.952 254.597 718.964 249.993 z"/>
<path transform="translate(0,0)" fill="rgb(253,253,253)" d="M 760.48 277.243 C 767.101 277.513 771.553 279.635 773.694 286.354 C 774.598 289.275 774.222 292.443 772.658 295.072 C 770.65 298.391 769.299 297.9 765.427 298.75 C 752.522 299.186 746.865 293.256 752.896 280.013 C 754.004 277.58 757.889 277.644 760.48 277.243 z"/>
<path transform="translate(0,0)" fill="rgb(253,253,253)" d="M 759.141 223.631 C 765.591 224.313 770.52 237.182 773.048 242.418 C 770.336 244.944 767.182 247.569 764.36 250.024 C 747.126 247.131 748.054 233.472 759.141 223.631 z"/>
<path transform="translate(0,0)" fill="rgb(253,253,253)" d="M 390.761 185.408 C 405.549 191.502 396.602 204.693 385.313 207.456 C 382.376 208.175 381.406 206.709 379.352 205.001 C 378.844 204.585 378.34 204.164 377.84 203.738 C 372.895 199.512 370.824 191.858 375.193 186.798 C 380.755 187.617 383.587 194.072 387.709 193.534 L 390.761 185.408 z"/>
<path transform="translate(0,0)" fill="rgb(253,253,253)" d="M 700.141 224.195 C 711.65 229.072 722.157 239.952 706.927 248.828 C 705.531 249.255 703.939 249.43 702.468 249.66 C 698.945 248.698 696.416 245.243 693.9 242.458 C 697.751 235.94 698.736 231.37 700.141 224.195 z"/>
<path transform="translate(0,0)" fill="rgb(253,253,253)" d="M 790.985 328.081 L 792.338 328.585 C 795.868 335.659 797.651 346.503 791.523 352.519 L 787.871 352.357 C 773.078 345.929 774.639 332.862 790.985 328.081 z"/>
<path transform="translate(0,0)" fill="rgb(253,253,253)" d="M 412.274 183.095 L 417.678 182.85 C 424.888 186.812 415.796 200.064 412.913 206.351 C 410.345 204.658 406.209 202.896 403.302 201.56 C 404.257 192.109 402.808 186.821 412.274 183.095 z"/>
<path transform="translate(0,0)" fill="rgb(253,253,253)" d="M 775.348 249.726 C 777.403 251.89 782.08 268.453 782.298 272.373 C 779.807 273.756 775.577 273.029 772.315 272.897 C 758.564 266.697 765.741 255.635 775.348 249.726 z"/>
<path transform="translate(0,0)" fill="rgb(253,253,253)" d="M 333.786 422.185 C 342.328 421.579 349.172 422.183 357.638 423.085 C 345.845 426.263 334.902 425.264 330.402 439.298 C 330.057 442.576 330.009 445.701 327.821 447.641 C 325.035 445.383 322.024 436.777 320.451 433.018 C 325.887 427.517 327.382 426.411 333.786 422.185 z"/>
<path transform="translate(0,0)" fill="rgb(253,253,253)" d="M 386.139 285.985 L 388.195 286.739 C 389.994 291.156 386.837 304.103 384.758 308.571 C 384.021 310.156 381.264 309.896 379.715 310.002 C 368.607 297.423 373.043 291.916 386.139 285.985 z"/>
<path transform="translate(0,0)" fill="rgb(253,253,253)" d="M 777.831 405.389 C 790.487 404.677 783.625 425.604 781.895 426.766 L 780.153 425.514 C 776.713 421.098 768.755 412.874 769.839 407.455 C 772.838 404.888 772.969 405.708 777.831 405.389 z"/>
<path transform="translate(0,0)" fill="rgb(253,253,253)" d="M 742.774 198.596 C 747.198 200.653 756.383 207.942 757.467 213.049 C 758.015 215.626 756.351 217.825 755.033 219.869 C 753.442 221.334 752.637 221.839 750.82 223.033 L 748.525 222.545 C 744.004 218.551 743.527 205.114 742.774 198.596 z"/>
<path transform="translate(0,0)" fill="rgb(253,253,253)" d="M 549.754 355.3 C 554.116 355.393 559.174 355.141 563.591 355.031 C 566.043 358.553 569.797 363.35 569.685 367.581 C 561.403 366.665 549.177 365.655 549.754 355.3 z"/>
<path transform="translate(0,0)" fill="rgb(253,253,253)" d="M 786.679 378.546 C 787.511 379.205 787.742 379.715 788.389 380.624 C 788.466 385.521 788.422 398.497 786.429 402.565 L 785.548 401.63 C 773.188 393.514 779.683 387.727 786.679 378.546 z"/>
<path transform="translate(0,0)" fill="rgb(253,253,253)" d="M 408.304 161.556 C 414.021 172.446 409.44 181.562 396.268 181.321 L 395.692 179.283 C 400.296 173.185 404.189 167.981 408.304 161.556 z"/>
<path transform="translate(0,0)" fill="rgb(253,253,253)" d="M 332.059 336.244 C 333.473 336.515 333.898 336.796 335.19 337.396 C 335.269 341.013 335.734 348.918 333.66 351.416 L 331.494 350.842 C 327.303 347.698 322.404 344.991 322.958 339.526 C 325.167 336.81 328.475 336.81 332.059 336.244 z"/>
<path transform="translate(0,0)" fill="rgb(253,253,253)" d="M 751.345 272.936 C 740.93 279.034 732.316 265.237 738.555 259.049 C 743.854 264.104 743.903 265.414 750.842 267.108 C 749.748 269.879 750.288 269.598 751.345 272.936 z"/>
<path transform="translate(0,0)" fill="rgb(253,253,253)" d="M 381.944 337.903 L 383.132 339.99 C 383.265 344.474 383.981 356.879 381.491 360.219 L 380.251 358.338 C 371.735 347.524 372.178 346.457 381.944 337.903 z"/>
<path transform="translate(0,0)" fill="rgb(253,253,253)" d="M 750.842 267.108 C 750.441 262.448 749.432 257.017 751.316 252.892 L 752.883 251.4 C 758.774 253.266 760.788 268.436 751.345 272.936 C 750.288 269.598 749.748 269.879 750.842 267.108 z"/>
<path transform="translate(0,0)" fill="rgb(253,253,253)" d="M 331.816 394.773 C 336.64 397.847 341.434 403.809 341.613 409.78 C 338.22 410.166 335.13 411.036 332.41 409.377 C 330.701 405.636 331.824 399.925 331.816 394.773 z"/>
<path transform="translate(0,0)" fill="rgb(253,253,253)" d="M 391.176 262.517 L 393.05 264.537 C 394.973 271.062 394.07 274.429 392.42 281.045 L 390.452 279.709 C 388.656 273.097 389.57 269.169 391.176 262.517 z"/>
<path transform="translate(0,0)" fill="rgb(253,253,253)" fill-opacity="0.980392" d="M 781.495 277.82 L 782.675 279.564 C 783.266 284.769 784.437 296.082 781.587 300.353 L 779.725 298.051 C 779.187 290.672 780.128 284.943 781.495 277.82 z"/>
<path transform="translate(0,0)" fill="rgb(0,0,0)" fill-opacity="0.905882" d="M 835.973 631.459 L 836.086 631.876 C 839.136 642.85 851.526 649.408 850.169 655.286 C 843.79 656.561 824.408 645.594 818.744 642.235 C 825.047 641 831.04 644.501 834.517 643.253 C 836.28 640.405 835.913 635.042 835.973 631.459 z"/>
<path transform="translate(0,0)" fill="rgb(0,0,0)" fill-opacity="0.878431" d="M 216.164 584.88 C 216.257 586.741 216.43 588.466 216.615 590.319 C 223.466 590.483 221.334 582.091 235.309 580.545 C 230.638 584.509 209.368 603.377 206.01 605.768 C 208.615 598.977 212.274 591.029 216.164 584.88 z"/>
</svg>