<svg xmlns="http://www.w3.org/2000/svg" version="1.1" style="display: block;" viewBox="0 0 1024 1024" width="256" height="256" preserveAspectRatio="none">
<path transform="translate(0,0)" fill="rgb(2,3,2)" d="M 597.851 61.0061 C 598.973 60.7491 599.551 60.912 600.718 61.0065 C 601.549 64.8217 588.86 93.688 586.529 100.919 C 602.949 97.6424 625.88 92.5669 641.944 90.8559 C 655.711 89.3896 682.698 91.3223 697.339 92.2807 C 692.17 99.1901 689.136 105.318 686.353 113.378 C 695.395 111.642 696.877 111.128 704.481 106.482 C 704.291 121.367 703.944 140.188 704.71 154.791 C 722.233 170.354 734.317 180.129 758.434 178.612 C 761.599 178.412 770.486 178.724 773.419 179.914 C 772.869 184.898 765.463 191.128 761.675 194.844 C 768.425 198.151 772.322 201.275 778.352 205.771 C 771.568 209.441 759.603 221.724 755.158 228.052 C 756.719 235.499 765.688 256.781 768.956 265.122 C 777.199 266.559 800.189 267.632 809.986 268.495 C 799.787 274.919 795.392 281.474 786.794 289.734 C 789.579 297.434 798.889 308.914 796.662 314.709 C 793.761 316.803 788.914 315.884 785.134 315.612 C 787.008 333.638 790.177 350.839 792.855 368.73 C 793.303 371.725 793.561 375.023 791.451 377.157 L 763.038 366.312 L 766.754 386.743 C 763.687 392.198 757.569 397.605 752.949 402.116 C 758.563 409.035 771.592 421.601 778.405 428.997 C 772.349 428.152 759.46 425.341 755.32 429.88 C 754.664 434.514 758.948 445.377 760.643 450.499 C 746.952 481.804 757.7 489.593 751.881 518.433 C 749.245 531.494 722.864 560.959 716.983 575.969 C 711.928 588.869 703.415 602.844 699.898 616.789 C 697.215 624.793 693.84 644.715 690.631 651.41 C 681.849 669.734 668.215 700.007 654.454 714.41 C 652.198 716.771 635.864 723.672 632.454 725.192 C 652.87 737.462 674.363 749.136 694.046 762.484 C 714.399 776.286 732.937 793.66 753.909 806.342 C 769.026 815.483 786.494 821.561 802.804 828.327 C 813.783 832.883 827.111 837.05 836.148 844.948 C 843.952 851.768 876.942 891.72 880.282 900.585 C 885.258 913.789 887.885 986.453 889.328 1006.28 L 407.5 1004.12 L 186.231 1004.04 L 118.408 1004.03 C 103.863 1004.01 85.7489 1004.42 71.566 1002.77 C 69.2366 997.768 62.014 987.696 58.5458 982.578 C 50.506 970.893 42.7031 959.047 35.142 947.047 C 40.0149 940.163 46.7968 932.299 52.2768 925.693 C 49.6831 917.259 47.2079 892.831 45.6799 882.863 C 42.4349 862.668 39.315 842.452 36.3202 822.218 C 35.1164 814.171 31.5977 793.964 32.1541 785.584 C 33.933 769.049 39.8432 752.242 43.4978 735.966 C 45.03 729.143 70.0386 726.207 76.5278 724.005 C 100.987 715.703 134.294 711.991 157.581 703.1 C 159.159 698.519 160.772 693.95 162.421 689.394 C 182.631 679.875 205.389 672.198 226.037 663.439 C 235.541 659.407 246.81 655.682 255.661 650.439 C 272.764 640.309 287.126 624.198 303.746 613.347 C 314.837 613.629 327.345 616.76 337.306 614.52 C 341.946 613.476 343.943 609.161 346.043 605.24 C 345.784 597.524 345.652 584.487 344.012 577.356 L 343.805 576.472 C 341.027 564.332 333.492 554.323 330.849 542.271 C 331.887 539.186 333.951 534.702 335.267 531.59 C 329.863 525.731 319.417 514.079 314.301 511.859 C 294.411 503.229 292 508.207 297.4 485.938 C 298.319 482.151 278.938 470.191 273.522 466.385 C 273.172 439.417 280.01 444.649 257.46 434.206 C 252.88 432.085 264.386 414.36 264.111 407.024 C 263.224 383.415 256.275 367.197 240.761 349.616 C 241.595 341.036 246.281 325.828 248.928 317.116 C 242.585 308.287 236.162 305.469 226.812 300.41 C 234.816 299.433 242.785 298.859 250.973 297.805 C 258.465 286.501 267.12 278.106 271.899 265.277 C 268.704 256.802 256.323 237.378 251.104 226.605 C 263.879 225.285 284.805 222.299 297.098 219.469 C 309.757 195.52 311.219 194.384 336.705 184.804 C 337.028 174.348 335.567 167.404 338.558 156.578 C 343.597 138.341 366.268 125.911 382.125 117.2 C 382.061 126.187 384.282 137.868 385.846 146.88 C 394.788 132.183 403.037 109.798 418.173 101.392 C 428.617 95.5907 442.757 86.5006 454.031 83.6631 L 464.218 89.1146 C 479.822 76.1648 494.774 70.8939 511.693 60.3719 C 512.083 67.3888 511.973 75.8778 512.067 83.013 C 531.981 81.763 543.515 78.4547 562.312 71.7449 C 573.7 67.6801 586.251 64.9777 597.851 61.0061 z M 725.146 426.936 L 727.42 427.905 C 728.606 422.827 728.753 420.073 729.074 414.967 L 726.778 413.182 C 726.421 416.01 725.14 424.536 725.146 426.936 z"/>
<path transform="translate(0,0)" fill="rgb(254,254,254)" d="M 526.982 238.598 C 554.11 246.867 588.564 268.791 610.43 286.532 C 607.827 276.927 606.668 263.257 605.233 252.935 C 614.056 261.196 626.864 270.672 634.994 278.885 C 649.074 293.11 668.885 315.7 680.501 331.937 C 687.633 325.12 695.835 315.276 702.599 307.733 C 708.485 317.859 708.947 320.12 710.256 331.655 L 727.804 325.537 C 724.795 334.583 724.26 337.504 719.565 345.943 C 724.596 345.171 734.294 344.469 739.236 344.999 C 741.734 348.573 742.108 350.154 741.034 354.252 C 738.913 356.918 736.007 357.501 732.745 358.595 L 732.409 359.865 C 737.641 370.922 731.14 401.886 729.074 414.967 L 726.778 413.182 C 726.421 416.01 725.14 424.536 725.146 426.936 L 727.42 427.905 C 725.305 450.74 729.605 478.446 724.5 501.458 C 711.25 561.186 675.895 615.462 656.733 673.824 C 653.998 682.154 632.021 702.088 622.934 703.243 C 581.945 708.456 541.734 673.313 506.239 656.573 C 471.868 634.526 422.951 608.494 399.335 575.229 C 398.848 574.543 387.159 512.993 385.467 506.918 C 378.357 503.742 370.404 501.749 362.439 497.937 C 330.979 482.882 316.203 463.062 297.197 435.307 C 296.786 420.226 296.789 405.137 297.205 390.057 C 303.832 382.123 307.891 379.164 316.708 373.844 C 329.701 377.488 339.556 378.587 352.816 379.996 C 366.252 398.372 367.486 406.493 374.837 427.246 C 377.15 433.774 386.334 445.904 389.932 452.943 C 394.801 462.47 399.092 471.615 403.473 481.395 C 403.002 478.466 402.557 475.532 402.139 472.595 C 399.691 455.336 398.777 426.842 401.121 409.337 C 404.224 397.754 412.972 385.532 417.264 374.479 C 428.029 346.757 436.17 325.116 454.223 301.041 C 444.801 290.613 436.089 276.493 425.591 266.745 C 435.282 262.924 443.739 259.655 453.868 257.141 C 467.885 261.465 482.954 265.562 495.908 272.276 C 493.235 263.192 491.995 251.805 490.67 242.277 C 510.181 249.02 519.61 253.071 533.605 268.26 C 532.536 255.536 531.419 250.563 526.982 238.598 z"/>
<path transform="translate(0,0)" fill="rgb(2,3,2)" d="M 658.081 391.268 C 669.915 380.728 684.705 365.67 700.939 365.312 C 712.894 365.048 717.557 365.274 729.577 362.042 C 723.092 367.142 700.351 379.751 698.897 383.543 L 700.059 384.775 C 708.587 384.979 719.59 393.374 723.987 400.422 C 726.577 404.573 726.529 408.439 726.778 413.182 C 726.421 416.01 725.14 424.536 725.146 426.936 C 721.617 433.258 713.911 444.324 705.232 442.247 C 705.61 439.568 711.213 435.299 713.15 432.039 C 718.991 422.21 715.765 393.15 698.872 398.948 C 693.947 405.821 713.02 419.54 698.09 430.712 C 694.45 433.435 693.428 438.022 690.594 439.923 C 682.039 436.443 670.165 433.303 666.904 424.177 C 664.703 418.017 668.786 415.132 668.525 411.722 L 666.987 410.987 C 663.247 412.124 659.117 416.159 656 418.801 C 655.905 406.29 657.027 402.997 658.081 391.268 z"/>
<path transform="translate(0,0)" fill="rgb(2,3,2)" d="M 508.228 492.391 C 510.627 495.315 507.84 496.827 510.363 499.187 C 513.778 502.38 519.079 506.112 522.499 509.035 C 540.634 524.538 555.086 532.523 575.693 542.105 C 587.381 547.54 646.291 570.242 651.616 576.32 L 650.386 577.632 C 635.234 579.175 626.794 578.236 611.759 576.853 C 596.399 576.896 570.825 570.531 554.537 567.971 C 523.934 563.161 489.856 567.691 464.89 547.902 C 468.115 540.965 470.045 531.647 473.528 524.346 C 481.195 508.275 491.749 498.639 508.228 492.391 z"/>
<path transform="translate(0,0)" fill="rgb(254,254,254)" d="M 503.432 518.878 C 522.752 518.947 579.455 558.359 595.708 571.435 C 570.306 564.51 557.396 561.902 531.055 557.707 C 516.745 555.747 491.772 553.102 479.263 548.526 L 479.721 546.514 C 481.249 539.899 481.109 536.673 486.849 533.093 C 495.042 532.571 496.541 540.376 498.41 546.692 C 502.229 542.925 509.08 538.098 513.614 534.62 C 519.271 539.667 524.06 542.399 530.496 546.29 C 526.434 540.69 518.994 530.642 512.08 529.517 C 509.647 529.121 506.684 531.125 504.58 532.364 C 501.244 529.104 498.326 527.276 497.244 523.173 C 499.147 520.156 499.627 520.681 503.432 518.878 z"/>
<path transform="translate(0,0)" fill="rgb(2,3,2)" d="M 474.495 350.728 C 498.857 327.115 509.679 321.751 543.873 328.827 C 546.72 328.757 551.193 327.634 553.912 326.724 C 560.917 325.434 564.949 328.208 571.162 330.163 C 600.143 339.282 589 351.466 590.135 372.826 C 583.494 368.739 579.936 365.524 574.129 360.27 C 574.53 371.418 576.663 383.089 568.974 391.371 L 567.159 391.729 C 555.598 381.938 570.829 333.603 518.418 336.005 C 507.143 336.521 498.873 342.236 491.223 350.657 C 489.894 352.12 487.768 354.913 486.531 356.57 C 496.66 350.899 512.752 342.583 524.832 346.591 C 541.481 352.115 537.239 380.31 536.07 393.537 C 535.981 394.727 541.812 396.027 542.706 396.246 L 543.22 397.538 C 537.641 405.106 489.817 387.105 481.806 381.593 C 477.477 378.614 475.357 356.709 474.495 350.728 z"/>
<path transform="translate(0,0)" fill="rgb(254,254,254)" d="M 543.873 328.827 C 546.72 328.757 551.193 327.634 553.912 326.724 C 558.58 331.541 562.147 335.488 566.449 340.633 C 559.176 336.625 551.423 332.147 543.873 328.827 z"/>
<path transform="translate(0,0)" fill="rgb(2,3,2)" d="M 324.552 398.209 C 357.18 403.932 360.328 426.393 368.927 454.06 C 360.514 456.18 356.339 457.747 350.93 464.319 L 350.121 465.961 L 348.855 466.109 C 343.714 455.707 340.311 449.346 334.348 439.423 C 334.329 432.577 334.724 418.83 331.912 412.733 C 326.493 408.337 313.356 411.067 310.451 405.208 C 312.694 401.407 320.454 399.196 324.552 398.209 z"/>
<path transform="translate(0,0)" fill="rgb(2,3,2)" d="M 656.632 473.151 C 681.603 472.653 671.182 483.125 682.725 497.756 C 701.669 521.768 656.517 531.977 638.232 533.342 C 644.562 523.865 653.456 518.568 658.886 509.42 C 663.92 500.938 657.57 483.573 654.688 473.995 L 656.632 473.151 z"/>
<path transform="translate(0,0)" fill="rgb(2,3,2)" d="M 547.529 291.05 C 562.698 294.99 581.526 295.365 593.843 304.019 C 604.331 311.79 611.895 322.877 621.023 332.176 C 624.477 335.694 634.644 342.756 635.335 346.675 C 625.985 347.059 618.861 348.273 608.68 348.382 C 597.273 338.25 591.325 319.516 579.852 308.773 C 570.819 300.315 556.623 298.871 547.529 291.05 z"/>
<path transform="translate(0,0)" fill="rgb(2,3,2)" d="M 614.499 598.374 C 617.832 598.022 620.468 597.432 623.552 598.707 C 627.686 611.362 605.406 616.955 596.451 619.809 C 591.649 620.892 588.182 618.911 586.193 614.659 C 586.152 600.96 604.733 599.46 614.499 598.374 z"/>
<path transform="translate(0,0)" fill="rgb(2,3,2)" d="M 659.961 343.978 L 660.96 345.501 C 660.444 351.242 642.502 369.892 637.725 374.441 C 634.373 372.806 629.998 370.117 626.672 368.208 C 623.342 365.849 619.509 363.096 618.261 359.165 C 619.537 356.019 621.487 355.727 625.335 355.776 C 643.229 356.005 645.067 351.911 659.961 343.978 z"/>
<path transform="translate(0,0)" fill="rgb(2,3,2)" d="M 632.295 502.674 L 632.925 502.715 L 633.617 504.244 C 629.309 513.067 624.044 518.78 613.778 516.46 L 610.211 512.653 C 609.435 509.28 609.25 510.65 610.978 507.529 C 616.503 503.593 625.463 503.357 632.295 502.674 z"/>
<path transform="translate(0,0)" fill="#fefefe" d="M 654.688 473.995 C 653.606 470.088 652.138 466.016 652.693 462.045 L 653.795 462.465 C 655.363 466.628 655.775 468.752 656.632 473.151 L 654.688 473.995 z"/>
<path transform="translate(0,0)" fill="rgb(254,254,254)" d="M 480.628 125.593 C 499.514 116.634 527.082 111.07 548.073 99.5322 L 549.071 100.385 C 548.989 107.059 536.889 122.614 532.257 127.753 C 545.119 126.039 626.731 113.105 631.674 114.697 C 637.202 121.924 627.15 140.048 624.21 147.481 C 623.556 149.134 632.361 155.72 633.571 156.656 C 636.352 171.169 628.095 175.108 644.352 176.227 C 646.79 180.324 650.28 185.421 649.004 190.403 C 647.418 196.603 640.212 199.95 634.254 199.87 C 631.709 198.584 630.347 197.767 629.364 194.906 C 628.326 191.886 628.894 176.649 628.351 176.363 C 622.937 173.509 623.94 180.691 612.883 169.445 C 612.908 165.881 613.481 155.59 611.996 153.144 C 608.775 153.023 609.883 152.603 607.72 154.496 C 606.869 161.479 610.476 165.23 604.482 170.785 C 596.67 178.025 580.903 177.252 581.829 163.511 C 583.074 161.5 583.994 160.036 585.041 157.882 C 583.56 155.402 581.132 154.062 578.732 152.451 L 577.287 152.954 C 577.27 156.944 579.126 160.737 578.187 164.362 C 575.617 174.294 568.495 176.811 559.6 175.773 C 561.442 179.255 564.607 188.323 560.618 190.947 C 554.195 190.283 544.074 180.812 538.514 176.402 C 523.599 173.107 525.875 167.795 526.108 154.264 C 522.651 162.091 517.713 177.307 507.047 175.895 C 499.799 172.397 499.986 167.592 495.927 160.972 C 490.354 164.852 493.269 174.441 485.928 175.516 C 468.831 178.021 468.638 172.212 466.176 158.336 C 462.595 164.426 458.28 174.422 451.093 175.815 C 443.862 174.906 440.453 169.096 435.491 163.378 C 430.672 172.376 430.384 172.033 420.783 174.941 C 416.9 172.838 415.906 172.147 411.569 171.791 C 409.739 165.835 410.461 162.555 411.488 156.404 C 424.571 149.615 431.932 155.605 439.464 148.097 C 454.336 133.272 469.109 119.519 485.238 105.993 C 483.803 112.199 482.296 119.544 480.628 125.593 z"/>
<path transform="translate(0,0)" fill="rgb(2,3,2)" d="M 552.026 148.237 C 554.031 159.077 552.404 166.373 559.526 175.142 C 555.361 176.436 546.474 176.321 542.228 174.967 C 543.885 173.857 548.071 171.176 549.395 169.969 C 549.936 162.737 550.241 155.245 552.026 148.237 z"/>
<path transform="translate(0,0)" fill="rgb(254,254,254)" d="M 353.727 204.809 L 354.625 206.063 C 354.057 213.18 355.394 223.328 356.003 230.733 C 357.093 243.544 357.915 256.376 358.467 269.221 L 357.185 270.015 C 353.309 266.965 351.727 260.637 348.032 255.946 C 344.609 258.52 346.506 261.594 344.091 265.14 C 342.259 267.83 338.664 271.462 336.383 273.864 C 331.791 270.461 328.924 268.304 323.165 267.989 C 323.2 274.135 348.169 293.445 320.452 299.006 C 315.025 309.536 311.107 314.081 302.349 321.804 C 294.172 314.084 293.597 314.475 292.744 303.206 C 282.51 304.898 274.504 306.619 264.49 308.99 C 274.812 301.764 285.883 291.596 296.876 283.584 C 300.703 269.293 302.687 257.851 304.805 243.427 C 314.488 241.703 331.643 238.33 340.872 237.937 C 345.589 226.99 347.981 215.915 353.727 204.809 z"/>
<path transform="translate(0,0)" fill="rgb(254,254,254)" d="M 427.025 177.215 C 432.088 176.048 438.92 174.046 442.803 177.789 C 456.435 190.933 439.995 204.871 423.519 193.977 C 424.452 187.912 425.014 183.054 427.025 177.215 z"/>
<path transform="translate(0,0)" fill="rgb(254,254,254)" d="M 657.756 175.093 C 649.222 173.096 632.559 165.547 646.888 154.365 C 650.48 151.562 658.822 154.42 663.414 155.632 C 663.205 164.987 664.398 168.404 658.45 175.07 L 657.756 175.093 z"/>
<path transform="translate(0,0)" fill="rgb(254,254,254)" d="M 345.698 271.911 C 361.564 271.092 363.11 287.682 354.412 295.721 C 338.106 294.458 333.716 281.985 345.698 271.911 z"/>
<path transform="translate(0,0)" fill="rgb(254,254,254)" d="M 652.647 196.793 C 655.775 199.514 661.186 216.397 658.007 220.964 C 655.704 222.794 654.088 222.562 651.195 222.65 C 636.023 211.862 641.225 207.169 652.647 196.793 z"/>
<path transform="translate(0,0)" fill="rgb(254,254,254)" d="M 574.527 176.199 C 579.893 175.87 585.977 174.281 587.749 180.16 C 586.928 184.545 581.895 191.489 579.297 195.54 C 576.935 197.525 578.087 197.158 574.991 196.899 C 566.463 192.124 566.036 182.078 574.527 176.199 z"/>
<path transform="translate(0,0)" fill="rgb(254,254,254)" d="M 607.838 174.84 C 617.769 174.275 621.819 183.829 619.367 192.041 C 616.853 194.264 618.117 193.763 614.561 193.784 C 609.174 190.612 601.402 186.105 600.192 179.888 C 602.497 176.311 603.212 176.908 607.838 174.84 z"/>
<path transform="translate(0,0)" fill="rgb(254,254,254)" d="M 407.796 174.505 C 410.873 175.026 414.152 174.905 415.91 177.305 C 417.527 179.513 419.828 190.398 419.916 192.75 C 414.171 190.555 401.238 184.449 400.73 177.953 C 403.234 175.177 403.634 175.771 407.796 174.505 z"/>
<path transform="translate(0,0)" fill="rgb(254,254,254)" d="M 286.581 320.003 C 290.973 319.796 296.585 318.841 297.266 324.079 C 295.316 328.488 289.943 332.873 286.283 336.316 C 284.946 337.751 283.966 338.332 282.351 339.456 L 280.887 338.824 C 279.414 332.589 282.084 324.548 286.581 320.003 z"/>
<path transform="translate(0,0)" fill="rgb(254,254,254)" d="M 663.041 225.066 L 664.313 226.264 C 665.029 230.392 666.961 239.504 664.925 242.838 L 663.084 242.328 C 659.756 237.925 656.761 235.314 656.428 230.268 C 657.532 227.508 660.36 226.478 663.041 225.066 z"/>
<path transform="translate(0,0)" fill="rgb(254,254,254)" d="M 657.756 175.093 L 658.45 175.07 C 662.016 176.716 664.931 175.713 668.972 178.587 C 667.301 180.816 665.727 179.931 663.473 180.93 C 663.033 181.125 658.986 185.421 658.416 186.02 L 657.276 185.428 C 656.699 180.932 657.004 179.618 657.756 175.093 z"/>
<path transform="translate(0,0)" fill="rgb(254,254,254)" d="M 625.149 197.443 C 632.084 199.891 635.455 203.733 633.642 210.835 C 628.606 209.353 624.506 202.752 625.149 197.443 z"/>
<path transform="translate(0,0)" fill="#fefefe" fill-opacity="0.984314" d="M 726.778 413.182 L 729.074 414.967 C 728.753 420.073 728.606 422.827 727.42 427.905 L 725.146 426.936 C 725.14 424.536 726.421 416.01 726.778 413.182 z"/>
</svg>
